G04 EAGLE Gerber RS-274X export*
G75*
%MOMM*%
%FSLAX34Y34*%
%LPD*%
%INBottom Copper*%
%IPPOS*%
%AMOC8*
5,1,8,0,0,1.08239X$1,22.5*%
G01*
%ADD10C,1.408000*%
%ADD11P,1.649562X8X22.500000*%
%ADD12C,1.000000*%


D10*
X95250Y25400D03*
X69850Y25400D03*
X120650Y25400D03*
X146050Y25400D03*
X171450Y25400D03*
X196850Y25400D03*
X222250Y25400D03*
X44450Y25400D03*
X247650Y356870D03*
X222250Y356870D03*
X196850Y356870D03*
X171450Y356870D03*
X146050Y356870D03*
X120650Y356870D03*
X95250Y356870D03*
X69850Y356870D03*
X44450Y356870D03*
X19050Y356870D03*
D11*
X546100Y152400D03*
X546100Y127000D03*
X546100Y101600D03*
X546100Y76200D03*
X508000Y152400D03*
X482600Y152400D03*
X457200Y152400D03*
X431800Y152400D03*
X406400Y152400D03*
X381000Y152400D03*
X355600Y152400D03*
X330200Y152400D03*
X546100Y50800D03*
X546100Y25400D03*
D12*
X109220Y127000D02*
X44450Y62230D01*
X44450Y25400D01*
X520700Y127000D02*
X546100Y152400D01*
X520700Y127000D02*
X109220Y127000D01*
X132080Y106680D02*
X95250Y69850D01*
X95250Y25400D01*
X525780Y106680D02*
X546100Y127000D01*
X525780Y106680D02*
X132080Y106680D01*
X152400Y83820D02*
X120650Y52070D01*
X120650Y25400D01*
X528320Y83820D02*
X546100Y101600D01*
X528320Y83820D02*
X152400Y83820D01*
X171450Y44450D02*
X171450Y25400D01*
X533400Y63500D02*
X546100Y76200D01*
X190500Y63500D02*
X171450Y44450D01*
X190500Y63500D02*
X533400Y63500D01*
M02*
