G04 EAGLE Gerber RS-274X export*
G75*
%MOMM*%
%FSLAX34Y34*%
%LPD*%
%INSilkscreen Top*%
%IPPOS*%
%AMOC8*
5,1,8,0,0,1.08239X$1,22.5*%
G01*
%ADD10C,0.101600*%
%ADD11C,0.127000*%
%ADD12C,0.152400*%


D10*
X99568Y71769D02*
X102814Y71769D01*
X102814Y71770D02*
X102927Y71768D01*
X103040Y71762D01*
X103153Y71752D01*
X103266Y71738D01*
X103378Y71721D01*
X103489Y71699D01*
X103599Y71674D01*
X103709Y71644D01*
X103817Y71611D01*
X103924Y71574D01*
X104030Y71534D01*
X104134Y71489D01*
X104237Y71441D01*
X104338Y71390D01*
X104437Y71335D01*
X104534Y71277D01*
X104629Y71215D01*
X104722Y71150D01*
X104812Y71082D01*
X104900Y71011D01*
X104986Y70936D01*
X105069Y70859D01*
X105149Y70779D01*
X105226Y70696D01*
X105301Y70610D01*
X105372Y70522D01*
X105440Y70432D01*
X105505Y70339D01*
X105567Y70244D01*
X105625Y70147D01*
X105680Y70048D01*
X105731Y69947D01*
X105779Y69844D01*
X105824Y69740D01*
X105864Y69634D01*
X105901Y69527D01*
X105934Y69419D01*
X105964Y69309D01*
X105989Y69199D01*
X106011Y69088D01*
X106028Y68976D01*
X106042Y68863D01*
X106052Y68750D01*
X106058Y68637D01*
X106060Y68524D01*
X106058Y68411D01*
X106052Y68298D01*
X106042Y68185D01*
X106028Y68072D01*
X106011Y67960D01*
X105989Y67849D01*
X105964Y67739D01*
X105934Y67629D01*
X105901Y67521D01*
X105864Y67414D01*
X105824Y67308D01*
X105779Y67204D01*
X105731Y67101D01*
X105680Y67000D01*
X105625Y66901D01*
X105567Y66804D01*
X105505Y66709D01*
X105440Y66616D01*
X105372Y66526D01*
X105301Y66438D01*
X105226Y66352D01*
X105149Y66269D01*
X105069Y66189D01*
X104986Y66112D01*
X104900Y66037D01*
X104812Y65966D01*
X104722Y65898D01*
X104629Y65833D01*
X104534Y65771D01*
X104437Y65713D01*
X104338Y65658D01*
X104237Y65607D01*
X104134Y65559D01*
X104030Y65514D01*
X103924Y65474D01*
X103817Y65437D01*
X103709Y65404D01*
X103599Y65374D01*
X103489Y65349D01*
X103378Y65327D01*
X103266Y65310D01*
X103153Y65296D01*
X103040Y65286D01*
X102927Y65280D01*
X102814Y65278D01*
X99568Y65278D01*
X99568Y76962D01*
X102814Y76962D01*
X102915Y76960D01*
X103015Y76954D01*
X103115Y76944D01*
X103215Y76931D01*
X103314Y76913D01*
X103413Y76892D01*
X103510Y76867D01*
X103607Y76838D01*
X103702Y76805D01*
X103796Y76769D01*
X103888Y76729D01*
X103979Y76686D01*
X104068Y76639D01*
X104155Y76589D01*
X104241Y76535D01*
X104324Y76478D01*
X104404Y76418D01*
X104483Y76355D01*
X104559Y76288D01*
X104632Y76219D01*
X104702Y76147D01*
X104770Y76073D01*
X104835Y75996D01*
X104896Y75916D01*
X104955Y75834D01*
X105010Y75750D01*
X105062Y75664D01*
X105111Y75576D01*
X105156Y75486D01*
X105198Y75394D01*
X105236Y75301D01*
X105270Y75206D01*
X105301Y75111D01*
X105328Y75014D01*
X105351Y74916D01*
X105371Y74817D01*
X105386Y74717D01*
X105398Y74617D01*
X105406Y74517D01*
X105410Y74416D01*
X105410Y74316D01*
X105406Y74215D01*
X105398Y74115D01*
X105386Y74015D01*
X105371Y73915D01*
X105351Y73816D01*
X105328Y73718D01*
X105301Y73621D01*
X105270Y73526D01*
X105236Y73431D01*
X105198Y73338D01*
X105156Y73246D01*
X105111Y73156D01*
X105062Y73068D01*
X105010Y72982D01*
X104955Y72898D01*
X104896Y72816D01*
X104835Y72736D01*
X104770Y72659D01*
X104702Y72585D01*
X104632Y72513D01*
X104559Y72444D01*
X104483Y72377D01*
X104404Y72314D01*
X104324Y72254D01*
X104241Y72197D01*
X104155Y72143D01*
X104068Y72093D01*
X103979Y72046D01*
X103888Y72003D01*
X103796Y71963D01*
X103702Y71927D01*
X103607Y71894D01*
X103510Y71865D01*
X103413Y71840D01*
X103314Y71819D01*
X103215Y71801D01*
X103115Y71788D01*
X103015Y71778D01*
X102915Y71772D01*
X102814Y71770D01*
X110942Y76962D02*
X110942Y65278D01*
X114836Y70471D02*
X110942Y76962D01*
X114836Y70471D02*
X118731Y76962D01*
X118731Y65278D01*
X124714Y65278D02*
X124714Y76962D01*
X127960Y76962D01*
X128073Y76960D01*
X128186Y76954D01*
X128299Y76944D01*
X128412Y76930D01*
X128524Y76913D01*
X128635Y76891D01*
X128745Y76866D01*
X128855Y76836D01*
X128963Y76803D01*
X129070Y76766D01*
X129176Y76726D01*
X129280Y76681D01*
X129383Y76633D01*
X129484Y76582D01*
X129583Y76527D01*
X129680Y76469D01*
X129775Y76407D01*
X129868Y76342D01*
X129958Y76274D01*
X130046Y76203D01*
X130132Y76128D01*
X130215Y76051D01*
X130295Y75971D01*
X130372Y75888D01*
X130447Y75802D01*
X130518Y75714D01*
X130586Y75624D01*
X130651Y75531D01*
X130713Y75436D01*
X130771Y75339D01*
X130826Y75240D01*
X130877Y75139D01*
X130925Y75036D01*
X130970Y74932D01*
X131010Y74826D01*
X131047Y74719D01*
X131080Y74611D01*
X131110Y74501D01*
X131135Y74391D01*
X131157Y74280D01*
X131174Y74168D01*
X131188Y74055D01*
X131198Y73942D01*
X131204Y73829D01*
X131206Y73716D01*
X131204Y73603D01*
X131198Y73490D01*
X131188Y73377D01*
X131174Y73264D01*
X131157Y73152D01*
X131135Y73041D01*
X131110Y72931D01*
X131080Y72821D01*
X131047Y72713D01*
X131010Y72606D01*
X130970Y72500D01*
X130925Y72396D01*
X130877Y72293D01*
X130826Y72192D01*
X130771Y72093D01*
X130713Y71996D01*
X130651Y71901D01*
X130586Y71808D01*
X130518Y71718D01*
X130447Y71630D01*
X130372Y71544D01*
X130295Y71461D01*
X130215Y71381D01*
X130132Y71304D01*
X130046Y71229D01*
X129958Y71158D01*
X129868Y71090D01*
X129775Y71025D01*
X129680Y70963D01*
X129583Y70905D01*
X129484Y70850D01*
X129383Y70799D01*
X129280Y70751D01*
X129176Y70706D01*
X129070Y70666D01*
X128963Y70629D01*
X128855Y70596D01*
X128745Y70566D01*
X128635Y70541D01*
X128524Y70519D01*
X128412Y70502D01*
X128299Y70488D01*
X128186Y70478D01*
X128073Y70472D01*
X127960Y70470D01*
X127960Y70471D02*
X124714Y70471D01*
X135594Y65278D02*
X138839Y65278D01*
X138952Y65280D01*
X139065Y65286D01*
X139178Y65296D01*
X139291Y65310D01*
X139403Y65327D01*
X139514Y65349D01*
X139624Y65374D01*
X139734Y65404D01*
X139842Y65437D01*
X139949Y65474D01*
X140055Y65514D01*
X140159Y65559D01*
X140262Y65607D01*
X140363Y65658D01*
X140462Y65713D01*
X140559Y65771D01*
X140654Y65833D01*
X140747Y65898D01*
X140837Y65966D01*
X140925Y66037D01*
X141011Y66112D01*
X141094Y66189D01*
X141174Y66269D01*
X141251Y66352D01*
X141326Y66438D01*
X141397Y66526D01*
X141465Y66616D01*
X141530Y66709D01*
X141592Y66804D01*
X141650Y66901D01*
X141705Y67000D01*
X141756Y67101D01*
X141804Y67204D01*
X141849Y67308D01*
X141889Y67414D01*
X141926Y67521D01*
X141959Y67629D01*
X141989Y67739D01*
X142014Y67849D01*
X142036Y67960D01*
X142053Y68072D01*
X142067Y68185D01*
X142077Y68298D01*
X142083Y68411D01*
X142085Y68524D01*
X142083Y68637D01*
X142077Y68750D01*
X142067Y68863D01*
X142053Y68976D01*
X142036Y69088D01*
X142014Y69199D01*
X141989Y69309D01*
X141959Y69419D01*
X141926Y69527D01*
X141889Y69634D01*
X141849Y69740D01*
X141804Y69844D01*
X141756Y69947D01*
X141705Y70048D01*
X141650Y70147D01*
X141592Y70244D01*
X141530Y70339D01*
X141465Y70432D01*
X141397Y70522D01*
X141326Y70610D01*
X141251Y70696D01*
X141174Y70779D01*
X141094Y70859D01*
X141011Y70936D01*
X140925Y71011D01*
X140837Y71082D01*
X140747Y71150D01*
X140654Y71215D01*
X140559Y71277D01*
X140462Y71335D01*
X140363Y71390D01*
X140262Y71441D01*
X140159Y71489D01*
X140055Y71534D01*
X139949Y71574D01*
X139842Y71611D01*
X139734Y71644D01*
X139624Y71674D01*
X139514Y71699D01*
X139403Y71721D01*
X139291Y71738D01*
X139178Y71752D01*
X139065Y71762D01*
X138952Y71768D01*
X138839Y71770D01*
X139488Y76962D02*
X135594Y76962D01*
X139488Y76962D02*
X139589Y76960D01*
X139689Y76954D01*
X139789Y76944D01*
X139889Y76931D01*
X139988Y76913D01*
X140087Y76892D01*
X140184Y76867D01*
X140281Y76838D01*
X140376Y76805D01*
X140470Y76769D01*
X140562Y76729D01*
X140653Y76686D01*
X140742Y76639D01*
X140829Y76589D01*
X140915Y76535D01*
X140998Y76478D01*
X141078Y76418D01*
X141157Y76355D01*
X141233Y76288D01*
X141306Y76219D01*
X141376Y76147D01*
X141444Y76073D01*
X141509Y75996D01*
X141570Y75916D01*
X141629Y75834D01*
X141684Y75750D01*
X141736Y75664D01*
X141785Y75576D01*
X141830Y75486D01*
X141872Y75394D01*
X141910Y75301D01*
X141944Y75206D01*
X141975Y75111D01*
X142002Y75014D01*
X142025Y74916D01*
X142045Y74817D01*
X142060Y74717D01*
X142072Y74617D01*
X142080Y74517D01*
X142084Y74416D01*
X142084Y74316D01*
X142080Y74215D01*
X142072Y74115D01*
X142060Y74015D01*
X142045Y73915D01*
X142025Y73816D01*
X142002Y73718D01*
X141975Y73621D01*
X141944Y73526D01*
X141910Y73431D01*
X141872Y73338D01*
X141830Y73246D01*
X141785Y73156D01*
X141736Y73068D01*
X141684Y72982D01*
X141629Y72898D01*
X141570Y72816D01*
X141509Y72736D01*
X141444Y72659D01*
X141376Y72585D01*
X141306Y72513D01*
X141233Y72444D01*
X141157Y72377D01*
X141078Y72314D01*
X140998Y72254D01*
X140915Y72197D01*
X140829Y72143D01*
X140742Y72093D01*
X140653Y72046D01*
X140562Y72003D01*
X140470Y71963D01*
X140376Y71927D01*
X140281Y71894D01*
X140184Y71865D01*
X140087Y71840D01*
X139988Y71819D01*
X139889Y71801D01*
X139789Y71788D01*
X139689Y71778D01*
X139589Y71772D01*
X139488Y71770D01*
X139488Y71769D02*
X136892Y71769D01*
X149620Y70471D02*
X153515Y70471D01*
X149620Y70471D02*
X149521Y70473D01*
X149421Y70479D01*
X149322Y70488D01*
X149224Y70501D01*
X149126Y70518D01*
X149028Y70539D01*
X148932Y70564D01*
X148837Y70592D01*
X148743Y70624D01*
X148650Y70659D01*
X148558Y70698D01*
X148468Y70741D01*
X148380Y70786D01*
X148293Y70836D01*
X148209Y70888D01*
X148126Y70944D01*
X148046Y71002D01*
X147968Y71064D01*
X147893Y71129D01*
X147820Y71197D01*
X147750Y71267D01*
X147682Y71340D01*
X147617Y71415D01*
X147555Y71493D01*
X147497Y71573D01*
X147441Y71656D01*
X147389Y71740D01*
X147339Y71827D01*
X147294Y71915D01*
X147251Y72005D01*
X147212Y72097D01*
X147177Y72190D01*
X147145Y72284D01*
X147117Y72379D01*
X147092Y72475D01*
X147071Y72573D01*
X147054Y72671D01*
X147041Y72769D01*
X147032Y72868D01*
X147026Y72968D01*
X147024Y73067D01*
X147024Y73716D01*
X147023Y73716D02*
X147025Y73829D01*
X147031Y73942D01*
X147041Y74055D01*
X147055Y74168D01*
X147072Y74280D01*
X147094Y74391D01*
X147119Y74501D01*
X147149Y74611D01*
X147182Y74719D01*
X147219Y74826D01*
X147259Y74932D01*
X147304Y75036D01*
X147352Y75139D01*
X147403Y75240D01*
X147458Y75339D01*
X147516Y75436D01*
X147578Y75531D01*
X147643Y75624D01*
X147711Y75714D01*
X147782Y75802D01*
X147857Y75888D01*
X147934Y75971D01*
X148014Y76051D01*
X148097Y76128D01*
X148183Y76203D01*
X148271Y76274D01*
X148361Y76342D01*
X148454Y76407D01*
X148549Y76469D01*
X148646Y76527D01*
X148745Y76582D01*
X148846Y76633D01*
X148949Y76681D01*
X149053Y76726D01*
X149159Y76766D01*
X149266Y76803D01*
X149374Y76836D01*
X149484Y76866D01*
X149594Y76891D01*
X149705Y76913D01*
X149817Y76930D01*
X149930Y76944D01*
X150043Y76954D01*
X150156Y76960D01*
X150269Y76962D01*
X150382Y76960D01*
X150495Y76954D01*
X150608Y76944D01*
X150721Y76930D01*
X150833Y76913D01*
X150944Y76891D01*
X151054Y76866D01*
X151164Y76836D01*
X151272Y76803D01*
X151379Y76766D01*
X151485Y76726D01*
X151589Y76681D01*
X151692Y76633D01*
X151793Y76582D01*
X151892Y76527D01*
X151989Y76469D01*
X152084Y76407D01*
X152177Y76342D01*
X152267Y76274D01*
X152355Y76203D01*
X152441Y76128D01*
X152524Y76051D01*
X152604Y75971D01*
X152681Y75888D01*
X152756Y75802D01*
X152827Y75714D01*
X152895Y75624D01*
X152960Y75531D01*
X153022Y75436D01*
X153080Y75339D01*
X153135Y75240D01*
X153186Y75139D01*
X153234Y75036D01*
X153279Y74932D01*
X153319Y74826D01*
X153356Y74719D01*
X153389Y74611D01*
X153419Y74501D01*
X153444Y74391D01*
X153466Y74280D01*
X153483Y74168D01*
X153497Y74055D01*
X153507Y73942D01*
X153513Y73829D01*
X153515Y73716D01*
X153515Y70471D01*
X153513Y70328D01*
X153507Y70185D01*
X153497Y70042D01*
X153483Y69900D01*
X153466Y69758D01*
X153444Y69616D01*
X153419Y69475D01*
X153389Y69335D01*
X153356Y69196D01*
X153319Y69058D01*
X153278Y68921D01*
X153234Y68785D01*
X153185Y68650D01*
X153133Y68517D01*
X153078Y68385D01*
X153018Y68255D01*
X152955Y68126D01*
X152889Y67999D01*
X152819Y67874D01*
X152746Y67752D01*
X152669Y67631D01*
X152589Y67512D01*
X152506Y67396D01*
X152420Y67281D01*
X152331Y67170D01*
X152238Y67060D01*
X152143Y66954D01*
X152044Y66850D01*
X151943Y66749D01*
X151839Y66650D01*
X151733Y66555D01*
X151623Y66462D01*
X151512Y66373D01*
X151397Y66287D01*
X151281Y66204D01*
X151162Y66124D01*
X151041Y66047D01*
X150918Y65974D01*
X150794Y65904D01*
X150667Y65838D01*
X150538Y65775D01*
X150408Y65715D01*
X150276Y65660D01*
X150143Y65608D01*
X150008Y65559D01*
X149872Y65515D01*
X149735Y65474D01*
X149597Y65437D01*
X149458Y65404D01*
X149318Y65374D01*
X149177Y65349D01*
X149035Y65327D01*
X148893Y65310D01*
X148751Y65296D01*
X148608Y65286D01*
X148465Y65280D01*
X148322Y65278D01*
X158454Y71120D02*
X158457Y71350D01*
X158465Y71580D01*
X158479Y71809D01*
X158498Y72038D01*
X158523Y72267D01*
X158553Y72494D01*
X158588Y72722D01*
X158629Y72948D01*
X158675Y73173D01*
X158727Y73397D01*
X158784Y73619D01*
X158846Y73841D01*
X158914Y74060D01*
X158987Y74278D01*
X159065Y74495D01*
X159148Y74709D01*
X159236Y74921D01*
X159329Y75131D01*
X159428Y75339D01*
X159427Y75339D02*
X159460Y75429D01*
X159496Y75518D01*
X159536Y75606D01*
X159580Y75691D01*
X159627Y75775D01*
X159677Y75857D01*
X159731Y75937D01*
X159787Y76014D01*
X159847Y76090D01*
X159910Y76163D01*
X159975Y76233D01*
X160044Y76301D01*
X160115Y76365D01*
X160188Y76427D01*
X160264Y76486D01*
X160342Y76542D01*
X160423Y76595D01*
X160505Y76644D01*
X160589Y76690D01*
X160676Y76733D01*
X160763Y76772D01*
X160853Y76808D01*
X160943Y76840D01*
X161035Y76868D01*
X161128Y76893D01*
X161222Y76914D01*
X161316Y76931D01*
X161411Y76945D01*
X161507Y76954D01*
X161603Y76960D01*
X161699Y76962D01*
X161795Y76960D01*
X161891Y76954D01*
X161987Y76945D01*
X162082Y76931D01*
X162176Y76914D01*
X162270Y76893D01*
X162363Y76868D01*
X162455Y76840D01*
X162545Y76808D01*
X162635Y76772D01*
X162722Y76733D01*
X162809Y76690D01*
X162893Y76644D01*
X162975Y76595D01*
X163056Y76542D01*
X163134Y76486D01*
X163210Y76427D01*
X163283Y76365D01*
X163354Y76301D01*
X163423Y76233D01*
X163488Y76163D01*
X163551Y76090D01*
X163611Y76014D01*
X163667Y75937D01*
X163721Y75857D01*
X163771Y75775D01*
X163818Y75691D01*
X163862Y75606D01*
X163902Y75518D01*
X163938Y75429D01*
X163971Y75339D01*
X164070Y75132D01*
X164163Y74922D01*
X164251Y74709D01*
X164334Y74495D01*
X164412Y74279D01*
X164485Y74061D01*
X164553Y73841D01*
X164615Y73620D01*
X164672Y73397D01*
X164724Y73173D01*
X164770Y72948D01*
X164811Y72722D01*
X164846Y72495D01*
X164876Y72267D01*
X164901Y72038D01*
X164920Y71809D01*
X164934Y71580D01*
X164942Y71350D01*
X164945Y71120D01*
X158453Y71120D02*
X158456Y70890D01*
X158464Y70660D01*
X158478Y70431D01*
X158497Y70202D01*
X158522Y69973D01*
X158552Y69745D01*
X158587Y69518D01*
X158628Y69292D01*
X158674Y69067D01*
X158726Y68843D01*
X158783Y68620D01*
X158845Y68399D01*
X158913Y68179D01*
X158986Y67961D01*
X159064Y67745D01*
X159147Y67531D01*
X159235Y67319D01*
X159328Y67108D01*
X159427Y66901D01*
X159460Y66811D01*
X159496Y66722D01*
X159537Y66634D01*
X159580Y66549D01*
X159627Y66465D01*
X159677Y66383D01*
X159731Y66303D01*
X159787Y66226D01*
X159847Y66150D01*
X159910Y66077D01*
X159975Y66007D01*
X160044Y65939D01*
X160115Y65875D01*
X160188Y65813D01*
X160264Y65754D01*
X160342Y65698D01*
X160423Y65645D01*
X160505Y65596D01*
X160589Y65550D01*
X160676Y65507D01*
X160763Y65468D01*
X160853Y65432D01*
X160943Y65400D01*
X161035Y65372D01*
X161128Y65347D01*
X161222Y65326D01*
X161316Y65309D01*
X161411Y65295D01*
X161507Y65286D01*
X161603Y65280D01*
X161699Y65278D01*
X163971Y66901D02*
X164070Y67108D01*
X164163Y67319D01*
X164251Y67531D01*
X164334Y67745D01*
X164412Y67961D01*
X164485Y68179D01*
X164553Y68399D01*
X164615Y68620D01*
X164672Y68843D01*
X164724Y69067D01*
X164770Y69292D01*
X164811Y69518D01*
X164846Y69745D01*
X164876Y69973D01*
X164901Y70202D01*
X164920Y70431D01*
X164934Y70660D01*
X164942Y70890D01*
X164945Y71120D01*
X163971Y66901D02*
X163938Y66811D01*
X163902Y66722D01*
X163862Y66634D01*
X163818Y66549D01*
X163771Y66465D01*
X163721Y66383D01*
X163667Y66303D01*
X163611Y66226D01*
X163551Y66150D01*
X163488Y66077D01*
X163423Y66007D01*
X163354Y65939D01*
X163283Y65875D01*
X163210Y65813D01*
X163134Y65754D01*
X163056Y65698D01*
X162975Y65645D01*
X162893Y65596D01*
X162809Y65550D01*
X162722Y65507D01*
X162635Y65468D01*
X162545Y65432D01*
X162455Y65400D01*
X162363Y65372D01*
X162270Y65347D01*
X162176Y65326D01*
X162082Y65309D01*
X161987Y65295D01*
X161891Y65286D01*
X161795Y65280D01*
X161699Y65278D01*
X159103Y67874D02*
X164296Y74366D01*
D11*
X254000Y6350D02*
X12700Y6350D01*
X20139Y165100D02*
X20144Y165541D01*
X20161Y165981D01*
X20188Y166421D01*
X20225Y166860D01*
X20274Y167299D01*
X20333Y167735D01*
X20403Y168171D01*
X20484Y168604D01*
X20575Y169035D01*
X20677Y169464D01*
X20790Y169890D01*
X20912Y170314D01*
X21046Y170734D01*
X21189Y171151D01*
X21343Y171564D01*
X21506Y171973D01*
X21680Y172379D01*
X21863Y172779D01*
X22057Y173175D01*
X22260Y173567D01*
X22472Y173953D01*
X22694Y174334D01*
X22926Y174709D01*
X23166Y175079D01*
X23415Y175442D01*
X23674Y175799D01*
X23941Y176150D01*
X24216Y176494D01*
X24500Y176832D01*
X24792Y177162D01*
X25092Y177485D01*
X25400Y177800D01*
X25715Y178108D01*
X26038Y178408D01*
X26368Y178700D01*
X26706Y178984D01*
X27050Y179259D01*
X27401Y179526D01*
X27758Y179785D01*
X28121Y180034D01*
X28491Y180274D01*
X28866Y180506D01*
X29247Y180728D01*
X29633Y180940D01*
X30025Y181143D01*
X30421Y181337D01*
X30821Y181520D01*
X31227Y181694D01*
X31636Y181857D01*
X32049Y182011D01*
X32466Y182154D01*
X32886Y182288D01*
X33310Y182410D01*
X33736Y182523D01*
X34165Y182625D01*
X34596Y182716D01*
X35029Y182797D01*
X35465Y182867D01*
X35901Y182926D01*
X36340Y182975D01*
X36779Y183012D01*
X37219Y183039D01*
X37659Y183056D01*
X38100Y183061D01*
X38541Y183056D01*
X38981Y183039D01*
X39421Y183012D01*
X39860Y182975D01*
X40299Y182926D01*
X40735Y182867D01*
X41171Y182797D01*
X41604Y182716D01*
X42035Y182625D01*
X42464Y182523D01*
X42890Y182410D01*
X43314Y182288D01*
X43734Y182154D01*
X44151Y182011D01*
X44564Y181857D01*
X44973Y181694D01*
X45379Y181520D01*
X45779Y181337D01*
X46175Y181143D01*
X46567Y180940D01*
X46953Y180728D01*
X47334Y180506D01*
X47709Y180274D01*
X48079Y180034D01*
X48442Y179785D01*
X48799Y179526D01*
X49150Y179259D01*
X49494Y178984D01*
X49832Y178700D01*
X50162Y178408D01*
X50485Y178108D01*
X50800Y177800D01*
X51108Y177485D01*
X51408Y177162D01*
X51700Y176832D01*
X51984Y176494D01*
X52259Y176150D01*
X52526Y175799D01*
X52785Y175442D01*
X53034Y175079D01*
X53274Y174709D01*
X53506Y174334D01*
X53728Y173953D01*
X53940Y173567D01*
X54143Y173175D01*
X54337Y172779D01*
X54520Y172379D01*
X54694Y171973D01*
X54857Y171564D01*
X55011Y171151D01*
X55154Y170734D01*
X55288Y170314D01*
X55410Y169890D01*
X55523Y169464D01*
X55625Y169035D01*
X55716Y168604D01*
X55797Y168171D01*
X55867Y167735D01*
X55926Y167299D01*
X55975Y166860D01*
X56012Y166421D01*
X56039Y165981D01*
X56056Y165541D01*
X56061Y165100D01*
X56056Y164659D01*
X56039Y164219D01*
X56012Y163779D01*
X55975Y163340D01*
X55926Y162901D01*
X55867Y162465D01*
X55797Y162029D01*
X55716Y161596D01*
X55625Y161165D01*
X55523Y160736D01*
X55410Y160310D01*
X55288Y159886D01*
X55154Y159466D01*
X55011Y159049D01*
X54857Y158636D01*
X54694Y158227D01*
X54520Y157821D01*
X54337Y157421D01*
X54143Y157025D01*
X53940Y156633D01*
X53728Y156247D01*
X53506Y155866D01*
X53274Y155491D01*
X53034Y155121D01*
X52785Y154758D01*
X52526Y154401D01*
X52259Y154050D01*
X51984Y153706D01*
X51700Y153368D01*
X51408Y153038D01*
X51108Y152715D01*
X50800Y152400D01*
X50485Y152092D01*
X50162Y151792D01*
X49832Y151500D01*
X49494Y151216D01*
X49150Y150941D01*
X48799Y150674D01*
X48442Y150415D01*
X48079Y150166D01*
X47709Y149926D01*
X47334Y149694D01*
X46953Y149472D01*
X46567Y149260D01*
X46175Y149057D01*
X45779Y148863D01*
X45379Y148680D01*
X44973Y148506D01*
X44564Y148343D01*
X44151Y148189D01*
X43734Y148046D01*
X43314Y147912D01*
X42890Y147790D01*
X42464Y147677D01*
X42035Y147575D01*
X41604Y147484D01*
X41171Y147403D01*
X40735Y147333D01*
X40299Y147274D01*
X39860Y147225D01*
X39421Y147188D01*
X38981Y147161D01*
X38541Y147144D01*
X38100Y147139D01*
X37659Y147144D01*
X37219Y147161D01*
X36779Y147188D01*
X36340Y147225D01*
X35901Y147274D01*
X35465Y147333D01*
X35029Y147403D01*
X34596Y147484D01*
X34165Y147575D01*
X33736Y147677D01*
X33310Y147790D01*
X32886Y147912D01*
X32466Y148046D01*
X32049Y148189D01*
X31636Y148343D01*
X31227Y148506D01*
X30821Y148680D01*
X30421Y148863D01*
X30025Y149057D01*
X29633Y149260D01*
X29247Y149472D01*
X28866Y149694D01*
X28491Y149926D01*
X28121Y150166D01*
X27758Y150415D01*
X27401Y150674D01*
X27050Y150941D01*
X26706Y151216D01*
X26368Y151500D01*
X26038Y151792D01*
X25715Y152092D01*
X25400Y152400D01*
X25092Y152715D01*
X24792Y153038D01*
X24500Y153368D01*
X24216Y153706D01*
X23941Y154050D01*
X23674Y154401D01*
X23415Y154758D01*
X23166Y155121D01*
X22926Y155491D01*
X22694Y155866D01*
X22472Y156247D01*
X22260Y156633D01*
X22057Y157025D01*
X21863Y157421D01*
X21680Y157821D01*
X21506Y158227D01*
X21343Y158636D01*
X21189Y159049D01*
X21046Y159466D01*
X20912Y159886D01*
X20790Y160310D01*
X20677Y160736D01*
X20575Y161165D01*
X20484Y161596D01*
X20403Y162029D01*
X20333Y162465D01*
X20274Y162901D01*
X20225Y163340D01*
X20188Y163779D01*
X20161Y164219D01*
X20144Y164659D01*
X20139Y165100D01*
X209369Y165100D02*
X209374Y165541D01*
X209391Y165981D01*
X209418Y166421D01*
X209455Y166860D01*
X209504Y167299D01*
X209563Y167735D01*
X209633Y168171D01*
X209714Y168604D01*
X209805Y169035D01*
X209907Y169464D01*
X210020Y169890D01*
X210142Y170314D01*
X210276Y170734D01*
X210419Y171151D01*
X210573Y171564D01*
X210736Y171973D01*
X210910Y172379D01*
X211093Y172779D01*
X211287Y173175D01*
X211490Y173567D01*
X211702Y173953D01*
X211924Y174334D01*
X212156Y174709D01*
X212396Y175079D01*
X212645Y175442D01*
X212904Y175799D01*
X213171Y176150D01*
X213446Y176494D01*
X213730Y176832D01*
X214022Y177162D01*
X214322Y177485D01*
X214630Y177800D01*
X214945Y178108D01*
X215268Y178408D01*
X215598Y178700D01*
X215936Y178984D01*
X216280Y179259D01*
X216631Y179526D01*
X216988Y179785D01*
X217351Y180034D01*
X217721Y180274D01*
X218096Y180506D01*
X218477Y180728D01*
X218863Y180940D01*
X219255Y181143D01*
X219651Y181337D01*
X220051Y181520D01*
X220457Y181694D01*
X220866Y181857D01*
X221279Y182011D01*
X221696Y182154D01*
X222116Y182288D01*
X222540Y182410D01*
X222966Y182523D01*
X223395Y182625D01*
X223826Y182716D01*
X224259Y182797D01*
X224695Y182867D01*
X225131Y182926D01*
X225570Y182975D01*
X226009Y183012D01*
X226449Y183039D01*
X226889Y183056D01*
X227330Y183061D01*
X227771Y183056D01*
X228211Y183039D01*
X228651Y183012D01*
X229090Y182975D01*
X229529Y182926D01*
X229965Y182867D01*
X230401Y182797D01*
X230834Y182716D01*
X231265Y182625D01*
X231694Y182523D01*
X232120Y182410D01*
X232544Y182288D01*
X232964Y182154D01*
X233381Y182011D01*
X233794Y181857D01*
X234203Y181694D01*
X234609Y181520D01*
X235009Y181337D01*
X235405Y181143D01*
X235797Y180940D01*
X236183Y180728D01*
X236564Y180506D01*
X236939Y180274D01*
X237309Y180034D01*
X237672Y179785D01*
X238029Y179526D01*
X238380Y179259D01*
X238724Y178984D01*
X239062Y178700D01*
X239392Y178408D01*
X239715Y178108D01*
X240030Y177800D01*
X240338Y177485D01*
X240638Y177162D01*
X240930Y176832D01*
X241214Y176494D01*
X241489Y176150D01*
X241756Y175799D01*
X242015Y175442D01*
X242264Y175079D01*
X242504Y174709D01*
X242736Y174334D01*
X242958Y173953D01*
X243170Y173567D01*
X243373Y173175D01*
X243567Y172779D01*
X243750Y172379D01*
X243924Y171973D01*
X244087Y171564D01*
X244241Y171151D01*
X244384Y170734D01*
X244518Y170314D01*
X244640Y169890D01*
X244753Y169464D01*
X244855Y169035D01*
X244946Y168604D01*
X245027Y168171D01*
X245097Y167735D01*
X245156Y167299D01*
X245205Y166860D01*
X245242Y166421D01*
X245269Y165981D01*
X245286Y165541D01*
X245291Y165100D01*
X245286Y164659D01*
X245269Y164219D01*
X245242Y163779D01*
X245205Y163340D01*
X245156Y162901D01*
X245097Y162465D01*
X245027Y162029D01*
X244946Y161596D01*
X244855Y161165D01*
X244753Y160736D01*
X244640Y160310D01*
X244518Y159886D01*
X244384Y159466D01*
X244241Y159049D01*
X244087Y158636D01*
X243924Y158227D01*
X243750Y157821D01*
X243567Y157421D01*
X243373Y157025D01*
X243170Y156633D01*
X242958Y156247D01*
X242736Y155866D01*
X242504Y155491D01*
X242264Y155121D01*
X242015Y154758D01*
X241756Y154401D01*
X241489Y154050D01*
X241214Y153706D01*
X240930Y153368D01*
X240638Y153038D01*
X240338Y152715D01*
X240030Y152400D01*
X239715Y152092D01*
X239392Y151792D01*
X239062Y151500D01*
X238724Y151216D01*
X238380Y150941D01*
X238029Y150674D01*
X237672Y150415D01*
X237309Y150166D01*
X236939Y149926D01*
X236564Y149694D01*
X236183Y149472D01*
X235797Y149260D01*
X235405Y149057D01*
X235009Y148863D01*
X234609Y148680D01*
X234203Y148506D01*
X233794Y148343D01*
X233381Y148189D01*
X232964Y148046D01*
X232544Y147912D01*
X232120Y147790D01*
X231694Y147677D01*
X231265Y147575D01*
X230834Y147484D01*
X230401Y147403D01*
X229965Y147333D01*
X229529Y147274D01*
X229090Y147225D01*
X228651Y147188D01*
X228211Y147161D01*
X227771Y147144D01*
X227330Y147139D01*
X226889Y147144D01*
X226449Y147161D01*
X226009Y147188D01*
X225570Y147225D01*
X225131Y147274D01*
X224695Y147333D01*
X224259Y147403D01*
X223826Y147484D01*
X223395Y147575D01*
X222966Y147677D01*
X222540Y147790D01*
X222116Y147912D01*
X221696Y148046D01*
X221279Y148189D01*
X220866Y148343D01*
X220457Y148506D01*
X220051Y148680D01*
X219651Y148863D01*
X219255Y149057D01*
X218863Y149260D01*
X218477Y149472D01*
X218096Y149694D01*
X217721Y149926D01*
X217351Y150166D01*
X216988Y150415D01*
X216631Y150674D01*
X216280Y150941D01*
X215936Y151216D01*
X215598Y151500D01*
X215268Y151792D01*
X214945Y152092D01*
X214630Y152400D01*
X214322Y152715D01*
X214022Y153038D01*
X213730Y153368D01*
X213446Y153706D01*
X213171Y154050D01*
X212904Y154401D01*
X212645Y154758D01*
X212396Y155121D01*
X212156Y155491D01*
X211924Y155866D01*
X211702Y156247D01*
X211490Y156633D01*
X211287Y157025D01*
X211093Y157421D01*
X210910Y157821D01*
X210736Y158227D01*
X210573Y158636D01*
X210419Y159049D01*
X210276Y159466D01*
X210142Y159886D01*
X210020Y160310D01*
X209907Y160736D01*
X209805Y161165D01*
X209714Y161596D01*
X209633Y162029D01*
X209563Y162465D01*
X209504Y162901D01*
X209455Y163340D01*
X209418Y163779D01*
X209391Y164219D01*
X209374Y164659D01*
X209369Y165100D01*
X260350Y369570D02*
X10350Y369570D01*
X10350Y219570D02*
X260350Y219570D01*
X260350Y369570D01*
X10160Y369570D02*
X6350Y369570D01*
X6350Y219710D01*
X11430Y219710D01*
X219037Y245110D02*
X219042Y245501D01*
X219056Y245891D01*
X219080Y246281D01*
X219114Y246670D01*
X219157Y247058D01*
X219209Y247445D01*
X219271Y247831D01*
X219343Y248214D01*
X219424Y248597D01*
X219514Y248977D01*
X219613Y249354D01*
X219722Y249729D01*
X219840Y250102D01*
X219967Y250471D01*
X220103Y250837D01*
X220248Y251200D01*
X220402Y251559D01*
X220565Y251914D01*
X220736Y252265D01*
X220916Y252611D01*
X221104Y252953D01*
X221301Y253291D01*
X221506Y253623D01*
X221719Y253951D01*
X221940Y254273D01*
X222169Y254589D01*
X222405Y254900D01*
X222649Y255205D01*
X222901Y255504D01*
X223159Y255797D01*
X223425Y256083D01*
X223698Y256362D01*
X223977Y256635D01*
X224263Y256901D01*
X224556Y257159D01*
X224855Y257411D01*
X225160Y257655D01*
X225471Y257891D01*
X225787Y258120D01*
X226109Y258341D01*
X226437Y258554D01*
X226769Y258759D01*
X227107Y258956D01*
X227449Y259144D01*
X227795Y259324D01*
X228146Y259495D01*
X228501Y259658D01*
X228860Y259812D01*
X229223Y259957D01*
X229589Y260093D01*
X229958Y260220D01*
X230331Y260338D01*
X230706Y260447D01*
X231083Y260546D01*
X231463Y260636D01*
X231846Y260717D01*
X232229Y260789D01*
X232615Y260851D01*
X233002Y260903D01*
X233390Y260946D01*
X233779Y260980D01*
X234169Y261004D01*
X234559Y261018D01*
X234950Y261023D01*
X235341Y261018D01*
X235731Y261004D01*
X236121Y260980D01*
X236510Y260946D01*
X236898Y260903D01*
X237285Y260851D01*
X237671Y260789D01*
X238054Y260717D01*
X238437Y260636D01*
X238817Y260546D01*
X239194Y260447D01*
X239569Y260338D01*
X239942Y260220D01*
X240311Y260093D01*
X240677Y259957D01*
X241040Y259812D01*
X241399Y259658D01*
X241754Y259495D01*
X242105Y259324D01*
X242451Y259144D01*
X242793Y258956D01*
X243131Y258759D01*
X243463Y258554D01*
X243791Y258341D01*
X244113Y258120D01*
X244429Y257891D01*
X244740Y257655D01*
X245045Y257411D01*
X245344Y257159D01*
X245637Y256901D01*
X245923Y256635D01*
X246202Y256362D01*
X246475Y256083D01*
X246741Y255797D01*
X246999Y255504D01*
X247251Y255205D01*
X247495Y254900D01*
X247731Y254589D01*
X247960Y254273D01*
X248181Y253951D01*
X248394Y253623D01*
X248599Y253291D01*
X248796Y252953D01*
X248984Y252611D01*
X249164Y252265D01*
X249335Y251914D01*
X249498Y251559D01*
X249652Y251200D01*
X249797Y250837D01*
X249933Y250471D01*
X250060Y250102D01*
X250178Y249729D01*
X250287Y249354D01*
X250386Y248977D01*
X250476Y248597D01*
X250557Y248214D01*
X250629Y247831D01*
X250691Y247445D01*
X250743Y247058D01*
X250786Y246670D01*
X250820Y246281D01*
X250844Y245891D01*
X250858Y245501D01*
X250863Y245110D01*
X250858Y244719D01*
X250844Y244329D01*
X250820Y243939D01*
X250786Y243550D01*
X250743Y243162D01*
X250691Y242775D01*
X250629Y242389D01*
X250557Y242006D01*
X250476Y241623D01*
X250386Y241243D01*
X250287Y240866D01*
X250178Y240491D01*
X250060Y240118D01*
X249933Y239749D01*
X249797Y239383D01*
X249652Y239020D01*
X249498Y238661D01*
X249335Y238306D01*
X249164Y237955D01*
X248984Y237609D01*
X248796Y237267D01*
X248599Y236929D01*
X248394Y236597D01*
X248181Y236269D01*
X247960Y235947D01*
X247731Y235631D01*
X247495Y235320D01*
X247251Y235015D01*
X246999Y234716D01*
X246741Y234423D01*
X246475Y234137D01*
X246202Y233858D01*
X245923Y233585D01*
X245637Y233319D01*
X245344Y233061D01*
X245045Y232809D01*
X244740Y232565D01*
X244429Y232329D01*
X244113Y232100D01*
X243791Y231879D01*
X243463Y231666D01*
X243131Y231461D01*
X242793Y231264D01*
X242451Y231076D01*
X242105Y230896D01*
X241754Y230725D01*
X241399Y230562D01*
X241040Y230408D01*
X240677Y230263D01*
X240311Y230127D01*
X239942Y230000D01*
X239569Y229882D01*
X239194Y229773D01*
X238817Y229674D01*
X238437Y229584D01*
X238054Y229503D01*
X237671Y229431D01*
X237285Y229369D01*
X236898Y229317D01*
X236510Y229274D01*
X236121Y229240D01*
X235731Y229216D01*
X235341Y229202D01*
X234950Y229197D01*
X234559Y229202D01*
X234169Y229216D01*
X233779Y229240D01*
X233390Y229274D01*
X233002Y229317D01*
X232615Y229369D01*
X232229Y229431D01*
X231846Y229503D01*
X231463Y229584D01*
X231083Y229674D01*
X230706Y229773D01*
X230331Y229882D01*
X229958Y230000D01*
X229589Y230127D01*
X229223Y230263D01*
X228860Y230408D01*
X228501Y230562D01*
X228146Y230725D01*
X227795Y230896D01*
X227449Y231076D01*
X227107Y231264D01*
X226769Y231461D01*
X226437Y231666D01*
X226109Y231879D01*
X225787Y232100D01*
X225471Y232329D01*
X225160Y232565D01*
X224855Y232809D01*
X224556Y233061D01*
X224263Y233319D01*
X223977Y233585D01*
X223698Y233858D01*
X223425Y234137D01*
X223159Y234423D01*
X222901Y234716D01*
X222649Y235015D01*
X222405Y235320D01*
X222169Y235631D01*
X221940Y235947D01*
X221719Y236269D01*
X221506Y236597D01*
X221301Y236929D01*
X221104Y237267D01*
X220916Y237609D01*
X220736Y237955D01*
X220565Y238306D01*
X220402Y238661D01*
X220248Y239020D01*
X220103Y239383D01*
X219967Y239749D01*
X219840Y240118D01*
X219722Y240491D01*
X219613Y240866D01*
X219514Y241243D01*
X219424Y241623D01*
X219343Y242006D01*
X219271Y242389D01*
X219209Y242775D01*
X219157Y243162D01*
X219114Y243550D01*
X219080Y243939D01*
X219056Y244329D01*
X219042Y244719D01*
X219037Y245110D01*
X15837Y245110D02*
X15842Y245501D01*
X15856Y245891D01*
X15880Y246281D01*
X15914Y246670D01*
X15957Y247058D01*
X16009Y247445D01*
X16071Y247831D01*
X16143Y248214D01*
X16224Y248597D01*
X16314Y248977D01*
X16413Y249354D01*
X16522Y249729D01*
X16640Y250102D01*
X16767Y250471D01*
X16903Y250837D01*
X17048Y251200D01*
X17202Y251559D01*
X17365Y251914D01*
X17536Y252265D01*
X17716Y252611D01*
X17904Y252953D01*
X18101Y253291D01*
X18306Y253623D01*
X18519Y253951D01*
X18740Y254273D01*
X18969Y254589D01*
X19205Y254900D01*
X19449Y255205D01*
X19701Y255504D01*
X19959Y255797D01*
X20225Y256083D01*
X20498Y256362D01*
X20777Y256635D01*
X21063Y256901D01*
X21356Y257159D01*
X21655Y257411D01*
X21960Y257655D01*
X22271Y257891D01*
X22587Y258120D01*
X22909Y258341D01*
X23237Y258554D01*
X23569Y258759D01*
X23907Y258956D01*
X24249Y259144D01*
X24595Y259324D01*
X24946Y259495D01*
X25301Y259658D01*
X25660Y259812D01*
X26023Y259957D01*
X26389Y260093D01*
X26758Y260220D01*
X27131Y260338D01*
X27506Y260447D01*
X27883Y260546D01*
X28263Y260636D01*
X28646Y260717D01*
X29029Y260789D01*
X29415Y260851D01*
X29802Y260903D01*
X30190Y260946D01*
X30579Y260980D01*
X30969Y261004D01*
X31359Y261018D01*
X31750Y261023D01*
X32141Y261018D01*
X32531Y261004D01*
X32921Y260980D01*
X33310Y260946D01*
X33698Y260903D01*
X34085Y260851D01*
X34471Y260789D01*
X34854Y260717D01*
X35237Y260636D01*
X35617Y260546D01*
X35994Y260447D01*
X36369Y260338D01*
X36742Y260220D01*
X37111Y260093D01*
X37477Y259957D01*
X37840Y259812D01*
X38199Y259658D01*
X38554Y259495D01*
X38905Y259324D01*
X39251Y259144D01*
X39593Y258956D01*
X39931Y258759D01*
X40263Y258554D01*
X40591Y258341D01*
X40913Y258120D01*
X41229Y257891D01*
X41540Y257655D01*
X41845Y257411D01*
X42144Y257159D01*
X42437Y256901D01*
X42723Y256635D01*
X43002Y256362D01*
X43275Y256083D01*
X43541Y255797D01*
X43799Y255504D01*
X44051Y255205D01*
X44295Y254900D01*
X44531Y254589D01*
X44760Y254273D01*
X44981Y253951D01*
X45194Y253623D01*
X45399Y253291D01*
X45596Y252953D01*
X45784Y252611D01*
X45964Y252265D01*
X46135Y251914D01*
X46298Y251559D01*
X46452Y251200D01*
X46597Y250837D01*
X46733Y250471D01*
X46860Y250102D01*
X46978Y249729D01*
X47087Y249354D01*
X47186Y248977D01*
X47276Y248597D01*
X47357Y248214D01*
X47429Y247831D01*
X47491Y247445D01*
X47543Y247058D01*
X47586Y246670D01*
X47620Y246281D01*
X47644Y245891D01*
X47658Y245501D01*
X47663Y245110D01*
X47658Y244719D01*
X47644Y244329D01*
X47620Y243939D01*
X47586Y243550D01*
X47543Y243162D01*
X47491Y242775D01*
X47429Y242389D01*
X47357Y242006D01*
X47276Y241623D01*
X47186Y241243D01*
X47087Y240866D01*
X46978Y240491D01*
X46860Y240118D01*
X46733Y239749D01*
X46597Y239383D01*
X46452Y239020D01*
X46298Y238661D01*
X46135Y238306D01*
X45964Y237955D01*
X45784Y237609D01*
X45596Y237267D01*
X45399Y236929D01*
X45194Y236597D01*
X44981Y236269D01*
X44760Y235947D01*
X44531Y235631D01*
X44295Y235320D01*
X44051Y235015D01*
X43799Y234716D01*
X43541Y234423D01*
X43275Y234137D01*
X43002Y233858D01*
X42723Y233585D01*
X42437Y233319D01*
X42144Y233061D01*
X41845Y232809D01*
X41540Y232565D01*
X41229Y232329D01*
X40913Y232100D01*
X40591Y231879D01*
X40263Y231666D01*
X39931Y231461D01*
X39593Y231264D01*
X39251Y231076D01*
X38905Y230896D01*
X38554Y230725D01*
X38199Y230562D01*
X37840Y230408D01*
X37477Y230263D01*
X37111Y230127D01*
X36742Y230000D01*
X36369Y229882D01*
X35994Y229773D01*
X35617Y229674D01*
X35237Y229584D01*
X34854Y229503D01*
X34471Y229431D01*
X34085Y229369D01*
X33698Y229317D01*
X33310Y229274D01*
X32921Y229240D01*
X32531Y229216D01*
X32141Y229202D01*
X31750Y229197D01*
X31359Y229202D01*
X30969Y229216D01*
X30579Y229240D01*
X30190Y229274D01*
X29802Y229317D01*
X29415Y229369D01*
X29029Y229431D01*
X28646Y229503D01*
X28263Y229584D01*
X27883Y229674D01*
X27506Y229773D01*
X27131Y229882D01*
X26758Y230000D01*
X26389Y230127D01*
X26023Y230263D01*
X25660Y230408D01*
X25301Y230562D01*
X24946Y230725D01*
X24595Y230896D01*
X24249Y231076D01*
X23907Y231264D01*
X23569Y231461D01*
X23237Y231666D01*
X22909Y231879D01*
X22587Y232100D01*
X22271Y232329D01*
X21960Y232565D01*
X21655Y232809D01*
X21356Y233061D01*
X21063Y233319D01*
X20777Y233585D01*
X20498Y233858D01*
X20225Y234137D01*
X19959Y234423D01*
X19701Y234716D01*
X19449Y235015D01*
X19205Y235320D01*
X18969Y235631D01*
X18740Y235947D01*
X18519Y236269D01*
X18306Y236597D01*
X18101Y236929D01*
X17904Y237267D01*
X17716Y237609D01*
X17536Y237955D01*
X17365Y238306D01*
X17202Y238661D01*
X17048Y239020D01*
X16903Y239383D01*
X16767Y239749D01*
X16640Y240118D01*
X16522Y240491D01*
X16413Y240866D01*
X16314Y241243D01*
X16224Y241623D01*
X16143Y242006D01*
X16071Y242389D01*
X16009Y242775D01*
X15957Y243162D01*
X15914Y243550D01*
X15880Y243939D01*
X15856Y244329D01*
X15842Y244719D01*
X15837Y245110D01*
D10*
X90547Y269678D02*
X90547Y281362D01*
X94442Y274871D01*
X98336Y281362D01*
X98336Y269678D01*
X104319Y269678D02*
X104319Y281362D01*
X107565Y281362D01*
X107678Y281360D01*
X107791Y281354D01*
X107904Y281344D01*
X108017Y281330D01*
X108129Y281313D01*
X108240Y281291D01*
X108350Y281266D01*
X108460Y281236D01*
X108568Y281203D01*
X108675Y281166D01*
X108781Y281126D01*
X108885Y281081D01*
X108988Y281033D01*
X109089Y280982D01*
X109188Y280927D01*
X109285Y280869D01*
X109380Y280807D01*
X109473Y280742D01*
X109563Y280674D01*
X109651Y280603D01*
X109737Y280528D01*
X109820Y280451D01*
X109900Y280371D01*
X109977Y280288D01*
X110052Y280202D01*
X110123Y280114D01*
X110191Y280024D01*
X110256Y279931D01*
X110318Y279836D01*
X110376Y279739D01*
X110431Y279640D01*
X110482Y279539D01*
X110530Y279436D01*
X110575Y279332D01*
X110615Y279226D01*
X110652Y279119D01*
X110685Y279011D01*
X110715Y278901D01*
X110740Y278791D01*
X110762Y278680D01*
X110779Y278568D01*
X110793Y278455D01*
X110803Y278342D01*
X110809Y278229D01*
X110811Y278116D01*
X110809Y278003D01*
X110803Y277890D01*
X110793Y277777D01*
X110779Y277664D01*
X110762Y277552D01*
X110740Y277441D01*
X110715Y277331D01*
X110685Y277221D01*
X110652Y277113D01*
X110615Y277006D01*
X110575Y276900D01*
X110530Y276796D01*
X110482Y276693D01*
X110431Y276592D01*
X110376Y276493D01*
X110318Y276396D01*
X110256Y276301D01*
X110191Y276208D01*
X110123Y276118D01*
X110052Y276030D01*
X109977Y275944D01*
X109900Y275861D01*
X109820Y275781D01*
X109737Y275704D01*
X109651Y275629D01*
X109563Y275558D01*
X109473Y275490D01*
X109380Y275425D01*
X109285Y275363D01*
X109188Y275305D01*
X109089Y275250D01*
X108988Y275199D01*
X108885Y275151D01*
X108781Y275106D01*
X108675Y275066D01*
X108568Y275029D01*
X108460Y274996D01*
X108350Y274966D01*
X108240Y274941D01*
X108129Y274919D01*
X108017Y274902D01*
X107904Y274888D01*
X107791Y274878D01*
X107678Y274872D01*
X107565Y274870D01*
X107565Y274871D02*
X104319Y274871D01*
X115580Y272924D02*
X115580Y281362D01*
X115580Y272924D02*
X115582Y272811D01*
X115588Y272698D01*
X115598Y272585D01*
X115612Y272472D01*
X115629Y272360D01*
X115651Y272249D01*
X115676Y272139D01*
X115706Y272029D01*
X115739Y271921D01*
X115776Y271814D01*
X115816Y271708D01*
X115861Y271604D01*
X115909Y271501D01*
X115960Y271400D01*
X116015Y271301D01*
X116073Y271204D01*
X116135Y271109D01*
X116200Y271016D01*
X116268Y270926D01*
X116339Y270838D01*
X116414Y270752D01*
X116491Y270669D01*
X116571Y270589D01*
X116654Y270512D01*
X116740Y270437D01*
X116828Y270366D01*
X116918Y270298D01*
X117011Y270233D01*
X117106Y270171D01*
X117203Y270113D01*
X117302Y270058D01*
X117403Y270007D01*
X117506Y269959D01*
X117610Y269914D01*
X117716Y269874D01*
X117823Y269837D01*
X117931Y269804D01*
X118041Y269774D01*
X118151Y269749D01*
X118262Y269727D01*
X118374Y269710D01*
X118487Y269696D01*
X118600Y269686D01*
X118713Y269680D01*
X118826Y269678D01*
X118939Y269680D01*
X119052Y269686D01*
X119165Y269696D01*
X119278Y269710D01*
X119390Y269727D01*
X119501Y269749D01*
X119611Y269774D01*
X119721Y269804D01*
X119829Y269837D01*
X119936Y269874D01*
X120042Y269914D01*
X120146Y269959D01*
X120249Y270007D01*
X120350Y270058D01*
X120449Y270113D01*
X120546Y270171D01*
X120641Y270233D01*
X120734Y270298D01*
X120824Y270366D01*
X120912Y270437D01*
X120998Y270512D01*
X121081Y270589D01*
X121161Y270669D01*
X121238Y270752D01*
X121313Y270838D01*
X121384Y270926D01*
X121452Y271016D01*
X121517Y271109D01*
X121579Y271204D01*
X121637Y271301D01*
X121692Y271400D01*
X121743Y271501D01*
X121791Y271604D01*
X121836Y271708D01*
X121876Y271814D01*
X121913Y271921D01*
X121946Y272029D01*
X121976Y272139D01*
X122001Y272249D01*
X122023Y272360D01*
X122040Y272472D01*
X122054Y272585D01*
X122064Y272698D01*
X122070Y272811D01*
X122072Y272924D01*
X122071Y272924D02*
X122071Y281362D01*
X129987Y274871D02*
X133882Y274871D01*
X129987Y274871D02*
X129888Y274873D01*
X129788Y274879D01*
X129689Y274888D01*
X129591Y274901D01*
X129493Y274918D01*
X129395Y274939D01*
X129299Y274964D01*
X129204Y274992D01*
X129110Y275024D01*
X129017Y275059D01*
X128925Y275098D01*
X128835Y275141D01*
X128747Y275186D01*
X128660Y275236D01*
X128576Y275288D01*
X128493Y275344D01*
X128413Y275402D01*
X128335Y275464D01*
X128260Y275529D01*
X128187Y275597D01*
X128117Y275667D01*
X128049Y275740D01*
X127984Y275815D01*
X127922Y275893D01*
X127864Y275973D01*
X127808Y276056D01*
X127756Y276140D01*
X127706Y276227D01*
X127661Y276315D01*
X127618Y276405D01*
X127579Y276497D01*
X127544Y276590D01*
X127512Y276684D01*
X127484Y276779D01*
X127459Y276875D01*
X127438Y276973D01*
X127421Y277071D01*
X127408Y277169D01*
X127399Y277268D01*
X127393Y277368D01*
X127391Y277467D01*
X127391Y278116D01*
X127393Y278229D01*
X127399Y278342D01*
X127409Y278455D01*
X127423Y278568D01*
X127440Y278680D01*
X127462Y278791D01*
X127487Y278901D01*
X127517Y279011D01*
X127550Y279119D01*
X127587Y279226D01*
X127627Y279332D01*
X127672Y279436D01*
X127720Y279539D01*
X127771Y279640D01*
X127826Y279739D01*
X127884Y279836D01*
X127946Y279931D01*
X128011Y280024D01*
X128079Y280114D01*
X128150Y280202D01*
X128225Y280288D01*
X128302Y280371D01*
X128382Y280451D01*
X128465Y280528D01*
X128551Y280603D01*
X128639Y280674D01*
X128729Y280742D01*
X128822Y280807D01*
X128917Y280869D01*
X129014Y280927D01*
X129113Y280982D01*
X129214Y281033D01*
X129317Y281081D01*
X129421Y281126D01*
X129527Y281166D01*
X129634Y281203D01*
X129742Y281236D01*
X129852Y281266D01*
X129962Y281291D01*
X130073Y281313D01*
X130185Y281330D01*
X130298Y281344D01*
X130411Y281354D01*
X130524Y281360D01*
X130637Y281362D01*
X130750Y281360D01*
X130863Y281354D01*
X130976Y281344D01*
X131089Y281330D01*
X131201Y281313D01*
X131312Y281291D01*
X131422Y281266D01*
X131532Y281236D01*
X131640Y281203D01*
X131747Y281166D01*
X131853Y281126D01*
X131957Y281081D01*
X132060Y281033D01*
X132161Y280982D01*
X132260Y280927D01*
X132357Y280869D01*
X132452Y280807D01*
X132545Y280742D01*
X132635Y280674D01*
X132723Y280603D01*
X132809Y280528D01*
X132892Y280451D01*
X132972Y280371D01*
X133049Y280288D01*
X133124Y280202D01*
X133195Y280114D01*
X133263Y280024D01*
X133328Y279931D01*
X133390Y279836D01*
X133448Y279739D01*
X133503Y279640D01*
X133554Y279539D01*
X133602Y279436D01*
X133647Y279332D01*
X133687Y279226D01*
X133724Y279119D01*
X133757Y279011D01*
X133787Y278901D01*
X133812Y278791D01*
X133834Y278680D01*
X133851Y278568D01*
X133865Y278455D01*
X133875Y278342D01*
X133881Y278229D01*
X133883Y278116D01*
X133882Y278116D02*
X133882Y274871D01*
X133880Y274728D01*
X133874Y274585D01*
X133864Y274442D01*
X133850Y274300D01*
X133833Y274158D01*
X133811Y274016D01*
X133786Y273875D01*
X133756Y273735D01*
X133723Y273596D01*
X133686Y273458D01*
X133645Y273321D01*
X133601Y273185D01*
X133552Y273050D01*
X133500Y272917D01*
X133445Y272785D01*
X133385Y272655D01*
X133322Y272526D01*
X133256Y272399D01*
X133186Y272274D01*
X133113Y272152D01*
X133036Y272031D01*
X132956Y271912D01*
X132873Y271796D01*
X132787Y271681D01*
X132698Y271570D01*
X132605Y271460D01*
X132510Y271354D01*
X132411Y271250D01*
X132310Y271149D01*
X132206Y271050D01*
X132100Y270955D01*
X131990Y270862D01*
X131879Y270773D01*
X131764Y270687D01*
X131648Y270604D01*
X131529Y270524D01*
X131408Y270447D01*
X131285Y270374D01*
X131161Y270304D01*
X131034Y270238D01*
X130905Y270175D01*
X130775Y270115D01*
X130643Y270060D01*
X130510Y270008D01*
X130375Y269959D01*
X130239Y269915D01*
X130102Y269874D01*
X129964Y269837D01*
X129825Y269804D01*
X129685Y269774D01*
X129544Y269749D01*
X129402Y269727D01*
X129260Y269710D01*
X129118Y269696D01*
X128975Y269686D01*
X128832Y269680D01*
X128689Y269678D01*
X142391Y281362D02*
X142498Y281360D01*
X142604Y281354D01*
X142710Y281344D01*
X142816Y281331D01*
X142922Y281313D01*
X143026Y281292D01*
X143130Y281267D01*
X143233Y281238D01*
X143334Y281206D01*
X143434Y281169D01*
X143533Y281129D01*
X143631Y281086D01*
X143727Y281039D01*
X143821Y280988D01*
X143913Y280934D01*
X144003Y280877D01*
X144091Y280817D01*
X144176Y280753D01*
X144259Y280686D01*
X144340Y280616D01*
X144418Y280544D01*
X144494Y280468D01*
X144566Y280390D01*
X144636Y280309D01*
X144703Y280226D01*
X144767Y280141D01*
X144827Y280053D01*
X144884Y279963D01*
X144938Y279871D01*
X144989Y279777D01*
X145036Y279681D01*
X145079Y279583D01*
X145119Y279484D01*
X145156Y279384D01*
X145188Y279283D01*
X145217Y279180D01*
X145242Y279076D01*
X145263Y278972D01*
X145281Y278866D01*
X145294Y278760D01*
X145304Y278654D01*
X145310Y278548D01*
X145312Y278441D01*
X142391Y281362D02*
X142270Y281360D01*
X142149Y281354D01*
X142029Y281344D01*
X141908Y281331D01*
X141789Y281313D01*
X141669Y281292D01*
X141551Y281267D01*
X141434Y281238D01*
X141317Y281205D01*
X141202Y281169D01*
X141088Y281128D01*
X140975Y281085D01*
X140863Y281037D01*
X140754Y280986D01*
X140646Y280931D01*
X140539Y280873D01*
X140435Y280812D01*
X140333Y280747D01*
X140233Y280679D01*
X140135Y280608D01*
X140039Y280534D01*
X139946Y280457D01*
X139856Y280376D01*
X139768Y280293D01*
X139683Y280207D01*
X139600Y280118D01*
X139521Y280027D01*
X139444Y279933D01*
X139371Y279837D01*
X139301Y279739D01*
X139234Y279638D01*
X139170Y279535D01*
X139110Y279430D01*
X139053Y279323D01*
X138999Y279215D01*
X138949Y279105D01*
X138903Y278993D01*
X138860Y278880D01*
X138821Y278765D01*
X144339Y276169D02*
X144418Y276246D01*
X144494Y276327D01*
X144567Y276410D01*
X144637Y276495D01*
X144704Y276583D01*
X144768Y276673D01*
X144828Y276765D01*
X144885Y276860D01*
X144939Y276956D01*
X144990Y277054D01*
X145037Y277154D01*
X145081Y277256D01*
X145121Y277359D01*
X145157Y277463D01*
X145189Y277569D01*
X145218Y277675D01*
X145243Y277783D01*
X145265Y277891D01*
X145282Y278001D01*
X145296Y278110D01*
X145305Y278220D01*
X145311Y278331D01*
X145313Y278441D01*
X144338Y276169D02*
X138821Y269678D01*
X145312Y269678D01*
X150251Y269678D02*
X154146Y269678D01*
X154245Y269680D01*
X154345Y269686D01*
X154444Y269695D01*
X154542Y269708D01*
X154640Y269725D01*
X154738Y269746D01*
X154834Y269771D01*
X154929Y269799D01*
X155023Y269831D01*
X155116Y269866D01*
X155208Y269905D01*
X155298Y269948D01*
X155386Y269993D01*
X155473Y270043D01*
X155557Y270095D01*
X155640Y270151D01*
X155720Y270209D01*
X155798Y270271D01*
X155873Y270336D01*
X155946Y270404D01*
X156016Y270474D01*
X156084Y270547D01*
X156149Y270622D01*
X156211Y270700D01*
X156269Y270780D01*
X156325Y270863D01*
X156377Y270947D01*
X156427Y271034D01*
X156472Y271122D01*
X156515Y271212D01*
X156554Y271304D01*
X156589Y271397D01*
X156621Y271491D01*
X156649Y271586D01*
X156674Y271682D01*
X156695Y271780D01*
X156712Y271878D01*
X156725Y271976D01*
X156734Y272075D01*
X156740Y272175D01*
X156742Y272274D01*
X156742Y273573D01*
X156740Y273672D01*
X156734Y273772D01*
X156725Y273871D01*
X156712Y273969D01*
X156695Y274067D01*
X156674Y274165D01*
X156649Y274261D01*
X156621Y274356D01*
X156589Y274450D01*
X156554Y274543D01*
X156515Y274635D01*
X156472Y274725D01*
X156427Y274813D01*
X156377Y274900D01*
X156325Y274984D01*
X156269Y275067D01*
X156211Y275147D01*
X156149Y275225D01*
X156084Y275300D01*
X156016Y275373D01*
X155946Y275443D01*
X155873Y275511D01*
X155798Y275576D01*
X155720Y275638D01*
X155640Y275696D01*
X155557Y275752D01*
X155473Y275804D01*
X155386Y275854D01*
X155298Y275899D01*
X155208Y275942D01*
X155116Y275981D01*
X155023Y276016D01*
X154929Y276048D01*
X154834Y276076D01*
X154738Y276101D01*
X154640Y276122D01*
X154542Y276139D01*
X154444Y276152D01*
X154345Y276161D01*
X154245Y276167D01*
X154146Y276169D01*
X150251Y276169D01*
X150251Y281362D01*
X156742Y281362D01*
X162655Y279739D02*
X162556Y279531D01*
X162463Y279321D01*
X162375Y279109D01*
X162292Y278895D01*
X162214Y278678D01*
X162141Y278460D01*
X162073Y278241D01*
X162011Y278019D01*
X161954Y277797D01*
X161902Y277573D01*
X161856Y277348D01*
X161815Y277122D01*
X161780Y276894D01*
X161750Y276667D01*
X161725Y276438D01*
X161706Y276209D01*
X161692Y275980D01*
X161684Y275750D01*
X161681Y275520D01*
X162654Y279739D02*
X162687Y279829D01*
X162723Y279918D01*
X162763Y280006D01*
X162807Y280091D01*
X162854Y280175D01*
X162904Y280257D01*
X162958Y280337D01*
X163014Y280414D01*
X163074Y280490D01*
X163137Y280563D01*
X163202Y280633D01*
X163271Y280701D01*
X163342Y280765D01*
X163415Y280827D01*
X163491Y280886D01*
X163569Y280942D01*
X163650Y280995D01*
X163732Y281044D01*
X163816Y281090D01*
X163903Y281133D01*
X163990Y281172D01*
X164080Y281208D01*
X164170Y281240D01*
X164262Y281268D01*
X164355Y281293D01*
X164449Y281314D01*
X164543Y281331D01*
X164638Y281345D01*
X164734Y281354D01*
X164830Y281360D01*
X164926Y281362D01*
X165022Y281360D01*
X165118Y281354D01*
X165214Y281345D01*
X165309Y281331D01*
X165403Y281314D01*
X165497Y281293D01*
X165590Y281268D01*
X165682Y281240D01*
X165772Y281208D01*
X165862Y281172D01*
X165949Y281133D01*
X166036Y281090D01*
X166120Y281044D01*
X166202Y280995D01*
X166283Y280942D01*
X166361Y280886D01*
X166437Y280827D01*
X166510Y280765D01*
X166581Y280701D01*
X166650Y280633D01*
X166715Y280563D01*
X166778Y280490D01*
X166838Y280414D01*
X166894Y280337D01*
X166948Y280257D01*
X166998Y280175D01*
X167045Y280091D01*
X167089Y280006D01*
X167129Y279918D01*
X167165Y279829D01*
X167198Y279739D01*
X167199Y279739D02*
X167298Y279532D01*
X167391Y279322D01*
X167479Y279109D01*
X167562Y278895D01*
X167640Y278679D01*
X167713Y278461D01*
X167781Y278241D01*
X167843Y278020D01*
X167900Y277797D01*
X167952Y277573D01*
X167998Y277348D01*
X168039Y277122D01*
X168074Y276895D01*
X168104Y276667D01*
X168129Y276438D01*
X168148Y276209D01*
X168162Y275980D01*
X168170Y275750D01*
X168173Y275520D01*
X161681Y275520D02*
X161684Y275290D01*
X161692Y275060D01*
X161706Y274831D01*
X161725Y274602D01*
X161750Y274373D01*
X161780Y274145D01*
X161815Y273918D01*
X161856Y273692D01*
X161902Y273467D01*
X161954Y273243D01*
X162011Y273020D01*
X162073Y272799D01*
X162141Y272579D01*
X162214Y272361D01*
X162292Y272145D01*
X162375Y271931D01*
X162463Y271719D01*
X162556Y271508D01*
X162655Y271301D01*
X162654Y271301D02*
X162687Y271211D01*
X162723Y271122D01*
X162764Y271034D01*
X162807Y270949D01*
X162854Y270865D01*
X162904Y270783D01*
X162958Y270703D01*
X163014Y270626D01*
X163074Y270550D01*
X163137Y270477D01*
X163202Y270407D01*
X163271Y270339D01*
X163342Y270275D01*
X163415Y270213D01*
X163491Y270154D01*
X163569Y270098D01*
X163650Y270045D01*
X163732Y269996D01*
X163816Y269950D01*
X163903Y269907D01*
X163990Y269868D01*
X164080Y269832D01*
X164170Y269800D01*
X164262Y269772D01*
X164355Y269747D01*
X164449Y269726D01*
X164543Y269709D01*
X164638Y269695D01*
X164734Y269686D01*
X164830Y269680D01*
X164926Y269678D01*
X167198Y271301D02*
X167297Y271508D01*
X167390Y271719D01*
X167478Y271931D01*
X167561Y272145D01*
X167639Y272361D01*
X167712Y272579D01*
X167780Y272799D01*
X167842Y273020D01*
X167899Y273243D01*
X167951Y273467D01*
X167997Y273692D01*
X168038Y273918D01*
X168073Y274145D01*
X168103Y274373D01*
X168128Y274602D01*
X168147Y274831D01*
X168161Y275060D01*
X168169Y275290D01*
X168172Y275520D01*
X167198Y271301D02*
X167165Y271211D01*
X167129Y271122D01*
X167089Y271034D01*
X167045Y270949D01*
X166998Y270865D01*
X166948Y270783D01*
X166894Y270703D01*
X166838Y270626D01*
X166778Y270550D01*
X166715Y270477D01*
X166650Y270407D01*
X166581Y270339D01*
X166510Y270275D01*
X166437Y270213D01*
X166361Y270154D01*
X166283Y270098D01*
X166202Y270045D01*
X166120Y269996D01*
X166036Y269950D01*
X165949Y269907D01*
X165862Y269868D01*
X165772Y269832D01*
X165682Y269800D01*
X165590Y269772D01*
X165497Y269747D01*
X165403Y269726D01*
X165309Y269709D01*
X165214Y269695D01*
X165118Y269686D01*
X165022Y269680D01*
X164926Y269678D01*
X162330Y272274D02*
X167523Y278766D01*
D12*
X539750Y165100D02*
X552450Y165100D01*
X558800Y158750D01*
X558800Y146050D01*
X552450Y139700D01*
X533400Y146050D02*
X533400Y158750D01*
X539750Y165100D01*
X533400Y146050D02*
X539750Y139700D01*
X552450Y139700D01*
D11*
X537083Y173863D02*
X537083Y182753D01*
X537083Y173863D02*
X537081Y173763D01*
X537075Y173664D01*
X537065Y173564D01*
X537052Y173466D01*
X537034Y173367D01*
X537013Y173270D01*
X536988Y173174D01*
X536959Y173078D01*
X536926Y172984D01*
X536890Y172891D01*
X536850Y172800D01*
X536806Y172710D01*
X536759Y172622D01*
X536709Y172536D01*
X536655Y172452D01*
X536598Y172370D01*
X536538Y172291D01*
X536474Y172213D01*
X536408Y172139D01*
X536339Y172067D01*
X536267Y171998D01*
X536193Y171932D01*
X536115Y171868D01*
X536036Y171808D01*
X535954Y171751D01*
X535870Y171697D01*
X535784Y171647D01*
X535696Y171600D01*
X535606Y171556D01*
X535515Y171516D01*
X535422Y171480D01*
X535328Y171447D01*
X535232Y171418D01*
X535136Y171393D01*
X535039Y171372D01*
X534940Y171354D01*
X534842Y171341D01*
X534742Y171331D01*
X534643Y171325D01*
X534543Y171323D01*
X533273Y171323D01*
X543063Y171323D02*
X543063Y182753D01*
X546238Y182753D01*
X546349Y182751D01*
X546459Y182745D01*
X546570Y182736D01*
X546680Y182722D01*
X546789Y182705D01*
X546898Y182684D01*
X547006Y182659D01*
X547113Y182630D01*
X547219Y182598D01*
X547324Y182562D01*
X547427Y182522D01*
X547529Y182479D01*
X547630Y182432D01*
X547729Y182381D01*
X547826Y182328D01*
X547920Y182271D01*
X548013Y182210D01*
X548104Y182147D01*
X548193Y182080D01*
X548279Y182010D01*
X548362Y181937D01*
X548444Y181862D01*
X548522Y181784D01*
X548597Y181702D01*
X548670Y181619D01*
X548740Y181533D01*
X548807Y181444D01*
X548870Y181353D01*
X548931Y181260D01*
X548988Y181165D01*
X549041Y181069D01*
X549092Y180970D01*
X549139Y180869D01*
X549182Y180767D01*
X549222Y180664D01*
X549258Y180559D01*
X549290Y180453D01*
X549319Y180346D01*
X549344Y180238D01*
X549365Y180129D01*
X549382Y180020D01*
X549396Y179910D01*
X549405Y179799D01*
X549411Y179689D01*
X549413Y179578D01*
X549411Y179467D01*
X549405Y179357D01*
X549396Y179246D01*
X549382Y179136D01*
X549365Y179027D01*
X549344Y178918D01*
X549319Y178810D01*
X549290Y178703D01*
X549258Y178597D01*
X549222Y178492D01*
X549182Y178389D01*
X549139Y178287D01*
X549092Y178186D01*
X549041Y178087D01*
X548988Y177990D01*
X548931Y177896D01*
X548870Y177803D01*
X548807Y177712D01*
X548740Y177623D01*
X548670Y177537D01*
X548597Y177454D01*
X548522Y177372D01*
X548444Y177294D01*
X548362Y177219D01*
X548279Y177146D01*
X548193Y177076D01*
X548104Y177009D01*
X548013Y176946D01*
X547920Y176885D01*
X547826Y176828D01*
X547729Y176775D01*
X547630Y176724D01*
X547529Y176677D01*
X547427Y176634D01*
X547324Y176594D01*
X547219Y176558D01*
X547113Y176526D01*
X547006Y176497D01*
X546898Y176472D01*
X546789Y176451D01*
X546680Y176434D01*
X546570Y176420D01*
X546459Y176411D01*
X546349Y176405D01*
X546238Y176403D01*
X543063Y176403D01*
X553922Y180213D02*
X557097Y182753D01*
X557097Y171323D01*
X553922Y171323D02*
X560272Y171323D01*
D12*
X552450Y139700D02*
X539750Y139700D01*
X552450Y139700D02*
X558800Y133350D01*
X558800Y120650D01*
X552450Y114300D01*
X533400Y120650D02*
X533400Y133350D01*
X539750Y139700D01*
X533400Y120650D02*
X539750Y114300D01*
X552450Y114300D01*
D11*
X537083Y148463D02*
X537083Y157353D01*
X537083Y148463D02*
X537081Y148363D01*
X537075Y148264D01*
X537065Y148164D01*
X537052Y148066D01*
X537034Y147967D01*
X537013Y147870D01*
X536988Y147774D01*
X536959Y147678D01*
X536926Y147584D01*
X536890Y147491D01*
X536850Y147400D01*
X536806Y147310D01*
X536759Y147222D01*
X536709Y147136D01*
X536655Y147052D01*
X536598Y146970D01*
X536538Y146891D01*
X536474Y146813D01*
X536408Y146739D01*
X536339Y146667D01*
X536267Y146598D01*
X536193Y146532D01*
X536115Y146468D01*
X536036Y146408D01*
X535954Y146351D01*
X535870Y146297D01*
X535784Y146247D01*
X535696Y146200D01*
X535606Y146156D01*
X535515Y146116D01*
X535422Y146080D01*
X535328Y146047D01*
X535232Y146018D01*
X535136Y145993D01*
X535039Y145972D01*
X534940Y145954D01*
X534842Y145941D01*
X534742Y145931D01*
X534643Y145925D01*
X534543Y145923D01*
X533273Y145923D01*
X543063Y145923D02*
X543063Y157353D01*
X546238Y157353D01*
X546349Y157351D01*
X546459Y157345D01*
X546570Y157336D01*
X546680Y157322D01*
X546789Y157305D01*
X546898Y157284D01*
X547006Y157259D01*
X547113Y157230D01*
X547219Y157198D01*
X547324Y157162D01*
X547427Y157122D01*
X547529Y157079D01*
X547630Y157032D01*
X547729Y156981D01*
X547826Y156928D01*
X547920Y156871D01*
X548013Y156810D01*
X548104Y156747D01*
X548193Y156680D01*
X548279Y156610D01*
X548362Y156537D01*
X548444Y156462D01*
X548522Y156384D01*
X548597Y156302D01*
X548670Y156219D01*
X548740Y156133D01*
X548807Y156044D01*
X548870Y155953D01*
X548931Y155860D01*
X548988Y155765D01*
X549041Y155669D01*
X549092Y155570D01*
X549139Y155469D01*
X549182Y155367D01*
X549222Y155264D01*
X549258Y155159D01*
X549290Y155053D01*
X549319Y154946D01*
X549344Y154838D01*
X549365Y154729D01*
X549382Y154620D01*
X549396Y154510D01*
X549405Y154399D01*
X549411Y154289D01*
X549413Y154178D01*
X549411Y154067D01*
X549405Y153957D01*
X549396Y153846D01*
X549382Y153736D01*
X549365Y153627D01*
X549344Y153518D01*
X549319Y153410D01*
X549290Y153303D01*
X549258Y153197D01*
X549222Y153092D01*
X549182Y152989D01*
X549139Y152887D01*
X549092Y152786D01*
X549041Y152687D01*
X548988Y152590D01*
X548931Y152496D01*
X548870Y152403D01*
X548807Y152312D01*
X548740Y152223D01*
X548670Y152137D01*
X548597Y152054D01*
X548522Y151972D01*
X548444Y151894D01*
X548362Y151819D01*
X548279Y151746D01*
X548193Y151676D01*
X548104Y151609D01*
X548013Y151546D01*
X547920Y151485D01*
X547826Y151428D01*
X547729Y151375D01*
X547630Y151324D01*
X547529Y151277D01*
X547427Y151234D01*
X547324Y151194D01*
X547219Y151158D01*
X547113Y151126D01*
X547006Y151097D01*
X546898Y151072D01*
X546789Y151051D01*
X546680Y151034D01*
X546570Y151020D01*
X546459Y151011D01*
X546349Y151005D01*
X546238Y151003D01*
X543063Y151003D01*
X557414Y157354D02*
X557518Y157352D01*
X557623Y157346D01*
X557727Y157337D01*
X557830Y157324D01*
X557933Y157306D01*
X558035Y157286D01*
X558137Y157261D01*
X558237Y157233D01*
X558337Y157201D01*
X558435Y157165D01*
X558532Y157126D01*
X558627Y157084D01*
X558721Y157038D01*
X558813Y156988D01*
X558903Y156936D01*
X558991Y156880D01*
X559077Y156820D01*
X559161Y156758D01*
X559242Y156693D01*
X559321Y156625D01*
X559398Y156553D01*
X559471Y156480D01*
X559543Y156403D01*
X559611Y156324D01*
X559676Y156243D01*
X559738Y156159D01*
X559798Y156073D01*
X559854Y155985D01*
X559906Y155895D01*
X559956Y155803D01*
X560002Y155709D01*
X560044Y155614D01*
X560083Y155517D01*
X560119Y155419D01*
X560151Y155319D01*
X560179Y155219D01*
X560204Y155117D01*
X560224Y155015D01*
X560242Y154912D01*
X560255Y154809D01*
X560264Y154705D01*
X560270Y154600D01*
X560272Y154496D01*
X557414Y157353D02*
X557296Y157351D01*
X557177Y157345D01*
X557059Y157336D01*
X556942Y157323D01*
X556825Y157305D01*
X556708Y157285D01*
X556592Y157260D01*
X556477Y157232D01*
X556364Y157199D01*
X556251Y157164D01*
X556139Y157124D01*
X556029Y157082D01*
X555920Y157035D01*
X555812Y156985D01*
X555707Y156932D01*
X555603Y156875D01*
X555501Y156815D01*
X555401Y156752D01*
X555303Y156685D01*
X555207Y156616D01*
X555114Y156543D01*
X555023Y156467D01*
X554934Y156389D01*
X554848Y156307D01*
X554765Y156223D01*
X554684Y156137D01*
X554607Y156047D01*
X554532Y155956D01*
X554460Y155862D01*
X554391Y155765D01*
X554326Y155667D01*
X554263Y155566D01*
X554204Y155463D01*
X554148Y155359D01*
X554096Y155253D01*
X554047Y155145D01*
X554002Y155036D01*
X553960Y154925D01*
X553922Y154813D01*
X559320Y152274D02*
X559396Y152349D01*
X559471Y152428D01*
X559542Y152509D01*
X559611Y152593D01*
X559676Y152679D01*
X559738Y152767D01*
X559798Y152857D01*
X559854Y152949D01*
X559907Y153044D01*
X559956Y153140D01*
X560002Y153238D01*
X560045Y153337D01*
X560084Y153438D01*
X560119Y153540D01*
X560151Y153643D01*
X560179Y153747D01*
X560204Y153852D01*
X560225Y153959D01*
X560242Y154065D01*
X560255Y154172D01*
X560264Y154280D01*
X560270Y154388D01*
X560272Y154496D01*
X559319Y152273D02*
X553922Y145923D01*
X560272Y145923D01*
D12*
X552450Y114300D02*
X539750Y114300D01*
X552450Y114300D02*
X558800Y107950D01*
X558800Y95250D01*
X552450Y88900D01*
X533400Y95250D02*
X533400Y107950D01*
X539750Y114300D01*
X533400Y95250D02*
X539750Y88900D01*
X552450Y88900D01*
D11*
X537083Y123063D02*
X537083Y131953D01*
X537083Y123063D02*
X537081Y122963D01*
X537075Y122864D01*
X537065Y122764D01*
X537052Y122666D01*
X537034Y122567D01*
X537013Y122470D01*
X536988Y122374D01*
X536959Y122278D01*
X536926Y122184D01*
X536890Y122091D01*
X536850Y122000D01*
X536806Y121910D01*
X536759Y121822D01*
X536709Y121736D01*
X536655Y121652D01*
X536598Y121570D01*
X536538Y121491D01*
X536474Y121413D01*
X536408Y121339D01*
X536339Y121267D01*
X536267Y121198D01*
X536193Y121132D01*
X536115Y121068D01*
X536036Y121008D01*
X535954Y120951D01*
X535870Y120897D01*
X535784Y120847D01*
X535696Y120800D01*
X535606Y120756D01*
X535515Y120716D01*
X535422Y120680D01*
X535328Y120647D01*
X535232Y120618D01*
X535136Y120593D01*
X535039Y120572D01*
X534940Y120554D01*
X534842Y120541D01*
X534742Y120531D01*
X534643Y120525D01*
X534543Y120523D01*
X533273Y120523D01*
X543063Y120523D02*
X543063Y131953D01*
X546238Y131953D01*
X546349Y131951D01*
X546459Y131945D01*
X546570Y131936D01*
X546680Y131922D01*
X546789Y131905D01*
X546898Y131884D01*
X547006Y131859D01*
X547113Y131830D01*
X547219Y131798D01*
X547324Y131762D01*
X547427Y131722D01*
X547529Y131679D01*
X547630Y131632D01*
X547729Y131581D01*
X547826Y131528D01*
X547920Y131471D01*
X548013Y131410D01*
X548104Y131347D01*
X548193Y131280D01*
X548279Y131210D01*
X548362Y131137D01*
X548444Y131062D01*
X548522Y130984D01*
X548597Y130902D01*
X548670Y130819D01*
X548740Y130733D01*
X548807Y130644D01*
X548870Y130553D01*
X548931Y130460D01*
X548988Y130365D01*
X549041Y130269D01*
X549092Y130170D01*
X549139Y130069D01*
X549182Y129967D01*
X549222Y129864D01*
X549258Y129759D01*
X549290Y129653D01*
X549319Y129546D01*
X549344Y129438D01*
X549365Y129329D01*
X549382Y129220D01*
X549396Y129110D01*
X549405Y128999D01*
X549411Y128889D01*
X549413Y128778D01*
X549411Y128667D01*
X549405Y128557D01*
X549396Y128446D01*
X549382Y128336D01*
X549365Y128227D01*
X549344Y128118D01*
X549319Y128010D01*
X549290Y127903D01*
X549258Y127797D01*
X549222Y127692D01*
X549182Y127589D01*
X549139Y127487D01*
X549092Y127386D01*
X549041Y127287D01*
X548988Y127190D01*
X548931Y127096D01*
X548870Y127003D01*
X548807Y126912D01*
X548740Y126823D01*
X548670Y126737D01*
X548597Y126654D01*
X548522Y126572D01*
X548444Y126494D01*
X548362Y126419D01*
X548279Y126346D01*
X548193Y126276D01*
X548104Y126209D01*
X548013Y126146D01*
X547920Y126085D01*
X547826Y126028D01*
X547729Y125975D01*
X547630Y125924D01*
X547529Y125877D01*
X547427Y125834D01*
X547324Y125794D01*
X547219Y125758D01*
X547113Y125726D01*
X547006Y125697D01*
X546898Y125672D01*
X546789Y125651D01*
X546680Y125634D01*
X546570Y125620D01*
X546459Y125611D01*
X546349Y125605D01*
X546238Y125603D01*
X543063Y125603D01*
X553922Y120523D02*
X557097Y120523D01*
X557208Y120525D01*
X557318Y120531D01*
X557429Y120540D01*
X557539Y120554D01*
X557648Y120571D01*
X557757Y120592D01*
X557865Y120617D01*
X557972Y120646D01*
X558078Y120678D01*
X558183Y120714D01*
X558286Y120754D01*
X558388Y120797D01*
X558489Y120844D01*
X558588Y120895D01*
X558685Y120948D01*
X558779Y121005D01*
X558872Y121066D01*
X558963Y121129D01*
X559052Y121196D01*
X559138Y121266D01*
X559221Y121339D01*
X559303Y121414D01*
X559381Y121492D01*
X559456Y121574D01*
X559529Y121657D01*
X559599Y121743D01*
X559666Y121832D01*
X559729Y121923D01*
X559790Y122016D01*
X559847Y122110D01*
X559900Y122207D01*
X559951Y122306D01*
X559998Y122407D01*
X560041Y122509D01*
X560081Y122612D01*
X560117Y122717D01*
X560149Y122823D01*
X560178Y122930D01*
X560203Y123038D01*
X560224Y123147D01*
X560241Y123256D01*
X560255Y123366D01*
X560264Y123477D01*
X560270Y123587D01*
X560272Y123698D01*
X560270Y123809D01*
X560264Y123919D01*
X560255Y124030D01*
X560241Y124140D01*
X560224Y124249D01*
X560203Y124358D01*
X560178Y124466D01*
X560149Y124573D01*
X560117Y124679D01*
X560081Y124784D01*
X560041Y124887D01*
X559998Y124989D01*
X559951Y125090D01*
X559900Y125189D01*
X559847Y125285D01*
X559790Y125380D01*
X559729Y125473D01*
X559666Y125564D01*
X559599Y125653D01*
X559529Y125739D01*
X559456Y125822D01*
X559381Y125904D01*
X559303Y125982D01*
X559221Y126057D01*
X559138Y126130D01*
X559052Y126200D01*
X558963Y126267D01*
X558872Y126330D01*
X558779Y126391D01*
X558685Y126448D01*
X558588Y126501D01*
X558489Y126552D01*
X558388Y126599D01*
X558286Y126642D01*
X558183Y126682D01*
X558078Y126718D01*
X557972Y126750D01*
X557865Y126779D01*
X557757Y126804D01*
X557648Y126825D01*
X557539Y126842D01*
X557429Y126856D01*
X557318Y126865D01*
X557208Y126871D01*
X557097Y126873D01*
X557732Y131953D02*
X553922Y131953D01*
X557732Y131953D02*
X557832Y131951D01*
X557931Y131945D01*
X558031Y131935D01*
X558129Y131922D01*
X558228Y131904D01*
X558325Y131883D01*
X558421Y131858D01*
X558517Y131829D01*
X558611Y131796D01*
X558704Y131760D01*
X558795Y131720D01*
X558885Y131676D01*
X558973Y131629D01*
X559059Y131579D01*
X559143Y131525D01*
X559225Y131468D01*
X559304Y131408D01*
X559382Y131344D01*
X559456Y131278D01*
X559528Y131209D01*
X559597Y131137D01*
X559663Y131063D01*
X559727Y130985D01*
X559787Y130906D01*
X559844Y130824D01*
X559898Y130740D01*
X559948Y130654D01*
X559995Y130566D01*
X560039Y130476D01*
X560079Y130385D01*
X560115Y130292D01*
X560148Y130198D01*
X560177Y130102D01*
X560202Y130006D01*
X560223Y129909D01*
X560241Y129810D01*
X560254Y129712D01*
X560264Y129612D01*
X560270Y129513D01*
X560272Y129413D01*
X560270Y129313D01*
X560264Y129214D01*
X560254Y129114D01*
X560241Y129016D01*
X560223Y128917D01*
X560202Y128820D01*
X560177Y128724D01*
X560148Y128628D01*
X560115Y128534D01*
X560079Y128441D01*
X560039Y128350D01*
X559995Y128260D01*
X559948Y128172D01*
X559898Y128086D01*
X559844Y128002D01*
X559787Y127920D01*
X559727Y127841D01*
X559663Y127763D01*
X559597Y127689D01*
X559528Y127617D01*
X559456Y127548D01*
X559382Y127482D01*
X559304Y127418D01*
X559225Y127358D01*
X559143Y127301D01*
X559059Y127247D01*
X558973Y127197D01*
X558885Y127150D01*
X558795Y127106D01*
X558704Y127066D01*
X558611Y127030D01*
X558517Y126997D01*
X558421Y126968D01*
X558325Y126943D01*
X558228Y126922D01*
X558129Y126904D01*
X558031Y126891D01*
X557931Y126881D01*
X557832Y126875D01*
X557732Y126873D01*
X555192Y126873D01*
D12*
X552450Y88900D02*
X539750Y88900D01*
X552450Y88900D02*
X558800Y82550D01*
X558800Y69850D01*
X552450Y63500D01*
X533400Y69850D02*
X533400Y82550D01*
X539750Y88900D01*
X533400Y69850D02*
X539750Y63500D01*
X552450Y63500D01*
D11*
X537083Y97663D02*
X537083Y106553D01*
X537083Y97663D02*
X537081Y97563D01*
X537075Y97464D01*
X537065Y97364D01*
X537052Y97266D01*
X537034Y97167D01*
X537013Y97070D01*
X536988Y96974D01*
X536959Y96878D01*
X536926Y96784D01*
X536890Y96691D01*
X536850Y96600D01*
X536806Y96510D01*
X536759Y96422D01*
X536709Y96336D01*
X536655Y96252D01*
X536598Y96170D01*
X536538Y96091D01*
X536474Y96013D01*
X536408Y95939D01*
X536339Y95867D01*
X536267Y95798D01*
X536193Y95732D01*
X536115Y95668D01*
X536036Y95608D01*
X535954Y95551D01*
X535870Y95497D01*
X535784Y95447D01*
X535696Y95400D01*
X535606Y95356D01*
X535515Y95316D01*
X535422Y95280D01*
X535328Y95247D01*
X535232Y95218D01*
X535136Y95193D01*
X535039Y95172D01*
X534940Y95154D01*
X534842Y95141D01*
X534742Y95131D01*
X534643Y95125D01*
X534543Y95123D01*
X533273Y95123D01*
X543063Y95123D02*
X543063Y106553D01*
X546238Y106553D01*
X546349Y106551D01*
X546459Y106545D01*
X546570Y106536D01*
X546680Y106522D01*
X546789Y106505D01*
X546898Y106484D01*
X547006Y106459D01*
X547113Y106430D01*
X547219Y106398D01*
X547324Y106362D01*
X547427Y106322D01*
X547529Y106279D01*
X547630Y106232D01*
X547729Y106181D01*
X547826Y106128D01*
X547920Y106071D01*
X548013Y106010D01*
X548104Y105947D01*
X548193Y105880D01*
X548279Y105810D01*
X548362Y105737D01*
X548444Y105662D01*
X548522Y105584D01*
X548597Y105502D01*
X548670Y105419D01*
X548740Y105333D01*
X548807Y105244D01*
X548870Y105153D01*
X548931Y105060D01*
X548988Y104965D01*
X549041Y104869D01*
X549092Y104770D01*
X549139Y104669D01*
X549182Y104567D01*
X549222Y104464D01*
X549258Y104359D01*
X549290Y104253D01*
X549319Y104146D01*
X549344Y104038D01*
X549365Y103929D01*
X549382Y103820D01*
X549396Y103710D01*
X549405Y103599D01*
X549411Y103489D01*
X549413Y103378D01*
X549411Y103267D01*
X549405Y103157D01*
X549396Y103046D01*
X549382Y102936D01*
X549365Y102827D01*
X549344Y102718D01*
X549319Y102610D01*
X549290Y102503D01*
X549258Y102397D01*
X549222Y102292D01*
X549182Y102189D01*
X549139Y102087D01*
X549092Y101986D01*
X549041Y101887D01*
X548988Y101790D01*
X548931Y101696D01*
X548870Y101603D01*
X548807Y101512D01*
X548740Y101423D01*
X548670Y101337D01*
X548597Y101254D01*
X548522Y101172D01*
X548444Y101094D01*
X548362Y101019D01*
X548279Y100946D01*
X548193Y100876D01*
X548104Y100809D01*
X548013Y100746D01*
X547920Y100685D01*
X547826Y100628D01*
X547729Y100575D01*
X547630Y100524D01*
X547529Y100477D01*
X547427Y100434D01*
X547324Y100394D01*
X547219Y100358D01*
X547113Y100326D01*
X547006Y100297D01*
X546898Y100272D01*
X546789Y100251D01*
X546680Y100234D01*
X546570Y100220D01*
X546459Y100211D01*
X546349Y100205D01*
X546238Y100203D01*
X543063Y100203D01*
X553922Y97663D02*
X556462Y106553D01*
X553922Y97663D02*
X560272Y97663D01*
X558367Y100203D02*
X558367Y95123D01*
D12*
X514350Y165100D02*
X501650Y165100D01*
X514350Y165100D02*
X520700Y158750D01*
X520700Y146050D01*
X514350Y139700D01*
X495300Y146050D02*
X495300Y158750D01*
X501650Y165100D01*
X495300Y146050D02*
X501650Y139700D01*
X514350Y139700D01*
D11*
X498983Y173863D02*
X498983Y182753D01*
X498983Y173863D02*
X498981Y173763D01*
X498975Y173664D01*
X498965Y173564D01*
X498952Y173466D01*
X498934Y173367D01*
X498913Y173270D01*
X498888Y173174D01*
X498859Y173078D01*
X498826Y172984D01*
X498790Y172891D01*
X498750Y172800D01*
X498706Y172710D01*
X498659Y172622D01*
X498609Y172536D01*
X498555Y172452D01*
X498498Y172370D01*
X498438Y172291D01*
X498374Y172213D01*
X498308Y172139D01*
X498239Y172067D01*
X498167Y171998D01*
X498093Y171932D01*
X498015Y171868D01*
X497936Y171808D01*
X497854Y171751D01*
X497770Y171697D01*
X497684Y171647D01*
X497596Y171600D01*
X497506Y171556D01*
X497415Y171516D01*
X497322Y171480D01*
X497228Y171447D01*
X497132Y171418D01*
X497036Y171393D01*
X496939Y171372D01*
X496840Y171354D01*
X496742Y171341D01*
X496642Y171331D01*
X496543Y171325D01*
X496443Y171323D01*
X495173Y171323D01*
X504963Y171323D02*
X504963Y182753D01*
X508138Y182753D01*
X508249Y182751D01*
X508359Y182745D01*
X508470Y182736D01*
X508580Y182722D01*
X508689Y182705D01*
X508798Y182684D01*
X508906Y182659D01*
X509013Y182630D01*
X509119Y182598D01*
X509224Y182562D01*
X509327Y182522D01*
X509429Y182479D01*
X509530Y182432D01*
X509629Y182381D01*
X509726Y182328D01*
X509820Y182271D01*
X509913Y182210D01*
X510004Y182147D01*
X510093Y182080D01*
X510179Y182010D01*
X510262Y181937D01*
X510344Y181862D01*
X510422Y181784D01*
X510497Y181702D01*
X510570Y181619D01*
X510640Y181533D01*
X510707Y181444D01*
X510770Y181353D01*
X510831Y181260D01*
X510888Y181165D01*
X510941Y181069D01*
X510992Y180970D01*
X511039Y180869D01*
X511082Y180767D01*
X511122Y180664D01*
X511158Y180559D01*
X511190Y180453D01*
X511219Y180346D01*
X511244Y180238D01*
X511265Y180129D01*
X511282Y180020D01*
X511296Y179910D01*
X511305Y179799D01*
X511311Y179689D01*
X511313Y179578D01*
X511311Y179467D01*
X511305Y179357D01*
X511296Y179246D01*
X511282Y179136D01*
X511265Y179027D01*
X511244Y178918D01*
X511219Y178810D01*
X511190Y178703D01*
X511158Y178597D01*
X511122Y178492D01*
X511082Y178389D01*
X511039Y178287D01*
X510992Y178186D01*
X510941Y178087D01*
X510888Y177990D01*
X510831Y177896D01*
X510770Y177803D01*
X510707Y177712D01*
X510640Y177623D01*
X510570Y177537D01*
X510497Y177454D01*
X510422Y177372D01*
X510344Y177294D01*
X510262Y177219D01*
X510179Y177146D01*
X510093Y177076D01*
X510004Y177009D01*
X509913Y176946D01*
X509820Y176885D01*
X509726Y176828D01*
X509629Y176775D01*
X509530Y176724D01*
X509429Y176677D01*
X509327Y176634D01*
X509224Y176594D01*
X509119Y176558D01*
X509013Y176526D01*
X508906Y176497D01*
X508798Y176472D01*
X508689Y176451D01*
X508580Y176434D01*
X508470Y176420D01*
X508359Y176411D01*
X508249Y176405D01*
X508138Y176403D01*
X504963Y176403D01*
X515822Y171323D02*
X519632Y171323D01*
X519732Y171325D01*
X519831Y171331D01*
X519931Y171341D01*
X520029Y171354D01*
X520128Y171372D01*
X520225Y171393D01*
X520321Y171418D01*
X520417Y171447D01*
X520511Y171480D01*
X520604Y171516D01*
X520695Y171556D01*
X520785Y171600D01*
X520873Y171647D01*
X520959Y171697D01*
X521043Y171751D01*
X521125Y171808D01*
X521204Y171868D01*
X521282Y171932D01*
X521356Y171998D01*
X521428Y172067D01*
X521497Y172139D01*
X521563Y172213D01*
X521627Y172291D01*
X521687Y172370D01*
X521744Y172452D01*
X521798Y172536D01*
X521848Y172622D01*
X521895Y172710D01*
X521939Y172800D01*
X521979Y172891D01*
X522015Y172984D01*
X522048Y173078D01*
X522077Y173174D01*
X522102Y173270D01*
X522123Y173367D01*
X522141Y173466D01*
X522154Y173564D01*
X522164Y173664D01*
X522170Y173763D01*
X522172Y173863D01*
X522172Y175133D01*
X522170Y175233D01*
X522164Y175332D01*
X522154Y175432D01*
X522141Y175530D01*
X522123Y175629D01*
X522102Y175726D01*
X522077Y175822D01*
X522048Y175918D01*
X522015Y176012D01*
X521979Y176105D01*
X521939Y176196D01*
X521895Y176286D01*
X521848Y176374D01*
X521798Y176460D01*
X521744Y176544D01*
X521687Y176626D01*
X521627Y176705D01*
X521563Y176783D01*
X521497Y176857D01*
X521428Y176929D01*
X521356Y176998D01*
X521282Y177064D01*
X521204Y177128D01*
X521125Y177188D01*
X521043Y177245D01*
X520959Y177299D01*
X520873Y177349D01*
X520785Y177396D01*
X520695Y177440D01*
X520604Y177480D01*
X520511Y177516D01*
X520417Y177549D01*
X520321Y177578D01*
X520225Y177603D01*
X520128Y177624D01*
X520029Y177642D01*
X519931Y177655D01*
X519831Y177665D01*
X519732Y177671D01*
X519632Y177673D01*
X515822Y177673D01*
X515822Y182753D01*
X522172Y182753D01*
D12*
X488950Y165100D02*
X476250Y165100D01*
X488950Y165100D02*
X495300Y158750D01*
X495300Y146050D01*
X488950Y139700D01*
X469900Y146050D02*
X469900Y158750D01*
X476250Y165100D01*
X469900Y146050D02*
X476250Y139700D01*
X488950Y139700D01*
D11*
X473583Y173863D02*
X473583Y182753D01*
X473583Y173863D02*
X473581Y173763D01*
X473575Y173664D01*
X473565Y173564D01*
X473552Y173466D01*
X473534Y173367D01*
X473513Y173270D01*
X473488Y173174D01*
X473459Y173078D01*
X473426Y172984D01*
X473390Y172891D01*
X473350Y172800D01*
X473306Y172710D01*
X473259Y172622D01*
X473209Y172536D01*
X473155Y172452D01*
X473098Y172370D01*
X473038Y172291D01*
X472974Y172213D01*
X472908Y172139D01*
X472839Y172067D01*
X472767Y171998D01*
X472693Y171932D01*
X472615Y171868D01*
X472536Y171808D01*
X472454Y171751D01*
X472370Y171697D01*
X472284Y171647D01*
X472196Y171600D01*
X472106Y171556D01*
X472015Y171516D01*
X471922Y171480D01*
X471828Y171447D01*
X471732Y171418D01*
X471636Y171393D01*
X471539Y171372D01*
X471440Y171354D01*
X471342Y171341D01*
X471242Y171331D01*
X471143Y171325D01*
X471043Y171323D01*
X469773Y171323D01*
X479563Y171323D02*
X479563Y182753D01*
X482738Y182753D01*
X482849Y182751D01*
X482959Y182745D01*
X483070Y182736D01*
X483180Y182722D01*
X483289Y182705D01*
X483398Y182684D01*
X483506Y182659D01*
X483613Y182630D01*
X483719Y182598D01*
X483824Y182562D01*
X483927Y182522D01*
X484029Y182479D01*
X484130Y182432D01*
X484229Y182381D01*
X484326Y182328D01*
X484420Y182271D01*
X484513Y182210D01*
X484604Y182147D01*
X484693Y182080D01*
X484779Y182010D01*
X484862Y181937D01*
X484944Y181862D01*
X485022Y181784D01*
X485097Y181702D01*
X485170Y181619D01*
X485240Y181533D01*
X485307Y181444D01*
X485370Y181353D01*
X485431Y181260D01*
X485488Y181165D01*
X485541Y181069D01*
X485592Y180970D01*
X485639Y180869D01*
X485682Y180767D01*
X485722Y180664D01*
X485758Y180559D01*
X485790Y180453D01*
X485819Y180346D01*
X485844Y180238D01*
X485865Y180129D01*
X485882Y180020D01*
X485896Y179910D01*
X485905Y179799D01*
X485911Y179689D01*
X485913Y179578D01*
X485911Y179467D01*
X485905Y179357D01*
X485896Y179246D01*
X485882Y179136D01*
X485865Y179027D01*
X485844Y178918D01*
X485819Y178810D01*
X485790Y178703D01*
X485758Y178597D01*
X485722Y178492D01*
X485682Y178389D01*
X485639Y178287D01*
X485592Y178186D01*
X485541Y178087D01*
X485488Y177990D01*
X485431Y177896D01*
X485370Y177803D01*
X485307Y177712D01*
X485240Y177623D01*
X485170Y177537D01*
X485097Y177454D01*
X485022Y177372D01*
X484944Y177294D01*
X484862Y177219D01*
X484779Y177146D01*
X484693Y177076D01*
X484604Y177009D01*
X484513Y176946D01*
X484420Y176885D01*
X484326Y176828D01*
X484229Y176775D01*
X484130Y176724D01*
X484029Y176677D01*
X483927Y176634D01*
X483824Y176594D01*
X483719Y176558D01*
X483613Y176526D01*
X483506Y176497D01*
X483398Y176472D01*
X483289Y176451D01*
X483180Y176434D01*
X483070Y176420D01*
X482959Y176411D01*
X482849Y176405D01*
X482738Y176403D01*
X479563Y176403D01*
X490422Y177673D02*
X494232Y177673D01*
X494332Y177671D01*
X494431Y177665D01*
X494531Y177655D01*
X494629Y177642D01*
X494728Y177624D01*
X494825Y177603D01*
X494921Y177578D01*
X495017Y177549D01*
X495111Y177516D01*
X495204Y177480D01*
X495295Y177440D01*
X495385Y177396D01*
X495473Y177349D01*
X495559Y177299D01*
X495643Y177245D01*
X495725Y177188D01*
X495804Y177128D01*
X495882Y177064D01*
X495956Y176998D01*
X496028Y176929D01*
X496097Y176857D01*
X496163Y176783D01*
X496227Y176705D01*
X496287Y176626D01*
X496344Y176544D01*
X496398Y176460D01*
X496448Y176374D01*
X496495Y176286D01*
X496539Y176196D01*
X496579Y176105D01*
X496615Y176012D01*
X496648Y175918D01*
X496677Y175822D01*
X496702Y175726D01*
X496723Y175629D01*
X496741Y175530D01*
X496754Y175432D01*
X496764Y175332D01*
X496770Y175233D01*
X496772Y175133D01*
X496772Y174498D01*
X496770Y174387D01*
X496764Y174277D01*
X496755Y174166D01*
X496741Y174056D01*
X496724Y173947D01*
X496703Y173838D01*
X496678Y173730D01*
X496649Y173623D01*
X496617Y173517D01*
X496581Y173412D01*
X496541Y173309D01*
X496498Y173207D01*
X496451Y173106D01*
X496400Y173007D01*
X496347Y172910D01*
X496290Y172816D01*
X496229Y172723D01*
X496166Y172632D01*
X496099Y172543D01*
X496029Y172457D01*
X495956Y172374D01*
X495881Y172292D01*
X495803Y172214D01*
X495721Y172139D01*
X495638Y172066D01*
X495552Y171996D01*
X495463Y171929D01*
X495372Y171866D01*
X495279Y171805D01*
X495184Y171748D01*
X495088Y171695D01*
X494989Y171644D01*
X494888Y171597D01*
X494786Y171554D01*
X494683Y171514D01*
X494578Y171478D01*
X494472Y171446D01*
X494365Y171417D01*
X494257Y171392D01*
X494148Y171371D01*
X494039Y171354D01*
X493929Y171340D01*
X493818Y171331D01*
X493708Y171325D01*
X493597Y171323D01*
X493486Y171325D01*
X493376Y171331D01*
X493265Y171340D01*
X493155Y171354D01*
X493046Y171371D01*
X492937Y171392D01*
X492829Y171417D01*
X492722Y171446D01*
X492616Y171478D01*
X492511Y171514D01*
X492408Y171554D01*
X492306Y171597D01*
X492205Y171644D01*
X492106Y171695D01*
X492010Y171748D01*
X491915Y171805D01*
X491822Y171866D01*
X491731Y171929D01*
X491642Y171996D01*
X491556Y172066D01*
X491473Y172139D01*
X491391Y172214D01*
X491313Y172292D01*
X491238Y172374D01*
X491165Y172457D01*
X491095Y172543D01*
X491028Y172632D01*
X490965Y172723D01*
X490904Y172816D01*
X490847Y172911D01*
X490794Y173007D01*
X490743Y173106D01*
X490696Y173207D01*
X490653Y173309D01*
X490613Y173412D01*
X490577Y173517D01*
X490545Y173623D01*
X490516Y173730D01*
X490491Y173838D01*
X490470Y173947D01*
X490453Y174056D01*
X490439Y174166D01*
X490430Y174277D01*
X490424Y174387D01*
X490422Y174498D01*
X490422Y177673D01*
X490424Y177813D01*
X490430Y177953D01*
X490439Y178093D01*
X490453Y178232D01*
X490470Y178371D01*
X490491Y178509D01*
X490516Y178647D01*
X490545Y178784D01*
X490577Y178920D01*
X490614Y179055D01*
X490654Y179189D01*
X490697Y179322D01*
X490745Y179454D01*
X490795Y179585D01*
X490850Y179714D01*
X490908Y179841D01*
X490969Y179967D01*
X491034Y180091D01*
X491103Y180213D01*
X491174Y180333D01*
X491249Y180451D01*
X491327Y180568D01*
X491409Y180682D01*
X491493Y180793D01*
X491581Y180902D01*
X491671Y181009D01*
X491765Y181114D01*
X491861Y181215D01*
X491960Y181314D01*
X492061Y181410D01*
X492166Y181504D01*
X492273Y181594D01*
X492382Y181682D01*
X492493Y181766D01*
X492607Y181848D01*
X492724Y181926D01*
X492842Y182001D01*
X492962Y182072D01*
X493084Y182141D01*
X493208Y182206D01*
X493334Y182267D01*
X493461Y182325D01*
X493590Y182380D01*
X493721Y182430D01*
X493853Y182478D01*
X493986Y182521D01*
X494120Y182561D01*
X494255Y182598D01*
X494391Y182630D01*
X494528Y182659D01*
X494666Y182684D01*
X494804Y182705D01*
X494943Y182722D01*
X495082Y182736D01*
X495222Y182745D01*
X495362Y182751D01*
X495502Y182753D01*
D12*
X463550Y165100D02*
X450850Y165100D01*
X463550Y165100D02*
X469900Y158750D01*
X469900Y146050D01*
X463550Y139700D01*
X444500Y146050D02*
X444500Y158750D01*
X450850Y165100D01*
X444500Y146050D02*
X450850Y139700D01*
X463550Y139700D01*
D11*
X448183Y173863D02*
X448183Y182753D01*
X448183Y173863D02*
X448181Y173763D01*
X448175Y173664D01*
X448165Y173564D01*
X448152Y173466D01*
X448134Y173367D01*
X448113Y173270D01*
X448088Y173174D01*
X448059Y173078D01*
X448026Y172984D01*
X447990Y172891D01*
X447950Y172800D01*
X447906Y172710D01*
X447859Y172622D01*
X447809Y172536D01*
X447755Y172452D01*
X447698Y172370D01*
X447638Y172291D01*
X447574Y172213D01*
X447508Y172139D01*
X447439Y172067D01*
X447367Y171998D01*
X447293Y171932D01*
X447215Y171868D01*
X447136Y171808D01*
X447054Y171751D01*
X446970Y171697D01*
X446884Y171647D01*
X446796Y171600D01*
X446706Y171556D01*
X446615Y171516D01*
X446522Y171480D01*
X446428Y171447D01*
X446332Y171418D01*
X446236Y171393D01*
X446139Y171372D01*
X446040Y171354D01*
X445942Y171341D01*
X445842Y171331D01*
X445743Y171325D01*
X445643Y171323D01*
X444373Y171323D01*
X454163Y171323D02*
X454163Y182753D01*
X457338Y182753D01*
X457449Y182751D01*
X457559Y182745D01*
X457670Y182736D01*
X457780Y182722D01*
X457889Y182705D01*
X457998Y182684D01*
X458106Y182659D01*
X458213Y182630D01*
X458319Y182598D01*
X458424Y182562D01*
X458527Y182522D01*
X458629Y182479D01*
X458730Y182432D01*
X458829Y182381D01*
X458926Y182328D01*
X459020Y182271D01*
X459113Y182210D01*
X459204Y182147D01*
X459293Y182080D01*
X459379Y182010D01*
X459462Y181937D01*
X459544Y181862D01*
X459622Y181784D01*
X459697Y181702D01*
X459770Y181619D01*
X459840Y181533D01*
X459907Y181444D01*
X459970Y181353D01*
X460031Y181260D01*
X460088Y181165D01*
X460141Y181069D01*
X460192Y180970D01*
X460239Y180869D01*
X460282Y180767D01*
X460322Y180664D01*
X460358Y180559D01*
X460390Y180453D01*
X460419Y180346D01*
X460444Y180238D01*
X460465Y180129D01*
X460482Y180020D01*
X460496Y179910D01*
X460505Y179799D01*
X460511Y179689D01*
X460513Y179578D01*
X460511Y179467D01*
X460505Y179357D01*
X460496Y179246D01*
X460482Y179136D01*
X460465Y179027D01*
X460444Y178918D01*
X460419Y178810D01*
X460390Y178703D01*
X460358Y178597D01*
X460322Y178492D01*
X460282Y178389D01*
X460239Y178287D01*
X460192Y178186D01*
X460141Y178087D01*
X460088Y177990D01*
X460031Y177896D01*
X459970Y177803D01*
X459907Y177712D01*
X459840Y177623D01*
X459770Y177537D01*
X459697Y177454D01*
X459622Y177372D01*
X459544Y177294D01*
X459462Y177219D01*
X459379Y177146D01*
X459293Y177076D01*
X459204Y177009D01*
X459113Y176946D01*
X459020Y176885D01*
X458926Y176828D01*
X458829Y176775D01*
X458730Y176724D01*
X458629Y176677D01*
X458527Y176634D01*
X458424Y176594D01*
X458319Y176558D01*
X458213Y176526D01*
X458106Y176497D01*
X457998Y176472D01*
X457889Y176451D01*
X457780Y176434D01*
X457670Y176420D01*
X457559Y176411D01*
X457449Y176405D01*
X457338Y176403D01*
X454163Y176403D01*
X465022Y181483D02*
X465022Y182753D01*
X471372Y182753D01*
X468197Y171323D01*
D12*
X438150Y165100D02*
X425450Y165100D01*
X438150Y165100D02*
X444500Y158750D01*
X444500Y146050D01*
X438150Y139700D01*
X419100Y146050D02*
X419100Y158750D01*
X425450Y165100D01*
X419100Y146050D02*
X425450Y139700D01*
X438150Y139700D01*
D11*
X422783Y173863D02*
X422783Y182753D01*
X422783Y173863D02*
X422781Y173763D01*
X422775Y173664D01*
X422765Y173564D01*
X422752Y173466D01*
X422734Y173367D01*
X422713Y173270D01*
X422688Y173174D01*
X422659Y173078D01*
X422626Y172984D01*
X422590Y172891D01*
X422550Y172800D01*
X422506Y172710D01*
X422459Y172622D01*
X422409Y172536D01*
X422355Y172452D01*
X422298Y172370D01*
X422238Y172291D01*
X422174Y172213D01*
X422108Y172139D01*
X422039Y172067D01*
X421967Y171998D01*
X421893Y171932D01*
X421815Y171868D01*
X421736Y171808D01*
X421654Y171751D01*
X421570Y171697D01*
X421484Y171647D01*
X421396Y171600D01*
X421306Y171556D01*
X421215Y171516D01*
X421122Y171480D01*
X421028Y171447D01*
X420932Y171418D01*
X420836Y171393D01*
X420739Y171372D01*
X420640Y171354D01*
X420542Y171341D01*
X420442Y171331D01*
X420343Y171325D01*
X420243Y171323D01*
X418973Y171323D01*
X428763Y171323D02*
X428763Y182753D01*
X431938Y182753D01*
X432049Y182751D01*
X432159Y182745D01*
X432270Y182736D01*
X432380Y182722D01*
X432489Y182705D01*
X432598Y182684D01*
X432706Y182659D01*
X432813Y182630D01*
X432919Y182598D01*
X433024Y182562D01*
X433127Y182522D01*
X433229Y182479D01*
X433330Y182432D01*
X433429Y182381D01*
X433526Y182328D01*
X433620Y182271D01*
X433713Y182210D01*
X433804Y182147D01*
X433893Y182080D01*
X433979Y182010D01*
X434062Y181937D01*
X434144Y181862D01*
X434222Y181784D01*
X434297Y181702D01*
X434370Y181619D01*
X434440Y181533D01*
X434507Y181444D01*
X434570Y181353D01*
X434631Y181260D01*
X434688Y181165D01*
X434741Y181069D01*
X434792Y180970D01*
X434839Y180869D01*
X434882Y180767D01*
X434922Y180664D01*
X434958Y180559D01*
X434990Y180453D01*
X435019Y180346D01*
X435044Y180238D01*
X435065Y180129D01*
X435082Y180020D01*
X435096Y179910D01*
X435105Y179799D01*
X435111Y179689D01*
X435113Y179578D01*
X435111Y179467D01*
X435105Y179357D01*
X435096Y179246D01*
X435082Y179136D01*
X435065Y179027D01*
X435044Y178918D01*
X435019Y178810D01*
X434990Y178703D01*
X434958Y178597D01*
X434922Y178492D01*
X434882Y178389D01*
X434839Y178287D01*
X434792Y178186D01*
X434741Y178087D01*
X434688Y177990D01*
X434631Y177896D01*
X434570Y177803D01*
X434507Y177712D01*
X434440Y177623D01*
X434370Y177537D01*
X434297Y177454D01*
X434222Y177372D01*
X434144Y177294D01*
X434062Y177219D01*
X433979Y177146D01*
X433893Y177076D01*
X433804Y177009D01*
X433713Y176946D01*
X433620Y176885D01*
X433526Y176828D01*
X433429Y176775D01*
X433330Y176724D01*
X433229Y176677D01*
X433127Y176634D01*
X433024Y176594D01*
X432919Y176558D01*
X432813Y176526D01*
X432706Y176497D01*
X432598Y176472D01*
X432489Y176451D01*
X432380Y176434D01*
X432270Y176420D01*
X432159Y176411D01*
X432049Y176405D01*
X431938Y176403D01*
X428763Y176403D01*
X439622Y174498D02*
X439624Y174609D01*
X439630Y174719D01*
X439639Y174830D01*
X439653Y174940D01*
X439670Y175049D01*
X439691Y175158D01*
X439716Y175266D01*
X439745Y175373D01*
X439777Y175479D01*
X439813Y175584D01*
X439853Y175687D01*
X439896Y175789D01*
X439943Y175890D01*
X439994Y175989D01*
X440047Y176086D01*
X440104Y176180D01*
X440165Y176273D01*
X440228Y176364D01*
X440295Y176453D01*
X440365Y176539D01*
X440438Y176622D01*
X440513Y176704D01*
X440591Y176782D01*
X440673Y176857D01*
X440756Y176930D01*
X440842Y177000D01*
X440931Y177067D01*
X441022Y177130D01*
X441115Y177191D01*
X441210Y177248D01*
X441306Y177301D01*
X441405Y177352D01*
X441506Y177399D01*
X441608Y177442D01*
X441711Y177482D01*
X441816Y177518D01*
X441922Y177550D01*
X442029Y177579D01*
X442137Y177604D01*
X442246Y177625D01*
X442355Y177642D01*
X442465Y177656D01*
X442576Y177665D01*
X442686Y177671D01*
X442797Y177673D01*
X442908Y177671D01*
X443018Y177665D01*
X443129Y177656D01*
X443239Y177642D01*
X443348Y177625D01*
X443457Y177604D01*
X443565Y177579D01*
X443672Y177550D01*
X443778Y177518D01*
X443883Y177482D01*
X443986Y177442D01*
X444088Y177399D01*
X444189Y177352D01*
X444288Y177301D01*
X444385Y177248D01*
X444479Y177191D01*
X444572Y177130D01*
X444663Y177067D01*
X444752Y177000D01*
X444838Y176930D01*
X444921Y176857D01*
X445003Y176782D01*
X445081Y176704D01*
X445156Y176622D01*
X445229Y176539D01*
X445299Y176453D01*
X445366Y176364D01*
X445429Y176273D01*
X445490Y176180D01*
X445547Y176086D01*
X445600Y175989D01*
X445651Y175890D01*
X445698Y175789D01*
X445741Y175687D01*
X445781Y175584D01*
X445817Y175479D01*
X445849Y175373D01*
X445878Y175266D01*
X445903Y175158D01*
X445924Y175049D01*
X445941Y174940D01*
X445955Y174830D01*
X445964Y174719D01*
X445970Y174609D01*
X445972Y174498D01*
X445970Y174387D01*
X445964Y174277D01*
X445955Y174166D01*
X445941Y174056D01*
X445924Y173947D01*
X445903Y173838D01*
X445878Y173730D01*
X445849Y173623D01*
X445817Y173517D01*
X445781Y173412D01*
X445741Y173309D01*
X445698Y173207D01*
X445651Y173106D01*
X445600Y173007D01*
X445547Y172910D01*
X445490Y172816D01*
X445429Y172723D01*
X445366Y172632D01*
X445299Y172543D01*
X445229Y172457D01*
X445156Y172374D01*
X445081Y172292D01*
X445003Y172214D01*
X444921Y172139D01*
X444838Y172066D01*
X444752Y171996D01*
X444663Y171929D01*
X444572Y171866D01*
X444479Y171805D01*
X444384Y171748D01*
X444288Y171695D01*
X444189Y171644D01*
X444088Y171597D01*
X443986Y171554D01*
X443883Y171514D01*
X443778Y171478D01*
X443672Y171446D01*
X443565Y171417D01*
X443457Y171392D01*
X443348Y171371D01*
X443239Y171354D01*
X443129Y171340D01*
X443018Y171331D01*
X442908Y171325D01*
X442797Y171323D01*
X442686Y171325D01*
X442576Y171331D01*
X442465Y171340D01*
X442355Y171354D01*
X442246Y171371D01*
X442137Y171392D01*
X442029Y171417D01*
X441922Y171446D01*
X441816Y171478D01*
X441711Y171514D01*
X441608Y171554D01*
X441506Y171597D01*
X441405Y171644D01*
X441306Y171695D01*
X441210Y171748D01*
X441115Y171805D01*
X441022Y171866D01*
X440931Y171929D01*
X440842Y171996D01*
X440756Y172066D01*
X440673Y172139D01*
X440591Y172214D01*
X440513Y172292D01*
X440438Y172374D01*
X440365Y172457D01*
X440295Y172543D01*
X440228Y172632D01*
X440165Y172723D01*
X440104Y172816D01*
X440047Y172911D01*
X439994Y173007D01*
X439943Y173106D01*
X439896Y173207D01*
X439853Y173309D01*
X439813Y173412D01*
X439777Y173517D01*
X439745Y173623D01*
X439716Y173730D01*
X439691Y173838D01*
X439670Y173947D01*
X439653Y174056D01*
X439639Y174166D01*
X439630Y174277D01*
X439624Y174387D01*
X439622Y174498D01*
X440257Y180213D02*
X440259Y180313D01*
X440265Y180412D01*
X440275Y180512D01*
X440288Y180610D01*
X440306Y180709D01*
X440327Y180806D01*
X440352Y180902D01*
X440381Y180998D01*
X440414Y181092D01*
X440450Y181185D01*
X440490Y181276D01*
X440534Y181366D01*
X440581Y181454D01*
X440631Y181540D01*
X440685Y181624D01*
X440742Y181706D01*
X440802Y181785D01*
X440866Y181863D01*
X440932Y181937D01*
X441001Y182009D01*
X441073Y182078D01*
X441147Y182144D01*
X441225Y182208D01*
X441304Y182268D01*
X441386Y182325D01*
X441470Y182379D01*
X441556Y182429D01*
X441644Y182476D01*
X441734Y182520D01*
X441825Y182560D01*
X441918Y182596D01*
X442012Y182629D01*
X442108Y182658D01*
X442204Y182683D01*
X442301Y182704D01*
X442400Y182722D01*
X442498Y182735D01*
X442598Y182745D01*
X442697Y182751D01*
X442797Y182753D01*
X442897Y182751D01*
X442996Y182745D01*
X443096Y182735D01*
X443194Y182722D01*
X443293Y182704D01*
X443390Y182683D01*
X443486Y182658D01*
X443582Y182629D01*
X443676Y182596D01*
X443769Y182560D01*
X443860Y182520D01*
X443950Y182476D01*
X444038Y182429D01*
X444124Y182379D01*
X444208Y182325D01*
X444290Y182268D01*
X444369Y182208D01*
X444447Y182144D01*
X444521Y182078D01*
X444593Y182009D01*
X444662Y181937D01*
X444728Y181863D01*
X444792Y181785D01*
X444852Y181706D01*
X444909Y181624D01*
X444963Y181540D01*
X445013Y181454D01*
X445060Y181366D01*
X445104Y181276D01*
X445144Y181185D01*
X445180Y181092D01*
X445213Y180998D01*
X445242Y180902D01*
X445267Y180806D01*
X445288Y180709D01*
X445306Y180610D01*
X445319Y180512D01*
X445329Y180412D01*
X445335Y180313D01*
X445337Y180213D01*
X445335Y180113D01*
X445329Y180014D01*
X445319Y179914D01*
X445306Y179816D01*
X445288Y179717D01*
X445267Y179620D01*
X445242Y179524D01*
X445213Y179428D01*
X445180Y179334D01*
X445144Y179241D01*
X445104Y179150D01*
X445060Y179060D01*
X445013Y178972D01*
X444963Y178886D01*
X444909Y178802D01*
X444852Y178720D01*
X444792Y178641D01*
X444728Y178563D01*
X444662Y178489D01*
X444593Y178417D01*
X444521Y178348D01*
X444447Y178282D01*
X444369Y178218D01*
X444290Y178158D01*
X444208Y178101D01*
X444124Y178047D01*
X444038Y177997D01*
X443950Y177950D01*
X443860Y177906D01*
X443769Y177866D01*
X443676Y177830D01*
X443582Y177797D01*
X443486Y177768D01*
X443390Y177743D01*
X443293Y177722D01*
X443194Y177704D01*
X443096Y177691D01*
X442996Y177681D01*
X442897Y177675D01*
X442797Y177673D01*
X442697Y177675D01*
X442598Y177681D01*
X442498Y177691D01*
X442400Y177704D01*
X442301Y177722D01*
X442204Y177743D01*
X442108Y177768D01*
X442012Y177797D01*
X441918Y177830D01*
X441825Y177866D01*
X441734Y177906D01*
X441644Y177950D01*
X441556Y177997D01*
X441470Y178047D01*
X441386Y178101D01*
X441304Y178158D01*
X441225Y178218D01*
X441147Y178282D01*
X441073Y178348D01*
X441001Y178417D01*
X440932Y178489D01*
X440866Y178563D01*
X440802Y178641D01*
X440742Y178720D01*
X440685Y178802D01*
X440631Y178886D01*
X440581Y178972D01*
X440534Y179060D01*
X440490Y179150D01*
X440450Y179241D01*
X440414Y179334D01*
X440381Y179428D01*
X440352Y179524D01*
X440327Y179620D01*
X440306Y179717D01*
X440288Y179816D01*
X440275Y179914D01*
X440265Y180014D01*
X440259Y180113D01*
X440257Y180213D01*
D12*
X412750Y165100D02*
X400050Y165100D01*
X412750Y165100D02*
X419100Y158750D01*
X419100Y146050D01*
X412750Y139700D01*
X393700Y146050D02*
X393700Y158750D01*
X400050Y165100D01*
X393700Y146050D02*
X400050Y139700D01*
X412750Y139700D01*
D11*
X397383Y173863D02*
X397383Y182753D01*
X397383Y173863D02*
X397381Y173763D01*
X397375Y173664D01*
X397365Y173564D01*
X397352Y173466D01*
X397334Y173367D01*
X397313Y173270D01*
X397288Y173174D01*
X397259Y173078D01*
X397226Y172984D01*
X397190Y172891D01*
X397150Y172800D01*
X397106Y172710D01*
X397059Y172622D01*
X397009Y172536D01*
X396955Y172452D01*
X396898Y172370D01*
X396838Y172291D01*
X396774Y172213D01*
X396708Y172139D01*
X396639Y172067D01*
X396567Y171998D01*
X396493Y171932D01*
X396415Y171868D01*
X396336Y171808D01*
X396254Y171751D01*
X396170Y171697D01*
X396084Y171647D01*
X395996Y171600D01*
X395906Y171556D01*
X395815Y171516D01*
X395722Y171480D01*
X395628Y171447D01*
X395532Y171418D01*
X395436Y171393D01*
X395339Y171372D01*
X395240Y171354D01*
X395142Y171341D01*
X395042Y171331D01*
X394943Y171325D01*
X394843Y171323D01*
X393573Y171323D01*
X403363Y171323D02*
X403363Y182753D01*
X406538Y182753D01*
X406649Y182751D01*
X406759Y182745D01*
X406870Y182736D01*
X406980Y182722D01*
X407089Y182705D01*
X407198Y182684D01*
X407306Y182659D01*
X407413Y182630D01*
X407519Y182598D01*
X407624Y182562D01*
X407727Y182522D01*
X407829Y182479D01*
X407930Y182432D01*
X408029Y182381D01*
X408126Y182328D01*
X408220Y182271D01*
X408313Y182210D01*
X408404Y182147D01*
X408493Y182080D01*
X408579Y182010D01*
X408662Y181937D01*
X408744Y181862D01*
X408822Y181784D01*
X408897Y181702D01*
X408970Y181619D01*
X409040Y181533D01*
X409107Y181444D01*
X409170Y181353D01*
X409231Y181260D01*
X409288Y181165D01*
X409341Y181069D01*
X409392Y180970D01*
X409439Y180869D01*
X409482Y180767D01*
X409522Y180664D01*
X409558Y180559D01*
X409590Y180453D01*
X409619Y180346D01*
X409644Y180238D01*
X409665Y180129D01*
X409682Y180020D01*
X409696Y179910D01*
X409705Y179799D01*
X409711Y179689D01*
X409713Y179578D01*
X409711Y179467D01*
X409705Y179357D01*
X409696Y179246D01*
X409682Y179136D01*
X409665Y179027D01*
X409644Y178918D01*
X409619Y178810D01*
X409590Y178703D01*
X409558Y178597D01*
X409522Y178492D01*
X409482Y178389D01*
X409439Y178287D01*
X409392Y178186D01*
X409341Y178087D01*
X409288Y177990D01*
X409231Y177896D01*
X409170Y177803D01*
X409107Y177712D01*
X409040Y177623D01*
X408970Y177537D01*
X408897Y177454D01*
X408822Y177372D01*
X408744Y177294D01*
X408662Y177219D01*
X408579Y177146D01*
X408493Y177076D01*
X408404Y177009D01*
X408313Y176946D01*
X408220Y176885D01*
X408126Y176828D01*
X408029Y176775D01*
X407930Y176724D01*
X407829Y176677D01*
X407727Y176634D01*
X407624Y176594D01*
X407519Y176558D01*
X407413Y176526D01*
X407306Y176497D01*
X407198Y176472D01*
X407089Y176451D01*
X406980Y176434D01*
X406870Y176420D01*
X406759Y176411D01*
X406649Y176405D01*
X406538Y176403D01*
X403363Y176403D01*
X416762Y176403D02*
X420572Y176403D01*
X416762Y176403D02*
X416662Y176405D01*
X416563Y176411D01*
X416463Y176421D01*
X416365Y176434D01*
X416266Y176452D01*
X416169Y176473D01*
X416073Y176498D01*
X415977Y176527D01*
X415883Y176560D01*
X415790Y176596D01*
X415699Y176636D01*
X415609Y176680D01*
X415521Y176727D01*
X415435Y176777D01*
X415351Y176831D01*
X415269Y176888D01*
X415190Y176948D01*
X415112Y177012D01*
X415038Y177078D01*
X414966Y177147D01*
X414897Y177219D01*
X414831Y177293D01*
X414767Y177371D01*
X414707Y177450D01*
X414650Y177532D01*
X414596Y177616D01*
X414546Y177702D01*
X414499Y177790D01*
X414455Y177880D01*
X414415Y177971D01*
X414379Y178064D01*
X414346Y178158D01*
X414317Y178254D01*
X414292Y178350D01*
X414271Y178447D01*
X414253Y178546D01*
X414240Y178644D01*
X414230Y178744D01*
X414224Y178843D01*
X414222Y178943D01*
X414222Y179578D01*
X414224Y179689D01*
X414230Y179799D01*
X414239Y179910D01*
X414253Y180020D01*
X414270Y180129D01*
X414291Y180238D01*
X414316Y180346D01*
X414345Y180453D01*
X414377Y180559D01*
X414413Y180664D01*
X414453Y180767D01*
X414496Y180869D01*
X414543Y180970D01*
X414594Y181069D01*
X414647Y181166D01*
X414704Y181260D01*
X414765Y181353D01*
X414828Y181444D01*
X414895Y181533D01*
X414965Y181619D01*
X415038Y181702D01*
X415113Y181784D01*
X415191Y181862D01*
X415273Y181937D01*
X415356Y182010D01*
X415442Y182080D01*
X415531Y182147D01*
X415622Y182210D01*
X415715Y182271D01*
X415810Y182328D01*
X415906Y182381D01*
X416005Y182432D01*
X416106Y182479D01*
X416208Y182522D01*
X416311Y182562D01*
X416416Y182598D01*
X416522Y182630D01*
X416629Y182659D01*
X416737Y182684D01*
X416846Y182705D01*
X416955Y182722D01*
X417065Y182736D01*
X417176Y182745D01*
X417286Y182751D01*
X417397Y182753D01*
X417508Y182751D01*
X417618Y182745D01*
X417729Y182736D01*
X417839Y182722D01*
X417948Y182705D01*
X418057Y182684D01*
X418165Y182659D01*
X418272Y182630D01*
X418378Y182598D01*
X418483Y182562D01*
X418586Y182522D01*
X418688Y182479D01*
X418789Y182432D01*
X418888Y182381D01*
X418985Y182328D01*
X419079Y182271D01*
X419172Y182210D01*
X419263Y182147D01*
X419352Y182080D01*
X419438Y182010D01*
X419521Y181937D01*
X419603Y181862D01*
X419681Y181784D01*
X419756Y181702D01*
X419829Y181619D01*
X419899Y181533D01*
X419966Y181444D01*
X420029Y181353D01*
X420090Y181260D01*
X420147Y181166D01*
X420200Y181069D01*
X420251Y180970D01*
X420298Y180869D01*
X420341Y180767D01*
X420381Y180664D01*
X420417Y180559D01*
X420449Y180453D01*
X420478Y180346D01*
X420503Y180238D01*
X420524Y180129D01*
X420541Y180020D01*
X420555Y179910D01*
X420564Y179799D01*
X420570Y179689D01*
X420572Y179578D01*
X420572Y176403D01*
X420570Y176263D01*
X420564Y176123D01*
X420555Y175983D01*
X420541Y175844D01*
X420524Y175705D01*
X420503Y175567D01*
X420478Y175429D01*
X420449Y175292D01*
X420417Y175156D01*
X420380Y175021D01*
X420340Y174887D01*
X420297Y174754D01*
X420249Y174622D01*
X420199Y174491D01*
X420144Y174362D01*
X420086Y174235D01*
X420025Y174109D01*
X419960Y173985D01*
X419891Y173863D01*
X419820Y173743D01*
X419745Y173625D01*
X419667Y173508D01*
X419585Y173394D01*
X419501Y173283D01*
X419413Y173174D01*
X419323Y173067D01*
X419229Y172962D01*
X419133Y172861D01*
X419034Y172762D01*
X418933Y172666D01*
X418828Y172572D01*
X418721Y172482D01*
X418612Y172394D01*
X418501Y172310D01*
X418387Y172228D01*
X418270Y172150D01*
X418152Y172075D01*
X418032Y172004D01*
X417910Y171935D01*
X417786Y171870D01*
X417660Y171809D01*
X417533Y171751D01*
X417404Y171696D01*
X417273Y171646D01*
X417141Y171598D01*
X417008Y171555D01*
X416874Y171515D01*
X416739Y171478D01*
X416603Y171446D01*
X416466Y171417D01*
X416328Y171392D01*
X416190Y171371D01*
X416051Y171354D01*
X415912Y171340D01*
X415772Y171331D01*
X415632Y171325D01*
X415492Y171323D01*
D12*
X387350Y165100D02*
X374650Y165100D01*
X387350Y165100D02*
X393700Y158750D01*
X393700Y146050D01*
X387350Y139700D01*
X368300Y146050D02*
X368300Y158750D01*
X374650Y165100D01*
X368300Y146050D02*
X374650Y139700D01*
X387350Y139700D01*
D11*
X371983Y173863D02*
X371983Y182753D01*
X371983Y173863D02*
X371981Y173763D01*
X371975Y173664D01*
X371965Y173564D01*
X371952Y173466D01*
X371934Y173367D01*
X371913Y173270D01*
X371888Y173174D01*
X371859Y173078D01*
X371826Y172984D01*
X371790Y172891D01*
X371750Y172800D01*
X371706Y172710D01*
X371659Y172622D01*
X371609Y172536D01*
X371555Y172452D01*
X371498Y172370D01*
X371438Y172291D01*
X371374Y172213D01*
X371308Y172139D01*
X371239Y172067D01*
X371167Y171998D01*
X371093Y171932D01*
X371015Y171868D01*
X370936Y171808D01*
X370854Y171751D01*
X370770Y171697D01*
X370684Y171647D01*
X370596Y171600D01*
X370506Y171556D01*
X370415Y171516D01*
X370322Y171480D01*
X370228Y171447D01*
X370132Y171418D01*
X370036Y171393D01*
X369939Y171372D01*
X369840Y171354D01*
X369742Y171341D01*
X369642Y171331D01*
X369543Y171325D01*
X369443Y171323D01*
X368173Y171323D01*
X377963Y171323D02*
X377963Y182753D01*
X381138Y182753D01*
X381249Y182751D01*
X381359Y182745D01*
X381470Y182736D01*
X381580Y182722D01*
X381689Y182705D01*
X381798Y182684D01*
X381906Y182659D01*
X382013Y182630D01*
X382119Y182598D01*
X382224Y182562D01*
X382327Y182522D01*
X382429Y182479D01*
X382530Y182432D01*
X382629Y182381D01*
X382726Y182328D01*
X382820Y182271D01*
X382913Y182210D01*
X383004Y182147D01*
X383093Y182080D01*
X383179Y182010D01*
X383262Y181937D01*
X383344Y181862D01*
X383422Y181784D01*
X383497Y181702D01*
X383570Y181619D01*
X383640Y181533D01*
X383707Y181444D01*
X383770Y181353D01*
X383831Y181260D01*
X383888Y181165D01*
X383941Y181069D01*
X383992Y180970D01*
X384039Y180869D01*
X384082Y180767D01*
X384122Y180664D01*
X384158Y180559D01*
X384190Y180453D01*
X384219Y180346D01*
X384244Y180238D01*
X384265Y180129D01*
X384282Y180020D01*
X384296Y179910D01*
X384305Y179799D01*
X384311Y179689D01*
X384313Y179578D01*
X384311Y179467D01*
X384305Y179357D01*
X384296Y179246D01*
X384282Y179136D01*
X384265Y179027D01*
X384244Y178918D01*
X384219Y178810D01*
X384190Y178703D01*
X384158Y178597D01*
X384122Y178492D01*
X384082Y178389D01*
X384039Y178287D01*
X383992Y178186D01*
X383941Y178087D01*
X383888Y177990D01*
X383831Y177896D01*
X383770Y177803D01*
X383707Y177712D01*
X383640Y177623D01*
X383570Y177537D01*
X383497Y177454D01*
X383422Y177372D01*
X383344Y177294D01*
X383262Y177219D01*
X383179Y177146D01*
X383093Y177076D01*
X383004Y177009D01*
X382913Y176946D01*
X382820Y176885D01*
X382726Y176828D01*
X382629Y176775D01*
X382530Y176724D01*
X382429Y176677D01*
X382327Y176634D01*
X382224Y176594D01*
X382119Y176558D01*
X382013Y176526D01*
X381906Y176497D01*
X381798Y176472D01*
X381689Y176451D01*
X381580Y176434D01*
X381470Y176420D01*
X381359Y176411D01*
X381249Y176405D01*
X381138Y176403D01*
X377963Y176403D01*
X388822Y180213D02*
X391997Y182753D01*
X391997Y171323D01*
X388822Y171323D02*
X395172Y171323D01*
X400252Y177038D02*
X400255Y177263D01*
X400263Y177488D01*
X400276Y177712D01*
X400295Y177936D01*
X400319Y178160D01*
X400348Y178383D01*
X400383Y178605D01*
X400423Y178826D01*
X400469Y179046D01*
X400519Y179265D01*
X400575Y179483D01*
X400636Y179700D01*
X400702Y179915D01*
X400773Y180128D01*
X400850Y180339D01*
X400931Y180549D01*
X401017Y180757D01*
X401108Y180962D01*
X401204Y181165D01*
X401204Y181166D02*
X401236Y181254D01*
X401272Y181341D01*
X401311Y181427D01*
X401354Y181511D01*
X401400Y181593D01*
X401449Y181673D01*
X401501Y181751D01*
X401557Y181827D01*
X401615Y181901D01*
X401677Y181972D01*
X401741Y182041D01*
X401808Y182107D01*
X401877Y182170D01*
X401949Y182231D01*
X402023Y182289D01*
X402100Y182343D01*
X402178Y182395D01*
X402259Y182443D01*
X402341Y182488D01*
X402426Y182530D01*
X402512Y182568D01*
X402599Y182603D01*
X402687Y182635D01*
X402777Y182662D01*
X402868Y182687D01*
X402960Y182707D01*
X403052Y182724D01*
X403146Y182737D01*
X403239Y182746D01*
X403333Y182752D01*
X403427Y182754D01*
X403521Y182752D01*
X403615Y182746D01*
X403708Y182737D01*
X403802Y182724D01*
X403894Y182707D01*
X403986Y182687D01*
X404077Y182662D01*
X404167Y182635D01*
X404255Y182603D01*
X404342Y182568D01*
X404428Y182530D01*
X404513Y182488D01*
X404595Y182443D01*
X404676Y182395D01*
X404754Y182343D01*
X404831Y182289D01*
X404905Y182231D01*
X404977Y182170D01*
X405046Y182107D01*
X405113Y182041D01*
X405177Y181972D01*
X405239Y181901D01*
X405297Y181827D01*
X405353Y181751D01*
X405405Y181673D01*
X405454Y181593D01*
X405500Y181511D01*
X405543Y181427D01*
X405582Y181341D01*
X405618Y181254D01*
X405650Y181166D01*
X405650Y181165D02*
X405746Y180962D01*
X405837Y180757D01*
X405923Y180549D01*
X406004Y180339D01*
X406081Y180128D01*
X406152Y179915D01*
X406218Y179700D01*
X406279Y179483D01*
X406335Y179265D01*
X406385Y179046D01*
X406431Y178826D01*
X406471Y178605D01*
X406506Y178383D01*
X406535Y178160D01*
X406559Y177936D01*
X406578Y177712D01*
X406591Y177488D01*
X406599Y177263D01*
X406602Y177038D01*
X400252Y177038D02*
X400255Y176813D01*
X400263Y176588D01*
X400276Y176364D01*
X400295Y176140D01*
X400319Y175916D01*
X400348Y175693D01*
X400383Y175471D01*
X400423Y175250D01*
X400469Y175030D01*
X400519Y174811D01*
X400575Y174593D01*
X400636Y174376D01*
X400702Y174161D01*
X400773Y173948D01*
X400850Y173737D01*
X400931Y173527D01*
X401017Y173319D01*
X401108Y173114D01*
X401204Y172911D01*
X401236Y172823D01*
X401272Y172736D01*
X401311Y172650D01*
X401354Y172566D01*
X401400Y172484D01*
X401449Y172404D01*
X401501Y172326D01*
X401557Y172250D01*
X401615Y172176D01*
X401677Y172105D01*
X401741Y172036D01*
X401808Y171970D01*
X401877Y171907D01*
X401949Y171846D01*
X402023Y171788D01*
X402100Y171734D01*
X402178Y171682D01*
X402259Y171634D01*
X402341Y171589D01*
X402426Y171547D01*
X402512Y171509D01*
X402599Y171474D01*
X402687Y171442D01*
X402777Y171415D01*
X402868Y171390D01*
X402960Y171370D01*
X403052Y171353D01*
X403146Y171340D01*
X403239Y171331D01*
X403333Y171325D01*
X403427Y171323D01*
X405650Y172911D02*
X405746Y173114D01*
X405837Y173319D01*
X405923Y173527D01*
X406004Y173737D01*
X406081Y173948D01*
X406152Y174161D01*
X406218Y174376D01*
X406279Y174593D01*
X406335Y174811D01*
X406385Y175030D01*
X406431Y175250D01*
X406471Y175471D01*
X406506Y175693D01*
X406535Y175916D01*
X406559Y176140D01*
X406578Y176364D01*
X406591Y176588D01*
X406599Y176813D01*
X406602Y177038D01*
X405650Y172911D02*
X405618Y172823D01*
X405582Y172736D01*
X405543Y172650D01*
X405500Y172566D01*
X405454Y172484D01*
X405405Y172404D01*
X405353Y172326D01*
X405297Y172250D01*
X405239Y172176D01*
X405177Y172105D01*
X405113Y172036D01*
X405046Y171970D01*
X404977Y171907D01*
X404905Y171846D01*
X404831Y171788D01*
X404754Y171734D01*
X404676Y171682D01*
X404595Y171634D01*
X404513Y171589D01*
X404428Y171547D01*
X404342Y171509D01*
X404255Y171474D01*
X404167Y171442D01*
X404077Y171415D01*
X403986Y171390D01*
X403894Y171370D01*
X403802Y171353D01*
X403708Y171340D01*
X403615Y171331D01*
X403521Y171325D01*
X403427Y171323D01*
X400887Y173863D02*
X405967Y180213D01*
D12*
X361950Y165100D02*
X349250Y165100D01*
X361950Y165100D02*
X368300Y158750D01*
X368300Y146050D01*
X361950Y139700D01*
X342900Y146050D02*
X342900Y158750D01*
X349250Y165100D01*
X342900Y146050D02*
X349250Y139700D01*
X361950Y139700D01*
D11*
X346583Y173863D02*
X346583Y182753D01*
X346583Y173863D02*
X346581Y173763D01*
X346575Y173664D01*
X346565Y173564D01*
X346552Y173466D01*
X346534Y173367D01*
X346513Y173270D01*
X346488Y173174D01*
X346459Y173078D01*
X346426Y172984D01*
X346390Y172891D01*
X346350Y172800D01*
X346306Y172710D01*
X346259Y172622D01*
X346209Y172536D01*
X346155Y172452D01*
X346098Y172370D01*
X346038Y172291D01*
X345974Y172213D01*
X345908Y172139D01*
X345839Y172067D01*
X345767Y171998D01*
X345693Y171932D01*
X345615Y171868D01*
X345536Y171808D01*
X345454Y171751D01*
X345370Y171697D01*
X345284Y171647D01*
X345196Y171600D01*
X345106Y171556D01*
X345015Y171516D01*
X344922Y171480D01*
X344828Y171447D01*
X344732Y171418D01*
X344636Y171393D01*
X344539Y171372D01*
X344440Y171354D01*
X344342Y171341D01*
X344242Y171331D01*
X344143Y171325D01*
X344043Y171323D01*
X342773Y171323D01*
X352563Y171323D02*
X352563Y182753D01*
X355738Y182753D01*
X355849Y182751D01*
X355959Y182745D01*
X356070Y182736D01*
X356180Y182722D01*
X356289Y182705D01*
X356398Y182684D01*
X356506Y182659D01*
X356613Y182630D01*
X356719Y182598D01*
X356824Y182562D01*
X356927Y182522D01*
X357029Y182479D01*
X357130Y182432D01*
X357229Y182381D01*
X357326Y182328D01*
X357420Y182271D01*
X357513Y182210D01*
X357604Y182147D01*
X357693Y182080D01*
X357779Y182010D01*
X357862Y181937D01*
X357944Y181862D01*
X358022Y181784D01*
X358097Y181702D01*
X358170Y181619D01*
X358240Y181533D01*
X358307Y181444D01*
X358370Y181353D01*
X358431Y181260D01*
X358488Y181165D01*
X358541Y181069D01*
X358592Y180970D01*
X358639Y180869D01*
X358682Y180767D01*
X358722Y180664D01*
X358758Y180559D01*
X358790Y180453D01*
X358819Y180346D01*
X358844Y180238D01*
X358865Y180129D01*
X358882Y180020D01*
X358896Y179910D01*
X358905Y179799D01*
X358911Y179689D01*
X358913Y179578D01*
X358911Y179467D01*
X358905Y179357D01*
X358896Y179246D01*
X358882Y179136D01*
X358865Y179027D01*
X358844Y178918D01*
X358819Y178810D01*
X358790Y178703D01*
X358758Y178597D01*
X358722Y178492D01*
X358682Y178389D01*
X358639Y178287D01*
X358592Y178186D01*
X358541Y178087D01*
X358488Y177990D01*
X358431Y177896D01*
X358370Y177803D01*
X358307Y177712D01*
X358240Y177623D01*
X358170Y177537D01*
X358097Y177454D01*
X358022Y177372D01*
X357944Y177294D01*
X357862Y177219D01*
X357779Y177146D01*
X357693Y177076D01*
X357604Y177009D01*
X357513Y176946D01*
X357420Y176885D01*
X357326Y176828D01*
X357229Y176775D01*
X357130Y176724D01*
X357029Y176677D01*
X356927Y176634D01*
X356824Y176594D01*
X356719Y176558D01*
X356613Y176526D01*
X356506Y176497D01*
X356398Y176472D01*
X356289Y176451D01*
X356180Y176434D01*
X356070Y176420D01*
X355959Y176411D01*
X355849Y176405D01*
X355738Y176403D01*
X352563Y176403D01*
X363422Y180213D02*
X366597Y182753D01*
X366597Y171323D01*
X363422Y171323D02*
X369772Y171323D01*
X374852Y180213D02*
X378027Y182753D01*
X378027Y171323D01*
X374852Y171323D02*
X381202Y171323D01*
D12*
X336550Y165100D02*
X323850Y165100D01*
X336550Y165100D02*
X342900Y158750D01*
X342900Y146050D01*
X336550Y139700D01*
X317500Y146050D02*
X317500Y158750D01*
X323850Y165100D01*
X317500Y146050D02*
X323850Y139700D01*
X336550Y139700D01*
D11*
X321183Y173863D02*
X321183Y182753D01*
X321183Y173863D02*
X321181Y173763D01*
X321175Y173664D01*
X321165Y173564D01*
X321152Y173466D01*
X321134Y173367D01*
X321113Y173270D01*
X321088Y173174D01*
X321059Y173078D01*
X321026Y172984D01*
X320990Y172891D01*
X320950Y172800D01*
X320906Y172710D01*
X320859Y172622D01*
X320809Y172536D01*
X320755Y172452D01*
X320698Y172370D01*
X320638Y172291D01*
X320574Y172213D01*
X320508Y172139D01*
X320439Y172067D01*
X320367Y171998D01*
X320293Y171932D01*
X320215Y171868D01*
X320136Y171808D01*
X320054Y171751D01*
X319970Y171697D01*
X319884Y171647D01*
X319796Y171600D01*
X319706Y171556D01*
X319615Y171516D01*
X319522Y171480D01*
X319428Y171447D01*
X319332Y171418D01*
X319236Y171393D01*
X319139Y171372D01*
X319040Y171354D01*
X318942Y171341D01*
X318842Y171331D01*
X318743Y171325D01*
X318643Y171323D01*
X317373Y171323D01*
X327163Y171323D02*
X327163Y182753D01*
X330338Y182753D01*
X330449Y182751D01*
X330559Y182745D01*
X330670Y182736D01*
X330780Y182722D01*
X330889Y182705D01*
X330998Y182684D01*
X331106Y182659D01*
X331213Y182630D01*
X331319Y182598D01*
X331424Y182562D01*
X331527Y182522D01*
X331629Y182479D01*
X331730Y182432D01*
X331829Y182381D01*
X331926Y182328D01*
X332020Y182271D01*
X332113Y182210D01*
X332204Y182147D01*
X332293Y182080D01*
X332379Y182010D01*
X332462Y181937D01*
X332544Y181862D01*
X332622Y181784D01*
X332697Y181702D01*
X332770Y181619D01*
X332840Y181533D01*
X332907Y181444D01*
X332970Y181353D01*
X333031Y181260D01*
X333088Y181165D01*
X333141Y181069D01*
X333192Y180970D01*
X333239Y180869D01*
X333282Y180767D01*
X333322Y180664D01*
X333358Y180559D01*
X333390Y180453D01*
X333419Y180346D01*
X333444Y180238D01*
X333465Y180129D01*
X333482Y180020D01*
X333496Y179910D01*
X333505Y179799D01*
X333511Y179689D01*
X333513Y179578D01*
X333511Y179467D01*
X333505Y179357D01*
X333496Y179246D01*
X333482Y179136D01*
X333465Y179027D01*
X333444Y178918D01*
X333419Y178810D01*
X333390Y178703D01*
X333358Y178597D01*
X333322Y178492D01*
X333282Y178389D01*
X333239Y178287D01*
X333192Y178186D01*
X333141Y178087D01*
X333088Y177990D01*
X333031Y177896D01*
X332970Y177803D01*
X332907Y177712D01*
X332840Y177623D01*
X332770Y177537D01*
X332697Y177454D01*
X332622Y177372D01*
X332544Y177294D01*
X332462Y177219D01*
X332379Y177146D01*
X332293Y177076D01*
X332204Y177009D01*
X332113Y176946D01*
X332020Y176885D01*
X331926Y176828D01*
X331829Y176775D01*
X331730Y176724D01*
X331629Y176677D01*
X331527Y176634D01*
X331424Y176594D01*
X331319Y176558D01*
X331213Y176526D01*
X331106Y176497D01*
X330998Y176472D01*
X330889Y176451D01*
X330780Y176434D01*
X330670Y176420D01*
X330559Y176411D01*
X330449Y176405D01*
X330338Y176403D01*
X327163Y176403D01*
X338022Y180213D02*
X341197Y182753D01*
X341197Y171323D01*
X338022Y171323D02*
X344372Y171323D01*
X355802Y179896D02*
X355800Y180000D01*
X355794Y180105D01*
X355785Y180209D01*
X355772Y180312D01*
X355754Y180415D01*
X355734Y180517D01*
X355709Y180619D01*
X355681Y180719D01*
X355649Y180819D01*
X355613Y180917D01*
X355574Y181014D01*
X355532Y181109D01*
X355486Y181203D01*
X355436Y181295D01*
X355384Y181385D01*
X355328Y181473D01*
X355268Y181559D01*
X355206Y181643D01*
X355141Y181724D01*
X355073Y181803D01*
X355001Y181880D01*
X354928Y181953D01*
X354851Y182025D01*
X354772Y182093D01*
X354691Y182158D01*
X354607Y182220D01*
X354521Y182280D01*
X354433Y182336D01*
X354343Y182388D01*
X354251Y182438D01*
X354157Y182484D01*
X354062Y182526D01*
X353965Y182565D01*
X353867Y182601D01*
X353767Y182633D01*
X353667Y182661D01*
X353565Y182686D01*
X353463Y182706D01*
X353360Y182724D01*
X353257Y182737D01*
X353153Y182746D01*
X353048Y182752D01*
X352944Y182754D01*
X352944Y182753D02*
X352826Y182751D01*
X352707Y182745D01*
X352589Y182736D01*
X352472Y182723D01*
X352355Y182705D01*
X352238Y182685D01*
X352122Y182660D01*
X352007Y182632D01*
X351894Y182599D01*
X351781Y182564D01*
X351669Y182524D01*
X351559Y182482D01*
X351450Y182435D01*
X351342Y182385D01*
X351237Y182332D01*
X351133Y182275D01*
X351031Y182215D01*
X350931Y182152D01*
X350833Y182085D01*
X350737Y182016D01*
X350644Y181943D01*
X350553Y181867D01*
X350464Y181789D01*
X350378Y181707D01*
X350295Y181623D01*
X350214Y181537D01*
X350137Y181447D01*
X350062Y181356D01*
X349990Y181262D01*
X349921Y181165D01*
X349856Y181067D01*
X349793Y180966D01*
X349734Y180863D01*
X349678Y180759D01*
X349626Y180653D01*
X349577Y180545D01*
X349532Y180436D01*
X349490Y180325D01*
X349452Y180213D01*
X354850Y177674D02*
X354926Y177749D01*
X355001Y177828D01*
X355072Y177909D01*
X355141Y177993D01*
X355206Y178079D01*
X355268Y178167D01*
X355328Y178257D01*
X355384Y178349D01*
X355437Y178444D01*
X355486Y178540D01*
X355532Y178638D01*
X355575Y178737D01*
X355614Y178838D01*
X355649Y178940D01*
X355681Y179043D01*
X355709Y179147D01*
X355734Y179252D01*
X355755Y179359D01*
X355772Y179465D01*
X355785Y179572D01*
X355794Y179680D01*
X355800Y179788D01*
X355802Y179896D01*
X354849Y177673D02*
X349452Y171323D01*
X355802Y171323D01*
D12*
X539750Y63500D02*
X552450Y63500D01*
X558800Y57150D01*
X558800Y44450D01*
X552450Y38100D01*
X533400Y44450D02*
X533400Y57150D01*
X539750Y63500D01*
X533400Y44450D02*
X539750Y38100D01*
X552450Y38100D01*
D11*
X537083Y72263D02*
X537083Y81153D01*
X537083Y72263D02*
X537081Y72163D01*
X537075Y72064D01*
X537065Y71964D01*
X537052Y71866D01*
X537034Y71767D01*
X537013Y71670D01*
X536988Y71574D01*
X536959Y71478D01*
X536926Y71384D01*
X536890Y71291D01*
X536850Y71200D01*
X536806Y71110D01*
X536759Y71022D01*
X536709Y70936D01*
X536655Y70852D01*
X536598Y70770D01*
X536538Y70691D01*
X536474Y70613D01*
X536408Y70539D01*
X536339Y70467D01*
X536267Y70398D01*
X536193Y70332D01*
X536115Y70268D01*
X536036Y70208D01*
X535954Y70151D01*
X535870Y70097D01*
X535784Y70047D01*
X535696Y70000D01*
X535606Y69956D01*
X535515Y69916D01*
X535422Y69880D01*
X535328Y69847D01*
X535232Y69818D01*
X535136Y69793D01*
X535039Y69772D01*
X534940Y69754D01*
X534842Y69741D01*
X534742Y69731D01*
X534643Y69725D01*
X534543Y69723D01*
X533273Y69723D01*
X543063Y69723D02*
X543063Y81153D01*
X546238Y81153D01*
X546349Y81151D01*
X546459Y81145D01*
X546570Y81136D01*
X546680Y81122D01*
X546789Y81105D01*
X546898Y81084D01*
X547006Y81059D01*
X547113Y81030D01*
X547219Y80998D01*
X547324Y80962D01*
X547427Y80922D01*
X547529Y80879D01*
X547630Y80832D01*
X547729Y80781D01*
X547826Y80728D01*
X547920Y80671D01*
X548013Y80610D01*
X548104Y80547D01*
X548193Y80480D01*
X548279Y80410D01*
X548362Y80337D01*
X548444Y80262D01*
X548522Y80184D01*
X548597Y80102D01*
X548670Y80019D01*
X548740Y79933D01*
X548807Y79844D01*
X548870Y79753D01*
X548931Y79660D01*
X548988Y79565D01*
X549041Y79469D01*
X549092Y79370D01*
X549139Y79269D01*
X549182Y79167D01*
X549222Y79064D01*
X549258Y78959D01*
X549290Y78853D01*
X549319Y78746D01*
X549344Y78638D01*
X549365Y78529D01*
X549382Y78420D01*
X549396Y78310D01*
X549405Y78199D01*
X549411Y78089D01*
X549413Y77978D01*
X549411Y77867D01*
X549405Y77757D01*
X549396Y77646D01*
X549382Y77536D01*
X549365Y77427D01*
X549344Y77318D01*
X549319Y77210D01*
X549290Y77103D01*
X549258Y76997D01*
X549222Y76892D01*
X549182Y76789D01*
X549139Y76687D01*
X549092Y76586D01*
X549041Y76487D01*
X548988Y76390D01*
X548931Y76296D01*
X548870Y76203D01*
X548807Y76112D01*
X548740Y76023D01*
X548670Y75937D01*
X548597Y75854D01*
X548522Y75772D01*
X548444Y75694D01*
X548362Y75619D01*
X548279Y75546D01*
X548193Y75476D01*
X548104Y75409D01*
X548013Y75346D01*
X547920Y75285D01*
X547826Y75228D01*
X547729Y75175D01*
X547630Y75124D01*
X547529Y75077D01*
X547427Y75034D01*
X547324Y74994D01*
X547219Y74958D01*
X547113Y74926D01*
X547006Y74897D01*
X546898Y74872D01*
X546789Y74851D01*
X546680Y74834D01*
X546570Y74820D01*
X546459Y74811D01*
X546349Y74805D01*
X546238Y74803D01*
X543063Y74803D01*
X553922Y78613D02*
X557097Y81153D01*
X557097Y69723D01*
X553922Y69723D02*
X560272Y69723D01*
X565352Y69723D02*
X568527Y69723D01*
X568638Y69725D01*
X568748Y69731D01*
X568859Y69740D01*
X568969Y69754D01*
X569078Y69771D01*
X569187Y69792D01*
X569295Y69817D01*
X569402Y69846D01*
X569508Y69878D01*
X569613Y69914D01*
X569716Y69954D01*
X569818Y69997D01*
X569919Y70044D01*
X570018Y70095D01*
X570115Y70148D01*
X570209Y70205D01*
X570302Y70266D01*
X570393Y70329D01*
X570482Y70396D01*
X570568Y70466D01*
X570651Y70539D01*
X570733Y70614D01*
X570811Y70692D01*
X570886Y70774D01*
X570959Y70857D01*
X571029Y70943D01*
X571096Y71032D01*
X571159Y71123D01*
X571220Y71216D01*
X571277Y71310D01*
X571330Y71407D01*
X571381Y71506D01*
X571428Y71607D01*
X571471Y71709D01*
X571511Y71812D01*
X571547Y71917D01*
X571579Y72023D01*
X571608Y72130D01*
X571633Y72238D01*
X571654Y72347D01*
X571671Y72456D01*
X571685Y72566D01*
X571694Y72677D01*
X571700Y72787D01*
X571702Y72898D01*
X571700Y73009D01*
X571694Y73119D01*
X571685Y73230D01*
X571671Y73340D01*
X571654Y73449D01*
X571633Y73558D01*
X571608Y73666D01*
X571579Y73773D01*
X571547Y73879D01*
X571511Y73984D01*
X571471Y74087D01*
X571428Y74189D01*
X571381Y74290D01*
X571330Y74389D01*
X571277Y74485D01*
X571220Y74580D01*
X571159Y74673D01*
X571096Y74764D01*
X571029Y74853D01*
X570959Y74939D01*
X570886Y75022D01*
X570811Y75104D01*
X570733Y75182D01*
X570651Y75257D01*
X570568Y75330D01*
X570482Y75400D01*
X570393Y75467D01*
X570302Y75530D01*
X570209Y75591D01*
X570115Y75648D01*
X570018Y75701D01*
X569919Y75752D01*
X569818Y75799D01*
X569716Y75842D01*
X569613Y75882D01*
X569508Y75918D01*
X569402Y75950D01*
X569295Y75979D01*
X569187Y76004D01*
X569078Y76025D01*
X568969Y76042D01*
X568859Y76056D01*
X568748Y76065D01*
X568638Y76071D01*
X568527Y76073D01*
X569162Y81153D02*
X565352Y81153D01*
X569162Y81153D02*
X569262Y81151D01*
X569361Y81145D01*
X569461Y81135D01*
X569559Y81122D01*
X569658Y81104D01*
X569755Y81083D01*
X569851Y81058D01*
X569947Y81029D01*
X570041Y80996D01*
X570134Y80960D01*
X570225Y80920D01*
X570315Y80876D01*
X570403Y80829D01*
X570489Y80779D01*
X570573Y80725D01*
X570655Y80668D01*
X570734Y80608D01*
X570812Y80544D01*
X570886Y80478D01*
X570958Y80409D01*
X571027Y80337D01*
X571093Y80263D01*
X571157Y80185D01*
X571217Y80106D01*
X571274Y80024D01*
X571328Y79940D01*
X571378Y79854D01*
X571425Y79766D01*
X571469Y79676D01*
X571509Y79585D01*
X571545Y79492D01*
X571578Y79398D01*
X571607Y79302D01*
X571632Y79206D01*
X571653Y79109D01*
X571671Y79010D01*
X571684Y78912D01*
X571694Y78812D01*
X571700Y78713D01*
X571702Y78613D01*
X571700Y78513D01*
X571694Y78414D01*
X571684Y78314D01*
X571671Y78216D01*
X571653Y78117D01*
X571632Y78020D01*
X571607Y77924D01*
X571578Y77828D01*
X571545Y77734D01*
X571509Y77641D01*
X571469Y77550D01*
X571425Y77460D01*
X571378Y77372D01*
X571328Y77286D01*
X571274Y77202D01*
X571217Y77120D01*
X571157Y77041D01*
X571093Y76963D01*
X571027Y76889D01*
X570958Y76817D01*
X570886Y76748D01*
X570812Y76682D01*
X570734Y76618D01*
X570655Y76558D01*
X570573Y76501D01*
X570489Y76447D01*
X570403Y76397D01*
X570315Y76350D01*
X570225Y76306D01*
X570134Y76266D01*
X570041Y76230D01*
X569947Y76197D01*
X569851Y76168D01*
X569755Y76143D01*
X569658Y76122D01*
X569559Y76104D01*
X569461Y76091D01*
X569361Y76081D01*
X569262Y76075D01*
X569162Y76073D01*
X566622Y76073D01*
D12*
X552450Y38100D02*
X539750Y38100D01*
X552450Y38100D02*
X558800Y31750D01*
X558800Y19050D01*
X552450Y12700D01*
X533400Y19050D02*
X533400Y31750D01*
X539750Y38100D01*
X533400Y19050D02*
X539750Y12700D01*
X552450Y12700D01*
D11*
X537083Y46863D02*
X537083Y55753D01*
X537083Y46863D02*
X537081Y46763D01*
X537075Y46664D01*
X537065Y46564D01*
X537052Y46466D01*
X537034Y46367D01*
X537013Y46270D01*
X536988Y46174D01*
X536959Y46078D01*
X536926Y45984D01*
X536890Y45891D01*
X536850Y45800D01*
X536806Y45710D01*
X536759Y45622D01*
X536709Y45536D01*
X536655Y45452D01*
X536598Y45370D01*
X536538Y45291D01*
X536474Y45213D01*
X536408Y45139D01*
X536339Y45067D01*
X536267Y44998D01*
X536193Y44932D01*
X536115Y44868D01*
X536036Y44808D01*
X535954Y44751D01*
X535870Y44697D01*
X535784Y44647D01*
X535696Y44600D01*
X535606Y44556D01*
X535515Y44516D01*
X535422Y44480D01*
X535328Y44447D01*
X535232Y44418D01*
X535136Y44393D01*
X535039Y44372D01*
X534940Y44354D01*
X534842Y44341D01*
X534742Y44331D01*
X534643Y44325D01*
X534543Y44323D01*
X533273Y44323D01*
X543063Y44323D02*
X543063Y55753D01*
X546238Y55753D01*
X546349Y55751D01*
X546459Y55745D01*
X546570Y55736D01*
X546680Y55722D01*
X546789Y55705D01*
X546898Y55684D01*
X547006Y55659D01*
X547113Y55630D01*
X547219Y55598D01*
X547324Y55562D01*
X547427Y55522D01*
X547529Y55479D01*
X547630Y55432D01*
X547729Y55381D01*
X547826Y55328D01*
X547920Y55271D01*
X548013Y55210D01*
X548104Y55147D01*
X548193Y55080D01*
X548279Y55010D01*
X548362Y54937D01*
X548444Y54862D01*
X548522Y54784D01*
X548597Y54702D01*
X548670Y54619D01*
X548740Y54533D01*
X548807Y54444D01*
X548870Y54353D01*
X548931Y54260D01*
X548988Y54165D01*
X549041Y54069D01*
X549092Y53970D01*
X549139Y53869D01*
X549182Y53767D01*
X549222Y53664D01*
X549258Y53559D01*
X549290Y53453D01*
X549319Y53346D01*
X549344Y53238D01*
X549365Y53129D01*
X549382Y53020D01*
X549396Y52910D01*
X549405Y52799D01*
X549411Y52689D01*
X549413Y52578D01*
X549411Y52467D01*
X549405Y52357D01*
X549396Y52246D01*
X549382Y52136D01*
X549365Y52027D01*
X549344Y51918D01*
X549319Y51810D01*
X549290Y51703D01*
X549258Y51597D01*
X549222Y51492D01*
X549182Y51389D01*
X549139Y51287D01*
X549092Y51186D01*
X549041Y51087D01*
X548988Y50990D01*
X548931Y50896D01*
X548870Y50803D01*
X548807Y50712D01*
X548740Y50623D01*
X548670Y50537D01*
X548597Y50454D01*
X548522Y50372D01*
X548444Y50294D01*
X548362Y50219D01*
X548279Y50146D01*
X548193Y50076D01*
X548104Y50009D01*
X548013Y49946D01*
X547920Y49885D01*
X547826Y49828D01*
X547729Y49775D01*
X547630Y49724D01*
X547529Y49677D01*
X547427Y49634D01*
X547324Y49594D01*
X547219Y49558D01*
X547113Y49526D01*
X547006Y49497D01*
X546898Y49472D01*
X546789Y49451D01*
X546680Y49434D01*
X546570Y49420D01*
X546459Y49411D01*
X546349Y49405D01*
X546238Y49403D01*
X543063Y49403D01*
X553922Y53213D02*
X557097Y55753D01*
X557097Y44323D01*
X553922Y44323D02*
X560272Y44323D01*
X565352Y46863D02*
X567892Y55753D01*
X565352Y46863D02*
X571702Y46863D01*
X569797Y49403D02*
X569797Y44323D01*
M02*
