G04 EAGLE Gerber RS-274X export*
G75*
%MOMM*%
%FSLAX34Y34*%
%LPD*%
%INBottom Copper*%
%IPPOS*%
%AMOC8*
5,1,8,0,0,1.08239X$1,22.5*%
G01*
%ADD10C,1.981200*%
%ADD11P,1.429621X8X202.500000*%
%ADD12C,1.320800*%
%ADD13C,1.676400*%
%ADD14P,1.429621X8X22.500000*%
%ADD15P,1.429621X8X292.500000*%
%ADD16P,2.061953X8X112.500000*%
%ADD17R,1.524000X1.524000*%
%ADD18C,1.000000*%
%ADD19C,1.016000*%
%ADD20C,0.756400*%
%ADD21C,1.500000*%

G36*
X609259Y10171D02*
X609259Y10171D01*
X609393Y10172D01*
X609505Y10191D01*
X609619Y10201D01*
X609748Y10233D01*
X609879Y10255D01*
X609987Y10292D01*
X610098Y10319D01*
X610220Y10372D01*
X610346Y10415D01*
X610446Y10469D01*
X610551Y10514D01*
X610663Y10585D01*
X610780Y10648D01*
X610871Y10718D01*
X610967Y10779D01*
X611066Y10868D01*
X611172Y10949D01*
X611250Y11032D01*
X611335Y11108D01*
X611419Y11211D01*
X611510Y11308D01*
X611573Y11403D01*
X611645Y11492D01*
X611711Y11607D01*
X611785Y11718D01*
X611832Y11821D01*
X611889Y11920D01*
X611935Y12045D01*
X611991Y12166D01*
X612021Y12276D01*
X612060Y12383D01*
X612086Y12513D01*
X612121Y12642D01*
X612133Y12755D01*
X612155Y12867D01*
X612159Y13000D01*
X612173Y13132D01*
X612167Y13246D01*
X612170Y13360D01*
X612153Y13492D01*
X612146Y13625D01*
X612121Y13736D01*
X612106Y13849D01*
X612068Y13977D01*
X612039Y14107D01*
X612005Y14184D01*
X611964Y14321D01*
X611792Y14671D01*
X611766Y14732D01*
X609014Y19498D01*
X607299Y25897D01*
X607299Y32523D01*
X609014Y38922D01*
X612326Y44659D01*
X617011Y49344D01*
X622748Y52656D01*
X629147Y54371D01*
X635773Y54371D01*
X642172Y52656D01*
X645468Y50753D01*
X645589Y50696D01*
X645704Y50630D01*
X645811Y50590D01*
X645914Y50541D01*
X646042Y50505D01*
X646167Y50458D01*
X646279Y50436D01*
X646388Y50405D01*
X646521Y50389D01*
X646651Y50364D01*
X646765Y50360D01*
X646878Y50347D01*
X647011Y50352D01*
X647144Y50348D01*
X647257Y50363D01*
X647371Y50368D01*
X647501Y50395D01*
X647633Y50413D01*
X647742Y50446D01*
X647854Y50469D01*
X647978Y50517D01*
X648106Y50555D01*
X648208Y50605D01*
X648314Y50646D01*
X648429Y50714D01*
X648549Y50772D01*
X648641Y50838D01*
X648740Y50896D01*
X648843Y50981D01*
X648951Y51058D01*
X649032Y51138D01*
X649120Y51210D01*
X649207Y51311D01*
X649302Y51404D01*
X649369Y51496D01*
X649444Y51582D01*
X649514Y51696D01*
X649592Y51803D01*
X649644Y51905D01*
X649704Y52002D01*
X649755Y52125D01*
X649815Y52243D01*
X649849Y52352D01*
X649893Y52457D01*
X649923Y52587D01*
X649963Y52714D01*
X649972Y52798D01*
X650005Y52938D01*
X650032Y53326D01*
X650039Y53392D01*
X650039Y518842D01*
X650028Y518974D01*
X650028Y519107D01*
X650009Y519220D01*
X649999Y519333D01*
X649967Y519463D01*
X649945Y519594D01*
X649908Y519701D01*
X649881Y519812D01*
X649828Y519935D01*
X649785Y520060D01*
X649731Y520161D01*
X649686Y520265D01*
X649615Y520378D01*
X649552Y520495D01*
X649482Y520586D01*
X649421Y520682D01*
X649332Y520781D01*
X649251Y520886D01*
X649168Y520964D01*
X649092Y521049D01*
X648989Y521133D01*
X648892Y521224D01*
X648797Y521288D01*
X648708Y521359D01*
X648593Y521425D01*
X648482Y521499D01*
X648379Y521547D01*
X648280Y521603D01*
X648155Y521650D01*
X648034Y521705D01*
X647924Y521735D01*
X647817Y521775D01*
X647687Y521800D01*
X647558Y521836D01*
X647445Y521848D01*
X647333Y521870D01*
X647200Y521874D01*
X647068Y521888D01*
X646954Y521881D01*
X646840Y521885D01*
X646708Y521868D01*
X646575Y521860D01*
X646464Y521835D01*
X646351Y521821D01*
X646223Y521782D01*
X646093Y521753D01*
X646016Y521720D01*
X645879Y521678D01*
X645529Y521507D01*
X645468Y521481D01*
X640902Y518844D01*
X634503Y517129D01*
X627877Y517129D01*
X621478Y518844D01*
X615741Y522156D01*
X611056Y526841D01*
X607744Y532578D01*
X606029Y538977D01*
X606029Y545603D01*
X607744Y552002D01*
X610790Y557278D01*
X610847Y557399D01*
X610913Y557514D01*
X610953Y557621D01*
X611002Y557724D01*
X611039Y557852D01*
X611085Y557977D01*
X611107Y558089D01*
X611138Y558198D01*
X611154Y558331D01*
X611180Y558461D01*
X611183Y558575D01*
X611197Y558688D01*
X611191Y558821D01*
X611195Y558954D01*
X611180Y559067D01*
X611175Y559181D01*
X611148Y559311D01*
X611130Y559443D01*
X611098Y559552D01*
X611074Y559664D01*
X611026Y559788D01*
X610988Y559916D01*
X610938Y560018D01*
X610897Y560124D01*
X610830Y560239D01*
X610771Y560359D01*
X610705Y560451D01*
X610648Y560550D01*
X610563Y560652D01*
X610486Y560761D01*
X610406Y560842D01*
X610333Y560930D01*
X610232Y561017D01*
X610139Y561112D01*
X610047Y561179D01*
X609961Y561254D01*
X609848Y561324D01*
X609740Y561402D01*
X609638Y561454D01*
X609541Y561514D01*
X609418Y561565D01*
X609300Y561625D01*
X609191Y561659D01*
X609086Y561703D01*
X608956Y561733D01*
X608829Y561773D01*
X608745Y561782D01*
X608605Y561815D01*
X608217Y561842D01*
X608151Y561849D01*
X49709Y561849D01*
X49576Y561839D01*
X49443Y561838D01*
X49330Y561819D01*
X49217Y561809D01*
X49088Y561777D01*
X48956Y561755D01*
X48849Y561718D01*
X48738Y561691D01*
X48616Y561638D01*
X48490Y561595D01*
X48389Y561541D01*
X48285Y561496D01*
X48172Y561425D01*
X48055Y561362D01*
X47965Y561292D01*
X47869Y561231D01*
X47769Y561142D01*
X47664Y561061D01*
X47586Y560978D01*
X47501Y560902D01*
X47417Y560799D01*
X47326Y560702D01*
X47262Y560607D01*
X47191Y560518D01*
X47125Y560403D01*
X47051Y560292D01*
X47003Y560189D01*
X46947Y560090D01*
X46900Y559965D01*
X46845Y559844D01*
X46815Y559734D01*
X46775Y559627D01*
X46750Y559497D01*
X46714Y559368D01*
X46702Y559255D01*
X46680Y559143D01*
X46676Y559010D01*
X46662Y558878D01*
X46669Y558764D01*
X46665Y558650D01*
X46682Y558518D01*
X46690Y558385D01*
X46715Y558274D01*
X46730Y558161D01*
X46768Y558033D01*
X46797Y557903D01*
X46830Y557827D01*
X46872Y557689D01*
X47043Y557339D01*
X47070Y557278D01*
X50116Y552002D01*
X51831Y545603D01*
X51831Y538977D01*
X50116Y532578D01*
X48198Y529256D01*
X48141Y529135D01*
X48075Y529020D01*
X48035Y528913D01*
X47986Y528810D01*
X47950Y528682D01*
X47903Y528557D01*
X47881Y528445D01*
X47850Y528336D01*
X47834Y528203D01*
X47809Y528073D01*
X47805Y527959D01*
X47792Y527846D01*
X47797Y527713D01*
X47793Y527580D01*
X47808Y527467D01*
X47813Y527353D01*
X47840Y527223D01*
X47858Y527091D01*
X47891Y526982D01*
X47914Y526870D01*
X47962Y526746D01*
X48000Y526618D01*
X48050Y526516D01*
X48091Y526410D01*
X48159Y526295D01*
X48217Y526175D01*
X48283Y526083D01*
X48341Y525984D01*
X48426Y525882D01*
X48503Y525773D01*
X48583Y525692D01*
X48655Y525604D01*
X48756Y525517D01*
X48849Y525422D01*
X48941Y525355D01*
X49027Y525280D01*
X49140Y525210D01*
X49248Y525132D01*
X49350Y525080D01*
X49447Y525020D01*
X49570Y524969D01*
X49688Y524909D01*
X49797Y524875D01*
X49902Y524831D01*
X50032Y524801D01*
X50159Y524761D01*
X50243Y524752D01*
X50383Y524719D01*
X50771Y524692D01*
X50837Y524685D01*
X59417Y524685D01*
X66215Y517887D01*
X66215Y508273D01*
X59417Y501475D01*
X49803Y501475D01*
X43005Y508273D01*
X43005Y517390D01*
X42994Y517523D01*
X42994Y517656D01*
X42975Y517768D01*
X42965Y517882D01*
X42933Y518011D01*
X42911Y518142D01*
X42874Y518250D01*
X42847Y518361D01*
X42794Y518483D01*
X42751Y518609D01*
X42697Y518709D01*
X42652Y518814D01*
X42581Y518926D01*
X42518Y519044D01*
X42448Y519134D01*
X42387Y519230D01*
X42298Y519329D01*
X42217Y519435D01*
X42134Y519513D01*
X42058Y519598D01*
X41955Y519682D01*
X41858Y519773D01*
X41763Y519836D01*
X41674Y519908D01*
X41559Y519974D01*
X41448Y520048D01*
X41345Y520096D01*
X41246Y520152D01*
X41121Y520198D01*
X41000Y520254D01*
X40890Y520284D01*
X40783Y520323D01*
X40653Y520349D01*
X40524Y520384D01*
X40411Y520396D01*
X40299Y520418D01*
X40166Y520422D01*
X40034Y520436D01*
X39920Y520430D01*
X39806Y520434D01*
X39674Y520416D01*
X39541Y520409D01*
X39430Y520384D01*
X39317Y520369D01*
X39189Y520331D01*
X39059Y520302D01*
X38982Y520268D01*
X38845Y520227D01*
X38494Y520055D01*
X38434Y520029D01*
X36382Y518844D01*
X29983Y517129D01*
X23357Y517129D01*
X16958Y518844D01*
X14732Y520130D01*
X14611Y520186D01*
X14496Y520252D01*
X14389Y520292D01*
X14286Y520341D01*
X14158Y520378D01*
X14033Y520424D01*
X13921Y520446D01*
X13812Y520477D01*
X13679Y520493D01*
X13549Y520519D01*
X13435Y520522D01*
X13322Y520536D01*
X13189Y520530D01*
X13056Y520534D01*
X12943Y520519D01*
X12829Y520514D01*
X12699Y520487D01*
X12567Y520470D01*
X12458Y520437D01*
X12346Y520413D01*
X12222Y520366D01*
X12094Y520327D01*
X11992Y520277D01*
X11886Y520236D01*
X11771Y520169D01*
X11651Y520110D01*
X11558Y520044D01*
X11460Y519987D01*
X11358Y519902D01*
X11249Y519825D01*
X11168Y519745D01*
X11080Y519672D01*
X10993Y519572D01*
X10898Y519478D01*
X10831Y519386D01*
X10756Y519300D01*
X10686Y519187D01*
X10608Y519079D01*
X10556Y518977D01*
X10496Y518881D01*
X10445Y518758D01*
X10385Y518639D01*
X10351Y518530D01*
X10307Y518425D01*
X10277Y518295D01*
X10237Y518168D01*
X10228Y518085D01*
X10195Y517945D01*
X10168Y517556D01*
X10161Y517491D01*
X10161Y56013D01*
X10172Y55880D01*
X10172Y55747D01*
X10191Y55635D01*
X10201Y55521D01*
X10233Y55392D01*
X10255Y55261D01*
X10292Y55153D01*
X10319Y55042D01*
X10372Y54920D01*
X10415Y54794D01*
X10469Y54694D01*
X10514Y54589D01*
X10585Y54476D01*
X10648Y54359D01*
X10718Y54269D01*
X10779Y54173D01*
X10868Y54074D01*
X10949Y53968D01*
X11032Y53890D01*
X11108Y53805D01*
X11211Y53721D01*
X11308Y53630D01*
X11403Y53566D01*
X11492Y53495D01*
X11607Y53429D01*
X11718Y53355D01*
X11821Y53307D01*
X11920Y53251D01*
X12045Y53205D01*
X12166Y53149D01*
X12276Y53119D01*
X12383Y53079D01*
X12513Y53054D01*
X12642Y53019D01*
X12755Y53006D01*
X12867Y52985D01*
X13000Y52980D01*
X13132Y52966D01*
X13246Y52973D01*
X13360Y52969D01*
X13492Y52987D01*
X13625Y52994D01*
X13736Y53019D01*
X13849Y53034D01*
X13977Y53072D01*
X14107Y53101D01*
X14184Y53135D01*
X14321Y53176D01*
X14671Y53347D01*
X14732Y53374D01*
X15688Y53926D01*
X22087Y55641D01*
X28713Y55641D01*
X35112Y53926D01*
X40849Y50614D01*
X45534Y45929D01*
X48846Y40192D01*
X50561Y33793D01*
X50561Y27167D01*
X48846Y20768D01*
X45361Y14732D01*
X45304Y14611D01*
X45238Y14496D01*
X45198Y14389D01*
X45149Y14286D01*
X45113Y14158D01*
X45066Y14033D01*
X45045Y13921D01*
X45013Y13812D01*
X44997Y13679D01*
X44972Y13549D01*
X44968Y13435D01*
X44955Y13322D01*
X44960Y13189D01*
X44956Y13056D01*
X44971Y12943D01*
X44976Y12829D01*
X45003Y12699D01*
X45021Y12567D01*
X45054Y12458D01*
X45077Y12346D01*
X45125Y12222D01*
X45163Y12094D01*
X45213Y11992D01*
X45254Y11886D01*
X45322Y11771D01*
X45380Y11651D01*
X45446Y11559D01*
X45504Y11460D01*
X45589Y11358D01*
X45666Y11249D01*
X45746Y11168D01*
X45818Y11080D01*
X45919Y10993D01*
X46012Y10898D01*
X46104Y10831D01*
X46190Y10756D01*
X46304Y10686D01*
X46411Y10608D01*
X46513Y10556D01*
X46610Y10496D01*
X46733Y10445D01*
X46852Y10385D01*
X46960Y10351D01*
X47066Y10307D01*
X47195Y10277D01*
X47322Y10237D01*
X47406Y10228D01*
X47546Y10195D01*
X47935Y10168D01*
X48000Y10161D01*
X609127Y10161D01*
X609259Y10171D01*
G37*
%LPC*%
G36*
X250992Y61079D02*
X250992Y61079D01*
X245435Y63381D01*
X203081Y105735D01*
X200779Y111292D01*
X200779Y152714D01*
X200776Y152752D01*
X200778Y152790D01*
X200756Y152998D01*
X200739Y153206D01*
X200730Y153243D01*
X200726Y153281D01*
X200671Y153482D01*
X200621Y153685D01*
X200606Y153720D01*
X200595Y153757D01*
X200508Y153946D01*
X200426Y154138D01*
X200406Y154170D01*
X200390Y154205D01*
X200273Y154378D01*
X200161Y154554D01*
X200136Y154583D01*
X200114Y154614D01*
X199972Y154766D01*
X199832Y154922D01*
X199803Y154946D01*
X199776Y154974D01*
X199611Y155101D01*
X199448Y155232D01*
X199415Y155251D01*
X199385Y155274D01*
X199201Y155373D01*
X199020Y155476D01*
X198984Y155489D01*
X198950Y155507D01*
X198753Y155575D01*
X198557Y155648D01*
X198520Y155655D01*
X198484Y155667D01*
X198278Y155702D01*
X198073Y155742D01*
X198035Y155743D01*
X197997Y155750D01*
X197788Y155751D01*
X197580Y155758D01*
X197542Y155753D01*
X197504Y155753D01*
X197297Y155720D01*
X197091Y155693D01*
X197054Y155682D01*
X197017Y155676D01*
X196819Y155611D01*
X196619Y155551D01*
X196584Y155534D01*
X196548Y155522D01*
X196363Y155426D01*
X196175Y155334D01*
X196144Y155312D01*
X196110Y155294D01*
X196038Y155236D01*
X195773Y155048D01*
X195651Y154927D01*
X195577Y154869D01*
X195109Y154401D01*
X190470Y152479D01*
X149890Y152479D01*
X147997Y153263D01*
X147987Y153266D01*
X147979Y153271D01*
X147752Y153342D01*
X147527Y153415D01*
X147525Y153415D01*
X147334Y153530D01*
X147213Y153579D01*
X147144Y153617D01*
X145251Y154401D01*
X141701Y157951D01*
X140917Y159844D01*
X140912Y159852D01*
X140909Y159862D01*
X140799Y160073D01*
X140692Y160283D01*
X140686Y160291D01*
X140681Y160299D01*
X140656Y160331D01*
X140399Y160680D01*
X140305Y160771D01*
X140256Y160832D01*
X140115Y160973D01*
X140057Y161022D01*
X140005Y161078D01*
X139869Y161182D01*
X139739Y161293D01*
X139674Y161332D01*
X139614Y161378D01*
X139463Y161459D01*
X139317Y161547D01*
X139246Y161576D01*
X139179Y161612D01*
X139017Y161667D01*
X138859Y161730D01*
X138784Y161747D01*
X138712Y161772D01*
X138544Y161800D01*
X138377Y161837D01*
X138301Y161841D01*
X138226Y161854D01*
X138055Y161855D01*
X137884Y161865D01*
X137809Y161857D01*
X137732Y161857D01*
X137563Y161831D01*
X137394Y161813D01*
X137321Y161792D01*
X137245Y161781D01*
X137083Y161727D01*
X136918Y161682D01*
X136849Y161650D01*
X136777Y161626D01*
X136625Y161547D01*
X136470Y161476D01*
X136407Y161434D01*
X136339Y161398D01*
X136257Y161333D01*
X136060Y161201D01*
X135888Y161039D01*
X135806Y160973D01*
X130788Y155955D01*
X130047Y155955D01*
X130047Y165100D01*
X130047Y174245D01*
X130788Y174245D01*
X135806Y169227D01*
X135864Y169177D01*
X135916Y169122D01*
X136051Y169018D01*
X136182Y168907D01*
X136247Y168868D01*
X136307Y168822D01*
X136458Y168741D01*
X136604Y168653D01*
X136675Y168624D01*
X136742Y168588D01*
X136904Y168533D01*
X137062Y168470D01*
X137137Y168453D01*
X137209Y168428D01*
X137377Y168400D01*
X137544Y168363D01*
X137620Y168359D01*
X137695Y168346D01*
X137866Y168345D01*
X138037Y168335D01*
X138112Y168343D01*
X138189Y168343D01*
X138357Y168369D01*
X138527Y168387D01*
X138600Y168408D01*
X138676Y168419D01*
X138838Y168473D01*
X139003Y168518D01*
X139072Y168550D01*
X139144Y168574D01*
X139296Y168653D01*
X139451Y168724D01*
X139515Y168766D01*
X139582Y168802D01*
X139664Y168867D01*
X139861Y168999D01*
X140033Y169161D01*
X140115Y169227D01*
X140256Y169368D01*
X140262Y169375D01*
X140270Y169381D01*
X140423Y169564D01*
X140576Y169744D01*
X140581Y169752D01*
X140587Y169759D01*
X140606Y169794D01*
X140830Y170166D01*
X140879Y170287D01*
X140917Y170356D01*
X141701Y172249D01*
X145251Y175799D01*
X147144Y176583D01*
X147153Y176588D01*
X147162Y176591D01*
X147373Y176701D01*
X147583Y176808D01*
X147584Y176810D01*
X147801Y176863D01*
X147921Y176915D01*
X147997Y176937D01*
X149890Y177721D01*
X181470Y177721D01*
X181584Y177730D01*
X181698Y177729D01*
X181830Y177750D01*
X181962Y177761D01*
X182073Y177788D01*
X182185Y177806D01*
X182312Y177847D01*
X182441Y177879D01*
X182546Y177924D01*
X182654Y177960D01*
X182772Y178022D01*
X182894Y178074D01*
X182990Y178135D01*
X183092Y178188D01*
X183165Y178247D01*
X183310Y178339D01*
X183552Y178555D01*
X183625Y178613D01*
X184621Y179609D01*
X186514Y180393D01*
X186523Y180398D01*
X186532Y180401D01*
X186743Y180511D01*
X186953Y180618D01*
X186954Y180620D01*
X187171Y180673D01*
X187291Y180725D01*
X187367Y180747D01*
X189260Y181531D01*
X194280Y181531D01*
X196173Y180747D01*
X196183Y180744D01*
X196191Y180739D01*
X196418Y180668D01*
X196643Y180595D01*
X196652Y180594D01*
X196662Y180591D01*
X196702Y180587D01*
X197131Y180522D01*
X197261Y180524D01*
X197339Y180515D01*
X197732Y180515D01*
X197808Y180521D01*
X197884Y180519D01*
X198053Y180541D01*
X198224Y180555D01*
X198298Y180573D01*
X198373Y180583D01*
X198537Y180632D01*
X198703Y180673D01*
X198772Y180703D01*
X198846Y180725D01*
X198999Y180801D01*
X199156Y180868D01*
X199220Y180909D01*
X199289Y180942D01*
X199428Y181041D01*
X199572Y181133D01*
X199629Y181184D01*
X199691Y181228D01*
X199812Y181348D01*
X199940Y181462D01*
X199988Y181521D01*
X200042Y181575D01*
X200143Y181713D01*
X200250Y181846D01*
X200287Y181912D01*
X200332Y181973D01*
X200409Y182126D01*
X200494Y182274D01*
X200520Y182346D01*
X200555Y182414D01*
X200606Y182577D01*
X200665Y182737D01*
X200680Y182812D01*
X200703Y182884D01*
X200715Y182989D01*
X200760Y183221D01*
X200767Y183457D01*
X200779Y183562D01*
X200779Y211910D01*
X200770Y212024D01*
X200771Y212138D01*
X200750Y212270D01*
X200739Y212402D01*
X200712Y212513D01*
X200694Y212625D01*
X200653Y212752D01*
X200621Y212881D01*
X200576Y212986D01*
X200540Y213094D01*
X200478Y213212D01*
X200426Y213334D01*
X200365Y213430D01*
X200312Y213532D01*
X200253Y213605D01*
X200161Y213750D01*
X199945Y213992D01*
X199887Y214065D01*
X182415Y231537D01*
X182386Y231561D01*
X182360Y231590D01*
X182198Y231721D01*
X182039Y231856D01*
X182006Y231876D01*
X181976Y231900D01*
X181796Y232003D01*
X181616Y232111D01*
X181581Y232125D01*
X181548Y232144D01*
X181352Y232217D01*
X181158Y232294D01*
X181121Y232302D01*
X181085Y232316D01*
X180880Y232356D01*
X180676Y232401D01*
X180638Y232403D01*
X180601Y232410D01*
X180393Y232417D01*
X180184Y232428D01*
X180146Y232424D01*
X180108Y232426D01*
X179901Y232398D01*
X179693Y232376D01*
X179657Y232366D01*
X179619Y232361D01*
X179419Y232301D01*
X179218Y232246D01*
X179183Y232230D01*
X179146Y232219D01*
X178959Y232127D01*
X178769Y232040D01*
X178737Y232019D01*
X178703Y232002D01*
X178534Y231881D01*
X178360Y231765D01*
X178332Y231738D01*
X178301Y231716D01*
X178153Y231570D01*
X178000Y231427D01*
X177977Y231396D01*
X177950Y231370D01*
X177827Y231201D01*
X177700Y231035D01*
X177682Y231002D01*
X177660Y230971D01*
X177566Y230785D01*
X177467Y230601D01*
X177454Y230564D01*
X177437Y230530D01*
X177375Y230332D01*
X177307Y230134D01*
X177301Y230096D01*
X177289Y230060D01*
X177279Y229968D01*
X177224Y229647D01*
X177223Y229475D01*
X177213Y229382D01*
X177213Y226292D01*
X175446Y222026D01*
X172182Y218762D01*
X167903Y216990D01*
X167747Y216969D01*
X167576Y216955D01*
X167502Y216937D01*
X167427Y216927D01*
X167263Y216878D01*
X167097Y216837D01*
X167028Y216807D01*
X166954Y216785D01*
X166801Y216709D01*
X166644Y216642D01*
X166580Y216601D01*
X166511Y216568D01*
X166372Y216469D01*
X166228Y216377D01*
X166171Y216326D01*
X166109Y216282D01*
X165988Y216162D01*
X165860Y216048D01*
X165812Y215989D01*
X165758Y215935D01*
X165657Y215797D01*
X165550Y215664D01*
X165513Y215598D01*
X165468Y215537D01*
X165391Y215384D01*
X165306Y215236D01*
X165280Y215164D01*
X165245Y215096D01*
X165194Y214933D01*
X165135Y214773D01*
X165120Y214698D01*
X165097Y214626D01*
X165085Y214521D01*
X165040Y214289D01*
X165033Y214053D01*
X165021Y213948D01*
X165021Y213390D01*
X163099Y208751D01*
X146849Y192501D01*
X142210Y190579D01*
X120790Y190579D01*
X120676Y190570D01*
X120562Y190571D01*
X120430Y190550D01*
X120298Y190539D01*
X120187Y190512D01*
X120075Y190494D01*
X119948Y190453D01*
X119819Y190421D01*
X119714Y190376D01*
X119606Y190340D01*
X119488Y190278D01*
X119366Y190226D01*
X119270Y190165D01*
X119168Y190112D01*
X119095Y190053D01*
X118950Y189961D01*
X118708Y189745D01*
X118635Y189687D01*
X102413Y173465D01*
X102339Y173378D01*
X102258Y173298D01*
X102180Y173190D01*
X102094Y173089D01*
X102035Y172991D01*
X101968Y172899D01*
X101908Y172780D01*
X101839Y172666D01*
X101797Y172560D01*
X101745Y172458D01*
X101705Y172332D01*
X101656Y172208D01*
X101631Y172097D01*
X101597Y171988D01*
X101587Y171894D01*
X101549Y171727D01*
X101531Y171402D01*
X101521Y171310D01*
X101521Y158890D01*
X101530Y158776D01*
X101529Y158662D01*
X101550Y158530D01*
X101561Y158398D01*
X101588Y158287D01*
X101606Y158175D01*
X101647Y158048D01*
X101679Y157919D01*
X101724Y157814D01*
X101760Y157706D01*
X101822Y157588D01*
X101874Y157466D01*
X101935Y157370D01*
X101988Y157268D01*
X102047Y157195D01*
X102139Y157050D01*
X102355Y156808D01*
X102413Y156735D01*
X124999Y134149D01*
X126921Y129510D01*
X126921Y67585D01*
X126159Y65747D01*
X124753Y64341D01*
X122915Y63579D01*
X105685Y63579D01*
X103847Y64341D01*
X103755Y64433D01*
X103697Y64482D01*
X103644Y64538D01*
X103509Y64642D01*
X103379Y64753D01*
X103314Y64792D01*
X103253Y64838D01*
X103103Y64919D01*
X102956Y65007D01*
X102885Y65036D01*
X102818Y65072D01*
X102657Y65127D01*
X102498Y65190D01*
X102424Y65207D01*
X102352Y65232D01*
X102183Y65260D01*
X102016Y65297D01*
X101940Y65301D01*
X101865Y65314D01*
X101695Y65315D01*
X101524Y65325D01*
X101448Y65317D01*
X101372Y65317D01*
X101203Y65291D01*
X101033Y65273D01*
X100960Y65252D01*
X100885Y65240D01*
X100722Y65187D01*
X100558Y65142D01*
X100488Y65110D01*
X100416Y65086D01*
X100265Y65007D01*
X100109Y64936D01*
X100046Y64893D01*
X99978Y64858D01*
X99896Y64793D01*
X99700Y64661D01*
X99527Y64499D01*
X99445Y64433D01*
X99353Y64341D01*
X97515Y63579D01*
X80285Y63579D01*
X78447Y64341D01*
X77041Y65747D01*
X76279Y67585D01*
X76279Y107810D01*
X76270Y107924D01*
X76271Y108038D01*
X76250Y108170D01*
X76239Y108302D01*
X76212Y108413D01*
X76194Y108526D01*
X76153Y108652D01*
X76121Y108781D01*
X76076Y108886D01*
X76040Y108994D01*
X75978Y109112D01*
X75926Y109234D01*
X75865Y109330D01*
X75812Y109432D01*
X75753Y109505D01*
X75661Y109650D01*
X75445Y109892D01*
X75387Y109965D01*
X31380Y153972D01*
X27401Y157951D01*
X25479Y162590D01*
X25479Y370810D01*
X27401Y375449D01*
X31379Y379428D01*
X31380Y379428D01*
X52372Y400420D01*
X52372Y400421D01*
X56351Y404399D01*
X60990Y406321D01*
X107810Y406321D01*
X107924Y406330D01*
X108038Y406329D01*
X108170Y406350D01*
X108302Y406361D01*
X108413Y406388D01*
X108526Y406406D01*
X108652Y406447D01*
X108781Y406479D01*
X108886Y406524D01*
X108994Y406560D01*
X109112Y406622D01*
X109234Y406674D01*
X109330Y406735D01*
X109432Y406788D01*
X109505Y406847D01*
X109650Y406939D01*
X109892Y407155D01*
X109965Y407213D01*
X126187Y423435D01*
X126261Y423522D01*
X126342Y423602D01*
X126420Y423710D01*
X126506Y423811D01*
X126565Y423909D01*
X126632Y424001D01*
X126692Y424120D01*
X126761Y424234D01*
X126803Y424340D01*
X126855Y424442D01*
X126895Y424568D01*
X126944Y424692D01*
X126969Y424803D01*
X127003Y424912D01*
X127013Y425006D01*
X127051Y425173D01*
X127069Y425497D01*
X127079Y425590D01*
X127079Y434310D01*
X129001Y438949D01*
X130629Y440577D01*
X130678Y440636D01*
X130734Y440688D01*
X130838Y440823D01*
X130949Y440953D01*
X130988Y441019D01*
X131034Y441079D01*
X131115Y441230D01*
X131203Y441376D01*
X131231Y441447D01*
X131267Y441514D01*
X131323Y441676D01*
X131386Y441834D01*
X131403Y441908D01*
X131427Y441981D01*
X131456Y442149D01*
X131493Y442316D01*
X131497Y442392D01*
X131510Y442467D01*
X131511Y442638D01*
X131521Y442808D01*
X131513Y442884D01*
X131513Y442960D01*
X131487Y443129D01*
X131468Y443299D01*
X131448Y443372D01*
X131436Y443448D01*
X131383Y443610D01*
X131338Y443775D01*
X131306Y443844D01*
X131282Y443916D01*
X131203Y444068D01*
X131132Y444223D01*
X131090Y444286D01*
X131054Y444354D01*
X130989Y444436D01*
X130857Y444632D01*
X130695Y444805D01*
X130629Y444887D01*
X126881Y448635D01*
X124579Y454192D01*
X124579Y460208D01*
X126881Y465765D01*
X131135Y470019D01*
X136692Y472321D01*
X164311Y472321D01*
X164349Y472324D01*
X164387Y472322D01*
X164595Y472344D01*
X164803Y472361D01*
X164840Y472370D01*
X164878Y472374D01*
X165079Y472429D01*
X165282Y472479D01*
X165317Y472494D01*
X165353Y472505D01*
X165543Y472591D01*
X165735Y472674D01*
X165767Y472694D01*
X165802Y472710D01*
X165975Y472827D01*
X166151Y472939D01*
X166179Y472964D01*
X166211Y472986D01*
X166363Y473129D01*
X166519Y473268D01*
X166543Y473297D01*
X166571Y473324D01*
X166698Y473489D01*
X166829Y473652D01*
X166848Y473685D01*
X166871Y473715D01*
X166970Y473899D01*
X167073Y474080D01*
X167086Y474116D01*
X167104Y474150D01*
X167172Y474347D01*
X167244Y474543D01*
X167252Y474580D01*
X167264Y474616D01*
X167299Y474822D01*
X167339Y475027D01*
X167340Y475065D01*
X167347Y475103D01*
X167348Y475312D01*
X167354Y475520D01*
X167349Y475558D01*
X167350Y475596D01*
X167317Y475803D01*
X167290Y476009D01*
X167279Y476046D01*
X167273Y476083D01*
X167208Y476281D01*
X167148Y476481D01*
X167131Y476516D01*
X167119Y476552D01*
X167023Y476737D01*
X166931Y476925D01*
X166909Y476956D01*
X166891Y476990D01*
X166833Y477062D01*
X166645Y477327D01*
X166524Y477449D01*
X166466Y477523D01*
X166195Y477793D01*
X166195Y487407D01*
X172993Y494205D01*
X182607Y494205D01*
X189405Y487407D01*
X189405Y477793D01*
X186152Y474541D01*
X186103Y474483D01*
X186048Y474431D01*
X185944Y474295D01*
X185833Y474165D01*
X185794Y474100D01*
X185747Y474039D01*
X185667Y473889D01*
X185578Y473742D01*
X185550Y473672D01*
X185514Y473605D01*
X185459Y473443D01*
X185395Y473284D01*
X185379Y473210D01*
X185354Y473138D01*
X185325Y472969D01*
X185289Y472803D01*
X185284Y472727D01*
X185272Y472652D01*
X185270Y472481D01*
X185261Y472310D01*
X185269Y472234D01*
X185268Y472158D01*
X185295Y471989D01*
X185313Y471820D01*
X185333Y471746D01*
X185345Y471671D01*
X185399Y471508D01*
X185444Y471344D01*
X185476Y471275D01*
X185499Y471202D01*
X185578Y471051D01*
X185649Y470895D01*
X185692Y470832D01*
X185727Y470765D01*
X185793Y470682D01*
X185925Y470486D01*
X186087Y470314D01*
X186152Y470231D01*
X228719Y427665D01*
X231021Y422108D01*
X231021Y121825D01*
X231030Y121712D01*
X231029Y121597D01*
X231050Y121466D01*
X231061Y121334D01*
X231088Y121223D01*
X231106Y121110D01*
X231147Y120984D01*
X231179Y120855D01*
X231224Y120750D01*
X231260Y120641D01*
X231322Y120524D01*
X231374Y120401D01*
X231435Y120305D01*
X231488Y120204D01*
X231547Y120130D01*
X231639Y119985D01*
X231855Y119743D01*
X231913Y119671D01*
X259371Y92213D01*
X259458Y92139D01*
X259538Y92058D01*
X259645Y91980D01*
X259747Y91894D01*
X259845Y91835D01*
X259937Y91768D01*
X260055Y91708D01*
X260169Y91639D01*
X260275Y91597D01*
X260377Y91545D01*
X260504Y91505D01*
X260627Y91456D01*
X260739Y91431D01*
X260848Y91397D01*
X260941Y91387D01*
X261109Y91349D01*
X261433Y91331D01*
X261525Y91321D01*
X340674Y91321D01*
X340712Y91324D01*
X340750Y91322D01*
X340958Y91344D01*
X341166Y91361D01*
X341203Y91370D01*
X341241Y91374D01*
X341442Y91429D01*
X341645Y91479D01*
X341680Y91494D01*
X341717Y91505D01*
X341907Y91592D01*
X342098Y91674D01*
X342130Y91694D01*
X342165Y91710D01*
X342338Y91827D01*
X342514Y91939D01*
X342543Y91964D01*
X342574Y91986D01*
X342726Y92129D01*
X342882Y92268D01*
X342906Y92297D01*
X342934Y92323D01*
X343061Y92489D01*
X343192Y92652D01*
X343211Y92685D01*
X343234Y92715D01*
X343333Y92899D01*
X343436Y93080D01*
X343449Y93116D01*
X343467Y93150D01*
X343535Y93347D01*
X343608Y93543D01*
X343615Y93580D01*
X343627Y93616D01*
X343662Y93823D01*
X343702Y94027D01*
X343703Y94065D01*
X343710Y94103D01*
X343711Y94312D01*
X343718Y94520D01*
X343713Y94558D01*
X343713Y94596D01*
X343680Y94803D01*
X343653Y95009D01*
X343642Y95046D01*
X343636Y95083D01*
X343571Y95281D01*
X343511Y95481D01*
X343494Y95516D01*
X343482Y95552D01*
X343385Y95737D01*
X343294Y95925D01*
X343272Y95956D01*
X343254Y95990D01*
X343196Y96062D01*
X343008Y96327D01*
X342887Y96449D01*
X342829Y96523D01*
X313165Y126187D01*
X313078Y126261D01*
X312998Y126342D01*
X312890Y126420D01*
X312789Y126506D01*
X312691Y126565D01*
X312599Y126632D01*
X312480Y126692D01*
X312366Y126761D01*
X312260Y126803D01*
X312158Y126855D01*
X312032Y126895D01*
X311908Y126944D01*
X311797Y126969D01*
X311688Y127003D01*
X311594Y127013D01*
X311427Y127051D01*
X311102Y127069D01*
X311010Y127079D01*
X298703Y127079D01*
X298589Y127070D01*
X298475Y127071D01*
X298344Y127050D01*
X298211Y127039D01*
X298101Y127012D01*
X297988Y126994D01*
X297861Y126953D01*
X297732Y126921D01*
X297628Y126876D01*
X297519Y126840D01*
X297401Y126778D01*
X297279Y126726D01*
X297183Y126665D01*
X297081Y126612D01*
X297008Y126553D01*
X296863Y126461D01*
X296621Y126245D01*
X296548Y126187D01*
X286594Y116233D01*
X284508Y115369D01*
X284500Y115364D01*
X284490Y115361D01*
X284290Y115257D01*
X284208Y115237D01*
X284088Y115185D01*
X284012Y115163D01*
X281926Y114299D01*
X276874Y114299D01*
X274788Y115163D01*
X274778Y115166D01*
X274770Y115171D01*
X274554Y115239D01*
X274482Y115282D01*
X274360Y115331D01*
X274292Y115369D01*
X272206Y116233D01*
X268633Y119806D01*
X267769Y121892D01*
X267764Y121900D01*
X267761Y121910D01*
X267657Y122110D01*
X267637Y122192D01*
X267585Y122312D01*
X267563Y122388D01*
X266699Y124474D01*
X266699Y129526D01*
X267563Y131612D01*
X267566Y131622D01*
X267571Y131630D01*
X267639Y131846D01*
X267682Y131918D01*
X267731Y132040D01*
X267769Y132108D01*
X268633Y134194D01*
X284740Y150302D01*
X284790Y150360D01*
X284845Y150412D01*
X284949Y150548D01*
X285060Y150678D01*
X285099Y150743D01*
X285145Y150803D01*
X285226Y150954D01*
X285314Y151100D01*
X285343Y151171D01*
X285379Y151238D01*
X285434Y151400D01*
X285497Y151558D01*
X285514Y151633D01*
X285539Y151705D01*
X285567Y151874D01*
X285604Y152040D01*
X285609Y152116D01*
X285621Y152191D01*
X285622Y152362D01*
X285632Y152533D01*
X285624Y152608D01*
X285624Y152685D01*
X285598Y152854D01*
X285580Y153023D01*
X285560Y153097D01*
X285548Y153172D01*
X285494Y153334D01*
X285449Y153499D01*
X285417Y153568D01*
X285393Y153641D01*
X285315Y153792D01*
X285243Y153947D01*
X285201Y154011D01*
X285166Y154078D01*
X285100Y154160D01*
X284968Y154357D01*
X284806Y154529D01*
X284740Y154611D01*
X272680Y166672D01*
X268701Y170651D01*
X266779Y175290D01*
X266779Y189710D01*
X266778Y189720D01*
X266779Y189730D01*
X266759Y189965D01*
X266739Y190202D01*
X266737Y190211D01*
X266736Y190221D01*
X266725Y190259D01*
X266621Y190681D01*
X266569Y190801D01*
X266547Y190876D01*
X266017Y192156D01*
X266017Y214244D01*
X268055Y219163D01*
X271819Y222927D01*
X276738Y224965D01*
X282062Y224965D01*
X285466Y223555D01*
X285637Y223500D01*
X285807Y223437D01*
X285872Y223424D01*
X285935Y223404D01*
X286114Y223377D01*
X286291Y223342D01*
X286357Y223340D01*
X286423Y223330D01*
X286604Y223332D01*
X286784Y223327D01*
X286850Y223335D01*
X286917Y223336D01*
X287094Y223367D01*
X287273Y223391D01*
X287337Y223410D01*
X287402Y223422D01*
X287572Y223481D01*
X287746Y223534D01*
X287805Y223563D01*
X287868Y223585D01*
X288026Y223671D01*
X288189Y223750D01*
X288243Y223789D01*
X288301Y223821D01*
X288444Y223931D01*
X288591Y224036D01*
X288638Y224083D01*
X288691Y224123D01*
X288814Y224256D01*
X288942Y224383D01*
X288981Y224436D01*
X289026Y224485D01*
X289126Y224636D01*
X289232Y224781D01*
X289262Y224841D01*
X289299Y224896D01*
X289373Y225061D01*
X289455Y225222D01*
X289475Y225285D01*
X289502Y225346D01*
X289549Y225520D01*
X289603Y225692D01*
X289609Y225745D01*
X289630Y225822D01*
X289679Y226313D01*
X289677Y226347D01*
X289679Y226370D01*
X289679Y282408D01*
X291981Y287965D01*
X352287Y348271D01*
X352361Y348358D01*
X352442Y348438D01*
X352520Y348545D01*
X352606Y348647D01*
X352665Y348745D01*
X352732Y348837D01*
X352792Y348955D01*
X352861Y349069D01*
X352903Y349175D01*
X352955Y349277D01*
X352995Y349404D01*
X353044Y349527D01*
X353069Y349639D01*
X353103Y349748D01*
X353113Y349841D01*
X353151Y350009D01*
X353169Y350333D01*
X353179Y350425D01*
X353179Y389985D01*
X353170Y390098D01*
X353171Y390213D01*
X353150Y390344D01*
X353139Y390476D01*
X353112Y390587D01*
X353094Y390700D01*
X353053Y390826D01*
X353021Y390955D01*
X352976Y391060D01*
X352940Y391169D01*
X352878Y391286D01*
X352826Y391409D01*
X352765Y391505D01*
X352712Y391606D01*
X352653Y391680D01*
X352561Y391825D01*
X352345Y392067D01*
X352287Y392139D01*
X349724Y394702D01*
X349579Y394825D01*
X349439Y394953D01*
X349392Y394985D01*
X349348Y395022D01*
X349185Y395120D01*
X349026Y395224D01*
X348974Y395247D01*
X348925Y395276D01*
X348749Y395347D01*
X348576Y395424D01*
X348520Y395438D01*
X348467Y395459D01*
X348282Y395500D01*
X348098Y395548D01*
X348042Y395554D01*
X347986Y395566D01*
X347796Y395577D01*
X347607Y395594D01*
X347550Y395590D01*
X347493Y395594D01*
X347304Y395574D01*
X347115Y395561D01*
X347059Y395548D01*
X347003Y395541D01*
X346819Y395491D01*
X346635Y395448D01*
X346582Y395426D01*
X346527Y395411D01*
X346354Y395332D01*
X346179Y395259D01*
X346130Y395229D01*
X346078Y395205D01*
X345921Y395099D01*
X345759Y394999D01*
X345716Y394962D01*
X345669Y394930D01*
X345531Y394800D01*
X345388Y394675D01*
X345351Y394631D01*
X345310Y394592D01*
X345194Y394441D01*
X345073Y394295D01*
X345044Y394246D01*
X345009Y394200D01*
X344919Y394033D01*
X344824Y393869D01*
X344803Y393816D01*
X344776Y393766D01*
X344714Y393586D01*
X344646Y393409D01*
X344635Y393353D01*
X344616Y393299D01*
X344584Y393112D01*
X344546Y392926D01*
X344543Y392869D01*
X344534Y392813D01*
X344532Y392622D01*
X344524Y392433D01*
X344531Y392388D01*
X344530Y392319D01*
X344607Y391832D01*
X344621Y391789D01*
X344626Y391759D01*
X346711Y383978D01*
X346711Y372942D01*
X343855Y362283D01*
X338337Y352726D01*
X330534Y344923D01*
X320977Y339405D01*
X310318Y336549D01*
X299282Y336549D01*
X288623Y339405D01*
X279066Y344923D01*
X271263Y352726D01*
X265745Y362283D01*
X262889Y372942D01*
X262889Y383978D01*
X265745Y394637D01*
X271263Y404194D01*
X279066Y411997D01*
X288623Y417515D01*
X299282Y420371D01*
X310318Y420371D01*
X318099Y418286D01*
X318285Y418252D01*
X318471Y418211D01*
X318528Y418207D01*
X318584Y418197D01*
X318774Y418194D01*
X318963Y418183D01*
X319020Y418189D01*
X319077Y418188D01*
X319266Y418215D01*
X319454Y418235D01*
X319509Y418250D01*
X319566Y418258D01*
X319747Y418315D01*
X319930Y418366D01*
X319982Y418390D01*
X320036Y418407D01*
X320205Y418492D01*
X320378Y418571D01*
X320425Y418603D01*
X320476Y418629D01*
X320630Y418741D01*
X320787Y418847D01*
X320829Y418886D01*
X320875Y418920D01*
X321008Y419055D01*
X321147Y419185D01*
X321182Y419230D01*
X321222Y419271D01*
X321332Y419425D01*
X321447Y419576D01*
X321474Y419626D01*
X321507Y419673D01*
X321591Y419844D01*
X321680Y420011D01*
X321699Y420065D01*
X321724Y420116D01*
X321779Y420298D01*
X321840Y420478D01*
X321850Y420534D01*
X321867Y420588D01*
X321891Y420777D01*
X321923Y420964D01*
X321923Y421021D01*
X321931Y421078D01*
X321925Y421267D01*
X321926Y421457D01*
X321917Y421514D01*
X321915Y421571D01*
X321879Y421757D01*
X321849Y421945D01*
X321832Y421999D01*
X321821Y422055D01*
X321755Y422232D01*
X321695Y422413D01*
X321669Y422464D01*
X321649Y422517D01*
X321555Y422682D01*
X321467Y422851D01*
X321439Y422887D01*
X321405Y422946D01*
X321095Y423330D01*
X321061Y423360D01*
X321042Y423384D01*
X279281Y465145D01*
X278918Y466021D01*
X278914Y466030D01*
X278911Y466039D01*
X278801Y466249D01*
X278693Y466460D01*
X278687Y466468D01*
X278683Y466477D01*
X278658Y466508D01*
X278400Y466857D01*
X278307Y466948D01*
X278258Y467010D01*
X277574Y467693D01*
X277574Y468660D01*
X277573Y468669D01*
X277574Y468679D01*
X277554Y468915D01*
X277534Y469151D01*
X277532Y469161D01*
X277531Y469170D01*
X277520Y469209D01*
X277416Y469630D01*
X277364Y469750D01*
X277342Y469826D01*
X276979Y470702D01*
X276979Y476718D01*
X277342Y477594D01*
X277345Y477603D01*
X277350Y477612D01*
X277421Y477839D01*
X277494Y478064D01*
X277495Y478073D01*
X277498Y478083D01*
X277502Y478123D01*
X277567Y478552D01*
X277565Y478682D01*
X277574Y478760D01*
X277574Y479727D01*
X278258Y480410D01*
X278264Y480418D01*
X278271Y480424D01*
X278424Y480606D01*
X278577Y480786D01*
X278582Y480794D01*
X278588Y480802D01*
X278608Y480837D01*
X278832Y481209D01*
X278880Y481330D01*
X278918Y481399D01*
X279281Y482275D01*
X283535Y486529D01*
X284411Y486892D01*
X284420Y486896D01*
X284429Y486899D01*
X284639Y487009D01*
X284850Y487117D01*
X284858Y487123D01*
X284867Y487127D01*
X284898Y487152D01*
X285247Y487410D01*
X285338Y487503D01*
X285400Y487552D01*
X286083Y488236D01*
X287050Y488236D01*
X287059Y488237D01*
X287069Y488236D01*
X287305Y488256D01*
X287541Y488276D01*
X287551Y488278D01*
X287560Y488279D01*
X287599Y488290D01*
X288020Y488394D01*
X288140Y488446D01*
X288216Y488468D01*
X289092Y488831D01*
X295108Y488831D01*
X295984Y488468D01*
X295993Y488465D01*
X296002Y488460D01*
X296229Y488389D01*
X296454Y488316D01*
X296463Y488315D01*
X296473Y488312D01*
X296513Y488308D01*
X296942Y488243D01*
X297072Y488245D01*
X297150Y488236D01*
X298117Y488236D01*
X298800Y487552D01*
X298808Y487546D01*
X298814Y487539D01*
X298996Y487386D01*
X299176Y487233D01*
X299184Y487228D01*
X299192Y487222D01*
X299227Y487202D01*
X299599Y486978D01*
X299720Y486930D01*
X299789Y486892D01*
X300665Y486529D01*
X381119Y406075D01*
X383421Y400518D01*
X383421Y339892D01*
X381119Y334335D01*
X320813Y274029D01*
X320739Y273942D01*
X320658Y273862D01*
X320580Y273755D01*
X320494Y273653D01*
X320435Y273555D01*
X320368Y273463D01*
X320308Y273345D01*
X320239Y273231D01*
X320197Y273125D01*
X320145Y273023D01*
X320105Y272896D01*
X320056Y272773D01*
X320031Y272661D01*
X319997Y272552D01*
X319987Y272459D01*
X319949Y272291D01*
X319931Y271967D01*
X319921Y271875D01*
X319921Y223576D01*
X319925Y223523D01*
X319923Y223470D01*
X319945Y223277D01*
X319961Y223084D01*
X319973Y223033D01*
X319980Y222979D01*
X320033Y222793D01*
X320079Y222605D01*
X320100Y222556D01*
X320115Y222505D01*
X320197Y222330D01*
X320274Y222152D01*
X320303Y222107D01*
X320325Y222059D01*
X320435Y221899D01*
X320539Y221736D01*
X320574Y221696D01*
X320605Y221652D01*
X320739Y221512D01*
X320868Y221368D01*
X320909Y221335D01*
X320946Y221296D01*
X321101Y221180D01*
X321252Y221058D01*
X321298Y221032D01*
X321341Y221000D01*
X321512Y220910D01*
X321680Y220814D01*
X321730Y220796D01*
X321778Y220771D01*
X321961Y220710D01*
X322143Y220643D01*
X322195Y220632D01*
X322246Y220616D01*
X322437Y220585D01*
X322627Y220548D01*
X322680Y220546D01*
X322733Y220538D01*
X322927Y220539D01*
X323120Y220533D01*
X323173Y220539D01*
X323226Y220540D01*
X323418Y220572D01*
X323609Y220597D01*
X323660Y220612D01*
X323713Y220621D01*
X323809Y220657D01*
X324081Y220739D01*
X324258Y220826D01*
X324351Y220861D01*
X326007Y221705D01*
X327153Y222077D01*
X327153Y203200D01*
X327153Y184323D01*
X326007Y184695D01*
X324475Y185476D01*
X323084Y186487D01*
X321869Y187702D01*
X321544Y188148D01*
X321432Y188280D01*
X321326Y188416D01*
X321271Y188466D01*
X321223Y188523D01*
X321091Y188634D01*
X320964Y188752D01*
X320902Y188793D01*
X320846Y188840D01*
X320697Y188929D01*
X320553Y189024D01*
X320485Y189055D01*
X320422Y189093D01*
X320261Y189156D01*
X320103Y189227D01*
X320032Y189247D01*
X319963Y189274D01*
X319794Y189310D01*
X319627Y189355D01*
X319553Y189362D01*
X319481Y189378D01*
X319308Y189387D01*
X319136Y189404D01*
X319062Y189399D01*
X318988Y189403D01*
X318816Y189384D01*
X318643Y189373D01*
X318571Y189357D01*
X318498Y189349D01*
X318331Y189302D01*
X318163Y189263D01*
X318094Y189236D01*
X318023Y189216D01*
X317866Y189143D01*
X317706Y189077D01*
X317642Y189039D01*
X317575Y189008D01*
X317432Y188911D01*
X317285Y188820D01*
X317228Y188772D01*
X317167Y188730D01*
X317042Y188611D01*
X316911Y188498D01*
X316863Y188442D01*
X316809Y188391D01*
X316705Y188253D01*
X316594Y188120D01*
X316566Y188070D01*
X316511Y187998D01*
X316280Y187562D01*
X316272Y187539D01*
X316264Y187523D01*
X316145Y187237D01*
X312381Y183473D01*
X307462Y181435D01*
X302138Y181435D01*
X301739Y181601D01*
X301603Y181644D01*
X301471Y181697D01*
X301369Y181720D01*
X301269Y181752D01*
X301128Y181773D01*
X300989Y181804D01*
X300885Y181810D01*
X300781Y181826D01*
X300639Y181824D01*
X300496Y181832D01*
X300392Y181821D01*
X300288Y181819D01*
X300147Y181795D01*
X300006Y181780D01*
X299905Y181752D01*
X299802Y181734D01*
X299668Y181687D01*
X299530Y181649D01*
X299435Y181605D01*
X299336Y181571D01*
X299211Y181503D01*
X299082Y181443D01*
X298995Y181385D01*
X298903Y181335D01*
X298790Y181247D01*
X298672Y181168D01*
X298596Y181096D01*
X298514Y181032D01*
X298417Y180927D01*
X298313Y180830D01*
X298249Y180747D01*
X298178Y180670D01*
X298099Y180552D01*
X298013Y180439D01*
X297963Y180346D01*
X297905Y180259D01*
X297847Y180129D01*
X297779Y180004D01*
X297745Y179905D01*
X297702Y179810D01*
X297666Y179672D01*
X297619Y179537D01*
X297602Y179434D01*
X297575Y179333D01*
X297561Y179192D01*
X297537Y179051D01*
X297536Y178946D01*
X297526Y178842D01*
X297535Y178700D01*
X297534Y178557D01*
X297550Y178454D01*
X297556Y178350D01*
X297588Y178211D01*
X297610Y178070D01*
X297643Y177971D01*
X297666Y177869D01*
X297720Y177737D01*
X297765Y177601D01*
X297813Y177509D01*
X297852Y177412D01*
X297927Y177290D01*
X297992Y177164D01*
X298041Y177103D01*
X298110Y176991D01*
X298393Y176661D01*
X298418Y176631D01*
X324220Y150828D01*
X328628Y146421D01*
X328628Y146420D01*
X341253Y133795D01*
X341282Y133771D01*
X341308Y133742D01*
X341470Y133611D01*
X341629Y133476D01*
X341662Y133456D01*
X341692Y133432D01*
X341872Y133329D01*
X342052Y133221D01*
X342087Y133207D01*
X342120Y133188D01*
X342316Y133115D01*
X342510Y133038D01*
X342547Y133030D01*
X342583Y133016D01*
X342788Y132976D01*
X342992Y132931D01*
X343030Y132929D01*
X343067Y132922D01*
X343275Y132915D01*
X343484Y132904D01*
X343522Y132908D01*
X343560Y132906D01*
X343767Y132934D01*
X343975Y132956D01*
X344011Y132966D01*
X344049Y132971D01*
X344249Y133031D01*
X344450Y133086D01*
X344485Y133102D01*
X344522Y133113D01*
X344709Y133205D01*
X344899Y133292D01*
X344931Y133313D01*
X344965Y133330D01*
X345135Y133451D01*
X345308Y133568D01*
X345336Y133594D01*
X345367Y133616D01*
X345516Y133762D01*
X345668Y133905D01*
X345691Y133936D01*
X345718Y133962D01*
X345841Y134131D01*
X345968Y134297D01*
X345986Y134330D01*
X346008Y134361D01*
X346102Y134547D01*
X346201Y134731D01*
X346213Y134768D01*
X346231Y134802D01*
X346293Y135001D01*
X346361Y135198D01*
X346367Y135236D01*
X346379Y135272D01*
X346389Y135364D01*
X346444Y135685D01*
X346445Y135857D01*
X346455Y135950D01*
X346455Y136653D01*
X352553Y136653D01*
X352553Y130555D01*
X351850Y130555D01*
X351812Y130552D01*
X351774Y130554D01*
X351566Y130532D01*
X351358Y130515D01*
X351321Y130506D01*
X351283Y130502D01*
X351082Y130447D01*
X350879Y130397D01*
X350844Y130382D01*
X350807Y130371D01*
X350617Y130284D01*
X350426Y130202D01*
X350394Y130182D01*
X350359Y130166D01*
X350186Y130049D01*
X350010Y129937D01*
X349981Y129912D01*
X349950Y129890D01*
X349798Y129748D01*
X349642Y129608D01*
X349618Y129579D01*
X349590Y129553D01*
X349463Y129387D01*
X349332Y129225D01*
X349313Y129191D01*
X349290Y129161D01*
X349191Y128977D01*
X349088Y128796D01*
X349075Y128760D01*
X349057Y128726D01*
X348989Y128529D01*
X348916Y128333D01*
X348909Y128296D01*
X348897Y128260D01*
X348862Y128053D01*
X348822Y127849D01*
X348821Y127811D01*
X348814Y127773D01*
X348813Y127564D01*
X348806Y127356D01*
X348811Y127318D01*
X348811Y127280D01*
X348844Y127074D01*
X348871Y126867D01*
X348882Y126830D01*
X348888Y126793D01*
X348953Y126594D01*
X349013Y126395D01*
X349030Y126360D01*
X349042Y126324D01*
X349138Y126139D01*
X349230Y125951D01*
X349252Y125920D01*
X349270Y125886D01*
X349328Y125814D01*
X349516Y125549D01*
X349637Y125427D01*
X349695Y125353D01*
X378999Y96049D01*
X380921Y91410D01*
X380921Y67585D01*
X380159Y65747D01*
X378753Y64341D01*
X376915Y63579D01*
X359685Y63579D01*
X357847Y64341D01*
X357755Y64433D01*
X357697Y64482D01*
X357644Y64538D01*
X357509Y64642D01*
X357379Y64753D01*
X357314Y64792D01*
X357253Y64838D01*
X357103Y64919D01*
X356956Y65007D01*
X356885Y65036D01*
X356818Y65072D01*
X356657Y65127D01*
X356498Y65190D01*
X356424Y65207D01*
X356352Y65232D01*
X356183Y65260D01*
X356016Y65297D01*
X355940Y65301D01*
X355865Y65314D01*
X355695Y65315D01*
X355524Y65325D01*
X355448Y65317D01*
X355372Y65317D01*
X355203Y65291D01*
X355033Y65273D01*
X354960Y65252D01*
X354885Y65240D01*
X354722Y65187D01*
X354558Y65142D01*
X354488Y65110D01*
X354416Y65086D01*
X354265Y65007D01*
X354109Y64936D01*
X354046Y64893D01*
X353978Y64858D01*
X353896Y64793D01*
X353700Y64661D01*
X353527Y64499D01*
X353445Y64433D01*
X353353Y64341D01*
X352328Y63916D01*
X352320Y63912D01*
X352310Y63909D01*
X352099Y63799D01*
X351889Y63691D01*
X351881Y63685D01*
X351873Y63681D01*
X351841Y63656D01*
X351492Y63398D01*
X351483Y63389D01*
X345908Y61079D01*
X250992Y61079D01*
G37*
%LPD*%
%LPC*%
G36*
X423185Y63579D02*
X423185Y63579D01*
X421347Y64341D01*
X419941Y65747D01*
X419179Y67585D01*
X419179Y82410D01*
X419170Y82524D01*
X419171Y82638D01*
X419150Y82770D01*
X419139Y82902D01*
X419112Y83013D01*
X419094Y83126D01*
X419053Y83252D01*
X419021Y83381D01*
X418976Y83485D01*
X418940Y83594D01*
X418878Y83712D01*
X418826Y83834D01*
X418765Y83930D01*
X418712Y84032D01*
X418653Y84105D01*
X418561Y84250D01*
X418345Y84492D01*
X418287Y84565D01*
X412380Y90472D01*
X412379Y90472D01*
X408401Y94451D01*
X406479Y99090D01*
X406479Y133097D01*
X406470Y133211D01*
X406471Y133325D01*
X406450Y133456D01*
X406439Y133589D01*
X406412Y133699D01*
X406394Y133812D01*
X406353Y133939D01*
X406321Y134068D01*
X406276Y134172D01*
X406240Y134281D01*
X406178Y134399D01*
X406126Y134521D01*
X406065Y134617D01*
X406012Y134719D01*
X405953Y134792D01*
X405861Y134937D01*
X405645Y135179D01*
X405587Y135252D01*
X395633Y145206D01*
X393699Y149874D01*
X393699Y189903D01*
X393698Y189913D01*
X393699Y189923D01*
X393679Y190158D01*
X393659Y190395D01*
X393657Y190405D01*
X393656Y190414D01*
X393645Y190453D01*
X393614Y190579D01*
X393612Y190590D01*
X393605Y190614D01*
X393541Y190874D01*
X393493Y190984D01*
X393470Y191062D01*
X393469Y191064D01*
X393467Y191070D01*
X393017Y192156D01*
X393017Y214244D01*
X395055Y219163D01*
X398819Y222927D01*
X403738Y224965D01*
X409062Y224965D01*
X412466Y223555D01*
X412637Y223500D01*
X412807Y223437D01*
X412872Y223424D01*
X412935Y223404D01*
X413114Y223377D01*
X413291Y223342D01*
X413357Y223340D01*
X413423Y223330D01*
X413604Y223332D01*
X413784Y223327D01*
X413850Y223335D01*
X413917Y223336D01*
X414094Y223367D01*
X414273Y223391D01*
X414337Y223410D01*
X414402Y223422D01*
X414572Y223481D01*
X414746Y223534D01*
X414805Y223563D01*
X414868Y223585D01*
X415026Y223671D01*
X415189Y223750D01*
X415243Y223789D01*
X415301Y223821D01*
X415444Y223931D01*
X415591Y224036D01*
X415638Y224083D01*
X415691Y224123D01*
X415814Y224256D01*
X415942Y224383D01*
X415981Y224436D01*
X416026Y224485D01*
X416126Y224636D01*
X416232Y224781D01*
X416262Y224841D01*
X416299Y224896D01*
X416373Y225061D01*
X416455Y225222D01*
X416475Y225285D01*
X416502Y225346D01*
X416549Y225520D01*
X416603Y225692D01*
X416609Y225745D01*
X416630Y225822D01*
X416679Y226313D01*
X416677Y226347D01*
X416679Y226370D01*
X416679Y269708D01*
X418981Y275265D01*
X479287Y335571D01*
X479361Y335658D01*
X479442Y335738D01*
X479520Y335845D01*
X479606Y335947D01*
X479665Y336045D01*
X479732Y336137D01*
X479792Y336255D01*
X479861Y336369D01*
X479903Y336475D01*
X479955Y336577D01*
X479995Y336704D01*
X480044Y336827D01*
X480069Y336939D01*
X480103Y337048D01*
X480113Y337141D01*
X480151Y337309D01*
X480169Y337633D01*
X480179Y337725D01*
X480179Y398875D01*
X480170Y398988D01*
X480171Y399103D01*
X480150Y399234D01*
X480139Y399366D01*
X480112Y399477D01*
X480094Y399590D01*
X480053Y399716D01*
X480021Y399845D01*
X479976Y399950D01*
X479940Y400059D01*
X479878Y400176D01*
X479826Y400299D01*
X479765Y400395D01*
X479712Y400496D01*
X479653Y400570D01*
X479561Y400715D01*
X479345Y400957D01*
X479287Y401029D01*
X444127Y436189D01*
X441825Y441746D01*
X441825Y498316D01*
X441886Y498509D01*
X441959Y498734D01*
X441960Y498743D01*
X441963Y498753D01*
X441967Y498793D01*
X442032Y499222D01*
X442030Y499352D01*
X442039Y499430D01*
X442039Y508171D01*
X444309Y513650D01*
X448502Y517843D01*
X453981Y520113D01*
X459911Y520113D01*
X465390Y517843D01*
X469583Y513650D01*
X471853Y508171D01*
X471853Y499430D01*
X471854Y499421D01*
X471853Y499411D01*
X471873Y499175D01*
X471893Y498939D01*
X471895Y498929D01*
X471896Y498920D01*
X471907Y498881D01*
X472011Y498460D01*
X472063Y498340D01*
X472067Y498327D01*
X472067Y452279D01*
X472076Y452166D01*
X472075Y452051D01*
X472096Y451920D01*
X472107Y451788D01*
X472134Y451677D01*
X472152Y451564D01*
X472193Y451438D01*
X472225Y451309D01*
X472270Y451204D01*
X472306Y451095D01*
X472368Y450978D01*
X472420Y450855D01*
X472481Y450759D01*
X472534Y450658D01*
X472593Y450584D01*
X472685Y450439D01*
X472901Y450197D01*
X472959Y450125D01*
X508119Y414965D01*
X510421Y409408D01*
X510421Y327192D01*
X508119Y321635D01*
X447813Y261329D01*
X447739Y261242D01*
X447658Y261162D01*
X447580Y261055D01*
X447494Y260953D01*
X447435Y260855D01*
X447368Y260763D01*
X447308Y260645D01*
X447239Y260531D01*
X447197Y260425D01*
X447145Y260323D01*
X447105Y260196D01*
X447056Y260073D01*
X447031Y259961D01*
X446997Y259852D01*
X446987Y259759D01*
X446949Y259591D01*
X446931Y259267D01*
X446921Y259175D01*
X446921Y223576D01*
X446925Y223523D01*
X446923Y223470D01*
X446945Y223277D01*
X446961Y223084D01*
X446973Y223033D01*
X446980Y222979D01*
X447033Y222793D01*
X447079Y222605D01*
X447100Y222556D01*
X447115Y222505D01*
X447197Y222330D01*
X447274Y222152D01*
X447303Y222107D01*
X447325Y222059D01*
X447435Y221899D01*
X447539Y221736D01*
X447574Y221696D01*
X447605Y221652D01*
X447739Y221512D01*
X447868Y221368D01*
X447909Y221335D01*
X447946Y221296D01*
X448101Y221180D01*
X448252Y221058D01*
X448298Y221032D01*
X448341Y221000D01*
X448512Y220910D01*
X448680Y220814D01*
X448730Y220796D01*
X448778Y220771D01*
X448961Y220710D01*
X449143Y220643D01*
X449195Y220632D01*
X449246Y220616D01*
X449437Y220585D01*
X449627Y220548D01*
X449680Y220546D01*
X449733Y220538D01*
X449927Y220539D01*
X450120Y220533D01*
X450173Y220539D01*
X450226Y220540D01*
X450418Y220572D01*
X450609Y220597D01*
X450660Y220612D01*
X450713Y220621D01*
X450809Y220657D01*
X451081Y220739D01*
X451258Y220826D01*
X451351Y220861D01*
X453007Y221705D01*
X454153Y222077D01*
X454153Y203200D01*
X454153Y184323D01*
X453007Y184695D01*
X451475Y185476D01*
X450084Y186487D01*
X448869Y187702D01*
X448544Y188148D01*
X448432Y188279D01*
X448326Y188416D01*
X448271Y188467D01*
X448223Y188523D01*
X448091Y188634D01*
X447964Y188752D01*
X447902Y188793D01*
X447846Y188840D01*
X447697Y188929D01*
X447553Y189025D01*
X447485Y189055D01*
X447422Y189093D01*
X447261Y189156D01*
X447103Y189227D01*
X447032Y189247D01*
X446963Y189274D01*
X446794Y189310D01*
X446627Y189355D01*
X446553Y189362D01*
X446481Y189378D01*
X446308Y189387D01*
X446136Y189404D01*
X446062Y189399D01*
X445988Y189403D01*
X445816Y189384D01*
X445643Y189373D01*
X445571Y189357D01*
X445498Y189349D01*
X445331Y189302D01*
X445163Y189263D01*
X445094Y189236D01*
X445023Y189216D01*
X444866Y189143D01*
X444706Y189077D01*
X444642Y189039D01*
X444575Y189008D01*
X444432Y188911D01*
X444285Y188820D01*
X444228Y188772D01*
X444167Y188730D01*
X444042Y188611D01*
X443911Y188498D01*
X443863Y188442D01*
X443809Y188391D01*
X443705Y188253D01*
X443594Y188120D01*
X443566Y188069D01*
X443511Y187998D01*
X443280Y187562D01*
X443272Y187538D01*
X443264Y187523D01*
X443145Y187237D01*
X439381Y183473D01*
X434462Y181435D01*
X429138Y181435D01*
X424202Y183480D01*
X424086Y183574D01*
X423927Y183709D01*
X423894Y183728D01*
X423864Y183752D01*
X423684Y183855D01*
X423504Y183963D01*
X423469Y183977D01*
X423436Y183996D01*
X423240Y184069D01*
X423046Y184146D01*
X423009Y184155D01*
X422973Y184168D01*
X422768Y184208D01*
X422565Y184253D01*
X422526Y184255D01*
X422489Y184263D01*
X422281Y184269D01*
X422072Y184281D01*
X422034Y184277D01*
X421996Y184278D01*
X421789Y184251D01*
X421581Y184229D01*
X421545Y184219D01*
X421507Y184214D01*
X421307Y184153D01*
X421106Y184098D01*
X421071Y184082D01*
X421034Y184071D01*
X420847Y183979D01*
X420657Y183892D01*
X420626Y183871D01*
X420591Y183854D01*
X420421Y183734D01*
X420248Y183617D01*
X420220Y183591D01*
X420189Y183569D01*
X420041Y183422D01*
X419888Y183279D01*
X419865Y183249D01*
X419838Y183222D01*
X419715Y183054D01*
X419588Y182888D01*
X419570Y182854D01*
X419548Y182823D01*
X419454Y182637D01*
X419355Y182453D01*
X419343Y182417D01*
X419325Y182383D01*
X419263Y182184D01*
X419195Y181986D01*
X419189Y181949D01*
X419177Y181912D01*
X419167Y181819D01*
X419112Y181500D01*
X419111Y181328D01*
X419101Y181235D01*
X419101Y158923D01*
X419110Y158809D01*
X419109Y158695D01*
X419130Y158564D01*
X419141Y158431D01*
X419168Y158321D01*
X419186Y158208D01*
X419227Y158081D01*
X419259Y157952D01*
X419304Y157848D01*
X419340Y157739D01*
X419402Y157621D01*
X419454Y157499D01*
X419515Y157403D01*
X419568Y157301D01*
X419627Y157228D01*
X419719Y157083D01*
X419935Y156841D01*
X419993Y156768D01*
X423468Y153293D01*
X423555Y153219D01*
X423636Y153138D01*
X423743Y153060D01*
X423844Y152974D01*
X423942Y152915D01*
X424034Y152848D01*
X424153Y152788D01*
X424267Y152719D01*
X424373Y152677D01*
X424475Y152625D01*
X424602Y152585D01*
X424725Y152536D01*
X424836Y152511D01*
X424945Y152477D01*
X425039Y152467D01*
X425207Y152429D01*
X425531Y152411D01*
X425623Y152401D01*
X459726Y152401D01*
X461812Y151537D01*
X461822Y151534D01*
X461830Y151529D01*
X462046Y151461D01*
X462118Y151418D01*
X462240Y151369D01*
X462308Y151331D01*
X464394Y150467D01*
X467967Y146894D01*
X468831Y144808D01*
X468836Y144800D01*
X468839Y144790D01*
X468943Y144590D01*
X468963Y144508D01*
X469015Y144388D01*
X469037Y144312D01*
X469901Y142226D01*
X469901Y137174D01*
X469037Y135088D01*
X469034Y135078D01*
X469029Y135070D01*
X468961Y134854D01*
X468918Y134782D01*
X468869Y134660D01*
X468831Y134592D01*
X467967Y132506D01*
X464394Y128933D01*
X462308Y128069D01*
X462300Y128064D01*
X462290Y128061D01*
X462090Y127957D01*
X462008Y127937D01*
X461888Y127885D01*
X461812Y127863D01*
X459726Y126999D01*
X434768Y126999D01*
X434692Y126993D01*
X434616Y126995D01*
X434447Y126973D01*
X434276Y126959D01*
X434202Y126941D01*
X434127Y126931D01*
X433963Y126882D01*
X433797Y126841D01*
X433728Y126811D01*
X433654Y126789D01*
X433501Y126713D01*
X433344Y126646D01*
X433280Y126605D01*
X433211Y126572D01*
X433072Y126473D01*
X432928Y126381D01*
X432871Y126330D01*
X432809Y126286D01*
X432688Y126166D01*
X432560Y126052D01*
X432512Y125993D01*
X432458Y125939D01*
X432357Y125801D01*
X432250Y125668D01*
X432213Y125602D01*
X432168Y125541D01*
X432091Y125388D01*
X432006Y125240D01*
X431980Y125168D01*
X431945Y125100D01*
X431894Y124937D01*
X431835Y124777D01*
X431820Y124702D01*
X431797Y124630D01*
X431785Y124525D01*
X431740Y124293D01*
X431733Y124057D01*
X431721Y123952D01*
X431721Y108090D01*
X431730Y107976D01*
X431729Y107862D01*
X431750Y107730D01*
X431761Y107598D01*
X431788Y107487D01*
X431806Y107375D01*
X431847Y107248D01*
X431879Y107119D01*
X431924Y107014D01*
X431960Y106906D01*
X432022Y106788D01*
X432074Y106666D01*
X432135Y106570D01*
X432188Y106468D01*
X432247Y106395D01*
X432339Y106250D01*
X432555Y106008D01*
X432613Y105935D01*
X438520Y100028D01*
X442345Y96203D01*
X442403Y96154D01*
X442455Y96098D01*
X442591Y95994D01*
X442721Y95884D01*
X442787Y95844D01*
X442847Y95798D01*
X442997Y95717D01*
X443144Y95629D01*
X443214Y95601D01*
X443282Y95565D01*
X443443Y95509D01*
X443602Y95446D01*
X443676Y95430D01*
X443748Y95405D01*
X443917Y95376D01*
X444083Y95339D01*
X444160Y95335D01*
X444235Y95322D01*
X444406Y95321D01*
X444576Y95312D01*
X444652Y95320D01*
X444728Y95319D01*
X444897Y95346D01*
X445067Y95364D01*
X445140Y95384D01*
X445215Y95396D01*
X445378Y95449D01*
X445542Y95494D01*
X445612Y95526D01*
X445684Y95550D01*
X445836Y95629D01*
X445991Y95700D01*
X446054Y95743D01*
X446122Y95778D01*
X446204Y95844D01*
X446400Y95976D01*
X446573Y96138D01*
X446655Y96203D01*
X450480Y100028D01*
X497649Y147197D01*
X497673Y147226D01*
X497702Y147252D01*
X497833Y147414D01*
X497968Y147573D01*
X497988Y147606D01*
X498012Y147636D01*
X498115Y147816D01*
X498223Y147996D01*
X498237Y148031D01*
X498256Y148064D01*
X498329Y148260D01*
X498406Y148454D01*
X498414Y148491D01*
X498428Y148527D01*
X498468Y148732D01*
X498513Y148936D01*
X498515Y148974D01*
X498522Y149011D01*
X498529Y149219D01*
X498540Y149428D01*
X498536Y149466D01*
X498538Y149504D01*
X498510Y149711D01*
X498488Y149919D01*
X498478Y149955D01*
X498473Y149993D01*
X498413Y150193D01*
X498358Y150394D01*
X498342Y150429D01*
X498331Y150466D01*
X498239Y150653D01*
X498152Y150843D01*
X498131Y150875D01*
X498114Y150909D01*
X497993Y151079D01*
X497876Y151252D01*
X497850Y151280D01*
X497828Y151311D01*
X497682Y151460D01*
X497539Y151612D01*
X497508Y151635D01*
X497482Y151662D01*
X497313Y151785D01*
X497147Y151912D01*
X497114Y151930D01*
X497083Y151952D01*
X496897Y152046D01*
X496713Y152145D01*
X496676Y152157D01*
X496642Y152175D01*
X496443Y152237D01*
X496246Y152305D01*
X496208Y152311D01*
X496172Y152323D01*
X496080Y152333D01*
X495759Y152388D01*
X495587Y152389D01*
X495494Y152399D01*
X480074Y152399D01*
X477988Y153263D01*
X477978Y153266D01*
X477970Y153271D01*
X477754Y153339D01*
X477682Y153382D01*
X477560Y153431D01*
X477492Y153469D01*
X475406Y154333D01*
X471833Y157906D01*
X470969Y159992D01*
X470964Y160000D01*
X470961Y160010D01*
X470857Y160210D01*
X470837Y160292D01*
X470785Y160412D01*
X470763Y160488D01*
X469899Y162574D01*
X469899Y167626D01*
X470763Y169712D01*
X470766Y169722D01*
X470771Y169730D01*
X470839Y169946D01*
X470882Y170018D01*
X470931Y170140D01*
X470969Y170208D01*
X471833Y172294D01*
X475406Y175867D01*
X477492Y176731D01*
X477500Y176736D01*
X477510Y176739D01*
X477710Y176843D01*
X477792Y176863D01*
X477912Y176915D01*
X477988Y176937D01*
X480074Y177801D01*
X510526Y177801D01*
X515194Y175867D01*
X515577Y175484D01*
X515606Y175460D01*
X515632Y175431D01*
X515794Y175300D01*
X515953Y175165D01*
X515986Y175145D01*
X516016Y175121D01*
X516197Y175018D01*
X516376Y174910D01*
X516411Y174896D01*
X516444Y174877D01*
X516640Y174805D01*
X516834Y174727D01*
X516871Y174719D01*
X516907Y174706D01*
X517111Y174666D01*
X517315Y174620D01*
X517354Y174618D01*
X517391Y174611D01*
X517599Y174604D01*
X517808Y174593D01*
X517846Y174597D01*
X517884Y174596D01*
X518090Y174623D01*
X518299Y174645D01*
X518335Y174655D01*
X518373Y174660D01*
X518574Y174720D01*
X518774Y174776D01*
X518809Y174791D01*
X518846Y174802D01*
X519033Y174894D01*
X519223Y174981D01*
X519254Y175003D01*
X519289Y175019D01*
X519458Y175140D01*
X519632Y175257D01*
X519660Y175283D01*
X519691Y175305D01*
X519839Y175451D01*
X519992Y175594D01*
X520015Y175625D01*
X520042Y175651D01*
X520164Y175820D01*
X520292Y175986D01*
X520310Y176019D01*
X520332Y176050D01*
X520426Y176237D01*
X520525Y176421D01*
X520537Y176457D01*
X520555Y176491D01*
X520617Y176690D01*
X520685Y176887D01*
X520691Y176925D01*
X520703Y176961D01*
X520713Y177054D01*
X520768Y177374D01*
X520769Y177546D01*
X520779Y177639D01*
X520779Y189710D01*
X520778Y189720D01*
X520779Y189730D01*
X520759Y189965D01*
X520739Y190202D01*
X520737Y190211D01*
X520736Y190221D01*
X520725Y190259D01*
X520621Y190681D01*
X520569Y190801D01*
X520547Y190876D01*
X520017Y192156D01*
X520017Y214244D01*
X522055Y219163D01*
X525819Y222927D01*
X530738Y224965D01*
X536062Y224965D01*
X539466Y223555D01*
X539637Y223500D01*
X539807Y223437D01*
X539872Y223424D01*
X539935Y223404D01*
X540114Y223377D01*
X540291Y223342D01*
X540357Y223340D01*
X540423Y223330D01*
X540604Y223332D01*
X540784Y223327D01*
X540850Y223335D01*
X540917Y223336D01*
X541094Y223367D01*
X541273Y223391D01*
X541337Y223410D01*
X541402Y223422D01*
X541572Y223481D01*
X541746Y223534D01*
X541805Y223563D01*
X541868Y223585D01*
X542026Y223671D01*
X542189Y223750D01*
X542243Y223789D01*
X542301Y223821D01*
X542444Y223931D01*
X542591Y224036D01*
X542638Y224083D01*
X542691Y224123D01*
X542814Y224256D01*
X542942Y224383D01*
X542981Y224436D01*
X543026Y224485D01*
X543126Y224636D01*
X543232Y224781D01*
X543262Y224841D01*
X543299Y224896D01*
X543373Y225061D01*
X543455Y225222D01*
X543475Y225285D01*
X543502Y225346D01*
X543549Y225520D01*
X543603Y225692D01*
X543609Y225745D01*
X543630Y225822D01*
X543679Y226313D01*
X543677Y226347D01*
X543679Y226370D01*
X543679Y282408D01*
X545981Y287965D01*
X606287Y348271D01*
X606361Y348358D01*
X606442Y348438D01*
X606520Y348545D01*
X606606Y348647D01*
X606665Y348745D01*
X606732Y348837D01*
X606792Y348955D01*
X606861Y349069D01*
X606903Y349175D01*
X606955Y349277D01*
X606995Y349404D01*
X607044Y349527D01*
X607069Y349639D01*
X607103Y349748D01*
X607113Y349841D01*
X607151Y350009D01*
X607169Y350333D01*
X607179Y350425D01*
X607179Y449421D01*
X607170Y449534D01*
X607171Y449649D01*
X607150Y449780D01*
X607139Y449912D01*
X607112Y450023D01*
X607094Y450136D01*
X607053Y450262D01*
X607021Y450391D01*
X606976Y450496D01*
X606940Y450605D01*
X606878Y450722D01*
X606826Y450845D01*
X606765Y450941D01*
X606712Y451042D01*
X606653Y451116D01*
X606561Y451261D01*
X606345Y451503D01*
X606287Y451575D01*
X588267Y469595D01*
X588180Y469669D01*
X588100Y469750D01*
X587993Y469828D01*
X587891Y469914D01*
X587793Y469973D01*
X587701Y470040D01*
X587583Y470100D01*
X587469Y470169D01*
X587363Y470211D01*
X587261Y470263D01*
X587134Y470303D01*
X587011Y470352D01*
X586899Y470377D01*
X586790Y470411D01*
X586697Y470421D01*
X586529Y470459D01*
X586205Y470477D01*
X586113Y470487D01*
X580981Y470487D01*
X575502Y472757D01*
X571309Y476950D01*
X569039Y482429D01*
X569039Y491170D01*
X569038Y491179D01*
X569039Y491189D01*
X569019Y491425D01*
X568999Y491661D01*
X568997Y491671D01*
X568996Y491680D01*
X568985Y491719D01*
X568881Y492140D01*
X568829Y492260D01*
X568825Y492273D01*
X568825Y498316D01*
X568886Y498509D01*
X568959Y498734D01*
X568960Y498743D01*
X568963Y498753D01*
X568967Y498793D01*
X569032Y499222D01*
X569030Y499352D01*
X569039Y499430D01*
X569039Y508171D01*
X571309Y513650D01*
X575502Y517843D01*
X580981Y520113D01*
X586911Y520113D01*
X592390Y517843D01*
X596583Y513650D01*
X598853Y508171D01*
X598853Y503039D01*
X598862Y502926D01*
X598861Y502811D01*
X598882Y502680D01*
X598893Y502548D01*
X598920Y502437D01*
X598938Y502324D01*
X598979Y502198D01*
X599011Y502069D01*
X599056Y501964D01*
X599092Y501855D01*
X599154Y501737D01*
X599206Y501615D01*
X599267Y501519D01*
X599320Y501418D01*
X599379Y501344D01*
X599471Y501199D01*
X599687Y500957D01*
X599745Y500885D01*
X630437Y470193D01*
X635119Y465511D01*
X637421Y459954D01*
X637421Y339892D01*
X635119Y334335D01*
X574813Y274029D01*
X574739Y273942D01*
X574658Y273862D01*
X574580Y273755D01*
X574494Y273653D01*
X574435Y273555D01*
X574368Y273463D01*
X574308Y273345D01*
X574239Y273231D01*
X574197Y273125D01*
X574145Y273023D01*
X574105Y272896D01*
X574056Y272773D01*
X574031Y272661D01*
X573997Y272552D01*
X573987Y272459D01*
X573949Y272291D01*
X573931Y271967D01*
X573921Y271875D01*
X573921Y223576D01*
X573925Y223523D01*
X573923Y223470D01*
X573945Y223277D01*
X573961Y223084D01*
X573973Y223033D01*
X573980Y222979D01*
X574033Y222793D01*
X574079Y222605D01*
X574100Y222556D01*
X574115Y222505D01*
X574197Y222330D01*
X574274Y222152D01*
X574303Y222107D01*
X574325Y222059D01*
X574435Y221899D01*
X574539Y221736D01*
X574574Y221696D01*
X574605Y221652D01*
X574739Y221512D01*
X574868Y221368D01*
X574909Y221335D01*
X574946Y221296D01*
X575101Y221180D01*
X575252Y221058D01*
X575298Y221032D01*
X575341Y221000D01*
X575512Y220910D01*
X575680Y220814D01*
X575730Y220796D01*
X575778Y220771D01*
X575961Y220710D01*
X576143Y220643D01*
X576195Y220632D01*
X576246Y220616D01*
X576437Y220585D01*
X576627Y220548D01*
X576680Y220546D01*
X576733Y220538D01*
X576927Y220539D01*
X577120Y220533D01*
X577173Y220539D01*
X577226Y220540D01*
X577418Y220572D01*
X577609Y220597D01*
X577660Y220612D01*
X577713Y220621D01*
X577809Y220657D01*
X578081Y220739D01*
X578258Y220826D01*
X578351Y220861D01*
X580007Y221705D01*
X581153Y222077D01*
X581153Y203200D01*
X581153Y184323D01*
X580007Y184695D01*
X578475Y185476D01*
X577084Y186487D01*
X575869Y187702D01*
X575544Y188148D01*
X575432Y188280D01*
X575326Y188416D01*
X575271Y188466D01*
X575223Y188523D01*
X575091Y188634D01*
X574964Y188752D01*
X574902Y188793D01*
X574846Y188840D01*
X574697Y188929D01*
X574553Y189024D01*
X574485Y189055D01*
X574422Y189093D01*
X574261Y189156D01*
X574103Y189227D01*
X574032Y189247D01*
X573963Y189274D01*
X573794Y189310D01*
X573627Y189355D01*
X573553Y189362D01*
X573481Y189378D01*
X573308Y189387D01*
X573136Y189404D01*
X573062Y189399D01*
X572988Y189403D01*
X572816Y189384D01*
X572643Y189373D01*
X572571Y189357D01*
X572498Y189349D01*
X572331Y189302D01*
X572163Y189263D01*
X572094Y189236D01*
X572023Y189216D01*
X571866Y189143D01*
X571706Y189077D01*
X571642Y189039D01*
X571575Y189008D01*
X571432Y188911D01*
X571285Y188820D01*
X571228Y188772D01*
X571167Y188730D01*
X571042Y188611D01*
X570911Y188498D01*
X570863Y188442D01*
X570809Y188391D01*
X570705Y188253D01*
X570594Y188120D01*
X570566Y188070D01*
X570511Y187998D01*
X570280Y187562D01*
X570272Y187539D01*
X570264Y187523D01*
X570145Y187237D01*
X566381Y183473D01*
X561462Y181435D01*
X556138Y181435D01*
X551218Y183473D01*
X551194Y183494D01*
X551168Y183522D01*
X551006Y183653D01*
X550847Y183789D01*
X550814Y183808D01*
X550784Y183832D01*
X550603Y183935D01*
X550424Y184043D01*
X550389Y184057D01*
X550356Y184076D01*
X550160Y184149D01*
X549966Y184226D01*
X549929Y184235D01*
X549893Y184248D01*
X549688Y184288D01*
X549485Y184333D01*
X549446Y184335D01*
X549409Y184343D01*
X549201Y184349D01*
X548992Y184361D01*
X548954Y184357D01*
X548916Y184358D01*
X548709Y184331D01*
X548501Y184309D01*
X548465Y184299D01*
X548427Y184294D01*
X548227Y184233D01*
X548026Y184178D01*
X547991Y184162D01*
X547954Y184151D01*
X547767Y184059D01*
X547577Y183972D01*
X547546Y183951D01*
X547511Y183934D01*
X547341Y183813D01*
X547168Y183697D01*
X547140Y183671D01*
X547109Y183649D01*
X546961Y183502D01*
X546808Y183359D01*
X546785Y183329D01*
X546758Y183302D01*
X546635Y183133D01*
X546508Y182968D01*
X546490Y182934D01*
X546468Y182903D01*
X546374Y182717D01*
X546275Y182533D01*
X546263Y182497D01*
X546245Y182463D01*
X546183Y182264D01*
X546115Y182066D01*
X546109Y182029D01*
X546097Y181992D01*
X546087Y181900D01*
X546032Y181580D01*
X546031Y181408D01*
X546021Y181315D01*
X546021Y162590D01*
X544099Y157951D01*
X531976Y145827D01*
X531970Y145820D01*
X531962Y145814D01*
X531810Y145632D01*
X531656Y145451D01*
X531651Y145443D01*
X531645Y145436D01*
X531626Y145401D01*
X531570Y145309D01*
X527819Y141557D01*
X527814Y141554D01*
X527806Y141550D01*
X527774Y141524D01*
X527425Y141267D01*
X527334Y141173D01*
X527273Y141124D01*
X470713Y84565D01*
X470639Y84478D01*
X470558Y84398D01*
X470480Y84290D01*
X470394Y84189D01*
X470335Y84091D01*
X470268Y83999D01*
X470208Y83880D01*
X470139Y83766D01*
X470097Y83660D01*
X470045Y83558D01*
X470005Y83432D01*
X469956Y83308D01*
X469931Y83197D01*
X469897Y83088D01*
X469887Y82994D01*
X469849Y82827D01*
X469831Y82502D01*
X469821Y82410D01*
X469821Y67585D01*
X469059Y65747D01*
X467653Y64341D01*
X465815Y63579D01*
X448585Y63579D01*
X446747Y64341D01*
X446655Y64433D01*
X446597Y64482D01*
X446544Y64538D01*
X446409Y64642D01*
X446279Y64753D01*
X446214Y64792D01*
X446153Y64838D01*
X446003Y64919D01*
X445856Y65007D01*
X445785Y65036D01*
X445718Y65072D01*
X445557Y65127D01*
X445398Y65190D01*
X445324Y65207D01*
X445252Y65232D01*
X445083Y65260D01*
X444916Y65297D01*
X444840Y65301D01*
X444765Y65314D01*
X444595Y65315D01*
X444424Y65325D01*
X444348Y65317D01*
X444272Y65317D01*
X444103Y65291D01*
X443933Y65273D01*
X443860Y65252D01*
X443785Y65240D01*
X443622Y65187D01*
X443458Y65142D01*
X443388Y65110D01*
X443316Y65086D01*
X443165Y65007D01*
X443009Y64936D01*
X442946Y64893D01*
X442878Y64858D01*
X442796Y64793D01*
X442600Y64661D01*
X442427Y64499D01*
X442345Y64433D01*
X442253Y64341D01*
X440415Y63579D01*
X423185Y63579D01*
G37*
%LPD*%
G36*
X73346Y149084D02*
X73346Y149084D01*
X73384Y149082D01*
X73591Y149110D01*
X73799Y149132D01*
X73835Y149142D01*
X73873Y149147D01*
X74073Y149207D01*
X74274Y149262D01*
X74309Y149278D01*
X74346Y149289D01*
X74533Y149381D01*
X74723Y149468D01*
X74755Y149489D01*
X74789Y149506D01*
X74958Y149627D01*
X75132Y149743D01*
X75160Y149770D01*
X75191Y149792D01*
X75339Y149938D01*
X75492Y150081D01*
X75515Y150112D01*
X75542Y150138D01*
X75665Y150307D01*
X75792Y150473D01*
X75810Y150506D01*
X75832Y150537D01*
X75926Y150723D01*
X76025Y150907D01*
X76037Y150944D01*
X76055Y150978D01*
X76117Y151177D01*
X76185Y151374D01*
X76191Y151412D01*
X76203Y151448D01*
X76213Y151540D01*
X76268Y151861D01*
X76269Y152033D01*
X76279Y152126D01*
X76279Y180310D01*
X78201Y184949D01*
X107151Y213899D01*
X111790Y215821D01*
X133210Y215821D01*
X133324Y215830D01*
X133438Y215829D01*
X133570Y215850D01*
X133702Y215861D01*
X133813Y215888D01*
X133925Y215906D01*
X134052Y215947D01*
X134181Y215979D01*
X134286Y216024D01*
X134394Y216060D01*
X134512Y216122D01*
X134634Y216174D01*
X134730Y216235D01*
X134832Y216288D01*
X134905Y216347D01*
X135050Y216439D01*
X135292Y216655D01*
X135365Y216713D01*
X138887Y220235D01*
X138961Y220322D01*
X139042Y220402D01*
X139120Y220510D01*
X139206Y220611D01*
X139265Y220709D01*
X139332Y220801D01*
X139392Y220920D01*
X139461Y221034D01*
X139503Y221140D01*
X139555Y221242D01*
X139595Y221368D01*
X139644Y221492D01*
X139669Y221603D01*
X139703Y221712D01*
X139713Y221806D01*
X139751Y221973D01*
X139769Y222297D01*
X139779Y222390D01*
X139779Y231110D01*
X141701Y235749D01*
X145097Y239145D01*
X145146Y239203D01*
X145202Y239255D01*
X145306Y239391D01*
X145416Y239521D01*
X145456Y239587D01*
X145502Y239647D01*
X145583Y239797D01*
X145671Y239944D01*
X145699Y240014D01*
X145735Y240082D01*
X145791Y240243D01*
X145854Y240402D01*
X145870Y240476D01*
X145895Y240548D01*
X145924Y240717D01*
X145961Y240883D01*
X145965Y240960D01*
X145978Y241035D01*
X145979Y241206D01*
X145988Y241376D01*
X145980Y241452D01*
X145981Y241528D01*
X145954Y241697D01*
X145936Y241867D01*
X145916Y241940D01*
X145904Y242015D01*
X145851Y242178D01*
X145806Y242342D01*
X145774Y242412D01*
X145750Y242484D01*
X145671Y242636D01*
X145600Y242791D01*
X145557Y242854D01*
X145522Y242922D01*
X145456Y243004D01*
X145324Y243200D01*
X145162Y243373D01*
X145097Y243455D01*
X141701Y246851D01*
X139779Y251490D01*
X139779Y256510D01*
X141701Y261149D01*
X145251Y264699D01*
X149890Y266621D01*
X177118Y266621D01*
X177194Y266627D01*
X177270Y266625D01*
X177439Y266647D01*
X177610Y266661D01*
X177684Y266679D01*
X177759Y266689D01*
X177923Y266738D01*
X178089Y266779D01*
X178158Y266809D01*
X178232Y266831D01*
X178385Y266907D01*
X178542Y266974D01*
X178606Y267015D01*
X178675Y267048D01*
X178814Y267147D01*
X178958Y267239D01*
X179015Y267290D01*
X179077Y267334D01*
X179198Y267454D01*
X179326Y267568D01*
X179374Y267627D01*
X179428Y267681D01*
X179529Y267819D01*
X179636Y267952D01*
X179673Y268018D01*
X179718Y268079D01*
X179795Y268232D01*
X179880Y268380D01*
X179906Y268452D01*
X179941Y268520D01*
X179992Y268683D01*
X180051Y268843D01*
X180066Y268918D01*
X180089Y268990D01*
X180101Y269095D01*
X180146Y269327D01*
X180153Y269563D01*
X180165Y269668D01*
X180165Y275317D01*
X186963Y282115D01*
X197732Y282115D01*
X197808Y282121D01*
X197884Y282119D01*
X198053Y282141D01*
X198224Y282155D01*
X198298Y282173D01*
X198373Y282183D01*
X198537Y282232D01*
X198703Y282273D01*
X198772Y282303D01*
X198846Y282325D01*
X198999Y282401D01*
X199156Y282468D01*
X199220Y282509D01*
X199289Y282542D01*
X199428Y282641D01*
X199572Y282733D01*
X199629Y282784D01*
X199691Y282828D01*
X199812Y282948D01*
X199940Y283062D01*
X199988Y283121D01*
X200042Y283175D01*
X200143Y283313D01*
X200250Y283446D01*
X200287Y283512D01*
X200332Y283573D01*
X200409Y283726D01*
X200494Y283874D01*
X200520Y283946D01*
X200555Y284014D01*
X200606Y284177D01*
X200665Y284337D01*
X200680Y284412D01*
X200703Y284484D01*
X200715Y284589D01*
X200760Y284821D01*
X200767Y285057D01*
X200779Y285162D01*
X200779Y411575D01*
X200770Y411688D01*
X200771Y411803D01*
X200750Y411934D01*
X200739Y412066D01*
X200712Y412177D01*
X200694Y412290D01*
X200653Y412416D01*
X200621Y412545D01*
X200576Y412650D01*
X200540Y412759D01*
X200478Y412876D01*
X200426Y412999D01*
X200365Y413095D01*
X200312Y413196D01*
X200253Y413270D01*
X200161Y413415D01*
X199945Y413657D01*
X199887Y413729D01*
X172429Y441187D01*
X172342Y441261D01*
X172262Y441342D01*
X172155Y441420D01*
X172053Y441506D01*
X171955Y441565D01*
X171863Y441632D01*
X171745Y441692D01*
X171631Y441761D01*
X171525Y441803D01*
X171423Y441855D01*
X171296Y441895D01*
X171173Y441944D01*
X171061Y441969D01*
X170952Y442003D01*
X170859Y442013D01*
X170691Y442051D01*
X170367Y442069D01*
X170275Y442079D01*
X165772Y442079D01*
X165592Y442065D01*
X165411Y442058D01*
X165346Y442045D01*
X165280Y442039D01*
X165105Y441996D01*
X164928Y441960D01*
X164866Y441937D01*
X164801Y441921D01*
X164635Y441849D01*
X164466Y441786D01*
X164409Y441752D01*
X164348Y441726D01*
X164195Y441629D01*
X164039Y441539D01*
X163988Y441497D01*
X163932Y441461D01*
X163797Y441341D01*
X163657Y441227D01*
X163613Y441177D01*
X163564Y441132D01*
X163450Y440992D01*
X163331Y440857D01*
X163296Y440800D01*
X163254Y440748D01*
X163165Y440592D01*
X163069Y440439D01*
X163043Y440378D01*
X163010Y440320D01*
X162947Y440150D01*
X162877Y439984D01*
X162861Y439920D01*
X162838Y439857D01*
X162804Y439680D01*
X162761Y439505D01*
X162756Y439438D01*
X162744Y439373D01*
X162738Y439193D01*
X162724Y439013D01*
X162730Y438946D01*
X162728Y438880D01*
X162752Y438701D01*
X162767Y438521D01*
X162782Y438471D01*
X162793Y438391D01*
X162935Y437919D01*
X162950Y437888D01*
X162956Y437866D01*
X164513Y434108D01*
X164513Y429492D01*
X162746Y425226D01*
X159482Y421962D01*
X155203Y420190D01*
X155047Y420169D01*
X154876Y420155D01*
X154802Y420137D01*
X154727Y420127D01*
X154563Y420078D01*
X154397Y420037D01*
X154328Y420007D01*
X154254Y419985D01*
X154101Y419909D01*
X153944Y419842D01*
X153880Y419801D01*
X153811Y419768D01*
X153672Y419669D01*
X153528Y419577D01*
X153471Y419526D01*
X153409Y419482D01*
X153288Y419362D01*
X153160Y419248D01*
X153112Y419189D01*
X153058Y419135D01*
X152957Y418997D01*
X152850Y418864D01*
X152813Y418798D01*
X152768Y418737D01*
X152691Y418584D01*
X152606Y418436D01*
X152580Y418364D01*
X152545Y418296D01*
X152494Y418133D01*
X152435Y417973D01*
X152420Y417898D01*
X152397Y417826D01*
X152385Y417721D01*
X152340Y417489D01*
X152333Y417253D01*
X152321Y417148D01*
X152321Y416590D01*
X150399Y411951D01*
X146421Y407972D01*
X146420Y407972D01*
X125428Y386980D01*
X125428Y386979D01*
X121449Y383001D01*
X116810Y381079D01*
X69990Y381079D01*
X69876Y381070D01*
X69762Y381071D01*
X69630Y381050D01*
X69498Y381039D01*
X69387Y381012D01*
X69274Y380994D01*
X69148Y380953D01*
X69019Y380921D01*
X68914Y380876D01*
X68806Y380840D01*
X68688Y380778D01*
X68566Y380726D01*
X68470Y380665D01*
X68368Y380612D01*
X68295Y380553D01*
X68150Y380461D01*
X67908Y380245D01*
X67835Y380187D01*
X51613Y363965D01*
X51539Y363878D01*
X51458Y363798D01*
X51380Y363690D01*
X51294Y363589D01*
X51235Y363491D01*
X51168Y363399D01*
X51108Y363280D01*
X51039Y363166D01*
X50997Y363060D01*
X50945Y362958D01*
X50905Y362832D01*
X50856Y362708D01*
X50831Y362597D01*
X50797Y362488D01*
X50787Y362394D01*
X50749Y362227D01*
X50731Y361902D01*
X50721Y361810D01*
X50721Y265497D01*
X50724Y265459D01*
X50722Y265421D01*
X50744Y265213D01*
X50761Y265005D01*
X50770Y264968D01*
X50774Y264930D01*
X50829Y264729D01*
X50879Y264526D01*
X50894Y264491D01*
X50905Y264455D01*
X50992Y264265D01*
X51074Y264073D01*
X51094Y264041D01*
X51110Y264006D01*
X51227Y263833D01*
X51339Y263657D01*
X51364Y263629D01*
X51386Y263597D01*
X51528Y263445D01*
X51668Y263289D01*
X51697Y263265D01*
X51724Y263237D01*
X51889Y263110D01*
X52052Y262979D01*
X52085Y262960D01*
X52115Y262937D01*
X52299Y262838D01*
X52480Y262735D01*
X52516Y262722D01*
X52550Y262704D01*
X52747Y262636D01*
X52943Y262564D01*
X52980Y262556D01*
X53016Y262544D01*
X53222Y262509D01*
X53427Y262469D01*
X53465Y262468D01*
X53503Y262461D01*
X53712Y262460D01*
X53920Y262454D01*
X53958Y262459D01*
X53996Y262458D01*
X54203Y262491D01*
X54409Y262518D01*
X54446Y262529D01*
X54483Y262535D01*
X54681Y262600D01*
X54881Y262660D01*
X54916Y262677D01*
X54952Y262689D01*
X55137Y262785D01*
X55325Y262877D01*
X55356Y262899D01*
X55390Y262917D01*
X55462Y262975D01*
X55727Y263163D01*
X55849Y263284D01*
X55923Y263342D01*
X56418Y263838D01*
X60697Y265610D01*
X60853Y265631D01*
X61024Y265645D01*
X61098Y265663D01*
X61173Y265673D01*
X61337Y265722D01*
X61503Y265763D01*
X61572Y265793D01*
X61646Y265815D01*
X61799Y265891D01*
X61956Y265958D01*
X62020Y265999D01*
X62089Y266032D01*
X62228Y266131D01*
X62372Y266223D01*
X62429Y266274D01*
X62491Y266318D01*
X62612Y266438D01*
X62740Y266552D01*
X62788Y266611D01*
X62842Y266665D01*
X62943Y266803D01*
X63050Y266936D01*
X63087Y267002D01*
X63132Y267063D01*
X63209Y267216D01*
X63294Y267364D01*
X63320Y267436D01*
X63355Y267504D01*
X63406Y267667D01*
X63465Y267827D01*
X63480Y267902D01*
X63503Y267974D01*
X63515Y268079D01*
X63560Y268311D01*
X63567Y268547D01*
X63579Y268652D01*
X63579Y300960D01*
X64363Y302853D01*
X64366Y302863D01*
X64371Y302871D01*
X64442Y303098D01*
X64515Y303323D01*
X64515Y303325D01*
X64630Y303516D01*
X64679Y303637D01*
X64717Y303706D01*
X65501Y305599D01*
X69051Y309149D01*
X70944Y309933D01*
X70953Y309938D01*
X70962Y309941D01*
X71173Y310051D01*
X71383Y310158D01*
X71384Y310160D01*
X71601Y310213D01*
X71721Y310265D01*
X71797Y310287D01*
X73690Y311071D01*
X78710Y311071D01*
X80603Y310287D01*
X80613Y310284D01*
X80621Y310279D01*
X80848Y310208D01*
X81073Y310135D01*
X81075Y310135D01*
X81266Y310020D01*
X81387Y309971D01*
X81456Y309933D01*
X83349Y309149D01*
X86899Y305599D01*
X87683Y303706D01*
X87688Y303697D01*
X87691Y303688D01*
X87801Y303477D01*
X87908Y303267D01*
X87910Y303266D01*
X87963Y303049D01*
X88015Y302929D01*
X88037Y302853D01*
X88821Y300960D01*
X88821Y251490D01*
X86899Y246851D01*
X83349Y243301D01*
X80709Y242207D01*
X80562Y242132D01*
X80411Y242064D01*
X80343Y242019D01*
X80270Y241982D01*
X80137Y241884D01*
X79999Y241793D01*
X79939Y241738D01*
X79873Y241689D01*
X79758Y241571D01*
X79636Y241459D01*
X79586Y241394D01*
X79529Y241336D01*
X79434Y241201D01*
X79332Y241070D01*
X79292Y240999D01*
X79246Y240932D01*
X79174Y240783D01*
X79094Y240638D01*
X79067Y240561D01*
X79032Y240487D01*
X78985Y240329D01*
X78930Y240173D01*
X78915Y240092D01*
X78892Y240014D01*
X78871Y239850D01*
X78842Y239687D01*
X78841Y239606D01*
X78831Y239525D01*
X78837Y239360D01*
X78834Y239194D01*
X78846Y239113D01*
X78849Y239032D01*
X78882Y238870D01*
X78906Y238706D01*
X78931Y238628D01*
X78947Y238548D01*
X79005Y238393D01*
X79056Y238236D01*
X79092Y238163D01*
X79121Y238087D01*
X79204Y237943D01*
X79279Y237796D01*
X79327Y237730D01*
X79368Y237659D01*
X79473Y237531D01*
X79570Y237398D01*
X79629Y237341D01*
X79681Y237278D01*
X79804Y237168D01*
X79922Y237052D01*
X79976Y237017D01*
X80050Y236951D01*
X80468Y236689D01*
X80482Y236683D01*
X80492Y236677D01*
X80993Y236421D01*
X82157Y235575D01*
X83175Y234557D01*
X84021Y233393D01*
X84675Y232110D01*
X84825Y231647D01*
X76200Y231647D01*
X76124Y231641D01*
X76048Y231644D01*
X75879Y231621D01*
X75709Y231607D01*
X75635Y231589D01*
X75559Y231579D01*
X75395Y231530D01*
X75230Y231489D01*
X75160Y231459D01*
X75087Y231437D01*
X74933Y231362D01*
X74776Y231294D01*
X74712Y231253D01*
X74644Y231220D01*
X74504Y231121D01*
X74360Y231029D01*
X74304Y230978D01*
X74241Y230934D01*
X74120Y230814D01*
X73992Y230700D01*
X73944Y230641D01*
X73890Y230587D01*
X73789Y230449D01*
X73682Y230316D01*
X73644Y230250D01*
X73599Y230188D01*
X73523Y230036D01*
X73438Y229887D01*
X73411Y229816D01*
X73377Y229748D01*
X73326Y229585D01*
X73266Y229425D01*
X73252Y229350D01*
X73229Y229277D01*
X73217Y229173D01*
X73172Y228941D01*
X73164Y228705D01*
X73153Y228600D01*
X73153Y219455D01*
X62272Y219455D01*
X60851Y219680D01*
X59482Y220125D01*
X58199Y220779D01*
X57035Y221625D01*
X55923Y222737D01*
X55894Y222761D01*
X55868Y222790D01*
X55706Y222921D01*
X55547Y223056D01*
X55514Y223076D01*
X55484Y223100D01*
X55303Y223203D01*
X55124Y223311D01*
X55089Y223325D01*
X55056Y223344D01*
X54860Y223416D01*
X54666Y223494D01*
X54629Y223502D01*
X54593Y223515D01*
X54389Y223555D01*
X54185Y223601D01*
X54146Y223603D01*
X54109Y223610D01*
X53901Y223617D01*
X53692Y223628D01*
X53654Y223624D01*
X53616Y223625D01*
X53410Y223598D01*
X53201Y223576D01*
X53165Y223566D01*
X53127Y223561D01*
X52927Y223501D01*
X52726Y223445D01*
X52691Y223430D01*
X52654Y223419D01*
X52467Y223327D01*
X52277Y223240D01*
X52246Y223218D01*
X52211Y223202D01*
X52041Y223081D01*
X51868Y222964D01*
X51840Y222938D01*
X51809Y222916D01*
X51660Y222769D01*
X51508Y222627D01*
X51485Y222596D01*
X51458Y222569D01*
X51335Y222401D01*
X51208Y222235D01*
X51190Y222201D01*
X51168Y222171D01*
X51074Y221985D01*
X50975Y221800D01*
X50963Y221764D01*
X50945Y221730D01*
X50882Y221531D01*
X50815Y221334D01*
X50809Y221296D01*
X50797Y221260D01*
X50787Y221167D01*
X50732Y220847D01*
X50731Y220675D01*
X50721Y220582D01*
X50721Y171590D01*
X50725Y171535D01*
X50725Y171513D01*
X50730Y171472D01*
X50729Y171362D01*
X50750Y171230D01*
X50761Y171098D01*
X50788Y170987D01*
X50806Y170875D01*
X50847Y170748D01*
X50879Y170619D01*
X50924Y170514D01*
X50960Y170406D01*
X51022Y170288D01*
X51074Y170166D01*
X51135Y170070D01*
X51188Y169968D01*
X51247Y169895D01*
X51339Y169750D01*
X51555Y169508D01*
X51613Y169435D01*
X71077Y149971D01*
X71106Y149947D01*
X71132Y149918D01*
X71294Y149787D01*
X71453Y149652D01*
X71486Y149632D01*
X71516Y149608D01*
X71696Y149505D01*
X71876Y149397D01*
X71911Y149383D01*
X71944Y149364D01*
X72140Y149291D01*
X72334Y149214D01*
X72371Y149206D01*
X72407Y149192D01*
X72612Y149152D01*
X72816Y149107D01*
X72854Y149105D01*
X72891Y149098D01*
X73099Y149091D01*
X73308Y149080D01*
X73346Y149084D01*
G37*
%LPC*%
G36*
X426282Y336549D02*
X426282Y336549D01*
X415623Y339405D01*
X406066Y344923D01*
X398263Y352726D01*
X392745Y362283D01*
X389889Y372942D01*
X389889Y383978D01*
X392745Y394637D01*
X398263Y404194D01*
X406066Y411997D01*
X415623Y417515D01*
X426282Y420371D01*
X437318Y420371D01*
X447977Y417515D01*
X457534Y411997D01*
X465337Y404194D01*
X470855Y394637D01*
X473711Y383978D01*
X473711Y372942D01*
X470855Y362283D01*
X465337Y352726D01*
X457534Y344923D01*
X447977Y339405D01*
X437318Y336549D01*
X426282Y336549D01*
G37*
%LPD*%
%LPC*%
G36*
X553282Y336549D02*
X553282Y336549D01*
X542623Y339405D01*
X533066Y344923D01*
X525263Y352726D01*
X519745Y362283D01*
X516889Y372942D01*
X516889Y383978D01*
X519745Y394637D01*
X525263Y404194D01*
X533066Y411997D01*
X542623Y417515D01*
X553282Y420371D01*
X564318Y420371D01*
X574977Y417515D01*
X584534Y411997D01*
X592337Y404194D01*
X597855Y394637D01*
X600711Y383978D01*
X600711Y372942D01*
X597855Y362283D01*
X592337Y352726D01*
X584534Y344923D01*
X574977Y339405D01*
X564318Y336549D01*
X553282Y336549D01*
G37*
%LPD*%
%LPC*%
G36*
X403689Y470487D02*
X403689Y470487D01*
X398210Y472757D01*
X394017Y476950D01*
X391747Y482429D01*
X391747Y508171D01*
X394017Y513650D01*
X398210Y517843D01*
X403689Y520113D01*
X409619Y520113D01*
X415098Y517843D01*
X419291Y513650D01*
X421561Y508171D01*
X421561Y482429D01*
X419291Y476950D01*
X415098Y472757D01*
X409619Y470487D01*
X403689Y470487D01*
G37*
%LPD*%
%LPC*%
G36*
X530689Y470487D02*
X530689Y470487D01*
X525210Y472757D01*
X521017Y476950D01*
X518747Y482429D01*
X518747Y508171D01*
X521017Y513650D01*
X525210Y517843D01*
X530689Y520113D01*
X536619Y520113D01*
X542098Y517843D01*
X546291Y513650D01*
X548561Y508171D01*
X548561Y482429D01*
X546291Y476950D01*
X542098Y472757D01*
X536619Y470487D01*
X530689Y470487D01*
G37*
%LPD*%
%LPC*%
G36*
X570821Y48847D02*
X570821Y48847D01*
X565342Y51117D01*
X561149Y55310D01*
X558879Y60789D01*
X558879Y86531D01*
X561149Y92010D01*
X565342Y96203D01*
X570821Y98473D01*
X576751Y98473D01*
X582230Y96203D01*
X586423Y92010D01*
X588693Y86531D01*
X588693Y60789D01*
X586423Y55310D01*
X582230Y51117D01*
X576751Y48847D01*
X570821Y48847D01*
G37*
%LPD*%
%LPC*%
G36*
X63500Y434847D02*
X63500Y434847D01*
X41667Y434847D01*
X41817Y435310D01*
X42471Y436593D01*
X43317Y437757D01*
X44335Y438775D01*
X45499Y439621D01*
X46782Y440275D01*
X46798Y440280D01*
X46943Y440341D01*
X47092Y440393D01*
X47171Y440436D01*
X47253Y440470D01*
X47387Y440553D01*
X47526Y440629D01*
X47596Y440684D01*
X47672Y440731D01*
X47790Y440835D01*
X47915Y440932D01*
X47976Y440997D01*
X48043Y441056D01*
X48143Y441178D01*
X48251Y441293D01*
X48300Y441368D01*
X48357Y441436D01*
X48436Y441573D01*
X48523Y441704D01*
X48560Y441786D01*
X48605Y441863D01*
X48661Y442010D01*
X48726Y442154D01*
X48749Y442240D01*
X48781Y442323D01*
X48813Y442478D01*
X48854Y442631D01*
X48863Y442719D01*
X48881Y442807D01*
X48887Y442964D01*
X48903Y443121D01*
X48897Y443210D01*
X48901Y443300D01*
X48882Y443457D01*
X48872Y443614D01*
X48852Y443701D01*
X48842Y443789D01*
X48798Y443941D01*
X48762Y444095D01*
X48729Y444177D01*
X48704Y444263D01*
X48636Y444406D01*
X48576Y444552D01*
X48530Y444628D01*
X48492Y444708D01*
X48401Y444838D01*
X48319Y444973D01*
X48261Y445040D01*
X48210Y445113D01*
X48100Y445227D01*
X47997Y445346D01*
X47929Y445404D01*
X47867Y445468D01*
X47740Y445562D01*
X47619Y445664D01*
X47559Y445697D01*
X47471Y445762D01*
X47033Y445989D01*
X47027Y445991D01*
X47022Y445993D01*
X43718Y447362D01*
X40454Y450626D01*
X38687Y454892D01*
X38687Y459508D01*
X40454Y463774D01*
X43718Y467038D01*
X47984Y468805D01*
X65808Y468805D01*
X70074Y467038D01*
X73338Y463774D01*
X75105Y459508D01*
X75105Y454892D01*
X73338Y450626D01*
X70074Y447362D01*
X66770Y445993D01*
X66629Y445921D01*
X66485Y445858D01*
X66410Y445809D01*
X66331Y445768D01*
X66204Y445675D01*
X66071Y445588D01*
X66005Y445528D01*
X65934Y445475D01*
X65823Y445362D01*
X65707Y445256D01*
X65651Y445186D01*
X65589Y445122D01*
X65499Y444993D01*
X65401Y444869D01*
X65357Y444791D01*
X65306Y444718D01*
X65238Y444576D01*
X65161Y444438D01*
X65131Y444354D01*
X65092Y444274D01*
X65047Y444122D01*
X64994Y443974D01*
X64978Y443886D01*
X64953Y443800D01*
X64933Y443644D01*
X64904Y443489D01*
X64902Y443399D01*
X64891Y443311D01*
X64897Y443153D01*
X64894Y442995D01*
X64907Y442907D01*
X64910Y442818D01*
X64941Y442663D01*
X64963Y442507D01*
X64990Y442422D01*
X65008Y442334D01*
X65063Y442187D01*
X65111Y442036D01*
X65151Y441956D01*
X65182Y441873D01*
X65261Y441736D01*
X65332Y441595D01*
X65384Y441523D01*
X65429Y441446D01*
X65529Y441324D01*
X65621Y441196D01*
X65685Y441133D01*
X65741Y441064D01*
X65860Y440959D01*
X65972Y440848D01*
X66044Y440796D01*
X66111Y440738D01*
X66245Y440654D01*
X66373Y440562D01*
X66436Y440533D01*
X66529Y440475D01*
X66984Y440283D01*
X66990Y440282D01*
X66994Y440280D01*
X67010Y440275D01*
X68293Y439621D01*
X69457Y438775D01*
X70475Y437757D01*
X71321Y436593D01*
X71975Y435310D01*
X72125Y434847D01*
X63500Y434847D01*
X63500Y434847D01*
G37*
%LPD*%
%LPC*%
G36*
X286083Y504904D02*
X286083Y504904D01*
X277574Y513413D01*
X277574Y525447D01*
X286083Y533956D01*
X298117Y533956D01*
X306626Y525447D01*
X306626Y513413D01*
X298117Y504904D01*
X286083Y504904D01*
G37*
%LPD*%
%LPC*%
G36*
X114573Y347805D02*
X114573Y347805D01*
X107095Y355283D01*
X107037Y355333D01*
X106985Y355388D01*
X106850Y355492D01*
X106719Y355603D01*
X106654Y355642D01*
X106594Y355688D01*
X106443Y355769D01*
X106297Y355857D01*
X106226Y355886D01*
X106159Y355922D01*
X105997Y355977D01*
X105839Y356040D01*
X105764Y356057D01*
X105692Y356082D01*
X105524Y356110D01*
X105357Y356147D01*
X105281Y356151D01*
X105206Y356164D01*
X105035Y356165D01*
X104864Y356175D01*
X104789Y356167D01*
X104712Y356167D01*
X104543Y356141D01*
X104374Y356123D01*
X104301Y356102D01*
X104225Y356091D01*
X104063Y356037D01*
X103898Y355992D01*
X103829Y355960D01*
X103757Y355936D01*
X103605Y355857D01*
X103450Y355786D01*
X103387Y355744D01*
X103319Y355708D01*
X103237Y355643D01*
X103040Y355511D01*
X102868Y355349D01*
X102786Y355283D01*
X97768Y350265D01*
X97027Y350265D01*
X97027Y359410D01*
X97027Y368555D01*
X97768Y368555D01*
X102786Y363537D01*
X102844Y363487D01*
X102896Y363432D01*
X103031Y363328D01*
X103162Y363217D01*
X103227Y363178D01*
X103287Y363132D01*
X103438Y363051D01*
X103584Y362963D01*
X103655Y362934D01*
X103722Y362898D01*
X103884Y362843D01*
X104042Y362780D01*
X104117Y362763D01*
X104189Y362738D01*
X104357Y362710D01*
X104524Y362673D01*
X104600Y362669D01*
X104675Y362656D01*
X104846Y362655D01*
X105017Y362645D01*
X105092Y362653D01*
X105169Y362653D01*
X105338Y362679D01*
X105507Y362697D01*
X105580Y362718D01*
X105656Y362729D01*
X105818Y362783D01*
X105983Y362828D01*
X106052Y362860D01*
X106124Y362884D01*
X106276Y362963D01*
X106431Y363034D01*
X106495Y363076D01*
X106562Y363112D01*
X106644Y363177D01*
X106841Y363309D01*
X107013Y363471D01*
X107095Y363537D01*
X114573Y371015D01*
X124187Y371015D01*
X130985Y364217D01*
X130985Y354603D01*
X124187Y347805D01*
X114573Y347805D01*
G37*
%LPD*%
%LPC*%
G36*
X151403Y501475D02*
X151403Y501475D01*
X144605Y508273D01*
X144605Y517887D01*
X151403Y524685D01*
X161017Y524685D01*
X167815Y517887D01*
X167815Y508273D01*
X161017Y501475D01*
X151403Y501475D01*
G37*
%LPD*%
%LPC*%
G36*
X172993Y369395D02*
X172993Y369395D01*
X166195Y376193D01*
X166195Y385807D01*
X172993Y392605D01*
X182607Y392605D01*
X189405Y385807D01*
X189405Y376193D01*
X182607Y369395D01*
X172993Y369395D01*
G37*
%LPD*%
%LPC*%
G36*
X172993Y286845D02*
X172993Y286845D01*
X166195Y293643D01*
X166195Y303257D01*
X172993Y310055D01*
X182607Y310055D01*
X189405Y303257D01*
X189405Y293643D01*
X182607Y286845D01*
X172993Y286845D01*
G37*
%LPD*%
%LPC*%
G36*
X526795Y76961D02*
X526795Y76961D01*
X526795Y95581D01*
X528272Y95101D01*
X530018Y94211D01*
X531603Y93060D01*
X532988Y91675D01*
X534139Y90090D01*
X535029Y88344D01*
X535634Y86481D01*
X535941Y84546D01*
X535941Y76961D01*
X526795Y76961D01*
G37*
%LPD*%
%LPC*%
G36*
X526795Y70359D02*
X526795Y70359D01*
X535941Y70359D01*
X535941Y62774D01*
X535634Y60839D01*
X535029Y58976D01*
X534139Y57230D01*
X532988Y55645D01*
X531603Y54260D01*
X530018Y53109D01*
X528272Y52219D01*
X526795Y51739D01*
X526795Y70359D01*
G37*
%LPD*%
%LPC*%
G36*
X511047Y76961D02*
X511047Y76961D01*
X511047Y84546D01*
X511354Y86481D01*
X511959Y88344D01*
X512849Y90090D01*
X514000Y91675D01*
X515385Y93060D01*
X516970Y94211D01*
X518716Y95101D01*
X520193Y95581D01*
X520193Y76961D01*
X511047Y76961D01*
G37*
%LPD*%
%LPC*%
G36*
X518716Y52219D02*
X518716Y52219D01*
X516970Y53109D01*
X515385Y54260D01*
X514000Y55645D01*
X512849Y57230D01*
X511959Y58976D01*
X511354Y60839D01*
X511047Y62774D01*
X511047Y70359D01*
X520193Y70359D01*
X520193Y51739D01*
X518716Y52219D01*
G37*
%LPD*%
%LPC*%
G36*
X168147Y79247D02*
X168147Y79247D01*
X168147Y86361D01*
X173055Y86361D01*
X173701Y86188D01*
X174280Y85853D01*
X174753Y85380D01*
X175161Y84674D01*
X175237Y84564D01*
X175304Y84449D01*
X175377Y84361D01*
X175441Y84268D01*
X175534Y84172D01*
X175619Y84069D01*
X175705Y83994D01*
X175784Y83912D01*
X175890Y83833D01*
X175991Y83745D01*
X176088Y83685D01*
X176179Y83617D01*
X176297Y83556D01*
X176410Y83485D01*
X176515Y83442D01*
X176616Y83389D01*
X176743Y83347D01*
X176866Y83297D01*
X176977Y83271D01*
X177085Y83235D01*
X177217Y83214D01*
X177346Y83184D01*
X177460Y83176D01*
X177572Y83158D01*
X177706Y83159D01*
X177838Y83150D01*
X177952Y83161D01*
X178066Y83161D01*
X178197Y83184D01*
X178330Y83196D01*
X178440Y83225D01*
X178552Y83244D01*
X178678Y83287D01*
X178807Y83321D01*
X178911Y83367D01*
X179019Y83404D01*
X179136Y83467D01*
X179258Y83521D01*
X179353Y83584D01*
X179453Y83637D01*
X179559Y83718D01*
X179670Y83791D01*
X179755Y83869D01*
X179845Y83938D01*
X179936Y84035D01*
X180034Y84125D01*
X180084Y84193D01*
X180183Y84297D01*
X180400Y84621D01*
X180439Y84674D01*
X180847Y85380D01*
X181320Y85853D01*
X181899Y86188D01*
X182545Y86361D01*
X187453Y86361D01*
X187453Y79247D01*
X168147Y79247D01*
G37*
%LPD*%
%LPC*%
G36*
X168147Y66039D02*
X168147Y66039D01*
X168147Y73153D01*
X187453Y73153D01*
X187453Y66039D01*
X182545Y66039D01*
X181899Y66212D01*
X181320Y66547D01*
X180847Y67020D01*
X180439Y67726D01*
X180363Y67836D01*
X180296Y67951D01*
X180223Y68039D01*
X180159Y68132D01*
X180066Y68228D01*
X179981Y68331D01*
X179895Y68406D01*
X179816Y68488D01*
X179710Y68567D01*
X179609Y68655D01*
X179512Y68715D01*
X179421Y68783D01*
X179303Y68844D01*
X179190Y68915D01*
X179085Y68958D01*
X178984Y69011D01*
X178857Y69052D01*
X178734Y69103D01*
X178623Y69129D01*
X178515Y69165D01*
X178384Y69186D01*
X178254Y69216D01*
X178140Y69224D01*
X178028Y69242D01*
X177895Y69241D01*
X177762Y69250D01*
X177648Y69239D01*
X177534Y69239D01*
X177403Y69216D01*
X177271Y69204D01*
X177160Y69175D01*
X177048Y69156D01*
X176922Y69113D01*
X176793Y69079D01*
X176689Y69033D01*
X176581Y68996D01*
X176464Y68933D01*
X176342Y68879D01*
X176247Y68817D01*
X176147Y68763D01*
X176041Y68681D01*
X175930Y68609D01*
X175846Y68532D01*
X175755Y68462D01*
X175664Y68365D01*
X175566Y68275D01*
X175516Y68208D01*
X175417Y68103D01*
X175200Y67779D01*
X175161Y67726D01*
X174753Y67020D01*
X174280Y66547D01*
X173701Y66212D01*
X173055Y66039D01*
X168147Y66039D01*
G37*
%LPD*%
%LPC*%
G36*
X587247Y206247D02*
X587247Y206247D01*
X587247Y222077D01*
X588393Y221705D01*
X589925Y220924D01*
X591316Y219913D01*
X592531Y218698D01*
X593542Y217307D01*
X594323Y215775D01*
X594854Y214140D01*
X595123Y212442D01*
X595123Y206247D01*
X587247Y206247D01*
G37*
%LPD*%
%LPC*%
G36*
X333247Y206247D02*
X333247Y206247D01*
X333247Y222077D01*
X334393Y221705D01*
X335925Y220924D01*
X337316Y219913D01*
X338531Y218698D01*
X339542Y217307D01*
X340323Y215775D01*
X340854Y214140D01*
X341123Y212442D01*
X341123Y206247D01*
X333247Y206247D01*
G37*
%LPD*%
%LPC*%
G36*
X460247Y206247D02*
X460247Y206247D01*
X460247Y222077D01*
X461393Y221705D01*
X462925Y220924D01*
X464316Y219913D01*
X465531Y218698D01*
X466542Y217307D01*
X467323Y215775D01*
X467854Y214140D01*
X468123Y212442D01*
X468123Y206247D01*
X460247Y206247D01*
G37*
%LPD*%
%LPC*%
G36*
X587247Y200153D02*
X587247Y200153D01*
X595123Y200153D01*
X595123Y193958D01*
X594854Y192260D01*
X594323Y190625D01*
X593542Y189093D01*
X592531Y187702D01*
X591316Y186487D01*
X589925Y185476D01*
X588393Y184695D01*
X587247Y184323D01*
X587247Y200153D01*
G37*
%LPD*%
%LPC*%
G36*
X333247Y200153D02*
X333247Y200153D01*
X341123Y200153D01*
X341123Y193958D01*
X340854Y192260D01*
X340323Y190625D01*
X339542Y189093D01*
X338531Y187702D01*
X337316Y186487D01*
X335925Y185476D01*
X334393Y184695D01*
X333247Y184323D01*
X333247Y200153D01*
G37*
%LPD*%
%LPC*%
G36*
X460247Y200153D02*
X460247Y200153D01*
X468123Y200153D01*
X468123Y193958D01*
X467854Y192260D01*
X467323Y190625D01*
X466542Y189093D01*
X465531Y187702D01*
X464316Y186487D01*
X462925Y185476D01*
X461393Y184695D01*
X460247Y184323D01*
X460247Y200153D01*
G37*
%LPD*%
%LPC*%
G36*
X49572Y422655D02*
X49572Y422655D01*
X48151Y422880D01*
X46782Y423325D01*
X45499Y423979D01*
X44335Y424825D01*
X43317Y425843D01*
X42471Y427007D01*
X41817Y428290D01*
X41667Y428753D01*
X60453Y428753D01*
X60453Y422655D01*
X49572Y422655D01*
G37*
%LPD*%
%LPC*%
G36*
X100544Y413793D02*
X100544Y413793D01*
X98594Y414601D01*
X97101Y416094D01*
X96293Y418044D01*
X96293Y420156D01*
X97101Y422106D01*
X98594Y423599D01*
X100544Y424407D01*
X102656Y424407D01*
X104606Y423599D01*
X106099Y422106D01*
X106907Y420156D01*
X106907Y418044D01*
X106099Y416094D01*
X104606Y414601D01*
X102656Y413793D01*
X100544Y413793D01*
G37*
%LPD*%
%LPC*%
G36*
X193547Y79247D02*
X193547Y79247D01*
X193547Y86361D01*
X198455Y86361D01*
X199101Y86188D01*
X199680Y85853D01*
X200153Y85380D01*
X200488Y84801D01*
X200661Y84155D01*
X200661Y79247D01*
X193547Y79247D01*
G37*
%LPD*%
%LPC*%
G36*
X154939Y79247D02*
X154939Y79247D01*
X154939Y84155D01*
X155112Y84801D01*
X155447Y85380D01*
X155920Y85853D01*
X156499Y86188D01*
X157145Y86361D01*
X162053Y86361D01*
X162053Y79247D01*
X154939Y79247D01*
G37*
%LPD*%
%LPC*%
G36*
X193547Y66039D02*
X193547Y66039D01*
X193547Y73153D01*
X200661Y73153D01*
X200661Y68245D01*
X200488Y67599D01*
X200153Y67020D01*
X199680Y66547D01*
X199101Y66212D01*
X198455Y66039D01*
X193547Y66039D01*
G37*
%LPD*%
%LPC*%
G36*
X157145Y66039D02*
X157145Y66039D01*
X156499Y66212D01*
X155920Y66547D01*
X155447Y67020D01*
X155112Y67599D01*
X154939Y68245D01*
X154939Y73153D01*
X162053Y73153D01*
X162053Y66039D01*
X157145Y66039D01*
G37*
%LPD*%
%LPC*%
G36*
X587247Y168147D02*
X587247Y168147D01*
X587247Y174245D01*
X587988Y174245D01*
X593345Y168888D01*
X593345Y168147D01*
X587247Y168147D01*
G37*
%LPD*%
%LPC*%
G36*
X358647Y142747D02*
X358647Y142747D01*
X358647Y148845D01*
X359388Y148845D01*
X364745Y143488D01*
X364745Y142747D01*
X358647Y142747D01*
G37*
%LPD*%
%LPC*%
G36*
X180847Y130047D02*
X180847Y130047D01*
X180847Y136145D01*
X181588Y136145D01*
X186945Y130788D01*
X186945Y130047D01*
X180847Y130047D01*
G37*
%LPD*%
%LPC*%
G36*
X84835Y362457D02*
X84835Y362457D01*
X84835Y363198D01*
X90192Y368555D01*
X90933Y368555D01*
X90933Y362457D01*
X84835Y362457D01*
G37*
%LPD*%
%LPC*%
G36*
X575055Y168147D02*
X575055Y168147D01*
X575055Y168888D01*
X580412Y174245D01*
X581153Y174245D01*
X581153Y168147D01*
X575055Y168147D01*
G37*
%LPD*%
%LPC*%
G36*
X117855Y168147D02*
X117855Y168147D01*
X117855Y168888D01*
X123212Y174245D01*
X123953Y174245D01*
X123953Y168147D01*
X117855Y168147D01*
G37*
%LPD*%
%LPC*%
G36*
X587247Y155955D02*
X587247Y155955D01*
X587247Y162053D01*
X593345Y162053D01*
X593345Y161312D01*
X587988Y155955D01*
X587247Y155955D01*
G37*
%LPD*%
%LPC*%
G36*
X346455Y142747D02*
X346455Y142747D01*
X346455Y143488D01*
X351812Y148845D01*
X352553Y148845D01*
X352553Y142747D01*
X346455Y142747D01*
G37*
%LPD*%
%LPC*%
G36*
X358647Y130555D02*
X358647Y130555D01*
X358647Y136653D01*
X364745Y136653D01*
X364745Y135912D01*
X359388Y130555D01*
X358647Y130555D01*
G37*
%LPD*%
%LPC*%
G36*
X168655Y130047D02*
X168655Y130047D01*
X168655Y130788D01*
X174012Y136145D01*
X174753Y136145D01*
X174753Y130047D01*
X168655Y130047D01*
G37*
%LPD*%
%LPC*%
G36*
X180847Y117855D02*
X180847Y117855D01*
X180847Y123953D01*
X186945Y123953D01*
X186945Y123212D01*
X181588Y117855D01*
X180847Y117855D01*
G37*
%LPD*%
%LPC*%
G36*
X90192Y350265D02*
X90192Y350265D01*
X84835Y355622D01*
X84835Y356363D01*
X90933Y356363D01*
X90933Y350265D01*
X90192Y350265D01*
G37*
%LPD*%
%LPC*%
G36*
X123212Y155955D02*
X123212Y155955D01*
X117855Y161312D01*
X117855Y162053D01*
X123953Y162053D01*
X123953Y155955D01*
X123212Y155955D01*
G37*
%LPD*%
%LPC*%
G36*
X580412Y155955D02*
X580412Y155955D01*
X575055Y161312D01*
X575055Y162053D01*
X581153Y162053D01*
X581153Y155955D01*
X580412Y155955D01*
G37*
%LPD*%
%LPC*%
G36*
X174012Y117855D02*
X174012Y117855D01*
X168655Y123212D01*
X168655Y123953D01*
X174753Y123953D01*
X174753Y117855D01*
X174012Y117855D01*
G37*
%LPD*%
%LPC*%
G36*
X66547Y428753D02*
X66547Y428753D01*
X72125Y428753D01*
X71975Y428290D01*
X71321Y427007D01*
X70475Y425843D01*
X69457Y424825D01*
X68293Y423979D01*
X67010Y423325D01*
X66547Y423175D01*
X66547Y428753D01*
G37*
%LPD*%
%LPC*%
G36*
X79247Y225553D02*
X79247Y225553D01*
X84825Y225553D01*
X84675Y225090D01*
X84021Y223807D01*
X83175Y222643D01*
X82157Y221625D01*
X80993Y220779D01*
X79710Y220125D01*
X79247Y219975D01*
X79247Y225553D01*
G37*
%LPD*%
D10*
X573786Y83566D02*
X573786Y63754D01*
X523494Y63754D02*
X523494Y83566D01*
D11*
X119380Y359410D03*
X93980Y359410D03*
X152400Y165100D03*
X127000Y165100D03*
D12*
X63500Y457200D02*
X50292Y457200D01*
X50292Y431800D02*
X63500Y431800D01*
X139700Y431800D02*
X152908Y431800D01*
X152908Y457200D02*
X139700Y457200D01*
X76200Y254000D02*
X62992Y254000D01*
X62992Y228600D02*
X76200Y228600D01*
X152400Y228600D02*
X165608Y228600D01*
X165608Y254000D02*
X152400Y254000D01*
D13*
X406400Y211582D02*
X406400Y194818D01*
X431800Y194818D02*
X431800Y211582D01*
X457200Y211582D02*
X457200Y194818D01*
X533400Y194818D02*
X533400Y211582D01*
X558800Y211582D02*
X558800Y194818D01*
X584200Y194818D02*
X584200Y211582D01*
X279400Y211582D02*
X279400Y194818D01*
X304800Y194818D02*
X304800Y211582D01*
X330200Y211582D02*
X330200Y194818D01*
D14*
X54610Y513080D03*
X156210Y513080D03*
X355600Y139700D03*
X457200Y139700D03*
D11*
X584200Y165100D03*
X482600Y165100D03*
D14*
X177800Y127000D03*
X279400Y127000D03*
D15*
X177800Y482600D03*
X177800Y381000D03*
D14*
X76200Y298450D03*
X177800Y298450D03*
D15*
X191770Y270510D03*
X191770Y168910D03*
D10*
X406654Y485394D02*
X406654Y505206D01*
X456946Y505206D02*
X456946Y485394D01*
X533654Y485394D02*
X533654Y505206D01*
X583946Y505206D02*
X583946Y485394D01*
D16*
X292100Y473710D03*
X292100Y519430D03*
D17*
X88900Y76200D03*
X114300Y76200D03*
X431800Y76200D03*
X457200Y76200D03*
X342900Y76200D03*
X368300Y76200D03*
X165100Y76200D03*
X190500Y76200D03*
D18*
X368300Y76200D02*
X368300Y88900D01*
X317500Y139700D01*
X279400Y177800D01*
X279400Y203200D01*
X292100Y139700D02*
X317500Y139700D01*
D19*
X292100Y139700D02*
X279400Y127000D01*
D20*
X215900Y76200D03*
X215900Y50800D03*
X76200Y330200D03*
X114300Y533400D03*
X203200Y533400D03*
X266700Y482600D03*
X635000Y495300D03*
X381000Y419100D03*
X520700Y419100D03*
X368300Y215900D03*
X495300Y228600D03*
X622300Y76200D03*
X571500Y139700D03*
X330200Y152400D03*
X177800Y330200D03*
D18*
X419100Y101600D02*
X431800Y88900D01*
X419100Y101600D02*
X419100Y139700D01*
X431800Y88900D02*
X431800Y76200D01*
D19*
X419100Y139700D02*
X457200Y139700D01*
X406400Y152400D02*
X406400Y203200D01*
X406400Y152400D02*
X419100Y139700D01*
D18*
X533400Y165100D02*
X533400Y203200D01*
X533400Y165100D02*
X520700Y152400D01*
X457200Y88900D01*
X457200Y76200D01*
D19*
X482600Y165100D02*
X508000Y165100D01*
X520700Y152400D01*
D21*
X368300Y397510D02*
X292100Y473710D01*
X368300Y397510D02*
X368300Y342900D01*
X304800Y279400D01*
X304800Y203200D01*
X342900Y76200D02*
X254000Y76200D01*
X215900Y114300D01*
X215900Y419100D02*
X177800Y457200D01*
X139700Y457200D01*
X215900Y215900D02*
X215900Y114300D01*
X215900Y215900D02*
X215900Y419100D01*
D18*
X177800Y254000D02*
X215900Y215900D01*
X177800Y254000D02*
X152400Y254000D01*
X38100Y368300D02*
X63500Y393700D01*
X114300Y393700D02*
X139700Y419100D01*
X139700Y431800D01*
X38100Y165100D02*
X88900Y114300D01*
X38100Y165100D02*
X38100Y368300D01*
X63500Y393700D02*
X114300Y393700D01*
X88900Y114300D02*
X88900Y76200D01*
D21*
X431800Y203200D02*
X431800Y266700D01*
X456946Y444754D02*
X456946Y495300D01*
X495300Y330200D02*
X431800Y266700D01*
X495300Y330200D02*
X495300Y406400D01*
X456946Y444754D01*
D18*
X191770Y168910D02*
X187960Y165100D01*
X152400Y165100D01*
X76200Y254000D02*
X76200Y298450D01*
D21*
X583946Y495300D02*
X622300Y456946D01*
X622300Y342900D02*
X558800Y279400D01*
X558800Y203200D01*
X622300Y342900D02*
X622300Y456946D01*
D18*
X114300Y127000D02*
X88900Y152400D01*
X88900Y177800D01*
X114300Y203200D02*
X139700Y203200D01*
X152400Y215900D01*
X152400Y228600D01*
X114300Y203200D02*
X88900Y177800D01*
X114300Y127000D02*
X114300Y76200D01*
D20*
X101600Y419100D03*
M02*
