G04 EAGLE Gerber RS-274X export*
G75*
%MOMM*%
%FSLAX34Y34*%
%LPD*%
%INTop Copper*%
%IPPOS*%
%AMOC8*
5,1,8,0,0,1.08239X$1,22.5*%
G01*
%ADD10C,1.981200*%
%ADD11P,1.429621X8X202.500000*%
%ADD12C,1.320800*%
%ADD13C,1.676400*%
%ADD14P,1.429621X8X22.500000*%
%ADD15P,1.429621X8X292.500000*%
%ADD16P,2.061953X8X112.500000*%
%ADD17R,1.524000X1.524000*%
%ADD18C,0.756400*%
%ADD19C,2.540000*%
%ADD20C,1.000000*%
%ADD21C,1.016000*%

G36*
X601870Y10167D02*
X601870Y10167D01*
X601997Y10165D01*
X602255Y10187D01*
X602516Y10201D01*
X602642Y10220D01*
X602768Y10231D01*
X603023Y10280D01*
X603281Y10320D01*
X603404Y10353D01*
X603529Y10376D01*
X603778Y10452D01*
X604030Y10518D01*
X604148Y10563D01*
X604270Y10599D01*
X604511Y10700D01*
X604754Y10792D01*
X604867Y10849D01*
X604985Y10898D01*
X605213Y11022D01*
X605446Y11139D01*
X605553Y11207D01*
X605665Y11268D01*
X605880Y11416D01*
X606099Y11556D01*
X606198Y11634D01*
X606303Y11706D01*
X606501Y11876D01*
X606705Y12037D01*
X606796Y12126D01*
X606892Y12208D01*
X607072Y12397D01*
X607258Y12579D01*
X607339Y12677D01*
X607427Y12768D01*
X607587Y12974D01*
X607753Y13175D01*
X607823Y13280D01*
X607901Y13381D01*
X608039Y13602D01*
X608183Y13818D01*
X608242Y13930D01*
X608310Y14039D01*
X608423Y14273D01*
X608545Y14503D01*
X608592Y14621D01*
X608648Y14735D01*
X608737Y14980D01*
X608834Y15221D01*
X608869Y15343D01*
X608913Y15463D01*
X608976Y15716D01*
X609048Y15965D01*
X609070Y16090D01*
X609101Y16214D01*
X609138Y16472D01*
X609184Y16728D01*
X609193Y16854D01*
X609211Y16980D01*
X609221Y17241D01*
X609240Y17500D01*
X609236Y17627D01*
X609241Y17754D01*
X609225Y18013D01*
X609217Y18274D01*
X609200Y18400D01*
X609192Y18526D01*
X609162Y18683D01*
X609114Y19041D01*
X609016Y19444D01*
X608986Y19601D01*
X607299Y25898D01*
X607299Y32523D01*
X609014Y38922D01*
X612326Y44659D01*
X617011Y49344D01*
X622748Y52656D01*
X629147Y54371D01*
X635772Y54371D01*
X640599Y53077D01*
X640723Y53051D01*
X640845Y53016D01*
X641101Y52970D01*
X641356Y52916D01*
X641483Y52902D01*
X641608Y52880D01*
X641867Y52861D01*
X642126Y52833D01*
X642253Y52833D01*
X642380Y52824D01*
X642640Y52832D01*
X642901Y52831D01*
X643027Y52843D01*
X643154Y52847D01*
X643412Y52882D01*
X643671Y52908D01*
X643795Y52933D01*
X643921Y52950D01*
X644175Y53011D01*
X644429Y53064D01*
X644550Y53102D01*
X644674Y53132D01*
X644920Y53219D01*
X645168Y53297D01*
X645284Y53348D01*
X645404Y53390D01*
X645640Y53502D01*
X645878Y53606D01*
X645988Y53668D01*
X646103Y53723D01*
X646326Y53858D01*
X646553Y53986D01*
X646656Y54059D01*
X646765Y54125D01*
X646972Y54283D01*
X647184Y54433D01*
X647280Y54517D01*
X647381Y54594D01*
X647571Y54772D01*
X647767Y54943D01*
X647853Y55037D01*
X647946Y55123D01*
X648116Y55320D01*
X648293Y55511D01*
X648370Y55613D01*
X648453Y55709D01*
X648602Y55922D01*
X648759Y56130D01*
X648824Y56239D01*
X648897Y56343D01*
X649024Y56571D01*
X649158Y56794D01*
X649212Y56908D01*
X649273Y57020D01*
X649376Y57259D01*
X649486Y57495D01*
X649528Y57614D01*
X649578Y57731D01*
X649655Y57980D01*
X649741Y58226D01*
X649770Y58350D01*
X649807Y58471D01*
X649859Y58726D01*
X649918Y58980D01*
X649935Y59106D01*
X649959Y59230D01*
X649971Y59390D01*
X650017Y59748D01*
X650028Y60162D01*
X650039Y60321D01*
X650039Y133297D01*
X650031Y133450D01*
X650033Y133604D01*
X650011Y133837D01*
X649999Y134070D01*
X649976Y134222D01*
X649961Y134375D01*
X649916Y134604D01*
X649880Y134835D01*
X649841Y134984D01*
X649811Y135134D01*
X649742Y135358D01*
X649682Y135584D01*
X649628Y135727D01*
X649582Y135874D01*
X649491Y136090D01*
X649408Y136308D01*
X649339Y136445D01*
X649279Y136587D01*
X649166Y136791D01*
X649061Y137000D01*
X648978Y137130D01*
X648904Y137264D01*
X648770Y137456D01*
X648644Y137653D01*
X648549Y137773D01*
X648461Y137899D01*
X648308Y138076D01*
X648163Y138259D01*
X648055Y138369D01*
X647955Y138485D01*
X647785Y138645D01*
X647621Y138812D01*
X647503Y138911D01*
X647391Y139016D01*
X647205Y139157D01*
X647025Y139307D01*
X646897Y139392D01*
X646775Y139485D01*
X646576Y139607D01*
X646382Y139737D01*
X646246Y139809D01*
X646115Y139889D01*
X645904Y139990D01*
X645697Y140099D01*
X645555Y140156D01*
X645416Y140223D01*
X645196Y140301D01*
X644979Y140388D01*
X644831Y140431D01*
X644686Y140482D01*
X644459Y140537D01*
X644235Y140602D01*
X644084Y140629D01*
X643934Y140665D01*
X643702Y140697D01*
X643472Y140738D01*
X643319Y140749D01*
X643167Y140770D01*
X642933Y140777D01*
X642700Y140794D01*
X642547Y140790D01*
X642393Y140794D01*
X642160Y140778D01*
X641926Y140771D01*
X641774Y140750D01*
X641621Y140739D01*
X641391Y140699D01*
X641159Y140668D01*
X641009Y140631D01*
X640858Y140605D01*
X640634Y140541D01*
X640406Y140486D01*
X640261Y140435D01*
X640113Y140392D01*
X639897Y140306D01*
X639676Y140228D01*
X639537Y140161D01*
X639395Y140104D01*
X639188Y139996D01*
X638977Y139895D01*
X638846Y139815D01*
X638709Y139744D01*
X638515Y139614D01*
X638315Y139493D01*
X638193Y139400D01*
X638065Y139314D01*
X637949Y139214D01*
X637699Y139024D01*
X637351Y138697D01*
X637237Y138599D01*
X634079Y135441D01*
X596303Y97665D01*
X596254Y97611D01*
X596200Y97560D01*
X595995Y97323D01*
X595785Y97090D01*
X595741Y97031D01*
X595693Y96975D01*
X595513Y96718D01*
X595328Y96465D01*
X595291Y96401D01*
X595249Y96341D01*
X595097Y96067D01*
X594939Y95796D01*
X594908Y95729D01*
X594873Y95664D01*
X594749Y95376D01*
X594620Y95090D01*
X594597Y95020D01*
X594568Y94952D01*
X594475Y94653D01*
X594376Y94355D01*
X594360Y94283D01*
X594339Y94213D01*
X594277Y93905D01*
X594209Y93599D01*
X594201Y93526D01*
X594187Y93454D01*
X594176Y93304D01*
X594121Y92830D01*
X594118Y92516D01*
X594107Y92363D01*
X594107Y70985D01*
X592722Y65816D01*
X590047Y61183D01*
X589069Y60205D01*
X588968Y60093D01*
X588860Y59988D01*
X588709Y59806D01*
X588550Y59630D01*
X588461Y59508D01*
X588365Y59393D01*
X588234Y59196D01*
X588094Y59004D01*
X588018Y58874D01*
X587934Y58749D01*
X587865Y58611D01*
X587704Y58335D01*
X587511Y57907D01*
X587443Y57772D01*
X586423Y55310D01*
X582230Y51117D01*
X576751Y48847D01*
X570821Y48847D01*
X565342Y51117D01*
X561149Y55310D01*
X560129Y57772D01*
X560064Y57907D01*
X560008Y58047D01*
X559898Y58257D01*
X559796Y58471D01*
X559718Y58599D01*
X559648Y58733D01*
X559516Y58930D01*
X559393Y59132D01*
X559302Y59252D01*
X559218Y59377D01*
X559117Y59494D01*
X558924Y59748D01*
X558603Y60090D01*
X558503Y60205D01*
X557525Y61183D01*
X554850Y65816D01*
X553465Y70985D01*
X553465Y106561D01*
X554850Y111730D01*
X557525Y116363D01*
X584315Y143153D01*
X584418Y143267D01*
X584528Y143375D01*
X584678Y143555D01*
X584834Y143728D01*
X584924Y143852D01*
X585023Y143971D01*
X585153Y144165D01*
X585290Y144354D01*
X585368Y144487D01*
X585453Y144614D01*
X585562Y144821D01*
X585680Y145023D01*
X585743Y145163D01*
X585815Y145299D01*
X585902Y145516D01*
X585998Y145729D01*
X586047Y145875D01*
X586104Y146017D01*
X586169Y146242D01*
X586242Y146464D01*
X586276Y146614D01*
X586318Y146761D01*
X586359Y146991D01*
X586409Y147220D01*
X586427Y147372D01*
X586454Y147524D01*
X586471Y147757D01*
X586497Y147989D01*
X586499Y148143D01*
X586510Y148296D01*
X586503Y148529D01*
X586506Y148763D01*
X586491Y148916D01*
X586487Y149070D01*
X586456Y149302D01*
X586434Y149534D01*
X586404Y149685D01*
X586384Y149837D01*
X586329Y150065D01*
X586283Y150294D01*
X586238Y150440D01*
X586202Y150590D01*
X586124Y150810D01*
X586055Y151034D01*
X585995Y151175D01*
X585944Y151320D01*
X585843Y151531D01*
X585752Y151746D01*
X585677Y151880D01*
X585611Y152019D01*
X585490Y152219D01*
X585377Y152423D01*
X585289Y152549D01*
X585209Y152681D01*
X585067Y152867D01*
X584934Y153058D01*
X584833Y153175D01*
X584740Y153297D01*
X584580Y153468D01*
X584427Y153644D01*
X584316Y153750D01*
X584210Y153862D01*
X584034Y154015D01*
X583864Y154175D01*
X583742Y154268D01*
X583625Y154369D01*
X583434Y154503D01*
X583248Y154645D01*
X583117Y154725D01*
X582991Y154813D01*
X582787Y154926D01*
X582587Y155048D01*
X582448Y155115D01*
X582314Y155189D01*
X582099Y155281D01*
X581888Y155382D01*
X581744Y155433D01*
X581602Y155494D01*
X581379Y155563D01*
X581159Y155642D01*
X581010Y155678D01*
X580863Y155723D01*
X580634Y155769D01*
X580587Y155781D01*
X579261Y157107D01*
X579033Y157312D01*
X578809Y157523D01*
X578745Y157572D01*
X578686Y157625D01*
X578438Y157806D01*
X578193Y157993D01*
X578125Y158035D01*
X578060Y158082D01*
X577795Y158236D01*
X577533Y158396D01*
X577460Y158431D01*
X577391Y158471D01*
X577112Y158597D01*
X576834Y158730D01*
X576758Y158757D01*
X576685Y158790D01*
X576394Y158887D01*
X576104Y158990D01*
X576027Y159008D01*
X575950Y159034D01*
X575650Y159100D01*
X575352Y159173D01*
X575272Y159183D01*
X575194Y159201D01*
X574889Y159236D01*
X574585Y159277D01*
X574505Y159280D01*
X574425Y159289D01*
X574118Y159292D01*
X573811Y159302D01*
X573731Y159296D01*
X573651Y159297D01*
X573344Y159268D01*
X573038Y159247D01*
X572960Y159233D01*
X572880Y159225D01*
X572578Y159165D01*
X572276Y159112D01*
X572199Y159090D01*
X572120Y159075D01*
X571826Y158984D01*
X571531Y158900D01*
X571457Y158870D01*
X571380Y158846D01*
X571098Y158726D01*
X570813Y158612D01*
X570742Y158574D01*
X570668Y158543D01*
X570399Y158394D01*
X570127Y158251D01*
X570061Y158207D01*
X569991Y158168D01*
X569738Y157992D01*
X569483Y157822D01*
X569435Y157780D01*
X569356Y157725D01*
X568770Y157219D01*
X568703Y157148D01*
X568655Y157107D01*
X564895Y153346D01*
X564894Y153346D01*
X520263Y108714D01*
X520229Y108677D01*
X520192Y108643D01*
X519970Y108390D01*
X519744Y108139D01*
X519714Y108099D01*
X519681Y108061D01*
X519486Y107786D01*
X519288Y107514D01*
X519262Y107470D01*
X519233Y107429D01*
X519067Y107135D01*
X518898Y106844D01*
X518877Y106799D01*
X518853Y106755D01*
X518718Y106446D01*
X518580Y106139D01*
X518564Y106091D01*
X518544Y106045D01*
X518442Y105724D01*
X518336Y105404D01*
X518325Y105355D01*
X518310Y105307D01*
X518241Y104977D01*
X518169Y104648D01*
X518163Y104598D01*
X518153Y104549D01*
X518119Y104213D01*
X518081Y103878D01*
X518080Y103828D01*
X518075Y103778D01*
X518076Y103441D01*
X518072Y103104D01*
X518077Y103054D01*
X518077Y103004D01*
X518113Y102669D01*
X518144Y102333D01*
X518154Y102284D01*
X518159Y102234D01*
X518229Y101905D01*
X518295Y101574D01*
X518310Y101526D01*
X518320Y101477D01*
X518424Y101156D01*
X518523Y100834D01*
X518543Y100788D01*
X518558Y100740D01*
X518694Y100432D01*
X518826Y100121D01*
X518851Y100077D01*
X518871Y100032D01*
X519038Y99740D01*
X519201Y99444D01*
X519230Y99403D01*
X519255Y99359D01*
X519451Y99086D01*
X519644Y98809D01*
X519677Y98771D01*
X519706Y98730D01*
X519931Y98477D01*
X520151Y98223D01*
X520187Y98189D01*
X520220Y98151D01*
X520470Y97923D01*
X520714Y97692D01*
X520754Y97662D01*
X520791Y97628D01*
X521063Y97426D01*
X521330Y97223D01*
X521373Y97197D01*
X521413Y97167D01*
X521704Y96994D01*
X521991Y96819D01*
X522036Y96797D01*
X522079Y96772D01*
X522385Y96631D01*
X522689Y96485D01*
X522737Y96469D01*
X522782Y96448D01*
X523101Y96339D01*
X523419Y96226D01*
X523468Y96214D01*
X523515Y96198D01*
X523642Y96172D01*
X524171Y96043D01*
X524445Y96006D01*
X524587Y95976D01*
X525927Y95800D01*
X527503Y95378D01*
X529011Y94753D01*
X530424Y93937D01*
X531718Y92944D01*
X532872Y91790D01*
X533865Y90496D01*
X534681Y89083D01*
X535306Y87575D01*
X535728Y86000D01*
X535941Y84382D01*
X535941Y81159D01*
X523494Y81159D01*
X511047Y81159D01*
X511047Y84382D01*
X511260Y86000D01*
X511682Y87575D01*
X512307Y89083D01*
X513085Y90430D01*
X513237Y90728D01*
X513393Y91023D01*
X513413Y91072D01*
X513437Y91120D01*
X513557Y91432D01*
X513682Y91741D01*
X513697Y91792D01*
X513716Y91842D01*
X513804Y92165D01*
X513896Y92485D01*
X513905Y92538D01*
X513919Y92589D01*
X513973Y92919D01*
X514031Y93248D01*
X514035Y93301D01*
X514044Y93354D01*
X514064Y93687D01*
X514088Y94020D01*
X514086Y94073D01*
X514089Y94127D01*
X514075Y94460D01*
X514064Y94794D01*
X514057Y94847D01*
X514055Y94900D01*
X514006Y95229D01*
X513961Y95561D01*
X513949Y95613D01*
X513941Y95666D01*
X513858Y95988D01*
X513780Y96314D01*
X513762Y96364D01*
X513749Y96416D01*
X513633Y96728D01*
X513521Y97044D01*
X513498Y97092D01*
X513480Y97142D01*
X513332Y97442D01*
X513189Y97743D01*
X513161Y97789D01*
X513138Y97837D01*
X512960Y98119D01*
X512786Y98405D01*
X512754Y98447D01*
X512726Y98492D01*
X512520Y98755D01*
X512318Y99021D01*
X512281Y99060D01*
X512248Y99102D01*
X512017Y99342D01*
X511788Y99586D01*
X511748Y99621D01*
X511711Y99659D01*
X511455Y99874D01*
X511203Y100093D01*
X511159Y100124D01*
X511118Y100158D01*
X510842Y100345D01*
X510569Y100537D01*
X510522Y100563D01*
X510478Y100593D01*
X510184Y100751D01*
X509892Y100913D01*
X509843Y100934D01*
X509796Y100960D01*
X509488Y101086D01*
X509180Y101218D01*
X509129Y101234D01*
X509080Y101254D01*
X508760Y101348D01*
X508441Y101447D01*
X508388Y101458D01*
X508337Y101473D01*
X508009Y101534D01*
X507681Y101599D01*
X507638Y101603D01*
X507576Y101614D01*
X506804Y101676D01*
X506673Y101673D01*
X506590Y101679D01*
X472138Y101679D01*
X471984Y101671D01*
X471830Y101673D01*
X471598Y101651D01*
X471364Y101639D01*
X471213Y101616D01*
X471059Y101601D01*
X470830Y101556D01*
X470599Y101520D01*
X470451Y101481D01*
X470300Y101451D01*
X470076Y101382D01*
X469851Y101322D01*
X469707Y101268D01*
X469560Y101222D01*
X469345Y101131D01*
X469126Y101048D01*
X468989Y100979D01*
X468848Y100919D01*
X468643Y100806D01*
X468434Y100701D01*
X468305Y100618D01*
X468170Y100544D01*
X467979Y100410D01*
X467782Y100284D01*
X467661Y100189D01*
X467535Y100101D01*
X467358Y99948D01*
X467175Y99803D01*
X467066Y99695D01*
X466949Y99595D01*
X466789Y99425D01*
X466622Y99261D01*
X466524Y99143D01*
X466419Y99031D01*
X466277Y98845D01*
X466128Y98665D01*
X466042Y98537D01*
X465949Y98415D01*
X465827Y98216D01*
X465697Y98022D01*
X465625Y97886D01*
X465545Y97755D01*
X465445Y97544D01*
X465335Y97337D01*
X465278Y97195D01*
X465212Y97056D01*
X465133Y96836D01*
X465046Y96619D01*
X465004Y96471D01*
X464952Y96326D01*
X464897Y96099D01*
X464832Y95875D01*
X464805Y95724D01*
X464769Y95574D01*
X464737Y95342D01*
X464697Y95112D01*
X464685Y94959D01*
X464665Y94807D01*
X464657Y94573D01*
X464640Y94340D01*
X464645Y94187D01*
X464640Y94033D01*
X464656Y93800D01*
X464664Y93566D01*
X464684Y93414D01*
X464695Y93261D01*
X464735Y93031D01*
X464767Y92799D01*
X464803Y92649D01*
X464829Y92498D01*
X464893Y92274D01*
X464948Y92046D01*
X465000Y91901D01*
X465042Y91753D01*
X465129Y91537D01*
X465207Y91316D01*
X465273Y91177D01*
X465330Y91035D01*
X465439Y90828D01*
X465539Y90617D01*
X465619Y90486D01*
X465690Y90349D01*
X465820Y90155D01*
X465942Y89955D01*
X466034Y89833D01*
X466120Y89705D01*
X466220Y89589D01*
X466410Y89339D01*
X466737Y88991D01*
X466835Y88877D01*
X469059Y86653D01*
X469821Y84815D01*
X469821Y67585D01*
X469059Y65747D01*
X467653Y64341D01*
X465815Y63579D01*
X448585Y63579D01*
X447370Y64083D01*
X447300Y64107D01*
X447233Y64138D01*
X446936Y64237D01*
X446640Y64342D01*
X446569Y64359D01*
X446499Y64382D01*
X446193Y64450D01*
X445888Y64524D01*
X445815Y64534D01*
X445743Y64550D01*
X445432Y64586D01*
X445120Y64628D01*
X445046Y64630D01*
X444974Y64639D01*
X444661Y64642D01*
X444346Y64652D01*
X444273Y64647D01*
X444199Y64648D01*
X443887Y64619D01*
X443574Y64596D01*
X443502Y64583D01*
X443428Y64577D01*
X443120Y64516D01*
X442812Y64461D01*
X442741Y64441D01*
X442669Y64427D01*
X442526Y64379D01*
X442067Y64248D01*
X441776Y64131D01*
X441630Y64083D01*
X440415Y63579D01*
X423185Y63579D01*
X421347Y64341D01*
X419941Y65747D01*
X419179Y67585D01*
X419179Y84815D01*
X419941Y86653D01*
X422165Y88877D01*
X422268Y88991D01*
X422378Y89099D01*
X422527Y89279D01*
X422684Y89452D01*
X422774Y89576D01*
X422872Y89695D01*
X423002Y89889D01*
X423140Y90078D01*
X423217Y90211D01*
X423303Y90338D01*
X423412Y90545D01*
X423530Y90747D01*
X423593Y90887D01*
X423665Y91023D01*
X423752Y91240D01*
X423848Y91453D01*
X423897Y91598D01*
X423954Y91741D01*
X424018Y91966D01*
X424092Y92188D01*
X424125Y92338D01*
X424168Y92485D01*
X424209Y92715D01*
X424259Y92944D01*
X424277Y93096D01*
X424303Y93248D01*
X424320Y93481D01*
X424347Y93713D01*
X424349Y93867D01*
X424360Y94020D01*
X424353Y94253D01*
X424355Y94487D01*
X424341Y94640D01*
X424336Y94794D01*
X424305Y95026D01*
X424284Y95258D01*
X424254Y95409D01*
X424233Y95561D01*
X424178Y95789D01*
X424133Y96018D01*
X424088Y96164D01*
X424052Y96314D01*
X423974Y96535D01*
X423905Y96758D01*
X423845Y96899D01*
X423793Y97044D01*
X423693Y97255D01*
X423601Y97470D01*
X423527Y97604D01*
X423461Y97743D01*
X423340Y97943D01*
X423226Y98147D01*
X423138Y98274D01*
X423058Y98405D01*
X422917Y98590D01*
X422783Y98782D01*
X422683Y98899D01*
X422590Y99021D01*
X422430Y99191D01*
X422277Y99368D01*
X422165Y99474D01*
X422060Y99586D01*
X421884Y99739D01*
X421713Y99899D01*
X421591Y99992D01*
X421475Y100093D01*
X421284Y100227D01*
X421098Y100369D01*
X420966Y100449D01*
X420841Y100537D01*
X420636Y100651D01*
X420437Y100772D01*
X420299Y100839D01*
X420164Y100913D01*
X419949Y101005D01*
X419738Y101106D01*
X419594Y101157D01*
X419452Y101218D01*
X419229Y101287D01*
X419009Y101366D01*
X418859Y101402D01*
X418713Y101447D01*
X418483Y101493D01*
X418256Y101549D01*
X418104Y101569D01*
X417953Y101599D01*
X417800Y101611D01*
X417489Y101653D01*
X417012Y101668D01*
X416862Y101679D01*
X383238Y101679D01*
X383084Y101671D01*
X382930Y101673D01*
X382698Y101651D01*
X382464Y101639D01*
X382313Y101616D01*
X382159Y101601D01*
X381930Y101556D01*
X381699Y101520D01*
X381551Y101481D01*
X381400Y101451D01*
X381176Y101382D01*
X380951Y101322D01*
X380807Y101268D01*
X380660Y101222D01*
X380445Y101131D01*
X380226Y101048D01*
X380089Y100979D01*
X379948Y100919D01*
X379743Y100806D01*
X379534Y100701D01*
X379405Y100618D01*
X379270Y100544D01*
X379079Y100410D01*
X378882Y100284D01*
X378761Y100189D01*
X378635Y100101D01*
X378458Y99948D01*
X378275Y99803D01*
X378166Y99695D01*
X378049Y99595D01*
X377889Y99425D01*
X377722Y99261D01*
X377624Y99143D01*
X377519Y99031D01*
X377377Y98845D01*
X377228Y98665D01*
X377142Y98537D01*
X377049Y98415D01*
X376927Y98216D01*
X376797Y98022D01*
X376725Y97886D01*
X376645Y97755D01*
X376545Y97544D01*
X376435Y97337D01*
X376378Y97195D01*
X376312Y97056D01*
X376233Y96836D01*
X376146Y96619D01*
X376104Y96471D01*
X376052Y96326D01*
X375997Y96099D01*
X375932Y95875D01*
X375905Y95724D01*
X375869Y95574D01*
X375837Y95342D01*
X375797Y95112D01*
X375785Y94959D01*
X375765Y94807D01*
X375757Y94573D01*
X375740Y94340D01*
X375745Y94187D01*
X375740Y94033D01*
X375756Y93800D01*
X375764Y93566D01*
X375784Y93414D01*
X375795Y93261D01*
X375835Y93031D01*
X375867Y92799D01*
X375903Y92649D01*
X375929Y92498D01*
X375993Y92274D01*
X376048Y92046D01*
X376100Y91901D01*
X376142Y91753D01*
X376229Y91537D01*
X376307Y91316D01*
X376373Y91177D01*
X376430Y91035D01*
X376539Y90828D01*
X376639Y90617D01*
X376719Y90486D01*
X376790Y90349D01*
X376920Y90155D01*
X377042Y89955D01*
X377134Y89833D01*
X377220Y89705D01*
X377320Y89589D01*
X377510Y89339D01*
X377837Y88991D01*
X377935Y88877D01*
X380159Y86653D01*
X380921Y84815D01*
X380921Y67585D01*
X380159Y65747D01*
X378753Y64341D01*
X376915Y63579D01*
X359685Y63579D01*
X358470Y64083D01*
X358400Y64107D01*
X358333Y64138D01*
X358036Y64237D01*
X357740Y64342D01*
X357669Y64359D01*
X357599Y64382D01*
X357293Y64450D01*
X356988Y64524D01*
X356915Y64534D01*
X356843Y64550D01*
X356532Y64586D01*
X356220Y64628D01*
X356146Y64630D01*
X356074Y64639D01*
X355761Y64642D01*
X355446Y64652D01*
X355373Y64647D01*
X355299Y64648D01*
X354987Y64619D01*
X354674Y64596D01*
X354602Y64583D01*
X354528Y64577D01*
X354220Y64516D01*
X353912Y64461D01*
X353841Y64441D01*
X353769Y64427D01*
X353626Y64379D01*
X353167Y64248D01*
X352876Y64131D01*
X352730Y64083D01*
X351515Y63579D01*
X334285Y63579D01*
X332447Y64341D01*
X331041Y65747D01*
X330279Y67585D01*
X330279Y78426D01*
X330271Y78579D01*
X330273Y78733D01*
X330251Y78966D01*
X330239Y79199D01*
X330216Y79351D01*
X330201Y79504D01*
X330156Y79734D01*
X330120Y79964D01*
X330081Y80113D01*
X330051Y80264D01*
X329982Y80487D01*
X329922Y80713D01*
X329868Y80857D01*
X329822Y81004D01*
X329731Y81219D01*
X329648Y81437D01*
X329579Y81575D01*
X329519Y81716D01*
X329406Y81920D01*
X329301Y82129D01*
X329218Y82259D01*
X329144Y82393D01*
X329010Y82585D01*
X328884Y82782D01*
X328789Y82902D01*
X328701Y83028D01*
X328548Y83205D01*
X328403Y83388D01*
X328295Y83498D01*
X328195Y83614D01*
X328025Y83774D01*
X327861Y83942D01*
X327743Y84040D01*
X327631Y84145D01*
X327446Y84287D01*
X327265Y84436D01*
X327137Y84522D01*
X327015Y84615D01*
X326816Y84737D01*
X326622Y84867D01*
X326486Y84938D01*
X326355Y85019D01*
X326144Y85119D01*
X325937Y85228D01*
X325794Y85286D01*
X325656Y85352D01*
X325436Y85430D01*
X325219Y85518D01*
X325071Y85560D01*
X324926Y85612D01*
X324699Y85667D01*
X324475Y85731D01*
X324324Y85758D01*
X324174Y85795D01*
X323942Y85826D01*
X323712Y85867D01*
X323559Y85878D01*
X323407Y85899D01*
X323173Y85907D01*
X322940Y85924D01*
X322787Y85919D01*
X322633Y85924D01*
X322400Y85907D01*
X322166Y85900D01*
X322014Y85880D01*
X321861Y85869D01*
X321631Y85828D01*
X321399Y85797D01*
X321249Y85761D01*
X321098Y85734D01*
X320874Y85670D01*
X320646Y85615D01*
X320501Y85564D01*
X320353Y85522D01*
X320136Y85435D01*
X319916Y85357D01*
X319777Y85291D01*
X319635Y85234D01*
X319428Y85125D01*
X319217Y85025D01*
X319085Y84945D01*
X318950Y84873D01*
X318755Y84744D01*
X318555Y84622D01*
X318433Y84529D01*
X318305Y84444D01*
X318189Y84344D01*
X317939Y84154D01*
X317591Y83827D01*
X317477Y83729D01*
X316554Y82806D01*
X316554Y82805D01*
X311949Y78201D01*
X307310Y76279D01*
X251490Y76279D01*
X246851Y78201D01*
X206471Y118581D01*
X204549Y123220D01*
X204549Y149806D01*
X204533Y150113D01*
X204524Y150420D01*
X204513Y150499D01*
X204509Y150579D01*
X204462Y150882D01*
X204421Y151187D01*
X204402Y151265D01*
X204390Y151344D01*
X204312Y151641D01*
X204239Y151940D01*
X204212Y152016D01*
X204192Y152093D01*
X204084Y152379D01*
X203981Y152670D01*
X203946Y152742D01*
X203918Y152817D01*
X203781Y153091D01*
X203649Y153369D01*
X203607Y153438D01*
X203571Y153509D01*
X203406Y153768D01*
X203246Y154031D01*
X203198Y154094D01*
X203154Y154162D01*
X202964Y154402D01*
X202777Y154647D01*
X202723Y154706D01*
X202673Y154768D01*
X202458Y154988D01*
X202248Y155212D01*
X202187Y155264D01*
X202131Y155322D01*
X201894Y155518D01*
X201663Y155719D01*
X201597Y155765D01*
X201535Y155816D01*
X201280Y155987D01*
X201028Y156163D01*
X200958Y156202D01*
X200892Y156247D01*
X200620Y156390D01*
X200352Y156539D01*
X200278Y156571D01*
X200207Y156608D01*
X199922Y156723D01*
X199640Y156844D01*
X199563Y156868D01*
X199489Y156898D01*
X199194Y156982D01*
X198900Y157073D01*
X198822Y157089D01*
X198745Y157111D01*
X198443Y157165D01*
X198141Y157225D01*
X198077Y157230D01*
X197982Y157247D01*
X197210Y157304D01*
X197114Y157301D01*
X197050Y157305D01*
X186963Y157305D01*
X180165Y164103D01*
X180165Y173717D01*
X186963Y180515D01*
X197050Y180515D01*
X197357Y180531D01*
X197664Y180540D01*
X197743Y180551D01*
X197823Y180555D01*
X198126Y180602D01*
X198431Y180643D01*
X198509Y180662D01*
X198588Y180674D01*
X198885Y180752D01*
X199184Y180825D01*
X199260Y180852D01*
X199337Y180872D01*
X199623Y180980D01*
X199914Y181083D01*
X199986Y181118D01*
X200061Y181146D01*
X200335Y181283D01*
X200613Y181415D01*
X200682Y181457D01*
X200753Y181493D01*
X201012Y181658D01*
X201275Y181818D01*
X201338Y181866D01*
X201406Y181910D01*
X201646Y182100D01*
X201891Y182287D01*
X201950Y182341D01*
X202012Y182391D01*
X202232Y182606D01*
X202456Y182816D01*
X202508Y182877D01*
X202566Y182933D01*
X202762Y183170D01*
X202963Y183401D01*
X203009Y183467D01*
X203060Y183529D01*
X203231Y183784D01*
X203407Y184036D01*
X203446Y184106D01*
X203491Y184172D01*
X203634Y184444D01*
X203783Y184712D01*
X203815Y184786D01*
X203852Y184857D01*
X203967Y185142D01*
X204088Y185424D01*
X204112Y185501D01*
X204142Y185575D01*
X204226Y185870D01*
X204317Y186164D01*
X204333Y186242D01*
X204355Y186319D01*
X204409Y186621D01*
X204469Y186923D01*
X204474Y186987D01*
X204491Y187082D01*
X204548Y187854D01*
X204545Y187950D01*
X204549Y188014D01*
X204549Y236776D01*
X204545Y236850D01*
X204548Y236923D01*
X204525Y237236D01*
X204509Y237549D01*
X204498Y237622D01*
X204493Y237695D01*
X204438Y238005D01*
X204390Y238314D01*
X204371Y238386D01*
X204358Y238458D01*
X204272Y238760D01*
X204192Y239063D01*
X204166Y239132D01*
X204146Y239203D01*
X204029Y239495D01*
X203918Y239787D01*
X203885Y239853D01*
X203858Y239921D01*
X203712Y240199D01*
X203571Y240479D01*
X203531Y240542D01*
X203497Y240607D01*
X203323Y240867D01*
X203154Y241132D01*
X203109Y241190D01*
X203068Y241251D01*
X202970Y241365D01*
X202673Y241738D01*
X202453Y241962D01*
X202353Y242079D01*
X189697Y254735D01*
X189525Y254889D01*
X189361Y255051D01*
X189238Y255148D01*
X189122Y255253D01*
X188936Y255389D01*
X188755Y255533D01*
X188623Y255617D01*
X188496Y255710D01*
X188297Y255826D01*
X188103Y255950D01*
X187963Y256020D01*
X187827Y256099D01*
X187617Y256194D01*
X187411Y256298D01*
X187264Y256353D01*
X187121Y256418D01*
X186902Y256491D01*
X186687Y256572D01*
X186535Y256612D01*
X186386Y256662D01*
X186161Y256712D01*
X185939Y256771D01*
X185784Y256795D01*
X185630Y256829D01*
X185401Y256855D01*
X185174Y256891D01*
X185017Y256899D01*
X184861Y256917D01*
X184630Y256919D01*
X184400Y256931D01*
X184244Y256923D01*
X184087Y256925D01*
X183857Y256904D01*
X183627Y256892D01*
X183472Y256868D01*
X183316Y256853D01*
X183090Y256809D01*
X182862Y256773D01*
X182710Y256733D01*
X182556Y256703D01*
X182336Y256635D01*
X182113Y256576D01*
X181966Y256521D01*
X181816Y256475D01*
X181604Y256384D01*
X181389Y256303D01*
X181248Y256233D01*
X181104Y256171D01*
X180903Y256060D01*
X180696Y255956D01*
X180564Y255872D01*
X180427Y255796D01*
X180238Y255664D01*
X180043Y255540D01*
X179920Y255443D01*
X179792Y255353D01*
X179617Y255202D01*
X179437Y255059D01*
X179324Y254950D01*
X179206Y254847D01*
X179048Y254679D01*
X178883Y254518D01*
X178782Y254397D01*
X178675Y254283D01*
X178535Y254100D01*
X178388Y253923D01*
X178300Y253792D01*
X178205Y253668D01*
X178085Y253471D01*
X177957Y253279D01*
X177904Y253175D01*
X177801Y253007D01*
X177468Y252308D01*
X177467Y252304D01*
X177466Y252302D01*
X175446Y247426D01*
X174622Y246603D01*
X174417Y246375D01*
X174206Y246151D01*
X174157Y246087D01*
X174104Y246028D01*
X173923Y245779D01*
X173736Y245535D01*
X173695Y245467D01*
X173647Y245402D01*
X173493Y245137D01*
X173333Y244875D01*
X173298Y244802D01*
X173258Y244733D01*
X173131Y244453D01*
X172999Y244176D01*
X172972Y244100D01*
X172939Y244027D01*
X172843Y243736D01*
X172740Y243446D01*
X172721Y243368D01*
X172695Y243292D01*
X172629Y242993D01*
X172557Y242694D01*
X172546Y242615D01*
X172528Y242536D01*
X172494Y242231D01*
X172452Y241927D01*
X172450Y241847D01*
X172440Y241767D01*
X172437Y241460D01*
X172427Y241153D01*
X172433Y241073D01*
X172432Y240993D01*
X172461Y240686D01*
X172482Y240380D01*
X172496Y240302D01*
X172504Y240222D01*
X172564Y239920D01*
X172617Y239618D01*
X172639Y239541D01*
X172654Y239462D01*
X172745Y239169D01*
X172829Y238873D01*
X172859Y238799D01*
X172883Y238722D01*
X173003Y238440D01*
X173117Y238155D01*
X173155Y238084D01*
X173186Y238010D01*
X173335Y237741D01*
X173478Y237469D01*
X173522Y237403D01*
X173561Y237333D01*
X173737Y237080D01*
X173907Y236825D01*
X173949Y236777D01*
X174004Y236698D01*
X174510Y236112D01*
X174581Y236045D01*
X174622Y235997D01*
X175446Y235174D01*
X177213Y230908D01*
X177213Y226292D01*
X175446Y222026D01*
X172182Y218762D01*
X167916Y216995D01*
X150092Y216995D01*
X145826Y218762D01*
X142562Y222026D01*
X140795Y226292D01*
X140795Y230908D01*
X142562Y235174D01*
X143386Y235997D01*
X143592Y236226D01*
X143802Y236449D01*
X143850Y236513D01*
X143904Y236572D01*
X144086Y236821D01*
X144272Y237065D01*
X144313Y237133D01*
X144361Y237198D01*
X144515Y237463D01*
X144675Y237725D01*
X144710Y237798D01*
X144750Y237867D01*
X144877Y238147D01*
X145009Y238424D01*
X145036Y238499D01*
X145069Y238573D01*
X145166Y238865D01*
X145268Y239154D01*
X145287Y239231D01*
X145313Y239307D01*
X145379Y239608D01*
X145451Y239906D01*
X145462Y239985D01*
X145480Y240064D01*
X145514Y240369D01*
X145556Y240673D01*
X145558Y240753D01*
X145568Y240833D01*
X145571Y241140D01*
X145581Y241447D01*
X145575Y241527D01*
X145576Y241607D01*
X145547Y241913D01*
X145526Y242219D01*
X145512Y242299D01*
X145504Y242378D01*
X145445Y242679D01*
X145391Y242982D01*
X145369Y243059D01*
X145354Y243138D01*
X145263Y243431D01*
X145179Y243727D01*
X145149Y243801D01*
X145125Y243877D01*
X145005Y244160D01*
X144891Y244445D01*
X144853Y244516D01*
X144822Y244590D01*
X144673Y244858D01*
X144530Y245130D01*
X144486Y245197D01*
X144447Y245267D01*
X144271Y245520D01*
X144101Y245775D01*
X144059Y245823D01*
X144004Y245902D01*
X143498Y246488D01*
X143427Y246554D01*
X143386Y246603D01*
X142562Y247426D01*
X140795Y251692D01*
X140795Y256308D01*
X142562Y260574D01*
X145826Y263838D01*
X150092Y265605D01*
X167916Y265605D01*
X168780Y265247D01*
X168997Y265170D01*
X169211Y265084D01*
X169362Y265040D01*
X169510Y264988D01*
X169734Y264934D01*
X169955Y264870D01*
X170109Y264843D01*
X170262Y264806D01*
X170491Y264775D01*
X170718Y264734D01*
X170874Y264723D01*
X171030Y264702D01*
X171260Y264695D01*
X171490Y264678D01*
X171647Y264683D01*
X171804Y264678D01*
X172033Y264694D01*
X172264Y264701D01*
X172420Y264722D01*
X172576Y264733D01*
X172802Y264774D01*
X173031Y264804D01*
X173184Y264841D01*
X173338Y264869D01*
X173560Y264932D01*
X173784Y264986D01*
X173932Y265038D01*
X174083Y265082D01*
X174296Y265167D01*
X174514Y265244D01*
X174656Y265312D01*
X174801Y265370D01*
X175005Y265478D01*
X175213Y265577D01*
X175347Y265658D01*
X175486Y265731D01*
X175678Y265859D01*
X175875Y265979D01*
X175999Y266074D01*
X176130Y266161D01*
X176308Y266308D01*
X176491Y266448D01*
X176605Y266555D01*
X176726Y266655D01*
X176888Y266820D01*
X177056Y266978D01*
X177159Y267096D01*
X177268Y267208D01*
X177412Y267389D01*
X177563Y267563D01*
X177653Y267691D01*
X177751Y267814D01*
X177875Y268008D01*
X178007Y268197D01*
X178083Y268334D01*
X178168Y268466D01*
X178271Y268672D01*
X178383Y268874D01*
X178445Y269018D01*
X178516Y269158D01*
X178597Y269373D01*
X178688Y269586D01*
X178734Y269736D01*
X178790Y269882D01*
X178849Y270105D01*
X178917Y270325D01*
X178948Y270479D01*
X178988Y270631D01*
X179024Y270858D01*
X179069Y271084D01*
X179078Y271200D01*
X179109Y271395D01*
X179149Y272169D01*
X179149Y272173D01*
X179149Y272175D01*
X179149Y276146D01*
X179145Y276220D01*
X179148Y276293D01*
X179125Y276606D01*
X179109Y276919D01*
X179098Y276992D01*
X179093Y277065D01*
X179038Y277375D01*
X178990Y277684D01*
X178971Y277756D01*
X178958Y277828D01*
X178872Y278130D01*
X178792Y278433D01*
X178766Y278502D01*
X178746Y278573D01*
X178629Y278865D01*
X178518Y279157D01*
X178485Y279223D01*
X178458Y279291D01*
X178312Y279569D01*
X178171Y279849D01*
X178131Y279912D01*
X178097Y279977D01*
X177923Y280237D01*
X177754Y280502D01*
X177709Y280560D01*
X177668Y280621D01*
X177570Y280735D01*
X177273Y281108D01*
X177053Y281332D01*
X176953Y281449D01*
X167101Y291301D01*
X166655Y292376D01*
X166591Y292511D01*
X166535Y292651D01*
X166424Y292861D01*
X166323Y293075D01*
X166244Y293203D01*
X166174Y293336D01*
X166043Y293533D01*
X166030Y293554D01*
X165997Y293679D01*
X165968Y293826D01*
X165920Y293973D01*
X165838Y294282D01*
X165672Y294720D01*
X165624Y294865D01*
X165179Y295940D01*
X165179Y300960D01*
X165624Y302035D01*
X165675Y302177D01*
X165734Y302315D01*
X165804Y302542D01*
X165883Y302765D01*
X165919Y302911D01*
X165963Y303055D01*
X166010Y303287D01*
X166016Y303310D01*
X166081Y303422D01*
X166164Y303547D01*
X166234Y303685D01*
X166394Y303961D01*
X166587Y304389D01*
X166655Y304524D01*
X167101Y305599D01*
X170651Y309149D01*
X171726Y309595D01*
X171861Y309659D01*
X172001Y309715D01*
X172211Y309826D01*
X172425Y309927D01*
X172553Y310006D01*
X172686Y310076D01*
X172883Y310207D01*
X172904Y310220D01*
X173029Y310253D01*
X173176Y310282D01*
X173323Y310330D01*
X173632Y310412D01*
X174070Y310578D01*
X174215Y310626D01*
X175290Y311071D01*
X180310Y311071D01*
X181385Y310626D01*
X181527Y310575D01*
X181665Y310516D01*
X181892Y310446D01*
X182115Y310367D01*
X182261Y310331D01*
X182405Y310287D01*
X182637Y310240D01*
X182660Y310234D01*
X182772Y310169D01*
X182897Y310086D01*
X183035Y310016D01*
X183311Y309856D01*
X183739Y309663D01*
X183874Y309595D01*
X184949Y309149D01*
X202469Y291629D01*
X204391Y286990D01*
X204391Y278844D01*
X204395Y278770D01*
X204392Y278697D01*
X204415Y278384D01*
X204431Y278071D01*
X204442Y277998D01*
X204447Y277925D01*
X204502Y277615D01*
X204550Y277306D01*
X204569Y277234D01*
X204582Y277162D01*
X204668Y276859D01*
X204748Y276557D01*
X204774Y276488D01*
X204794Y276417D01*
X204911Y276126D01*
X205022Y275833D01*
X205055Y275767D01*
X205082Y275699D01*
X205228Y275421D01*
X205369Y275141D01*
X205409Y275078D01*
X205443Y275013D01*
X205617Y274752D01*
X205786Y274488D01*
X205831Y274431D01*
X205872Y274369D01*
X205971Y274255D01*
X206267Y273882D01*
X206487Y273657D01*
X206587Y273541D01*
X215877Y264251D01*
X215991Y264148D01*
X216099Y264038D01*
X216279Y263889D01*
X216452Y263733D01*
X216576Y263642D01*
X216695Y263544D01*
X216889Y263414D01*
X217078Y263276D01*
X217211Y263199D01*
X217338Y263113D01*
X217545Y263004D01*
X217747Y262887D01*
X217887Y262823D01*
X218023Y262752D01*
X218240Y262664D01*
X218453Y262568D01*
X218598Y262520D01*
X218741Y262462D01*
X218966Y262398D01*
X219188Y262324D01*
X219338Y262291D01*
X219485Y262249D01*
X219715Y262208D01*
X219944Y262157D01*
X220096Y262140D01*
X220248Y262113D01*
X220481Y262096D01*
X220713Y262069D01*
X220867Y262068D01*
X221020Y262056D01*
X221253Y262063D01*
X221487Y262061D01*
X221640Y262075D01*
X221794Y262080D01*
X222026Y262111D01*
X222258Y262133D01*
X222409Y262162D01*
X222561Y262183D01*
X222789Y262238D01*
X223018Y262283D01*
X223164Y262329D01*
X223314Y262365D01*
X223534Y262443D01*
X223758Y262512D01*
X223899Y262572D01*
X224044Y262623D01*
X224255Y262723D01*
X224470Y262815D01*
X224604Y262889D01*
X224743Y262955D01*
X224943Y263077D01*
X225147Y263190D01*
X225273Y263278D01*
X225405Y263358D01*
X225591Y263499D01*
X225782Y263633D01*
X225899Y263733D01*
X226021Y263826D01*
X226192Y263986D01*
X226368Y264139D01*
X226474Y264251D01*
X226586Y264356D01*
X226739Y264533D01*
X226899Y264703D01*
X226992Y264825D01*
X227093Y264941D01*
X227227Y265133D01*
X227369Y265319D01*
X227449Y265450D01*
X227537Y265576D01*
X227651Y265780D01*
X227772Y265979D01*
X227839Y266118D01*
X227913Y266252D01*
X228005Y266467D01*
X228106Y266678D01*
X228157Y266823D01*
X228218Y266964D01*
X228287Y267187D01*
X228366Y267408D01*
X228402Y267557D01*
X228447Y267704D01*
X228493Y267933D01*
X228549Y268160D01*
X228569Y268312D01*
X228599Y268463D01*
X228611Y268616D01*
X228653Y268927D01*
X228668Y269404D01*
X228679Y269554D01*
X228679Y398066D01*
X228675Y398140D01*
X228678Y398213D01*
X228655Y398526D01*
X228639Y398839D01*
X228628Y398912D01*
X228623Y398985D01*
X228568Y399295D01*
X228520Y399604D01*
X228501Y399676D01*
X228488Y399748D01*
X228402Y400050D01*
X228322Y400353D01*
X228296Y400422D01*
X228276Y400493D01*
X228159Y400784D01*
X228048Y401077D01*
X228015Y401143D01*
X227988Y401211D01*
X227842Y401489D01*
X227701Y401769D01*
X227661Y401832D01*
X227627Y401897D01*
X227453Y402157D01*
X227284Y402422D01*
X227239Y402480D01*
X227198Y402541D01*
X227100Y402655D01*
X226803Y403028D01*
X226583Y403252D01*
X226483Y403369D01*
X175509Y454343D01*
X175337Y454497D01*
X175173Y454658D01*
X175050Y454756D01*
X174934Y454861D01*
X174747Y454997D01*
X174567Y455141D01*
X174435Y455225D01*
X174308Y455318D01*
X174109Y455434D01*
X173915Y455558D01*
X173775Y455628D01*
X173639Y455707D01*
X173429Y455802D01*
X173223Y455906D01*
X173076Y455961D01*
X172933Y456026D01*
X172715Y456098D01*
X172499Y456180D01*
X172347Y456220D01*
X172199Y456270D01*
X171973Y456319D01*
X171751Y456378D01*
X171596Y456403D01*
X171442Y456437D01*
X171213Y456463D01*
X170986Y456499D01*
X170829Y456507D01*
X170673Y456525D01*
X170443Y456527D01*
X170213Y456539D01*
X170056Y456531D01*
X169899Y456533D01*
X169669Y456512D01*
X169439Y456500D01*
X169284Y456476D01*
X169128Y456461D01*
X168902Y456417D01*
X168674Y456381D01*
X168522Y456341D01*
X168368Y456311D01*
X168148Y456243D01*
X167925Y456184D01*
X167778Y456129D01*
X167629Y456082D01*
X167417Y455992D01*
X167201Y455911D01*
X167060Y455841D01*
X166916Y455779D01*
X166715Y455668D01*
X166508Y455564D01*
X166376Y455480D01*
X166239Y455404D01*
X166050Y455272D01*
X165855Y455148D01*
X165733Y455051D01*
X165604Y454961D01*
X165429Y454810D01*
X165249Y454667D01*
X165136Y454557D01*
X165018Y454455D01*
X164860Y454287D01*
X164695Y454126D01*
X164594Y454005D01*
X164487Y453891D01*
X164347Y453708D01*
X164200Y453531D01*
X164112Y453400D01*
X164017Y453275D01*
X163897Y453079D01*
X163769Y452887D01*
X163717Y452783D01*
X163614Y452615D01*
X163280Y451916D01*
X163279Y451912D01*
X163278Y451910D01*
X162746Y450626D01*
X161922Y449803D01*
X161717Y449575D01*
X161506Y449351D01*
X161457Y449287D01*
X161404Y449228D01*
X161223Y448979D01*
X161036Y448735D01*
X160995Y448667D01*
X160947Y448602D01*
X160793Y448337D01*
X160633Y448075D01*
X160598Y448002D01*
X160558Y447933D01*
X160431Y447653D01*
X160299Y447376D01*
X160272Y447300D01*
X160239Y447227D01*
X160143Y446936D01*
X160040Y446646D01*
X160021Y446568D01*
X159995Y446492D01*
X159929Y446193D01*
X159857Y445894D01*
X159846Y445815D01*
X159828Y445736D01*
X159794Y445431D01*
X159752Y445127D01*
X159750Y445047D01*
X159740Y444967D01*
X159737Y444660D01*
X159727Y444353D01*
X159733Y444273D01*
X159732Y444193D01*
X159761Y443886D01*
X159782Y443580D01*
X159796Y443502D01*
X159804Y443422D01*
X159864Y443120D01*
X159917Y442818D01*
X159939Y442741D01*
X159954Y442662D01*
X160045Y442369D01*
X160129Y442073D01*
X160159Y441999D01*
X160183Y441922D01*
X160303Y441640D01*
X160417Y441355D01*
X160455Y441284D01*
X160486Y441210D01*
X160635Y440941D01*
X160778Y440669D01*
X160822Y440603D01*
X160861Y440533D01*
X161037Y440280D01*
X161207Y440025D01*
X161249Y439977D01*
X161304Y439898D01*
X161810Y439312D01*
X161881Y439245D01*
X161922Y439197D01*
X162746Y438374D01*
X164513Y434108D01*
X164513Y429492D01*
X162746Y425226D01*
X159482Y421962D01*
X155216Y420195D01*
X137392Y420195D01*
X133126Y421962D01*
X129862Y425226D01*
X128095Y429492D01*
X128095Y434108D01*
X129862Y438374D01*
X130686Y439197D01*
X130892Y439426D01*
X131102Y439649D01*
X131150Y439713D01*
X131204Y439772D01*
X131386Y440021D01*
X131572Y440265D01*
X131613Y440333D01*
X131661Y440398D01*
X131815Y440663D01*
X131975Y440925D01*
X132010Y440998D01*
X132050Y441067D01*
X132177Y441347D01*
X132309Y441624D01*
X132336Y441699D01*
X132369Y441773D01*
X132466Y442065D01*
X132568Y442354D01*
X132587Y442431D01*
X132613Y442507D01*
X132679Y442808D01*
X132751Y443106D01*
X132762Y443185D01*
X132780Y443264D01*
X132814Y443569D01*
X132856Y443873D01*
X132858Y443953D01*
X132868Y444033D01*
X132871Y444340D01*
X132881Y444647D01*
X132875Y444727D01*
X132876Y444807D01*
X132847Y445113D01*
X132826Y445419D01*
X132812Y445499D01*
X132804Y445578D01*
X132745Y445879D01*
X132691Y446182D01*
X132669Y446259D01*
X132654Y446338D01*
X132563Y446631D01*
X132479Y446927D01*
X132449Y447001D01*
X132425Y447077D01*
X132305Y447360D01*
X132191Y447645D01*
X132153Y447716D01*
X132122Y447790D01*
X131973Y448058D01*
X131830Y448330D01*
X131786Y448397D01*
X131747Y448467D01*
X131571Y448720D01*
X131401Y448975D01*
X131359Y449023D01*
X131304Y449102D01*
X130798Y449688D01*
X130727Y449754D01*
X130686Y449803D01*
X129862Y450626D01*
X128095Y454892D01*
X128095Y459508D01*
X129862Y463774D01*
X133126Y467038D01*
X137392Y468805D01*
X155642Y468805D01*
X155795Y468813D01*
X155949Y468811D01*
X156182Y468833D01*
X156415Y468845D01*
X156567Y468868D01*
X156720Y468883D01*
X156950Y468928D01*
X157180Y468964D01*
X157329Y469003D01*
X157480Y469033D01*
X157704Y469102D01*
X157929Y469162D01*
X158073Y469216D01*
X158220Y469262D01*
X158435Y469353D01*
X158653Y469436D01*
X158790Y469505D01*
X158932Y469565D01*
X159137Y469678D01*
X159345Y469783D01*
X159475Y469866D01*
X159609Y469940D01*
X159801Y470074D01*
X159998Y470200D01*
X160118Y470295D01*
X160244Y470383D01*
X160421Y470536D01*
X160604Y470681D01*
X160714Y470789D01*
X160830Y470889D01*
X160991Y471059D01*
X161158Y471223D01*
X161256Y471341D01*
X161361Y471453D01*
X161503Y471639D01*
X161652Y471819D01*
X161738Y471947D01*
X161831Y472069D01*
X161953Y472268D01*
X162083Y472462D01*
X162154Y472598D01*
X162235Y472729D01*
X162335Y472940D01*
X162444Y473147D01*
X162502Y473290D01*
X162568Y473428D01*
X162646Y473648D01*
X162734Y473865D01*
X162776Y474013D01*
X162828Y474158D01*
X162883Y474385D01*
X162947Y474609D01*
X162974Y474760D01*
X163011Y474910D01*
X163042Y475142D01*
X163083Y475372D01*
X163094Y475525D01*
X163115Y475677D01*
X163123Y475911D01*
X163140Y476144D01*
X163135Y476297D01*
X163140Y476451D01*
X163123Y476684D01*
X163116Y476918D01*
X163096Y477070D01*
X163085Y477223D01*
X163044Y477453D01*
X163013Y477685D01*
X162977Y477835D01*
X162950Y477986D01*
X162886Y478211D01*
X162831Y478438D01*
X162780Y478583D01*
X162738Y478731D01*
X162651Y478948D01*
X162573Y479168D01*
X162507Y479307D01*
X162450Y479449D01*
X162341Y479656D01*
X162241Y479867D01*
X162161Y479998D01*
X162089Y480135D01*
X161960Y480329D01*
X161838Y480529D01*
X161745Y480651D01*
X161660Y480779D01*
X161560Y480895D01*
X161370Y481145D01*
X161043Y481493D01*
X160945Y481607D01*
X150116Y492436D01*
X145511Y497041D01*
X143589Y501680D01*
X143589Y515590D01*
X144034Y516665D01*
X144085Y516807D01*
X144144Y516945D01*
X144214Y517172D01*
X144293Y517395D01*
X144329Y517541D01*
X144373Y517685D01*
X144420Y517917D01*
X144426Y517940D01*
X144491Y518052D01*
X144574Y518177D01*
X144644Y518315D01*
X144804Y518591D01*
X144997Y519018D01*
X145066Y519154D01*
X145511Y520229D01*
X149061Y523779D01*
X150136Y524224D01*
X150271Y524289D01*
X150411Y524345D01*
X150621Y524456D01*
X150835Y524557D01*
X150963Y524636D01*
X151096Y524706D01*
X151294Y524837D01*
X151314Y524850D01*
X151439Y524883D01*
X151586Y524912D01*
X151733Y524960D01*
X152042Y525042D01*
X152480Y525208D01*
X152625Y525256D01*
X153700Y525701D01*
X158720Y525701D01*
X159795Y525256D01*
X159937Y525205D01*
X160075Y525146D01*
X160302Y525076D01*
X160525Y524997D01*
X160671Y524961D01*
X160815Y524917D01*
X161047Y524870D01*
X161070Y524864D01*
X161182Y524799D01*
X161307Y524716D01*
X161445Y524646D01*
X161721Y524486D01*
X162148Y524293D01*
X162284Y524224D01*
X163359Y523779D01*
X166909Y520229D01*
X167354Y519154D01*
X167419Y519019D01*
X167475Y518879D01*
X167586Y518669D01*
X167687Y518455D01*
X167766Y518327D01*
X167836Y518194D01*
X167967Y517996D01*
X167980Y517976D01*
X168013Y517851D01*
X168042Y517704D01*
X168090Y517557D01*
X168172Y517248D01*
X168338Y516810D01*
X168386Y516665D01*
X168831Y515590D01*
X168831Y512524D01*
X168835Y512450D01*
X168832Y512377D01*
X168853Y512080D01*
X168856Y511997D01*
X168859Y511971D01*
X168871Y511751D01*
X168882Y511678D01*
X168887Y511605D01*
X168942Y511295D01*
X168990Y510986D01*
X169009Y510914D01*
X169022Y510842D01*
X169108Y510540D01*
X169188Y510237D01*
X169214Y510168D01*
X169234Y510097D01*
X169351Y509805D01*
X169462Y509513D01*
X169495Y509447D01*
X169522Y509379D01*
X169668Y509101D01*
X169809Y508821D01*
X169849Y508758D01*
X169883Y508693D01*
X170057Y508433D01*
X170226Y508168D01*
X170271Y508110D01*
X170312Y508049D01*
X170410Y507935D01*
X170707Y507562D01*
X170927Y507338D01*
X171027Y507221D01*
X188499Y489749D01*
X188944Y488674D01*
X189009Y488539D01*
X189065Y488399D01*
X189176Y488189D01*
X189277Y487975D01*
X189356Y487847D01*
X189426Y487714D01*
X189557Y487516D01*
X189570Y487496D01*
X189603Y487371D01*
X189632Y487224D01*
X189680Y487077D01*
X189762Y486768D01*
X189928Y486330D01*
X189976Y486185D01*
X190421Y485110D01*
X190421Y478234D01*
X190425Y478160D01*
X190422Y478087D01*
X190445Y477774D01*
X190461Y477461D01*
X190472Y477388D01*
X190477Y477315D01*
X190532Y477005D01*
X190580Y476696D01*
X190599Y476624D01*
X190612Y476552D01*
X190698Y476250D01*
X190778Y475947D01*
X190804Y475878D01*
X190824Y475807D01*
X190941Y475515D01*
X191052Y475223D01*
X191085Y475157D01*
X191112Y475089D01*
X191258Y474811D01*
X191399Y474531D01*
X191439Y474468D01*
X191473Y474403D01*
X191647Y474143D01*
X191816Y473878D01*
X191861Y473820D01*
X191902Y473759D01*
X192000Y473645D01*
X192297Y473272D01*
X192517Y473048D01*
X192617Y472931D01*
X251999Y413549D01*
X253921Y408910D01*
X253921Y222742D01*
X253925Y222665D01*
X253922Y222588D01*
X253945Y222278D01*
X253961Y221968D01*
X253973Y221892D01*
X253978Y221815D01*
X254032Y221510D01*
X254080Y221203D01*
X254100Y221129D01*
X254113Y221053D01*
X254199Y220754D01*
X254278Y220455D01*
X254305Y220383D01*
X254326Y220309D01*
X254442Y220021D01*
X254552Y219730D01*
X254586Y219662D01*
X254615Y219590D01*
X254760Y219316D01*
X254899Y219038D01*
X254940Y218973D01*
X254976Y218905D01*
X255149Y218647D01*
X255316Y218386D01*
X255363Y218325D01*
X255406Y218261D01*
X255605Y218022D01*
X255797Y217779D01*
X255851Y217725D01*
X255900Y217665D01*
X256122Y217448D01*
X256339Y217226D01*
X256398Y217177D01*
X256453Y217123D01*
X256695Y216930D01*
X256935Y216732D01*
X256999Y216689D01*
X257059Y216641D01*
X257321Y216473D01*
X257578Y216301D01*
X257646Y216265D01*
X257711Y216224D01*
X257989Y216084D01*
X258263Y215939D01*
X258335Y215910D01*
X258403Y215876D01*
X258693Y215766D01*
X258981Y215650D01*
X259055Y215629D01*
X259127Y215601D01*
X259428Y215522D01*
X259725Y215436D01*
X259801Y215423D01*
X259876Y215403D01*
X260183Y215355D01*
X260488Y215301D01*
X260564Y215295D01*
X260640Y215283D01*
X260951Y215267D01*
X261260Y215244D01*
X261337Y215246D01*
X261414Y215242D01*
X261724Y215258D01*
X262034Y215268D01*
X262110Y215278D01*
X262187Y215282D01*
X262493Y215329D01*
X262801Y215371D01*
X262876Y215389D01*
X262952Y215401D01*
X263252Y215479D01*
X263554Y215552D01*
X263626Y215578D01*
X263701Y215598D01*
X263991Y215707D01*
X264284Y215811D01*
X264353Y215844D01*
X264425Y215871D01*
X264703Y216010D01*
X264983Y216143D01*
X265049Y216183D01*
X265118Y216217D01*
X265379Y216384D01*
X265645Y216546D01*
X265706Y216592D01*
X265771Y216634D01*
X266014Y216826D01*
X266261Y217014D01*
X266317Y217067D01*
X266377Y217115D01*
X266599Y217331D01*
X266826Y217544D01*
X266876Y217602D01*
X266931Y217656D01*
X267129Y217894D01*
X267333Y218129D01*
X267377Y218192D01*
X267426Y218251D01*
X267599Y218509D01*
X267777Y218763D01*
X267814Y218831D01*
X267857Y218895D01*
X267926Y219030D01*
X267930Y219038D01*
X271819Y222927D01*
X276738Y224965D01*
X282062Y224965D01*
X287018Y222912D01*
X287026Y222905D01*
X287249Y222695D01*
X287313Y222646D01*
X287372Y222592D01*
X287620Y222411D01*
X287865Y222225D01*
X287933Y222183D01*
X287998Y222136D01*
X288263Y221981D01*
X288525Y221821D01*
X288598Y221787D01*
X288667Y221746D01*
X288947Y221620D01*
X289224Y221488D01*
X289300Y221461D01*
X289373Y221428D01*
X289664Y221331D01*
X289954Y221228D01*
X290031Y221209D01*
X290107Y221184D01*
X290407Y221118D01*
X290706Y221045D01*
X290785Y221034D01*
X290863Y221017D01*
X291169Y220982D01*
X291473Y220941D01*
X291553Y220938D01*
X291633Y220929D01*
X291940Y220926D01*
X292247Y220916D01*
X292327Y220921D01*
X292407Y220921D01*
X292713Y220949D01*
X293019Y220971D01*
X293098Y220985D01*
X293178Y220992D01*
X293480Y221052D01*
X293782Y221105D01*
X293859Y221127D01*
X293937Y221143D01*
X294231Y221234D01*
X294527Y221318D01*
X294601Y221348D01*
X294677Y221371D01*
X294960Y221492D01*
X295245Y221606D01*
X295316Y221643D01*
X295390Y221674D01*
X295659Y221823D01*
X295930Y221966D01*
X295997Y222011D01*
X296067Y222050D01*
X296320Y222226D01*
X296575Y222396D01*
X296623Y222437D01*
X296702Y222493D01*
X297193Y222916D01*
X302138Y224965D01*
X307462Y224965D01*
X312381Y222927D01*
X314096Y221212D01*
X314248Y221075D01*
X314392Y220932D01*
X314535Y220816D01*
X314671Y220693D01*
X314836Y220573D01*
X314995Y220445D01*
X315148Y220345D01*
X315297Y220237D01*
X315473Y220134D01*
X315644Y220023D01*
X315807Y219940D01*
X315966Y219847D01*
X316152Y219763D01*
X316333Y219671D01*
X316504Y219604D01*
X316672Y219529D01*
X316865Y219464D01*
X317055Y219391D01*
X317232Y219343D01*
X317407Y219285D01*
X317606Y219241D01*
X317802Y219187D01*
X317983Y219158D01*
X318163Y219118D01*
X318365Y219095D01*
X318566Y219062D01*
X318750Y219051D01*
X318932Y219030D01*
X319136Y219028D01*
X319339Y219016D01*
X319522Y219024D01*
X319706Y219022D01*
X319910Y219040D01*
X320113Y219049D01*
X320294Y219076D01*
X320477Y219093D01*
X320677Y219133D01*
X320879Y219163D01*
X321057Y219208D01*
X321237Y219244D01*
X321432Y219304D01*
X321629Y219355D01*
X321801Y219418D01*
X321977Y219472D01*
X322164Y219552D01*
X322355Y219623D01*
X322520Y219704D01*
X322689Y219775D01*
X322701Y219782D01*
X322701Y203200D01*
X322716Y202893D01*
X322726Y202587D01*
X322736Y202507D01*
X322741Y202427D01*
X322788Y202124D01*
X322829Y201819D01*
X322848Y201741D01*
X322860Y201662D01*
X322938Y201366D01*
X323011Y201066D01*
X323037Y200991D01*
X323058Y200913D01*
X323166Y200627D01*
X323269Y200337D01*
X323303Y200264D01*
X323332Y200189D01*
X323469Y199915D01*
X323601Y199637D01*
X323643Y199569D01*
X323679Y199497D01*
X323844Y199238D01*
X324004Y198976D01*
X324052Y198912D01*
X324095Y198844D01*
X324286Y198604D01*
X324472Y198359D01*
X324527Y198301D01*
X324577Y198238D01*
X324792Y198019D01*
X325002Y197795D01*
X325002Y197794D01*
X325003Y197794D01*
X325063Y197742D01*
X325119Y197685D01*
X325119Y197684D01*
X325356Y197488D01*
X325588Y197287D01*
X325653Y197241D01*
X325715Y197190D01*
X325971Y197019D01*
X326222Y196843D01*
X326292Y196804D01*
X326359Y196759D01*
X326630Y196616D01*
X326899Y196466D01*
X326972Y196435D01*
X327043Y196398D01*
X327328Y196283D01*
X327611Y196162D01*
X327687Y196138D01*
X327761Y196108D01*
X328057Y196024D01*
X328350Y195932D01*
X328429Y195917D01*
X328506Y195895D01*
X328808Y195841D01*
X329109Y195780D01*
X329173Y195776D01*
X329268Y195759D01*
X330040Y195702D01*
X330137Y195705D01*
X330200Y195701D01*
X341123Y195701D01*
X341123Y194102D01*
X340936Y192682D01*
X340565Y191299D01*
X340017Y189977D01*
X339301Y188737D01*
X338392Y187551D01*
X338364Y187510D01*
X338331Y187471D01*
X338144Y187191D01*
X337953Y186914D01*
X337929Y186869D01*
X337901Y186828D01*
X337743Y186529D01*
X337582Y186234D01*
X337563Y186188D01*
X337539Y186143D01*
X337413Y185830D01*
X337283Y185520D01*
X337269Y185471D01*
X337250Y185425D01*
X337157Y185102D01*
X337059Y184778D01*
X337050Y184729D01*
X337036Y184681D01*
X336977Y184349D01*
X336913Y184018D01*
X336909Y183968D01*
X336900Y183918D01*
X336876Y183582D01*
X336847Y183246D01*
X336847Y183196D01*
X336844Y183146D01*
X336854Y182809D01*
X336860Y182472D01*
X336866Y182422D01*
X336867Y182372D01*
X336912Y182037D01*
X336953Y181704D01*
X336964Y181655D01*
X336970Y181605D01*
X337050Y181276D01*
X337124Y180948D01*
X337140Y180901D01*
X337152Y180852D01*
X337265Y180534D01*
X337373Y180215D01*
X337394Y180170D01*
X337410Y180122D01*
X337555Y179817D01*
X337696Y179511D01*
X337721Y179468D01*
X337743Y179423D01*
X337917Y179136D01*
X338089Y178845D01*
X338119Y178804D01*
X338145Y178761D01*
X338349Y178493D01*
X338550Y178222D01*
X338583Y178185D01*
X338614Y178145D01*
X338846Y177898D01*
X339072Y177650D01*
X339109Y177617D01*
X339144Y177580D01*
X339398Y177359D01*
X339650Y177135D01*
X339691Y177106D01*
X339729Y177073D01*
X340005Y176880D01*
X340278Y176683D01*
X340322Y176658D01*
X340363Y176629D01*
X340657Y176465D01*
X340950Y176297D01*
X340996Y176277D01*
X341040Y176253D01*
X341350Y176120D01*
X341658Y175983D01*
X341705Y175968D01*
X341752Y175948D01*
X342074Y175848D01*
X342394Y175744D01*
X342443Y175733D01*
X342491Y175719D01*
X342822Y175652D01*
X343151Y175582D01*
X343201Y175576D01*
X343250Y175567D01*
X343380Y175557D01*
X343921Y175499D01*
X344197Y175497D01*
X344341Y175487D01*
X388700Y175487D01*
X388871Y175496D01*
X389043Y175495D01*
X389140Y175504D01*
X389158Y175504D01*
X389256Y175515D01*
X389258Y175516D01*
X389474Y175527D01*
X389643Y175553D01*
X389813Y175570D01*
X389913Y175590D01*
X389927Y175592D01*
X390005Y175609D01*
X390025Y175613D01*
X390239Y175646D01*
X390404Y175690D01*
X390572Y175724D01*
X390672Y175755D01*
X390683Y175758D01*
X390744Y175778D01*
X390779Y175789D01*
X390987Y175844D01*
X391148Y175905D01*
X391311Y175956D01*
X391409Y175998D01*
X391418Y176001D01*
X391466Y176022D01*
X391509Y176041D01*
X391712Y176118D01*
X391865Y176195D01*
X392022Y176262D01*
X392118Y176316D01*
X392124Y176319D01*
X392160Y176340D01*
X392211Y176368D01*
X392404Y176465D01*
X392548Y176557D01*
X392698Y176641D01*
X392788Y176705D01*
X392794Y176708D01*
X392823Y176729D01*
X392874Y176765D01*
X393056Y176882D01*
X393191Y176988D01*
X393331Y177087D01*
X393415Y177161D01*
X393420Y177164D01*
X393443Y177185D01*
X393493Y177229D01*
X393663Y177363D01*
X393785Y177483D01*
X393914Y177596D01*
X393991Y177678D01*
X393995Y177682D01*
X394015Y177704D01*
X394061Y177753D01*
X394216Y177905D01*
X394326Y178037D01*
X394442Y178162D01*
X394510Y178252D01*
X394514Y178257D01*
X394534Y178284D01*
X394572Y178334D01*
X394711Y178501D01*
X394806Y178643D01*
X394909Y178780D01*
X394967Y178876D01*
X394971Y178882D01*
X394991Y178915D01*
X395021Y178965D01*
X395141Y179144D01*
X395221Y179296D01*
X395310Y179442D01*
X395357Y179543D01*
X395361Y179550D01*
X395381Y179594D01*
X395402Y179638D01*
X395503Y179829D01*
X395567Y179988D01*
X395640Y180143D01*
X395676Y180246D01*
X395680Y180256D01*
X395699Y180312D01*
X395711Y180347D01*
X395792Y180547D01*
X395839Y180712D01*
X395896Y180873D01*
X395921Y180978D01*
X395925Y180991D01*
X395941Y181063D01*
X395946Y181084D01*
X396006Y181291D01*
X396036Y181460D01*
X396075Y181627D01*
X396089Y181730D01*
X396093Y181747D01*
X396103Y181837D01*
X396104Y181841D01*
X396142Y182054D01*
X396154Y182224D01*
X396176Y182394D01*
X396179Y182496D01*
X396181Y182516D01*
X396183Y182615D01*
X396198Y182826D01*
X396193Y182997D01*
X396197Y183168D01*
X396190Y183266D01*
X396190Y183290D01*
X396181Y183394D01*
X396175Y183600D01*
X396152Y183770D01*
X396139Y183940D01*
X396122Y184033D01*
X396119Y184061D01*
X396098Y184169D01*
X396071Y184367D01*
X396031Y184534D01*
X396001Y184702D01*
X395976Y184788D01*
X395969Y184821D01*
X395945Y184895D01*
X395940Y184910D01*
X395890Y185120D01*
X395833Y185281D01*
X395785Y185446D01*
X395703Y185646D01*
X395631Y185850D01*
X395616Y185882D01*
X393017Y192156D01*
X393017Y214244D01*
X395055Y219163D01*
X398819Y222927D01*
X403738Y224965D01*
X409062Y224965D01*
X414018Y222912D01*
X414026Y222905D01*
X414249Y222695D01*
X414313Y222646D01*
X414372Y222592D01*
X414620Y222411D01*
X414865Y222225D01*
X414933Y222183D01*
X414998Y222136D01*
X415263Y221981D01*
X415525Y221821D01*
X415598Y221787D01*
X415667Y221746D01*
X415947Y221620D01*
X416224Y221488D01*
X416300Y221461D01*
X416373Y221428D01*
X416664Y221331D01*
X416954Y221228D01*
X417031Y221209D01*
X417107Y221184D01*
X417407Y221118D01*
X417706Y221045D01*
X417785Y221034D01*
X417863Y221017D01*
X418169Y220982D01*
X418473Y220941D01*
X418553Y220938D01*
X418633Y220929D01*
X418940Y220926D01*
X419247Y220916D01*
X419327Y220921D01*
X419407Y220921D01*
X419713Y220949D01*
X420019Y220971D01*
X420098Y220985D01*
X420178Y220992D01*
X420480Y221052D01*
X420782Y221105D01*
X420859Y221127D01*
X420937Y221143D01*
X421231Y221234D01*
X421527Y221318D01*
X421601Y221348D01*
X421677Y221371D01*
X421960Y221492D01*
X422245Y221606D01*
X422316Y221643D01*
X422390Y221674D01*
X422659Y221823D01*
X422930Y221966D01*
X422997Y222011D01*
X423067Y222050D01*
X423320Y222226D01*
X423575Y222396D01*
X423623Y222437D01*
X423702Y222493D01*
X424193Y222916D01*
X429138Y224965D01*
X434462Y224965D01*
X439381Y222927D01*
X441096Y221212D01*
X441248Y221075D01*
X441392Y220931D01*
X441535Y220816D01*
X441671Y220693D01*
X441836Y220573D01*
X441995Y220445D01*
X442149Y220345D01*
X442297Y220237D01*
X442473Y220134D01*
X442644Y220023D01*
X442807Y219940D01*
X442966Y219847D01*
X443152Y219763D01*
X443334Y219670D01*
X443505Y219604D01*
X443672Y219529D01*
X443865Y219465D01*
X444056Y219391D01*
X444233Y219343D01*
X444407Y219285D01*
X444606Y219241D01*
X444803Y219187D01*
X444983Y219157D01*
X445163Y219118D01*
X445365Y219095D01*
X445567Y219062D01*
X445750Y219051D01*
X445932Y219030D01*
X446136Y219028D01*
X446340Y219016D01*
X446522Y219024D01*
X446706Y219022D01*
X446909Y219040D01*
X447113Y219049D01*
X447295Y219076D01*
X447477Y219093D01*
X447677Y219133D01*
X447879Y219163D01*
X448057Y219208D01*
X448237Y219244D01*
X448432Y219304D01*
X448629Y219355D01*
X448801Y219418D01*
X448977Y219472D01*
X449164Y219552D01*
X449356Y219623D01*
X449520Y219704D01*
X449689Y219775D01*
X449701Y219782D01*
X449701Y203200D01*
X449701Y184270D01*
X449620Y184242D01*
X449372Y184163D01*
X449256Y184113D01*
X449136Y184070D01*
X448901Y183959D01*
X448662Y183855D01*
X448551Y183793D01*
X448437Y183738D01*
X448215Y183603D01*
X447988Y183475D01*
X447884Y183402D01*
X447775Y183336D01*
X447568Y183178D01*
X447356Y183028D01*
X447260Y182944D01*
X447159Y182867D01*
X446969Y182689D01*
X446773Y182517D01*
X446687Y182424D01*
X446594Y182337D01*
X446424Y182140D01*
X446247Y181950D01*
X446170Y181848D01*
X446087Y181752D01*
X445938Y181539D01*
X445781Y181331D01*
X445716Y181222D01*
X445643Y181118D01*
X445516Y180890D01*
X445382Y180667D01*
X445328Y180552D01*
X445267Y180441D01*
X445164Y180201D01*
X445054Y179966D01*
X445012Y179846D01*
X444962Y179729D01*
X444885Y179480D01*
X444799Y179235D01*
X444770Y179111D01*
X444733Y178990D01*
X444681Y178735D01*
X444622Y178481D01*
X444605Y178355D01*
X444581Y178231D01*
X444569Y178071D01*
X444523Y177713D01*
X444512Y177299D01*
X444501Y177140D01*
X444501Y175274D01*
X442567Y170606D01*
X423980Y152019D01*
X419312Y150085D01*
X372244Y150085D01*
X371937Y150069D01*
X371630Y150060D01*
X371551Y150049D01*
X371471Y150045D01*
X371168Y149998D01*
X370863Y149957D01*
X370785Y149938D01*
X370706Y149926D01*
X370409Y149848D01*
X370110Y149775D01*
X370034Y149748D01*
X369957Y149728D01*
X369671Y149620D01*
X369380Y149517D01*
X369308Y149482D01*
X369233Y149454D01*
X368959Y149317D01*
X368681Y149185D01*
X368612Y149143D01*
X368541Y149107D01*
X368282Y148942D01*
X368019Y148782D01*
X367956Y148734D01*
X367888Y148690D01*
X367648Y148500D01*
X367403Y148313D01*
X367344Y148259D01*
X367282Y148209D01*
X367062Y147994D01*
X366838Y147784D01*
X366786Y147723D01*
X366728Y147667D01*
X366532Y147430D01*
X366332Y147199D01*
X355600Y147199D01*
X344857Y147199D01*
X344683Y147427D01*
X344629Y147485D01*
X344579Y147548D01*
X344364Y147768D01*
X344154Y147992D01*
X344093Y148044D01*
X344037Y148101D01*
X343801Y148298D01*
X343569Y148499D01*
X343503Y148545D01*
X343441Y148596D01*
X343186Y148767D01*
X342934Y148943D01*
X342864Y148982D01*
X342798Y149026D01*
X342526Y149170D01*
X342258Y149319D01*
X342184Y149351D01*
X342113Y149388D01*
X341828Y149503D01*
X341546Y149624D01*
X341469Y149648D01*
X341395Y149678D01*
X341099Y149762D01*
X340806Y149853D01*
X340728Y149869D01*
X340651Y149891D01*
X340348Y149945D01*
X340047Y150005D01*
X339984Y150010D01*
X339888Y150027D01*
X339116Y150084D01*
X339020Y150081D01*
X338956Y150085D01*
X334265Y150085D01*
X334192Y150081D01*
X334118Y150084D01*
X333805Y150061D01*
X333492Y150045D01*
X333419Y150034D01*
X333346Y150029D01*
X333037Y149974D01*
X332727Y149926D01*
X332656Y149907D01*
X332583Y149894D01*
X332281Y149808D01*
X331978Y149728D01*
X331910Y149702D01*
X331838Y149682D01*
X331546Y149565D01*
X331254Y149454D01*
X331188Y149421D01*
X331120Y149394D01*
X330842Y149248D01*
X330562Y149107D01*
X330500Y149067D01*
X330435Y149033D01*
X330174Y148859D01*
X329909Y148690D01*
X329851Y148645D01*
X329790Y148604D01*
X329677Y148506D01*
X329303Y148209D01*
X329079Y147989D01*
X328962Y147889D01*
X322706Y141633D01*
X318038Y139699D01*
X298504Y139699D01*
X298197Y139683D01*
X297890Y139674D01*
X297811Y139663D01*
X297731Y139659D01*
X297428Y139612D01*
X297123Y139571D01*
X297045Y139552D01*
X296966Y139540D01*
X296669Y139462D01*
X296370Y139389D01*
X296294Y139362D01*
X296217Y139342D01*
X295931Y139234D01*
X295640Y139131D01*
X295568Y139096D01*
X295493Y139068D01*
X295219Y138931D01*
X294941Y138799D01*
X294872Y138757D01*
X294801Y138721D01*
X294542Y138556D01*
X294279Y138396D01*
X294216Y138348D01*
X294148Y138304D01*
X293908Y138114D01*
X293663Y137927D01*
X293604Y137873D01*
X293542Y137823D01*
X293322Y137608D01*
X293098Y137398D01*
X293046Y137337D01*
X292988Y137281D01*
X292792Y137044D01*
X292591Y136813D01*
X292545Y136747D01*
X292494Y136685D01*
X292323Y136430D01*
X292147Y136178D01*
X292108Y136108D01*
X292063Y136042D01*
X291920Y135770D01*
X291771Y135502D01*
X291739Y135428D01*
X291702Y135357D01*
X291587Y135072D01*
X291466Y134790D01*
X291442Y134713D01*
X291412Y134639D01*
X291328Y134344D01*
X291237Y134050D01*
X291221Y133972D01*
X291199Y133895D01*
X291145Y133593D01*
X291085Y133291D01*
X291080Y133227D01*
X291063Y133132D01*
X291006Y132360D01*
X291009Y132264D01*
X291005Y132200D01*
X291005Y122193D01*
X283134Y114323D01*
X283032Y114209D01*
X282922Y114101D01*
X282772Y113921D01*
X282616Y113748D01*
X282525Y113624D01*
X282427Y113505D01*
X282297Y113311D01*
X282159Y113122D01*
X282082Y112989D01*
X281997Y112862D01*
X281887Y112655D01*
X281770Y112453D01*
X281707Y112313D01*
X281635Y112177D01*
X281547Y111960D01*
X281451Y111747D01*
X281403Y111602D01*
X281345Y111459D01*
X281281Y111234D01*
X281207Y111012D01*
X281174Y110862D01*
X281132Y110715D01*
X281091Y110485D01*
X281040Y110256D01*
X281023Y110104D01*
X280996Y109952D01*
X280979Y109719D01*
X280952Y109487D01*
X280951Y109333D01*
X280940Y109180D01*
X280947Y108947D01*
X280944Y108713D01*
X280958Y108560D01*
X280963Y108406D01*
X280994Y108174D01*
X281016Y107942D01*
X281046Y107791D01*
X281066Y107639D01*
X281121Y107411D01*
X281166Y107182D01*
X281212Y107036D01*
X281248Y106886D01*
X281326Y106666D01*
X281395Y106442D01*
X281455Y106301D01*
X281506Y106156D01*
X281607Y105945D01*
X281698Y105730D01*
X281772Y105596D01*
X281838Y105457D01*
X281960Y105257D01*
X282073Y105053D01*
X282161Y104927D01*
X282241Y104795D01*
X282382Y104609D01*
X282516Y104418D01*
X282617Y104301D01*
X282710Y104179D01*
X282870Y104008D01*
X283022Y103832D01*
X283134Y103726D01*
X283239Y103614D01*
X283416Y103461D01*
X283586Y103301D01*
X283708Y103208D01*
X283824Y103107D01*
X284016Y102973D01*
X284202Y102831D01*
X284333Y102751D01*
X284459Y102663D01*
X284663Y102549D01*
X284862Y102428D01*
X285001Y102361D01*
X285135Y102287D01*
X285350Y102195D01*
X285561Y102094D01*
X285706Y102043D01*
X285847Y101982D01*
X286071Y101913D01*
X286291Y101834D01*
X286440Y101798D01*
X286587Y101753D01*
X286816Y101707D01*
X287043Y101651D01*
X287195Y101631D01*
X287346Y101601D01*
X287500Y101589D01*
X287810Y101547D01*
X288287Y101532D01*
X288437Y101521D01*
X296466Y101521D01*
X296540Y101525D01*
X296613Y101522D01*
X296926Y101544D01*
X297239Y101561D01*
X297312Y101572D01*
X297386Y101577D01*
X297694Y101632D01*
X298004Y101680D01*
X298076Y101699D01*
X298148Y101712D01*
X298450Y101798D01*
X298753Y101878D01*
X298822Y101904D01*
X298893Y101924D01*
X299185Y102041D01*
X299477Y102152D01*
X299543Y102185D01*
X299611Y102212D01*
X299889Y102358D01*
X300169Y102499D01*
X300231Y102539D01*
X300297Y102573D01*
X300558Y102747D01*
X300822Y102916D01*
X300880Y102961D01*
X300941Y103002D01*
X301055Y103100D01*
X301428Y103397D01*
X301653Y103617D01*
X301769Y103717D01*
X318446Y120394D01*
X323051Y124999D01*
X327690Y126921D01*
X338956Y126921D01*
X339263Y126937D01*
X339570Y126946D01*
X339649Y126957D01*
X339729Y126961D01*
X340032Y127008D01*
X340337Y127049D01*
X340415Y127068D01*
X340494Y127080D01*
X340791Y127158D01*
X341090Y127231D01*
X341166Y127258D01*
X341243Y127278D01*
X341529Y127386D01*
X341820Y127489D01*
X341892Y127524D01*
X341967Y127552D01*
X342241Y127689D01*
X342519Y127821D01*
X342588Y127863D01*
X342659Y127899D01*
X342918Y128064D01*
X343181Y128224D01*
X343244Y128272D01*
X343312Y128316D01*
X343552Y128506D01*
X343797Y128693D01*
X343856Y128747D01*
X343918Y128797D01*
X344138Y129012D01*
X344362Y129222D01*
X344414Y129283D01*
X344472Y129339D01*
X344668Y129576D01*
X344869Y129807D01*
X344915Y129873D01*
X344966Y129935D01*
X345137Y130190D01*
X345313Y130442D01*
X345352Y130512D01*
X345397Y130578D01*
X345540Y130850D01*
X345689Y131118D01*
X345721Y131192D01*
X345758Y131263D01*
X345873Y131548D01*
X345994Y131830D01*
X346018Y131907D01*
X346048Y131981D01*
X346111Y132201D01*
X355600Y132201D01*
X365084Y132201D01*
X365102Y132133D01*
X365210Y131847D01*
X365313Y131556D01*
X365348Y131484D01*
X365376Y131409D01*
X365513Y131135D01*
X365645Y130857D01*
X365687Y130788D01*
X365723Y130717D01*
X365888Y130458D01*
X366048Y130195D01*
X366096Y130132D01*
X366140Y130064D01*
X366330Y129824D01*
X366517Y129579D01*
X366571Y129520D01*
X366621Y129458D01*
X366836Y129238D01*
X367046Y129014D01*
X367107Y128962D01*
X367163Y128904D01*
X367400Y128708D01*
X367631Y128507D01*
X367697Y128461D01*
X367759Y128410D01*
X368014Y128239D01*
X368266Y128063D01*
X368336Y128024D01*
X368402Y127979D01*
X368674Y127836D01*
X368942Y127687D01*
X369016Y127655D01*
X369087Y127618D01*
X369372Y127503D01*
X369654Y127382D01*
X369731Y127358D01*
X369805Y127328D01*
X370100Y127244D01*
X370394Y127153D01*
X370472Y127137D01*
X370549Y127115D01*
X370851Y127061D01*
X371153Y127001D01*
X371217Y126996D01*
X371312Y126979D01*
X372084Y126922D01*
X372180Y126925D01*
X372244Y126921D01*
X438096Y126921D01*
X438403Y126937D01*
X438710Y126946D01*
X438789Y126957D01*
X438869Y126961D01*
X439172Y127008D01*
X439477Y127049D01*
X439555Y127068D01*
X439634Y127080D01*
X439931Y127158D01*
X440230Y127231D01*
X440306Y127258D01*
X440383Y127278D01*
X440669Y127386D01*
X440960Y127489D01*
X441032Y127524D01*
X441107Y127552D01*
X441381Y127689D01*
X441659Y127821D01*
X441728Y127863D01*
X441799Y127899D01*
X442058Y128064D01*
X442321Y128224D01*
X442384Y128272D01*
X442452Y128316D01*
X442692Y128506D01*
X442937Y128693D01*
X442996Y128747D01*
X443058Y128797D01*
X443278Y129012D01*
X443502Y129222D01*
X443554Y129283D01*
X443612Y129339D01*
X443808Y129576D01*
X444009Y129807D01*
X444055Y129873D01*
X444106Y129935D01*
X444277Y130190D01*
X444453Y130442D01*
X444492Y130512D01*
X444537Y130578D01*
X444680Y130850D01*
X444829Y131118D01*
X444861Y131192D01*
X444898Y131263D01*
X445013Y131548D01*
X445134Y131830D01*
X445158Y131907D01*
X445188Y131981D01*
X445272Y132276D01*
X445363Y132570D01*
X445379Y132648D01*
X445401Y132725D01*
X445455Y133027D01*
X445515Y133329D01*
X445520Y133393D01*
X445537Y133488D01*
X445594Y134260D01*
X445591Y134356D01*
X445595Y134420D01*
X445595Y144507D01*
X452393Y151305D01*
X463496Y151305D01*
X463803Y151321D01*
X464110Y151330D01*
X464189Y151341D01*
X464269Y151345D01*
X464572Y151392D01*
X464877Y151433D01*
X464955Y151452D01*
X465034Y151464D01*
X465331Y151542D01*
X465630Y151615D01*
X465706Y151642D01*
X465783Y151662D01*
X466069Y151770D01*
X466360Y151873D01*
X466432Y151908D01*
X466507Y151936D01*
X466781Y152073D01*
X467059Y152205D01*
X467128Y152247D01*
X467199Y152283D01*
X467458Y152448D01*
X467721Y152608D01*
X467784Y152656D01*
X467852Y152700D01*
X468092Y152890D01*
X468337Y153077D01*
X468396Y153131D01*
X468458Y153181D01*
X468678Y153396D01*
X468902Y153606D01*
X468954Y153667D01*
X469012Y153723D01*
X469208Y153960D01*
X469409Y154191D01*
X469455Y154257D01*
X469506Y154319D01*
X469677Y154574D01*
X469853Y154826D01*
X469892Y154896D01*
X469937Y154962D01*
X470080Y155234D01*
X470229Y155502D01*
X470261Y155576D01*
X470298Y155647D01*
X470413Y155932D01*
X470534Y156214D01*
X470558Y156291D01*
X470588Y156365D01*
X470672Y156660D01*
X470763Y156954D01*
X470779Y157032D01*
X470801Y157109D01*
X470855Y157411D01*
X470915Y157713D01*
X470920Y157777D01*
X470937Y157872D01*
X470994Y158644D01*
X470991Y158740D01*
X470995Y158804D01*
X470995Y169907D01*
X477793Y176705D01*
X487407Y176705D01*
X494205Y169907D01*
X494205Y160293D01*
X487407Y153495D01*
X476304Y153495D01*
X475997Y153479D01*
X475690Y153470D01*
X475611Y153459D01*
X475531Y153455D01*
X475228Y153408D01*
X474923Y153367D01*
X474845Y153348D01*
X474766Y153336D01*
X474469Y153258D01*
X474170Y153185D01*
X474094Y153158D01*
X474017Y153138D01*
X473731Y153030D01*
X473440Y152927D01*
X473368Y152892D01*
X473293Y152864D01*
X473019Y152727D01*
X472741Y152595D01*
X472672Y152553D01*
X472601Y152517D01*
X472342Y152352D01*
X472079Y152192D01*
X472016Y152144D01*
X471948Y152100D01*
X471708Y151910D01*
X471463Y151723D01*
X471404Y151669D01*
X471342Y151619D01*
X471122Y151404D01*
X470898Y151194D01*
X470846Y151133D01*
X470788Y151077D01*
X470592Y150840D01*
X470391Y150609D01*
X470345Y150543D01*
X470294Y150481D01*
X470123Y150226D01*
X469947Y149974D01*
X469908Y149904D01*
X469863Y149838D01*
X469720Y149566D01*
X469571Y149298D01*
X469539Y149224D01*
X469502Y149153D01*
X469387Y148868D01*
X469266Y148586D01*
X469242Y148509D01*
X469212Y148435D01*
X469128Y148140D01*
X469037Y147846D01*
X469021Y147768D01*
X468999Y147691D01*
X468945Y147389D01*
X468885Y147087D01*
X468880Y147023D01*
X468863Y146928D01*
X468806Y146156D01*
X468809Y146060D01*
X468805Y145996D01*
X468805Y134420D01*
X468821Y134113D01*
X468830Y133806D01*
X468841Y133727D01*
X468845Y133647D01*
X468892Y133343D01*
X468933Y133039D01*
X468952Y132961D01*
X468964Y132882D01*
X469042Y132585D01*
X469115Y132286D01*
X469142Y132210D01*
X469162Y132133D01*
X469270Y131847D01*
X469373Y131556D01*
X469408Y131484D01*
X469436Y131409D01*
X469573Y131135D01*
X469705Y130857D01*
X469747Y130788D01*
X469783Y130717D01*
X469948Y130458D01*
X470108Y130195D01*
X470156Y130132D01*
X470200Y130064D01*
X470390Y129824D01*
X470577Y129579D01*
X470631Y129520D01*
X470681Y129458D01*
X470896Y129238D01*
X471106Y129014D01*
X471167Y128962D01*
X471223Y128904D01*
X471460Y128708D01*
X471691Y128507D01*
X471757Y128461D01*
X471819Y128410D01*
X472074Y128239D01*
X472326Y128063D01*
X472396Y128024D01*
X472462Y127979D01*
X472734Y127836D01*
X473002Y127687D01*
X473076Y127655D01*
X473147Y127618D01*
X473432Y127503D01*
X473714Y127382D01*
X473791Y127358D01*
X473865Y127328D01*
X474160Y127244D01*
X474454Y127153D01*
X474532Y127137D01*
X474609Y127115D01*
X474911Y127061D01*
X475213Y127001D01*
X475277Y126996D01*
X475372Y126979D01*
X476144Y126922D01*
X476240Y126925D01*
X476304Y126921D01*
X499666Y126921D01*
X499740Y126925D01*
X499813Y126922D01*
X500126Y126945D01*
X500439Y126961D01*
X500512Y126972D01*
X500586Y126977D01*
X500895Y127032D01*
X501204Y127080D01*
X501276Y127099D01*
X501348Y127112D01*
X501650Y127198D01*
X501953Y127278D01*
X502022Y127304D01*
X502093Y127324D01*
X502385Y127441D01*
X502677Y127552D01*
X502743Y127585D01*
X502811Y127612D01*
X503089Y127758D01*
X503369Y127899D01*
X503432Y127939D01*
X503497Y127973D01*
X503757Y128147D01*
X504022Y128316D01*
X504080Y128361D01*
X504141Y128402D01*
X504255Y128500D01*
X504628Y128797D01*
X504852Y129017D01*
X504969Y129117D01*
X543983Y168131D01*
X544032Y168186D01*
X544086Y168236D01*
X544291Y168473D01*
X544501Y168706D01*
X544545Y168766D01*
X544593Y168821D01*
X544773Y169078D01*
X544958Y169332D01*
X544995Y169395D01*
X545037Y169456D01*
X545189Y169730D01*
X545347Y170001D01*
X545378Y170068D01*
X545413Y170132D01*
X545537Y170421D01*
X545666Y170707D01*
X545689Y170776D01*
X545718Y170844D01*
X545811Y171144D01*
X545910Y171441D01*
X545926Y171513D01*
X545947Y171584D01*
X546009Y171891D01*
X546077Y172198D01*
X546085Y172271D01*
X546099Y172343D01*
X546110Y172493D01*
X546165Y172967D01*
X546168Y173281D01*
X546179Y173434D01*
X546179Y174403D01*
X546167Y174633D01*
X546165Y174863D01*
X546147Y175019D01*
X546139Y175176D01*
X546104Y175403D01*
X546078Y175633D01*
X546044Y175786D01*
X546020Y175941D01*
X545961Y176163D01*
X545911Y176389D01*
X545862Y176538D01*
X545822Y176689D01*
X545741Y176905D01*
X545668Y177124D01*
X545604Y177267D01*
X545548Y177414D01*
X545445Y177620D01*
X545350Y177830D01*
X545271Y177966D01*
X545201Y178106D01*
X545077Y178300D01*
X544961Y178500D01*
X544869Y178626D01*
X544784Y178759D01*
X544641Y178939D01*
X544505Y179125D01*
X544400Y179242D01*
X544303Y179365D01*
X544141Y179530D01*
X543987Y179701D01*
X543871Y179806D01*
X543761Y179918D01*
X543584Y180065D01*
X543413Y180220D01*
X543286Y180312D01*
X543165Y180413D01*
X542974Y180541D01*
X542788Y180677D01*
X542652Y180756D01*
X542522Y180843D01*
X542318Y180951D01*
X542119Y181067D01*
X541976Y181132D01*
X541837Y181205D01*
X541623Y181291D01*
X541413Y181386D01*
X541264Y181436D01*
X541119Y181494D01*
X540897Y181558D01*
X540679Y181631D01*
X540525Y181665D01*
X540375Y181708D01*
X540148Y181748D01*
X539923Y181798D01*
X539767Y181816D01*
X539612Y181844D01*
X539382Y181860D01*
X539153Y181887D01*
X538997Y181889D01*
X538840Y181900D01*
X538610Y181893D01*
X538379Y181896D01*
X538223Y181881D01*
X538066Y181877D01*
X537838Y181846D01*
X537608Y181825D01*
X537455Y181794D01*
X537299Y181774D01*
X537074Y181719D01*
X536849Y181675D01*
X536738Y181638D01*
X536546Y181592D01*
X536104Y181435D01*
X530738Y181435D01*
X525819Y183473D01*
X522055Y187237D01*
X520017Y192156D01*
X520017Y214244D01*
X522055Y219163D01*
X525819Y222927D01*
X530738Y224965D01*
X536062Y224965D01*
X541018Y222912D01*
X541026Y222905D01*
X541249Y222695D01*
X541313Y222646D01*
X541372Y222592D01*
X541620Y222411D01*
X541865Y222225D01*
X541933Y222183D01*
X541998Y222136D01*
X542263Y221981D01*
X542525Y221821D01*
X542598Y221787D01*
X542667Y221746D01*
X542947Y221620D01*
X543224Y221488D01*
X543300Y221461D01*
X543373Y221428D01*
X543664Y221331D01*
X543954Y221228D01*
X544031Y221209D01*
X544107Y221184D01*
X544407Y221118D01*
X544706Y221045D01*
X544785Y221034D01*
X544863Y221017D01*
X545169Y220982D01*
X545473Y220941D01*
X545553Y220938D01*
X545633Y220929D01*
X545940Y220926D01*
X546247Y220916D01*
X546327Y220921D01*
X546407Y220921D01*
X546713Y220949D01*
X547019Y220971D01*
X547098Y220985D01*
X547178Y220992D01*
X547480Y221052D01*
X547782Y221105D01*
X547859Y221127D01*
X547937Y221143D01*
X548231Y221234D01*
X548527Y221318D01*
X548601Y221348D01*
X548677Y221371D01*
X548960Y221492D01*
X549245Y221606D01*
X549316Y221643D01*
X549390Y221674D01*
X549659Y221823D01*
X549930Y221966D01*
X549997Y222011D01*
X550067Y222050D01*
X550320Y222226D01*
X550575Y222396D01*
X550623Y222437D01*
X550702Y222493D01*
X551193Y222916D01*
X556138Y224965D01*
X561462Y224965D01*
X566381Y222927D01*
X568096Y221212D01*
X568248Y221075D01*
X568392Y220931D01*
X568535Y220816D01*
X568671Y220693D01*
X568836Y220573D01*
X568995Y220445D01*
X569149Y220345D01*
X569297Y220237D01*
X569473Y220134D01*
X569644Y220023D01*
X569807Y219940D01*
X569966Y219847D01*
X570152Y219763D01*
X570334Y219670D01*
X570505Y219604D01*
X570672Y219529D01*
X570865Y219465D01*
X571056Y219391D01*
X571233Y219343D01*
X571407Y219285D01*
X571606Y219241D01*
X571803Y219187D01*
X571983Y219157D01*
X572163Y219118D01*
X572365Y219095D01*
X572567Y219062D01*
X572750Y219051D01*
X572932Y219030D01*
X573136Y219028D01*
X573340Y219016D01*
X573522Y219024D01*
X573706Y219022D01*
X573909Y219040D01*
X574113Y219049D01*
X574295Y219076D01*
X574477Y219093D01*
X574677Y219133D01*
X574879Y219163D01*
X575057Y219208D01*
X575237Y219244D01*
X575432Y219304D01*
X575629Y219355D01*
X575801Y219418D01*
X575977Y219472D01*
X576164Y219552D01*
X576356Y219623D01*
X576520Y219704D01*
X576689Y219775D01*
X576701Y219782D01*
X576701Y203200D01*
X576701Y165100D01*
X576716Y164793D01*
X576726Y164487D01*
X576736Y164407D01*
X576741Y164327D01*
X576788Y164024D01*
X576829Y163719D01*
X576848Y163641D01*
X576860Y163562D01*
X576938Y163266D01*
X577011Y162966D01*
X577037Y162891D01*
X577058Y162813D01*
X577166Y162527D01*
X577269Y162237D01*
X577303Y162164D01*
X577332Y162089D01*
X577469Y161815D01*
X577601Y161537D01*
X577643Y161469D01*
X577679Y161397D01*
X577844Y161138D01*
X578004Y160876D01*
X578052Y160812D01*
X578095Y160744D01*
X578286Y160504D01*
X578472Y160259D01*
X578527Y160201D01*
X578577Y160138D01*
X578792Y159919D01*
X579002Y159695D01*
X579063Y159642D01*
X579119Y159585D01*
X579355Y159388D01*
X579587Y159187D01*
X579653Y159142D01*
X579715Y159090D01*
X579970Y158919D01*
X580221Y158743D01*
X580292Y158704D01*
X580358Y158660D01*
X580630Y158516D01*
X580898Y158367D01*
X580972Y158335D01*
X581043Y158298D01*
X581328Y158183D01*
X581610Y158062D01*
X581687Y158039D01*
X581761Y158009D01*
X582056Y157924D01*
X582350Y157833D01*
X582428Y157817D01*
X582505Y157795D01*
X582807Y157741D01*
X583109Y157681D01*
X583172Y157676D01*
X583267Y157659D01*
X584040Y157603D01*
X584136Y157606D01*
X584200Y157601D01*
X584507Y157617D01*
X584814Y157626D01*
X584893Y157637D01*
X584973Y157641D01*
X585277Y157688D01*
X585581Y157729D01*
X585659Y157748D01*
X585738Y157761D01*
X586035Y157839D01*
X586334Y157911D01*
X586410Y157938D01*
X586487Y157958D01*
X586773Y158067D01*
X587064Y158169D01*
X587137Y158204D01*
X587211Y158232D01*
X587486Y158370D01*
X587763Y158502D01*
X587832Y158543D01*
X587903Y158579D01*
X588162Y158745D01*
X588425Y158904D01*
X588489Y158953D01*
X588556Y158996D01*
X588796Y159187D01*
X589041Y159373D01*
X589100Y159428D01*
X589162Y159478D01*
X589382Y159692D01*
X589606Y159903D01*
X589658Y159963D01*
X589716Y160019D01*
X589912Y160256D01*
X590113Y160488D01*
X590159Y160553D01*
X590210Y160615D01*
X590381Y160871D01*
X590557Y161122D01*
X590596Y161192D01*
X590641Y161259D01*
X590784Y161530D01*
X590933Y161799D01*
X590965Y161872D01*
X591002Y161943D01*
X591117Y162228D01*
X591238Y162511D01*
X591262Y162587D01*
X591292Y162661D01*
X591376Y162957D01*
X591468Y163250D01*
X591483Y163329D01*
X591505Y163406D01*
X591559Y163708D01*
X591620Y164009D01*
X591624Y164073D01*
X591641Y164168D01*
X591698Y164940D01*
X591695Y165037D01*
X591699Y165100D01*
X591699Y203200D01*
X591699Y219959D01*
X591942Y219858D01*
X591992Y219842D01*
X592041Y219823D01*
X592362Y219730D01*
X592683Y219634D01*
X592735Y219623D01*
X592785Y219609D01*
X593113Y219551D01*
X593443Y219487D01*
X593496Y219482D01*
X593548Y219473D01*
X593880Y219449D01*
X594215Y219420D01*
X594268Y219421D01*
X594320Y219417D01*
X594654Y219427D01*
X594989Y219432D01*
X595041Y219439D01*
X595094Y219440D01*
X595426Y219485D01*
X595758Y219525D01*
X595809Y219536D01*
X595861Y219543D01*
X596188Y219622D01*
X596513Y219696D01*
X596562Y219713D01*
X596614Y219725D01*
X596930Y219837D01*
X597246Y219944D01*
X597294Y219966D01*
X597344Y219983D01*
X597646Y220127D01*
X597950Y220266D01*
X597996Y220293D01*
X598043Y220316D01*
X598329Y220490D01*
X598617Y220659D01*
X598660Y220691D01*
X598705Y220718D01*
X598970Y220920D01*
X599240Y221119D01*
X599279Y221155D01*
X599321Y221187D01*
X599565Y221415D01*
X599812Y221641D01*
X599847Y221680D01*
X599886Y221717D01*
X600105Y221970D01*
X600328Y222219D01*
X600358Y222262D01*
X600393Y222302D01*
X600585Y222576D01*
X600781Y222847D01*
X600807Y222893D01*
X600837Y222936D01*
X600999Y223228D01*
X601166Y223518D01*
X601188Y223567D01*
X601213Y223613D01*
X601345Y223921D01*
X601481Y224226D01*
X601497Y224276D01*
X601518Y224325D01*
X601617Y224644D01*
X601721Y224962D01*
X601732Y225014D01*
X601747Y225064D01*
X601813Y225392D01*
X601883Y225719D01*
X601889Y225771D01*
X601899Y225823D01*
X601909Y225956D01*
X601967Y226489D01*
X601969Y226769D01*
X601979Y226914D01*
X601979Y407577D01*
X601975Y407650D01*
X601978Y407724D01*
X601956Y408036D01*
X601939Y408350D01*
X601928Y408423D01*
X601923Y408496D01*
X601868Y408805D01*
X601820Y409115D01*
X601801Y409186D01*
X601788Y409259D01*
X601702Y409561D01*
X601622Y409864D01*
X601596Y409932D01*
X601576Y410003D01*
X601459Y410295D01*
X601348Y410588D01*
X601315Y410653D01*
X601288Y410722D01*
X601142Y411000D01*
X601001Y411280D01*
X600961Y411342D01*
X600927Y411407D01*
X600753Y411668D01*
X600584Y411933D01*
X600539Y411990D01*
X600498Y412051D01*
X600400Y412165D01*
X600103Y412539D01*
X599883Y412763D01*
X599783Y412879D01*
X590679Y421983D01*
X590625Y422032D01*
X590574Y422086D01*
X590337Y422292D01*
X590104Y422501D01*
X590045Y422545D01*
X589989Y422593D01*
X589732Y422773D01*
X589479Y422958D01*
X589415Y422995D01*
X589355Y423037D01*
X589081Y423190D01*
X588810Y423347D01*
X588743Y423378D01*
X588678Y423413D01*
X588390Y423537D01*
X588104Y423666D01*
X588034Y423689D01*
X587966Y423718D01*
X587667Y423811D01*
X587369Y423910D01*
X587297Y423926D01*
X587227Y423947D01*
X586919Y424009D01*
X586613Y424077D01*
X586540Y424085D01*
X586468Y424099D01*
X586317Y424110D01*
X585844Y424165D01*
X585530Y424168D01*
X585377Y424179D01*
X416425Y424179D01*
X411256Y425564D01*
X406623Y428239D01*
X400179Y434683D01*
X400125Y434732D01*
X400074Y434786D01*
X399837Y434991D01*
X399604Y435201D01*
X399545Y435245D01*
X399489Y435293D01*
X399232Y435473D01*
X398979Y435658D01*
X398915Y435695D01*
X398855Y435737D01*
X398581Y435889D01*
X398310Y436047D01*
X398243Y436078D01*
X398178Y436113D01*
X397890Y436237D01*
X397604Y436366D01*
X397534Y436389D01*
X397466Y436418D01*
X397167Y436511D01*
X396869Y436610D01*
X396797Y436626D01*
X396727Y436647D01*
X396419Y436709D01*
X396113Y436777D01*
X396040Y436785D01*
X395968Y436799D01*
X395818Y436810D01*
X395344Y436865D01*
X395030Y436868D01*
X394877Y436879D01*
X365625Y436879D01*
X360456Y438264D01*
X355823Y440939D01*
X319428Y477334D01*
X319314Y477437D01*
X319206Y477547D01*
X319026Y477697D01*
X318853Y477853D01*
X318729Y477943D01*
X318610Y478042D01*
X318416Y478172D01*
X318227Y478309D01*
X318094Y478387D01*
X317967Y478472D01*
X317760Y478581D01*
X317558Y478699D01*
X317418Y478762D01*
X317282Y478834D01*
X317065Y478921D01*
X316852Y479017D01*
X316706Y479066D01*
X316564Y479123D01*
X316339Y479188D01*
X316117Y479261D01*
X315967Y479295D01*
X315820Y479337D01*
X315590Y479378D01*
X315361Y479428D01*
X315209Y479446D01*
X315057Y479473D01*
X314824Y479490D01*
X314592Y479516D01*
X314438Y479518D01*
X314285Y479529D01*
X314052Y479522D01*
X313818Y479525D01*
X313665Y479510D01*
X313511Y479506D01*
X313279Y479475D01*
X313047Y479453D01*
X312896Y479423D01*
X312744Y479403D01*
X312516Y479348D01*
X312287Y479302D01*
X312141Y479257D01*
X311991Y479221D01*
X311771Y479143D01*
X311547Y479074D01*
X311406Y479014D01*
X311261Y478963D01*
X311050Y478862D01*
X310835Y478771D01*
X310701Y478696D01*
X310562Y478630D01*
X310362Y478509D01*
X310158Y478396D01*
X310032Y478308D01*
X309900Y478228D01*
X309714Y478086D01*
X309523Y477953D01*
X309406Y477852D01*
X309284Y477759D01*
X309113Y477599D01*
X308937Y477446D01*
X308831Y477334D01*
X308719Y477229D01*
X308566Y477053D01*
X308406Y476883D01*
X308313Y476761D01*
X308212Y476644D01*
X308078Y476453D01*
X307936Y476267D01*
X307856Y476136D01*
X307768Y476010D01*
X307654Y475806D01*
X307533Y475606D01*
X307466Y475468D01*
X307392Y475333D01*
X307300Y475118D01*
X307199Y474907D01*
X307148Y474763D01*
X307087Y474621D01*
X307018Y474398D01*
X306939Y474178D01*
X306903Y474029D01*
X306858Y473882D01*
X306812Y473653D01*
X306756Y473426D01*
X306736Y473274D01*
X306706Y473123D01*
X306694Y472969D01*
X306652Y472658D01*
X306637Y472182D01*
X306626Y472032D01*
X306626Y467693D01*
X298117Y459184D01*
X286083Y459184D01*
X277574Y467693D01*
X277574Y479727D01*
X286275Y488428D01*
X286360Y488522D01*
X286452Y488610D01*
X286620Y488810D01*
X286794Y489003D01*
X286869Y489106D01*
X286951Y489203D01*
X287097Y489418D01*
X287250Y489628D01*
X287314Y489738D01*
X287386Y489843D01*
X287509Y490072D01*
X287640Y490298D01*
X287692Y490413D01*
X287752Y490525D01*
X287851Y490766D01*
X287958Y491003D01*
X287998Y491123D01*
X288047Y491241D01*
X288121Y491492D01*
X288202Y491738D01*
X288230Y491862D01*
X288266Y491984D01*
X288313Y492240D01*
X288369Y492494D01*
X288384Y492620D01*
X288407Y492745D01*
X288428Y493005D01*
X288457Y493264D01*
X288459Y493390D01*
X288469Y493517D01*
X288463Y493778D01*
X288466Y494038D01*
X288454Y494164D01*
X288451Y494291D01*
X288418Y494550D01*
X288394Y494809D01*
X288369Y494933D01*
X288353Y495059D01*
X288294Y495313D01*
X288243Y495568D01*
X288206Y495690D01*
X288177Y495813D01*
X288092Y496059D01*
X288015Y496308D01*
X287965Y496425D01*
X287924Y496545D01*
X287814Y496781D01*
X287712Y497021D01*
X287650Y497132D01*
X287596Y497247D01*
X287463Y497470D01*
X287337Y497698D01*
X287264Y497802D01*
X287199Y497911D01*
X287042Y498119D01*
X286894Y498333D01*
X286810Y498429D01*
X286734Y498531D01*
X286558Y498722D01*
X286387Y498919D01*
X286295Y499006D01*
X286209Y499099D01*
X286013Y499272D01*
X285824Y499450D01*
X285723Y499527D01*
X285627Y499611D01*
X285495Y499700D01*
X285208Y499919D01*
X284854Y500135D01*
X284722Y500225D01*
X279623Y503169D01*
X275839Y506953D01*
X273164Y511586D01*
X271779Y516755D01*
X271779Y522105D01*
X273164Y527274D01*
X275839Y531907D01*
X279623Y535691D01*
X284256Y538366D01*
X289425Y539751D01*
X308745Y539751D01*
X313914Y538366D01*
X318547Y535691D01*
X373277Y480961D01*
X373391Y480858D01*
X373499Y480748D01*
X373679Y480598D01*
X373852Y480442D01*
X373976Y480352D01*
X374095Y480253D01*
X374289Y480123D01*
X374478Y479986D01*
X374611Y479908D01*
X374738Y479823D01*
X374945Y479714D01*
X375147Y479596D01*
X375287Y479533D01*
X375423Y479461D01*
X375640Y479374D01*
X375853Y479278D01*
X375999Y479229D01*
X376141Y479172D01*
X376366Y479107D01*
X376588Y479034D01*
X376738Y479000D01*
X376885Y478958D01*
X377115Y478917D01*
X377344Y478867D01*
X377496Y478849D01*
X377648Y478822D01*
X377881Y478805D01*
X378113Y478779D01*
X378267Y478777D01*
X378420Y478766D01*
X378653Y478773D01*
X378887Y478770D01*
X379040Y478785D01*
X379194Y478789D01*
X379426Y478820D01*
X379658Y478842D01*
X379809Y478872D01*
X379961Y478892D01*
X380189Y478947D01*
X380418Y478993D01*
X380564Y479038D01*
X380714Y479074D01*
X380934Y479152D01*
X381158Y479221D01*
X381299Y479281D01*
X381444Y479332D01*
X381655Y479433D01*
X381870Y479524D01*
X382004Y479599D01*
X382143Y479665D01*
X382343Y479786D01*
X382547Y479899D01*
X382673Y479987D01*
X382805Y480067D01*
X382991Y480209D01*
X383182Y480342D01*
X383299Y480443D01*
X383421Y480536D01*
X383592Y480696D01*
X383768Y480849D01*
X383874Y480960D01*
X383986Y481066D01*
X384139Y481242D01*
X384299Y481412D01*
X384392Y481534D01*
X384493Y481651D01*
X384627Y481842D01*
X384769Y482028D01*
X384849Y482159D01*
X384937Y482285D01*
X385051Y482489D01*
X385172Y482689D01*
X385239Y482827D01*
X385313Y482962D01*
X385405Y483177D01*
X385506Y483388D01*
X385557Y483532D01*
X385618Y483674D01*
X385687Y483897D01*
X385766Y484117D01*
X385802Y484266D01*
X385847Y484413D01*
X385893Y484642D01*
X385949Y484869D01*
X385969Y485021D01*
X385999Y485172D01*
X386011Y485326D01*
X386053Y485637D01*
X386068Y486113D01*
X386079Y486263D01*
X386079Y497975D01*
X387464Y503144D01*
X390139Y507777D01*
X391551Y509189D01*
X391652Y509300D01*
X391759Y509406D01*
X391911Y509588D01*
X392069Y509764D01*
X392158Y509885D01*
X392254Y510001D01*
X392386Y510198D01*
X392526Y510389D01*
X392602Y510519D01*
X392685Y510644D01*
X392755Y510783D01*
X392915Y511058D01*
X393108Y511486D01*
X393177Y511622D01*
X394017Y513650D01*
X398210Y517843D01*
X403689Y520113D01*
X409619Y520113D01*
X415098Y517843D01*
X419291Y513650D01*
X420311Y511188D01*
X420376Y511052D01*
X420432Y510913D01*
X420542Y510703D01*
X420644Y510489D01*
X420722Y510361D01*
X420792Y510227D01*
X420924Y510030D01*
X421047Y509828D01*
X421138Y509708D01*
X421222Y509583D01*
X421323Y509466D01*
X421516Y509212D01*
X421837Y508870D01*
X421937Y508755D01*
X422915Y507777D01*
X425590Y503144D01*
X426975Y497975D01*
X426975Y492623D01*
X426966Y492584D01*
X426953Y492540D01*
X426886Y492206D01*
X426815Y491873D01*
X426810Y491827D01*
X426801Y491781D01*
X426791Y491655D01*
X426732Y491103D01*
X426731Y490833D01*
X426721Y490689D01*
X426721Y472320D01*
X426737Y472013D01*
X426746Y471706D01*
X426757Y471627D01*
X426761Y471547D01*
X426808Y471244D01*
X426849Y470939D01*
X426868Y470861D01*
X426880Y470782D01*
X426958Y470485D01*
X427031Y470186D01*
X427058Y470110D01*
X427078Y470033D01*
X427186Y469747D01*
X427289Y469456D01*
X427324Y469384D01*
X427352Y469309D01*
X427489Y469035D01*
X427621Y468757D01*
X427663Y468688D01*
X427699Y468617D01*
X427864Y468358D01*
X428024Y468095D01*
X428072Y468032D01*
X428116Y467964D01*
X428306Y467724D01*
X428493Y467479D01*
X428547Y467420D01*
X428597Y467358D01*
X428812Y467138D01*
X429022Y466914D01*
X429083Y466862D01*
X429139Y466804D01*
X429376Y466608D01*
X429607Y466407D01*
X429673Y466361D01*
X429735Y466310D01*
X429990Y466139D01*
X430242Y465963D01*
X430312Y465924D01*
X430378Y465879D01*
X430650Y465736D01*
X430918Y465587D01*
X430992Y465555D01*
X431063Y465518D01*
X431348Y465403D01*
X431630Y465282D01*
X431707Y465258D01*
X431781Y465228D01*
X432076Y465144D01*
X432370Y465053D01*
X432448Y465037D01*
X432525Y465015D01*
X432827Y464961D01*
X433129Y464901D01*
X433193Y464896D01*
X433288Y464879D01*
X434060Y464822D01*
X434156Y464825D01*
X434220Y464821D01*
X438333Y464821D01*
X438487Y464829D01*
X438641Y464827D01*
X438873Y464849D01*
X439106Y464861D01*
X439258Y464884D01*
X439412Y464899D01*
X439641Y464944D01*
X439871Y464980D01*
X440020Y465019D01*
X440171Y465049D01*
X440394Y465118D01*
X440620Y465178D01*
X440764Y465232D01*
X440911Y465278D01*
X441126Y465369D01*
X441344Y465452D01*
X441482Y465521D01*
X441623Y465581D01*
X441828Y465694D01*
X442036Y465799D01*
X442166Y465882D01*
X442301Y465956D01*
X442493Y466090D01*
X442689Y466216D01*
X442809Y466311D01*
X442936Y466399D01*
X443113Y466552D01*
X443295Y466697D01*
X443405Y466805D01*
X443522Y466905D01*
X443682Y467075D01*
X443849Y467239D01*
X443947Y467357D01*
X444052Y467469D01*
X444194Y467655D01*
X444343Y467835D01*
X444429Y467963D01*
X444522Y468085D01*
X444644Y468284D01*
X444774Y468478D01*
X444846Y468614D01*
X444926Y468746D01*
X445026Y468956D01*
X445135Y469163D01*
X445193Y469306D01*
X445259Y469444D01*
X445337Y469664D01*
X445425Y469881D01*
X445467Y470029D01*
X445519Y470174D01*
X445574Y470401D01*
X445638Y470625D01*
X445665Y470777D01*
X445702Y470926D01*
X445733Y471158D01*
X445774Y471388D01*
X445785Y471541D01*
X445806Y471693D01*
X445814Y471927D01*
X445831Y472160D01*
X445826Y472313D01*
X445831Y472467D01*
X445814Y472700D01*
X445807Y472934D01*
X445787Y473086D01*
X445776Y473240D01*
X445735Y473469D01*
X445704Y473701D01*
X445668Y473851D01*
X445641Y474002D01*
X445577Y474227D01*
X445522Y474454D01*
X445471Y474599D01*
X445429Y474747D01*
X445342Y474964D01*
X445264Y475184D01*
X445198Y475323D01*
X445141Y475466D01*
X445032Y475672D01*
X444932Y475883D01*
X444852Y476015D01*
X444780Y476151D01*
X444651Y476345D01*
X444529Y476545D01*
X444436Y476667D01*
X444409Y476708D01*
X442039Y482429D01*
X442039Y508171D01*
X444309Y513650D01*
X448502Y517843D01*
X453981Y520113D01*
X459911Y520113D01*
X465390Y517843D01*
X469583Y513650D01*
X471853Y508171D01*
X471853Y482429D01*
X469482Y476706D01*
X469419Y476611D01*
X469281Y476423D01*
X469204Y476289D01*
X469118Y476162D01*
X469009Y475955D01*
X468892Y475753D01*
X468829Y475613D01*
X468757Y475477D01*
X468669Y475260D01*
X468573Y475048D01*
X468525Y474902D01*
X468467Y474759D01*
X468403Y474534D01*
X468329Y474313D01*
X468296Y474162D01*
X468254Y474015D01*
X468213Y473785D01*
X468162Y473557D01*
X468145Y473404D01*
X468118Y473252D01*
X468101Y473019D01*
X468074Y472787D01*
X468073Y472634D01*
X468061Y472480D01*
X468068Y472247D01*
X468066Y472013D01*
X468080Y471860D01*
X468085Y471706D01*
X468116Y471474D01*
X468137Y471242D01*
X468167Y471092D01*
X468188Y470939D01*
X468243Y470711D01*
X468288Y470483D01*
X468333Y470336D01*
X468370Y470186D01*
X468448Y469966D01*
X468516Y469743D01*
X468576Y469601D01*
X468628Y469456D01*
X468728Y469245D01*
X468820Y469030D01*
X468894Y468896D01*
X468960Y468757D01*
X469082Y468557D01*
X469195Y468353D01*
X469283Y468227D01*
X469363Y468095D01*
X469504Y467909D01*
X469638Y467718D01*
X469738Y467602D01*
X469831Y467479D01*
X469991Y467309D01*
X470144Y467132D01*
X470256Y467026D01*
X470361Y466914D01*
X470537Y466761D01*
X470708Y466601D01*
X470830Y466508D01*
X470946Y466407D01*
X471137Y466273D01*
X471323Y466131D01*
X471455Y466051D01*
X471580Y465963D01*
X471785Y465850D01*
X471984Y465728D01*
X472123Y465661D01*
X472257Y465587D01*
X472472Y465495D01*
X472683Y465394D01*
X472827Y465343D01*
X472969Y465282D01*
X473192Y465213D01*
X473412Y465135D01*
X473562Y465098D01*
X473709Y465053D01*
X473937Y465007D01*
X474165Y464951D01*
X474317Y464931D01*
X474468Y464901D01*
X474621Y464889D01*
X474932Y464847D01*
X475409Y464832D01*
X475559Y464821D01*
X505834Y464821D01*
X506141Y464837D01*
X506448Y464846D01*
X506527Y464857D01*
X506607Y464861D01*
X506910Y464908D01*
X507215Y464949D01*
X507293Y464968D01*
X507372Y464980D01*
X507669Y465058D01*
X507968Y465131D01*
X508044Y465158D01*
X508121Y465178D01*
X508407Y465286D01*
X508698Y465389D01*
X508770Y465424D01*
X508845Y465452D01*
X509119Y465589D01*
X509397Y465721D01*
X509466Y465763D01*
X509537Y465799D01*
X509796Y465964D01*
X510059Y466124D01*
X510122Y466172D01*
X510190Y466216D01*
X510430Y466406D01*
X510675Y466593D01*
X510734Y466647D01*
X510796Y466697D01*
X511016Y466912D01*
X511240Y467122D01*
X511292Y467183D01*
X511350Y467239D01*
X511546Y467476D01*
X511747Y467707D01*
X511793Y467773D01*
X511844Y467835D01*
X512015Y468090D01*
X512191Y468342D01*
X512230Y468412D01*
X512275Y468478D01*
X512418Y468750D01*
X512567Y469018D01*
X512599Y469092D01*
X512636Y469163D01*
X512751Y469448D01*
X512872Y469730D01*
X512896Y469807D01*
X512926Y469881D01*
X513010Y470176D01*
X513101Y470470D01*
X513117Y470548D01*
X513139Y470625D01*
X513193Y470927D01*
X513253Y471229D01*
X513258Y471293D01*
X513275Y471388D01*
X513332Y472160D01*
X513329Y472256D01*
X513333Y472320D01*
X513333Y497975D01*
X514718Y503144D01*
X517393Y507777D01*
X518371Y508755D01*
X518472Y508867D01*
X518580Y508972D01*
X518731Y509154D01*
X518890Y509330D01*
X518979Y509452D01*
X519075Y509567D01*
X519206Y509764D01*
X519346Y509956D01*
X519422Y510086D01*
X519506Y510211D01*
X519575Y510349D01*
X519736Y510625D01*
X519929Y511052D01*
X519997Y511188D01*
X521017Y513650D01*
X525210Y517843D01*
X530689Y520113D01*
X536619Y520113D01*
X542098Y517843D01*
X546291Y513650D01*
X547311Y511188D01*
X547376Y511052D01*
X547432Y510913D01*
X547542Y510703D01*
X547644Y510489D01*
X547722Y510361D01*
X547792Y510227D01*
X547924Y510030D01*
X548047Y509828D01*
X548138Y509708D01*
X548222Y509583D01*
X548323Y509466D01*
X548516Y509212D01*
X548837Y508870D01*
X548937Y508755D01*
X549915Y507777D01*
X552590Y503144D01*
X553975Y497975D01*
X553975Y472320D01*
X553991Y472013D01*
X554000Y471706D01*
X554011Y471627D01*
X554015Y471547D01*
X554062Y471244D01*
X554103Y470939D01*
X554122Y470861D01*
X554134Y470782D01*
X554212Y470485D01*
X554285Y470186D01*
X554312Y470110D01*
X554332Y470033D01*
X554440Y469747D01*
X554543Y469456D01*
X554578Y469384D01*
X554606Y469309D01*
X554743Y469035D01*
X554875Y468757D01*
X554917Y468688D01*
X554953Y468617D01*
X555118Y468358D01*
X555278Y468095D01*
X555326Y468032D01*
X555370Y467964D01*
X555560Y467724D01*
X555747Y467479D01*
X555801Y467420D01*
X555851Y467358D01*
X556066Y467138D01*
X556276Y466914D01*
X556337Y466862D01*
X556393Y466804D01*
X556630Y466608D01*
X556861Y466407D01*
X556927Y466361D01*
X556989Y466310D01*
X557244Y466139D01*
X557496Y465963D01*
X557566Y465924D01*
X557632Y465879D01*
X557904Y465736D01*
X558172Y465587D01*
X558246Y465555D01*
X558317Y465518D01*
X558602Y465403D01*
X558884Y465282D01*
X558961Y465258D01*
X559035Y465228D01*
X559330Y465144D01*
X559624Y465053D01*
X559702Y465037D01*
X559779Y465015D01*
X560081Y464961D01*
X560383Y464901D01*
X560447Y464896D01*
X560542Y464879D01*
X561314Y464822D01*
X561410Y464825D01*
X561474Y464821D01*
X565333Y464821D01*
X565487Y464829D01*
X565641Y464827D01*
X565873Y464849D01*
X566106Y464861D01*
X566258Y464884D01*
X566412Y464899D01*
X566641Y464944D01*
X566871Y464980D01*
X567020Y465019D01*
X567171Y465049D01*
X567394Y465118D01*
X567620Y465178D01*
X567764Y465232D01*
X567911Y465278D01*
X568126Y465369D01*
X568344Y465452D01*
X568482Y465521D01*
X568623Y465581D01*
X568828Y465694D01*
X569036Y465799D01*
X569166Y465882D01*
X569301Y465956D01*
X569493Y466090D01*
X569689Y466216D01*
X569809Y466311D01*
X569936Y466399D01*
X570113Y466552D01*
X570295Y466697D01*
X570405Y466805D01*
X570522Y466905D01*
X570682Y467075D01*
X570849Y467239D01*
X570947Y467357D01*
X571052Y467469D01*
X571194Y467655D01*
X571343Y467835D01*
X571429Y467963D01*
X571522Y468085D01*
X571644Y468284D01*
X571774Y468478D01*
X571846Y468614D01*
X571926Y468746D01*
X572026Y468956D01*
X572135Y469163D01*
X572193Y469306D01*
X572259Y469444D01*
X572337Y469664D01*
X572425Y469881D01*
X572467Y470029D01*
X572519Y470174D01*
X572574Y470401D01*
X572638Y470625D01*
X572665Y470777D01*
X572702Y470926D01*
X572733Y471158D01*
X572774Y471388D01*
X572785Y471541D01*
X572806Y471693D01*
X572814Y471927D01*
X572831Y472160D01*
X572826Y472313D01*
X572831Y472467D01*
X572814Y472700D01*
X572807Y472934D01*
X572787Y473086D01*
X572776Y473240D01*
X572735Y473469D01*
X572704Y473701D01*
X572668Y473851D01*
X572641Y474002D01*
X572577Y474227D01*
X572522Y474454D01*
X572471Y474599D01*
X572429Y474747D01*
X572342Y474964D01*
X572264Y475184D01*
X572198Y475323D01*
X572141Y475466D01*
X572032Y475672D01*
X571932Y475883D01*
X571852Y476015D01*
X571780Y476151D01*
X571651Y476345D01*
X571529Y476545D01*
X571436Y476667D01*
X571409Y476708D01*
X569039Y482429D01*
X569039Y508171D01*
X571309Y513650D01*
X575502Y517843D01*
X580981Y520113D01*
X586911Y520113D01*
X592390Y517843D01*
X596583Y513650D01*
X598853Y508171D01*
X598853Y482429D01*
X596564Y476902D01*
X596384Y476708D01*
X596351Y476665D01*
X596316Y476626D01*
X596120Y476357D01*
X595918Y476089D01*
X595891Y476043D01*
X595859Y476001D01*
X595691Y475712D01*
X595519Y475426D01*
X595497Y475377D01*
X595470Y475331D01*
X595332Y475027D01*
X595191Y474725D01*
X595173Y474674D01*
X595151Y474626D01*
X595046Y474308D01*
X594936Y473993D01*
X594924Y473942D01*
X594907Y473891D01*
X594835Y473564D01*
X594759Y473240D01*
X594752Y473187D01*
X594740Y473135D01*
X594702Y472803D01*
X594660Y472472D01*
X594658Y472418D01*
X594652Y472365D01*
X594649Y472030D01*
X594640Y471698D01*
X594645Y471645D01*
X594644Y471591D01*
X594675Y471258D01*
X594701Y470926D01*
X594711Y470873D01*
X594716Y470820D01*
X594781Y470492D01*
X594841Y470164D01*
X594856Y470113D01*
X594866Y470061D01*
X594965Y469741D01*
X595059Y469421D01*
X595079Y469372D01*
X595095Y469321D01*
X595226Y469013D01*
X595352Y468704D01*
X595377Y468657D01*
X595398Y468608D01*
X595559Y468316D01*
X595717Y468022D01*
X595747Y467977D01*
X595773Y467931D01*
X595964Y467657D01*
X596151Y467380D01*
X596185Y467340D01*
X596216Y467296D01*
X596434Y467043D01*
X596649Y466787D01*
X596687Y466750D01*
X596722Y466710D01*
X596965Y466482D01*
X597205Y466249D01*
X597247Y466216D01*
X597286Y466179D01*
X597551Y465977D01*
X597814Y465770D01*
X597859Y465742D01*
X597901Y465709D01*
X598185Y465536D01*
X598469Y465357D01*
X598517Y465333D01*
X598562Y465306D01*
X598862Y465163D01*
X599163Y465014D01*
X599204Y465000D01*
X599261Y464972D01*
X599990Y464713D01*
X600118Y464682D01*
X600196Y464654D01*
X604744Y463436D01*
X609377Y460761D01*
X613859Y456279D01*
X634079Y436059D01*
X634080Y436058D01*
X637237Y432901D01*
X637351Y432798D01*
X637459Y432688D01*
X637639Y432538D01*
X637812Y432382D01*
X637936Y432292D01*
X638055Y432193D01*
X638249Y432063D01*
X638438Y431926D01*
X638571Y431848D01*
X638698Y431763D01*
X638905Y431654D01*
X639107Y431536D01*
X639247Y431473D01*
X639383Y431401D01*
X639600Y431314D01*
X639813Y431218D01*
X639958Y431169D01*
X640101Y431112D01*
X640326Y431047D01*
X640548Y430974D01*
X640698Y430940D01*
X640845Y430898D01*
X641075Y430857D01*
X641304Y430807D01*
X641456Y430789D01*
X641608Y430762D01*
X641841Y430745D01*
X642073Y430719D01*
X642227Y430717D01*
X642380Y430706D01*
X642613Y430713D01*
X642847Y430710D01*
X643000Y430725D01*
X643154Y430729D01*
X643386Y430760D01*
X643618Y430782D01*
X643769Y430812D01*
X643921Y430832D01*
X644149Y430887D01*
X644378Y430933D01*
X644524Y430978D01*
X644674Y431014D01*
X644895Y431092D01*
X645118Y431161D01*
X645259Y431221D01*
X645404Y431272D01*
X645615Y431373D01*
X645830Y431464D01*
X645964Y431539D01*
X646103Y431605D01*
X646303Y431726D01*
X646507Y431839D01*
X646634Y431928D01*
X646765Y432007D01*
X646950Y432149D01*
X647142Y432282D01*
X647259Y432383D01*
X647381Y432476D01*
X647551Y432636D01*
X647728Y432789D01*
X647834Y432901D01*
X647946Y433006D01*
X648099Y433182D01*
X648259Y433352D01*
X648352Y433475D01*
X648453Y433591D01*
X648587Y433782D01*
X648729Y433968D01*
X648809Y434099D01*
X648897Y434225D01*
X649011Y434429D01*
X649132Y434629D01*
X649199Y434767D01*
X649273Y434902D01*
X649365Y435117D01*
X649466Y435327D01*
X649517Y435472D01*
X649578Y435614D01*
X649647Y435837D01*
X649726Y436057D01*
X649762Y436207D01*
X649807Y436353D01*
X649853Y436582D01*
X649909Y436809D01*
X649929Y436961D01*
X649959Y437112D01*
X649971Y437266D01*
X650013Y437577D01*
X650028Y438054D01*
X650039Y438203D01*
X650039Y511519D01*
X650033Y511646D01*
X650035Y511773D01*
X650013Y512032D01*
X649999Y512292D01*
X649980Y512418D01*
X649969Y512544D01*
X649920Y512800D01*
X649880Y513057D01*
X649847Y513180D01*
X649824Y513305D01*
X649748Y513555D01*
X649682Y513806D01*
X649637Y513925D01*
X649601Y514047D01*
X649500Y514287D01*
X649408Y514530D01*
X649351Y514644D01*
X649302Y514761D01*
X649178Y514990D01*
X649061Y515222D01*
X648993Y515329D01*
X648932Y515441D01*
X648784Y515656D01*
X648644Y515875D01*
X648566Y515974D01*
X648494Y516079D01*
X648324Y516278D01*
X648163Y516481D01*
X648074Y516572D01*
X647992Y516669D01*
X647803Y516848D01*
X647621Y517035D01*
X647523Y517116D01*
X647432Y517203D01*
X647226Y517363D01*
X647025Y517529D01*
X646920Y517600D01*
X646819Y517678D01*
X646598Y517815D01*
X646382Y517960D01*
X646269Y518019D01*
X646161Y518086D01*
X645928Y518200D01*
X645697Y518321D01*
X645579Y518369D01*
X645465Y518424D01*
X645221Y518513D01*
X644979Y518611D01*
X644857Y518646D01*
X644737Y518689D01*
X644485Y518753D01*
X644235Y518824D01*
X644110Y518847D01*
X643986Y518878D01*
X643728Y518915D01*
X643472Y518960D01*
X643346Y518969D01*
X643220Y518988D01*
X642959Y518998D01*
X642700Y519017D01*
X642573Y519013D01*
X642446Y519018D01*
X642187Y519001D01*
X641926Y518993D01*
X641800Y518976D01*
X641674Y518968D01*
X641517Y518938D01*
X641159Y518890D01*
X640756Y518793D01*
X640599Y518763D01*
X634502Y517129D01*
X627877Y517129D01*
X621478Y518844D01*
X615741Y522156D01*
X611056Y526841D01*
X607744Y532578D01*
X606029Y538977D01*
X606029Y545602D01*
X607853Y552409D01*
X607880Y552534D01*
X607915Y552655D01*
X607960Y552911D01*
X608015Y553166D01*
X608028Y553293D01*
X608050Y553418D01*
X608069Y553677D01*
X608097Y553936D01*
X608098Y554063D01*
X608107Y554190D01*
X608099Y554450D01*
X608100Y554710D01*
X608087Y554837D01*
X608083Y554964D01*
X608049Y555222D01*
X608023Y555481D01*
X607997Y555605D01*
X607980Y555731D01*
X607919Y555985D01*
X607867Y556239D01*
X607829Y556360D01*
X607799Y556484D01*
X607712Y556730D01*
X607633Y556978D01*
X607583Y557094D01*
X607540Y557214D01*
X607429Y557449D01*
X607325Y557688D01*
X607263Y557799D01*
X607208Y557913D01*
X607073Y558135D01*
X606945Y558362D01*
X606871Y558466D01*
X606805Y558575D01*
X606648Y558782D01*
X606497Y558994D01*
X606414Y559090D01*
X606337Y559191D01*
X606159Y559381D01*
X605987Y559577D01*
X605894Y559663D01*
X605807Y559756D01*
X605610Y559926D01*
X605420Y560103D01*
X605318Y560180D01*
X605222Y560263D01*
X605009Y560412D01*
X604801Y560569D01*
X604692Y560634D01*
X604588Y560707D01*
X604360Y560834D01*
X604137Y560968D01*
X604022Y561022D01*
X603911Y561083D01*
X603671Y561186D01*
X603436Y561296D01*
X603316Y561338D01*
X603199Y561388D01*
X602950Y561465D01*
X602705Y561551D01*
X602581Y561580D01*
X602460Y561617D01*
X602205Y561669D01*
X601951Y561728D01*
X601825Y561745D01*
X601700Y561769D01*
X601541Y561781D01*
X601183Y561827D01*
X600769Y561838D01*
X600609Y561849D01*
X57251Y561849D01*
X57124Y561843D01*
X56997Y561845D01*
X56738Y561823D01*
X56477Y561809D01*
X56352Y561790D01*
X56225Y561779D01*
X55970Y561730D01*
X55712Y561690D01*
X55590Y561657D01*
X55465Y561634D01*
X55215Y561558D01*
X54964Y561492D01*
X54845Y561447D01*
X54723Y561411D01*
X54483Y561310D01*
X54239Y561218D01*
X54126Y561161D01*
X54009Y561112D01*
X53780Y560988D01*
X53547Y560871D01*
X53440Y560803D01*
X53329Y560742D01*
X53114Y560594D01*
X52895Y560454D01*
X52795Y560376D01*
X52690Y560304D01*
X52492Y560134D01*
X52288Y559973D01*
X52198Y559884D01*
X52101Y559802D01*
X51921Y559613D01*
X51735Y559431D01*
X51654Y559333D01*
X51566Y559242D01*
X51407Y559036D01*
X51241Y558835D01*
X51170Y558730D01*
X51092Y558629D01*
X50954Y558408D01*
X50810Y558192D01*
X50751Y558080D01*
X50684Y557971D01*
X50570Y557737D01*
X50448Y557507D01*
X50401Y557389D01*
X50345Y557275D01*
X50256Y557030D01*
X50159Y556789D01*
X50124Y556667D01*
X50081Y556547D01*
X50017Y556294D01*
X49945Y556045D01*
X49923Y555920D01*
X49892Y555796D01*
X49855Y555538D01*
X49810Y555282D01*
X49800Y555156D01*
X49782Y555030D01*
X49772Y554769D01*
X49753Y554510D01*
X49757Y554383D01*
X49752Y554256D01*
X49769Y553997D01*
X49777Y553736D01*
X49793Y553610D01*
X49802Y553484D01*
X49832Y553327D01*
X49880Y552969D01*
X49977Y552566D01*
X50007Y552409D01*
X51831Y545602D01*
X51831Y538978D01*
X50803Y535141D01*
X50776Y535016D01*
X50741Y534895D01*
X50696Y534639D01*
X50641Y534384D01*
X50628Y534257D01*
X50605Y534132D01*
X50586Y533873D01*
X50559Y533614D01*
X50558Y533487D01*
X50549Y533360D01*
X50557Y533100D01*
X50556Y532840D01*
X50568Y532713D01*
X50572Y532586D01*
X50607Y532328D01*
X50633Y532069D01*
X50659Y531945D01*
X50675Y531819D01*
X50737Y531566D01*
X50789Y531311D01*
X50827Y531189D01*
X50857Y531066D01*
X50944Y530821D01*
X51023Y530572D01*
X51073Y530456D01*
X51116Y530336D01*
X51227Y530101D01*
X51331Y529862D01*
X51393Y529751D01*
X51448Y529637D01*
X51583Y529415D01*
X51711Y529188D01*
X51784Y529084D01*
X51850Y528975D01*
X52008Y528768D01*
X52158Y528556D01*
X52242Y528460D01*
X52319Y528359D01*
X52497Y528169D01*
X52669Y527973D01*
X52762Y527887D01*
X52849Y527794D01*
X53046Y527624D01*
X53236Y527447D01*
X53338Y527370D01*
X53434Y527287D01*
X53647Y527138D01*
X53855Y526981D01*
X53964Y526916D01*
X54068Y526843D01*
X54296Y526716D01*
X54519Y526582D01*
X54634Y526528D01*
X54745Y526467D01*
X54984Y526364D01*
X55220Y526254D01*
X55340Y526212D01*
X55457Y526162D01*
X55705Y526085D01*
X55951Y525999D01*
X56075Y525970D01*
X56196Y525933D01*
X56451Y525882D01*
X56705Y525822D01*
X56831Y525805D01*
X56902Y525791D01*
X58195Y525256D01*
X58337Y525205D01*
X58475Y525146D01*
X58702Y525076D01*
X58925Y524997D01*
X59071Y524961D01*
X59215Y524917D01*
X59447Y524870D01*
X59470Y524864D01*
X59582Y524799D01*
X59707Y524716D01*
X59845Y524646D01*
X60121Y524486D01*
X60548Y524293D01*
X60684Y524224D01*
X61759Y523779D01*
X65309Y520229D01*
X65754Y519154D01*
X65819Y519019D01*
X65875Y518879D01*
X65986Y518669D01*
X66087Y518455D01*
X66166Y518327D01*
X66236Y518194D01*
X66367Y517996D01*
X66380Y517976D01*
X66413Y517851D01*
X66442Y517704D01*
X66490Y517557D01*
X66572Y517248D01*
X66738Y516810D01*
X66786Y516665D01*
X67231Y515590D01*
X67231Y474424D01*
X67235Y474350D01*
X67232Y474277D01*
X67255Y473964D01*
X67271Y473651D01*
X67282Y473578D01*
X67287Y473505D01*
X67342Y473195D01*
X67390Y472886D01*
X67409Y472814D01*
X67422Y472742D01*
X67508Y472440D01*
X67588Y472137D01*
X67614Y472068D01*
X67634Y471997D01*
X67751Y471705D01*
X67862Y471413D01*
X67895Y471347D01*
X67922Y471279D01*
X68068Y471001D01*
X68209Y470721D01*
X68249Y470658D01*
X68283Y470593D01*
X68457Y470333D01*
X68626Y470068D01*
X68671Y470010D01*
X68712Y469949D01*
X68810Y469835D01*
X69107Y469462D01*
X69327Y469238D01*
X69427Y469121D01*
X74199Y464349D01*
X76121Y459710D01*
X76121Y454690D01*
X74199Y450051D01*
X71394Y447245D01*
X71257Y447094D01*
X71113Y446949D01*
X70998Y446807D01*
X70875Y446670D01*
X70755Y446505D01*
X70627Y446347D01*
X70527Y446193D01*
X70419Y446045D01*
X70316Y445869D01*
X70205Y445698D01*
X70122Y445534D01*
X70029Y445376D01*
X69945Y445190D01*
X69853Y445008D01*
X69786Y444837D01*
X69711Y444670D01*
X69647Y444477D01*
X69573Y444286D01*
X69525Y444109D01*
X69467Y443935D01*
X69423Y443736D01*
X69369Y443539D01*
X69340Y443358D01*
X69300Y443179D01*
X69277Y442976D01*
X69244Y442775D01*
X69233Y442592D01*
X69212Y442410D01*
X69210Y442206D01*
X69198Y442002D01*
X69206Y441819D01*
X69204Y441636D01*
X69222Y441432D01*
X69231Y441229D01*
X69258Y441047D01*
X69275Y440865D01*
X69315Y440664D01*
X69345Y440463D01*
X69390Y440285D01*
X69426Y440105D01*
X69486Y439910D01*
X69537Y439713D01*
X69600Y439540D01*
X69654Y439365D01*
X69682Y439299D01*
X63500Y439299D01*
X44368Y439299D01*
X44391Y439347D01*
X44479Y439508D01*
X44557Y439696D01*
X44645Y439880D01*
X44707Y440053D01*
X44778Y440222D01*
X44837Y440417D01*
X44905Y440609D01*
X44948Y440788D01*
X45001Y440963D01*
X45040Y441163D01*
X45088Y441362D01*
X45113Y441543D01*
X45147Y441724D01*
X45165Y441927D01*
X45192Y442129D01*
X45198Y442312D01*
X45214Y442495D01*
X45211Y442699D01*
X45217Y442903D01*
X45204Y443086D01*
X45201Y443269D01*
X45176Y443471D01*
X45162Y443675D01*
X45130Y443856D01*
X45108Y444038D01*
X45063Y444237D01*
X45027Y444438D01*
X44977Y444614D01*
X44936Y444793D01*
X44871Y444986D01*
X44815Y445182D01*
X44747Y445353D01*
X44688Y445526D01*
X44603Y445712D01*
X44527Y445901D01*
X44442Y446063D01*
X44365Y446230D01*
X44261Y446406D01*
X44166Y446586D01*
X44065Y446738D01*
X43971Y446897D01*
X43850Y447061D01*
X43737Y447230D01*
X43651Y447330D01*
X43511Y447520D01*
X43076Y447995D01*
X43022Y448058D01*
X40454Y450626D01*
X38687Y454892D01*
X38687Y459508D01*
X40557Y464023D01*
X40583Y464059D01*
X40768Y464313D01*
X40805Y464377D01*
X40847Y464437D01*
X40999Y464711D01*
X41157Y464982D01*
X41188Y465049D01*
X41223Y465113D01*
X41347Y465402D01*
X41476Y465688D01*
X41499Y465758D01*
X41528Y465825D01*
X41621Y466125D01*
X41720Y466423D01*
X41736Y466495D01*
X41757Y466565D01*
X41819Y466872D01*
X41887Y467179D01*
X41895Y467252D01*
X41909Y467324D01*
X41920Y467474D01*
X41975Y467948D01*
X41978Y468262D01*
X41989Y468415D01*
X41989Y510573D01*
X41983Y510700D01*
X41985Y510827D01*
X41963Y511086D01*
X41949Y511347D01*
X41930Y511472D01*
X41919Y511599D01*
X41870Y511854D01*
X41830Y512112D01*
X41797Y512234D01*
X41774Y512359D01*
X41698Y512609D01*
X41632Y512860D01*
X41587Y512979D01*
X41551Y513101D01*
X41450Y513341D01*
X41358Y513584D01*
X41301Y513698D01*
X41252Y513815D01*
X41128Y514044D01*
X41011Y514277D01*
X40943Y514384D01*
X40882Y514495D01*
X40735Y514710D01*
X40594Y514929D01*
X40515Y515029D01*
X40444Y515133D01*
X40275Y515332D01*
X40113Y515535D01*
X40024Y515626D01*
X39942Y515723D01*
X39753Y515903D01*
X39571Y516089D01*
X39473Y516170D01*
X39382Y516258D01*
X39176Y516417D01*
X38975Y516583D01*
X38870Y516654D01*
X38769Y516732D01*
X38548Y516869D01*
X38332Y517014D01*
X38219Y517073D01*
X38111Y517140D01*
X37878Y517254D01*
X37647Y517376D01*
X37529Y517423D01*
X37415Y517479D01*
X37171Y517568D01*
X36929Y517665D01*
X36807Y517700D01*
X36687Y517743D01*
X36435Y517807D01*
X36185Y517879D01*
X36060Y517901D01*
X35936Y517932D01*
X35678Y517969D01*
X35422Y518014D01*
X35296Y518024D01*
X35170Y518042D01*
X34909Y518052D01*
X34650Y518071D01*
X34523Y518067D01*
X34396Y518072D01*
X34137Y518055D01*
X33876Y518047D01*
X33750Y518030D01*
X33624Y518022D01*
X33467Y517992D01*
X33109Y517944D01*
X32706Y517847D01*
X32549Y517817D01*
X29982Y517129D01*
X23358Y517129D01*
X19601Y518136D01*
X19476Y518162D01*
X19355Y518197D01*
X19099Y518243D01*
X18844Y518297D01*
X18717Y518311D01*
X18592Y518333D01*
X18333Y518352D01*
X18074Y518380D01*
X17947Y518380D01*
X17820Y518390D01*
X17560Y518382D01*
X17300Y518383D01*
X17173Y518370D01*
X17046Y518366D01*
X16788Y518332D01*
X16529Y518306D01*
X16405Y518280D01*
X16279Y518263D01*
X16026Y518202D01*
X15771Y518150D01*
X15649Y518111D01*
X15526Y518081D01*
X15281Y517995D01*
X15032Y517916D01*
X14916Y517865D01*
X14796Y517823D01*
X14561Y517711D01*
X14322Y517608D01*
X14211Y517545D01*
X14097Y517491D01*
X13875Y517356D01*
X13648Y517228D01*
X13544Y517154D01*
X13435Y517088D01*
X13228Y516931D01*
X13016Y516780D01*
X12920Y516696D01*
X12819Y516620D01*
X12629Y516441D01*
X12433Y516270D01*
X12347Y516177D01*
X12254Y516090D01*
X12084Y515893D01*
X11907Y515702D01*
X11830Y515601D01*
X11747Y515505D01*
X11598Y515291D01*
X11441Y515083D01*
X11376Y514975D01*
X11303Y514870D01*
X11176Y514643D01*
X11042Y514420D01*
X10988Y514305D01*
X10927Y514194D01*
X10824Y513954D01*
X10714Y513719D01*
X10672Y513599D01*
X10622Y513482D01*
X10545Y513233D01*
X10459Y512987D01*
X10430Y512863D01*
X10393Y512742D01*
X10342Y512487D01*
X10282Y512234D01*
X10265Y512108D01*
X10241Y511983D01*
X10229Y511824D01*
X10183Y511466D01*
X10172Y511051D01*
X10161Y510892D01*
X10161Y62218D01*
X10167Y62091D01*
X10165Y61964D01*
X10187Y61705D01*
X10201Y61445D01*
X10220Y61319D01*
X10231Y61193D01*
X10280Y60938D01*
X10320Y60680D01*
X10353Y60557D01*
X10376Y60432D01*
X10451Y60183D01*
X10518Y59931D01*
X10563Y59813D01*
X10599Y59691D01*
X10700Y59450D01*
X10792Y59207D01*
X10849Y59094D01*
X10898Y58976D01*
X11022Y58748D01*
X11139Y58515D01*
X11207Y58408D01*
X11268Y58296D01*
X11415Y58082D01*
X11556Y57862D01*
X11635Y57763D01*
X11706Y57658D01*
X11875Y57460D01*
X12037Y57256D01*
X12126Y57165D01*
X12208Y57068D01*
X12397Y56889D01*
X12579Y56703D01*
X12677Y56621D01*
X12768Y56534D01*
X12974Y56375D01*
X13175Y56208D01*
X13280Y56137D01*
X13381Y56060D01*
X13602Y55922D01*
X13818Y55778D01*
X13931Y55718D01*
X14038Y55651D01*
X14273Y55538D01*
X14503Y55416D01*
X14621Y55368D01*
X14735Y55313D01*
X14979Y55224D01*
X15221Y55127D01*
X15343Y55091D01*
X15463Y55048D01*
X15715Y54985D01*
X15965Y54913D01*
X16090Y54891D01*
X16214Y54860D01*
X16472Y54823D01*
X16728Y54777D01*
X16854Y54768D01*
X16980Y54750D01*
X17241Y54740D01*
X17500Y54721D01*
X17627Y54724D01*
X17754Y54720D01*
X18013Y54736D01*
X18274Y54744D01*
X18400Y54761D01*
X18526Y54769D01*
X18683Y54799D01*
X19041Y54847D01*
X19444Y54945D01*
X19601Y54974D01*
X22088Y55641D01*
X28713Y55641D01*
X35112Y53926D01*
X40849Y50614D01*
X45534Y45929D01*
X48846Y40192D01*
X50561Y33793D01*
X50561Y27167D01*
X48763Y20457D01*
X48744Y20409D01*
X48619Y20099D01*
X48605Y20048D01*
X48586Y19999D01*
X48498Y19676D01*
X48406Y19355D01*
X48396Y19303D01*
X48382Y19252D01*
X48328Y18922D01*
X48270Y18592D01*
X48266Y18540D01*
X48257Y18488D01*
X48238Y18153D01*
X48213Y17820D01*
X48215Y17768D01*
X48212Y17715D01*
X48227Y17380D01*
X48237Y17046D01*
X48244Y16994D01*
X48246Y16941D01*
X48295Y16611D01*
X48340Y16279D01*
X48352Y16227D01*
X48360Y16175D01*
X48443Y15852D01*
X48522Y15526D01*
X48539Y15476D01*
X48552Y15425D01*
X48668Y15112D01*
X48780Y14796D01*
X48803Y14748D01*
X48821Y14699D01*
X48969Y14399D01*
X49112Y14097D01*
X49140Y14052D01*
X49163Y14004D01*
X49341Y13721D01*
X49515Y13435D01*
X49547Y13393D01*
X49575Y13349D01*
X49781Y13085D01*
X49983Y12819D01*
X50019Y12781D01*
X50052Y12739D01*
X50285Y12498D01*
X50513Y12254D01*
X50553Y12220D01*
X50590Y12182D01*
X50846Y11966D01*
X51098Y11747D01*
X51141Y11717D01*
X51182Y11683D01*
X51459Y11495D01*
X51732Y11303D01*
X51778Y11277D01*
X51822Y11248D01*
X52117Y11089D01*
X52409Y10927D01*
X52458Y10906D01*
X52504Y10881D01*
X52812Y10754D01*
X53121Y10622D01*
X53172Y10606D01*
X53220Y10586D01*
X53540Y10492D01*
X53861Y10393D01*
X53912Y10382D01*
X53963Y10367D01*
X54292Y10306D01*
X54620Y10241D01*
X54662Y10237D01*
X54724Y10226D01*
X55496Y10164D01*
X55628Y10167D01*
X55711Y10161D01*
X601743Y10161D01*
X601870Y10167D01*
G37*
%LPC*%
G36*
X116870Y346789D02*
X116870Y346789D01*
X115795Y347234D01*
X115653Y347285D01*
X115515Y347344D01*
X115288Y347414D01*
X115065Y347493D01*
X114919Y347529D01*
X114775Y347573D01*
X114543Y347620D01*
X114520Y347626D01*
X114408Y347691D01*
X114283Y347774D01*
X114145Y347844D01*
X113869Y348004D01*
X113442Y348197D01*
X113306Y348266D01*
X112231Y348711D01*
X109525Y351417D01*
X109297Y351623D01*
X109073Y351833D01*
X109010Y351881D01*
X108950Y351935D01*
X108701Y352117D01*
X108457Y352303D01*
X108389Y352344D01*
X108324Y352392D01*
X108058Y352547D01*
X107797Y352706D01*
X107725Y352741D01*
X107655Y352781D01*
X107375Y352908D01*
X107098Y353040D01*
X107022Y353067D01*
X106949Y353100D01*
X106658Y353197D01*
X106368Y353300D01*
X106291Y353318D01*
X106215Y353344D01*
X105914Y353410D01*
X105616Y353483D01*
X105537Y353493D01*
X105459Y353511D01*
X105153Y353546D01*
X104849Y353587D01*
X104769Y353590D01*
X104689Y353599D01*
X104382Y353602D01*
X104075Y353612D01*
X103995Y353606D01*
X103915Y353607D01*
X103609Y353578D01*
X103303Y353557D01*
X103224Y353543D01*
X103144Y353535D01*
X102842Y353475D01*
X102540Y353422D01*
X102463Y353400D01*
X102385Y353385D01*
X102091Y353294D01*
X101795Y353210D01*
X101721Y353180D01*
X101645Y353156D01*
X101479Y353086D01*
X101479Y359410D01*
X101479Y365727D01*
X101495Y365720D01*
X101786Y365623D01*
X102076Y365520D01*
X102154Y365502D01*
X102230Y365476D01*
X102529Y365410D01*
X102828Y365337D01*
X102908Y365327D01*
X102986Y365309D01*
X103291Y365274D01*
X103595Y365233D01*
X103675Y365230D01*
X103755Y365221D01*
X104062Y365218D01*
X104369Y365208D01*
X104449Y365214D01*
X104529Y365213D01*
X104836Y365242D01*
X105142Y365263D01*
X105220Y365277D01*
X105300Y365285D01*
X105602Y365345D01*
X105904Y365398D01*
X105981Y365420D01*
X106060Y365435D01*
X106353Y365526D01*
X106649Y365610D01*
X106723Y365640D01*
X106800Y365664D01*
X107081Y365784D01*
X107367Y365898D01*
X107439Y365936D01*
X107512Y365967D01*
X107780Y366116D01*
X108053Y366259D01*
X108119Y366303D01*
X108189Y366342D01*
X108442Y366518D01*
X108697Y366688D01*
X108745Y366730D01*
X108824Y366785D01*
X109410Y367291D01*
X109477Y367362D01*
X109525Y367403D01*
X129216Y387094D01*
X133821Y391699D01*
X138460Y393621D01*
X180310Y393621D01*
X181385Y393176D01*
X181519Y393128D01*
X181622Y393084D01*
X181627Y393082D01*
X181665Y393066D01*
X181892Y392996D01*
X182115Y392917D01*
X182261Y392881D01*
X182405Y392837D01*
X182637Y392790D01*
X182660Y392784D01*
X182772Y392719D01*
X182897Y392636D01*
X183035Y392566D01*
X183311Y392406D01*
X183738Y392213D01*
X183874Y392144D01*
X184949Y391699D01*
X188499Y388149D01*
X188944Y387074D01*
X189009Y386939D01*
X189065Y386799D01*
X189176Y386589D01*
X189277Y386375D01*
X189356Y386247D01*
X189426Y386114D01*
X189557Y385916D01*
X189570Y385896D01*
X189603Y385771D01*
X189632Y385624D01*
X189680Y385477D01*
X189762Y385168D01*
X189928Y384730D01*
X189976Y384585D01*
X190421Y383510D01*
X190421Y378490D01*
X189976Y377415D01*
X189925Y377273D01*
X189866Y377135D01*
X189796Y376908D01*
X189717Y376685D01*
X189681Y376539D01*
X189637Y376395D01*
X189590Y376163D01*
X189584Y376140D01*
X189519Y376028D01*
X189436Y375903D01*
X189366Y375765D01*
X189206Y375489D01*
X189013Y375062D01*
X188944Y374926D01*
X188499Y373851D01*
X184949Y370301D01*
X183874Y369856D01*
X183739Y369791D01*
X183599Y369735D01*
X183389Y369624D01*
X183175Y369523D01*
X183047Y369444D01*
X182914Y369374D01*
X182716Y369243D01*
X182696Y369230D01*
X182571Y369197D01*
X182424Y369168D01*
X182277Y369120D01*
X181968Y369038D01*
X181530Y368872D01*
X181385Y368824D01*
X180310Y368379D01*
X149304Y368379D01*
X149230Y368375D01*
X149157Y368378D01*
X148844Y368355D01*
X148531Y368339D01*
X148458Y368328D01*
X148385Y368323D01*
X148075Y368268D01*
X147766Y368220D01*
X147694Y368201D01*
X147622Y368188D01*
X147320Y368102D01*
X147017Y368022D01*
X146948Y367996D01*
X146877Y367976D01*
X146585Y367859D01*
X146293Y367748D01*
X146227Y367715D01*
X146159Y367688D01*
X145881Y367542D01*
X145601Y367401D01*
X145538Y367361D01*
X145473Y367327D01*
X145213Y367153D01*
X144948Y366984D01*
X144890Y366939D01*
X144829Y366898D01*
X144715Y366800D01*
X144342Y366503D01*
X144118Y366283D01*
X144001Y366183D01*
X126529Y348711D01*
X125454Y348266D01*
X125319Y348201D01*
X125179Y348145D01*
X124969Y348034D01*
X124755Y347933D01*
X124627Y347854D01*
X124494Y347784D01*
X124296Y347653D01*
X124276Y347640D01*
X124151Y347607D01*
X124004Y347578D01*
X123857Y347530D01*
X123548Y347448D01*
X123110Y347282D01*
X122965Y347234D01*
X121890Y346789D01*
X116870Y346789D01*
G37*
%LPD*%
%LPC*%
G36*
X428289Y351789D02*
X428289Y351789D01*
X421505Y353607D01*
X415424Y357118D01*
X410458Y362084D01*
X406947Y368165D01*
X405129Y374949D01*
X405129Y381971D01*
X406947Y388755D01*
X410458Y394836D01*
X415424Y399802D01*
X421505Y403313D01*
X428289Y405131D01*
X435311Y405131D01*
X442095Y403313D01*
X448176Y399802D01*
X453142Y394836D01*
X456653Y388755D01*
X458471Y381971D01*
X458471Y374949D01*
X456653Y368165D01*
X453142Y362084D01*
X448176Y357118D01*
X442095Y353607D01*
X435311Y351789D01*
X428289Y351789D01*
G37*
%LPD*%
%LPC*%
G36*
X555289Y351789D02*
X555289Y351789D01*
X548505Y353607D01*
X542424Y357118D01*
X537458Y362084D01*
X533947Y368165D01*
X532129Y374949D01*
X532129Y381971D01*
X533947Y388755D01*
X537458Y394836D01*
X542424Y399802D01*
X548505Y403313D01*
X555289Y405131D01*
X562311Y405131D01*
X569095Y403313D01*
X575176Y399802D01*
X580142Y394836D01*
X583653Y388755D01*
X585471Y381971D01*
X585471Y374949D01*
X583653Y368165D01*
X580142Y362084D01*
X575176Y357118D01*
X569095Y353607D01*
X562311Y351789D01*
X555289Y351789D01*
G37*
%LPD*%
%LPC*%
G36*
X301289Y351789D02*
X301289Y351789D01*
X294505Y353607D01*
X288424Y357118D01*
X283458Y362084D01*
X279947Y368165D01*
X278129Y374949D01*
X278129Y381971D01*
X279947Y388755D01*
X283458Y394836D01*
X288424Y399802D01*
X294505Y403313D01*
X301289Y405131D01*
X308311Y405131D01*
X315095Y403313D01*
X321176Y399802D01*
X326142Y394836D01*
X329653Y388755D01*
X331471Y381971D01*
X331471Y374949D01*
X329653Y368165D01*
X326142Y362084D01*
X321176Y357118D01*
X315095Y353607D01*
X308311Y351789D01*
X301289Y351789D01*
G37*
%LPD*%
%LPC*%
G36*
X80285Y63579D02*
X80285Y63579D01*
X78447Y64341D01*
X77041Y65747D01*
X76279Y67585D01*
X76279Y84815D01*
X77041Y86653D01*
X78447Y88059D01*
X80285Y88821D01*
X97515Y88821D01*
X98730Y88317D01*
X98800Y88293D01*
X98867Y88262D01*
X99164Y88163D01*
X99460Y88058D01*
X99531Y88041D01*
X99601Y88018D01*
X99907Y87950D01*
X100212Y87876D01*
X100285Y87866D01*
X100357Y87850D01*
X100669Y87814D01*
X100980Y87772D01*
X101053Y87770D01*
X101126Y87761D01*
X101440Y87758D01*
X101754Y87748D01*
X101827Y87753D01*
X101901Y87752D01*
X102213Y87781D01*
X102526Y87804D01*
X102598Y87817D01*
X102672Y87823D01*
X102979Y87884D01*
X103288Y87939D01*
X103359Y87959D01*
X103431Y87973D01*
X103574Y88021D01*
X104033Y88152D01*
X104324Y88269D01*
X104470Y88317D01*
X105685Y88821D01*
X122915Y88821D01*
X124753Y88059D01*
X126159Y86653D01*
X126921Y84815D01*
X126921Y67585D01*
X126159Y65747D01*
X124753Y64341D01*
X122915Y63579D01*
X105685Y63579D01*
X104470Y64083D01*
X104400Y64107D01*
X104333Y64138D01*
X104036Y64237D01*
X103740Y64342D01*
X103669Y64359D01*
X103599Y64382D01*
X103293Y64450D01*
X102988Y64524D01*
X102915Y64534D01*
X102843Y64550D01*
X102532Y64586D01*
X102220Y64628D01*
X102146Y64630D01*
X102074Y64639D01*
X101761Y64642D01*
X101446Y64652D01*
X101373Y64647D01*
X101299Y64648D01*
X100987Y64619D01*
X100674Y64596D01*
X100602Y64583D01*
X100528Y64577D01*
X100220Y64516D01*
X99912Y64461D01*
X99841Y64441D01*
X99769Y64427D01*
X99626Y64379D01*
X99167Y64248D01*
X98876Y64131D01*
X98730Y64083D01*
X97515Y63579D01*
X80285Y63579D01*
G37*
%LPD*%
%LPC*%
G36*
X76200Y236099D02*
X76200Y236099D01*
X57068Y236099D01*
X57091Y236147D01*
X57179Y236308D01*
X57257Y236496D01*
X57345Y236680D01*
X57407Y236853D01*
X57478Y237022D01*
X57537Y237217D01*
X57605Y237409D01*
X57648Y237588D01*
X57701Y237763D01*
X57740Y237963D01*
X57788Y238162D01*
X57813Y238343D01*
X57847Y238524D01*
X57865Y238727D01*
X57892Y238929D01*
X57898Y239112D01*
X57914Y239295D01*
X57911Y239499D01*
X57917Y239703D01*
X57904Y239886D01*
X57901Y240069D01*
X57876Y240271D01*
X57862Y240475D01*
X57830Y240656D01*
X57808Y240838D01*
X57763Y241037D01*
X57727Y241238D01*
X57677Y241414D01*
X57636Y241593D01*
X57571Y241786D01*
X57515Y241982D01*
X57447Y242153D01*
X57388Y242326D01*
X57303Y242512D01*
X57227Y242701D01*
X57142Y242863D01*
X57065Y243030D01*
X56961Y243206D01*
X56866Y243386D01*
X56765Y243538D01*
X56671Y243697D01*
X56550Y243861D01*
X56437Y244030D01*
X56351Y244130D01*
X56211Y244320D01*
X55776Y244795D01*
X55722Y244858D01*
X53154Y247426D01*
X51387Y251692D01*
X51387Y256308D01*
X53154Y260574D01*
X56418Y263838D01*
X60684Y265605D01*
X78508Y265605D01*
X82774Y263838D01*
X86038Y260574D01*
X87805Y256308D01*
X87805Y251692D01*
X86038Y247426D01*
X83470Y244858D01*
X83333Y244707D01*
X83190Y244562D01*
X83074Y244420D01*
X82951Y244283D01*
X82831Y244119D01*
X82703Y243960D01*
X82603Y243806D01*
X82495Y243658D01*
X82392Y243482D01*
X82281Y243311D01*
X82198Y243147D01*
X82105Y242989D01*
X82022Y242803D01*
X81929Y242621D01*
X81863Y242450D01*
X81787Y242283D01*
X81723Y242089D01*
X81649Y241899D01*
X81601Y241722D01*
X81543Y241548D01*
X81499Y241349D01*
X81445Y241152D01*
X81416Y240971D01*
X81376Y240792D01*
X81353Y240589D01*
X81320Y240388D01*
X81309Y240205D01*
X81288Y240023D01*
X81286Y239819D01*
X81274Y239615D01*
X81282Y239432D01*
X81280Y239248D01*
X81299Y239045D01*
X81308Y238842D01*
X81334Y238661D01*
X81351Y238477D01*
X81391Y238277D01*
X81421Y238076D01*
X81466Y237898D01*
X81502Y237718D01*
X81562Y237523D01*
X81613Y237326D01*
X81676Y237154D01*
X81730Y236978D01*
X81810Y236790D01*
X81881Y236599D01*
X81962Y236435D01*
X82034Y236266D01*
X82126Y236099D01*
X76200Y236099D01*
X76200Y236099D01*
G37*
%LPD*%
%LPC*%
G36*
X147593Y153495D02*
X147593Y153495D01*
X143263Y157825D01*
X143035Y158031D01*
X142811Y158241D01*
X142748Y158290D01*
X142688Y158344D01*
X142439Y158525D01*
X142196Y158711D01*
X142128Y158753D01*
X142063Y158800D01*
X141797Y158955D01*
X141535Y159115D01*
X141463Y159149D01*
X141394Y159190D01*
X141114Y159316D01*
X140836Y159448D01*
X140761Y159475D01*
X140688Y159508D01*
X140396Y159605D01*
X140107Y159708D01*
X140029Y159727D01*
X139953Y159752D01*
X139653Y159818D01*
X139355Y159891D01*
X139275Y159902D01*
X139197Y159919D01*
X138892Y159954D01*
X138587Y159995D01*
X138507Y159998D01*
X138428Y160007D01*
X138120Y160010D01*
X137813Y160020D01*
X137734Y160015D01*
X137653Y160015D01*
X137348Y159987D01*
X137041Y159965D01*
X136962Y159951D01*
X136882Y159944D01*
X136581Y159884D01*
X136279Y159831D01*
X136202Y159809D01*
X136123Y159793D01*
X135829Y159702D01*
X135534Y159618D01*
X135459Y159588D01*
X135383Y159565D01*
X135101Y159445D01*
X134815Y159330D01*
X134744Y159293D01*
X134671Y159261D01*
X134499Y159167D01*
X134499Y165100D01*
X134499Y171027D01*
X134527Y171010D01*
X134808Y170884D01*
X135085Y170752D01*
X135160Y170725D01*
X135233Y170692D01*
X135525Y170595D01*
X135814Y170492D01*
X135892Y170473D01*
X135968Y170448D01*
X136268Y170382D01*
X136567Y170309D01*
X136646Y170298D01*
X136724Y170281D01*
X137029Y170246D01*
X137334Y170205D01*
X137414Y170202D01*
X137493Y170193D01*
X137801Y170190D01*
X138108Y170180D01*
X138188Y170185D01*
X138268Y170185D01*
X138574Y170213D01*
X138880Y170235D01*
X138959Y170249D01*
X139039Y170256D01*
X139340Y170316D01*
X139643Y170369D01*
X139720Y170391D01*
X139798Y170407D01*
X140092Y170497D01*
X140387Y170582D01*
X140462Y170612D01*
X140538Y170635D01*
X140821Y170756D01*
X141106Y170870D01*
X141177Y170907D01*
X141250Y170939D01*
X141519Y171087D01*
X141791Y171230D01*
X141858Y171275D01*
X141928Y171314D01*
X142180Y171489D01*
X142435Y171660D01*
X142484Y171701D01*
X142563Y171757D01*
X143149Y172263D01*
X143215Y172333D01*
X143263Y172375D01*
X147593Y176705D01*
X157207Y176705D01*
X164005Y169907D01*
X164005Y160293D01*
X157207Y153495D01*
X147593Y153495D01*
G37*
%LPD*%
%LPC*%
G36*
X71393Y286845D02*
X71393Y286845D01*
X64595Y293643D01*
X64595Y303257D01*
X71393Y310055D01*
X81007Y310055D01*
X87805Y303257D01*
X87805Y293643D01*
X81007Y286845D01*
X71393Y286845D01*
G37*
%LPD*%
%LPC*%
G36*
X100544Y413793D02*
X100544Y413793D01*
X98594Y414601D01*
X97101Y416094D01*
X96293Y418044D01*
X96293Y420156D01*
X97101Y422106D01*
X98594Y423599D01*
X100544Y424407D01*
X102656Y424407D01*
X104606Y423599D01*
X106099Y422106D01*
X106907Y420156D01*
X106907Y418044D01*
X106099Y416094D01*
X104606Y414601D01*
X102656Y413793D01*
X100544Y413793D01*
G37*
%LPD*%
%LPC*%
G36*
X530993Y66161D02*
X530993Y66161D01*
X535941Y66161D01*
X535941Y62938D01*
X535728Y61320D01*
X535306Y59745D01*
X534681Y58237D01*
X533865Y56824D01*
X532872Y55530D01*
X531718Y54376D01*
X530993Y53820D01*
X530993Y66161D01*
G37*
%LPD*%
%LPC*%
G36*
X515270Y54376D02*
X515270Y54376D01*
X514116Y55530D01*
X513123Y56824D01*
X512307Y58237D01*
X511682Y59745D01*
X511260Y61320D01*
X511047Y62938D01*
X511047Y66161D01*
X515995Y66161D01*
X515995Y53820D01*
X515270Y54376D01*
G37*
%LPD*%
%LPC*%
G36*
X337699Y210699D02*
X337699Y210699D01*
X337699Y219530D01*
X338430Y218799D01*
X339301Y217663D01*
X340017Y216423D01*
X340565Y215101D01*
X340936Y213718D01*
X341123Y212298D01*
X341123Y210699D01*
X337699Y210699D01*
G37*
%LPD*%
%LPC*%
G36*
X464699Y210699D02*
X464699Y210699D01*
X464699Y219530D01*
X465430Y218799D01*
X466301Y217663D01*
X467017Y216423D01*
X467565Y215101D01*
X467936Y213718D01*
X468123Y212298D01*
X468123Y210699D01*
X464699Y210699D01*
G37*
%LPD*%
%LPC*%
G36*
X464699Y195701D02*
X464699Y195701D01*
X468123Y195701D01*
X468123Y194102D01*
X467936Y192682D01*
X467565Y191299D01*
X467017Y189977D01*
X466301Y188737D01*
X465430Y187601D01*
X464699Y186870D01*
X464699Y195701D01*
G37*
%LPD*%
%LPC*%
G36*
X172599Y83699D02*
X172599Y83699D01*
X172599Y86361D01*
X172970Y86361D01*
X173461Y86263D01*
X174038Y86024D01*
X174293Y85872D01*
X174296Y85871D01*
X174298Y85869D01*
X174636Y85712D01*
X174995Y85546D01*
X174998Y85545D01*
X175001Y85543D01*
X175369Y85417D01*
X175727Y85293D01*
X175730Y85293D01*
X175733Y85292D01*
X176119Y85203D01*
X176482Y85118D01*
X176485Y85118D01*
X176487Y85117D01*
X176857Y85071D01*
X177250Y85022D01*
X177253Y85022D01*
X177256Y85021D01*
X177620Y85014D01*
X178024Y85005D01*
X178027Y85005D01*
X178030Y85005D01*
X178405Y85036D01*
X178796Y85068D01*
X178799Y85068D01*
X178802Y85069D01*
X179178Y85139D01*
X179557Y85210D01*
X179560Y85211D01*
X179563Y85211D01*
X179923Y85318D01*
X180299Y85430D01*
X180302Y85431D01*
X180305Y85432D01*
X180659Y85579D01*
X181015Y85726D01*
X181017Y85727D01*
X181020Y85728D01*
X181589Y86035D01*
X182139Y86263D01*
X182630Y86361D01*
X183001Y86361D01*
X183001Y83699D01*
X172599Y83699D01*
G37*
%LPD*%
%LPC*%
G36*
X172599Y66039D02*
X172599Y66039D01*
X172599Y68701D01*
X183001Y68701D01*
X183001Y66039D01*
X182630Y66039D01*
X182139Y66137D01*
X181562Y66376D01*
X181307Y66528D01*
X181304Y66530D01*
X181301Y66531D01*
X180966Y66686D01*
X180604Y66855D01*
X180602Y66856D01*
X180599Y66857D01*
X180248Y66977D01*
X179872Y67107D01*
X179869Y67107D01*
X179867Y67108D01*
X179501Y67193D01*
X179118Y67282D01*
X179115Y67282D01*
X179112Y67283D01*
X178724Y67331D01*
X178350Y67378D01*
X178347Y67378D01*
X178344Y67379D01*
X177960Y67387D01*
X177576Y67395D01*
X177573Y67395D01*
X177570Y67395D01*
X177192Y67364D01*
X176804Y67332D01*
X176801Y67332D01*
X176798Y67331D01*
X176421Y67261D01*
X176043Y67190D01*
X176040Y67189D01*
X176037Y67188D01*
X175658Y67076D01*
X175300Y66970D01*
X175298Y66969D01*
X175295Y66968D01*
X174932Y66818D01*
X174585Y66674D01*
X174583Y66673D01*
X174579Y66672D01*
X174012Y66365D01*
X173461Y66137D01*
X172970Y66039D01*
X172599Y66039D01*
G37*
%LPD*%
%LPC*%
G36*
X49693Y422655D02*
X49693Y422655D01*
X48504Y422812D01*
X47346Y423122D01*
X46239Y423581D01*
X45201Y424180D01*
X45044Y424301D01*
X56001Y424301D01*
X56001Y422655D01*
X49693Y422655D01*
G37*
%LPD*%
%LPC*%
G36*
X62393Y219455D02*
X62393Y219455D01*
X61204Y219612D01*
X60046Y219922D01*
X58939Y220381D01*
X57901Y220980D01*
X57744Y221101D01*
X68701Y221101D01*
X68701Y219455D01*
X62393Y219455D01*
G37*
%LPD*%
%LPC*%
G36*
X197999Y83699D02*
X197999Y83699D01*
X197999Y86361D01*
X198370Y86361D01*
X198861Y86263D01*
X199324Y86072D01*
X199740Y85794D01*
X200094Y85440D01*
X200372Y85024D01*
X200563Y84561D01*
X200661Y84070D01*
X200661Y83699D01*
X197999Y83699D01*
G37*
%LPD*%
%LPC*%
G36*
X154939Y83699D02*
X154939Y83699D01*
X154939Y84070D01*
X155037Y84561D01*
X155228Y85024D01*
X155506Y85440D01*
X155860Y85794D01*
X156276Y86072D01*
X156739Y86263D01*
X157230Y86361D01*
X157601Y86361D01*
X157601Y83699D01*
X154939Y83699D01*
G37*
%LPD*%
%LPC*%
G36*
X197999Y66039D02*
X197999Y66039D01*
X197999Y68701D01*
X200661Y68701D01*
X200661Y68330D01*
X200563Y67839D01*
X200372Y67376D01*
X200094Y66960D01*
X199740Y66606D01*
X199324Y66328D01*
X198861Y66137D01*
X198370Y66039D01*
X197999Y66039D01*
G37*
%LPD*%
%LPC*%
G36*
X157230Y66039D02*
X157230Y66039D01*
X156739Y66137D01*
X156276Y66328D01*
X155860Y66606D01*
X155506Y66960D01*
X155228Y67376D01*
X155037Y67839D01*
X154939Y68330D01*
X154939Y68701D01*
X157601Y68701D01*
X157601Y66039D01*
X157230Y66039D01*
G37*
%LPD*%
D10*
X573786Y83566D02*
X573786Y63754D01*
X523494Y63754D02*
X523494Y83566D01*
D11*
X119380Y359410D03*
X93980Y359410D03*
X152400Y165100D03*
X127000Y165100D03*
D12*
X63500Y457200D02*
X50292Y457200D01*
X50292Y431800D02*
X63500Y431800D01*
X139700Y431800D02*
X152908Y431800D01*
X152908Y457200D02*
X139700Y457200D01*
X76200Y254000D02*
X62992Y254000D01*
X62992Y228600D02*
X76200Y228600D01*
X152400Y228600D02*
X165608Y228600D01*
X165608Y254000D02*
X152400Y254000D01*
D13*
X406400Y211582D02*
X406400Y194818D01*
X431800Y194818D02*
X431800Y211582D01*
X457200Y211582D02*
X457200Y194818D01*
X533400Y194818D02*
X533400Y211582D01*
X558800Y211582D02*
X558800Y194818D01*
X584200Y194818D02*
X584200Y211582D01*
X279400Y211582D02*
X279400Y194818D01*
X304800Y194818D02*
X304800Y211582D01*
X330200Y211582D02*
X330200Y194818D01*
D14*
X54610Y513080D03*
X156210Y513080D03*
X355600Y139700D03*
X457200Y139700D03*
D11*
X584200Y165100D03*
X482600Y165100D03*
D14*
X177800Y127000D03*
X279400Y127000D03*
D15*
X177800Y482600D03*
X177800Y381000D03*
D14*
X76200Y298450D03*
X177800Y298450D03*
D15*
X191770Y270510D03*
X191770Y168910D03*
D10*
X406654Y485394D02*
X406654Y505206D01*
X456946Y505206D02*
X456946Y485394D01*
X533654Y485394D02*
X533654Y505206D01*
X583946Y505206D02*
X583946Y485394D01*
D16*
X292100Y473710D03*
X292100Y519430D03*
D17*
X88900Y76200D03*
X114300Y76200D03*
X431800Y76200D03*
X457200Y76200D03*
X342900Y76200D03*
X368300Y76200D03*
X165100Y76200D03*
X190500Y76200D03*
D18*
X215900Y76200D03*
X215900Y50800D03*
X76200Y330200D03*
X114300Y533400D03*
X203200Y533400D03*
X266700Y482600D03*
X635000Y495300D03*
X381000Y419100D03*
X520700Y419100D03*
X368300Y215900D03*
X495300Y228600D03*
X622300Y76200D03*
X571500Y139700D03*
X330200Y152400D03*
X177800Y330200D03*
D19*
X573786Y103886D02*
X573786Y73660D01*
X622300Y419100D02*
X596900Y444500D01*
X546100Y444500D01*
X533654Y456946D01*
X533654Y495300D01*
X622300Y152400D02*
X573786Y103886D01*
X622300Y152400D02*
X622300Y419100D01*
X546100Y444500D02*
X419100Y444500D01*
X406400Y457200D01*
X406400Y495300D01*
X406654Y495300D01*
X406400Y457200D02*
X368300Y457200D01*
X306070Y519430D02*
X292100Y519430D01*
X306070Y519430D02*
X368300Y457200D01*
D20*
X140970Y381000D02*
X119380Y359410D01*
X140970Y381000D02*
X177800Y381000D01*
X63500Y457200D02*
X54610Y466090D01*
X54610Y513080D01*
X156210Y504190D02*
X177800Y482600D01*
X156210Y504190D02*
X156210Y513080D01*
X177800Y482600D02*
X177800Y469900D01*
X241300Y406400D02*
X241300Y177800D01*
X254000Y165100D01*
X241300Y406400D02*
X177800Y469900D01*
D21*
X254000Y165100D02*
X266700Y152400D01*
X315512Y152400D02*
X325898Y162786D01*
X416786Y162786D01*
X431800Y177800D02*
X431800Y203200D01*
X315512Y152400D02*
X266700Y152400D01*
X416786Y162786D02*
X431800Y177800D01*
D20*
X191770Y284480D02*
X177800Y298450D01*
X191770Y284480D02*
X191770Y270510D01*
X217170Y245110D01*
X217170Y125730D01*
X508000Y114300D02*
X558800Y165100D01*
X558800Y203200D01*
X330200Y114300D02*
X304800Y88900D01*
X330200Y114300D02*
X508000Y114300D01*
X254000Y88900D02*
X217170Y125730D01*
X254000Y88900D02*
X304800Y88900D01*
D18*
X101600Y419100D03*
M02*
