G04 EAGLE Gerber RS-274X export*
G75*
%MOMM*%
%FSLAX34Y34*%
%LPD*%
%IN*%
%IPPOS*%
%AMOC8*
5,1,8,0,0,1.08239X$1,22.5*%
G01*
%ADD10C,0.254000*%


D10*
X0Y0D02*
X660200Y0D01*
X660200Y572010D01*
X0Y572010D01*
X0Y0D01*
X41670Y541754D02*
X41594Y540686D01*
X41441Y539625D01*
X41213Y538578D01*
X40911Y537550D01*
X40537Y536546D01*
X40092Y535571D01*
X39578Y534631D01*
X38999Y533730D01*
X38357Y532872D01*
X37655Y532062D01*
X36898Y531305D01*
X36088Y530603D01*
X35230Y529961D01*
X34329Y529382D01*
X33389Y528868D01*
X32414Y528423D01*
X31410Y528049D01*
X30382Y527747D01*
X29335Y527519D01*
X28274Y527366D01*
X27206Y527290D01*
X26134Y527290D01*
X25066Y527366D01*
X24005Y527519D01*
X22958Y527747D01*
X21930Y528049D01*
X20926Y528423D01*
X19951Y528868D01*
X19011Y529382D01*
X18110Y529961D01*
X17252Y530603D01*
X16442Y531305D01*
X15685Y532062D01*
X14983Y532872D01*
X14341Y533730D01*
X13762Y534631D01*
X13248Y535571D01*
X12803Y536546D01*
X12429Y537550D01*
X12127Y538578D01*
X11899Y539625D01*
X11746Y540686D01*
X11670Y541754D01*
X11670Y542826D01*
X11746Y543894D01*
X11899Y544955D01*
X12127Y546002D01*
X12429Y547030D01*
X12803Y548034D01*
X13248Y549009D01*
X13762Y549949D01*
X14341Y550850D01*
X14983Y551708D01*
X15685Y552518D01*
X16442Y553275D01*
X17252Y553977D01*
X18110Y554619D01*
X19011Y555198D01*
X19951Y555712D01*
X20926Y556157D01*
X21930Y556531D01*
X22958Y556833D01*
X24005Y557061D01*
X25066Y557214D01*
X26134Y557290D01*
X27206Y557290D01*
X28274Y557214D01*
X29335Y557061D01*
X30382Y556833D01*
X31410Y556531D01*
X32414Y556157D01*
X33389Y555712D01*
X34329Y555198D01*
X35230Y554619D01*
X36088Y553977D01*
X36898Y553275D01*
X37655Y552518D01*
X38357Y551708D01*
X38999Y550850D01*
X39578Y549949D01*
X40092Y549009D01*
X40537Y548034D01*
X40911Y547030D01*
X41213Y546002D01*
X41441Y544955D01*
X41594Y543894D01*
X41670Y542826D01*
X41670Y541754D01*
X646190Y541754D02*
X646114Y540686D01*
X645961Y539625D01*
X645733Y538578D01*
X645431Y537550D01*
X645057Y536546D01*
X644612Y535571D01*
X644098Y534631D01*
X643519Y533730D01*
X642877Y532872D01*
X642175Y532062D01*
X641418Y531305D01*
X640608Y530603D01*
X639750Y529961D01*
X638849Y529382D01*
X637909Y528868D01*
X636934Y528423D01*
X635930Y528049D01*
X634902Y527747D01*
X633855Y527519D01*
X632794Y527366D01*
X631726Y527290D01*
X630654Y527290D01*
X629586Y527366D01*
X628525Y527519D01*
X627478Y527747D01*
X626450Y528049D01*
X625446Y528423D01*
X624471Y528868D01*
X623531Y529382D01*
X622630Y529961D01*
X621772Y530603D01*
X620962Y531305D01*
X620205Y532062D01*
X619503Y532872D01*
X618861Y533730D01*
X618282Y534631D01*
X617768Y535571D01*
X617323Y536546D01*
X616949Y537550D01*
X616647Y538578D01*
X616419Y539625D01*
X616266Y540686D01*
X616190Y541754D01*
X616190Y542826D01*
X616266Y543894D01*
X616419Y544955D01*
X616647Y546002D01*
X616949Y547030D01*
X617323Y548034D01*
X617768Y549009D01*
X618282Y549949D01*
X618861Y550850D01*
X619503Y551708D01*
X620205Y552518D01*
X620962Y553275D01*
X621772Y553977D01*
X622630Y554619D01*
X623531Y555198D01*
X624471Y555712D01*
X625446Y556157D01*
X626450Y556531D01*
X627478Y556833D01*
X628525Y557061D01*
X629586Y557214D01*
X630654Y557290D01*
X631726Y557290D01*
X632794Y557214D01*
X633855Y557061D01*
X634902Y556833D01*
X635930Y556531D01*
X636934Y556157D01*
X637909Y555712D01*
X638849Y555198D01*
X639750Y554619D01*
X640608Y553977D01*
X641418Y553275D01*
X642175Y552518D01*
X642877Y551708D01*
X643519Y550850D01*
X644098Y549949D01*
X644612Y549009D01*
X645057Y548034D01*
X645431Y547030D01*
X645733Y546002D01*
X645961Y544955D01*
X646114Y543894D01*
X646190Y542826D01*
X646190Y541754D01*
X40400Y29944D02*
X40324Y28876D01*
X40171Y27815D01*
X39943Y26768D01*
X39641Y25740D01*
X39267Y24736D01*
X38822Y23761D01*
X38308Y22821D01*
X37729Y21920D01*
X37087Y21062D01*
X36385Y20252D01*
X35628Y19495D01*
X34818Y18793D01*
X33960Y18151D01*
X33059Y17572D01*
X32119Y17058D01*
X31144Y16613D01*
X30140Y16239D01*
X29112Y15937D01*
X28065Y15709D01*
X27004Y15556D01*
X25936Y15480D01*
X24864Y15480D01*
X23796Y15556D01*
X22735Y15709D01*
X21688Y15937D01*
X20660Y16239D01*
X19656Y16613D01*
X18681Y17058D01*
X17741Y17572D01*
X16840Y18151D01*
X15982Y18793D01*
X15172Y19495D01*
X14415Y20252D01*
X13713Y21062D01*
X13071Y21920D01*
X12492Y22821D01*
X11978Y23761D01*
X11533Y24736D01*
X11159Y25740D01*
X10857Y26768D01*
X10629Y27815D01*
X10476Y28876D01*
X10400Y29944D01*
X10400Y31016D01*
X10476Y32084D01*
X10629Y33145D01*
X10857Y34192D01*
X11159Y35220D01*
X11533Y36224D01*
X11978Y37199D01*
X12492Y38139D01*
X13071Y39040D01*
X13713Y39898D01*
X14415Y40708D01*
X15172Y41465D01*
X15982Y42167D01*
X16840Y42809D01*
X17741Y43388D01*
X18681Y43902D01*
X19656Y44347D01*
X20660Y44721D01*
X21688Y45023D01*
X22735Y45251D01*
X23796Y45404D01*
X24864Y45480D01*
X25936Y45480D01*
X27004Y45404D01*
X28065Y45251D01*
X29112Y45023D01*
X30140Y44721D01*
X31144Y44347D01*
X32119Y43902D01*
X33059Y43388D01*
X33960Y42809D01*
X34818Y42167D01*
X35628Y41465D01*
X36385Y40708D01*
X37087Y39898D01*
X37729Y39040D01*
X38308Y38139D01*
X38822Y37199D01*
X39267Y36224D01*
X39641Y35220D01*
X39943Y34192D01*
X40171Y33145D01*
X40324Y32084D01*
X40400Y31016D01*
X40400Y29944D01*
X647460Y28674D02*
X647384Y27606D01*
X647231Y26545D01*
X647003Y25498D01*
X646701Y24470D01*
X646327Y23466D01*
X645882Y22491D01*
X645368Y21551D01*
X644789Y20650D01*
X644147Y19792D01*
X643445Y18982D01*
X642688Y18225D01*
X641878Y17523D01*
X641020Y16881D01*
X640119Y16302D01*
X639179Y15788D01*
X638204Y15343D01*
X637200Y14969D01*
X636172Y14667D01*
X635125Y14439D01*
X634064Y14286D01*
X632996Y14210D01*
X631924Y14210D01*
X630856Y14286D01*
X629795Y14439D01*
X628748Y14667D01*
X627720Y14969D01*
X626716Y15343D01*
X625741Y15788D01*
X624801Y16302D01*
X623900Y16881D01*
X623042Y17523D01*
X622232Y18225D01*
X621475Y18982D01*
X620773Y19792D01*
X620131Y20650D01*
X619552Y21551D01*
X619038Y22491D01*
X618593Y23466D01*
X618219Y24470D01*
X617917Y25498D01*
X617689Y26545D01*
X617536Y27606D01*
X617460Y28674D01*
X617460Y29746D01*
X617536Y30814D01*
X617689Y31875D01*
X617917Y32922D01*
X618219Y33950D01*
X618593Y34954D01*
X619038Y35929D01*
X619552Y36869D01*
X620131Y37770D01*
X620773Y38628D01*
X621475Y39438D01*
X622232Y40195D01*
X623042Y40897D01*
X623900Y41539D01*
X624801Y42118D01*
X625741Y42632D01*
X626716Y43077D01*
X627720Y43451D01*
X628748Y43753D01*
X629795Y43981D01*
X630856Y44134D01*
X631924Y44210D01*
X632996Y44210D01*
X634064Y44134D01*
X635125Y43981D01*
X636172Y43753D01*
X637200Y43451D01*
X638204Y43077D01*
X639179Y42632D01*
X640119Y42118D01*
X641020Y41539D01*
X641878Y40897D01*
X642688Y40195D01*
X643445Y39438D01*
X644147Y38628D01*
X644789Y37770D01*
X645368Y36869D01*
X645882Y35929D01*
X646327Y34954D01*
X646701Y33950D01*
X647003Y32922D01*
X647231Y31875D01*
X647384Y30814D01*
X647460Y29746D01*
X647460Y28674D01*
X448310Y377920D02*
X448239Y376841D01*
X448098Y375769D01*
X447887Y374709D01*
X447608Y373665D01*
X447260Y372641D01*
X446846Y371643D01*
X446368Y370673D01*
X445828Y369737D01*
X445227Y368838D01*
X444569Y367981D01*
X443857Y367168D01*
X443092Y366404D01*
X442279Y365691D01*
X441422Y365033D01*
X440523Y364432D01*
X439587Y363892D01*
X438617Y363414D01*
X437619Y363000D01*
X436595Y362652D01*
X435551Y362373D01*
X434491Y362162D01*
X433419Y362021D01*
X432340Y361950D01*
X431260Y361950D01*
X430181Y362021D01*
X429109Y362162D01*
X428049Y362373D01*
X427005Y362652D01*
X425981Y363000D01*
X424983Y363414D01*
X424013Y363892D01*
X423077Y364432D01*
X422178Y365033D01*
X421321Y365691D01*
X420508Y366404D01*
X419744Y367168D01*
X419031Y367981D01*
X418373Y368838D01*
X417772Y369737D01*
X417232Y370673D01*
X416754Y371643D01*
X416340Y372641D01*
X415992Y373665D01*
X415713Y374709D01*
X415502Y375769D01*
X415361Y376841D01*
X415290Y377920D01*
X415290Y379000D01*
X415361Y380079D01*
X415502Y381151D01*
X415713Y382211D01*
X415992Y383255D01*
X416340Y384279D01*
X416754Y385277D01*
X417232Y386247D01*
X417772Y387183D01*
X418373Y388082D01*
X419031Y388939D01*
X419744Y389752D01*
X420508Y390517D01*
X421321Y391229D01*
X422178Y391887D01*
X423077Y392488D01*
X424013Y393028D01*
X424983Y393506D01*
X425981Y393920D01*
X427005Y394268D01*
X428049Y394547D01*
X429109Y394758D01*
X430181Y394899D01*
X431260Y394970D01*
X432340Y394970D01*
X433419Y394899D01*
X434491Y394758D01*
X435551Y394547D01*
X436595Y394268D01*
X437619Y393920D01*
X438617Y393506D01*
X439587Y393028D01*
X440523Y392488D01*
X441422Y391887D01*
X442279Y391229D01*
X443092Y390517D01*
X443857Y389752D01*
X444569Y388939D01*
X445227Y388082D01*
X445828Y387183D01*
X446368Y386247D01*
X446846Y385277D01*
X447260Y384279D01*
X447608Y383255D01*
X447887Y382211D01*
X448098Y381151D01*
X448239Y380079D01*
X448310Y379000D01*
X448310Y377920D01*
X575310Y377920D02*
X575239Y376841D01*
X575098Y375769D01*
X574887Y374709D01*
X574608Y373665D01*
X574260Y372641D01*
X573846Y371643D01*
X573368Y370673D01*
X572828Y369737D01*
X572227Y368838D01*
X571569Y367981D01*
X570857Y367168D01*
X570092Y366404D01*
X569279Y365691D01*
X568422Y365033D01*
X567523Y364432D01*
X566587Y363892D01*
X565617Y363414D01*
X564619Y363000D01*
X563595Y362652D01*
X562551Y362373D01*
X561491Y362162D01*
X560419Y362021D01*
X559340Y361950D01*
X558260Y361950D01*
X557181Y362021D01*
X556109Y362162D01*
X555049Y362373D01*
X554005Y362652D01*
X552981Y363000D01*
X551983Y363414D01*
X551013Y363892D01*
X550077Y364432D01*
X549178Y365033D01*
X548321Y365691D01*
X547508Y366404D01*
X546744Y367168D01*
X546031Y367981D01*
X545373Y368838D01*
X544772Y369737D01*
X544232Y370673D01*
X543754Y371643D01*
X543340Y372641D01*
X542992Y373665D01*
X542713Y374709D01*
X542502Y375769D01*
X542361Y376841D01*
X542290Y377920D01*
X542290Y379000D01*
X542361Y380079D01*
X542502Y381151D01*
X542713Y382211D01*
X542992Y383255D01*
X543340Y384279D01*
X543754Y385277D01*
X544232Y386247D01*
X544772Y387183D01*
X545373Y388082D01*
X546031Y388939D01*
X546744Y389752D01*
X547508Y390517D01*
X548321Y391229D01*
X549178Y391887D01*
X550077Y392488D01*
X551013Y393028D01*
X551983Y393506D01*
X552981Y393920D01*
X554005Y394268D01*
X555049Y394547D01*
X556109Y394758D01*
X557181Y394899D01*
X558260Y394970D01*
X559340Y394970D01*
X560419Y394899D01*
X561491Y394758D01*
X562551Y394547D01*
X563595Y394268D01*
X564619Y393920D01*
X565617Y393506D01*
X566587Y393028D01*
X567523Y392488D01*
X568422Y391887D01*
X569279Y391229D01*
X570092Y390517D01*
X570857Y389752D01*
X571569Y388939D01*
X572227Y388082D01*
X572828Y387183D01*
X573368Y386247D01*
X573846Y385277D01*
X574260Y384279D01*
X574608Y383255D01*
X574887Y382211D01*
X575098Y381151D01*
X575239Y380079D01*
X575310Y379000D01*
X575310Y377920D01*
X321310Y377920D02*
X321239Y376841D01*
X321098Y375769D01*
X320887Y374709D01*
X320608Y373665D01*
X320260Y372641D01*
X319846Y371643D01*
X319368Y370673D01*
X318828Y369737D01*
X318227Y368838D01*
X317569Y367981D01*
X316857Y367168D01*
X316092Y366404D01*
X315279Y365691D01*
X314422Y365033D01*
X313523Y364432D01*
X312587Y363892D01*
X311617Y363414D01*
X310619Y363000D01*
X309595Y362652D01*
X308551Y362373D01*
X307491Y362162D01*
X306419Y362021D01*
X305340Y361950D01*
X304260Y361950D01*
X303181Y362021D01*
X302109Y362162D01*
X301049Y362373D01*
X300005Y362652D01*
X298981Y363000D01*
X297983Y363414D01*
X297013Y363892D01*
X296077Y364432D01*
X295178Y365033D01*
X294321Y365691D01*
X293508Y366404D01*
X292744Y367168D01*
X292031Y367981D01*
X291373Y368838D01*
X290772Y369737D01*
X290232Y370673D01*
X289754Y371643D01*
X289340Y372641D01*
X288992Y373665D01*
X288713Y374709D01*
X288502Y375769D01*
X288361Y376841D01*
X288290Y377920D01*
X288290Y379000D01*
X288361Y380079D01*
X288502Y381151D01*
X288713Y382211D01*
X288992Y383255D01*
X289340Y384279D01*
X289754Y385277D01*
X290232Y386247D01*
X290772Y387183D01*
X291373Y388082D01*
X292031Y388939D01*
X292744Y389752D01*
X293508Y390517D01*
X294321Y391229D01*
X295178Y391887D01*
X296077Y392488D01*
X297013Y393028D01*
X297983Y393506D01*
X298981Y393920D01*
X300005Y394268D01*
X301049Y394547D01*
X302109Y394758D01*
X303181Y394899D01*
X304260Y394970D01*
X305340Y394970D01*
X306419Y394899D01*
X307491Y394758D01*
X308551Y394547D01*
X309595Y394268D01*
X310619Y393920D01*
X311617Y393506D01*
X312587Y393028D01*
X313523Y392488D01*
X314422Y391887D01*
X315279Y391229D01*
X316092Y390517D01*
X316857Y389752D01*
X317569Y388939D01*
X318227Y388082D01*
X318828Y387183D01*
X319368Y386247D01*
X319846Y385277D01*
X320260Y384279D01*
X320608Y383255D01*
X320887Y382211D01*
X321098Y381151D01*
X321239Y380079D01*
X321310Y379000D01*
X321310Y377920D01*
M02*
