M48
;GenerationSoftware,Autodesk,EAGLE,9.6.2*%
;CreationDate,2023-08-16T01:45:07Z*%
FMAT,2
ICI,OFF
METRIC,TZ,000.000
T2C0.900
T1C1.016
%
G90
M71
T1
X54610Y15240
X54610Y12700
X54610Y10160
X54610Y7620
X50800Y15240
X48260Y15240
X45720Y15240
X43180Y15240
X40640Y15240
X38100Y15240
X35560Y15240
X33020Y15240
X54610Y5080
X54610Y2540
T2
X9525Y2540
X6985Y2540
X12065Y2540
X14605Y2540
X17145Y2540
X19685Y2540
X22225Y2540
X4445Y2540
X24765Y35687
X22225Y35687
X19685Y35687
X17145Y35687
X14605Y35687
X12065Y35687
X9525Y35687
X6985Y35687
X4445Y35687
X1905Y35687
M30