M48
;GenerationSoftware,Autodesk,EAGLE,9.6.2*%
;CreationDate,2023-08-16T04:32:17Z*%
FMAT,2
ICI,OFF
METRIC,TZ,000.000
T7C0.350
T6C0.813
T5C1.016
T4C1.118
T3C1.321
T2C3.000
T1C3.302
%
G90
M71
T1
X30480Y37846
X43180Y37846
X55880Y37846
T2
X2667Y54229
X63119Y54229
X2540Y3048
X63246Y2921
T3
X58395Y49530
X53365Y49530
X45695Y49530
X40665Y49530
X57379Y7366
X52349Y7366
T4
X33020Y20320
X30480Y20320
X27940Y20320
X58420Y20320
X55880Y20320
X53340Y20320
X45720Y20320
X43180Y20320
X40640Y20320
T5
X8890Y7620
X29210Y51943
X29210Y47371
X19050Y7620
X11430Y7620
X43180Y7620
X45720Y7620
X34290Y7620
X36830Y7620
X16510Y7620
T6
X13970Y45720
X7620Y25400
X7620Y22860
X15240Y22860
X15240Y25400
X12700Y16510
X5461Y51308
X15621Y51308
X35560Y13970
X45720Y13970
X58420Y16510
X48260Y16510
X17780Y12700
X27940Y12700
X17780Y48260
X7620Y29845
X17780Y29845
X19177Y27051
X19177Y16891
X11938Y35941
X9398Y35941
X15240Y16510
X6350Y45720
X6350Y43180
X13970Y43180
X17780Y38100
T7
X33020Y15240
X57150Y13970
X63500Y49530
X26670Y48260
X20320Y53340
X11430Y53340
X21590Y7620
X7620Y33020
X21590Y5080
X62230Y7620
X49530Y22860
X52070Y41910
X36830Y21590
X38100Y41910
X10160Y41910
X17780Y33020
M30