M48
;GenerationSoftware,Autodesk,EAGLE,9.6.2*%
;CreationDate,2023-08-16T04:31:09Z*%
FMAT,2
ICI,OFF
METRIC,TZ,000.000
T7C0.891
T6C0.900
T5C1.000
T4C1.270
T3C1.300
T2C1.500
T1C3.000
%
G90
M71
T1
X2540Y2794
X147320Y2540
X146558Y67818
X3175Y67818
T2
X52093Y43561
X45593Y43561
X48843Y43561
T3
X41458Y14459
X41458Y24939
X41458Y22319
X41458Y19699
X41458Y17079
X41458Y11839
T4
X134208Y35433
X146208Y35433
T5
X100330Y27940
X87630Y25400
X30169Y35249
X95260Y31701
X92720Y31701
X90180Y31701
X87640Y31701
X85100Y31701
X82560Y31701
X80020Y31701
X77480Y31701
X74940Y31701
X72400Y31701
X69860Y31701
X67320Y31701
X64780Y31701
X62240Y31701
X59700Y31701
X95260Y6931
X92720Y6931
X90180Y6931
X87640Y6931
X85100Y6931
X82560Y6931
X80020Y6931
X77480Y6931
X74940Y6931
X72400Y6931
X69860Y6931
X67320Y6931
X64780Y6931
X77470Y25400
X59700Y6931
X137208Y35415
X140208Y35415
X143208Y35415
X114300Y12700
X127000Y12700
X143256Y54610
X143256Y52070
X143256Y49530
X143256Y46990
X143256Y57150
X143256Y59690
X143256Y62230
X106680Y12700
X106680Y17780
X41910Y30480
X35052Y30480
X22860Y43180
X22860Y36830
X62240Y6931
X137160Y50800
X62230Y41910
T6
X112649Y15294
X112649Y17834
X112649Y20374
X117602Y35560
X120142Y35560
X109220Y35560
X111760Y35560
X129921Y35560
X127381Y35560
X112649Y12754
T7
X39495Y46760
X36955Y46760
X34415Y46760
X31874Y46760
X29334Y46760
X22884Y47014
X20285Y47014
X17685Y47014
X15084Y47014
X12484Y47014
X9885Y47014
X7284Y47014
X4685Y47014
X26794Y46760
M30