G04 EAGLE Gerber RS-274X export*
G75*
%MOMM*%
%FSLAX34Y34*%
%LPD*%
%INTop Copper*%
%IPPOS*%
%AMOC8*
5,1,8,0,0,1.08239X$1,22.5*%
G01*
%ADD10C,1.930400*%
%ADD11C,1.508000*%
%ADD12C,1.905000*%
%ADD13C,1.408000*%
%ADD14R,1.508000X1.508000*%
%ADD15C,1.950000*%
%ADD16C,1.399000*%
%ADD17C,2.250000*%
%ADD18C,1.500000*%
%ADD19C,1.000000*%

G36*
X1451721Y10176D02*
X1451721Y10176D01*
X1451816Y10185D01*
X1451842Y10196D01*
X1451870Y10200D01*
X1451954Y10245D01*
X1452041Y10283D01*
X1452062Y10302D01*
X1452087Y10316D01*
X1452152Y10385D01*
X1452223Y10449D01*
X1452237Y10473D01*
X1452256Y10494D01*
X1452296Y10580D01*
X1452343Y10664D01*
X1452348Y10691D01*
X1452360Y10717D01*
X1452370Y10812D01*
X1452388Y10905D01*
X1452384Y10933D01*
X1452387Y10961D01*
X1452367Y11055D01*
X1452353Y11149D01*
X1452339Y11181D01*
X1452335Y11202D01*
X1452318Y11230D01*
X1452286Y11303D01*
X1449754Y15688D01*
X1448039Y22088D01*
X1448039Y28712D01*
X1449754Y35112D01*
X1453066Y40849D01*
X1457751Y45534D01*
X1463488Y48846D01*
X1469888Y50561D01*
X1476512Y50561D01*
X1482912Y48846D01*
X1487097Y46429D01*
X1487186Y46396D01*
X1487273Y46356D01*
X1487301Y46352D01*
X1487327Y46342D01*
X1487423Y46339D01*
X1487517Y46328D01*
X1487545Y46334D01*
X1487573Y46333D01*
X1487665Y46361D01*
X1487758Y46381D01*
X1487782Y46395D01*
X1487809Y46403D01*
X1487887Y46458D01*
X1487969Y46507D01*
X1487987Y46528D01*
X1488010Y46545D01*
X1488067Y46621D01*
X1488129Y46694D01*
X1488139Y46720D01*
X1488156Y46743D01*
X1488185Y46833D01*
X1488221Y46922D01*
X1488225Y46957D01*
X1488231Y46977D01*
X1488231Y47010D01*
X1488239Y47089D01*
X1488239Y664265D01*
X1488232Y664312D01*
X1488233Y664360D01*
X1488212Y664433D01*
X1488200Y664507D01*
X1488177Y664550D01*
X1488163Y664596D01*
X1488120Y664658D01*
X1488084Y664725D01*
X1488050Y664758D01*
X1488022Y664797D01*
X1487961Y664842D01*
X1487906Y664894D01*
X1487863Y664914D01*
X1487824Y664943D01*
X1487752Y664966D01*
X1487683Y664998D01*
X1487635Y665003D01*
X1487590Y665018D01*
X1487514Y665016D01*
X1487439Y665025D01*
X1487392Y665015D01*
X1487344Y665014D01*
X1487272Y664989D01*
X1487198Y664973D01*
X1487157Y664948D01*
X1487112Y664932D01*
X1487052Y664885D01*
X1486987Y664846D01*
X1486956Y664810D01*
X1486918Y664780D01*
X1486842Y664676D01*
X1486827Y664659D01*
X1486825Y664653D01*
X1486819Y664645D01*
X1485714Y662731D01*
X1481029Y658046D01*
X1475292Y654734D01*
X1468892Y653019D01*
X1462268Y653019D01*
X1455868Y654734D01*
X1450131Y658046D01*
X1445446Y662731D01*
X1442134Y668468D01*
X1440419Y674868D01*
X1440419Y681492D01*
X1442134Y687892D01*
X1445446Y693629D01*
X1448257Y696440D01*
X1448299Y696498D01*
X1448348Y696550D01*
X1448370Y696597D01*
X1448401Y696639D01*
X1448422Y696708D01*
X1448452Y696773D01*
X1448458Y696825D01*
X1448473Y696875D01*
X1448471Y696946D01*
X1448479Y697017D01*
X1448468Y697068D01*
X1448467Y697120D01*
X1448442Y697188D01*
X1448427Y697258D01*
X1448400Y697303D01*
X1448382Y697351D01*
X1448337Y697407D01*
X1448301Y697469D01*
X1448261Y697503D01*
X1448228Y697543D01*
X1448168Y697582D01*
X1448114Y697629D01*
X1448065Y697648D01*
X1448022Y697676D01*
X1447952Y697694D01*
X1447886Y697721D01*
X1447814Y697729D01*
X1447783Y697737D01*
X1447760Y697735D01*
X1447719Y697739D01*
X49611Y697739D01*
X49540Y697728D01*
X49469Y697726D01*
X49420Y697708D01*
X49368Y697700D01*
X49305Y697666D01*
X49238Y697641D01*
X49197Y697609D01*
X49151Y697584D01*
X49102Y697532D01*
X49046Y697488D01*
X49018Y697444D01*
X48982Y697406D01*
X48952Y697341D01*
X48913Y697281D01*
X48900Y697230D01*
X48878Y697183D01*
X48870Y697112D01*
X48853Y697042D01*
X48857Y696990D01*
X48851Y696939D01*
X48866Y696868D01*
X48872Y696797D01*
X48892Y696749D01*
X48903Y696698D01*
X48940Y696637D01*
X48968Y696571D01*
X49013Y696515D01*
X49029Y696487D01*
X49047Y696472D01*
X49073Y696440D01*
X51884Y693629D01*
X55196Y687892D01*
X56911Y681492D01*
X56911Y674868D01*
X55196Y668468D01*
X51884Y662731D01*
X47199Y658046D01*
X41462Y654734D01*
X35062Y653019D01*
X28438Y653019D01*
X22038Y654734D01*
X16301Y658046D01*
X11616Y662731D01*
X11581Y662792D01*
X11551Y662829D01*
X11528Y662871D01*
X11474Y662923D01*
X11426Y662982D01*
X11385Y663008D01*
X11350Y663041D01*
X11281Y663073D01*
X11217Y663113D01*
X11171Y663124D01*
X11127Y663144D01*
X11052Y663153D01*
X10978Y663170D01*
X10930Y663166D01*
X10883Y663171D01*
X10809Y663155D01*
X10733Y663149D01*
X10689Y663129D01*
X10642Y663119D01*
X10577Y663080D01*
X10508Y663050D01*
X10472Y663018D01*
X10431Y662993D01*
X10382Y662935D01*
X10326Y662885D01*
X10302Y662843D01*
X10271Y662806D01*
X10243Y662736D01*
X10206Y662670D01*
X10197Y662623D01*
X10179Y662578D01*
X10165Y662450D01*
X10161Y662428D01*
X10162Y662421D01*
X10161Y662411D01*
X10161Y49513D01*
X10176Y49419D01*
X10185Y49324D01*
X10196Y49298D01*
X10200Y49270D01*
X10245Y49186D01*
X10283Y49099D01*
X10302Y49078D01*
X10316Y49053D01*
X10385Y48988D01*
X10449Y48917D01*
X10473Y48903D01*
X10494Y48884D01*
X10580Y48844D01*
X10664Y48797D01*
X10691Y48792D01*
X10717Y48780D01*
X10812Y48770D01*
X10905Y48752D01*
X10933Y48756D01*
X10961Y48753D01*
X11055Y48773D01*
X11149Y48787D01*
X11181Y48801D01*
X11202Y48805D01*
X11230Y48822D01*
X11303Y48854D01*
X15688Y51386D01*
X22088Y53101D01*
X28712Y53101D01*
X35112Y51386D01*
X40849Y48074D01*
X45534Y43389D01*
X48846Y37652D01*
X50561Y31252D01*
X50561Y24628D01*
X48846Y18228D01*
X45534Y12491D01*
X44503Y11460D01*
X44461Y11402D01*
X44412Y11350D01*
X44390Y11303D01*
X44359Y11261D01*
X44338Y11192D01*
X44308Y11127D01*
X44302Y11075D01*
X44287Y11025D01*
X44289Y10954D01*
X44281Y10883D01*
X44292Y10832D01*
X44293Y10780D01*
X44318Y10712D01*
X44333Y10642D01*
X44360Y10597D01*
X44378Y10549D01*
X44423Y10493D01*
X44459Y10431D01*
X44499Y10397D01*
X44532Y10357D01*
X44592Y10318D01*
X44646Y10271D01*
X44695Y10252D01*
X44738Y10224D01*
X44808Y10206D01*
X44874Y10179D01*
X44946Y10171D01*
X44977Y10163D01*
X45000Y10165D01*
X45041Y10161D01*
X1451627Y10161D01*
X1451721Y10176D01*
G37*
%LPC*%
G36*
X593688Y52657D02*
X593688Y52657D01*
X587567Y55193D01*
X582883Y59877D01*
X580347Y65998D01*
X580347Y72622D01*
X582883Y78743D01*
X587567Y83427D01*
X593688Y85963D01*
X600312Y85963D01*
X606433Y83427D01*
X609162Y80699D01*
X609178Y80687D01*
X609190Y80672D01*
X609278Y80615D01*
X609361Y80555D01*
X609380Y80549D01*
X609397Y80539D01*
X609498Y80513D01*
X609597Y80483D01*
X609616Y80483D01*
X609636Y80479D01*
X609739Y80487D01*
X609842Y80489D01*
X609861Y80496D01*
X609881Y80498D01*
X609976Y80538D01*
X610073Y80574D01*
X610089Y80586D01*
X610107Y80594D01*
X610238Y80699D01*
X612967Y83427D01*
X619088Y85963D01*
X625712Y85963D01*
X631833Y83427D01*
X634562Y80699D01*
X634578Y80687D01*
X634590Y80672D01*
X634678Y80615D01*
X634761Y80555D01*
X634780Y80549D01*
X634797Y80539D01*
X634898Y80513D01*
X634997Y80483D01*
X635016Y80483D01*
X635036Y80479D01*
X635139Y80487D01*
X635242Y80489D01*
X635261Y80496D01*
X635281Y80498D01*
X635376Y80538D01*
X635473Y80574D01*
X635489Y80586D01*
X635507Y80594D01*
X635638Y80699D01*
X638367Y83427D01*
X644488Y85963D01*
X651112Y85963D01*
X656987Y83530D01*
X657031Y83519D01*
X657073Y83500D01*
X657150Y83491D01*
X657226Y83473D01*
X657272Y83478D01*
X657317Y83473D01*
X657394Y83489D01*
X657471Y83496D01*
X657513Y83515D01*
X657558Y83525D01*
X657625Y83565D01*
X657696Y83596D01*
X657730Y83628D01*
X657769Y83651D01*
X657820Y83710D01*
X657877Y83763D01*
X657899Y83803D01*
X657929Y83838D01*
X657958Y83910D01*
X657995Y83978D01*
X658004Y84024D01*
X658021Y84066D01*
X658036Y84202D01*
X658039Y84220D01*
X658038Y84225D01*
X658039Y84233D01*
X658039Y100118D01*
X659561Y103793D01*
X659578Y103862D01*
X659603Y103929D01*
X659606Y103981D01*
X659618Y104032D01*
X659611Y104103D01*
X659614Y104175D01*
X659599Y104225D01*
X659594Y104277D01*
X659565Y104342D01*
X659545Y104411D01*
X659516Y104454D01*
X659494Y104502D01*
X659446Y104554D01*
X659405Y104613D01*
X659363Y104644D01*
X659328Y104683D01*
X659265Y104717D01*
X659208Y104760D01*
X659158Y104776D01*
X659113Y104801D01*
X659042Y104814D01*
X658974Y104836D01*
X658922Y104836D01*
X658871Y104845D01*
X658800Y104835D01*
X658728Y104834D01*
X658659Y104814D01*
X658627Y104809D01*
X658606Y104799D01*
X658567Y104787D01*
X654806Y103229D01*
X421902Y103229D01*
X421837Y103219D01*
X421772Y103218D01*
X421692Y103195D01*
X421659Y103190D01*
X421642Y103180D01*
X421611Y103171D01*
X417912Y101639D01*
X411248Y101639D01*
X405091Y104189D01*
X400379Y108901D01*
X397829Y115058D01*
X397829Y121722D01*
X400379Y127879D01*
X403453Y130952D01*
X403464Y130968D01*
X403480Y130980D01*
X403536Y131068D01*
X403596Y131151D01*
X403602Y131170D01*
X403613Y131187D01*
X403638Y131288D01*
X403669Y131387D01*
X403668Y131406D01*
X403673Y131426D01*
X403665Y131529D01*
X403662Y131632D01*
X403655Y131651D01*
X403654Y131671D01*
X403613Y131766D01*
X403578Y131863D01*
X403565Y131879D01*
X403557Y131897D01*
X403453Y132028D01*
X400379Y135101D01*
X397829Y141258D01*
X397829Y147922D01*
X400379Y154079D01*
X403453Y157152D01*
X403464Y157168D01*
X403480Y157180D01*
X403536Y157268D01*
X403596Y157351D01*
X403602Y157370D01*
X403613Y157387D01*
X403638Y157488D01*
X403669Y157587D01*
X403668Y157606D01*
X403673Y157626D01*
X403665Y157729D01*
X403662Y157832D01*
X403655Y157851D01*
X403654Y157871D01*
X403613Y157966D01*
X403578Y158063D01*
X403565Y158079D01*
X403557Y158097D01*
X403453Y158228D01*
X400379Y161301D01*
X397829Y167458D01*
X397829Y174122D01*
X400379Y180279D01*
X403453Y183352D01*
X403464Y183368D01*
X403480Y183380D01*
X403536Y183468D01*
X403596Y183551D01*
X403602Y183570D01*
X403613Y183587D01*
X403638Y183688D01*
X403669Y183787D01*
X403668Y183806D01*
X403673Y183826D01*
X403665Y183929D01*
X403662Y184032D01*
X403655Y184051D01*
X403654Y184071D01*
X403613Y184166D01*
X403578Y184263D01*
X403565Y184279D01*
X403557Y184297D01*
X403453Y184428D01*
X400379Y187501D01*
X397829Y193658D01*
X397829Y200322D01*
X400379Y206479D01*
X403453Y209552D01*
X403464Y209568D01*
X403480Y209580D01*
X403536Y209668D01*
X403596Y209751D01*
X403602Y209770D01*
X403613Y209787D01*
X403638Y209888D01*
X403669Y209987D01*
X403668Y210006D01*
X403673Y210026D01*
X403665Y210129D01*
X403662Y210232D01*
X403655Y210251D01*
X403654Y210271D01*
X403613Y210366D01*
X403578Y210463D01*
X403565Y210479D01*
X403557Y210497D01*
X403453Y210628D01*
X400379Y213701D01*
X397829Y219858D01*
X397829Y226522D01*
X400379Y232679D01*
X405091Y237391D01*
X407080Y238214D01*
X407170Y238270D01*
X407261Y238321D01*
X407274Y238334D01*
X407289Y238344D01*
X407356Y238425D01*
X407427Y238503D01*
X407434Y238519D01*
X407446Y238533D01*
X407484Y238632D01*
X407526Y238728D01*
X407528Y238746D01*
X407534Y238763D01*
X407539Y238868D01*
X407548Y238973D01*
X407544Y238991D01*
X407545Y239009D01*
X407515Y239110D01*
X407491Y239212D01*
X407481Y239228D01*
X407476Y239245D01*
X407416Y239331D01*
X407360Y239421D01*
X407344Y239436D01*
X407336Y239447D01*
X407310Y239466D01*
X407236Y239533D01*
X406573Y240015D01*
X405205Y241383D01*
X404068Y242948D01*
X403190Y244672D01*
X402592Y246512D01*
X402377Y247867D01*
X413818Y247867D01*
X413838Y247870D01*
X413857Y247868D01*
X413959Y247890D01*
X414061Y247907D01*
X414078Y247916D01*
X414098Y247920D01*
X414187Y247973D01*
X414278Y248022D01*
X414292Y248036D01*
X414309Y248046D01*
X414376Y248125D01*
X414447Y248200D01*
X414456Y248218D01*
X414469Y248233D01*
X414507Y248329D01*
X414551Y248423D01*
X414553Y248443D01*
X414561Y248461D01*
X414579Y248628D01*
X414579Y249391D01*
X414581Y249391D01*
X414581Y248628D01*
X414584Y248608D01*
X414582Y248589D01*
X414604Y248487D01*
X414621Y248385D01*
X414630Y248368D01*
X414634Y248348D01*
X414687Y248259D01*
X414736Y248168D01*
X414750Y248154D01*
X414760Y248137D01*
X414839Y248070D01*
X414914Y247999D01*
X414932Y247990D01*
X414947Y247977D01*
X415043Y247938D01*
X415137Y247895D01*
X415157Y247893D01*
X415175Y247885D01*
X415342Y247867D01*
X426783Y247867D01*
X426568Y246512D01*
X425970Y244672D01*
X425092Y242948D01*
X423955Y241383D01*
X422587Y240015D01*
X422191Y239728D01*
X422186Y239722D01*
X422179Y239718D01*
X422099Y239635D01*
X422018Y239553D01*
X422015Y239546D01*
X422009Y239540D01*
X421961Y239435D01*
X421910Y239332D01*
X421909Y239324D01*
X421906Y239317D01*
X421893Y239203D01*
X421878Y239088D01*
X421879Y239080D01*
X421879Y239073D01*
X421903Y238960D01*
X421925Y238847D01*
X421929Y238840D01*
X421931Y238832D01*
X421990Y238734D01*
X422047Y238633D01*
X422053Y238628D01*
X422057Y238621D01*
X422145Y238546D01*
X422231Y238470D01*
X422238Y238466D01*
X422244Y238461D01*
X422351Y238418D01*
X422457Y238373D01*
X422465Y238372D01*
X422472Y238369D01*
X422639Y238351D01*
X473135Y238351D01*
X473225Y238365D01*
X473316Y238373D01*
X473346Y238385D01*
X473378Y238390D01*
X473458Y238433D01*
X473542Y238469D01*
X473574Y238495D01*
X473595Y238506D01*
X473617Y238529D01*
X473673Y238574D01*
X479916Y244817D01*
X479969Y244891D01*
X480029Y244960D01*
X480041Y244990D01*
X480060Y245017D01*
X480087Y245104D01*
X480121Y245188D01*
X480125Y245229D01*
X480132Y245252D01*
X480131Y245284D01*
X480139Y245355D01*
X480139Y269716D01*
X482447Y275288D01*
X486819Y279660D01*
X499412Y292253D01*
X504984Y294561D01*
X520361Y294561D01*
X520432Y294572D01*
X520503Y294574D01*
X520552Y294592D01*
X520604Y294600D01*
X520667Y294634D01*
X520734Y294659D01*
X520775Y294691D01*
X520821Y294716D01*
X520870Y294768D01*
X520926Y294812D01*
X520955Y294856D01*
X520990Y294894D01*
X521021Y294959D01*
X521059Y295019D01*
X521072Y295070D01*
X521094Y295117D01*
X521102Y295188D01*
X521119Y295258D01*
X521115Y295310D01*
X521121Y295361D01*
X521106Y295432D01*
X521100Y295503D01*
X521080Y295551D01*
X521069Y295602D01*
X521032Y295663D01*
X521004Y295729D01*
X520959Y295785D01*
X520943Y295813D01*
X520925Y295828D01*
X520899Y295860D01*
X512449Y304310D01*
X508077Y308682D01*
X505769Y314254D01*
X505769Y413395D01*
X505755Y413485D01*
X505747Y413576D01*
X505735Y413606D01*
X505730Y413638D01*
X505687Y413718D01*
X505651Y413802D01*
X505625Y413834D01*
X505614Y413855D01*
X505591Y413877D01*
X505546Y413933D01*
X505458Y414022D01*
X505383Y414202D01*
X505345Y414263D01*
X505316Y414328D01*
X505281Y414366D01*
X505254Y414411D01*
X505198Y414456D01*
X505150Y414509D01*
X505104Y414534D01*
X505064Y414568D01*
X504997Y414593D01*
X504934Y414628D01*
X504883Y414637D01*
X504835Y414656D01*
X504763Y414659D01*
X504692Y414671D01*
X504641Y414664D01*
X504589Y414666D01*
X504520Y414646D01*
X504449Y414636D01*
X504403Y414612D01*
X504353Y414598D01*
X504294Y414557D01*
X504230Y414524D01*
X504193Y414487D01*
X504151Y414457D01*
X504108Y414400D01*
X504058Y414349D01*
X504023Y414286D01*
X504004Y414260D01*
X503997Y414238D01*
X503977Y414202D01*
X503902Y414022D01*
X502387Y412506D01*
X502349Y412453D01*
X502303Y412406D01*
X502262Y412333D01*
X502243Y412307D01*
X502238Y412288D01*
X502222Y412259D01*
X501283Y409992D01*
X478488Y387197D01*
X472916Y384889D01*
X444745Y384889D01*
X444655Y384875D01*
X444564Y384867D01*
X444534Y384855D01*
X444502Y384850D01*
X444422Y384807D01*
X444338Y384771D01*
X444306Y384745D01*
X444285Y384734D01*
X444263Y384711D01*
X444207Y384666D01*
X427688Y368147D01*
X422116Y365839D01*
X336795Y365839D01*
X336705Y365825D01*
X336614Y365817D01*
X336584Y365805D01*
X336552Y365800D01*
X336472Y365757D01*
X336388Y365721D01*
X336356Y365695D01*
X336335Y365684D01*
X336313Y365661D01*
X336257Y365616D01*
X310277Y339637D01*
X304705Y337329D01*
X298674Y337329D01*
X293102Y339637D01*
X288837Y343902D01*
X286529Y349474D01*
X286529Y355505D01*
X288837Y361077D01*
X321612Y393853D01*
X327184Y396161D01*
X412505Y396161D01*
X412595Y396175D01*
X412686Y396183D01*
X412716Y396195D01*
X412748Y396200D01*
X412828Y396243D01*
X412912Y396279D01*
X412944Y396305D01*
X412965Y396316D01*
X412987Y396339D01*
X413043Y396384D01*
X429562Y412903D01*
X435134Y415211D01*
X444037Y415211D01*
X444049Y415213D01*
X444061Y415211D01*
X444170Y415232D01*
X444280Y415250D01*
X444290Y415256D01*
X444302Y415258D01*
X444399Y415313D01*
X444497Y415366D01*
X444505Y415374D01*
X444516Y415380D01*
X444590Y415463D01*
X444667Y415544D01*
X444672Y415555D01*
X444680Y415564D01*
X444723Y415666D01*
X444770Y415767D01*
X444771Y415779D01*
X444776Y415790D01*
X444785Y415901D01*
X444797Y416011D01*
X444795Y416023D01*
X444796Y416035D01*
X444769Y416143D01*
X444745Y416252D01*
X444739Y416262D01*
X444736Y416274D01*
X444653Y416419D01*
X444135Y417132D01*
X443150Y419066D01*
X442479Y421131D01*
X442139Y423275D01*
X442139Y434087D01*
X455168Y434087D01*
X455188Y434090D01*
X455207Y434088D01*
X455309Y434110D01*
X455411Y434127D01*
X455428Y434136D01*
X455448Y434140D01*
X455537Y434193D01*
X455628Y434242D01*
X455642Y434256D01*
X455659Y434266D01*
X455726Y434345D01*
X455797Y434420D01*
X455806Y434438D01*
X455819Y434453D01*
X455857Y434549D01*
X455901Y434643D01*
X455903Y434663D01*
X455911Y434681D01*
X455929Y434848D01*
X455929Y435611D01*
X456692Y435611D01*
X456712Y435614D01*
X456731Y435612D01*
X456833Y435634D01*
X456935Y435651D01*
X456952Y435660D01*
X456972Y435664D01*
X457061Y435717D01*
X457152Y435766D01*
X457166Y435780D01*
X457183Y435790D01*
X457250Y435869D01*
X457321Y435944D01*
X457330Y435962D01*
X457343Y435977D01*
X457382Y436073D01*
X457425Y436167D01*
X457427Y436187D01*
X457435Y436205D01*
X457453Y436372D01*
X457453Y460581D01*
X459159Y460311D01*
X461224Y459640D01*
X463158Y458655D01*
X464914Y457379D01*
X466449Y455844D01*
X467725Y454088D01*
X468710Y452154D01*
X469021Y451197D01*
X469068Y451107D01*
X469109Y451014D01*
X469124Y450998D01*
X469134Y450978D01*
X469207Y450908D01*
X469275Y450833D01*
X469295Y450822D01*
X469311Y450807D01*
X469402Y450763D01*
X469491Y450714D01*
X469513Y450711D01*
X469533Y450701D01*
X469633Y450689D01*
X469733Y450671D01*
X469755Y450674D01*
X469777Y450671D01*
X469876Y450692D01*
X469976Y450707D01*
X469996Y450717D01*
X470018Y450721D01*
X470105Y450772D01*
X470196Y450818D01*
X470211Y450834D01*
X470230Y450845D01*
X470297Y450921D01*
X470368Y450994D01*
X470381Y451018D01*
X470392Y451030D01*
X470405Y451060D01*
X470449Y451141D01*
X472958Y457198D01*
X478092Y462332D01*
X484800Y465111D01*
X492060Y465111D01*
X498768Y462332D01*
X503902Y457198D01*
X503977Y457018D01*
X504014Y456957D01*
X504044Y456892D01*
X504079Y456854D01*
X504106Y456809D01*
X504162Y456764D01*
X504210Y456711D01*
X504256Y456686D01*
X504296Y456653D01*
X504363Y456627D01*
X504426Y456592D01*
X504477Y456583D01*
X504525Y456564D01*
X504597Y456561D01*
X504668Y456549D01*
X504719Y456556D01*
X504771Y456554D01*
X504840Y456574D01*
X504911Y456584D01*
X504957Y456608D01*
X505007Y456622D01*
X505066Y456663D01*
X505130Y456696D01*
X505167Y456733D01*
X505209Y456763D01*
X505252Y456820D01*
X505302Y456871D01*
X505337Y456934D01*
X505356Y456960D01*
X505363Y456982D01*
X505383Y457018D01*
X505458Y457198D01*
X510592Y462332D01*
X517300Y465111D01*
X524560Y465111D01*
X531268Y462332D01*
X536402Y457198D01*
X539181Y450490D01*
X539181Y420730D01*
X536402Y414022D01*
X536314Y413933D01*
X536261Y413859D01*
X536201Y413790D01*
X536189Y413760D01*
X536170Y413734D01*
X536143Y413646D01*
X536109Y413562D01*
X536105Y413521D01*
X536098Y413499D01*
X536099Y413466D01*
X536091Y413395D01*
X536091Y323865D01*
X536105Y323775D01*
X536113Y323684D01*
X536125Y323654D01*
X536130Y323622D01*
X536173Y323542D01*
X536209Y323458D01*
X536235Y323426D01*
X536246Y323405D01*
X536269Y323383D01*
X536314Y323327D01*
X564857Y294784D01*
X564931Y294731D01*
X565000Y294671D01*
X565030Y294659D01*
X565057Y294640D01*
X565144Y294613D01*
X565228Y294579D01*
X565269Y294575D01*
X565292Y294568D01*
X565324Y294569D01*
X565395Y294561D01*
X920505Y294561D01*
X920595Y294575D01*
X920686Y294583D01*
X920716Y294595D01*
X920748Y294600D01*
X920828Y294643D01*
X920912Y294679D01*
X920944Y294705D01*
X920965Y294716D01*
X920987Y294739D01*
X921043Y294784D01*
X929969Y303710D01*
X929974Y303716D01*
X929980Y303721D01*
X930046Y303817D01*
X930113Y303909D01*
X930115Y303917D01*
X930120Y303924D01*
X930151Y304035D01*
X930185Y304144D01*
X930185Y304152D01*
X930187Y304160D01*
X930182Y304275D01*
X930179Y304390D01*
X930176Y304398D01*
X930175Y304406D01*
X930134Y304513D01*
X930094Y304621D01*
X930089Y304628D01*
X930086Y304635D01*
X930012Y304723D01*
X929940Y304813D01*
X929934Y304818D01*
X929929Y304824D01*
X929830Y304884D01*
X929734Y304946D01*
X929726Y304948D01*
X929719Y304952D01*
X929606Y304978D01*
X929495Y305006D01*
X929487Y305006D01*
X929479Y305008D01*
X929312Y305000D01*
X928723Y304907D01*
X928723Y316248D01*
X928720Y316268D01*
X928722Y316287D01*
X928700Y316389D01*
X928683Y316491D01*
X928674Y316508D01*
X928670Y316528D01*
X928617Y316617D01*
X928568Y316708D01*
X928554Y316722D01*
X928544Y316739D01*
X928465Y316806D01*
X928390Y316877D01*
X928372Y316886D01*
X928357Y316899D01*
X928261Y316937D01*
X928167Y316981D01*
X928147Y316983D01*
X928129Y316991D01*
X927962Y317009D01*
X926438Y317009D01*
X926418Y317006D01*
X926399Y317008D01*
X926297Y316986D01*
X926195Y316969D01*
X926178Y316960D01*
X926158Y316956D01*
X926069Y316903D01*
X925978Y316854D01*
X925964Y316840D01*
X925947Y316830D01*
X925880Y316751D01*
X925809Y316676D01*
X925800Y316658D01*
X925787Y316643D01*
X925748Y316547D01*
X925705Y316453D01*
X925703Y316433D01*
X925695Y316415D01*
X925677Y316248D01*
X925677Y304907D01*
X924345Y305117D01*
X922520Y305711D01*
X920810Y306582D01*
X919257Y307710D01*
X917900Y309067D01*
X917829Y309164D01*
X917754Y309238D01*
X917683Y309316D01*
X917668Y309324D01*
X917655Y309337D01*
X917560Y309383D01*
X917468Y309434D01*
X917450Y309437D01*
X917434Y309445D01*
X917330Y309459D01*
X917226Y309478D01*
X917208Y309475D01*
X917190Y309478D01*
X917087Y309457D01*
X916983Y309442D01*
X916966Y309434D01*
X916949Y309430D01*
X916857Y309378D01*
X916763Y309331D01*
X916751Y309318D01*
X916735Y309309D01*
X916665Y309230D01*
X916591Y309155D01*
X916580Y309135D01*
X916571Y309125D01*
X916559Y309096D01*
X916510Y309008D01*
X915917Y307577D01*
X911233Y302893D01*
X905112Y300357D01*
X898488Y300357D01*
X892367Y302893D01*
X889638Y305621D01*
X889622Y305633D01*
X889610Y305648D01*
X889522Y305704D01*
X889439Y305765D01*
X889420Y305771D01*
X889403Y305781D01*
X889302Y305807D01*
X889203Y305837D01*
X889184Y305837D01*
X889164Y305841D01*
X889061Y305833D01*
X888958Y305831D01*
X888939Y305824D01*
X888919Y305822D01*
X888824Y305782D01*
X888727Y305746D01*
X888711Y305734D01*
X888693Y305726D01*
X888562Y305621D01*
X885833Y302893D01*
X879712Y300357D01*
X873088Y300357D01*
X866967Y302893D01*
X864238Y305621D01*
X864222Y305633D01*
X864210Y305648D01*
X864122Y305704D01*
X864039Y305765D01*
X864020Y305771D01*
X864003Y305781D01*
X863902Y305807D01*
X863803Y305837D01*
X863784Y305837D01*
X863764Y305841D01*
X863661Y305833D01*
X863558Y305831D01*
X863539Y305824D01*
X863519Y305822D01*
X863424Y305782D01*
X863327Y305746D01*
X863311Y305734D01*
X863293Y305726D01*
X863162Y305621D01*
X860433Y302893D01*
X854312Y300357D01*
X847688Y300357D01*
X841567Y302893D01*
X838838Y305621D01*
X838822Y305633D01*
X838810Y305648D01*
X838722Y305704D01*
X838639Y305765D01*
X838620Y305771D01*
X838603Y305781D01*
X838502Y305807D01*
X838403Y305837D01*
X838384Y305837D01*
X838364Y305841D01*
X838261Y305833D01*
X838158Y305831D01*
X838139Y305824D01*
X838119Y305822D01*
X838024Y305782D01*
X837927Y305746D01*
X837911Y305734D01*
X837893Y305726D01*
X837762Y305621D01*
X835033Y302893D01*
X828912Y300357D01*
X822288Y300357D01*
X816167Y302893D01*
X813438Y305621D01*
X813422Y305633D01*
X813410Y305648D01*
X813322Y305704D01*
X813239Y305765D01*
X813220Y305771D01*
X813203Y305781D01*
X813102Y305807D01*
X813003Y305837D01*
X812984Y305837D01*
X812964Y305841D01*
X812861Y305833D01*
X812758Y305831D01*
X812739Y305824D01*
X812719Y305822D01*
X812624Y305782D01*
X812527Y305746D01*
X812511Y305734D01*
X812493Y305726D01*
X812362Y305621D01*
X809633Y302893D01*
X803512Y300357D01*
X796888Y300357D01*
X790767Y302893D01*
X788038Y305621D01*
X788022Y305633D01*
X788010Y305648D01*
X787922Y305704D01*
X787839Y305765D01*
X787820Y305771D01*
X787803Y305781D01*
X787702Y305807D01*
X787603Y305837D01*
X787584Y305837D01*
X787564Y305841D01*
X787461Y305833D01*
X787358Y305831D01*
X787339Y305824D01*
X787319Y305822D01*
X787224Y305782D01*
X787127Y305746D01*
X787111Y305734D01*
X787093Y305726D01*
X786962Y305621D01*
X784233Y302893D01*
X778112Y300357D01*
X771488Y300357D01*
X765367Y302893D01*
X762638Y305621D01*
X762622Y305633D01*
X762610Y305648D01*
X762522Y305704D01*
X762439Y305765D01*
X762420Y305771D01*
X762403Y305781D01*
X762302Y305807D01*
X762203Y305837D01*
X762184Y305837D01*
X762164Y305841D01*
X762061Y305833D01*
X761958Y305831D01*
X761939Y305824D01*
X761919Y305822D01*
X761824Y305782D01*
X761727Y305746D01*
X761711Y305734D01*
X761693Y305726D01*
X761562Y305621D01*
X758833Y302893D01*
X752712Y300357D01*
X746088Y300357D01*
X739967Y302893D01*
X737238Y305621D01*
X737222Y305633D01*
X737210Y305648D01*
X737122Y305704D01*
X737039Y305765D01*
X737020Y305771D01*
X737003Y305781D01*
X736902Y305807D01*
X736803Y305837D01*
X736784Y305837D01*
X736764Y305841D01*
X736661Y305833D01*
X736558Y305831D01*
X736539Y305824D01*
X736519Y305822D01*
X736424Y305782D01*
X736327Y305746D01*
X736311Y305734D01*
X736293Y305726D01*
X736162Y305621D01*
X733433Y302893D01*
X727312Y300357D01*
X720688Y300357D01*
X714567Y302893D01*
X711838Y305621D01*
X711822Y305633D01*
X711810Y305648D01*
X711722Y305704D01*
X711639Y305765D01*
X711620Y305771D01*
X711603Y305781D01*
X711502Y305807D01*
X711403Y305837D01*
X711384Y305837D01*
X711364Y305841D01*
X711261Y305833D01*
X711158Y305831D01*
X711139Y305824D01*
X711119Y305822D01*
X711024Y305782D01*
X710927Y305746D01*
X710911Y305734D01*
X710893Y305726D01*
X710762Y305621D01*
X708033Y302893D01*
X701912Y300357D01*
X695288Y300357D01*
X689167Y302893D01*
X686438Y305621D01*
X686422Y305633D01*
X686410Y305648D01*
X686322Y305704D01*
X686239Y305765D01*
X686220Y305771D01*
X686203Y305781D01*
X686102Y305807D01*
X686003Y305837D01*
X685984Y305837D01*
X685964Y305841D01*
X685861Y305833D01*
X685758Y305831D01*
X685739Y305824D01*
X685719Y305822D01*
X685624Y305782D01*
X685527Y305746D01*
X685511Y305734D01*
X685493Y305726D01*
X685362Y305621D01*
X682633Y302893D01*
X676512Y300357D01*
X669888Y300357D01*
X663767Y302893D01*
X661038Y305621D01*
X661022Y305633D01*
X661010Y305648D01*
X660922Y305704D01*
X660839Y305765D01*
X660820Y305771D01*
X660803Y305781D01*
X660702Y305807D01*
X660603Y305837D01*
X660584Y305837D01*
X660564Y305841D01*
X660461Y305833D01*
X660358Y305831D01*
X660339Y305824D01*
X660319Y305822D01*
X660224Y305782D01*
X660127Y305746D01*
X660111Y305734D01*
X660093Y305726D01*
X659962Y305621D01*
X657233Y302893D01*
X651112Y300357D01*
X644488Y300357D01*
X638367Y302893D01*
X635638Y305621D01*
X635622Y305633D01*
X635610Y305648D01*
X635522Y305704D01*
X635439Y305765D01*
X635420Y305771D01*
X635403Y305781D01*
X635302Y305807D01*
X635203Y305837D01*
X635184Y305837D01*
X635164Y305841D01*
X635061Y305833D01*
X634958Y305831D01*
X634939Y305824D01*
X634919Y305822D01*
X634824Y305782D01*
X634727Y305746D01*
X634711Y305734D01*
X634693Y305726D01*
X634562Y305621D01*
X631833Y302893D01*
X625712Y300357D01*
X619088Y300357D01*
X612967Y302893D01*
X610238Y305621D01*
X610222Y305633D01*
X610210Y305648D01*
X610122Y305704D01*
X610039Y305765D01*
X610020Y305771D01*
X610003Y305781D01*
X609902Y305807D01*
X609803Y305837D01*
X609784Y305837D01*
X609764Y305841D01*
X609661Y305833D01*
X609558Y305831D01*
X609539Y305824D01*
X609519Y305822D01*
X609424Y305782D01*
X609327Y305746D01*
X609311Y305734D01*
X609293Y305726D01*
X609162Y305621D01*
X606433Y302893D01*
X600312Y300357D01*
X593688Y300357D01*
X587567Y302893D01*
X582883Y307577D01*
X580347Y313698D01*
X580347Y320322D01*
X582883Y326443D01*
X587567Y331127D01*
X593688Y333663D01*
X600312Y333663D01*
X606087Y331271D01*
X606131Y331260D01*
X606173Y331241D01*
X606250Y331233D01*
X606326Y331215D01*
X606372Y331219D01*
X606417Y331214D01*
X606494Y331231D01*
X606571Y331238D01*
X606613Y331257D01*
X606658Y331266D01*
X606725Y331306D01*
X606796Y331338D01*
X606830Y331369D01*
X606869Y331392D01*
X606920Y331452D01*
X606977Y331504D01*
X606999Y331544D01*
X607029Y331579D01*
X607058Y331652D01*
X607095Y331720D01*
X607104Y331765D01*
X607121Y331808D01*
X607136Y331943D01*
X607139Y331962D01*
X607138Y331967D01*
X607139Y331974D01*
X607139Y422116D01*
X609447Y427688D01*
X613712Y431953D01*
X619284Y434261D01*
X625316Y434261D01*
X630888Y431953D01*
X635153Y427688D01*
X637461Y422116D01*
X637461Y331891D01*
X637468Y331846D01*
X637466Y331800D01*
X637488Y331725D01*
X637500Y331649D01*
X637522Y331608D01*
X637535Y331564D01*
X637579Y331500D01*
X637616Y331431D01*
X637649Y331400D01*
X637675Y331362D01*
X637738Y331315D01*
X637794Y331262D01*
X637836Y331243D01*
X637872Y331215D01*
X637946Y331191D01*
X638017Y331158D01*
X638063Y331153D01*
X638106Y331139D01*
X638184Y331140D01*
X638261Y331131D01*
X638306Y331141D01*
X638352Y331141D01*
X638484Y331179D01*
X638502Y331183D01*
X638506Y331186D01*
X638513Y331188D01*
X644488Y333663D01*
X651112Y333663D01*
X657233Y331127D01*
X659962Y328399D01*
X659978Y328387D01*
X659990Y328372D01*
X660078Y328315D01*
X660161Y328255D01*
X660180Y328249D01*
X660197Y328239D01*
X660298Y328213D01*
X660397Y328183D01*
X660416Y328183D01*
X660436Y328179D01*
X660539Y328187D01*
X660642Y328189D01*
X660661Y328196D01*
X660681Y328198D01*
X660776Y328238D01*
X660873Y328274D01*
X660889Y328286D01*
X660907Y328294D01*
X661038Y328399D01*
X663767Y331127D01*
X669888Y333663D01*
X676512Y333663D01*
X682633Y331127D01*
X685362Y328399D01*
X685378Y328387D01*
X685390Y328372D01*
X685478Y328315D01*
X685561Y328255D01*
X685580Y328249D01*
X685597Y328239D01*
X685698Y328213D01*
X685797Y328183D01*
X685816Y328183D01*
X685836Y328179D01*
X685939Y328187D01*
X686042Y328189D01*
X686061Y328196D01*
X686081Y328198D01*
X686176Y328238D01*
X686273Y328274D01*
X686289Y328286D01*
X686307Y328294D01*
X686438Y328399D01*
X689167Y331127D01*
X695288Y333663D01*
X701912Y333663D01*
X708033Y331127D01*
X710762Y328399D01*
X710778Y328387D01*
X710790Y328372D01*
X710878Y328315D01*
X710961Y328255D01*
X710980Y328249D01*
X710997Y328239D01*
X711098Y328213D01*
X711197Y328183D01*
X711216Y328183D01*
X711236Y328179D01*
X711339Y328187D01*
X711442Y328189D01*
X711461Y328196D01*
X711481Y328198D01*
X711576Y328238D01*
X711673Y328274D01*
X711689Y328286D01*
X711707Y328294D01*
X711838Y328399D01*
X714567Y331127D01*
X720688Y333663D01*
X727312Y333663D01*
X733433Y331127D01*
X736162Y328399D01*
X736178Y328387D01*
X736190Y328372D01*
X736278Y328315D01*
X736361Y328255D01*
X736380Y328249D01*
X736397Y328239D01*
X736498Y328213D01*
X736597Y328183D01*
X736616Y328183D01*
X736636Y328179D01*
X736739Y328187D01*
X736842Y328189D01*
X736861Y328196D01*
X736881Y328198D01*
X736976Y328238D01*
X737073Y328274D01*
X737089Y328286D01*
X737107Y328294D01*
X737238Y328399D01*
X739967Y331127D01*
X746088Y333663D01*
X752712Y333663D01*
X758833Y331127D01*
X761562Y328399D01*
X761578Y328387D01*
X761590Y328372D01*
X761678Y328315D01*
X761761Y328255D01*
X761780Y328249D01*
X761797Y328239D01*
X761898Y328213D01*
X761997Y328183D01*
X762016Y328183D01*
X762036Y328179D01*
X762139Y328187D01*
X762242Y328189D01*
X762261Y328196D01*
X762281Y328198D01*
X762376Y328238D01*
X762473Y328274D01*
X762489Y328286D01*
X762507Y328294D01*
X762638Y328399D01*
X765367Y331127D01*
X771488Y333663D01*
X778112Y333663D01*
X784233Y331127D01*
X786962Y328399D01*
X786978Y328387D01*
X786990Y328372D01*
X787078Y328315D01*
X787161Y328255D01*
X787180Y328249D01*
X787197Y328239D01*
X787298Y328213D01*
X787397Y328183D01*
X787416Y328183D01*
X787436Y328179D01*
X787539Y328187D01*
X787642Y328189D01*
X787661Y328196D01*
X787681Y328198D01*
X787776Y328238D01*
X787873Y328274D01*
X787889Y328286D01*
X787907Y328294D01*
X788038Y328399D01*
X790767Y331127D01*
X796888Y333663D01*
X803512Y333663D01*
X809633Y331127D01*
X812362Y328399D01*
X812378Y328387D01*
X812390Y328372D01*
X812478Y328315D01*
X812561Y328255D01*
X812580Y328249D01*
X812597Y328239D01*
X812698Y328213D01*
X812797Y328183D01*
X812816Y328183D01*
X812836Y328179D01*
X812939Y328187D01*
X813042Y328189D01*
X813061Y328196D01*
X813081Y328198D01*
X813176Y328238D01*
X813273Y328274D01*
X813289Y328286D01*
X813307Y328294D01*
X813438Y328399D01*
X816167Y331127D01*
X822288Y333663D01*
X828912Y333663D01*
X835033Y331127D01*
X837762Y328399D01*
X837778Y328387D01*
X837790Y328372D01*
X837878Y328315D01*
X837961Y328255D01*
X837980Y328249D01*
X837997Y328239D01*
X838098Y328213D01*
X838197Y328183D01*
X838216Y328183D01*
X838236Y328179D01*
X838339Y328187D01*
X838442Y328189D01*
X838461Y328196D01*
X838481Y328198D01*
X838576Y328238D01*
X838673Y328274D01*
X838689Y328286D01*
X838707Y328294D01*
X838838Y328399D01*
X841567Y331127D01*
X847688Y333663D01*
X854312Y333663D01*
X860433Y331127D01*
X863162Y328399D01*
X863178Y328387D01*
X863190Y328372D01*
X863278Y328315D01*
X863361Y328255D01*
X863380Y328249D01*
X863397Y328239D01*
X863498Y328213D01*
X863597Y328183D01*
X863616Y328183D01*
X863636Y328179D01*
X863739Y328187D01*
X863842Y328189D01*
X863861Y328196D01*
X863881Y328198D01*
X863976Y328238D01*
X864073Y328274D01*
X864089Y328286D01*
X864107Y328294D01*
X864238Y328399D01*
X866967Y331127D01*
X873088Y333663D01*
X879712Y333663D01*
X885833Y331127D01*
X888562Y328399D01*
X888578Y328387D01*
X888590Y328372D01*
X888678Y328315D01*
X888761Y328255D01*
X888780Y328249D01*
X888797Y328239D01*
X888898Y328213D01*
X888997Y328183D01*
X889016Y328183D01*
X889036Y328179D01*
X889139Y328187D01*
X889242Y328189D01*
X889261Y328196D01*
X889281Y328198D01*
X889376Y328238D01*
X889473Y328274D01*
X889489Y328286D01*
X889507Y328294D01*
X889638Y328399D01*
X892367Y331127D01*
X898488Y333663D01*
X905112Y333663D01*
X911233Y331127D01*
X915917Y326443D01*
X916510Y325012D01*
X916566Y324922D01*
X916617Y324831D01*
X916630Y324818D01*
X916640Y324803D01*
X916721Y324736D01*
X916799Y324665D01*
X916815Y324658D01*
X916829Y324646D01*
X916928Y324608D01*
X917024Y324566D01*
X917042Y324564D01*
X917059Y324558D01*
X917164Y324554D01*
X917269Y324544D01*
X917287Y324548D01*
X917305Y324548D01*
X917406Y324577D01*
X917508Y324601D01*
X917523Y324611D01*
X917541Y324616D01*
X917627Y324676D01*
X917684Y324711D01*
X917684Y324712D01*
X917685Y324712D01*
X917717Y324732D01*
X917732Y324748D01*
X917743Y324756D01*
X917762Y324782D01*
X917829Y324856D01*
X917900Y324953D01*
X919257Y326310D01*
X920810Y327438D01*
X922520Y328309D01*
X924345Y328903D01*
X925677Y329113D01*
X925677Y317772D01*
X925680Y317752D01*
X925678Y317733D01*
X925700Y317631D01*
X925717Y317529D01*
X925726Y317512D01*
X925730Y317492D01*
X925783Y317403D01*
X925832Y317312D01*
X925846Y317298D01*
X925856Y317281D01*
X925935Y317214D01*
X926010Y317143D01*
X926028Y317134D01*
X926043Y317121D01*
X926139Y317083D01*
X926233Y317039D01*
X926253Y317037D01*
X926271Y317029D01*
X926438Y317011D01*
X927962Y317011D01*
X927982Y317014D01*
X928001Y317012D01*
X928103Y317034D01*
X928205Y317051D01*
X928222Y317060D01*
X928242Y317064D01*
X928331Y317117D01*
X928422Y317166D01*
X928436Y317180D01*
X928453Y317190D01*
X928520Y317269D01*
X928591Y317344D01*
X928600Y317362D01*
X928613Y317377D01*
X928652Y317473D01*
X928695Y317567D01*
X928697Y317587D01*
X928705Y317605D01*
X928723Y317772D01*
X928723Y329113D01*
X930055Y328903D01*
X931880Y328309D01*
X933590Y327438D01*
X935143Y326310D01*
X936500Y324953D01*
X936571Y324856D01*
X936586Y324841D01*
X936594Y324827D01*
X936635Y324792D01*
X936646Y324782D01*
X936717Y324704D01*
X936732Y324696D01*
X936745Y324683D01*
X936840Y324637D01*
X936932Y324586D01*
X936950Y324583D01*
X936966Y324575D01*
X937070Y324561D01*
X937174Y324542D01*
X937192Y324545D01*
X937210Y324542D01*
X937313Y324563D01*
X937417Y324578D01*
X937434Y324586D01*
X937451Y324590D01*
X937543Y324642D01*
X937637Y324689D01*
X937649Y324702D01*
X937665Y324711D01*
X937735Y324790D01*
X937809Y324865D01*
X937820Y324885D01*
X937829Y324895D01*
X937841Y324924D01*
X937890Y325012D01*
X938483Y326443D01*
X943167Y331127D01*
X949288Y333663D01*
X955912Y333663D01*
X962033Y331127D01*
X966717Y326443D01*
X969253Y320322D01*
X969253Y313698D01*
X968214Y311191D01*
X968188Y311077D01*
X968159Y310964D01*
X968160Y310957D01*
X968158Y310951D01*
X968169Y310835D01*
X968178Y310718D01*
X968181Y310713D01*
X968181Y310706D01*
X968229Y310599D01*
X968275Y310492D01*
X968279Y310486D01*
X968281Y310482D01*
X968294Y310468D01*
X968379Y310361D01*
X983957Y294784D01*
X984031Y294731D01*
X984100Y294671D01*
X984130Y294659D01*
X984157Y294640D01*
X984244Y294613D01*
X984328Y294579D01*
X984369Y294575D01*
X984392Y294568D01*
X984424Y294569D01*
X984495Y294561D01*
X1006316Y294561D01*
X1011888Y292253D01*
X1016153Y287988D01*
X1018461Y282416D01*
X1018461Y276384D01*
X1016153Y270812D01*
X1011888Y266547D01*
X1006316Y264239D01*
X974884Y264239D01*
X969312Y266547D01*
X953038Y282821D01*
X953022Y282833D01*
X953010Y282848D01*
X952922Y282905D01*
X952839Y282965D01*
X952820Y282971D01*
X952803Y282981D01*
X952702Y283007D01*
X952603Y283037D01*
X952584Y283037D01*
X952564Y283041D01*
X952461Y283033D01*
X952358Y283031D01*
X952339Y283024D01*
X952319Y283022D01*
X952224Y282982D01*
X952127Y282946D01*
X952111Y282934D01*
X952093Y282926D01*
X951962Y282821D01*
X935688Y266547D01*
X930116Y264239D01*
X889339Y264239D01*
X889268Y264228D01*
X889197Y264226D01*
X889148Y264208D01*
X889096Y264200D01*
X889033Y264166D01*
X888966Y264141D01*
X888925Y264109D01*
X888879Y264084D01*
X888830Y264032D01*
X888774Y263988D01*
X888745Y263944D01*
X888710Y263906D01*
X888679Y263841D01*
X888641Y263781D01*
X888628Y263730D01*
X888606Y263683D01*
X888598Y263612D01*
X888581Y263542D01*
X888585Y263490D01*
X888579Y263439D01*
X888594Y263368D01*
X888600Y263297D01*
X888620Y263249D01*
X888631Y263198D01*
X888668Y263137D01*
X888696Y263071D01*
X888741Y263015D01*
X888757Y262987D01*
X888775Y262972D01*
X888801Y262940D01*
X889153Y262588D01*
X891461Y257016D01*
X891461Y250984D01*
X889153Y245412D01*
X876101Y232360D01*
X876059Y232302D01*
X876010Y232250D01*
X875988Y232203D01*
X875957Y232161D01*
X875936Y232092D01*
X875906Y232027D01*
X875900Y231975D01*
X875885Y231925D01*
X875887Y231854D01*
X875879Y231783D01*
X875890Y231732D01*
X875891Y231680D01*
X875916Y231612D01*
X875931Y231542D01*
X875958Y231497D01*
X875976Y231449D01*
X876021Y231393D01*
X876057Y231331D01*
X876097Y231297D01*
X876129Y231257D01*
X876190Y231218D01*
X876244Y231171D01*
X876293Y231152D01*
X876336Y231124D01*
X876406Y231106D01*
X876472Y231079D01*
X876544Y231071D01*
X876575Y231063D01*
X876598Y231065D01*
X876639Y231061D01*
X1022105Y231061D01*
X1022195Y231075D01*
X1022286Y231083D01*
X1022316Y231095D01*
X1022348Y231100D01*
X1022428Y231143D01*
X1022512Y231179D01*
X1022544Y231205D01*
X1022565Y231216D01*
X1022587Y231239D01*
X1022643Y231284D01*
X1026016Y234657D01*
X1026069Y234731D01*
X1026129Y234800D01*
X1026141Y234830D01*
X1026160Y234857D01*
X1026187Y234944D01*
X1026221Y235028D01*
X1026225Y235069D01*
X1026232Y235092D01*
X1026231Y235124D01*
X1026239Y235195D01*
X1026239Y336305D01*
X1026225Y336395D01*
X1026217Y336486D01*
X1026205Y336516D01*
X1026200Y336548D01*
X1026157Y336628D01*
X1026121Y336712D01*
X1026095Y336744D01*
X1026084Y336765D01*
X1026061Y336787D01*
X1026016Y336843D01*
X1003147Y359712D01*
X1000839Y365284D01*
X1000839Y422116D01*
X1003147Y427688D01*
X1070912Y495453D01*
X1076484Y497761D01*
X1358561Y497761D01*
X1358632Y497772D01*
X1358703Y497774D01*
X1358752Y497792D01*
X1358804Y497800D01*
X1358867Y497834D01*
X1358934Y497859D01*
X1358975Y497891D01*
X1359021Y497916D01*
X1359070Y497968D01*
X1359126Y498012D01*
X1359155Y498056D01*
X1359190Y498094D01*
X1359221Y498159D01*
X1359259Y498219D01*
X1359272Y498270D01*
X1359294Y498317D01*
X1359302Y498388D01*
X1359319Y498458D01*
X1359315Y498510D01*
X1359321Y498561D01*
X1359306Y498632D01*
X1359300Y498703D01*
X1359280Y498751D01*
X1359269Y498802D01*
X1359232Y498863D01*
X1359204Y498929D01*
X1359159Y498985D01*
X1359143Y499013D01*
X1359125Y499028D01*
X1359099Y499060D01*
X1358747Y499412D01*
X1356439Y504984D01*
X1356439Y511016D01*
X1358747Y516588D01*
X1375712Y533553D01*
X1381284Y535861D01*
X1417421Y535861D01*
X1417467Y535868D01*
X1417512Y535866D01*
X1417587Y535888D01*
X1417664Y535900D01*
X1417704Y535922D01*
X1417749Y535935D01*
X1417813Y535979D01*
X1417881Y536016D01*
X1417913Y536049D01*
X1417951Y536075D01*
X1417997Y536138D01*
X1418051Y536194D01*
X1418070Y536235D01*
X1418098Y536272D01*
X1418122Y536347D01*
X1418154Y536417D01*
X1418159Y536463D01*
X1418174Y536506D01*
X1418173Y536584D01*
X1418181Y536661D01*
X1418172Y536706D01*
X1418171Y536752D01*
X1418133Y536883D01*
X1418129Y536902D01*
X1418127Y536906D01*
X1418125Y536913D01*
X1418019Y537167D01*
X1418019Y555033D01*
X1419085Y557606D01*
X1419741Y558262D01*
X1419753Y558278D01*
X1419768Y558290D01*
X1419824Y558378D01*
X1419885Y558461D01*
X1419891Y558480D01*
X1419901Y558497D01*
X1419927Y558598D01*
X1419957Y558697D01*
X1419957Y558716D01*
X1419961Y558736D01*
X1419953Y558839D01*
X1419951Y558942D01*
X1419944Y558961D01*
X1419942Y558981D01*
X1419902Y559076D01*
X1419866Y559173D01*
X1419854Y559189D01*
X1419846Y559207D01*
X1419741Y559338D01*
X1419085Y559994D01*
X1418019Y562567D01*
X1418019Y580433D01*
X1419085Y583006D01*
X1419741Y583662D01*
X1419753Y583678D01*
X1419768Y583690D01*
X1419824Y583778D01*
X1419885Y583861D01*
X1419891Y583880D01*
X1419901Y583897D01*
X1419927Y583998D01*
X1419957Y584097D01*
X1419957Y584116D01*
X1419961Y584136D01*
X1419953Y584239D01*
X1419951Y584342D01*
X1419944Y584361D01*
X1419942Y584381D01*
X1419902Y584476D01*
X1419866Y584573D01*
X1419854Y584589D01*
X1419846Y584607D01*
X1419741Y584738D01*
X1419085Y585394D01*
X1418019Y587967D01*
X1418019Y605833D01*
X1419085Y608406D01*
X1421054Y610375D01*
X1423401Y611347D01*
X1423420Y611358D01*
X1423441Y611365D01*
X1423523Y611423D01*
X1423610Y611476D01*
X1423624Y611493D01*
X1423642Y611506D01*
X1423702Y611588D01*
X1423767Y611666D01*
X1423775Y611687D01*
X1423788Y611704D01*
X1423819Y611801D01*
X1423855Y611896D01*
X1423856Y611918D01*
X1423863Y611939D01*
X1423861Y612040D01*
X1423865Y612141D01*
X1423859Y612162D01*
X1423859Y612185D01*
X1423825Y612280D01*
X1423797Y612378D01*
X1423784Y612396D01*
X1423777Y612416D01*
X1423715Y612496D01*
X1423657Y612580D01*
X1423639Y612593D01*
X1423625Y612610D01*
X1423490Y612709D01*
X1423460Y612727D01*
X1422987Y613200D01*
X1422652Y613779D01*
X1422479Y614426D01*
X1422479Y620777D01*
X1431798Y620777D01*
X1431818Y620780D01*
X1431837Y620778D01*
X1431939Y620800D01*
X1432041Y620817D01*
X1432058Y620826D01*
X1432078Y620830D01*
X1432167Y620883D01*
X1432258Y620932D01*
X1432272Y620946D01*
X1432289Y620956D01*
X1432356Y621035D01*
X1432427Y621110D01*
X1432436Y621128D01*
X1432449Y621143D01*
X1432487Y621239D01*
X1432531Y621333D01*
X1432533Y621353D01*
X1432541Y621371D01*
X1432559Y621538D01*
X1432559Y622301D01*
X1432561Y622301D01*
X1432561Y621538D01*
X1432564Y621518D01*
X1432562Y621499D01*
X1432584Y621397D01*
X1432601Y621295D01*
X1432610Y621278D01*
X1432614Y621258D01*
X1432667Y621169D01*
X1432716Y621078D01*
X1432730Y621064D01*
X1432740Y621047D01*
X1432819Y620980D01*
X1432894Y620909D01*
X1432912Y620900D01*
X1432927Y620887D01*
X1433023Y620848D01*
X1433117Y620805D01*
X1433137Y620803D01*
X1433155Y620795D01*
X1433322Y620777D01*
X1442641Y620777D01*
X1442641Y614426D01*
X1442468Y613779D01*
X1442133Y613200D01*
X1441660Y612727D01*
X1441630Y612709D01*
X1441613Y612695D01*
X1441593Y612687D01*
X1441518Y612618D01*
X1441439Y612554D01*
X1441428Y612535D01*
X1441412Y612520D01*
X1441363Y612431D01*
X1441309Y612345D01*
X1441304Y612324D01*
X1441293Y612305D01*
X1441275Y612205D01*
X1441251Y612106D01*
X1441253Y612084D01*
X1441249Y612063D01*
X1441264Y611962D01*
X1441273Y611861D01*
X1441282Y611841D01*
X1441285Y611819D01*
X1441331Y611729D01*
X1441372Y611636D01*
X1441387Y611620D01*
X1441397Y611600D01*
X1441469Y611529D01*
X1441537Y611454D01*
X1441556Y611443D01*
X1441572Y611428D01*
X1441719Y611347D01*
X1444066Y610375D01*
X1446035Y608406D01*
X1447101Y605833D01*
X1447101Y587967D01*
X1446035Y585394D01*
X1445379Y584738D01*
X1445367Y584722D01*
X1445352Y584710D01*
X1445296Y584622D01*
X1445235Y584539D01*
X1445229Y584520D01*
X1445219Y584503D01*
X1445193Y584402D01*
X1445163Y584303D01*
X1445163Y584284D01*
X1445159Y584264D01*
X1445167Y584161D01*
X1445169Y584058D01*
X1445176Y584039D01*
X1445178Y584019D01*
X1445218Y583924D01*
X1445254Y583827D01*
X1445266Y583811D01*
X1445274Y583793D01*
X1445379Y583662D01*
X1446035Y583006D01*
X1447101Y580433D01*
X1447101Y562567D01*
X1446035Y559994D01*
X1445379Y559338D01*
X1445367Y559322D01*
X1445352Y559310D01*
X1445296Y559222D01*
X1445235Y559139D01*
X1445229Y559120D01*
X1445219Y559103D01*
X1445193Y559002D01*
X1445163Y558903D01*
X1445163Y558884D01*
X1445159Y558864D01*
X1445167Y558761D01*
X1445169Y558658D01*
X1445176Y558639D01*
X1445178Y558619D01*
X1445218Y558524D01*
X1445254Y558427D01*
X1445266Y558411D01*
X1445274Y558393D01*
X1445379Y558262D01*
X1446035Y557606D01*
X1447101Y555033D01*
X1447101Y537167D01*
X1446035Y534594D01*
X1445379Y533938D01*
X1445367Y533922D01*
X1445352Y533910D01*
X1445296Y533822D01*
X1445235Y533739D01*
X1445229Y533720D01*
X1445219Y533703D01*
X1445193Y533602D01*
X1445163Y533503D01*
X1445163Y533484D01*
X1445159Y533464D01*
X1445167Y533361D01*
X1445169Y533258D01*
X1445176Y533239D01*
X1445178Y533219D01*
X1445218Y533124D01*
X1445254Y533027D01*
X1445266Y533011D01*
X1445274Y532993D01*
X1445379Y532862D01*
X1446035Y532206D01*
X1447101Y529633D01*
X1447101Y525364D01*
X1447111Y525299D01*
X1447112Y525234D01*
X1447135Y525154D01*
X1447140Y525121D01*
X1447150Y525104D01*
X1447159Y525073D01*
X1447721Y523716D01*
X1447721Y517684D01*
X1447159Y516327D01*
X1447144Y516264D01*
X1447119Y516203D01*
X1447110Y516120D01*
X1447103Y516088D01*
X1447104Y516069D01*
X1447101Y516036D01*
X1447101Y511767D01*
X1446035Y509194D01*
X1445379Y508538D01*
X1445367Y508522D01*
X1445352Y508510D01*
X1445322Y508463D01*
X1445306Y508446D01*
X1445293Y508419D01*
X1445235Y508339D01*
X1445229Y508320D01*
X1445219Y508303D01*
X1445193Y508202D01*
X1445163Y508103D01*
X1445163Y508084D01*
X1445159Y508064D01*
X1445167Y507961D01*
X1445169Y507858D01*
X1445176Y507839D01*
X1445178Y507819D01*
X1445218Y507724D01*
X1445254Y507627D01*
X1445266Y507611D01*
X1445274Y507593D01*
X1445379Y507462D01*
X1446035Y506806D01*
X1447101Y504233D01*
X1447101Y499964D01*
X1447111Y499899D01*
X1447112Y499834D01*
X1447135Y499754D01*
X1447140Y499721D01*
X1447150Y499704D01*
X1447159Y499673D01*
X1447721Y498316D01*
X1447721Y492284D01*
X1447159Y490927D01*
X1447144Y490864D01*
X1447119Y490803D01*
X1447110Y490720D01*
X1447103Y490688D01*
X1447104Y490669D01*
X1447101Y490636D01*
X1447101Y486367D01*
X1446035Y483794D01*
X1445379Y483138D01*
X1445367Y483122D01*
X1445352Y483110D01*
X1445296Y483022D01*
X1445235Y482939D01*
X1445229Y482920D01*
X1445219Y482903D01*
X1445193Y482802D01*
X1445163Y482703D01*
X1445163Y482684D01*
X1445159Y482664D01*
X1445167Y482561D01*
X1445169Y482458D01*
X1445176Y482439D01*
X1445178Y482419D01*
X1445218Y482324D01*
X1445254Y482227D01*
X1445266Y482211D01*
X1445274Y482193D01*
X1445379Y482062D01*
X1446035Y481406D01*
X1447101Y478833D01*
X1447101Y474564D01*
X1447111Y474499D01*
X1447112Y474434D01*
X1447135Y474354D01*
X1447140Y474321D01*
X1447150Y474304D01*
X1447159Y474273D01*
X1447721Y472916D01*
X1447721Y466884D01*
X1447159Y465527D01*
X1447144Y465464D01*
X1447119Y465403D01*
X1447110Y465320D01*
X1447103Y465288D01*
X1447104Y465269D01*
X1447101Y465236D01*
X1447101Y460967D01*
X1446035Y458394D01*
X1444066Y456425D01*
X1441493Y455359D01*
X1437224Y455359D01*
X1437159Y455349D01*
X1437094Y455348D01*
X1437014Y455325D01*
X1436981Y455320D01*
X1436964Y455310D01*
X1436933Y455301D01*
X1435576Y454739D01*
X1419406Y454739D01*
X1419316Y454725D01*
X1419225Y454717D01*
X1419195Y454705D01*
X1419163Y454700D01*
X1419082Y454657D01*
X1418998Y454621D01*
X1418966Y454595D01*
X1418946Y454584D01*
X1418938Y454576D01*
X1418937Y454576D01*
X1418922Y454560D01*
X1418867Y454516D01*
X1413938Y449587D01*
X1408366Y447279D01*
X1104035Y447279D01*
X1103945Y447265D01*
X1103854Y447257D01*
X1103824Y447245D01*
X1103792Y447240D01*
X1103712Y447197D01*
X1103628Y447161D01*
X1103596Y447135D01*
X1103575Y447124D01*
X1103553Y447101D01*
X1103497Y447056D01*
X1056784Y400343D01*
X1056731Y400269D01*
X1056671Y400200D01*
X1056659Y400170D01*
X1056640Y400143D01*
X1056613Y400056D01*
X1056579Y399972D01*
X1056575Y399931D01*
X1056568Y399908D01*
X1056569Y399876D01*
X1056561Y399805D01*
X1056561Y387595D01*
X1056575Y387505D01*
X1056583Y387414D01*
X1056595Y387384D01*
X1056600Y387352D01*
X1056643Y387272D01*
X1056679Y387188D01*
X1056705Y387156D01*
X1056716Y387135D01*
X1056739Y387113D01*
X1056784Y387057D01*
X1079754Y364087D01*
X1079770Y364075D01*
X1079782Y364060D01*
X1079870Y364003D01*
X1079953Y363943D01*
X1079972Y363937D01*
X1079989Y363927D01*
X1080090Y363901D01*
X1080188Y363871D01*
X1080208Y363871D01*
X1080228Y363867D01*
X1080331Y363875D01*
X1080434Y363877D01*
X1080453Y363884D01*
X1080473Y363886D01*
X1080568Y363926D01*
X1080665Y363962D01*
X1080681Y363974D01*
X1080699Y363982D01*
X1080830Y364087D01*
X1084247Y367503D01*
X1089407Y369641D01*
X1094993Y369641D01*
X1100153Y367503D01*
X1104103Y363553D01*
X1104197Y363328D01*
X1104234Y363267D01*
X1104264Y363201D01*
X1104299Y363163D01*
X1104326Y363119D01*
X1104382Y363073D01*
X1104430Y363020D01*
X1104476Y362995D01*
X1104516Y362962D01*
X1104583Y362936D01*
X1104646Y362901D01*
X1104697Y362892D01*
X1104745Y362874D01*
X1104817Y362871D01*
X1104888Y362858D01*
X1104939Y362865D01*
X1104991Y362863D01*
X1105060Y362883D01*
X1105131Y362894D01*
X1105177Y362917D01*
X1105227Y362932D01*
X1105286Y362973D01*
X1105350Y363005D01*
X1105387Y363042D01*
X1105429Y363072D01*
X1105472Y363129D01*
X1105522Y363181D01*
X1105557Y363244D01*
X1105576Y363269D01*
X1105583Y363291D01*
X1105603Y363328D01*
X1105697Y363553D01*
X1109647Y367503D01*
X1114807Y369641D01*
X1120393Y369641D01*
X1125553Y367503D01*
X1129503Y363553D01*
X1131641Y358393D01*
X1131641Y352807D01*
X1129503Y347647D01*
X1125553Y343697D01*
X1120393Y341559D01*
X1114807Y341559D01*
X1109647Y343697D01*
X1105697Y347647D01*
X1105603Y347872D01*
X1105565Y347933D01*
X1105536Y347999D01*
X1105501Y348037D01*
X1105474Y348081D01*
X1105418Y348127D01*
X1105370Y348180D01*
X1105324Y348205D01*
X1105284Y348238D01*
X1105217Y348264D01*
X1105154Y348299D01*
X1105103Y348308D01*
X1105055Y348326D01*
X1104983Y348329D01*
X1104912Y348342D01*
X1104861Y348335D01*
X1104809Y348337D01*
X1104740Y348317D01*
X1104669Y348306D01*
X1104623Y348283D01*
X1104573Y348268D01*
X1104514Y348227D01*
X1104450Y348195D01*
X1104413Y348158D01*
X1104371Y348128D01*
X1104328Y348070D01*
X1104278Y348019D01*
X1104243Y347957D01*
X1104224Y347931D01*
X1104216Y347908D01*
X1104197Y347872D01*
X1104103Y347647D01*
X1100153Y343697D01*
X1094993Y341559D01*
X1089407Y341559D01*
X1084247Y343697D01*
X1083260Y344683D01*
X1083202Y344725D01*
X1083150Y344774D01*
X1083103Y344796D01*
X1083061Y344827D01*
X1082992Y344848D01*
X1082927Y344878D01*
X1082875Y344884D01*
X1082825Y344899D01*
X1082754Y344897D01*
X1082683Y344905D01*
X1082632Y344894D01*
X1082580Y344893D01*
X1082512Y344868D01*
X1082442Y344853D01*
X1082397Y344826D01*
X1082349Y344808D01*
X1082293Y344763D01*
X1082231Y344727D01*
X1082197Y344687D01*
X1082157Y344655D01*
X1082118Y344594D01*
X1082071Y344540D01*
X1082052Y344491D01*
X1082024Y344448D01*
X1082006Y344378D01*
X1081979Y344312D01*
X1081971Y344240D01*
X1081963Y344209D01*
X1081965Y344186D01*
X1081961Y344145D01*
X1081961Y212884D01*
X1079653Y207312D01*
X1055068Y182727D01*
X1049496Y180419D01*
X818765Y180419D01*
X818675Y180405D01*
X818584Y180397D01*
X818554Y180385D01*
X818522Y180380D01*
X818442Y180337D01*
X818358Y180301D01*
X818326Y180275D01*
X818305Y180264D01*
X818283Y180241D01*
X818227Y180196D01*
X725293Y87262D01*
X725251Y87204D01*
X725202Y87152D01*
X725180Y87105D01*
X725149Y87063D01*
X725128Y86994D01*
X725098Y86929D01*
X725092Y86877D01*
X725077Y86827D01*
X725079Y86756D01*
X725071Y86685D01*
X725082Y86634D01*
X725083Y86582D01*
X725108Y86514D01*
X725123Y86444D01*
X725150Y86400D01*
X725168Y86351D01*
X725213Y86295D01*
X725249Y86233D01*
X725289Y86199D01*
X725321Y86159D01*
X725382Y86120D01*
X725436Y86073D01*
X725485Y86054D01*
X725528Y86026D01*
X725598Y86008D01*
X725664Y85981D01*
X725736Y85973D01*
X725767Y85965D01*
X725790Y85967D01*
X725831Y85963D01*
X727312Y85963D01*
X733433Y83427D01*
X736162Y80699D01*
X736178Y80687D01*
X736190Y80672D01*
X736278Y80615D01*
X736361Y80555D01*
X736380Y80549D01*
X736397Y80539D01*
X736498Y80513D01*
X736597Y80483D01*
X736616Y80483D01*
X736636Y80479D01*
X736739Y80487D01*
X736842Y80489D01*
X736861Y80496D01*
X736881Y80498D01*
X736976Y80538D01*
X737073Y80574D01*
X737089Y80586D01*
X737107Y80594D01*
X737238Y80699D01*
X739967Y83427D01*
X746088Y85963D01*
X752712Y85963D01*
X758833Y83427D01*
X761562Y80699D01*
X761578Y80687D01*
X761590Y80672D01*
X761678Y80616D01*
X761761Y80555D01*
X761780Y80549D01*
X761797Y80539D01*
X761898Y80513D01*
X761997Y80483D01*
X762016Y80483D01*
X762036Y80479D01*
X762139Y80487D01*
X762242Y80489D01*
X762261Y80496D01*
X762281Y80498D01*
X762376Y80538D01*
X762473Y80574D01*
X762489Y80586D01*
X762507Y80594D01*
X762638Y80699D01*
X765367Y83427D01*
X771488Y85963D01*
X778112Y85963D01*
X784233Y83427D01*
X786962Y80699D01*
X786978Y80687D01*
X786990Y80672D01*
X787078Y80615D01*
X787161Y80555D01*
X787180Y80549D01*
X787197Y80539D01*
X787298Y80513D01*
X787397Y80483D01*
X787416Y80483D01*
X787436Y80479D01*
X787539Y80487D01*
X787642Y80489D01*
X787661Y80496D01*
X787681Y80498D01*
X787776Y80538D01*
X787873Y80574D01*
X787889Y80586D01*
X787907Y80594D01*
X788038Y80699D01*
X790767Y83427D01*
X796888Y85963D01*
X803512Y85963D01*
X809633Y83427D01*
X812362Y80699D01*
X812378Y80687D01*
X812390Y80672D01*
X812478Y80615D01*
X812561Y80555D01*
X812580Y80549D01*
X812597Y80539D01*
X812698Y80513D01*
X812797Y80483D01*
X812816Y80483D01*
X812836Y80479D01*
X812939Y80487D01*
X813042Y80489D01*
X813061Y80496D01*
X813081Y80498D01*
X813176Y80538D01*
X813273Y80574D01*
X813289Y80586D01*
X813307Y80594D01*
X813438Y80699D01*
X816167Y83427D01*
X822288Y85963D01*
X828912Y85963D01*
X835033Y83427D01*
X837762Y80699D01*
X837778Y80687D01*
X837790Y80672D01*
X837878Y80615D01*
X837961Y80555D01*
X837980Y80549D01*
X837997Y80539D01*
X838098Y80513D01*
X838197Y80483D01*
X838216Y80483D01*
X838236Y80479D01*
X838339Y80487D01*
X838442Y80489D01*
X838461Y80496D01*
X838481Y80498D01*
X838576Y80538D01*
X838673Y80574D01*
X838689Y80586D01*
X838707Y80594D01*
X838838Y80699D01*
X841567Y83427D01*
X847688Y85963D01*
X854312Y85963D01*
X860433Y83427D01*
X863162Y80699D01*
X863178Y80687D01*
X863190Y80672D01*
X863278Y80615D01*
X863361Y80555D01*
X863380Y80549D01*
X863397Y80539D01*
X863498Y80513D01*
X863597Y80483D01*
X863616Y80483D01*
X863636Y80479D01*
X863739Y80487D01*
X863842Y80489D01*
X863861Y80496D01*
X863881Y80498D01*
X863976Y80538D01*
X864073Y80574D01*
X864089Y80586D01*
X864107Y80594D01*
X864238Y80699D01*
X866967Y83427D01*
X873088Y85963D01*
X879712Y85963D01*
X885833Y83427D01*
X888562Y80699D01*
X888578Y80687D01*
X888590Y80672D01*
X888678Y80615D01*
X888761Y80555D01*
X888780Y80549D01*
X888797Y80539D01*
X888898Y80513D01*
X888997Y80483D01*
X889016Y80483D01*
X889036Y80479D01*
X889139Y80487D01*
X889242Y80489D01*
X889261Y80496D01*
X889281Y80498D01*
X889376Y80538D01*
X889473Y80574D01*
X889489Y80586D01*
X889507Y80594D01*
X889638Y80699D01*
X892367Y83427D01*
X898488Y85963D01*
X905112Y85963D01*
X911233Y83427D01*
X915917Y78743D01*
X916510Y77312D01*
X916566Y77223D01*
X916617Y77131D01*
X916630Y77119D01*
X916640Y77103D01*
X916721Y77036D01*
X916799Y76965D01*
X916815Y76958D01*
X916829Y76946D01*
X916928Y76908D01*
X917024Y76866D01*
X917042Y76865D01*
X917059Y76858D01*
X917164Y76854D01*
X917269Y76844D01*
X917286Y76848D01*
X917305Y76848D01*
X917406Y76877D01*
X917508Y76901D01*
X917523Y76911D01*
X917541Y76916D01*
X917627Y76976D01*
X917716Y77032D01*
X917731Y77048D01*
X917743Y77056D01*
X917762Y77082D01*
X917829Y77156D01*
X917900Y77253D01*
X919257Y78610D01*
X920810Y79738D01*
X922520Y80609D01*
X924345Y81203D01*
X925677Y81413D01*
X925677Y70072D01*
X925680Y70052D01*
X925678Y70033D01*
X925700Y69931D01*
X925717Y69829D01*
X925726Y69812D01*
X925730Y69792D01*
X925783Y69703D01*
X925832Y69612D01*
X925846Y69598D01*
X925856Y69581D01*
X925935Y69514D01*
X926010Y69443D01*
X926028Y69434D01*
X926043Y69421D01*
X926139Y69383D01*
X926233Y69339D01*
X926253Y69337D01*
X926271Y69329D01*
X926438Y69311D01*
X927962Y69311D01*
X927982Y69314D01*
X928001Y69312D01*
X928103Y69334D01*
X928205Y69351D01*
X928222Y69360D01*
X928242Y69364D01*
X928331Y69417D01*
X928422Y69466D01*
X928436Y69480D01*
X928453Y69490D01*
X928520Y69569D01*
X928591Y69644D01*
X928600Y69662D01*
X928613Y69677D01*
X928652Y69773D01*
X928695Y69867D01*
X928697Y69887D01*
X928705Y69905D01*
X928723Y70072D01*
X928723Y81413D01*
X930055Y81203D01*
X931880Y80609D01*
X933590Y79738D01*
X935143Y78610D01*
X936500Y77253D01*
X936571Y77156D01*
X936646Y77082D01*
X936717Y77005D01*
X936732Y76996D01*
X936745Y76983D01*
X936840Y76937D01*
X936932Y76886D01*
X936950Y76883D01*
X936966Y76875D01*
X937070Y76861D01*
X937174Y76842D01*
X937192Y76845D01*
X937210Y76843D01*
X937313Y76863D01*
X937417Y76878D01*
X937434Y76886D01*
X937452Y76890D01*
X937543Y76942D01*
X937637Y76990D01*
X937649Y77003D01*
X937665Y77012D01*
X937735Y77090D01*
X937809Y77165D01*
X937820Y77185D01*
X937829Y77195D01*
X937841Y77224D01*
X937890Y77312D01*
X938483Y78743D01*
X943167Y83427D01*
X949288Y85963D01*
X955912Y85963D01*
X962033Y83427D01*
X966717Y78743D01*
X969253Y72622D01*
X969253Y65998D01*
X966717Y59877D01*
X962033Y55193D01*
X955912Y52657D01*
X949288Y52657D01*
X943167Y55193D01*
X938483Y59877D01*
X937890Y61308D01*
X937834Y61397D01*
X937783Y61489D01*
X937770Y61501D01*
X937760Y61517D01*
X937679Y61584D01*
X937601Y61655D01*
X937585Y61662D01*
X937571Y61674D01*
X937472Y61712D01*
X937376Y61754D01*
X937358Y61755D01*
X937341Y61762D01*
X937236Y61766D01*
X937131Y61776D01*
X937114Y61772D01*
X937095Y61772D01*
X936994Y61743D01*
X936892Y61719D01*
X936877Y61709D01*
X936859Y61704D01*
X936773Y61644D01*
X936684Y61588D01*
X936669Y61572D01*
X936657Y61564D01*
X936638Y61538D01*
X936571Y61464D01*
X936500Y61367D01*
X935143Y60010D01*
X933590Y58882D01*
X931880Y58011D01*
X930055Y57417D01*
X928723Y57207D01*
X928723Y68548D01*
X928720Y68568D01*
X928722Y68587D01*
X928700Y68689D01*
X928683Y68791D01*
X928674Y68808D01*
X928670Y68828D01*
X928617Y68917D01*
X928568Y69008D01*
X928554Y69022D01*
X928544Y69039D01*
X928465Y69106D01*
X928390Y69177D01*
X928372Y69186D01*
X928357Y69199D01*
X928261Y69237D01*
X928167Y69281D01*
X928147Y69283D01*
X928129Y69291D01*
X927962Y69309D01*
X926438Y69309D01*
X926418Y69306D01*
X926399Y69308D01*
X926297Y69286D01*
X926195Y69269D01*
X926178Y69260D01*
X926158Y69256D01*
X926069Y69203D01*
X925978Y69154D01*
X925964Y69140D01*
X925947Y69130D01*
X925880Y69051D01*
X925809Y68976D01*
X925800Y68958D01*
X925787Y68943D01*
X925748Y68847D01*
X925705Y68753D01*
X925703Y68733D01*
X925695Y68715D01*
X925677Y68548D01*
X925677Y57207D01*
X924345Y57417D01*
X922520Y58011D01*
X920810Y58882D01*
X919257Y60010D01*
X917900Y61367D01*
X917829Y61464D01*
X917754Y61538D01*
X917683Y61615D01*
X917668Y61624D01*
X917655Y61637D01*
X917560Y61683D01*
X917468Y61734D01*
X917450Y61737D01*
X917434Y61745D01*
X917330Y61759D01*
X917226Y61778D01*
X917208Y61775D01*
X917190Y61777D01*
X917087Y61757D01*
X916983Y61742D01*
X916966Y61734D01*
X916948Y61730D01*
X916857Y61678D01*
X916763Y61630D01*
X916751Y61617D01*
X916735Y61608D01*
X916665Y61530D01*
X916591Y61455D01*
X916580Y61435D01*
X916571Y61425D01*
X916559Y61396D01*
X916510Y61308D01*
X915917Y59877D01*
X911233Y55193D01*
X905112Y52657D01*
X898488Y52657D01*
X892367Y55193D01*
X889638Y57921D01*
X889622Y57933D01*
X889610Y57948D01*
X889532Y57998D01*
X889520Y58009D01*
X889512Y58012D01*
X889439Y58065D01*
X889420Y58071D01*
X889403Y58081D01*
X889302Y58107D01*
X889203Y58137D01*
X889184Y58137D01*
X889164Y58141D01*
X889061Y58133D01*
X888958Y58131D01*
X888939Y58124D01*
X888919Y58122D01*
X888824Y58082D01*
X888727Y58046D01*
X888711Y58034D01*
X888693Y58026D01*
X888618Y57966D01*
X888615Y57965D01*
X888613Y57962D01*
X888562Y57921D01*
X885833Y55193D01*
X879712Y52657D01*
X873088Y52657D01*
X866967Y55193D01*
X864238Y57921D01*
X864222Y57933D01*
X864210Y57948D01*
X864132Y57998D01*
X864120Y58009D01*
X864112Y58012D01*
X864039Y58065D01*
X864020Y58071D01*
X864003Y58081D01*
X863902Y58107D01*
X863803Y58137D01*
X863784Y58137D01*
X863764Y58141D01*
X863661Y58133D01*
X863558Y58131D01*
X863539Y58124D01*
X863519Y58122D01*
X863424Y58082D01*
X863327Y58046D01*
X863311Y58034D01*
X863293Y58026D01*
X863218Y57966D01*
X863215Y57965D01*
X863213Y57962D01*
X863162Y57921D01*
X860433Y55193D01*
X854312Y52657D01*
X847688Y52657D01*
X841567Y55193D01*
X838838Y57921D01*
X838822Y57933D01*
X838810Y57948D01*
X838732Y57998D01*
X838720Y58009D01*
X838712Y58012D01*
X838639Y58065D01*
X838620Y58071D01*
X838603Y58081D01*
X838502Y58107D01*
X838403Y58137D01*
X838384Y58137D01*
X838364Y58141D01*
X838261Y58133D01*
X838158Y58131D01*
X838139Y58124D01*
X838119Y58122D01*
X838024Y58082D01*
X837927Y58046D01*
X837911Y58034D01*
X837893Y58026D01*
X837818Y57966D01*
X837815Y57965D01*
X837813Y57962D01*
X837762Y57921D01*
X835033Y55193D01*
X828912Y52657D01*
X822288Y52657D01*
X816167Y55193D01*
X813438Y57921D01*
X813422Y57933D01*
X813410Y57948D01*
X813332Y57998D01*
X813320Y58009D01*
X813312Y58012D01*
X813239Y58065D01*
X813220Y58071D01*
X813203Y58081D01*
X813102Y58107D01*
X813003Y58137D01*
X812984Y58137D01*
X812964Y58141D01*
X812861Y58133D01*
X812758Y58131D01*
X812739Y58124D01*
X812719Y58122D01*
X812624Y58082D01*
X812527Y58046D01*
X812511Y58034D01*
X812493Y58026D01*
X812418Y57966D01*
X812415Y57965D01*
X812413Y57962D01*
X812362Y57921D01*
X809633Y55193D01*
X803512Y52657D01*
X796888Y52657D01*
X790767Y55193D01*
X788038Y57921D01*
X788022Y57933D01*
X788010Y57948D01*
X787932Y57998D01*
X787920Y58009D01*
X787912Y58012D01*
X787839Y58065D01*
X787820Y58071D01*
X787803Y58081D01*
X787702Y58107D01*
X787603Y58137D01*
X787584Y58137D01*
X787564Y58141D01*
X787461Y58133D01*
X787358Y58131D01*
X787339Y58124D01*
X787319Y58122D01*
X787224Y58082D01*
X787127Y58046D01*
X787111Y58034D01*
X787093Y58026D01*
X787018Y57966D01*
X787015Y57965D01*
X787013Y57962D01*
X786962Y57921D01*
X784233Y55193D01*
X778112Y52657D01*
X771488Y52657D01*
X765367Y55193D01*
X762638Y57921D01*
X762622Y57933D01*
X762610Y57948D01*
X762533Y57998D01*
X762520Y58009D01*
X762511Y58012D01*
X762439Y58065D01*
X762420Y58071D01*
X762403Y58081D01*
X762302Y58107D01*
X762203Y58137D01*
X762184Y58137D01*
X762164Y58141D01*
X762061Y58133D01*
X761958Y58131D01*
X761939Y58124D01*
X761919Y58122D01*
X761824Y58082D01*
X761727Y58046D01*
X761711Y58034D01*
X761693Y58026D01*
X761618Y57966D01*
X761615Y57965D01*
X761613Y57962D01*
X761562Y57921D01*
X758833Y55193D01*
X752712Y52657D01*
X746088Y52657D01*
X739967Y55193D01*
X737238Y57921D01*
X737222Y57933D01*
X737210Y57948D01*
X737132Y57998D01*
X737120Y58009D01*
X737112Y58012D01*
X737039Y58065D01*
X737020Y58071D01*
X737003Y58081D01*
X736902Y58107D01*
X736803Y58137D01*
X736784Y58137D01*
X736764Y58141D01*
X736661Y58133D01*
X736558Y58131D01*
X736539Y58124D01*
X736519Y58122D01*
X736424Y58082D01*
X736327Y58046D01*
X736311Y58034D01*
X736293Y58026D01*
X736218Y57966D01*
X736215Y57965D01*
X736213Y57962D01*
X736162Y57921D01*
X733433Y55193D01*
X727312Y52657D01*
X720688Y52657D01*
X714567Y55193D01*
X711838Y57921D01*
X711822Y57933D01*
X711810Y57948D01*
X711732Y57998D01*
X711720Y58009D01*
X711712Y58012D01*
X711639Y58065D01*
X711620Y58071D01*
X711603Y58081D01*
X711502Y58107D01*
X711403Y58137D01*
X711384Y58137D01*
X711364Y58141D01*
X711261Y58133D01*
X711158Y58131D01*
X711139Y58124D01*
X711119Y58122D01*
X711024Y58082D01*
X710927Y58046D01*
X710911Y58034D01*
X710893Y58026D01*
X710818Y57966D01*
X710815Y57965D01*
X710813Y57962D01*
X710762Y57921D01*
X708033Y55193D01*
X701912Y52657D01*
X695288Y52657D01*
X689167Y55193D01*
X686438Y57921D01*
X686422Y57933D01*
X686410Y57948D01*
X686332Y57998D01*
X686320Y58009D01*
X686312Y58012D01*
X686239Y58065D01*
X686220Y58071D01*
X686203Y58081D01*
X686102Y58107D01*
X686003Y58137D01*
X685984Y58137D01*
X685964Y58141D01*
X685861Y58133D01*
X685758Y58131D01*
X685739Y58124D01*
X685719Y58122D01*
X685624Y58082D01*
X685527Y58046D01*
X685511Y58034D01*
X685493Y58026D01*
X685418Y57966D01*
X685415Y57965D01*
X685413Y57962D01*
X685362Y57921D01*
X682633Y55193D01*
X676512Y52657D01*
X669888Y52657D01*
X663767Y55193D01*
X661038Y57921D01*
X661022Y57933D01*
X661010Y57948D01*
X660932Y57998D01*
X660920Y58009D01*
X660912Y58012D01*
X660839Y58065D01*
X660820Y58071D01*
X660803Y58081D01*
X660702Y58107D01*
X660603Y58137D01*
X660584Y58137D01*
X660564Y58141D01*
X660461Y58133D01*
X660358Y58131D01*
X660339Y58124D01*
X660319Y58122D01*
X660224Y58082D01*
X660127Y58046D01*
X660111Y58034D01*
X660093Y58026D01*
X660018Y57966D01*
X660015Y57965D01*
X660013Y57962D01*
X659962Y57921D01*
X657233Y55193D01*
X651112Y52657D01*
X644488Y52657D01*
X638367Y55193D01*
X635638Y57921D01*
X635622Y57933D01*
X635610Y57948D01*
X635532Y57998D01*
X635520Y58009D01*
X635512Y58012D01*
X635439Y58065D01*
X635420Y58071D01*
X635403Y58081D01*
X635302Y58107D01*
X635203Y58137D01*
X635184Y58137D01*
X635164Y58141D01*
X635061Y58133D01*
X634958Y58131D01*
X634939Y58124D01*
X634919Y58122D01*
X634824Y58082D01*
X634727Y58046D01*
X634711Y58034D01*
X634693Y58026D01*
X634618Y57966D01*
X634615Y57965D01*
X634613Y57962D01*
X634562Y57921D01*
X631833Y55193D01*
X625712Y52657D01*
X619088Y52657D01*
X612967Y55193D01*
X610238Y57921D01*
X610222Y57933D01*
X610210Y57948D01*
X610132Y57998D01*
X610120Y58009D01*
X610112Y58012D01*
X610039Y58065D01*
X610020Y58071D01*
X610003Y58081D01*
X609902Y58107D01*
X609803Y58137D01*
X609784Y58137D01*
X609764Y58141D01*
X609661Y58133D01*
X609558Y58131D01*
X609539Y58124D01*
X609519Y58122D01*
X609424Y58082D01*
X609327Y58046D01*
X609311Y58034D01*
X609293Y58026D01*
X609218Y57966D01*
X609215Y57965D01*
X609213Y57962D01*
X609162Y57921D01*
X606433Y55193D01*
X600312Y52657D01*
X593688Y52657D01*
G37*
%LPD*%
%LPC*%
G36*
X250984Y429339D02*
X250984Y429339D01*
X245412Y431647D01*
X215992Y461067D01*
X213684Y466639D01*
X213684Y468030D01*
X213676Y468078D01*
X213678Y468127D01*
X213657Y468199D01*
X213645Y468273D01*
X213622Y468316D01*
X213608Y468363D01*
X213564Y468424D01*
X213529Y468490D01*
X213494Y468524D01*
X213466Y468564D01*
X213405Y468608D01*
X213351Y468660D01*
X213307Y468680D01*
X213267Y468709D01*
X213196Y468732D01*
X213128Y468763D01*
X213079Y468769D01*
X213033Y468783D01*
X212958Y468782D01*
X212884Y468790D01*
X212836Y468780D01*
X212787Y468779D01*
X212716Y468754D01*
X212643Y468738D01*
X212601Y468713D01*
X212555Y468696D01*
X212496Y468650D01*
X212432Y468612D01*
X212400Y468575D01*
X212362Y468544D01*
X212321Y468482D01*
X212272Y468425D01*
X212254Y468379D01*
X212227Y468339D01*
X212189Y468219D01*
X212180Y468197D01*
X212179Y468187D01*
X212176Y468179D01*
X212014Y467364D01*
X211295Y465628D01*
X210252Y464066D01*
X208924Y462738D01*
X207362Y461695D01*
X205626Y460976D01*
X204368Y460725D01*
X204368Y469383D01*
X204365Y469403D01*
X204367Y469422D01*
X204345Y469524D01*
X204328Y469626D01*
X204319Y469643D01*
X204315Y469663D01*
X204262Y469752D01*
X204213Y469843D01*
X204199Y469857D01*
X204189Y469874D01*
X204110Y469941D01*
X204035Y470012D01*
X204017Y470021D01*
X204002Y470034D01*
X203906Y470072D01*
X203812Y470116D01*
X203792Y470118D01*
X203774Y470126D01*
X203607Y470144D01*
X202844Y470144D01*
X202844Y470146D01*
X203607Y470146D01*
X203627Y470149D01*
X203646Y470147D01*
X203748Y470169D01*
X203850Y470186D01*
X203867Y470195D01*
X203887Y470199D01*
X203976Y470252D01*
X204067Y470301D01*
X204081Y470315D01*
X204098Y470325D01*
X204165Y470404D01*
X204236Y470479D01*
X204245Y470497D01*
X204258Y470512D01*
X204297Y470608D01*
X204340Y470702D01*
X204342Y470722D01*
X204350Y470740D01*
X204368Y470907D01*
X204368Y479565D01*
X205626Y479314D01*
X207362Y478595D01*
X208924Y477552D01*
X210252Y476224D01*
X211295Y474662D01*
X212014Y472926D01*
X212176Y472111D01*
X212194Y472065D01*
X212202Y472017D01*
X212236Y471951D01*
X212263Y471881D01*
X212294Y471843D01*
X212317Y471800D01*
X212371Y471748D01*
X212418Y471690D01*
X212459Y471664D01*
X212495Y471630D01*
X212563Y471599D01*
X212626Y471559D01*
X212674Y471547D01*
X212718Y471527D01*
X212792Y471519D01*
X212865Y471501D01*
X212914Y471505D01*
X212962Y471500D01*
X213036Y471516D01*
X213110Y471522D01*
X213155Y471541D01*
X213203Y471552D01*
X213267Y471590D01*
X213336Y471620D01*
X213372Y471653D01*
X213414Y471678D01*
X213463Y471735D01*
X213518Y471785D01*
X213542Y471828D01*
X213574Y471865D01*
X213602Y471934D01*
X213638Y472000D01*
X213647Y472048D01*
X213666Y472093D01*
X213680Y472218D01*
X213684Y472241D01*
X213683Y472251D01*
X213684Y472260D01*
X213684Y473161D01*
X215992Y478733D01*
X220257Y482998D01*
X225829Y485306D01*
X231861Y485306D01*
X237433Y482998D01*
X241698Y478733D01*
X241986Y478036D01*
X242021Y477980D01*
X242046Y477920D01*
X242093Y477863D01*
X242107Y477839D01*
X242111Y477835D01*
X242116Y477827D01*
X242131Y477815D01*
X242151Y477789D01*
X252650Y467291D01*
X252708Y467249D01*
X252760Y467200D01*
X252807Y467178D01*
X252849Y467147D01*
X252918Y467126D01*
X252983Y467096D01*
X253035Y467090D01*
X253085Y467075D01*
X253156Y467077D01*
X253227Y467069D01*
X253278Y467080D01*
X253330Y467081D01*
X253398Y467106D01*
X253468Y467121D01*
X253512Y467148D01*
X253561Y467166D01*
X253617Y467211D01*
X253679Y467247D01*
X253713Y467287D01*
X253753Y467319D01*
X253792Y467380D01*
X253839Y467434D01*
X253858Y467483D01*
X253886Y467526D01*
X253904Y467596D01*
X253931Y467662D01*
X253939Y467734D01*
X253947Y467765D01*
X253945Y467788D01*
X253949Y467829D01*
X253949Y470384D01*
X256080Y475528D01*
X260017Y479465D01*
X265161Y481596D01*
X270729Y481596D01*
X275873Y479465D01*
X279810Y475528D01*
X279942Y475210D01*
X279980Y475149D01*
X280009Y475084D01*
X280044Y475045D01*
X280071Y475001D01*
X280127Y474955D01*
X280175Y474902D01*
X280221Y474877D01*
X280261Y474844D01*
X280328Y474818D01*
X280391Y474784D01*
X280442Y474775D01*
X280490Y474756D01*
X280562Y474753D01*
X280633Y474740D01*
X280684Y474748D01*
X280736Y474746D01*
X280805Y474765D01*
X280876Y474776D01*
X280923Y474800D01*
X280972Y474814D01*
X281031Y474855D01*
X281095Y474887D01*
X281132Y474925D01*
X281174Y474954D01*
X281217Y475012D01*
X281267Y475063D01*
X281302Y475126D01*
X281321Y475152D01*
X281328Y475174D01*
X281348Y475210D01*
X281480Y475528D01*
X285417Y479465D01*
X290561Y481596D01*
X296129Y481596D01*
X301273Y479465D01*
X305210Y475528D01*
X305342Y475210D01*
X305380Y475149D01*
X305409Y475084D01*
X305444Y475045D01*
X305471Y475001D01*
X305527Y474955D01*
X305575Y474902D01*
X305621Y474877D01*
X305661Y474844D01*
X305728Y474818D01*
X305791Y474784D01*
X305842Y474775D01*
X305890Y474756D01*
X305962Y474753D01*
X306033Y474740D01*
X306084Y474748D01*
X306136Y474746D01*
X306205Y474765D01*
X306276Y474776D01*
X306323Y474800D01*
X306372Y474814D01*
X306431Y474855D01*
X306495Y474887D01*
X306532Y474925D01*
X306574Y474954D01*
X306617Y475012D01*
X306667Y475063D01*
X306702Y475126D01*
X306721Y475152D01*
X306728Y475174D01*
X306748Y475210D01*
X306880Y475528D01*
X310817Y479465D01*
X315961Y481596D01*
X321529Y481596D01*
X326673Y479465D01*
X330610Y475528D01*
X330742Y475210D01*
X330780Y475149D01*
X330809Y475084D01*
X330844Y475045D01*
X330871Y475001D01*
X330927Y474955D01*
X330975Y474902D01*
X331021Y474877D01*
X331061Y474844D01*
X331128Y474818D01*
X331191Y474784D01*
X331242Y474775D01*
X331290Y474756D01*
X331362Y474753D01*
X331433Y474740D01*
X331484Y474748D01*
X331536Y474746D01*
X331605Y474765D01*
X331676Y474776D01*
X331723Y474800D01*
X331772Y474814D01*
X331831Y474855D01*
X331895Y474887D01*
X331932Y474925D01*
X331974Y474954D01*
X332017Y475012D01*
X332067Y475063D01*
X332102Y475126D01*
X332121Y475152D01*
X332128Y475174D01*
X332148Y475210D01*
X332280Y475528D01*
X336217Y479465D01*
X341361Y481596D01*
X346929Y481596D01*
X352073Y479465D01*
X356010Y475528D01*
X358141Y470384D01*
X358141Y464816D01*
X356441Y460713D01*
X356431Y460669D01*
X356411Y460627D01*
X356403Y460550D01*
X356385Y460474D01*
X356389Y460428D01*
X356384Y460383D01*
X356401Y460306D01*
X356408Y460229D01*
X356427Y460187D01*
X356437Y460142D01*
X356477Y460075D01*
X356508Y460004D01*
X356539Y459970D01*
X356563Y459931D01*
X356622Y459880D01*
X356675Y459823D01*
X356715Y459801D01*
X356750Y459771D01*
X356822Y459742D01*
X356890Y459705D01*
X356935Y459696D01*
X356978Y459679D01*
X357114Y459664D01*
X357132Y459661D01*
X357137Y459662D01*
X357145Y459661D01*
X362161Y459661D01*
X362232Y459672D01*
X362303Y459674D01*
X362352Y459692D01*
X362404Y459700D01*
X362467Y459734D01*
X362534Y459759D01*
X362575Y459791D01*
X362621Y459816D01*
X362670Y459867D01*
X362726Y459912D01*
X362755Y459956D01*
X362790Y459994D01*
X362821Y460059D01*
X362859Y460119D01*
X362872Y460170D01*
X362894Y460217D01*
X362902Y460288D01*
X362919Y460358D01*
X362915Y460410D01*
X362921Y460461D01*
X362906Y460532D01*
X362900Y460603D01*
X362880Y460651D01*
X362869Y460702D01*
X362832Y460763D01*
X362804Y460829D01*
X362759Y460885D01*
X362743Y460913D01*
X362725Y460928D01*
X362699Y460960D01*
X362138Y461521D01*
X361095Y463083D01*
X360376Y464819D01*
X360125Y466077D01*
X368783Y466077D01*
X368803Y466080D01*
X368822Y466078D01*
X368924Y466100D01*
X369026Y466117D01*
X369043Y466126D01*
X369063Y466130D01*
X369152Y466183D01*
X369243Y466232D01*
X369257Y466246D01*
X369274Y466256D01*
X369341Y466335D01*
X369412Y466410D01*
X369421Y466428D01*
X369434Y466443D01*
X369472Y466539D01*
X369516Y466633D01*
X369518Y466653D01*
X369526Y466671D01*
X369544Y466838D01*
X369544Y467601D01*
X370307Y467601D01*
X370327Y467604D01*
X370346Y467602D01*
X370448Y467624D01*
X370550Y467641D01*
X370567Y467650D01*
X370587Y467654D01*
X370676Y467707D01*
X370767Y467756D01*
X370781Y467770D01*
X370798Y467780D01*
X370865Y467859D01*
X370936Y467934D01*
X370945Y467952D01*
X370958Y467967D01*
X370997Y468063D01*
X371040Y468157D01*
X371042Y468177D01*
X371050Y468195D01*
X371068Y468362D01*
X371068Y477020D01*
X372326Y476769D01*
X374062Y476050D01*
X375624Y475007D01*
X376952Y473679D01*
X377995Y472117D01*
X378497Y470905D01*
X378535Y470844D01*
X378564Y470778D01*
X378600Y470740D01*
X378627Y470696D01*
X378682Y470650D01*
X378731Y470597D01*
X378776Y470572D01*
X378817Y470539D01*
X378883Y470513D01*
X378946Y470479D01*
X378998Y470469D01*
X379046Y470451D01*
X379118Y470448D01*
X379188Y470435D01*
X379240Y470443D01*
X379292Y470440D01*
X379361Y470460D01*
X379432Y470471D01*
X379478Y470494D01*
X379528Y470509D01*
X379587Y470550D01*
X379651Y470582D01*
X379687Y470619D01*
X379730Y470649D01*
X379773Y470707D01*
X379823Y470758D01*
X379858Y470821D01*
X379877Y470847D01*
X379884Y470869D01*
X379904Y470905D01*
X382092Y476188D01*
X386357Y480453D01*
X391929Y482761D01*
X397961Y482761D01*
X403533Y480453D01*
X407798Y476188D01*
X410106Y470616D01*
X410106Y460774D01*
X407798Y455202D01*
X384243Y431647D01*
X378671Y429339D01*
X250984Y429339D01*
G37*
%LPD*%
%LPC*%
G36*
X1338793Y337804D02*
X1338793Y337804D01*
X1332719Y340320D01*
X1328070Y344969D01*
X1325554Y351043D01*
X1325554Y357617D01*
X1328070Y363691D01*
X1332719Y368340D01*
X1338793Y370856D01*
X1345367Y370856D01*
X1351441Y368340D01*
X1356090Y363691D01*
X1357488Y360315D01*
X1357526Y360254D01*
X1357555Y360189D01*
X1357590Y360150D01*
X1357618Y360106D01*
X1357673Y360060D01*
X1357722Y360007D01*
X1357767Y359982D01*
X1357807Y359949D01*
X1357874Y359923D01*
X1357937Y359889D01*
X1357988Y359880D01*
X1358037Y359861D01*
X1358108Y359858D01*
X1358179Y359845D01*
X1358231Y359853D01*
X1358283Y359851D01*
X1358352Y359870D01*
X1358422Y359881D01*
X1358469Y359905D01*
X1358519Y359919D01*
X1358578Y359960D01*
X1358642Y359992D01*
X1358678Y360030D01*
X1358721Y360059D01*
X1358764Y360117D01*
X1358814Y360168D01*
X1358849Y360231D01*
X1358868Y360257D01*
X1358875Y360279D01*
X1358895Y360315D01*
X1359753Y362387D01*
X1363843Y366477D01*
X1369188Y368691D01*
X1374972Y368691D01*
X1380317Y366477D01*
X1384407Y362387D01*
X1386377Y357631D01*
X1386414Y357570D01*
X1386444Y357505D01*
X1386479Y357467D01*
X1386506Y357422D01*
X1386561Y357377D01*
X1386610Y357324D01*
X1386656Y357299D01*
X1386696Y357266D01*
X1386763Y357240D01*
X1386826Y357205D01*
X1386877Y357196D01*
X1386925Y357177D01*
X1386997Y357174D01*
X1387068Y357162D01*
X1387119Y357169D01*
X1387171Y357167D01*
X1387240Y357187D01*
X1387311Y357197D01*
X1387357Y357221D01*
X1387407Y357236D01*
X1387466Y357276D01*
X1387530Y357309D01*
X1387567Y357346D01*
X1387609Y357376D01*
X1387652Y357433D01*
X1387702Y357484D01*
X1387737Y357547D01*
X1387756Y357573D01*
X1387763Y357595D01*
X1387783Y357631D01*
X1389753Y362387D01*
X1393843Y366477D01*
X1399188Y368691D01*
X1404972Y368691D01*
X1410317Y366477D01*
X1414407Y362387D01*
X1416377Y357631D01*
X1416414Y357570D01*
X1416444Y357505D01*
X1416479Y357467D01*
X1416506Y357422D01*
X1416561Y357377D01*
X1416610Y357324D01*
X1416656Y357299D01*
X1416696Y357266D01*
X1416763Y357240D01*
X1416826Y357205D01*
X1416877Y357196D01*
X1416925Y357177D01*
X1416997Y357174D01*
X1417068Y357162D01*
X1417119Y357169D01*
X1417171Y357167D01*
X1417240Y357187D01*
X1417311Y357197D01*
X1417357Y357221D01*
X1417407Y357236D01*
X1417466Y357276D01*
X1417530Y357309D01*
X1417567Y357346D01*
X1417609Y357376D01*
X1417652Y357433D01*
X1417702Y357484D01*
X1417737Y357547D01*
X1417756Y357573D01*
X1417763Y357595D01*
X1417783Y357631D01*
X1419753Y362387D01*
X1423843Y366477D01*
X1429188Y368691D01*
X1434972Y368691D01*
X1440317Y366477D01*
X1444407Y362387D01*
X1445265Y360315D01*
X1445303Y360254D01*
X1445332Y360189D01*
X1445367Y360150D01*
X1445395Y360106D01*
X1445450Y360060D01*
X1445499Y360007D01*
X1445544Y359982D01*
X1445584Y359949D01*
X1445651Y359923D01*
X1445714Y359889D01*
X1445765Y359880D01*
X1445814Y359861D01*
X1445885Y359858D01*
X1445956Y359845D01*
X1446008Y359853D01*
X1446060Y359851D01*
X1446128Y359870D01*
X1446199Y359881D01*
X1446246Y359905D01*
X1446296Y359919D01*
X1446355Y359960D01*
X1446419Y359992D01*
X1446455Y360030D01*
X1446498Y360059D01*
X1446541Y360117D01*
X1446591Y360168D01*
X1446625Y360231D01*
X1446645Y360257D01*
X1446652Y360279D01*
X1446672Y360315D01*
X1448070Y363691D01*
X1452719Y368340D01*
X1458793Y370856D01*
X1465367Y370856D01*
X1471441Y368340D01*
X1476090Y363691D01*
X1478606Y357617D01*
X1478606Y351043D01*
X1476090Y344969D01*
X1471441Y340320D01*
X1465367Y337804D01*
X1458793Y337804D01*
X1452719Y340320D01*
X1448070Y344969D01*
X1446746Y348165D01*
X1446708Y348226D01*
X1446679Y348291D01*
X1446644Y348330D01*
X1446617Y348374D01*
X1446561Y348420D01*
X1446513Y348473D01*
X1446467Y348498D01*
X1446427Y348531D01*
X1446360Y348557D01*
X1446297Y348591D01*
X1446246Y348600D01*
X1446198Y348619D01*
X1446126Y348622D01*
X1446055Y348635D01*
X1446004Y348627D01*
X1445952Y348629D01*
X1445883Y348610D01*
X1445812Y348599D01*
X1445766Y348575D01*
X1445716Y348561D01*
X1445657Y348520D01*
X1445593Y348488D01*
X1445556Y348450D01*
X1445514Y348421D01*
X1445471Y348363D01*
X1445421Y348312D01*
X1445386Y348249D01*
X1445367Y348223D01*
X1445360Y348201D01*
X1445340Y348165D01*
X1444407Y345913D01*
X1440317Y341823D01*
X1434972Y339609D01*
X1429188Y339609D01*
X1423843Y341823D01*
X1419753Y345913D01*
X1417783Y350669D01*
X1417745Y350730D01*
X1417716Y350795D01*
X1417681Y350833D01*
X1417654Y350878D01*
X1417598Y350923D01*
X1417550Y350976D01*
X1417504Y351001D01*
X1417464Y351034D01*
X1417397Y351060D01*
X1417334Y351095D01*
X1417283Y351104D01*
X1417235Y351123D01*
X1417163Y351126D01*
X1417092Y351138D01*
X1417041Y351131D01*
X1416989Y351133D01*
X1416920Y351113D01*
X1416849Y351103D01*
X1416803Y351079D01*
X1416753Y351064D01*
X1416694Y351024D01*
X1416630Y350991D01*
X1416593Y350954D01*
X1416551Y350924D01*
X1416508Y350867D01*
X1416458Y350816D01*
X1416423Y350753D01*
X1416404Y350727D01*
X1416397Y350705D01*
X1416377Y350669D01*
X1414407Y345913D01*
X1410317Y341823D01*
X1404972Y339609D01*
X1399188Y339609D01*
X1393843Y341823D01*
X1389753Y345913D01*
X1387783Y350669D01*
X1387745Y350730D01*
X1387716Y350795D01*
X1387681Y350833D01*
X1387654Y350878D01*
X1387598Y350923D01*
X1387550Y350976D01*
X1387504Y351001D01*
X1387464Y351034D01*
X1387397Y351060D01*
X1387334Y351095D01*
X1387283Y351104D01*
X1387235Y351123D01*
X1387163Y351126D01*
X1387092Y351138D01*
X1387041Y351131D01*
X1386989Y351133D01*
X1386920Y351113D01*
X1386849Y351103D01*
X1386803Y351079D01*
X1386753Y351064D01*
X1386694Y351024D01*
X1386630Y350991D01*
X1386593Y350954D01*
X1386551Y350924D01*
X1386508Y350867D01*
X1386458Y350816D01*
X1386423Y350753D01*
X1386404Y350727D01*
X1386397Y350705D01*
X1386377Y350669D01*
X1384407Y345913D01*
X1380317Y341823D01*
X1374972Y339609D01*
X1369188Y339609D01*
X1363843Y341823D01*
X1359753Y345913D01*
X1358820Y348165D01*
X1358782Y348226D01*
X1358753Y348291D01*
X1358718Y348330D01*
X1358691Y348374D01*
X1358635Y348420D01*
X1358587Y348473D01*
X1358541Y348498D01*
X1358501Y348531D01*
X1358434Y348557D01*
X1358371Y348591D01*
X1358320Y348600D01*
X1358272Y348619D01*
X1358200Y348622D01*
X1358129Y348635D01*
X1358078Y348627D01*
X1358026Y348629D01*
X1357957Y348610D01*
X1357886Y348599D01*
X1357840Y348575D01*
X1357790Y348561D01*
X1357731Y348520D01*
X1357667Y348488D01*
X1357630Y348450D01*
X1357588Y348421D01*
X1357545Y348363D01*
X1357495Y348312D01*
X1357460Y348249D01*
X1357441Y348223D01*
X1357434Y348201D01*
X1357414Y348165D01*
X1356090Y344969D01*
X1351441Y340320D01*
X1345367Y337804D01*
X1338793Y337804D01*
G37*
%LPD*%
%LPC*%
G36*
X44061Y456149D02*
X44061Y456149D01*
X38917Y458280D01*
X34980Y462217D01*
X32849Y467361D01*
X32849Y472929D01*
X34980Y478073D01*
X38917Y482010D01*
X44061Y484141D01*
X49629Y484141D01*
X54773Y482010D01*
X58710Y478073D01*
X59142Y477031D01*
X59179Y476970D01*
X59209Y476904D01*
X59244Y476866D01*
X59271Y476822D01*
X59326Y476776D01*
X59375Y476723D01*
X59421Y476698D01*
X59461Y476665D01*
X59528Y476639D01*
X59591Y476605D01*
X59642Y476595D01*
X59690Y476577D01*
X59762Y476574D01*
X59833Y476561D01*
X59884Y476568D01*
X59936Y476566D01*
X60005Y476586D01*
X60076Y476597D01*
X60122Y476620D01*
X60172Y476635D01*
X60231Y476676D01*
X60295Y476708D01*
X60332Y476745D01*
X60374Y476775D01*
X60417Y476833D01*
X60467Y476884D01*
X60502Y476947D01*
X60521Y476972D01*
X60528Y476995D01*
X60548Y477031D01*
X60980Y478073D01*
X64917Y482010D01*
X70061Y484141D01*
X75629Y484141D01*
X80773Y482010D01*
X84710Y478073D01*
X85142Y477031D01*
X85179Y476970D01*
X85209Y476904D01*
X85244Y476866D01*
X85271Y476822D01*
X85327Y476776D01*
X85375Y476723D01*
X85421Y476698D01*
X85461Y476665D01*
X85528Y476639D01*
X85591Y476605D01*
X85642Y476595D01*
X85690Y476577D01*
X85762Y476574D01*
X85833Y476561D01*
X85884Y476568D01*
X85936Y476566D01*
X86005Y476586D01*
X86076Y476597D01*
X86122Y476620D01*
X86172Y476635D01*
X86231Y476676D01*
X86295Y476708D01*
X86332Y476745D01*
X86374Y476775D01*
X86417Y476833D01*
X86467Y476884D01*
X86502Y476947D01*
X86521Y476972D01*
X86528Y476995D01*
X86548Y477031D01*
X86980Y478073D01*
X90917Y482010D01*
X96061Y484141D01*
X101629Y484141D01*
X106773Y482010D01*
X110710Y478073D01*
X111142Y477031D01*
X111179Y476970D01*
X111209Y476904D01*
X111244Y476866D01*
X111271Y476822D01*
X111327Y476776D01*
X111375Y476723D01*
X111421Y476698D01*
X111461Y476665D01*
X111528Y476639D01*
X111591Y476605D01*
X111642Y476595D01*
X111690Y476577D01*
X111762Y476574D01*
X111833Y476561D01*
X111884Y476568D01*
X111936Y476566D01*
X112005Y476586D01*
X112076Y476597D01*
X112122Y476620D01*
X112172Y476635D01*
X112231Y476676D01*
X112295Y476708D01*
X112332Y476745D01*
X112374Y476775D01*
X112417Y476833D01*
X112467Y476884D01*
X112502Y476947D01*
X112521Y476972D01*
X112528Y476995D01*
X112548Y477031D01*
X112980Y478073D01*
X116917Y482010D01*
X122061Y484141D01*
X127629Y484141D01*
X132773Y482010D01*
X136710Y478073D01*
X137142Y477031D01*
X137179Y476970D01*
X137209Y476904D01*
X137244Y476866D01*
X137271Y476822D01*
X137327Y476776D01*
X137375Y476723D01*
X137421Y476698D01*
X137461Y476665D01*
X137528Y476639D01*
X137591Y476605D01*
X137642Y476595D01*
X137690Y476577D01*
X137762Y476574D01*
X137833Y476561D01*
X137884Y476568D01*
X137936Y476566D01*
X138005Y476586D01*
X138076Y476597D01*
X138122Y476620D01*
X138172Y476635D01*
X138231Y476676D01*
X138295Y476708D01*
X138332Y476745D01*
X138374Y476775D01*
X138417Y476833D01*
X138467Y476884D01*
X138502Y476947D01*
X138521Y476972D01*
X138528Y476995D01*
X138548Y477031D01*
X138980Y478073D01*
X142917Y482010D01*
X148061Y484141D01*
X153629Y484141D01*
X158773Y482010D01*
X162710Y478073D01*
X163142Y477031D01*
X163179Y476970D01*
X163209Y476904D01*
X163244Y476866D01*
X163271Y476822D01*
X163327Y476776D01*
X163375Y476723D01*
X163421Y476698D01*
X163461Y476665D01*
X163528Y476639D01*
X163591Y476605D01*
X163642Y476595D01*
X163690Y476577D01*
X163762Y476574D01*
X163833Y476561D01*
X163884Y476568D01*
X163936Y476566D01*
X164005Y476586D01*
X164076Y476597D01*
X164122Y476620D01*
X164172Y476635D01*
X164231Y476676D01*
X164295Y476708D01*
X164332Y476745D01*
X164374Y476775D01*
X164417Y476833D01*
X164467Y476884D01*
X164502Y476947D01*
X164521Y476972D01*
X164528Y476995D01*
X164548Y477031D01*
X164980Y478073D01*
X168917Y482010D01*
X174061Y484141D01*
X179629Y484141D01*
X184773Y482010D01*
X188710Y478073D01*
X190841Y472929D01*
X190841Y467361D01*
X188710Y462217D01*
X184773Y458280D01*
X179629Y456149D01*
X174061Y456149D01*
X168917Y458280D01*
X164980Y462217D01*
X164548Y463259D01*
X164511Y463320D01*
X164481Y463386D01*
X164446Y463424D01*
X164419Y463468D01*
X164364Y463514D01*
X164315Y463567D01*
X164269Y463592D01*
X164229Y463625D01*
X164162Y463651D01*
X164099Y463685D01*
X164048Y463695D01*
X164000Y463713D01*
X163928Y463716D01*
X163857Y463729D01*
X163806Y463722D01*
X163754Y463724D01*
X163685Y463704D01*
X163614Y463693D01*
X163568Y463670D01*
X163518Y463655D01*
X163459Y463614D01*
X163395Y463582D01*
X163358Y463545D01*
X163316Y463515D01*
X163273Y463457D01*
X163223Y463406D01*
X163188Y463343D01*
X163169Y463318D01*
X163162Y463295D01*
X163142Y463259D01*
X162710Y462217D01*
X158773Y458280D01*
X153629Y456149D01*
X148061Y456149D01*
X142917Y458280D01*
X138980Y462217D01*
X138548Y463259D01*
X138511Y463320D01*
X138481Y463386D01*
X138446Y463424D01*
X138419Y463468D01*
X138364Y463514D01*
X138315Y463567D01*
X138269Y463592D01*
X138229Y463625D01*
X138162Y463651D01*
X138099Y463685D01*
X138048Y463695D01*
X138000Y463713D01*
X137928Y463716D01*
X137857Y463729D01*
X137806Y463722D01*
X137754Y463724D01*
X137685Y463704D01*
X137614Y463693D01*
X137568Y463670D01*
X137518Y463655D01*
X137459Y463614D01*
X137395Y463582D01*
X137358Y463545D01*
X137316Y463515D01*
X137273Y463457D01*
X137223Y463406D01*
X137188Y463343D01*
X137169Y463318D01*
X137162Y463295D01*
X137142Y463259D01*
X136710Y462217D01*
X132773Y458280D01*
X127629Y456149D01*
X122061Y456149D01*
X116917Y458280D01*
X112980Y462217D01*
X112548Y463259D01*
X112511Y463320D01*
X112481Y463386D01*
X112446Y463424D01*
X112419Y463468D01*
X112364Y463514D01*
X112315Y463567D01*
X112269Y463592D01*
X112229Y463625D01*
X112162Y463651D01*
X112099Y463685D01*
X112048Y463695D01*
X112000Y463713D01*
X111928Y463716D01*
X111857Y463729D01*
X111806Y463722D01*
X111754Y463724D01*
X111685Y463704D01*
X111614Y463693D01*
X111568Y463670D01*
X111518Y463655D01*
X111459Y463614D01*
X111395Y463582D01*
X111358Y463545D01*
X111316Y463515D01*
X111273Y463457D01*
X111223Y463406D01*
X111188Y463343D01*
X111169Y463318D01*
X111162Y463295D01*
X111142Y463259D01*
X110710Y462217D01*
X106773Y458280D01*
X101629Y456149D01*
X96061Y456149D01*
X90917Y458280D01*
X86980Y462217D01*
X86548Y463259D01*
X86511Y463320D01*
X86481Y463386D01*
X86446Y463424D01*
X86419Y463468D01*
X86364Y463514D01*
X86315Y463567D01*
X86269Y463592D01*
X86229Y463625D01*
X86162Y463651D01*
X86099Y463685D01*
X86048Y463695D01*
X86000Y463713D01*
X85928Y463716D01*
X85857Y463729D01*
X85806Y463722D01*
X85754Y463724D01*
X85685Y463704D01*
X85614Y463693D01*
X85568Y463670D01*
X85518Y463655D01*
X85459Y463614D01*
X85395Y463582D01*
X85358Y463545D01*
X85316Y463515D01*
X85273Y463457D01*
X85223Y463406D01*
X85188Y463343D01*
X85169Y463318D01*
X85162Y463295D01*
X85142Y463259D01*
X84710Y462217D01*
X80773Y458280D01*
X75629Y456149D01*
X70061Y456149D01*
X64917Y458280D01*
X60980Y462217D01*
X60548Y463259D01*
X60511Y463320D01*
X60481Y463386D01*
X60446Y463424D01*
X60419Y463468D01*
X60363Y463514D01*
X60315Y463567D01*
X60269Y463592D01*
X60229Y463625D01*
X60162Y463651D01*
X60099Y463685D01*
X60048Y463695D01*
X60000Y463713D01*
X59928Y463716D01*
X59857Y463729D01*
X59806Y463722D01*
X59754Y463724D01*
X59685Y463704D01*
X59614Y463693D01*
X59568Y463670D01*
X59518Y463655D01*
X59459Y463614D01*
X59395Y463582D01*
X59358Y463545D01*
X59316Y463515D01*
X59273Y463457D01*
X59223Y463406D01*
X59188Y463343D01*
X59169Y463318D01*
X59162Y463295D01*
X59142Y463259D01*
X58710Y462217D01*
X54773Y458280D01*
X49629Y456149D01*
X44061Y456149D01*
G37*
%LPD*%
%LPC*%
G36*
X1123697Y138899D02*
X1123697Y138899D01*
X1118537Y141037D01*
X1114587Y144987D01*
X1112449Y150147D01*
X1112449Y155733D01*
X1114587Y160893D01*
X1118537Y164843D01*
X1118762Y164937D01*
X1118823Y164974D01*
X1118889Y165004D01*
X1118927Y165039D01*
X1118971Y165066D01*
X1119017Y165122D01*
X1119070Y165170D01*
X1119095Y165216D01*
X1119128Y165256D01*
X1119154Y165323D01*
X1119189Y165386D01*
X1119198Y165437D01*
X1119216Y165485D01*
X1119219Y165557D01*
X1119232Y165628D01*
X1119225Y165679D01*
X1119227Y165731D01*
X1119207Y165800D01*
X1119196Y165871D01*
X1119173Y165917D01*
X1119158Y165967D01*
X1119117Y166026D01*
X1119085Y166090D01*
X1119048Y166127D01*
X1119018Y166169D01*
X1118961Y166212D01*
X1118909Y166262D01*
X1118846Y166297D01*
X1118821Y166316D01*
X1118799Y166323D01*
X1118762Y166343D01*
X1118537Y166437D01*
X1114587Y170387D01*
X1112449Y175547D01*
X1112449Y181133D01*
X1114587Y186293D01*
X1118537Y190243D01*
X1118762Y190337D01*
X1118823Y190375D01*
X1118889Y190404D01*
X1118927Y190439D01*
X1118971Y190466D01*
X1119017Y190522D01*
X1119070Y190570D01*
X1119095Y190616D01*
X1119128Y190656D01*
X1119154Y190723D01*
X1119189Y190786D01*
X1119198Y190837D01*
X1119216Y190885D01*
X1119219Y190957D01*
X1119232Y191028D01*
X1119225Y191079D01*
X1119227Y191131D01*
X1119207Y191200D01*
X1119196Y191271D01*
X1119173Y191317D01*
X1119158Y191367D01*
X1119117Y191426D01*
X1119085Y191490D01*
X1119048Y191527D01*
X1119018Y191569D01*
X1118960Y191612D01*
X1118909Y191662D01*
X1118847Y191697D01*
X1118821Y191716D01*
X1118798Y191724D01*
X1118762Y191743D01*
X1118537Y191837D01*
X1114587Y195787D01*
X1112449Y200947D01*
X1112449Y206533D01*
X1114587Y211693D01*
X1118537Y215643D01*
X1123697Y217781D01*
X1129283Y217781D01*
X1134443Y215643D01*
X1138393Y211693D01*
X1140531Y206533D01*
X1140531Y200947D01*
X1138393Y195787D01*
X1134443Y191837D01*
X1134218Y191743D01*
X1134157Y191706D01*
X1134091Y191676D01*
X1134053Y191641D01*
X1134009Y191614D01*
X1133963Y191558D01*
X1133910Y191510D01*
X1133885Y191464D01*
X1133852Y191424D01*
X1133826Y191357D01*
X1133791Y191294D01*
X1133782Y191243D01*
X1133764Y191195D01*
X1133761Y191123D01*
X1133748Y191052D01*
X1133755Y191001D01*
X1133753Y190949D01*
X1133773Y190880D01*
X1133784Y190809D01*
X1133807Y190763D01*
X1133822Y190713D01*
X1133863Y190654D01*
X1133895Y190590D01*
X1133932Y190553D01*
X1133962Y190511D01*
X1134019Y190468D01*
X1134071Y190418D01*
X1134134Y190383D01*
X1134159Y190364D01*
X1134181Y190357D01*
X1134218Y190337D01*
X1134443Y190243D01*
X1138393Y186293D01*
X1140531Y181133D01*
X1140531Y175547D01*
X1138393Y170387D01*
X1134443Y166437D01*
X1134218Y166343D01*
X1134157Y166305D01*
X1134091Y166276D01*
X1134053Y166241D01*
X1134009Y166214D01*
X1133963Y166158D01*
X1133910Y166110D01*
X1133885Y166064D01*
X1133852Y166024D01*
X1133826Y165957D01*
X1133791Y165894D01*
X1133782Y165843D01*
X1133764Y165795D01*
X1133761Y165723D01*
X1133748Y165652D01*
X1133755Y165601D01*
X1133753Y165549D01*
X1133773Y165480D01*
X1133784Y165409D01*
X1133807Y165363D01*
X1133822Y165313D01*
X1133863Y165254D01*
X1133895Y165190D01*
X1133932Y165153D01*
X1133962Y165111D01*
X1134020Y165068D01*
X1134071Y165018D01*
X1134133Y164983D01*
X1134159Y164964D01*
X1134182Y164956D01*
X1134218Y164937D01*
X1134443Y164843D01*
X1138393Y160893D01*
X1140531Y155733D01*
X1140531Y150147D01*
X1138393Y144987D01*
X1134443Y141037D01*
X1129283Y138899D01*
X1123697Y138899D01*
G37*
%LPD*%
%LPC*%
G36*
X1173227Y341559D02*
X1173227Y341559D01*
X1168067Y343697D01*
X1164117Y347647D01*
X1161979Y352807D01*
X1161979Y358393D01*
X1164117Y363553D01*
X1168067Y367503D01*
X1173227Y369641D01*
X1178813Y369641D01*
X1183973Y367503D01*
X1187923Y363553D01*
X1188017Y363328D01*
X1188054Y363267D01*
X1188084Y363201D01*
X1188119Y363163D01*
X1188146Y363119D01*
X1188202Y363073D01*
X1188250Y363020D01*
X1188296Y362995D01*
X1188336Y362962D01*
X1188403Y362936D01*
X1188466Y362901D01*
X1188517Y362892D01*
X1188565Y362874D01*
X1188637Y362871D01*
X1188708Y362858D01*
X1188759Y362865D01*
X1188811Y362863D01*
X1188880Y362883D01*
X1188951Y362894D01*
X1188997Y362917D01*
X1189047Y362932D01*
X1189106Y362973D01*
X1189170Y363005D01*
X1189207Y363042D01*
X1189249Y363072D01*
X1189292Y363129D01*
X1189342Y363181D01*
X1189377Y363244D01*
X1189396Y363269D01*
X1189403Y363291D01*
X1189423Y363328D01*
X1189517Y363553D01*
X1193467Y367503D01*
X1198627Y369641D01*
X1204213Y369641D01*
X1209373Y367503D01*
X1213323Y363553D01*
X1215461Y358393D01*
X1215461Y352807D01*
X1213323Y347647D01*
X1209373Y343697D01*
X1204213Y341559D01*
X1198627Y341559D01*
X1193467Y343697D01*
X1189517Y347647D01*
X1189423Y347872D01*
X1189385Y347933D01*
X1189356Y347999D01*
X1189321Y348037D01*
X1189294Y348081D01*
X1189238Y348127D01*
X1189190Y348180D01*
X1189144Y348205D01*
X1189104Y348238D01*
X1189037Y348264D01*
X1188974Y348299D01*
X1188923Y348308D01*
X1188875Y348326D01*
X1188803Y348329D01*
X1188732Y348342D01*
X1188681Y348335D01*
X1188629Y348337D01*
X1188560Y348317D01*
X1188489Y348306D01*
X1188443Y348283D01*
X1188393Y348268D01*
X1188334Y348227D01*
X1188270Y348195D01*
X1188233Y348158D01*
X1188191Y348128D01*
X1188148Y348070D01*
X1188098Y348019D01*
X1188063Y347957D01*
X1188044Y347931D01*
X1188036Y347908D01*
X1188017Y347872D01*
X1187923Y347647D01*
X1183973Y343697D01*
X1178813Y341559D01*
X1173227Y341559D01*
G37*
%LPD*%
%LPC*%
G36*
X1271017Y341559D02*
X1271017Y341559D01*
X1265857Y343697D01*
X1261907Y347647D01*
X1259769Y352807D01*
X1259769Y358393D01*
X1261907Y363553D01*
X1265857Y367503D01*
X1271017Y369641D01*
X1276603Y369641D01*
X1281763Y367503D01*
X1285713Y363553D01*
X1287851Y358393D01*
X1287851Y352807D01*
X1285713Y347647D01*
X1281763Y343697D01*
X1276603Y341559D01*
X1271017Y341559D01*
G37*
%LPD*%
%LPC*%
G36*
X442139Y437133D02*
X442139Y437133D01*
X442139Y447945D01*
X442479Y450089D01*
X443150Y452154D01*
X444135Y454088D01*
X445411Y455844D01*
X446946Y457379D01*
X448702Y458655D01*
X450636Y459640D01*
X452701Y460311D01*
X454407Y460581D01*
X454407Y437133D01*
X442139Y437133D01*
G37*
%LPD*%
%LPC*%
G36*
X416103Y250913D02*
X416103Y250913D01*
X416103Y261593D01*
X417458Y261378D01*
X419298Y260780D01*
X421022Y259902D01*
X422587Y258765D01*
X423955Y257397D01*
X425092Y255832D01*
X425970Y254108D01*
X426568Y252268D01*
X426783Y250913D01*
X416103Y250913D01*
G37*
%LPD*%
%LPC*%
G36*
X402377Y250913D02*
X402377Y250913D01*
X402592Y252268D01*
X403190Y254108D01*
X404068Y255832D01*
X405205Y257397D01*
X406573Y258765D01*
X408138Y259902D01*
X409862Y260780D01*
X411702Y261378D01*
X413057Y261593D01*
X413057Y250913D01*
X402377Y250913D01*
G37*
%LPD*%
%LPC*%
G36*
X1434083Y623823D02*
X1434083Y623823D01*
X1434083Y632381D01*
X1440434Y632381D01*
X1441081Y632208D01*
X1441660Y631873D01*
X1442133Y631400D01*
X1442468Y630821D01*
X1442641Y630174D01*
X1442641Y623823D01*
X1434083Y623823D01*
G37*
%LPD*%
%LPC*%
G36*
X1422479Y623823D02*
X1422479Y623823D01*
X1422479Y630174D01*
X1422652Y630821D01*
X1422987Y631400D01*
X1423460Y631873D01*
X1424039Y632208D01*
X1424686Y632381D01*
X1431037Y632381D01*
X1431037Y623823D01*
X1422479Y623823D01*
G37*
%LPD*%
%LPC*%
G36*
X1300733Y357123D02*
X1300733Y357123D01*
X1300733Y365059D01*
X1301453Y364945D01*
X1302888Y364479D01*
X1304231Y363794D01*
X1305452Y362908D01*
X1306518Y361842D01*
X1307404Y360621D01*
X1308089Y359278D01*
X1308555Y357843D01*
X1308669Y357123D01*
X1300733Y357123D01*
G37*
%LPD*%
%LPC*%
G36*
X1128013Y129063D02*
X1128013Y129063D01*
X1128013Y136999D01*
X1128733Y136885D01*
X1130168Y136419D01*
X1131511Y135734D01*
X1132732Y134848D01*
X1133798Y133782D01*
X1134684Y132561D01*
X1135369Y131218D01*
X1135835Y129783D01*
X1135949Y129063D01*
X1128013Y129063D01*
G37*
%LPD*%
%LPC*%
G36*
X1289751Y357123D02*
X1289751Y357123D01*
X1289865Y357843D01*
X1290331Y359278D01*
X1291016Y360621D01*
X1291902Y361842D01*
X1292968Y362908D01*
X1294189Y363794D01*
X1295532Y364479D01*
X1296967Y364945D01*
X1297687Y365059D01*
X1297687Y357123D01*
X1289751Y357123D01*
G37*
%LPD*%
%LPC*%
G36*
X1300733Y354077D02*
X1300733Y354077D01*
X1308669Y354077D01*
X1308555Y353357D01*
X1308089Y351922D01*
X1307404Y350579D01*
X1306518Y349358D01*
X1305452Y348292D01*
X1304231Y347406D01*
X1302888Y346721D01*
X1301453Y346255D01*
X1300733Y346141D01*
X1300733Y354077D01*
G37*
%LPD*%
%LPC*%
G36*
X1117031Y129063D02*
X1117031Y129063D01*
X1117145Y129783D01*
X1117611Y131218D01*
X1118296Y132561D01*
X1119182Y133782D01*
X1120248Y134848D01*
X1121469Y135734D01*
X1122812Y136419D01*
X1124247Y136885D01*
X1124967Y136999D01*
X1124967Y129063D01*
X1117031Y129063D01*
G37*
%LPD*%
%LPC*%
G36*
X1128013Y126017D02*
X1128013Y126017D01*
X1135949Y126017D01*
X1135835Y125297D01*
X1135369Y123862D01*
X1134684Y122519D01*
X1133798Y121298D01*
X1132732Y120232D01*
X1131511Y119346D01*
X1130168Y118661D01*
X1128733Y118195D01*
X1128013Y118081D01*
X1128013Y126017D01*
G37*
%LPD*%
%LPC*%
G36*
X1296967Y346255D02*
X1296967Y346255D01*
X1295532Y346721D01*
X1294189Y347406D01*
X1292968Y348292D01*
X1291902Y349358D01*
X1291016Y350579D01*
X1290331Y351922D01*
X1289865Y353357D01*
X1289751Y354077D01*
X1297687Y354077D01*
X1297687Y346141D01*
X1296967Y346255D01*
G37*
%LPD*%
%LPC*%
G36*
X1124247Y118195D02*
X1124247Y118195D01*
X1122812Y118661D01*
X1121469Y119346D01*
X1120248Y120232D01*
X1119182Y121298D01*
X1118296Y122519D01*
X1117611Y123862D01*
X1117145Y125297D01*
X1117031Y126017D01*
X1124967Y126017D01*
X1124967Y118081D01*
X1124247Y118195D01*
G37*
%LPD*%
%LPC*%
G36*
X193425Y471668D02*
X193425Y471668D01*
X193676Y472926D01*
X194395Y474662D01*
X195438Y476224D01*
X196766Y477552D01*
X198328Y478595D01*
X200064Y479314D01*
X201322Y479565D01*
X201322Y471668D01*
X193425Y471668D01*
G37*
%LPD*%
%LPC*%
G36*
X360125Y469123D02*
X360125Y469123D01*
X360376Y470381D01*
X361095Y472117D01*
X362138Y473679D01*
X363466Y475007D01*
X365028Y476050D01*
X366764Y476769D01*
X368022Y477020D01*
X368022Y469123D01*
X360125Y469123D01*
G37*
%LPD*%
%LPC*%
G36*
X200064Y460976D02*
X200064Y460976D01*
X198328Y461695D01*
X196766Y462738D01*
X195438Y464066D01*
X194395Y465628D01*
X193676Y467364D01*
X193425Y468622D01*
X201322Y468622D01*
X201322Y460725D01*
X200064Y460976D01*
G37*
%LPD*%
%LPC*%
G36*
X1299209Y355599D02*
X1299209Y355599D01*
X1299209Y355601D01*
X1299211Y355601D01*
X1299211Y355599D01*
X1299209Y355599D01*
G37*
%LPD*%
%LPC*%
G36*
X1126489Y127539D02*
X1126489Y127539D01*
X1126489Y127541D01*
X1126491Y127541D01*
X1126491Y127539D01*
X1126489Y127539D01*
G37*
%LPD*%
D10*
X952600Y317010D03*
X927200Y317010D03*
X901800Y317010D03*
X876400Y317010D03*
X851000Y317010D03*
X825600Y317010D03*
X800200Y317010D03*
X774800Y317010D03*
X749400Y317010D03*
X724000Y317010D03*
X698600Y317010D03*
X673200Y317010D03*
X647800Y317010D03*
X622400Y317010D03*
X597000Y317010D03*
X952600Y69310D03*
X927200Y69310D03*
X901800Y69310D03*
X876400Y69310D03*
X851000Y69310D03*
X825600Y69310D03*
X800200Y69310D03*
X774800Y69310D03*
X749400Y69310D03*
X724000Y69310D03*
X698600Y69310D03*
X673200Y69310D03*
X647800Y69310D03*
X622400Y69310D03*
X597000Y69310D03*
D11*
X1372080Y354150D03*
X1402080Y354150D03*
X1432080Y354150D03*
D12*
X1342080Y354330D03*
X1462080Y354330D03*
D13*
X1273810Y355600D03*
X1299210Y355600D03*
D14*
X1432560Y546100D03*
X1432560Y520700D03*
X1432560Y495300D03*
X1432560Y469900D03*
X1432560Y571500D03*
X1432560Y596900D03*
X1432560Y622300D03*
D13*
X1126490Y127540D03*
X1126490Y152940D03*
X1126490Y178340D03*
X1126490Y203740D03*
D15*
X414580Y249390D03*
X414580Y223190D03*
X414580Y196990D03*
X414580Y170790D03*
X414580Y144590D03*
X414580Y118390D03*
D13*
X1176020Y355600D03*
X1201420Y355600D03*
X1092200Y355600D03*
X1117600Y355600D03*
D16*
X394945Y467600D03*
X369545Y467600D03*
X344145Y467600D03*
X318745Y467600D03*
X293345Y467600D03*
X267945Y467600D03*
X228845Y470145D03*
X202845Y470145D03*
X176845Y470145D03*
X150845Y470145D03*
X124845Y470145D03*
X98845Y470145D03*
X72845Y470145D03*
X46845Y470145D03*
D17*
X455930Y446860D02*
X455930Y424360D01*
X488430Y424360D02*
X488430Y446860D01*
X520930Y446860D02*
X520930Y424360D01*
D18*
X1143000Y127000D03*
D19*
X1270000Y127000D01*
D18*
X1270000Y127000D03*
X1066800Y127000D03*
D19*
X1066800Y177800D01*
D18*
X1066800Y177800D03*
X419100Y304800D03*
D19*
X350520Y304800D01*
D18*
X350520Y304800D03*
X228600Y431800D03*
D19*
X228600Y368300D01*
D18*
X228600Y368300D03*
X1371600Y508000D03*
D19*
X1384300Y520700D02*
X1432560Y520700D01*
X1384300Y520700D02*
X1371600Y508000D01*
D18*
X622300Y419100D03*
D19*
X622300Y317110D01*
X622400Y317010D01*
D18*
X1003300Y279400D03*
D19*
X977900Y279400D01*
X927100Y279400D02*
X558800Y279400D01*
X508000Y279400D01*
X495300Y266700D01*
X520930Y317270D02*
X558800Y279400D01*
X952500Y316910D02*
X952600Y317010D01*
X952500Y316910D02*
X952500Y304800D01*
X927100Y279400D01*
X952500Y304800D02*
X977900Y279400D01*
X520930Y317270D02*
X520930Y435610D01*
X479730Y223190D02*
X414580Y223190D01*
X495300Y238760D02*
X495300Y266700D01*
X495300Y238760D02*
X479730Y223190D01*
X228845Y469655D02*
X228845Y470145D01*
X228845Y469655D02*
X254000Y444500D01*
X375655Y444500D01*
X394945Y463790D02*
X394945Y467600D01*
X394945Y463790D02*
X375655Y444500D01*
X762000Y237210D02*
X859510Y237210D01*
D18*
X774700Y254000D03*
D19*
X774700Y249910D01*
X762000Y237210D01*
X651790Y118390D02*
X414580Y118390D01*
X673100Y139700D02*
X673100Y215900D01*
X694410Y237210D01*
X762000Y237210D01*
X673100Y139700D02*
X651790Y118390D01*
X859510Y237210D02*
X876300Y254000D01*
D18*
X876300Y254000D03*
X301689Y352489D03*
D19*
X438150Y400050D02*
X469900Y400050D01*
X419100Y381000D02*
X330200Y381000D01*
X419100Y381000D02*
X438150Y400050D01*
X469900Y400050D02*
X488430Y418580D01*
X488430Y435610D01*
X330200Y381000D02*
X301689Y352489D01*
X698600Y82010D02*
X812170Y195580D01*
X698600Y82010D02*
X698600Y69310D01*
X1046480Y195580D02*
X1066800Y215900D01*
X1066800Y355600D01*
X1041400Y381000D01*
X1041400Y406400D01*
X1046480Y195580D02*
X812170Y195580D01*
X1041400Y406400D02*
X1097440Y462440D01*
X1412811Y469900D02*
X1432560Y469900D01*
X1405351Y462440D02*
X1097440Y462440D01*
X1405351Y462440D02*
X1412811Y469900D01*
X1028700Y215900D02*
X791998Y215900D01*
X1028700Y215900D02*
X1041400Y228600D01*
X1041400Y342900D01*
X1016000Y368300D01*
X1016000Y419100D01*
X1079500Y482600D01*
X1397000Y482600D01*
X1409700Y495300D01*
X1432560Y495300D01*
X673200Y97102D02*
X673200Y69310D01*
X673200Y97102D02*
X791998Y215900D01*
M02*
