G04 EAGLE Gerber RS-274X export*
G75*
%MOMM*%
%FSLAX34Y34*%
%LPD*%
%INBottom Copper*%
%IPPOS*%
%AMOC8*
5,1,8,0,0,1.08239X$1,22.5*%
G01*
%ADD10C,1.930400*%
%ADD11C,1.508000*%
%ADD12C,1.905000*%
%ADD13C,1.408000*%
%ADD14R,1.508000X1.508000*%
%ADD15C,1.950000*%
%ADD16C,1.399000*%
%ADD17C,2.250000*%
%ADD18C,1.500000*%
%ADD19C,1.000000*%

G36*
X978489Y10177D02*
X978489Y10177D01*
X978740Y10186D01*
X978805Y10197D01*
X978870Y10201D01*
X979116Y10248D01*
X979364Y10289D01*
X979426Y10307D01*
X979491Y10320D01*
X979730Y10398D01*
X979969Y10470D01*
X980029Y10496D01*
X980092Y10517D01*
X980319Y10624D01*
X980547Y10725D01*
X980603Y10759D01*
X980663Y10787D01*
X980874Y10922D01*
X981088Y11052D01*
X981140Y11093D01*
X981195Y11128D01*
X981388Y11289D01*
X981584Y11444D01*
X981630Y11491D01*
X981680Y11533D01*
X981851Y11717D01*
X982026Y11896D01*
X982066Y11948D01*
X982111Y11997D01*
X982256Y12200D01*
X982408Y12400D01*
X982441Y12457D01*
X982479Y12510D01*
X982598Y12730D01*
X982723Y12948D01*
X982748Y13009D01*
X982779Y13066D01*
X982869Y13300D01*
X982966Y13531D01*
X982983Y13595D01*
X983007Y13656D01*
X983067Y13899D01*
X983134Y14141D01*
X983143Y14206D01*
X983159Y14270D01*
X983188Y14518D01*
X983223Y14766D01*
X983224Y14832D01*
X983232Y14897D01*
X983229Y15147D01*
X983233Y15398D01*
X983226Y15464D01*
X983225Y15530D01*
X983191Y15777D01*
X983163Y16027D01*
X983148Y16091D01*
X983139Y16156D01*
X983073Y16397D01*
X983014Y16641D01*
X982991Y16703D01*
X982974Y16766D01*
X982879Y16998D01*
X982789Y17232D01*
X982758Y17290D01*
X982733Y17350D01*
X982609Y17569D01*
X982492Y17789D01*
X982454Y17843D01*
X982421Y17900D01*
X982271Y18101D01*
X982126Y18305D01*
X982077Y18359D01*
X982042Y18406D01*
X981944Y18506D01*
X981775Y18695D01*
X947472Y52997D01*
X947407Y53054D01*
X947348Y53117D01*
X947170Y53263D01*
X946998Y53415D01*
X946926Y53464D01*
X946859Y53519D01*
X946665Y53641D01*
X946475Y53770D01*
X946397Y53809D01*
X946324Y53855D01*
X946024Y53998D01*
X945911Y54056D01*
X945883Y54065D01*
X945850Y54081D01*
X943167Y55192D01*
X940011Y58349D01*
X939888Y58457D01*
X939773Y58572D01*
X939651Y58665D01*
X939536Y58767D01*
X939401Y58858D01*
X939272Y58958D01*
X939140Y59035D01*
X939013Y59121D01*
X938868Y59195D01*
X938727Y59277D01*
X938586Y59338D01*
X938449Y59407D01*
X938295Y59462D01*
X938146Y59526D01*
X937999Y59568D01*
X937854Y59619D01*
X937695Y59654D01*
X937538Y59699D01*
X937386Y59722D01*
X937237Y59755D01*
X937074Y59769D01*
X936913Y59794D01*
X936760Y59798D01*
X936607Y59811D01*
X936444Y59805D01*
X936281Y59809D01*
X936128Y59794D01*
X935975Y59788D01*
X935814Y59761D01*
X935652Y59745D01*
X935503Y59710D01*
X935352Y59685D01*
X935196Y59638D01*
X935037Y59601D01*
X934893Y59548D01*
X934746Y59504D01*
X934597Y59438D01*
X934444Y59382D01*
X934281Y59298D01*
X934168Y59249D01*
X934088Y59200D01*
X933976Y59143D01*
X932604Y58351D01*
X932199Y58183D01*
X932199Y69310D01*
X932188Y69494D01*
X932186Y69679D01*
X932168Y69809D01*
X932159Y69940D01*
X932125Y70122D01*
X932099Y70305D01*
X932065Y70432D01*
X932040Y70561D01*
X931983Y70737D01*
X931934Y70916D01*
X931885Y71037D01*
X931844Y71162D01*
X931764Y71329D01*
X931694Y71500D01*
X931629Y71614D01*
X931573Y71733D01*
X931473Y71889D01*
X931382Y72050D01*
X931303Y72155D01*
X931232Y72265D01*
X931113Y72408D01*
X931002Y72555D01*
X930911Y72650D01*
X930827Y72751D01*
X930691Y72876D01*
X930563Y73009D01*
X930460Y73091D01*
X930364Y73181D01*
X930213Y73288D01*
X930069Y73404D01*
X929956Y73473D01*
X929850Y73549D01*
X929687Y73637D01*
X929529Y73733D01*
X929409Y73787D01*
X929294Y73849D01*
X929121Y73916D01*
X928952Y73992D01*
X928827Y74030D01*
X928704Y74077D01*
X928525Y74122D01*
X928348Y74175D01*
X928218Y74197D01*
X928091Y74229D01*
X927907Y74250D01*
X927724Y74281D01*
X927571Y74289D01*
X927463Y74302D01*
X927462Y74302D01*
X927354Y74301D01*
X927200Y74309D01*
X927015Y74297D01*
X926830Y74295D01*
X926700Y74277D01*
X926569Y74269D01*
X926387Y74234D01*
X926204Y74209D01*
X926077Y74175D01*
X925948Y74150D01*
X925772Y74092D01*
X925594Y74044D01*
X925473Y73994D01*
X925348Y73953D01*
X925180Y73874D01*
X925009Y73803D01*
X924895Y73739D01*
X924776Y73682D01*
X924620Y73582D01*
X924460Y73491D01*
X924355Y73412D01*
X924244Y73342D01*
X924102Y73223D01*
X923954Y73112D01*
X923860Y73021D01*
X923759Y72936D01*
X923633Y72801D01*
X923500Y72672D01*
X923418Y72569D01*
X923329Y72473D01*
X923221Y72323D01*
X923106Y72178D01*
X923037Y72066D01*
X922961Y71959D01*
X922873Y71797D01*
X922776Y71639D01*
X922722Y71519D01*
X922660Y71403D01*
X922593Y71231D01*
X922518Y71062D01*
X922480Y70936D01*
X922432Y70814D01*
X922388Y70634D01*
X922334Y70457D01*
X922312Y70327D01*
X922281Y70200D01*
X922259Y70017D01*
X922228Y69834D01*
X922220Y69680D01*
X922207Y69572D01*
X922209Y69463D01*
X922201Y69310D01*
X922201Y58183D01*
X921796Y58351D01*
X920424Y59143D01*
X920278Y59216D01*
X920136Y59297D01*
X919995Y59356D01*
X919858Y59424D01*
X919703Y59478D01*
X919553Y59540D01*
X919405Y59581D01*
X919260Y59631D01*
X919101Y59665D01*
X918944Y59708D01*
X918792Y59730D01*
X918642Y59761D01*
X918480Y59774D01*
X918318Y59798D01*
X918164Y59800D01*
X918012Y59812D01*
X917849Y59805D01*
X917686Y59807D01*
X917534Y59790D01*
X917380Y59783D01*
X917220Y59755D01*
X917058Y59737D01*
X916908Y59701D01*
X916758Y59675D01*
X916602Y59627D01*
X916443Y59589D01*
X916300Y59534D01*
X916154Y59489D01*
X916005Y59422D01*
X915853Y59364D01*
X915717Y59291D01*
X915578Y59228D01*
X915439Y59143D01*
X915295Y59066D01*
X915170Y58977D01*
X915040Y58897D01*
X914913Y58794D01*
X914779Y58700D01*
X914643Y58577D01*
X914547Y58500D01*
X914483Y58433D01*
X914389Y58349D01*
X911233Y55192D01*
X905112Y52657D01*
X898488Y52657D01*
X892313Y55215D01*
X892259Y55255D01*
X892161Y55342D01*
X892008Y55446D01*
X891860Y55558D01*
X891746Y55623D01*
X891638Y55697D01*
X891473Y55780D01*
X891312Y55873D01*
X891191Y55923D01*
X891074Y55983D01*
X890900Y56045D01*
X890729Y56116D01*
X890602Y56151D01*
X890478Y56195D01*
X890298Y56235D01*
X890119Y56284D01*
X889989Y56302D01*
X889861Y56330D01*
X889677Y56347D01*
X889494Y56373D01*
X889362Y56375D01*
X889232Y56387D01*
X889047Y56380D01*
X888862Y56383D01*
X888731Y56368D01*
X888600Y56364D01*
X888418Y56334D01*
X888233Y56313D01*
X888106Y56282D01*
X887976Y56261D01*
X887799Y56208D01*
X887619Y56164D01*
X887496Y56118D01*
X887370Y56080D01*
X887201Y56005D01*
X887028Y55939D01*
X886913Y55877D01*
X886792Y55824D01*
X886634Y55729D01*
X886471Y55641D01*
X886364Y55566D01*
X886251Y55498D01*
X886106Y55383D01*
X885955Y55276D01*
X885888Y55215D01*
X879712Y52657D01*
X873088Y52657D01*
X866913Y55215D01*
X866859Y55255D01*
X866761Y55342D01*
X866608Y55446D01*
X866460Y55558D01*
X866346Y55623D01*
X866238Y55697D01*
X866073Y55780D01*
X865912Y55873D01*
X865791Y55923D01*
X865674Y55983D01*
X865500Y56045D01*
X865329Y56116D01*
X865202Y56151D01*
X865078Y56195D01*
X864898Y56235D01*
X864719Y56284D01*
X864589Y56302D01*
X864461Y56330D01*
X864277Y56347D01*
X864094Y56373D01*
X863962Y56375D01*
X863832Y56387D01*
X863647Y56380D01*
X863462Y56383D01*
X863331Y56368D01*
X863200Y56364D01*
X863018Y56334D01*
X862833Y56313D01*
X862706Y56282D01*
X862576Y56261D01*
X862399Y56208D01*
X862219Y56164D01*
X862096Y56118D01*
X861970Y56080D01*
X861801Y56005D01*
X861628Y55939D01*
X861513Y55877D01*
X861392Y55824D01*
X861234Y55729D01*
X861071Y55641D01*
X860964Y55566D01*
X860851Y55498D01*
X860706Y55383D01*
X860555Y55276D01*
X860488Y55215D01*
X854312Y52657D01*
X847688Y52657D01*
X841513Y55215D01*
X841459Y55255D01*
X841361Y55342D01*
X841208Y55446D01*
X841060Y55558D01*
X840946Y55623D01*
X840838Y55697D01*
X840673Y55780D01*
X840512Y55873D01*
X840391Y55923D01*
X840274Y55983D01*
X840100Y56045D01*
X839929Y56116D01*
X839802Y56151D01*
X839678Y56195D01*
X839498Y56235D01*
X839319Y56284D01*
X839189Y56302D01*
X839061Y56330D01*
X838877Y56347D01*
X838694Y56373D01*
X838562Y56375D01*
X838432Y56387D01*
X838247Y56380D01*
X838062Y56383D01*
X837931Y56368D01*
X837800Y56364D01*
X837618Y56334D01*
X837433Y56313D01*
X837306Y56282D01*
X837176Y56261D01*
X836999Y56208D01*
X836819Y56164D01*
X836696Y56118D01*
X836570Y56080D01*
X836401Y56005D01*
X836228Y55939D01*
X836113Y55877D01*
X835992Y55824D01*
X835834Y55729D01*
X835671Y55641D01*
X835564Y55566D01*
X835451Y55498D01*
X835306Y55383D01*
X835155Y55276D01*
X835088Y55215D01*
X828912Y52657D01*
X822288Y52657D01*
X822173Y52705D01*
X821967Y52775D01*
X821764Y52854D01*
X821668Y52877D01*
X821575Y52909D01*
X821362Y52953D01*
X821150Y53005D01*
X821053Y53017D01*
X820956Y53037D01*
X820739Y53053D01*
X820523Y53078D01*
X820424Y53077D01*
X820326Y53085D01*
X820108Y53074D01*
X819890Y53072D01*
X819793Y53058D01*
X819694Y53053D01*
X819480Y53015D01*
X819264Y52985D01*
X819169Y52959D01*
X819072Y52942D01*
X818864Y52877D01*
X818654Y52820D01*
X818563Y52783D01*
X818469Y52753D01*
X818271Y52663D01*
X818070Y52580D01*
X817984Y52531D01*
X817894Y52490D01*
X817710Y52375D01*
X817520Y52267D01*
X817441Y52208D01*
X817357Y52156D01*
X817189Y52019D01*
X817014Y51888D01*
X816943Y51820D01*
X816867Y51758D01*
X816717Y51600D01*
X816560Y51448D01*
X816499Y51371D01*
X816431Y51300D01*
X816302Y51125D01*
X816166Y50955D01*
X816114Y50871D01*
X816056Y50791D01*
X815950Y50601D01*
X815836Y50415D01*
X815796Y50325D01*
X815748Y50239D01*
X815667Y50037D01*
X815578Y49838D01*
X815549Y49744D01*
X815513Y49653D01*
X815457Y49442D01*
X815394Y49233D01*
X815378Y49136D01*
X815353Y49041D01*
X815325Y48825D01*
X815288Y48610D01*
X815282Y48498D01*
X815272Y48414D01*
X815271Y48285D01*
X815261Y48086D01*
X815261Y47784D01*
X812953Y42212D01*
X793768Y23027D01*
X788196Y20719D01*
X373983Y20719D01*
X368411Y23027D01*
X288837Y102602D01*
X286529Y108174D01*
X286529Y355505D01*
X288837Y361077D01*
X293102Y365342D01*
X298674Y367650D01*
X302420Y367650D01*
X302605Y367662D01*
X302790Y367664D01*
X302920Y367682D01*
X303051Y367690D01*
X303232Y367725D01*
X303416Y367750D01*
X303542Y367785D01*
X303672Y367809D01*
X303848Y367867D01*
X304026Y367915D01*
X304147Y367965D01*
X304272Y368006D01*
X304440Y368085D01*
X304610Y368156D01*
X304725Y368220D01*
X304843Y368277D01*
X304999Y368377D01*
X305160Y368468D01*
X305265Y368547D01*
X305376Y368618D01*
X305518Y368736D01*
X305666Y368847D01*
X305760Y368939D01*
X305861Y369023D01*
X305987Y369158D01*
X306120Y369287D01*
X306202Y369390D01*
X306291Y369486D01*
X306399Y369636D01*
X306514Y369781D01*
X306583Y369893D01*
X306659Y370000D01*
X306747Y370162D01*
X306844Y370320D01*
X306897Y370440D01*
X306960Y370556D01*
X307026Y370728D01*
X307102Y370897D01*
X307140Y371023D01*
X307188Y371145D01*
X307232Y371325D01*
X307286Y371502D01*
X307308Y371632D01*
X307339Y371759D01*
X307361Y371942D01*
X307392Y372125D01*
X307400Y372279D01*
X307412Y372387D01*
X307411Y372496D01*
X307419Y372649D01*
X307419Y380269D01*
X307412Y380389D01*
X307414Y380508D01*
X307392Y380704D01*
X307379Y380900D01*
X307357Y381017D01*
X307344Y381136D01*
X307297Y381328D01*
X307260Y381521D01*
X307223Y381635D01*
X307195Y381750D01*
X307125Y381934D01*
X307063Y382122D01*
X307012Y382230D01*
X306970Y382341D01*
X306877Y382515D01*
X306793Y382693D01*
X306728Y382793D01*
X306672Y382899D01*
X306558Y383059D01*
X306452Y383225D01*
X306375Y383317D01*
X306306Y383414D01*
X306136Y383603D01*
X306047Y383710D01*
X306004Y383750D01*
X305955Y383804D01*
X299984Y389775D01*
X299895Y389854D01*
X299812Y389940D01*
X299658Y390063D01*
X299510Y390193D01*
X299411Y390260D01*
X299318Y390334D01*
X299150Y390437D01*
X298987Y390547D01*
X298881Y390601D01*
X298779Y390664D01*
X298599Y390744D01*
X298423Y390833D01*
X298311Y390873D01*
X298202Y390922D01*
X298013Y390979D01*
X297828Y391046D01*
X297711Y391071D01*
X297597Y391106D01*
X297403Y391139D01*
X297210Y391181D01*
X297092Y391192D01*
X296974Y391212D01*
X296720Y391225D01*
X296581Y391238D01*
X296523Y391235D01*
X296449Y391239D01*
X200184Y391239D01*
X194612Y393547D01*
X139547Y448612D01*
X137050Y454641D01*
X136969Y454806D01*
X136896Y454977D01*
X136830Y455090D01*
X136772Y455208D01*
X136670Y455363D01*
X136577Y455522D01*
X136497Y455626D01*
X136424Y455736D01*
X136304Y455877D01*
X136191Y456023D01*
X136098Y456116D01*
X136013Y456216D01*
X135876Y456340D01*
X135745Y456471D01*
X135641Y456552D01*
X135544Y456640D01*
X135392Y456745D01*
X135246Y456859D01*
X135133Y456926D01*
X135025Y457001D01*
X134862Y457087D01*
X134702Y457181D01*
X134582Y457234D01*
X134465Y457294D01*
X134292Y457359D01*
X134122Y457432D01*
X133996Y457469D01*
X133873Y457514D01*
X133693Y457556D01*
X133515Y457608D01*
X133385Y457628D01*
X133257Y457658D01*
X133073Y457677D01*
X132891Y457706D01*
X132759Y457709D01*
X132629Y457723D01*
X132443Y457718D01*
X132259Y457724D01*
X132128Y457711D01*
X131997Y457708D01*
X131814Y457680D01*
X131630Y457662D01*
X131502Y457633D01*
X131372Y457613D01*
X131194Y457562D01*
X131013Y457521D01*
X130869Y457470D01*
X130764Y457440D01*
X130663Y457397D01*
X130518Y457346D01*
X127629Y456149D01*
X122061Y456149D01*
X116917Y458280D01*
X115380Y459817D01*
X115241Y459939D01*
X115109Y460069D01*
X115004Y460148D01*
X114906Y460235D01*
X114753Y460339D01*
X114605Y460450D01*
X114491Y460516D01*
X114382Y460589D01*
X114218Y460673D01*
X114057Y460765D01*
X113936Y460816D01*
X113819Y460875D01*
X113645Y460937D01*
X113474Y461009D01*
X113347Y461043D01*
X113223Y461088D01*
X113043Y461127D01*
X112864Y461176D01*
X112734Y461195D01*
X112606Y461223D01*
X112422Y461240D01*
X112239Y461266D01*
X112107Y461268D01*
X111976Y461280D01*
X111792Y461273D01*
X111607Y461276D01*
X111476Y461261D01*
X111345Y461256D01*
X111162Y461226D01*
X110978Y461206D01*
X110850Y461175D01*
X110721Y461153D01*
X110544Y461100D01*
X110364Y461057D01*
X110241Y461010D01*
X110115Y460973D01*
X109946Y460898D01*
X109773Y460832D01*
X109658Y460770D01*
X109537Y460717D01*
X109379Y460621D01*
X109216Y460534D01*
X109109Y460458D01*
X108996Y460390D01*
X108851Y460275D01*
X108700Y460168D01*
X108586Y460066D01*
X108501Y459998D01*
X108424Y459920D01*
X108310Y459817D01*
X106773Y458280D01*
X101629Y456149D01*
X96061Y456149D01*
X90917Y458280D01*
X89380Y459817D01*
X89241Y459939D01*
X89109Y460069D01*
X89004Y460148D01*
X88906Y460235D01*
X88753Y460339D01*
X88605Y460450D01*
X88491Y460516D01*
X88382Y460589D01*
X88218Y460673D01*
X88057Y460765D01*
X87936Y460816D01*
X87819Y460875D01*
X87645Y460937D01*
X87474Y461009D01*
X87347Y461043D01*
X87223Y461088D01*
X87043Y461127D01*
X86864Y461176D01*
X86734Y461195D01*
X86606Y461223D01*
X86422Y461240D01*
X86239Y461266D01*
X86107Y461268D01*
X85976Y461280D01*
X85792Y461273D01*
X85607Y461276D01*
X85476Y461261D01*
X85345Y461256D01*
X85162Y461226D01*
X84978Y461206D01*
X84850Y461175D01*
X84721Y461153D01*
X84544Y461100D01*
X84364Y461057D01*
X84241Y461010D01*
X84115Y460973D01*
X83946Y460898D01*
X83773Y460832D01*
X83658Y460770D01*
X83537Y460717D01*
X83379Y460621D01*
X83216Y460534D01*
X83109Y460458D01*
X82996Y460390D01*
X82851Y460275D01*
X82700Y460168D01*
X82586Y460066D01*
X82501Y459998D01*
X82424Y459920D01*
X82310Y459817D01*
X80773Y458280D01*
X75629Y456149D01*
X70061Y456149D01*
X64917Y458280D01*
X63380Y459817D01*
X63241Y459939D01*
X63109Y460069D01*
X63004Y460148D01*
X62906Y460235D01*
X62752Y460339D01*
X62605Y460450D01*
X62491Y460516D01*
X62382Y460589D01*
X62217Y460673D01*
X62057Y460765D01*
X61936Y460816D01*
X61819Y460875D01*
X61644Y460937D01*
X61474Y461009D01*
X61347Y461043D01*
X61223Y461088D01*
X61043Y461127D01*
X60864Y461176D01*
X60734Y461195D01*
X60606Y461223D01*
X60422Y461240D01*
X60239Y461266D01*
X60107Y461268D01*
X59976Y461280D01*
X59791Y461273D01*
X59606Y461276D01*
X59476Y461261D01*
X59345Y461256D01*
X59162Y461226D01*
X58978Y461206D01*
X58850Y461175D01*
X58721Y461153D01*
X58544Y461100D01*
X58364Y461057D01*
X58241Y461010D01*
X58115Y460973D01*
X57946Y460898D01*
X57773Y460832D01*
X57657Y460770D01*
X57537Y460717D01*
X57379Y460621D01*
X57216Y460534D01*
X57109Y460458D01*
X56996Y460390D01*
X56851Y460275D01*
X56700Y460168D01*
X56586Y460066D01*
X56500Y459998D01*
X56424Y459920D01*
X56310Y459817D01*
X54773Y458280D01*
X49629Y456149D01*
X44061Y456149D01*
X38917Y458280D01*
X34980Y462217D01*
X32849Y467361D01*
X32849Y472929D01*
X34980Y478073D01*
X38917Y482010D01*
X44061Y484141D01*
X49629Y484141D01*
X54773Y482010D01*
X56310Y480473D01*
X56449Y480351D01*
X56581Y480221D01*
X56686Y480142D01*
X56784Y480055D01*
X56937Y479951D01*
X57085Y479840D01*
X57199Y479774D01*
X57308Y479701D01*
X57472Y479617D01*
X57633Y479525D01*
X57754Y479474D01*
X57871Y479415D01*
X58045Y479353D01*
X58216Y479281D01*
X58343Y479247D01*
X58467Y479202D01*
X58647Y479163D01*
X58826Y479114D01*
X58956Y479095D01*
X59084Y479067D01*
X59268Y479050D01*
X59451Y479024D01*
X59583Y479022D01*
X59714Y479010D01*
X59898Y479017D01*
X60083Y479014D01*
X60214Y479029D01*
X60345Y479034D01*
X60528Y479064D01*
X60712Y479084D01*
X60840Y479115D01*
X60969Y479137D01*
X61146Y479190D01*
X61326Y479233D01*
X61449Y479280D01*
X61575Y479317D01*
X61744Y479392D01*
X61917Y479458D01*
X62032Y479520D01*
X62153Y479573D01*
X62311Y479669D01*
X62474Y479756D01*
X62581Y479832D01*
X62694Y479900D01*
X62839Y480015D01*
X62990Y480122D01*
X63104Y480224D01*
X63189Y480292D01*
X63266Y480370D01*
X63380Y480473D01*
X64917Y482010D01*
X70061Y484141D01*
X75629Y484141D01*
X80773Y482010D01*
X82310Y480473D01*
X82449Y480351D01*
X82581Y480221D01*
X82686Y480142D01*
X82784Y480055D01*
X82938Y479951D01*
X83085Y479840D01*
X83199Y479774D01*
X83308Y479701D01*
X83473Y479617D01*
X83633Y479525D01*
X83754Y479474D01*
X83871Y479415D01*
X84046Y479353D01*
X84216Y479281D01*
X84343Y479247D01*
X84467Y479202D01*
X84647Y479163D01*
X84826Y479114D01*
X84956Y479095D01*
X85084Y479067D01*
X85268Y479050D01*
X85451Y479024D01*
X85583Y479022D01*
X85714Y479010D01*
X85899Y479017D01*
X86084Y479014D01*
X86214Y479029D01*
X86345Y479034D01*
X86528Y479064D01*
X86712Y479084D01*
X86840Y479115D01*
X86969Y479137D01*
X87146Y479190D01*
X87326Y479233D01*
X87449Y479280D01*
X87575Y479317D01*
X87744Y479392D01*
X87917Y479458D01*
X88033Y479520D01*
X88153Y479573D01*
X88311Y479669D01*
X88474Y479756D01*
X88581Y479832D01*
X88694Y479900D01*
X88839Y480015D01*
X88990Y480122D01*
X89104Y480224D01*
X89190Y480292D01*
X89266Y480370D01*
X89380Y480473D01*
X90917Y482010D01*
X96061Y484141D01*
X101629Y484141D01*
X106773Y482010D01*
X108310Y480473D01*
X108449Y480351D01*
X108581Y480221D01*
X108686Y480142D01*
X108784Y480055D01*
X108938Y479951D01*
X109085Y479840D01*
X109199Y479774D01*
X109308Y479701D01*
X109473Y479617D01*
X109633Y479525D01*
X109754Y479474D01*
X109871Y479415D01*
X110046Y479353D01*
X110216Y479281D01*
X110343Y479247D01*
X110467Y479202D01*
X110647Y479163D01*
X110826Y479114D01*
X110956Y479095D01*
X111084Y479067D01*
X111268Y479050D01*
X111451Y479024D01*
X111583Y479022D01*
X111714Y479010D01*
X111899Y479017D01*
X112084Y479014D01*
X112214Y479029D01*
X112345Y479034D01*
X112528Y479064D01*
X112712Y479084D01*
X112840Y479115D01*
X112969Y479137D01*
X113146Y479190D01*
X113326Y479233D01*
X113449Y479280D01*
X113575Y479317D01*
X113744Y479392D01*
X113917Y479458D01*
X114033Y479520D01*
X114153Y479573D01*
X114311Y479669D01*
X114474Y479756D01*
X114581Y479832D01*
X114694Y479900D01*
X114839Y480015D01*
X114990Y480122D01*
X115104Y480224D01*
X115190Y480292D01*
X115266Y480370D01*
X115380Y480473D01*
X116917Y482010D01*
X122061Y484141D01*
X127629Y484141D01*
X132773Y482010D01*
X133486Y481297D01*
X133625Y481174D01*
X133757Y481045D01*
X133862Y480966D01*
X133961Y480879D01*
X134114Y480775D01*
X134261Y480663D01*
X134375Y480598D01*
X134484Y480524D01*
X134649Y480441D01*
X134809Y480349D01*
X134930Y480298D01*
X135048Y480239D01*
X135222Y480176D01*
X135393Y480105D01*
X135519Y480070D01*
X135643Y480026D01*
X135823Y479987D01*
X136002Y479937D01*
X136132Y479919D01*
X136260Y479891D01*
X136444Y479874D01*
X136628Y479848D01*
X136759Y479846D01*
X136890Y479834D01*
X137075Y479841D01*
X137260Y479838D01*
X137390Y479853D01*
X137522Y479858D01*
X137704Y479888D01*
X137888Y479908D01*
X138016Y479939D01*
X138145Y479960D01*
X138322Y480013D01*
X138502Y480057D01*
X138625Y480104D01*
X138751Y480141D01*
X138920Y480216D01*
X139093Y480282D01*
X139209Y480344D01*
X139329Y480397D01*
X139487Y480493D01*
X139651Y480580D01*
X139758Y480656D01*
X139870Y480724D01*
X140015Y480838D01*
X140166Y480945D01*
X140280Y481048D01*
X140366Y481116D01*
X140442Y481194D01*
X140556Y481297D01*
X142257Y482998D01*
X147829Y485306D01*
X153861Y485306D01*
X155810Y484498D01*
X155985Y484438D01*
X156157Y484369D01*
X156284Y484336D01*
X156408Y484294D01*
X156589Y484256D01*
X156769Y484210D01*
X156899Y484193D01*
X157027Y484166D01*
X157212Y484152D01*
X157395Y484128D01*
X157527Y484128D01*
X157658Y484118D01*
X157842Y484127D01*
X158027Y484127D01*
X158158Y484143D01*
X158289Y484150D01*
X158471Y484182D01*
X158655Y484205D01*
X158782Y484238D01*
X158911Y484261D01*
X159088Y484316D01*
X159267Y484362D01*
X159389Y484410D01*
X159515Y484449D01*
X159683Y484527D01*
X159855Y484595D01*
X159970Y484658D01*
X160089Y484713D01*
X160246Y484811D01*
X160408Y484900D01*
X160514Y484977D01*
X160626Y485047D01*
X160770Y485163D01*
X160919Y485272D01*
X161015Y485363D01*
X161116Y485445D01*
X161244Y485579D01*
X161379Y485706D01*
X161462Y485808D01*
X161553Y485903D01*
X161662Y486052D01*
X161780Y486195D01*
X161850Y486306D01*
X161927Y486412D01*
X162018Y486573D01*
X162116Y486730D01*
X162182Y486869D01*
X162235Y486964D01*
X162276Y487065D01*
X162342Y487204D01*
X163992Y491188D01*
X180957Y508153D01*
X186529Y510461D01*
X333216Y510461D01*
X338788Y508153D01*
X339365Y507576D01*
X339504Y507453D01*
X339636Y507324D01*
X339741Y507245D01*
X339839Y507158D01*
X339992Y507054D01*
X340140Y506942D01*
X340254Y506877D01*
X340362Y506803D01*
X340528Y506719D01*
X340688Y506627D01*
X340809Y506577D01*
X340926Y506517D01*
X341101Y506455D01*
X341271Y506384D01*
X341398Y506349D01*
X341522Y506305D01*
X341702Y506265D01*
X341881Y506216D01*
X342011Y506198D01*
X342139Y506170D01*
X342323Y506153D01*
X342506Y506127D01*
X342638Y506125D01*
X342769Y506113D01*
X342953Y506120D01*
X343138Y506117D01*
X343269Y506132D01*
X343400Y506136D01*
X343583Y506166D01*
X343767Y506187D01*
X343895Y506218D01*
X344024Y506239D01*
X344201Y506292D01*
X344381Y506336D01*
X344504Y506382D01*
X344630Y506420D01*
X344799Y506495D01*
X344972Y506561D01*
X345088Y506623D01*
X345208Y506676D01*
X345366Y506771D01*
X345529Y506859D01*
X345636Y506934D01*
X345749Y507002D01*
X345894Y507117D01*
X346045Y507224D01*
X346159Y507327D01*
X346244Y507395D01*
X346321Y507473D01*
X346435Y507576D01*
X352092Y513233D01*
X357664Y515541D01*
X544036Y515541D01*
X549608Y513233D01*
X635153Y427688D01*
X637461Y422116D01*
X637461Y416084D01*
X635153Y410512D01*
X630888Y406247D01*
X625316Y403939D01*
X619284Y403939D01*
X613712Y406247D01*
X544491Y475468D01*
X544278Y475656D01*
X544068Y475846D01*
X544041Y475865D01*
X544017Y475886D01*
X543781Y476046D01*
X543550Y476207D01*
X543521Y476222D01*
X543493Y476241D01*
X543239Y476370D01*
X542990Y476500D01*
X542959Y476512D01*
X542930Y476527D01*
X542662Y476622D01*
X542397Y476721D01*
X542365Y476728D01*
X542334Y476739D01*
X542057Y476800D01*
X541781Y476864D01*
X541749Y476867D01*
X541717Y476874D01*
X541434Y476900D01*
X541153Y476929D01*
X541120Y476928D01*
X541087Y476931D01*
X540803Y476920D01*
X540521Y476914D01*
X540489Y476909D01*
X540456Y476908D01*
X540175Y476861D01*
X539896Y476819D01*
X539864Y476810D01*
X539832Y476805D01*
X539560Y476724D01*
X539288Y476646D01*
X539258Y476633D01*
X539226Y476624D01*
X538967Y476509D01*
X538706Y476398D01*
X538678Y476381D01*
X538648Y476368D01*
X538405Y476221D01*
X538161Y476078D01*
X538135Y476059D01*
X538107Y476042D01*
X537884Y475865D01*
X537660Y475693D01*
X537637Y475670D01*
X537612Y475649D01*
X537413Y475446D01*
X537212Y475247D01*
X537192Y475221D01*
X537169Y475197D01*
X536998Y474971D01*
X536824Y474748D01*
X536808Y474720D01*
X536788Y474694D01*
X536646Y474447D01*
X536502Y474204D01*
X536489Y474174D01*
X536473Y474146D01*
X536364Y473884D01*
X536251Y473624D01*
X536242Y473592D01*
X536230Y473562D01*
X536154Y473289D01*
X536076Y473017D01*
X536070Y472984D01*
X536062Y472953D01*
X536021Y472671D01*
X535978Y472392D01*
X535977Y472360D01*
X535972Y472327D01*
X535968Y472041D01*
X535960Y471760D01*
X535963Y471728D01*
X535962Y471695D01*
X535994Y471413D01*
X536022Y471131D01*
X536029Y471099D01*
X536032Y471067D01*
X536091Y470826D01*
X536091Y458945D01*
X536096Y458858D01*
X536094Y458772D01*
X536116Y458543D01*
X536131Y458314D01*
X536147Y458229D01*
X536155Y458143D01*
X536207Y457919D01*
X536250Y457693D01*
X536277Y457611D01*
X536296Y457526D01*
X536407Y457213D01*
X536447Y457092D01*
X536459Y457066D01*
X536471Y457032D01*
X539181Y450490D01*
X539181Y420730D01*
X536402Y414022D01*
X531268Y408888D01*
X524560Y406109D01*
X517300Y406109D01*
X510592Y408888D01*
X508215Y411265D01*
X508076Y411387D01*
X507944Y411516D01*
X507839Y411595D01*
X507741Y411682D01*
X507587Y411786D01*
X507440Y411898D01*
X507326Y411963D01*
X507217Y412037D01*
X507052Y412121D01*
X506892Y412213D01*
X506771Y412263D01*
X506654Y412323D01*
X506479Y412385D01*
X506309Y412456D01*
X506182Y412491D01*
X506058Y412535D01*
X505878Y412575D01*
X505699Y412624D01*
X505569Y412642D01*
X505441Y412671D01*
X505257Y412687D01*
X505074Y412713D01*
X504942Y412715D01*
X504811Y412727D01*
X504626Y412720D01*
X504441Y412723D01*
X504311Y412709D01*
X504180Y412704D01*
X503997Y412674D01*
X503813Y412653D01*
X503685Y412622D01*
X503556Y412601D01*
X503379Y412548D01*
X503199Y412504D01*
X503076Y412458D01*
X502950Y412420D01*
X502781Y412345D01*
X502608Y412279D01*
X502492Y412217D01*
X502372Y412164D01*
X502214Y412069D01*
X502051Y411982D01*
X501944Y411906D01*
X501831Y411838D01*
X501686Y411723D01*
X501535Y411616D01*
X501421Y411513D01*
X501335Y411445D01*
X501259Y411368D01*
X501145Y411265D01*
X498768Y408888D01*
X492060Y406109D01*
X484800Y406109D01*
X478092Y408888D01*
X472561Y414418D01*
X472423Y414540D01*
X472290Y414670D01*
X472185Y414749D01*
X472087Y414836D01*
X471934Y414940D01*
X471786Y415052D01*
X471672Y415117D01*
X471564Y415191D01*
X471399Y415274D01*
X471238Y415367D01*
X471117Y415417D01*
X471000Y415476D01*
X470825Y415539D01*
X470655Y415610D01*
X470528Y415645D01*
X470405Y415689D01*
X470224Y415728D01*
X470045Y415778D01*
X469915Y415796D01*
X469787Y415824D01*
X469603Y415841D01*
X469420Y415867D01*
X469288Y415869D01*
X469158Y415881D01*
X468973Y415874D01*
X468788Y415877D01*
X468657Y415862D01*
X468526Y415857D01*
X468343Y415827D01*
X468159Y415807D01*
X468032Y415776D01*
X467902Y415755D01*
X467725Y415702D01*
X467545Y415658D01*
X467422Y415611D01*
X467297Y415574D01*
X467128Y415499D01*
X466954Y415433D01*
X466839Y415371D01*
X466719Y415318D01*
X466560Y415222D01*
X466397Y415135D01*
X466290Y415059D01*
X466177Y414991D01*
X466032Y414876D01*
X465881Y414769D01*
X465767Y414667D01*
X465682Y414599D01*
X465606Y414521D01*
X465491Y414418D01*
X465042Y413969D01*
X463608Y412869D01*
X462043Y411965D01*
X460929Y411504D01*
X460929Y435610D01*
X460918Y435794D01*
X460916Y435979D01*
X460898Y436109D01*
X460889Y436240D01*
X460855Y436422D01*
X460829Y436605D01*
X460795Y436732D01*
X460770Y436861D01*
X460713Y437037D01*
X460664Y437216D01*
X460615Y437337D01*
X460574Y437462D01*
X460494Y437629D01*
X460424Y437800D01*
X460359Y437914D01*
X460303Y438033D01*
X460203Y438189D01*
X460112Y438350D01*
X460033Y438455D01*
X459962Y438565D01*
X459843Y438708D01*
X459732Y438855D01*
X459641Y438950D01*
X459557Y439051D01*
X459556Y439051D01*
X459421Y439177D01*
X459293Y439309D01*
X459292Y439310D01*
X459189Y439392D01*
X459093Y439481D01*
X458943Y439589D01*
X458798Y439704D01*
X458686Y439773D01*
X458579Y439849D01*
X458417Y439937D01*
X458259Y440034D01*
X458139Y440088D01*
X458023Y440150D01*
X457851Y440217D01*
X457682Y440292D01*
X457556Y440330D01*
X457434Y440378D01*
X457254Y440422D01*
X457077Y440476D01*
X456947Y440498D01*
X456820Y440529D01*
X456637Y440551D01*
X456454Y440582D01*
X456300Y440590D01*
X456192Y440602D01*
X456083Y440601D01*
X455930Y440609D01*
X442139Y440609D01*
X442139Y447764D01*
X442375Y449556D01*
X442843Y451302D01*
X443535Y452973D01*
X444439Y454538D01*
X445539Y455972D01*
X446092Y456525D01*
X446258Y456713D01*
X446428Y456897D01*
X446466Y456950D01*
X446510Y456999D01*
X446651Y457207D01*
X446796Y457410D01*
X446827Y457468D01*
X446864Y457522D01*
X446978Y457747D01*
X447097Y457966D01*
X447120Y458028D01*
X447150Y458086D01*
X447234Y458322D01*
X447325Y458556D01*
X447340Y458620D01*
X447362Y458682D01*
X447416Y458925D01*
X447476Y459170D01*
X447484Y459235D01*
X447498Y459299D01*
X447520Y459549D01*
X447549Y459797D01*
X447549Y459863D01*
X447555Y459929D01*
X447545Y460180D01*
X447543Y460430D01*
X447534Y460495D01*
X447531Y460560D01*
X447490Y460807D01*
X447456Y461056D01*
X447439Y461119D01*
X447428Y461184D01*
X447356Y461425D01*
X447291Y461666D01*
X447266Y461726D01*
X447248Y461790D01*
X447146Y462019D01*
X447051Y462250D01*
X447018Y462308D01*
X446992Y462368D01*
X446862Y462582D01*
X446739Y462800D01*
X446699Y462853D01*
X446665Y462909D01*
X446510Y463105D01*
X446359Y463306D01*
X446314Y463353D01*
X446273Y463404D01*
X446094Y463580D01*
X445919Y463760D01*
X445868Y463801D01*
X445821Y463847D01*
X445622Y463998D01*
X445426Y464154D01*
X445370Y464189D01*
X445317Y464228D01*
X445100Y464353D01*
X444886Y464484D01*
X444826Y464510D01*
X444769Y464543D01*
X444538Y464640D01*
X444309Y464742D01*
X444246Y464761D01*
X444186Y464786D01*
X443944Y464853D01*
X443704Y464926D01*
X443640Y464937D01*
X443576Y464954D01*
X443329Y464990D01*
X443081Y465032D01*
X443008Y465036D01*
X442951Y465044D01*
X442811Y465046D01*
X442557Y465059D01*
X415916Y465059D01*
X415796Y465052D01*
X415677Y465054D01*
X415481Y465032D01*
X415285Y465019D01*
X415168Y464997D01*
X415049Y464984D01*
X414857Y464937D01*
X414664Y464900D01*
X414550Y464863D01*
X414434Y464835D01*
X414251Y464765D01*
X414063Y464703D01*
X413955Y464652D01*
X413844Y464610D01*
X413670Y464517D01*
X413492Y464433D01*
X413391Y464368D01*
X413286Y464312D01*
X413126Y464198D01*
X412960Y464092D01*
X412868Y464015D01*
X412771Y463946D01*
X412582Y463776D01*
X412475Y463687D01*
X412435Y463644D01*
X412381Y463595D01*
X403533Y454747D01*
X397961Y452439D01*
X391929Y452439D01*
X386357Y454747D01*
X381684Y459420D01*
X381603Y459492D01*
X381528Y459570D01*
X381366Y459701D01*
X381210Y459838D01*
X381120Y459899D01*
X381036Y459967D01*
X380859Y460076D01*
X380687Y460193D01*
X380590Y460242D01*
X380497Y460299D01*
X380308Y460385D01*
X380123Y460478D01*
X380021Y460515D01*
X379922Y460560D01*
X379723Y460621D01*
X379528Y460691D01*
X379422Y460714D01*
X379318Y460746D01*
X379113Y460782D01*
X378910Y460826D01*
X378802Y460836D01*
X378695Y460855D01*
X378488Y460864D01*
X378281Y460883D01*
X378172Y460879D01*
X378064Y460884D01*
X377857Y460867D01*
X377649Y460859D01*
X377542Y460842D01*
X377433Y460833D01*
X377230Y460790D01*
X377025Y460756D01*
X376921Y460725D01*
X376815Y460703D01*
X376618Y460635D01*
X376420Y460576D01*
X376320Y460532D01*
X376218Y460496D01*
X376031Y460404D01*
X375842Y460320D01*
X375749Y460264D01*
X375651Y460216D01*
X375420Y460065D01*
X375300Y459993D01*
X375262Y459963D01*
X375211Y459930D01*
X374544Y459445D01*
X374544Y467600D01*
X374533Y467784D01*
X374531Y467969D01*
X374513Y468099D01*
X374504Y468230D01*
X374470Y468412D01*
X374444Y468595D01*
X374410Y468722D01*
X374385Y468851D01*
X374328Y469027D01*
X374279Y469206D01*
X374230Y469327D01*
X374189Y469452D01*
X374109Y469619D01*
X374039Y469790D01*
X373974Y469904D01*
X373918Y470023D01*
X373818Y470179D01*
X373727Y470340D01*
X373648Y470445D01*
X373577Y470555D01*
X373458Y470698D01*
X373347Y470845D01*
X373256Y470940D01*
X373172Y471041D01*
X373036Y471166D01*
X372908Y471299D01*
X372805Y471381D01*
X372709Y471471D01*
X372558Y471578D01*
X372414Y471694D01*
X372301Y471763D01*
X372195Y471839D01*
X372032Y471927D01*
X371874Y472023D01*
X371754Y472077D01*
X371639Y472139D01*
X371466Y472206D01*
X371297Y472282D01*
X371172Y472320D01*
X371049Y472367D01*
X370870Y472412D01*
X370693Y472465D01*
X370563Y472487D01*
X370436Y472519D01*
X370252Y472540D01*
X370069Y472571D01*
X369916Y472579D01*
X369808Y472592D01*
X369807Y472592D01*
X369699Y472591D01*
X369545Y472599D01*
X369360Y472587D01*
X369175Y472585D01*
X369045Y472567D01*
X368914Y472559D01*
X368732Y472524D01*
X368549Y472499D01*
X368422Y472465D01*
X368293Y472440D01*
X368117Y472382D01*
X367939Y472334D01*
X367818Y472284D01*
X367693Y472243D01*
X367525Y472164D01*
X367354Y472093D01*
X367240Y472029D01*
X367121Y471972D01*
X366965Y471872D01*
X366805Y471781D01*
X366700Y471702D01*
X366589Y471632D01*
X366447Y471513D01*
X366299Y471402D01*
X366205Y471311D01*
X366104Y471226D01*
X365978Y471091D01*
X365845Y470962D01*
X365763Y470859D01*
X365674Y470763D01*
X365566Y470613D01*
X365451Y470468D01*
X365382Y470356D01*
X365306Y470249D01*
X365218Y470087D01*
X365121Y469929D01*
X365067Y469809D01*
X365005Y469693D01*
X364938Y469521D01*
X364863Y469352D01*
X364825Y469226D01*
X364777Y469104D01*
X364733Y468924D01*
X364679Y468747D01*
X364657Y468617D01*
X364626Y468490D01*
X364604Y468307D01*
X364573Y468124D01*
X364565Y467970D01*
X364552Y467862D01*
X364554Y467753D01*
X364546Y467600D01*
X364546Y459446D01*
X363879Y459930D01*
X363787Y459988D01*
X363701Y460053D01*
X363520Y460157D01*
X363345Y460268D01*
X363247Y460314D01*
X363153Y460368D01*
X362961Y460448D01*
X362773Y460537D01*
X362670Y460570D01*
X362569Y460612D01*
X362369Y460667D01*
X362171Y460731D01*
X362065Y460751D01*
X361960Y460779D01*
X361754Y460809D01*
X361550Y460847D01*
X361442Y460853D01*
X361334Y460869D01*
X361126Y460872D01*
X360919Y460884D01*
X360811Y460877D01*
X360702Y460879D01*
X360496Y460856D01*
X360289Y460842D01*
X360182Y460821D01*
X360074Y460809D01*
X359872Y460760D01*
X359668Y460720D01*
X359565Y460686D01*
X359460Y460660D01*
X359266Y460586D01*
X359068Y460521D01*
X358970Y460474D01*
X358869Y460435D01*
X358686Y460337D01*
X358499Y460247D01*
X358407Y460188D01*
X358311Y460137D01*
X358142Y460017D01*
X357968Y459904D01*
X357884Y459834D01*
X357796Y459771D01*
X357591Y459587D01*
X357484Y459497D01*
X357451Y459461D01*
X357406Y459420D01*
X352733Y454747D01*
X347161Y452439D01*
X341129Y452439D01*
X340818Y452568D01*
X340612Y452639D01*
X340409Y452717D01*
X340313Y452741D01*
X340220Y452773D01*
X340007Y452817D01*
X339795Y452869D01*
X339697Y452880D01*
X339601Y452900D01*
X339384Y452917D01*
X339168Y452942D01*
X339069Y452941D01*
X338971Y452948D01*
X338753Y452937D01*
X338535Y452935D01*
X338438Y452922D01*
X338339Y452917D01*
X338125Y452878D01*
X337909Y452849D01*
X337814Y452823D01*
X337717Y452806D01*
X337509Y452740D01*
X337299Y452684D01*
X337208Y452646D01*
X337114Y452617D01*
X336916Y452526D01*
X336715Y452443D01*
X336629Y452395D01*
X336539Y452354D01*
X336354Y452239D01*
X336165Y452131D01*
X336086Y452072D01*
X336002Y452020D01*
X335833Y451882D01*
X335659Y451752D01*
X335588Y451683D01*
X335512Y451621D01*
X335362Y451464D01*
X335205Y451312D01*
X335144Y451235D01*
X335076Y451164D01*
X334947Y450988D01*
X334811Y450818D01*
X334759Y450734D01*
X334701Y450655D01*
X334595Y450465D01*
X334481Y450279D01*
X334441Y450188D01*
X334393Y450103D01*
X334312Y449901D01*
X334223Y449702D01*
X334194Y449607D01*
X334158Y449516D01*
X334103Y449305D01*
X334039Y449097D01*
X334023Y449000D01*
X333998Y448904D01*
X333970Y448689D01*
X333933Y448474D01*
X333927Y448361D01*
X333917Y448278D01*
X333916Y448149D01*
X333906Y447949D01*
X333906Y417329D01*
X331598Y411757D01*
X329776Y409935D01*
X329653Y409796D01*
X329524Y409664D01*
X329444Y409559D01*
X329358Y409461D01*
X329254Y409308D01*
X329142Y409160D01*
X329077Y409046D01*
X329003Y408937D01*
X328919Y408772D01*
X328827Y408612D01*
X328777Y408491D01*
X328717Y408374D01*
X328655Y408199D01*
X328584Y408029D01*
X328549Y407902D01*
X328505Y407778D01*
X328465Y407597D01*
X328416Y407419D01*
X328398Y407289D01*
X328370Y407161D01*
X328353Y406977D01*
X328327Y406793D01*
X328325Y406662D01*
X328313Y406531D01*
X328320Y406346D01*
X328317Y406161D01*
X328332Y406031D01*
X328336Y405900D01*
X328366Y405717D01*
X328387Y405533D01*
X328418Y405406D01*
X328439Y405276D01*
X328492Y405099D01*
X328536Y404919D01*
X328583Y404796D01*
X328620Y404670D01*
X328695Y404501D01*
X328761Y404328D01*
X328823Y404212D01*
X328876Y404092D01*
X328971Y403934D01*
X329059Y403771D01*
X329134Y403664D01*
X329202Y403551D01*
X329317Y403406D01*
X329424Y403255D01*
X329527Y403141D01*
X329595Y403055D01*
X329673Y402979D01*
X329776Y402865D01*
X330465Y402176D01*
X330465Y402175D01*
X335433Y397208D01*
X337741Y391636D01*
X337741Y127160D01*
X337748Y127041D01*
X337746Y126922D01*
X337768Y126726D01*
X337781Y126529D01*
X337803Y126412D01*
X337816Y126293D01*
X337863Y126102D01*
X337900Y125908D01*
X337937Y125795D01*
X337965Y125679D01*
X338035Y125495D01*
X338097Y125308D01*
X338148Y125200D01*
X338190Y125088D01*
X338283Y124915D01*
X338367Y124737D01*
X338432Y124636D01*
X338488Y124531D01*
X338602Y124370D01*
X338708Y124204D01*
X338785Y124112D01*
X338854Y124015D01*
X339024Y123827D01*
X339113Y123719D01*
X339156Y123680D01*
X339205Y123625D01*
X390165Y72665D01*
X390254Y72586D01*
X390338Y72500D01*
X390492Y72377D01*
X390639Y72247D01*
X390738Y72180D01*
X390831Y72106D01*
X390999Y72003D01*
X391163Y71893D01*
X391269Y71839D01*
X391371Y71776D01*
X391551Y71696D01*
X391726Y71607D01*
X391839Y71567D01*
X391948Y71518D01*
X392136Y71461D01*
X392322Y71394D01*
X392438Y71369D01*
X392552Y71334D01*
X392747Y71301D01*
X392939Y71259D01*
X393058Y71248D01*
X393176Y71228D01*
X393429Y71215D01*
X393569Y71202D01*
X393627Y71205D01*
X393700Y71201D01*
X495999Y71201D01*
X496119Y71208D01*
X496238Y71206D01*
X496434Y71228D01*
X496630Y71241D01*
X496747Y71263D01*
X496866Y71276D01*
X497058Y71323D01*
X497251Y71360D01*
X497365Y71397D01*
X497480Y71425D01*
X497664Y71495D01*
X497852Y71557D01*
X497960Y71608D01*
X498071Y71650D01*
X498245Y71743D01*
X498423Y71827D01*
X498524Y71892D01*
X498629Y71948D01*
X498789Y72062D01*
X498955Y72168D01*
X499047Y72245D01*
X499144Y72314D01*
X499333Y72484D01*
X499440Y72573D01*
X499480Y72616D01*
X499534Y72665D01*
X542175Y115306D01*
X542254Y115395D01*
X542340Y115478D01*
X542463Y115632D01*
X542593Y115780D01*
X542660Y115879D01*
X542734Y115972D01*
X542837Y116140D01*
X542947Y116303D01*
X543001Y116410D01*
X543064Y116511D01*
X543144Y116691D01*
X543233Y116867D01*
X543273Y116979D01*
X543322Y117088D01*
X543379Y117277D01*
X543446Y117462D01*
X543471Y117579D01*
X543506Y117693D01*
X543539Y117887D01*
X543581Y118080D01*
X543592Y118198D01*
X543612Y118316D01*
X543625Y118570D01*
X543638Y118709D01*
X543635Y118767D01*
X543639Y118841D01*
X543639Y179930D01*
X543623Y180179D01*
X543614Y180430D01*
X543603Y180495D01*
X543599Y180560D01*
X543552Y180806D01*
X543511Y181054D01*
X543492Y181116D01*
X543480Y181181D01*
X543402Y181420D01*
X543330Y181659D01*
X543304Y181719D01*
X543283Y181782D01*
X543176Y182009D01*
X543075Y182237D01*
X543041Y182293D01*
X543013Y182353D01*
X542877Y182565D01*
X542748Y182778D01*
X542707Y182830D01*
X542672Y182885D01*
X542511Y183078D01*
X542356Y183274D01*
X542309Y183320D01*
X542267Y183370D01*
X542083Y183541D01*
X541904Y183716D01*
X541852Y183756D01*
X541803Y183801D01*
X541600Y183946D01*
X541400Y184098D01*
X541343Y184131D01*
X541290Y184169D01*
X541070Y184288D01*
X540852Y184413D01*
X540791Y184438D01*
X540734Y184469D01*
X540500Y184559D01*
X540269Y184656D01*
X540205Y184673D01*
X540144Y184697D01*
X539901Y184757D01*
X539659Y184824D01*
X539594Y184833D01*
X539530Y184849D01*
X539282Y184878D01*
X539034Y184913D01*
X538968Y184914D01*
X538903Y184922D01*
X538653Y184919D01*
X538402Y184923D01*
X538336Y184916D01*
X538270Y184915D01*
X538023Y184881D01*
X537773Y184853D01*
X537709Y184838D01*
X537644Y184829D01*
X537403Y184763D01*
X537159Y184704D01*
X537097Y184681D01*
X537034Y184664D01*
X536803Y184569D01*
X536568Y184479D01*
X536510Y184448D01*
X536450Y184423D01*
X536231Y184299D01*
X536011Y184182D01*
X535957Y184144D01*
X535900Y184111D01*
X535699Y183961D01*
X535495Y183816D01*
X535441Y183767D01*
X535394Y183732D01*
X535294Y183634D01*
X535105Y183465D01*
X509128Y157487D01*
X503556Y155179D01*
X435807Y155179D01*
X435589Y155165D01*
X435372Y155160D01*
X435274Y155146D01*
X435176Y155139D01*
X434962Y155098D01*
X434747Y155066D01*
X434652Y155039D01*
X434555Y155020D01*
X434348Y154952D01*
X434139Y154893D01*
X434048Y154854D01*
X433954Y154823D01*
X433757Y154730D01*
X433557Y154645D01*
X433472Y154595D01*
X433383Y154553D01*
X433199Y154435D01*
X433012Y154325D01*
X432934Y154265D01*
X432851Y154212D01*
X432684Y154072D01*
X432511Y153939D01*
X432441Y153870D01*
X432366Y153807D01*
X432217Y153647D01*
X432063Y153493D01*
X432003Y153416D01*
X431935Y153343D01*
X431809Y153167D01*
X431675Y152995D01*
X431625Y152910D01*
X431567Y152830D01*
X431464Y152638D01*
X431353Y152451D01*
X431314Y152360D01*
X431267Y152274D01*
X431188Y152070D01*
X431102Y151871D01*
X431074Y151776D01*
X431039Y151684D01*
X430987Y151473D01*
X430926Y151263D01*
X430911Y151166D01*
X430887Y151070D01*
X430862Y150855D01*
X430828Y150639D01*
X430826Y150540D01*
X430814Y150443D01*
X430817Y150225D01*
X430810Y150007D01*
X430820Y149909D01*
X430821Y149810D01*
X430851Y149595D01*
X430872Y149378D01*
X430894Y149282D01*
X430907Y149184D01*
X430964Y148974D01*
X431013Y148762D01*
X431050Y148656D01*
X431072Y148574D01*
X431121Y148455D01*
X431188Y148267D01*
X431331Y147922D01*
X431331Y141258D01*
X428781Y135102D01*
X428704Y135025D01*
X428582Y134886D01*
X428452Y134754D01*
X428373Y134649D01*
X428286Y134551D01*
X428183Y134398D01*
X428071Y134250D01*
X428005Y134136D01*
X427932Y134028D01*
X427848Y133863D01*
X427756Y133702D01*
X427705Y133581D01*
X427646Y133464D01*
X427584Y133290D01*
X427513Y133119D01*
X427478Y132992D01*
X427434Y132868D01*
X427394Y132688D01*
X427345Y132509D01*
X427326Y132379D01*
X427298Y132251D01*
X427282Y132067D01*
X427255Y131884D01*
X427253Y131752D01*
X427242Y131621D01*
X427248Y131437D01*
X427246Y131252D01*
X427260Y131121D01*
X427265Y130990D01*
X427295Y130807D01*
X427316Y130623D01*
X427346Y130496D01*
X427368Y130366D01*
X427421Y130189D01*
X427464Y130009D01*
X427511Y129886D01*
X427549Y129760D01*
X427624Y129591D01*
X427689Y129418D01*
X427751Y129303D01*
X427804Y129182D01*
X427900Y129024D01*
X427987Y128861D01*
X428063Y128754D01*
X428131Y128641D01*
X428246Y128496D01*
X428353Y128345D01*
X428456Y128231D01*
X428523Y128146D01*
X428601Y128069D01*
X428704Y127955D01*
X428781Y127879D01*
X431331Y121722D01*
X431331Y115058D01*
X428781Y108901D01*
X424069Y104189D01*
X417912Y101639D01*
X411248Y101639D01*
X405091Y104189D01*
X400379Y108901D01*
X397829Y115058D01*
X397829Y121766D01*
X397860Y121846D01*
X397884Y121942D01*
X397916Y122035D01*
X397960Y122248D01*
X398012Y122460D01*
X398023Y122557D01*
X398043Y122654D01*
X398060Y122872D01*
X398085Y123087D01*
X398084Y123186D01*
X398091Y123284D01*
X398080Y123502D01*
X398078Y123720D01*
X398065Y123817D01*
X398060Y123915D01*
X398021Y124130D01*
X397992Y124346D01*
X397966Y124441D01*
X397949Y124538D01*
X397884Y124746D01*
X397827Y124956D01*
X397789Y125047D01*
X397760Y125141D01*
X397669Y125339D01*
X397586Y125540D01*
X397538Y125626D01*
X397497Y125716D01*
X397382Y125900D01*
X397274Y126090D01*
X397215Y126169D01*
X397163Y126252D01*
X397025Y126422D01*
X396895Y126596D01*
X396826Y126666D01*
X396764Y126743D01*
X396607Y126893D01*
X396455Y127050D01*
X396378Y127111D01*
X396307Y127179D01*
X396132Y127308D01*
X395961Y127444D01*
X395877Y127496D01*
X395798Y127554D01*
X395608Y127660D01*
X395422Y127774D01*
X395332Y127814D01*
X395246Y127862D01*
X395044Y127943D01*
X394845Y128032D01*
X394750Y128061D01*
X394659Y128097D01*
X394449Y128152D01*
X394240Y128216D01*
X394143Y128232D01*
X394048Y128257D01*
X393832Y128285D01*
X393617Y128322D01*
X393505Y128328D01*
X393421Y128338D01*
X393292Y128339D01*
X393093Y128349D01*
X386874Y128349D01*
X381302Y130657D01*
X368147Y143812D01*
X365839Y149384D01*
X365839Y320516D01*
X368147Y326088D01*
X373115Y331056D01*
X418244Y376185D01*
X423212Y381153D01*
X428784Y383461D01*
X714216Y383461D01*
X719788Y381153D01*
X762253Y338688D01*
X763469Y335752D01*
X763550Y335586D01*
X763623Y335416D01*
X763689Y335303D01*
X763747Y335185D01*
X763848Y335031D01*
X763942Y334871D01*
X764022Y334767D01*
X764095Y334657D01*
X764215Y334516D01*
X764328Y334370D01*
X764421Y334277D01*
X764506Y334177D01*
X764643Y334053D01*
X764774Y333922D01*
X764878Y333841D01*
X764975Y333753D01*
X765127Y333647D01*
X765273Y333534D01*
X765386Y333467D01*
X765493Y333392D01*
X765657Y333306D01*
X765817Y333212D01*
X765937Y333159D01*
X766054Y333099D01*
X766227Y333034D01*
X766397Y332961D01*
X766523Y332924D01*
X766646Y332878D01*
X766826Y332836D01*
X767004Y332785D01*
X767134Y332765D01*
X767262Y332735D01*
X767445Y332716D01*
X767628Y332687D01*
X767760Y332684D01*
X767890Y332670D01*
X768075Y332674D01*
X768260Y332669D01*
X768391Y332682D01*
X768522Y332685D01*
X768705Y332713D01*
X768889Y332731D01*
X769017Y332760D01*
X769147Y332780D01*
X769325Y332830D01*
X769506Y332872D01*
X769650Y332923D01*
X769755Y332953D01*
X769856Y332995D01*
X770000Y333047D01*
X771488Y333663D01*
X778112Y333663D01*
X779863Y332938D01*
X780038Y332878D01*
X780210Y332809D01*
X780337Y332776D01*
X780461Y332733D01*
X780642Y332696D01*
X780821Y332649D01*
X780952Y332632D01*
X781080Y332606D01*
X781265Y332592D01*
X781448Y332568D01*
X781580Y332568D01*
X781710Y332557D01*
X781895Y332567D01*
X782080Y332566D01*
X782211Y332583D01*
X782342Y332589D01*
X782524Y332622D01*
X782707Y332645D01*
X782835Y332677D01*
X782964Y332700D01*
X783140Y332755D01*
X783320Y332801D01*
X783442Y332850D01*
X783567Y332889D01*
X783735Y332966D01*
X783907Y333034D01*
X784022Y333098D01*
X784142Y333152D01*
X784299Y333250D01*
X784461Y333339D01*
X784567Y333417D01*
X784679Y333486D01*
X784822Y333603D01*
X784972Y333712D01*
X785067Y333802D01*
X785169Y333885D01*
X785297Y334018D01*
X785431Y334146D01*
X785515Y334247D01*
X785605Y334342D01*
X785715Y334491D01*
X785832Y334634D01*
X785902Y334745D01*
X785980Y334851D01*
X786070Y335013D01*
X786169Y335169D01*
X786235Y335308D01*
X786288Y335403D01*
X786329Y335504D01*
X786395Y335643D01*
X787507Y338329D01*
X919231Y470053D01*
X924803Y472361D01*
X1337849Y472361D01*
X1337968Y472368D01*
X1338088Y472366D01*
X1338284Y472388D01*
X1338480Y472401D01*
X1338597Y472423D01*
X1338716Y472436D01*
X1338908Y472483D01*
X1339101Y472520D01*
X1339215Y472557D01*
X1339330Y472585D01*
X1339514Y472655D01*
X1339702Y472717D01*
X1339810Y472768D01*
X1339921Y472810D01*
X1340095Y472903D01*
X1340273Y472987D01*
X1340374Y473052D01*
X1340479Y473108D01*
X1340639Y473222D01*
X1340805Y473328D01*
X1340897Y473405D01*
X1340994Y473474D01*
X1341183Y473644D01*
X1341290Y473733D01*
X1341330Y473776D01*
X1341384Y473825D01*
X1342275Y474716D01*
X1342354Y474805D01*
X1342440Y474888D01*
X1342563Y475042D01*
X1342693Y475190D01*
X1342760Y475289D01*
X1342834Y475382D01*
X1342937Y475550D01*
X1343047Y475713D01*
X1343101Y475820D01*
X1343164Y475921D01*
X1343244Y476101D01*
X1343333Y476277D01*
X1343373Y476389D01*
X1343422Y476498D01*
X1343479Y476687D01*
X1343546Y476872D01*
X1343571Y476989D01*
X1343606Y477103D01*
X1343639Y477298D01*
X1343681Y477490D01*
X1343692Y477608D01*
X1343712Y477726D01*
X1343725Y477980D01*
X1343738Y478119D01*
X1343735Y478177D01*
X1343739Y478251D01*
X1343739Y498316D01*
X1346047Y503888D01*
X1363012Y520853D01*
X1368584Y523161D01*
X1374616Y523161D01*
X1375966Y522601D01*
X1376141Y522541D01*
X1376313Y522472D01*
X1376440Y522439D01*
X1376565Y522397D01*
X1376746Y522359D01*
X1376925Y522313D01*
X1377055Y522296D01*
X1377184Y522269D01*
X1377368Y522255D01*
X1377552Y522231D01*
X1377683Y522231D01*
X1377814Y522221D01*
X1377999Y522230D01*
X1378184Y522230D01*
X1378314Y522246D01*
X1378445Y522253D01*
X1378627Y522285D01*
X1378811Y522308D01*
X1378938Y522341D01*
X1379068Y522364D01*
X1379244Y522419D01*
X1379423Y522465D01*
X1379545Y522513D01*
X1379671Y522553D01*
X1379839Y522630D01*
X1380011Y522698D01*
X1380126Y522761D01*
X1380245Y522816D01*
X1380402Y522913D01*
X1380565Y523003D01*
X1380671Y523080D01*
X1380782Y523150D01*
X1380926Y523266D01*
X1381075Y523375D01*
X1381170Y523465D01*
X1381273Y523548D01*
X1381400Y523682D01*
X1381535Y523809D01*
X1381618Y523911D01*
X1381709Y524006D01*
X1381819Y524155D01*
X1381936Y524298D01*
X1382006Y524409D01*
X1382084Y524515D01*
X1382174Y524676D01*
X1382272Y524833D01*
X1382338Y524972D01*
X1382392Y525067D01*
X1382432Y525168D01*
X1382498Y525307D01*
X1384147Y529288D01*
X1413812Y558953D01*
X1414933Y559417D01*
X1415070Y559484D01*
X1415210Y559542D01*
X1415353Y559623D01*
X1415501Y559695D01*
X1415628Y559779D01*
X1415760Y559854D01*
X1415891Y559953D01*
X1416028Y560043D01*
X1416144Y560142D01*
X1416266Y560233D01*
X1416384Y560348D01*
X1416508Y560455D01*
X1416610Y560567D01*
X1416720Y560673D01*
X1416822Y560802D01*
X1416932Y560923D01*
X1417019Y561048D01*
X1417114Y561167D01*
X1417200Y561307D01*
X1417294Y561442D01*
X1417364Y561577D01*
X1417444Y561707D01*
X1417511Y561857D01*
X1417587Y562002D01*
X1417640Y562144D01*
X1417702Y562283D01*
X1417750Y562441D01*
X1417807Y562594D01*
X1417842Y562742D01*
X1417886Y562888D01*
X1417913Y563050D01*
X1417951Y563210D01*
X1417966Y563361D01*
X1417992Y563511D01*
X1418002Y563710D01*
X1418015Y563839D01*
X1418013Y563923D01*
X1418019Y564036D01*
X1418019Y580433D01*
X1418787Y582287D01*
X1418826Y582400D01*
X1418873Y582509D01*
X1418928Y582699D01*
X1418992Y582885D01*
X1419016Y583002D01*
X1419049Y583116D01*
X1419080Y583312D01*
X1419119Y583504D01*
X1419128Y583623D01*
X1419147Y583741D01*
X1419152Y583938D01*
X1419167Y584134D01*
X1419161Y584254D01*
X1419165Y584373D01*
X1419146Y584569D01*
X1419136Y584766D01*
X1419115Y584883D01*
X1419103Y585002D01*
X1419059Y585194D01*
X1419025Y585388D01*
X1418989Y585502D01*
X1418963Y585618D01*
X1418878Y585858D01*
X1418836Y585991D01*
X1418812Y586044D01*
X1418787Y586113D01*
X1418019Y587967D01*
X1418019Y591393D01*
X1418014Y591480D01*
X1418016Y591566D01*
X1417994Y591795D01*
X1417979Y592024D01*
X1417963Y592109D01*
X1417955Y592195D01*
X1417903Y592419D01*
X1417860Y592645D01*
X1417833Y592727D01*
X1417814Y592811D01*
X1417703Y593125D01*
X1417663Y593245D01*
X1417651Y593272D01*
X1417639Y593306D01*
X1417399Y593884D01*
X1417399Y599916D01*
X1417639Y600494D01*
X1417667Y600576D01*
X1417702Y600655D01*
X1417769Y600874D01*
X1417843Y601092D01*
X1417861Y601177D01*
X1417886Y601259D01*
X1417924Y601486D01*
X1417971Y601711D01*
X1417977Y601797D01*
X1417992Y601883D01*
X1418009Y602215D01*
X1418019Y602341D01*
X1418017Y602371D01*
X1418019Y602407D01*
X1418019Y605833D01*
X1419085Y608406D01*
X1421039Y610360D01*
X1421233Y610579D01*
X1421430Y610800D01*
X1421443Y610818D01*
X1421457Y610834D01*
X1421621Y611076D01*
X1421789Y611320D01*
X1421799Y611339D01*
X1421812Y611357D01*
X1421944Y611619D01*
X1422080Y611881D01*
X1422088Y611902D01*
X1422098Y611921D01*
X1422196Y612197D01*
X1422298Y612474D01*
X1422303Y612496D01*
X1422310Y612517D01*
X1422373Y612802D01*
X1422439Y613091D01*
X1422441Y613113D01*
X1422445Y613134D01*
X1422472Y613426D01*
X1422501Y613720D01*
X1422500Y613742D01*
X1422502Y613764D01*
X1422491Y614057D01*
X1422483Y614351D01*
X1422479Y614375D01*
X1422479Y617301D01*
X1432560Y617301D01*
X1442641Y617301D01*
X1442641Y617060D01*
X1442652Y616875D01*
X1442654Y616690D01*
X1442672Y616560D01*
X1442681Y616429D01*
X1442716Y616248D01*
X1442741Y616064D01*
X1442775Y615938D01*
X1442800Y615808D01*
X1442858Y615632D01*
X1442906Y615454D01*
X1442956Y615333D01*
X1442997Y615208D01*
X1443076Y615040D01*
X1443146Y614870D01*
X1443211Y614755D01*
X1443267Y614637D01*
X1443367Y614481D01*
X1443458Y614320D01*
X1443537Y614215D01*
X1443608Y614104D01*
X1443727Y613962D01*
X1443838Y613814D01*
X1443929Y613720D01*
X1444013Y613619D01*
X1444149Y613493D01*
X1444278Y613360D01*
X1444380Y613278D01*
X1444477Y613189D01*
X1444627Y613081D01*
X1444771Y612966D01*
X1444884Y612897D01*
X1444990Y612821D01*
X1445153Y612733D01*
X1445311Y612636D01*
X1445431Y612583D01*
X1445546Y612520D01*
X1445719Y612454D01*
X1445888Y612378D01*
X1446013Y612340D01*
X1446136Y612292D01*
X1446316Y612248D01*
X1446493Y612194D01*
X1446622Y612172D01*
X1446750Y612141D01*
X1446933Y612119D01*
X1447116Y612088D01*
X1447269Y612080D01*
X1447377Y612068D01*
X1447486Y612069D01*
X1447640Y612061D01*
X1450816Y612061D01*
X1456388Y609753D01*
X1473353Y592788D01*
X1475661Y587216D01*
X1475661Y403384D01*
X1473353Y397812D01*
X1454930Y379390D01*
X1454765Y379202D01*
X1454594Y379018D01*
X1454556Y378965D01*
X1454513Y378916D01*
X1454372Y378708D01*
X1454226Y378505D01*
X1454195Y378447D01*
X1454158Y378392D01*
X1454045Y378168D01*
X1453926Y377949D01*
X1453902Y377887D01*
X1453872Y377829D01*
X1453788Y377593D01*
X1453698Y377359D01*
X1453682Y377295D01*
X1453660Y377233D01*
X1453606Y376989D01*
X1453546Y376745D01*
X1453539Y376680D01*
X1453524Y376616D01*
X1453502Y376366D01*
X1453473Y376118D01*
X1453474Y376052D01*
X1453468Y375986D01*
X1453477Y375735D01*
X1453480Y375485D01*
X1453489Y375421D01*
X1453491Y375355D01*
X1453532Y375107D01*
X1453566Y374859D01*
X1453584Y374796D01*
X1453594Y374731D01*
X1453666Y374491D01*
X1453731Y374249D01*
X1453756Y374188D01*
X1453775Y374125D01*
X1453876Y373896D01*
X1453972Y373665D01*
X1454004Y373607D01*
X1454031Y373547D01*
X1454160Y373333D01*
X1454284Y373115D01*
X1454323Y373062D01*
X1454357Y373006D01*
X1454513Y372810D01*
X1454663Y372609D01*
X1454709Y372562D01*
X1454750Y372510D01*
X1454929Y372335D01*
X1455103Y372155D01*
X1455155Y372114D01*
X1455201Y372068D01*
X1455401Y371918D01*
X1455597Y371761D01*
X1455653Y371726D01*
X1455705Y371687D01*
X1455922Y371562D01*
X1456136Y371431D01*
X1456197Y371404D01*
X1456253Y371372D01*
X1456484Y371276D01*
X1456713Y371173D01*
X1456776Y371154D01*
X1456837Y371128D01*
X1457079Y371062D01*
X1457318Y370989D01*
X1457383Y370978D01*
X1457446Y370961D01*
X1457694Y370925D01*
X1457941Y370883D01*
X1458015Y370879D01*
X1458072Y370871D01*
X1458212Y370869D01*
X1458465Y370856D01*
X1465367Y370856D01*
X1471441Y368340D01*
X1476090Y363691D01*
X1478621Y357580D01*
X1478746Y357326D01*
X1478867Y357069D01*
X1478885Y357042D01*
X1478900Y357012D01*
X1479056Y356775D01*
X1479208Y356537D01*
X1479229Y356512D01*
X1479247Y356484D01*
X1479432Y356269D01*
X1479613Y356052D01*
X1479637Y356029D01*
X1479659Y356004D01*
X1479869Y355814D01*
X1480077Y355622D01*
X1480103Y355602D01*
X1480128Y355580D01*
X1480360Y355418D01*
X1480590Y355253D01*
X1480619Y355238D01*
X1480646Y355219D01*
X1480898Y355087D01*
X1481146Y354953D01*
X1481177Y354941D01*
X1481206Y354926D01*
X1481471Y354827D01*
X1481736Y354725D01*
X1481768Y354717D01*
X1481799Y354706D01*
X1482074Y354641D01*
X1482350Y354573D01*
X1482382Y354570D01*
X1482414Y354562D01*
X1482697Y354533D01*
X1482977Y354500D01*
X1483010Y354501D01*
X1483043Y354497D01*
X1483327Y354504D01*
X1483610Y354507D01*
X1483642Y354512D01*
X1483675Y354512D01*
X1483955Y354555D01*
X1484236Y354594D01*
X1484267Y354602D01*
X1484300Y354607D01*
X1484573Y354685D01*
X1484846Y354758D01*
X1484876Y354771D01*
X1484908Y354780D01*
X1485169Y354891D01*
X1485430Y354999D01*
X1485459Y355015D01*
X1485489Y355028D01*
X1485734Y355171D01*
X1485980Y355311D01*
X1486006Y355331D01*
X1486035Y355347D01*
X1486259Y355520D01*
X1486486Y355690D01*
X1486509Y355713D01*
X1486535Y355733D01*
X1486736Y355933D01*
X1486940Y356130D01*
X1486960Y356156D01*
X1486983Y356179D01*
X1487158Y356403D01*
X1487334Y356624D01*
X1487351Y356652D01*
X1487372Y356678D01*
X1487516Y356922D01*
X1487664Y357164D01*
X1487677Y357194D01*
X1487694Y357222D01*
X1487806Y357481D01*
X1487922Y357740D01*
X1487932Y357772D01*
X1487945Y357802D01*
X1488023Y358074D01*
X1488106Y358345D01*
X1488111Y358377D01*
X1488120Y358409D01*
X1488164Y358689D01*
X1488212Y358968D01*
X1488214Y359005D01*
X1488218Y359034D01*
X1488222Y359159D01*
X1488239Y359493D01*
X1488239Y653550D01*
X1488225Y653778D01*
X1488218Y654007D01*
X1488205Y654094D01*
X1488199Y654181D01*
X1488156Y654405D01*
X1488121Y654632D01*
X1488097Y654716D01*
X1488080Y654802D01*
X1488009Y655019D01*
X1487945Y655239D01*
X1487911Y655319D01*
X1487883Y655403D01*
X1487785Y655610D01*
X1487695Y655819D01*
X1487650Y655894D01*
X1487613Y655974D01*
X1487489Y656167D01*
X1487373Y656363D01*
X1487319Y656432D01*
X1487272Y656506D01*
X1487125Y656682D01*
X1486985Y656862D01*
X1486923Y656924D01*
X1486867Y656991D01*
X1486699Y657147D01*
X1486537Y657308D01*
X1486468Y657362D01*
X1486403Y657421D01*
X1486218Y657554D01*
X1486037Y657694D01*
X1485961Y657739D01*
X1485890Y657790D01*
X1485689Y657898D01*
X1485491Y658014D01*
X1485411Y658048D01*
X1485334Y658090D01*
X1485120Y658172D01*
X1484910Y658262D01*
X1484826Y658286D01*
X1484744Y658318D01*
X1484522Y658373D01*
X1484302Y658435D01*
X1484215Y658449D01*
X1484130Y658470D01*
X1483903Y658496D01*
X1483677Y658530D01*
X1483590Y658533D01*
X1483503Y658543D01*
X1483274Y658540D01*
X1483045Y658546D01*
X1482958Y658537D01*
X1482870Y658536D01*
X1482644Y658505D01*
X1482416Y658481D01*
X1482331Y658461D01*
X1482244Y658449D01*
X1482024Y658390D01*
X1481801Y658338D01*
X1481718Y658307D01*
X1481634Y658285D01*
X1481423Y658198D01*
X1481208Y658118D01*
X1481120Y658073D01*
X1481050Y658044D01*
X1480933Y657978D01*
X1480740Y657880D01*
X1475292Y654734D01*
X1468892Y653019D01*
X1462268Y653019D01*
X1455868Y654734D01*
X1450131Y658046D01*
X1445446Y662731D01*
X1442134Y668468D01*
X1440419Y674868D01*
X1440419Y681492D01*
X1442134Y687892D01*
X1443490Y690240D01*
X1443592Y690445D01*
X1443700Y690646D01*
X1443732Y690728D01*
X1443771Y690807D01*
X1443846Y691023D01*
X1443928Y691236D01*
X1443949Y691321D01*
X1443978Y691404D01*
X1444025Y691628D01*
X1444080Y691850D01*
X1444090Y691937D01*
X1444108Y692022D01*
X1444126Y692250D01*
X1444153Y692477D01*
X1444152Y692565D01*
X1444159Y692652D01*
X1444149Y692881D01*
X1444146Y693110D01*
X1444134Y693196D01*
X1444130Y693284D01*
X1444091Y693510D01*
X1444060Y693736D01*
X1444037Y693820D01*
X1444022Y693907D01*
X1443954Y694126D01*
X1443895Y694346D01*
X1443862Y694427D01*
X1443836Y694511D01*
X1443741Y694719D01*
X1443654Y694930D01*
X1443611Y695007D01*
X1443575Y695086D01*
X1443455Y695281D01*
X1443342Y695480D01*
X1443289Y695550D01*
X1443244Y695625D01*
X1443100Y695802D01*
X1442963Y695986D01*
X1442902Y696049D01*
X1442847Y696117D01*
X1442682Y696275D01*
X1442523Y696440D01*
X1442454Y696494D01*
X1442391Y696555D01*
X1442208Y696692D01*
X1442029Y696834D01*
X1441954Y696880D01*
X1441884Y696932D01*
X1441685Y697044D01*
X1441490Y697164D01*
X1441410Y697199D01*
X1441333Y697242D01*
X1441122Y697329D01*
X1440913Y697422D01*
X1440829Y697448D01*
X1440748Y697481D01*
X1440527Y697539D01*
X1440308Y697606D01*
X1440222Y697620D01*
X1440137Y697643D01*
X1439910Y697673D01*
X1439685Y697712D01*
X1439586Y697717D01*
X1439510Y697727D01*
X1439376Y697728D01*
X1439161Y697739D01*
X1333500Y697739D01*
X1333315Y697728D01*
X1333130Y697726D01*
X1333000Y697708D01*
X1332869Y697699D01*
X1332688Y697664D01*
X1332504Y697639D01*
X1332378Y697605D01*
X1332248Y697580D01*
X1332072Y697522D01*
X1331894Y697474D01*
X1331773Y697424D01*
X1331648Y697383D01*
X1331480Y697304D01*
X1331310Y697234D01*
X1331195Y697169D01*
X1331077Y697113D01*
X1330921Y697013D01*
X1330760Y696922D01*
X1330655Y696843D01*
X1330544Y696772D01*
X1330402Y696653D01*
X1330254Y696542D01*
X1330160Y696451D01*
X1330059Y696367D01*
X1329933Y696231D01*
X1329800Y696102D01*
X1329718Y696000D01*
X1329629Y695903D01*
X1329521Y695753D01*
X1329406Y695609D01*
X1329337Y695496D01*
X1329261Y695390D01*
X1329173Y695227D01*
X1329076Y695069D01*
X1329023Y694949D01*
X1328960Y694834D01*
X1328894Y694661D01*
X1328818Y694492D01*
X1328780Y694367D01*
X1328732Y694244D01*
X1328688Y694064D01*
X1328634Y693887D01*
X1328612Y693758D01*
X1328581Y693630D01*
X1328559Y693447D01*
X1328528Y693264D01*
X1328520Y693111D01*
X1328508Y693003D01*
X1328509Y692894D01*
X1328501Y692740D01*
X1328501Y543479D01*
X15160Y543479D01*
X14975Y543468D01*
X14790Y543466D01*
X14660Y543448D01*
X14529Y543439D01*
X14348Y543404D01*
X14164Y543379D01*
X14038Y543345D01*
X13908Y543320D01*
X13732Y543262D01*
X13554Y543214D01*
X13433Y543164D01*
X13308Y543123D01*
X13140Y543044D01*
X12970Y542974D01*
X12855Y542909D01*
X12737Y542853D01*
X12581Y542753D01*
X12420Y542662D01*
X12315Y542583D01*
X12204Y542512D01*
X12062Y542393D01*
X11914Y542282D01*
X11820Y542191D01*
X11719Y542107D01*
X11593Y541971D01*
X11460Y541842D01*
X11378Y541740D01*
X11289Y541643D01*
X11181Y541493D01*
X11066Y541349D01*
X10997Y541236D01*
X10921Y541130D01*
X10833Y540967D01*
X10736Y540809D01*
X10683Y540689D01*
X10620Y540574D01*
X10554Y540401D01*
X10478Y540232D01*
X10440Y540107D01*
X10392Y539984D01*
X10348Y539804D01*
X10294Y539627D01*
X10272Y539498D01*
X10241Y539370D01*
X10219Y539187D01*
X10188Y539004D01*
X10180Y538851D01*
X10168Y538743D01*
X10169Y538634D01*
X10161Y538480D01*
X10161Y56420D01*
X10174Y56214D01*
X10178Y56007D01*
X10194Y55898D01*
X10201Y55789D01*
X10240Y55586D01*
X10270Y55382D01*
X10299Y55276D01*
X10320Y55169D01*
X10384Y54972D01*
X10440Y54773D01*
X10482Y54672D01*
X10517Y54568D01*
X10605Y54381D01*
X10686Y54190D01*
X10740Y54096D01*
X10787Y53997D01*
X10899Y53823D01*
X11003Y53644D01*
X11069Y53557D01*
X11128Y53464D01*
X11261Y53305D01*
X11386Y53141D01*
X11463Y53063D01*
X11533Y52979D01*
X11685Y52839D01*
X11830Y52691D01*
X11916Y52623D01*
X11997Y52549D01*
X12165Y52429D01*
X12327Y52301D01*
X12421Y52245D01*
X12510Y52181D01*
X12692Y52083D01*
X12870Y51976D01*
X12970Y51932D01*
X13066Y51880D01*
X13259Y51806D01*
X13449Y51723D01*
X13554Y51692D01*
X13656Y51652D01*
X13857Y51603D01*
X14055Y51544D01*
X14163Y51527D01*
X14270Y51501D01*
X14475Y51477D01*
X14679Y51444D01*
X14789Y51440D01*
X14897Y51428D01*
X15104Y51430D01*
X15311Y51423D01*
X15420Y51433D01*
X15530Y51435D01*
X15734Y51463D01*
X15940Y51482D01*
X16063Y51508D01*
X16156Y51521D01*
X16274Y51553D01*
X16454Y51591D01*
X22088Y53101D01*
X28712Y53101D01*
X35112Y51386D01*
X40849Y48074D01*
X45534Y43389D01*
X48846Y37652D01*
X50561Y31252D01*
X50561Y24628D01*
X48846Y18228D01*
X48518Y17660D01*
X48416Y17455D01*
X48307Y17254D01*
X48276Y17172D01*
X48237Y17093D01*
X48162Y16878D01*
X48080Y16664D01*
X48058Y16579D01*
X48030Y16496D01*
X47983Y16272D01*
X47928Y16050D01*
X47918Y15964D01*
X47900Y15878D01*
X47881Y15649D01*
X47855Y15423D01*
X47856Y15335D01*
X47849Y15248D01*
X47859Y15019D01*
X47862Y14790D01*
X47874Y14704D01*
X47878Y14616D01*
X47917Y14391D01*
X47948Y14164D01*
X47971Y14080D01*
X47986Y13994D01*
X48053Y13775D01*
X48113Y13554D01*
X48146Y13473D01*
X48172Y13389D01*
X48266Y13181D01*
X48353Y12970D01*
X48397Y12893D01*
X48433Y12814D01*
X48553Y12619D01*
X48666Y12420D01*
X48718Y12350D01*
X48764Y12275D01*
X48908Y12097D01*
X49045Y11914D01*
X49106Y11851D01*
X49161Y11783D01*
X49326Y11625D01*
X49485Y11460D01*
X49553Y11406D01*
X49616Y11345D01*
X49800Y11209D01*
X49979Y11066D01*
X50053Y11020D01*
X50124Y10968D01*
X50323Y10856D01*
X50518Y10736D01*
X50598Y10701D01*
X50674Y10658D01*
X50886Y10571D01*
X51095Y10478D01*
X51179Y10452D01*
X51260Y10419D01*
X51481Y10361D01*
X51700Y10294D01*
X51786Y10280D01*
X51871Y10257D01*
X52097Y10227D01*
X52323Y10188D01*
X52422Y10183D01*
X52497Y10173D01*
X52631Y10172D01*
X52847Y10161D01*
X978240Y10161D01*
X978489Y10177D01*
G37*
G36*
X1308285Y553812D02*
X1308285Y553812D01*
X1308470Y553814D01*
X1308600Y553832D01*
X1308731Y553841D01*
X1308912Y553876D01*
X1309096Y553901D01*
X1309222Y553935D01*
X1309352Y553960D01*
X1309528Y554018D01*
X1309706Y554066D01*
X1309827Y554116D01*
X1309952Y554157D01*
X1310120Y554236D01*
X1310290Y554306D01*
X1310405Y554371D01*
X1310523Y554427D01*
X1310679Y554527D01*
X1310840Y554619D01*
X1310945Y554697D01*
X1311056Y554768D01*
X1311198Y554887D01*
X1311346Y554998D01*
X1311440Y555089D01*
X1311541Y555173D01*
X1311667Y555309D01*
X1311800Y555438D01*
X1311882Y555540D01*
X1311971Y555637D01*
X1312079Y555787D01*
X1312194Y555931D01*
X1312263Y556044D01*
X1312339Y556150D01*
X1312427Y556313D01*
X1312524Y556471D01*
X1312577Y556591D01*
X1312640Y556706D01*
X1312706Y556879D01*
X1312782Y557048D01*
X1312820Y557173D01*
X1312868Y557296D01*
X1312912Y557476D01*
X1312966Y557653D01*
X1312988Y557782D01*
X1313019Y557910D01*
X1313041Y558093D01*
X1313072Y558276D01*
X1313080Y558429D01*
X1313092Y558537D01*
X1313091Y558646D01*
X1313099Y558800D01*
X1313099Y692740D01*
X1313088Y692925D01*
X1313086Y693110D01*
X1313068Y693240D01*
X1313059Y693371D01*
X1313024Y693552D01*
X1312999Y693736D01*
X1312965Y693862D01*
X1312940Y693992D01*
X1312882Y694168D01*
X1312834Y694346D01*
X1312784Y694467D01*
X1312743Y694592D01*
X1312664Y694760D01*
X1312594Y694930D01*
X1312529Y695045D01*
X1312473Y695163D01*
X1312373Y695319D01*
X1312282Y695480D01*
X1312203Y695585D01*
X1312132Y695696D01*
X1312013Y695838D01*
X1311902Y695986D01*
X1311811Y696080D01*
X1311727Y696181D01*
X1311591Y696307D01*
X1311462Y696440D01*
X1311360Y696522D01*
X1311263Y696611D01*
X1311113Y696719D01*
X1310969Y696834D01*
X1310856Y696903D01*
X1310750Y696979D01*
X1310587Y697067D01*
X1310429Y697164D01*
X1310309Y697217D01*
X1310194Y697280D01*
X1310021Y697346D01*
X1309852Y697422D01*
X1309727Y697460D01*
X1309604Y697508D01*
X1309424Y697552D01*
X1309247Y697606D01*
X1309118Y697628D01*
X1308990Y697659D01*
X1308807Y697681D01*
X1308624Y697712D01*
X1308471Y697720D01*
X1308363Y697732D01*
X1308254Y697731D01*
X1308100Y697739D01*
X58169Y697739D01*
X57942Y697725D01*
X57713Y697718D01*
X57626Y697705D01*
X57539Y697699D01*
X57314Y697656D01*
X57088Y697621D01*
X57004Y697597D01*
X56918Y697580D01*
X56701Y697509D01*
X56481Y697445D01*
X56400Y697411D01*
X56317Y697383D01*
X56110Y697285D01*
X55901Y697195D01*
X55825Y697150D01*
X55746Y697113D01*
X55553Y696989D01*
X55357Y696873D01*
X55287Y696819D01*
X55214Y696772D01*
X55038Y696625D01*
X54858Y696485D01*
X54796Y696423D01*
X54729Y696367D01*
X54573Y696199D01*
X54412Y696037D01*
X54358Y695968D01*
X54298Y695903D01*
X54165Y695718D01*
X54026Y695536D01*
X53981Y695461D01*
X53930Y695390D01*
X53822Y695189D01*
X53706Y694991D01*
X53671Y694911D01*
X53630Y694834D01*
X53547Y694620D01*
X53457Y694410D01*
X53433Y694326D01*
X53402Y694244D01*
X53347Y694022D01*
X53284Y693802D01*
X53271Y693716D01*
X53250Y693630D01*
X53224Y693403D01*
X53189Y693177D01*
X53187Y693090D01*
X53177Y693003D01*
X53180Y692774D01*
X53174Y692545D01*
X53183Y692458D01*
X53184Y692370D01*
X53215Y692144D01*
X53239Y691916D01*
X53258Y691831D01*
X53270Y691744D01*
X53330Y691523D01*
X53382Y691301D01*
X53412Y691219D01*
X53435Y691134D01*
X53522Y690923D01*
X53602Y690708D01*
X53647Y690620D01*
X53676Y690550D01*
X53742Y690433D01*
X53840Y690240D01*
X55196Y687892D01*
X56911Y681492D01*
X56911Y674868D01*
X55196Y668468D01*
X51884Y662731D01*
X47199Y658046D01*
X41462Y654734D01*
X35062Y653019D01*
X28438Y653019D01*
X22038Y654734D01*
X17660Y657262D01*
X17454Y657364D01*
X17254Y657472D01*
X17172Y657504D01*
X17093Y657543D01*
X16877Y657618D01*
X16664Y657700D01*
X16579Y657721D01*
X16496Y657750D01*
X16272Y657797D01*
X16050Y657852D01*
X15963Y657862D01*
X15878Y657880D01*
X15650Y657898D01*
X15423Y657925D01*
X15335Y657924D01*
X15248Y657931D01*
X15019Y657921D01*
X14790Y657918D01*
X14704Y657906D01*
X14616Y657902D01*
X14391Y657863D01*
X14164Y657832D01*
X14080Y657809D01*
X13993Y657794D01*
X13775Y657726D01*
X13554Y657667D01*
X13473Y657634D01*
X13389Y657608D01*
X13181Y657513D01*
X12970Y657426D01*
X12893Y657383D01*
X12814Y657347D01*
X12619Y657227D01*
X12420Y657114D01*
X12350Y657061D01*
X12275Y657016D01*
X12097Y656872D01*
X11914Y656735D01*
X11851Y656674D01*
X11783Y656619D01*
X11625Y656454D01*
X11460Y656295D01*
X11406Y656226D01*
X11345Y656163D01*
X11209Y655980D01*
X11066Y655801D01*
X11020Y655726D01*
X10968Y655656D01*
X10856Y655457D01*
X10736Y655262D01*
X10701Y655182D01*
X10658Y655105D01*
X10571Y654894D01*
X10478Y654685D01*
X10452Y654601D01*
X10419Y654520D01*
X10361Y654299D01*
X10294Y654080D01*
X10280Y653994D01*
X10257Y653909D01*
X10227Y653682D01*
X10188Y653457D01*
X10183Y653358D01*
X10173Y653282D01*
X10172Y653148D01*
X10161Y652933D01*
X10161Y558800D01*
X10172Y558615D01*
X10174Y558430D01*
X10192Y558300D01*
X10201Y558169D01*
X10236Y557988D01*
X10261Y557804D01*
X10295Y557678D01*
X10320Y557548D01*
X10378Y557372D01*
X10426Y557194D01*
X10476Y557073D01*
X10517Y556948D01*
X10596Y556780D01*
X10666Y556610D01*
X10731Y556495D01*
X10787Y556377D01*
X10887Y556221D01*
X10978Y556060D01*
X11057Y555955D01*
X11128Y555844D01*
X11247Y555702D01*
X11358Y555554D01*
X11449Y555460D01*
X11533Y555359D01*
X11669Y555233D01*
X11798Y555100D01*
X11900Y555018D01*
X11997Y554929D01*
X12147Y554821D01*
X12291Y554706D01*
X12404Y554637D01*
X12510Y554561D01*
X12673Y554473D01*
X12831Y554376D01*
X12951Y554323D01*
X13066Y554260D01*
X13239Y554194D01*
X13408Y554118D01*
X13533Y554080D01*
X13656Y554032D01*
X13836Y553988D01*
X14013Y553934D01*
X14142Y553912D01*
X14270Y553881D01*
X14453Y553859D01*
X14636Y553828D01*
X14789Y553820D01*
X14897Y553808D01*
X15006Y553809D01*
X15160Y553801D01*
X1308100Y553801D01*
X1308285Y553812D01*
G37*
G36*
X1298058Y38758D02*
X1298058Y38758D01*
X1298178Y38756D01*
X1298374Y38778D01*
X1298570Y38791D01*
X1298687Y38813D01*
X1298806Y38826D01*
X1298998Y38873D01*
X1299191Y38910D01*
X1299305Y38947D01*
X1299420Y38975D01*
X1299604Y39045D01*
X1299792Y39107D01*
X1299900Y39158D01*
X1300011Y39200D01*
X1300185Y39293D01*
X1300363Y39377D01*
X1300464Y39442D01*
X1300569Y39498D01*
X1300729Y39612D01*
X1300895Y39718D01*
X1300987Y39795D01*
X1301084Y39864D01*
X1301273Y40034D01*
X1301380Y40123D01*
X1301420Y40166D01*
X1301474Y40215D01*
X1393075Y131816D01*
X1393154Y131905D01*
X1393240Y131988D01*
X1393363Y132142D01*
X1393493Y132290D01*
X1393560Y132389D01*
X1393634Y132482D01*
X1393737Y132650D01*
X1393847Y132813D01*
X1393901Y132920D01*
X1393964Y133021D01*
X1394044Y133201D01*
X1394133Y133377D01*
X1394173Y133489D01*
X1394222Y133598D01*
X1394279Y133787D01*
X1394346Y133972D01*
X1394371Y134089D01*
X1394406Y134203D01*
X1394439Y134398D01*
X1394481Y134590D01*
X1394492Y134708D01*
X1394512Y134826D01*
X1394525Y135080D01*
X1394538Y135219D01*
X1394535Y135277D01*
X1394539Y135351D01*
X1394539Y334786D01*
X1394861Y335564D01*
X1394911Y335708D01*
X1394969Y335848D01*
X1395013Y336006D01*
X1395066Y336162D01*
X1395097Y336311D01*
X1395137Y336457D01*
X1395160Y336620D01*
X1395193Y336781D01*
X1395205Y336932D01*
X1395227Y337083D01*
X1395229Y337248D01*
X1395242Y337411D01*
X1395234Y337563D01*
X1395236Y337715D01*
X1395218Y337878D01*
X1395210Y338042D01*
X1395183Y338192D01*
X1395166Y338343D01*
X1395128Y338503D01*
X1395099Y338665D01*
X1395053Y338810D01*
X1395018Y338958D01*
X1394959Y339111D01*
X1394910Y339268D01*
X1394847Y339406D01*
X1394793Y339548D01*
X1394715Y339693D01*
X1394647Y339842D01*
X1394566Y339972D01*
X1394495Y340106D01*
X1394400Y340240D01*
X1394313Y340379D01*
X1394217Y340497D01*
X1394129Y340621D01*
X1393995Y340770D01*
X1393914Y340870D01*
X1393853Y340928D01*
X1393778Y341012D01*
X1390177Y344613D01*
X1390038Y344735D01*
X1389906Y344865D01*
X1389801Y344944D01*
X1389702Y345031D01*
X1389549Y345134D01*
X1389402Y345246D01*
X1389288Y345312D01*
X1389179Y345385D01*
X1389014Y345469D01*
X1388854Y345561D01*
X1388732Y345612D01*
X1388615Y345671D01*
X1388441Y345733D01*
X1388270Y345804D01*
X1388144Y345839D01*
X1388020Y345883D01*
X1387839Y345923D01*
X1387661Y345972D01*
X1387530Y345991D01*
X1387402Y346019D01*
X1387219Y346035D01*
X1387035Y346062D01*
X1386904Y346064D01*
X1386773Y346075D01*
X1386588Y346069D01*
X1386403Y346071D01*
X1386273Y346057D01*
X1386141Y346052D01*
X1385959Y346022D01*
X1385775Y346001D01*
X1385647Y345971D01*
X1385518Y345949D01*
X1385341Y345896D01*
X1385161Y345853D01*
X1385038Y345806D01*
X1384912Y345768D01*
X1384743Y345694D01*
X1384570Y345628D01*
X1384454Y345566D01*
X1384334Y345513D01*
X1384176Y345417D01*
X1384012Y345330D01*
X1383905Y345254D01*
X1383793Y345186D01*
X1383648Y345071D01*
X1383497Y344964D01*
X1383382Y344861D01*
X1383297Y344794D01*
X1383221Y344716D01*
X1383107Y344613D01*
X1380317Y341823D01*
X1374972Y339609D01*
X1369188Y339609D01*
X1363843Y341823D01*
X1361929Y343738D01*
X1361858Y343800D01*
X1361847Y343811D01*
X1361828Y343827D01*
X1361790Y343860D01*
X1361658Y343989D01*
X1361553Y344069D01*
X1361454Y344155D01*
X1361301Y344259D01*
X1361154Y344371D01*
X1361040Y344436D01*
X1360931Y344510D01*
X1360766Y344594D01*
X1360606Y344686D01*
X1360484Y344737D01*
X1360367Y344796D01*
X1360193Y344858D01*
X1360022Y344929D01*
X1359896Y344964D01*
X1359772Y345008D01*
X1359591Y345048D01*
X1359413Y345097D01*
X1359283Y345116D01*
X1359155Y345144D01*
X1358970Y345160D01*
X1358787Y345186D01*
X1358656Y345188D01*
X1358525Y345200D01*
X1358340Y345193D01*
X1358155Y345196D01*
X1358025Y345182D01*
X1357893Y345177D01*
X1357711Y345147D01*
X1357527Y345126D01*
X1357399Y345095D01*
X1357270Y345074D01*
X1357093Y345021D01*
X1356913Y344978D01*
X1356790Y344931D01*
X1356664Y344893D01*
X1356495Y344818D01*
X1356322Y344752D01*
X1356206Y344691D01*
X1356086Y344637D01*
X1355927Y344542D01*
X1355764Y344455D01*
X1355657Y344379D01*
X1355545Y344311D01*
X1355400Y344196D01*
X1355249Y344089D01*
X1355135Y343986D01*
X1355049Y343918D01*
X1354973Y343841D01*
X1354859Y343738D01*
X1351441Y340320D01*
X1345367Y337804D01*
X1338793Y337804D01*
X1332719Y340320D01*
X1328070Y344969D01*
X1325554Y351043D01*
X1325554Y357617D01*
X1326097Y358927D01*
X1326167Y359133D01*
X1326246Y359336D01*
X1326269Y359432D01*
X1326301Y359525D01*
X1326345Y359738D01*
X1326397Y359950D01*
X1326409Y360047D01*
X1326429Y360144D01*
X1326445Y360361D01*
X1326470Y360577D01*
X1326469Y360676D01*
X1326477Y360774D01*
X1326466Y360992D01*
X1326464Y361210D01*
X1326450Y361307D01*
X1326445Y361406D01*
X1326407Y361620D01*
X1326377Y361836D01*
X1326352Y361931D01*
X1326334Y362028D01*
X1326269Y362236D01*
X1326212Y362446D01*
X1326175Y362537D01*
X1326145Y362631D01*
X1326055Y362829D01*
X1325972Y363030D01*
X1325923Y363116D01*
X1325882Y363206D01*
X1325767Y363391D01*
X1325660Y363580D01*
X1325600Y363659D01*
X1325548Y363743D01*
X1325411Y363912D01*
X1325280Y364086D01*
X1325212Y364157D01*
X1325150Y364233D01*
X1324992Y364383D01*
X1324840Y364540D01*
X1324764Y364601D01*
X1324692Y364669D01*
X1324517Y364798D01*
X1324347Y364934D01*
X1324263Y364986D01*
X1324183Y365044D01*
X1323993Y365150D01*
X1323807Y365264D01*
X1323717Y365304D01*
X1323631Y365352D01*
X1323429Y365433D01*
X1323230Y365522D01*
X1323136Y365551D01*
X1323045Y365587D01*
X1322834Y365642D01*
X1322626Y365706D01*
X1322528Y365722D01*
X1322433Y365747D01*
X1322217Y365775D01*
X1322002Y365812D01*
X1321890Y365818D01*
X1321806Y365828D01*
X1321677Y365829D01*
X1321478Y365839D01*
X1312838Y365839D01*
X1312816Y365838D01*
X1312795Y365839D01*
X1312500Y365818D01*
X1312207Y365799D01*
X1312186Y365795D01*
X1312164Y365794D01*
X1311875Y365735D01*
X1311586Y365680D01*
X1311566Y365673D01*
X1311545Y365669D01*
X1311265Y365575D01*
X1310985Y365483D01*
X1310966Y365474D01*
X1310946Y365467D01*
X1310681Y365339D01*
X1310414Y365213D01*
X1310396Y365201D01*
X1310377Y365192D01*
X1310132Y365032D01*
X1309882Y364872D01*
X1309865Y364858D01*
X1309847Y364846D01*
X1309623Y364656D01*
X1309397Y364467D01*
X1309382Y364451D01*
X1309366Y364437D01*
X1309167Y364219D01*
X1308967Y364003D01*
X1308954Y363986D01*
X1308940Y363970D01*
X1308770Y363729D01*
X1308598Y363490D01*
X1308588Y363471D01*
X1308576Y363453D01*
X1308437Y363192D01*
X1308298Y362934D01*
X1308290Y362914D01*
X1308280Y362895D01*
X1308176Y362618D01*
X1308070Y362344D01*
X1308065Y362323D01*
X1308057Y362303D01*
X1307989Y362016D01*
X1307918Y361730D01*
X1307916Y361709D01*
X1307911Y361688D01*
X1307879Y361394D01*
X1307845Y361103D01*
X1307846Y361081D01*
X1307843Y361060D01*
X1307849Y360763D01*
X1307851Y360599D01*
X1299210Y360599D01*
X1299026Y360588D01*
X1298841Y360586D01*
X1298711Y360568D01*
X1298580Y360559D01*
X1298398Y360525D01*
X1298215Y360499D01*
X1298088Y360465D01*
X1297959Y360440D01*
X1297783Y360383D01*
X1297604Y360334D01*
X1297483Y360285D01*
X1297358Y360244D01*
X1297191Y360164D01*
X1297020Y360094D01*
X1296906Y360029D01*
X1296787Y359973D01*
X1296631Y359873D01*
X1296470Y359782D01*
X1296365Y359703D01*
X1296255Y359632D01*
X1296112Y359513D01*
X1295965Y359402D01*
X1295964Y359402D01*
X1295870Y359311D01*
X1295769Y359227D01*
X1295769Y359226D01*
X1295643Y359091D01*
X1295510Y358962D01*
X1295428Y358859D01*
X1295339Y358763D01*
X1295231Y358613D01*
X1295116Y358468D01*
X1295047Y358356D01*
X1294971Y358249D01*
X1294883Y358087D01*
X1294786Y357929D01*
X1294732Y357809D01*
X1294670Y357693D01*
X1294603Y357521D01*
X1294528Y357352D01*
X1294490Y357226D01*
X1294442Y357104D01*
X1294398Y356924D01*
X1294344Y356747D01*
X1294322Y356617D01*
X1294291Y356490D01*
X1294269Y356307D01*
X1294238Y356124D01*
X1294230Y355970D01*
X1294217Y355862D01*
X1294219Y355753D01*
X1294211Y355600D01*
X1294211Y347395D01*
X1294189Y347406D01*
X1293512Y347897D01*
X1293420Y347956D01*
X1293334Y348021D01*
X1293154Y348125D01*
X1292978Y348236D01*
X1292880Y348282D01*
X1292786Y348336D01*
X1292594Y348416D01*
X1292406Y348504D01*
X1292303Y348538D01*
X1292202Y348579D01*
X1292002Y348635D01*
X1291804Y348698D01*
X1291698Y348718D01*
X1291593Y348747D01*
X1291387Y348777D01*
X1291183Y348815D01*
X1291075Y348821D01*
X1290967Y348837D01*
X1290759Y348840D01*
X1290552Y348852D01*
X1290444Y348845D01*
X1290335Y348847D01*
X1290128Y348823D01*
X1289921Y348809D01*
X1289815Y348789D01*
X1289707Y348777D01*
X1289505Y348728D01*
X1289301Y348688D01*
X1289198Y348653D01*
X1289092Y348628D01*
X1288899Y348554D01*
X1288701Y348488D01*
X1288603Y348441D01*
X1288502Y348403D01*
X1288319Y348305D01*
X1288131Y348215D01*
X1288040Y348156D01*
X1287944Y348105D01*
X1287775Y347985D01*
X1287600Y347872D01*
X1287517Y347802D01*
X1287429Y347739D01*
X1287224Y347555D01*
X1287117Y347465D01*
X1287084Y347429D01*
X1287038Y347388D01*
X1282398Y342747D01*
X1276826Y340439D01*
X1270794Y340439D01*
X1265222Y342747D01*
X1260957Y347012D01*
X1258649Y352584D01*
X1258649Y375126D01*
X1260957Y380698D01*
X1274112Y393853D01*
X1279684Y396161D01*
X1400016Y396161D01*
X1405588Y393853D01*
X1412515Y386926D01*
X1412654Y386803D01*
X1412786Y386674D01*
X1412891Y386595D01*
X1412989Y386508D01*
X1413142Y386404D01*
X1413290Y386292D01*
X1413404Y386227D01*
X1413513Y386153D01*
X1413678Y386069D01*
X1413838Y385977D01*
X1413959Y385927D01*
X1414076Y385867D01*
X1414251Y385805D01*
X1414421Y385734D01*
X1414548Y385699D01*
X1414672Y385655D01*
X1414852Y385615D01*
X1415031Y385566D01*
X1415161Y385548D01*
X1415289Y385520D01*
X1415473Y385503D01*
X1415656Y385477D01*
X1415788Y385475D01*
X1415919Y385463D01*
X1416104Y385470D01*
X1416288Y385467D01*
X1416419Y385481D01*
X1416550Y385486D01*
X1416733Y385516D01*
X1416917Y385537D01*
X1417044Y385568D01*
X1417174Y385589D01*
X1417351Y385642D01*
X1417531Y385686D01*
X1417654Y385733D01*
X1417780Y385770D01*
X1417949Y385845D01*
X1418122Y385911D01*
X1418238Y385973D01*
X1418358Y386026D01*
X1418516Y386121D01*
X1418679Y386209D01*
X1418786Y386284D01*
X1418899Y386352D01*
X1419044Y386467D01*
X1419195Y386574D01*
X1419309Y386677D01*
X1419395Y386745D01*
X1419471Y386823D01*
X1419585Y386926D01*
X1443875Y411216D01*
X1443954Y411305D01*
X1444040Y411388D01*
X1444163Y411542D01*
X1444293Y411690D01*
X1444360Y411789D01*
X1444434Y411882D01*
X1444537Y412050D01*
X1444647Y412213D01*
X1444701Y412320D01*
X1444764Y412421D01*
X1444844Y412601D01*
X1444933Y412777D01*
X1444973Y412889D01*
X1445022Y412998D01*
X1445079Y413187D01*
X1445146Y413372D01*
X1445171Y413489D01*
X1445206Y413603D01*
X1445239Y413798D01*
X1445281Y413990D01*
X1445292Y414108D01*
X1445312Y414226D01*
X1445325Y414480D01*
X1445338Y414619D01*
X1445335Y414677D01*
X1445339Y414751D01*
X1445339Y450360D01*
X1445328Y450545D01*
X1445326Y450730D01*
X1445308Y450860D01*
X1445299Y450991D01*
X1445264Y451172D01*
X1445239Y451356D01*
X1445205Y451482D01*
X1445180Y451612D01*
X1445122Y451788D01*
X1445074Y451966D01*
X1445024Y452087D01*
X1444983Y452212D01*
X1444904Y452380D01*
X1444834Y452550D01*
X1444769Y452665D01*
X1444713Y452783D01*
X1444613Y452939D01*
X1444522Y453100D01*
X1444443Y453205D01*
X1444372Y453316D01*
X1444253Y453458D01*
X1444142Y453606D01*
X1444051Y453700D01*
X1443967Y453801D01*
X1443831Y453927D01*
X1443702Y454060D01*
X1443600Y454142D01*
X1443503Y454231D01*
X1443353Y454339D01*
X1443209Y454454D01*
X1443096Y454523D01*
X1442990Y454599D01*
X1442827Y454687D01*
X1442669Y454784D01*
X1442549Y454837D01*
X1442434Y454900D01*
X1442261Y454966D01*
X1442092Y455042D01*
X1441967Y455080D01*
X1441844Y455128D01*
X1441664Y455172D01*
X1441487Y455226D01*
X1441358Y455248D01*
X1441230Y455279D01*
X1441047Y455301D01*
X1440864Y455332D01*
X1440711Y455340D01*
X1440603Y455352D01*
X1440494Y455351D01*
X1440340Y455359D01*
X1423627Y455359D01*
X1421054Y456425D01*
X1420695Y456784D01*
X1420507Y456950D01*
X1420323Y457121D01*
X1420270Y457159D01*
X1420221Y457202D01*
X1420013Y457343D01*
X1419810Y457489D01*
X1419752Y457520D01*
X1419697Y457557D01*
X1419474Y457670D01*
X1419254Y457789D01*
X1419192Y457813D01*
X1419134Y457843D01*
X1418897Y457927D01*
X1418664Y458017D01*
X1418600Y458033D01*
X1418538Y458055D01*
X1418293Y458109D01*
X1418050Y458169D01*
X1417985Y458176D01*
X1417921Y458190D01*
X1417671Y458213D01*
X1417423Y458242D01*
X1417357Y458241D01*
X1417291Y458247D01*
X1417040Y458238D01*
X1416790Y458235D01*
X1416725Y458226D01*
X1416660Y458224D01*
X1416412Y458183D01*
X1416164Y458149D01*
X1416101Y458131D01*
X1416036Y458121D01*
X1415796Y458049D01*
X1415554Y457984D01*
X1415493Y457959D01*
X1415430Y457940D01*
X1415201Y457839D01*
X1414970Y457743D01*
X1414912Y457711D01*
X1414852Y457684D01*
X1414638Y457555D01*
X1414420Y457431D01*
X1414367Y457392D01*
X1414311Y457358D01*
X1414114Y457202D01*
X1413914Y457052D01*
X1413867Y457006D01*
X1413816Y456965D01*
X1413640Y456786D01*
X1413460Y456612D01*
X1413419Y456561D01*
X1413373Y456514D01*
X1413222Y456314D01*
X1413066Y456118D01*
X1413031Y456062D01*
X1412992Y456010D01*
X1412867Y455793D01*
X1412736Y455579D01*
X1412709Y455518D01*
X1412677Y455462D01*
X1412581Y455231D01*
X1412478Y455002D01*
X1412459Y454939D01*
X1412434Y454878D01*
X1412404Y454773D01*
X1409853Y448612D01*
X1380188Y418947D01*
X1374616Y416639D01*
X939280Y416639D01*
X939161Y416632D01*
X939042Y416634D01*
X938846Y416612D01*
X938649Y416599D01*
X938532Y416577D01*
X938413Y416564D01*
X938222Y416517D01*
X938028Y416480D01*
X937915Y416443D01*
X937799Y416415D01*
X937615Y416345D01*
X937428Y416283D01*
X937320Y416232D01*
X937208Y416190D01*
X937035Y416097D01*
X936857Y416013D01*
X936756Y415948D01*
X936651Y415892D01*
X936490Y415778D01*
X936324Y415672D01*
X936232Y415595D01*
X936135Y415526D01*
X935947Y415356D01*
X935839Y415267D01*
X935800Y415224D01*
X935745Y415175D01*
X859547Y338977D01*
X859403Y338813D01*
X859252Y338655D01*
X859194Y338576D01*
X859129Y338502D01*
X859006Y338322D01*
X858877Y338146D01*
X858829Y338060D01*
X858774Y337979D01*
X858676Y337785D01*
X858569Y337594D01*
X858533Y337503D01*
X858488Y337415D01*
X858415Y337210D01*
X858334Y337008D01*
X858309Y336912D01*
X858276Y336820D01*
X858229Y336607D01*
X858174Y336396D01*
X858162Y336298D01*
X858141Y336202D01*
X858121Y335985D01*
X858093Y335769D01*
X858093Y335671D01*
X858084Y335573D01*
X858092Y335355D01*
X858092Y335137D01*
X858104Y335039D01*
X858107Y334941D01*
X858143Y334726D01*
X858170Y334510D01*
X858194Y334414D01*
X858210Y334318D01*
X858273Y334109D01*
X858327Y333897D01*
X858363Y333806D01*
X858391Y333712D01*
X858479Y333513D01*
X858560Y333310D01*
X858607Y333224D01*
X858647Y333134D01*
X858760Y332947D01*
X858865Y332756D01*
X858923Y332677D01*
X858973Y332593D01*
X859109Y332422D01*
X859237Y332246D01*
X859305Y332174D01*
X859366Y332097D01*
X859522Y331945D01*
X859671Y331786D01*
X859747Y331724D01*
X859818Y331655D01*
X859991Y331523D01*
X860160Y331385D01*
X860220Y331347D01*
X860304Y331273D01*
X860436Y331144D01*
X860541Y331064D01*
X860639Y330978D01*
X860793Y330874D01*
X860940Y330762D01*
X861054Y330697D01*
X861163Y330623D01*
X861328Y330539D01*
X861488Y330447D01*
X861609Y330397D01*
X861726Y330337D01*
X861901Y330275D01*
X862071Y330204D01*
X862198Y330169D01*
X862322Y330125D01*
X862502Y330085D01*
X862681Y330036D01*
X862811Y330018D01*
X862939Y329990D01*
X863123Y329973D01*
X863307Y329947D01*
X863438Y329945D01*
X863569Y329933D01*
X863754Y329940D01*
X863939Y329937D01*
X864069Y329952D01*
X864200Y329956D01*
X864383Y329986D01*
X864567Y330007D01*
X864695Y330038D01*
X864824Y330059D01*
X865001Y330112D01*
X865181Y330156D01*
X865304Y330203D01*
X865430Y330240D01*
X865599Y330315D01*
X865772Y330381D01*
X865888Y330443D01*
X866008Y330496D01*
X866166Y330591D01*
X866329Y330679D01*
X866436Y330754D01*
X866549Y330822D01*
X866694Y330937D01*
X866845Y331044D01*
X866912Y331105D01*
X873088Y333663D01*
X879712Y333663D01*
X885887Y331105D01*
X885941Y331064D01*
X886039Y330978D01*
X886193Y330874D01*
X886340Y330762D01*
X886454Y330697D01*
X886563Y330623D01*
X886728Y330539D01*
X886888Y330447D01*
X887009Y330397D01*
X887126Y330337D01*
X887301Y330275D01*
X887471Y330204D01*
X887598Y330169D01*
X887722Y330125D01*
X887902Y330085D01*
X888081Y330036D01*
X888211Y330018D01*
X888339Y329990D01*
X888523Y329973D01*
X888707Y329947D01*
X888838Y329945D01*
X888969Y329933D01*
X889154Y329940D01*
X889339Y329937D01*
X889469Y329952D01*
X889600Y329956D01*
X889783Y329986D01*
X889967Y330007D01*
X890095Y330038D01*
X890224Y330059D01*
X890401Y330112D01*
X890581Y330156D01*
X890704Y330203D01*
X890830Y330240D01*
X890999Y330315D01*
X891172Y330381D01*
X891288Y330443D01*
X891408Y330496D01*
X891566Y330591D01*
X891729Y330679D01*
X891836Y330754D01*
X891949Y330822D01*
X892094Y330937D01*
X892245Y331044D01*
X892312Y331105D01*
X898488Y333663D01*
X905112Y333663D01*
X911233Y331128D01*
X914389Y327971D01*
X914512Y327863D01*
X914627Y327748D01*
X914749Y327655D01*
X914864Y327553D01*
X914999Y327462D01*
X915128Y327362D01*
X915260Y327285D01*
X915387Y327199D01*
X915532Y327125D01*
X915673Y327043D01*
X915814Y326982D01*
X915951Y326913D01*
X916105Y326858D01*
X916254Y326794D01*
X916401Y326752D01*
X916546Y326701D01*
X916705Y326666D01*
X916862Y326621D01*
X917014Y326598D01*
X917163Y326565D01*
X917326Y326551D01*
X917487Y326526D01*
X917640Y326522D01*
X917793Y326509D01*
X917956Y326515D01*
X918119Y326511D01*
X918272Y326526D01*
X918425Y326532D01*
X918586Y326559D01*
X918748Y326575D01*
X918897Y326610D01*
X919048Y326635D01*
X919204Y326682D01*
X919363Y326719D01*
X919507Y326772D01*
X919654Y326816D01*
X919803Y326882D01*
X919956Y326938D01*
X920119Y327022D01*
X920232Y327071D01*
X920312Y327120D01*
X920424Y327177D01*
X921796Y327969D01*
X922201Y328137D01*
X922201Y317010D01*
X922201Y305608D01*
X922113Y305607D01*
X922004Y305615D01*
X921797Y305603D01*
X921590Y305601D01*
X921482Y305586D01*
X921373Y305580D01*
X921169Y305543D01*
X920964Y305515D01*
X920859Y305486D01*
X920751Y305466D01*
X920553Y305404D01*
X920354Y305350D01*
X920253Y305308D01*
X920148Y305275D01*
X919961Y305188D01*
X919770Y305109D01*
X919674Y305055D01*
X919575Y305009D01*
X919400Y304899D01*
X919220Y304797D01*
X919132Y304731D01*
X919040Y304673D01*
X918880Y304542D01*
X918714Y304418D01*
X918636Y304342D01*
X918551Y304272D01*
X918409Y304122D01*
X918260Y303978D01*
X918192Y303892D01*
X918117Y303813D01*
X917995Y303646D01*
X917866Y303484D01*
X917809Y303391D01*
X917744Y303302D01*
X917644Y303121D01*
X917536Y302945D01*
X917492Y302845D01*
X917439Y302749D01*
X917362Y302557D01*
X917278Y302368D01*
X917246Y302263D01*
X917206Y302161D01*
X917154Y301961D01*
X917094Y301763D01*
X917076Y301655D01*
X917049Y301549D01*
X917023Y301344D01*
X916988Y301140D01*
X916982Y301014D01*
X916970Y300922D01*
X916970Y300799D01*
X916961Y300616D01*
X916961Y195350D01*
X916972Y195165D01*
X916974Y194980D01*
X916992Y194850D01*
X917001Y194719D01*
X917036Y194538D01*
X917061Y194354D01*
X917095Y194228D01*
X917120Y194098D01*
X917178Y193922D01*
X917226Y193744D01*
X917276Y193623D01*
X917317Y193498D01*
X917396Y193330D01*
X917466Y193160D01*
X917531Y193045D01*
X917587Y192927D01*
X917687Y192771D01*
X917778Y192610D01*
X917857Y192505D01*
X917928Y192394D01*
X918047Y192252D01*
X918158Y192104D01*
X918249Y192010D01*
X918333Y191909D01*
X918469Y191783D01*
X918598Y191650D01*
X918700Y191568D01*
X918797Y191479D01*
X918947Y191371D01*
X919091Y191256D01*
X919204Y191187D01*
X919310Y191111D01*
X919473Y191023D01*
X919631Y190926D01*
X919751Y190873D01*
X919866Y190810D01*
X920039Y190744D01*
X920208Y190668D01*
X920333Y190630D01*
X920456Y190582D01*
X920636Y190538D01*
X920813Y190484D01*
X920942Y190462D01*
X921070Y190431D01*
X921253Y190409D01*
X921436Y190378D01*
X921589Y190370D01*
X921697Y190358D01*
X921806Y190359D01*
X921960Y190351D01*
X1000348Y190351D01*
X1005920Y188043D01*
X1024782Y169181D01*
X1024871Y169102D01*
X1024954Y169017D01*
X1025108Y168893D01*
X1025256Y168763D01*
X1025355Y168696D01*
X1025448Y168622D01*
X1025616Y168519D01*
X1025779Y168409D01*
X1025886Y168355D01*
X1025988Y168293D01*
X1026167Y168212D01*
X1026343Y168123D01*
X1026456Y168083D01*
X1026564Y168034D01*
X1026753Y167977D01*
X1026938Y167911D01*
X1027055Y167885D01*
X1027169Y167850D01*
X1027364Y167817D01*
X1027556Y167775D01*
X1027675Y167764D01*
X1027792Y167744D01*
X1028046Y167731D01*
X1028185Y167719D01*
X1028243Y167721D01*
X1028317Y167717D01*
X1106999Y167717D01*
X1107216Y167731D01*
X1107434Y167736D01*
X1107531Y167751D01*
X1107629Y167757D01*
X1107843Y167798D01*
X1108059Y167831D01*
X1108153Y167857D01*
X1108250Y167876D01*
X1108458Y167944D01*
X1108667Y168003D01*
X1108757Y168042D01*
X1108851Y168073D01*
X1109048Y168166D01*
X1109248Y168251D01*
X1109333Y168301D01*
X1109422Y168344D01*
X1109605Y168461D01*
X1109793Y168571D01*
X1109871Y168631D01*
X1109954Y168684D01*
X1110122Y168824D01*
X1110294Y168957D01*
X1110364Y169026D01*
X1110439Y169089D01*
X1110588Y169249D01*
X1110742Y169403D01*
X1110803Y169480D01*
X1110870Y169553D01*
X1110996Y169729D01*
X1111130Y169902D01*
X1111181Y169987D01*
X1111238Y170066D01*
X1111341Y170258D01*
X1111452Y170445D01*
X1111491Y170536D01*
X1111538Y170623D01*
X1111617Y170825D01*
X1111703Y171026D01*
X1111731Y171120D01*
X1111766Y171212D01*
X1111818Y171424D01*
X1111879Y171633D01*
X1111894Y171730D01*
X1111918Y171826D01*
X1111943Y172042D01*
X1111977Y172257D01*
X1111979Y172356D01*
X1111991Y172454D01*
X1111989Y172671D01*
X1111995Y172889D01*
X1111985Y172987D01*
X1111984Y173086D01*
X1111954Y173301D01*
X1111933Y173518D01*
X1111911Y173614D01*
X1111898Y173712D01*
X1111841Y173922D01*
X1111792Y174134D01*
X1111755Y174240D01*
X1111733Y174322D01*
X1111684Y174441D01*
X1111617Y174629D01*
X1111329Y175324D01*
X1111329Y181356D01*
X1113637Y186928D01*
X1114214Y187505D01*
X1114337Y187644D01*
X1114466Y187776D01*
X1114545Y187881D01*
X1114632Y187979D01*
X1114736Y188132D01*
X1114848Y188280D01*
X1114913Y188394D01*
X1114987Y188502D01*
X1115071Y188668D01*
X1115163Y188828D01*
X1115213Y188949D01*
X1115273Y189066D01*
X1115335Y189241D01*
X1115406Y189411D01*
X1115441Y189538D01*
X1115485Y189662D01*
X1115525Y189842D01*
X1115574Y190021D01*
X1115592Y190151D01*
X1115620Y190279D01*
X1115637Y190463D01*
X1115663Y190646D01*
X1115665Y190778D01*
X1115677Y190909D01*
X1115670Y191093D01*
X1115673Y191278D01*
X1115658Y191409D01*
X1115654Y191540D01*
X1115624Y191723D01*
X1115603Y191907D01*
X1115572Y192035D01*
X1115551Y192164D01*
X1115498Y192341D01*
X1115454Y192521D01*
X1115408Y192644D01*
X1115370Y192770D01*
X1115295Y192939D01*
X1115229Y193112D01*
X1115167Y193228D01*
X1115114Y193348D01*
X1115019Y193506D01*
X1114931Y193669D01*
X1114856Y193776D01*
X1114788Y193889D01*
X1114673Y194034D01*
X1114566Y194185D01*
X1114463Y194299D01*
X1114395Y194384D01*
X1114317Y194461D01*
X1114214Y194575D01*
X1109514Y199275D01*
X1109425Y199354D01*
X1109342Y199440D01*
X1109188Y199563D01*
X1109040Y199693D01*
X1108941Y199760D01*
X1108848Y199834D01*
X1108680Y199937D01*
X1108517Y200047D01*
X1108410Y200101D01*
X1108309Y200164D01*
X1108129Y200244D01*
X1107953Y200333D01*
X1107841Y200373D01*
X1107732Y200422D01*
X1107543Y200479D01*
X1107358Y200546D01*
X1107241Y200571D01*
X1107127Y200606D01*
X1106932Y200639D01*
X1106740Y200681D01*
X1106622Y200692D01*
X1106504Y200712D01*
X1106250Y200725D01*
X1106111Y200738D01*
X1106053Y200735D01*
X1105979Y200739D01*
X1063784Y200739D01*
X1058212Y203047D01*
X1041247Y220012D01*
X1038939Y225584D01*
X1038939Y258349D01*
X1038932Y258468D01*
X1038934Y258588D01*
X1038912Y258784D01*
X1038899Y258980D01*
X1038877Y259097D01*
X1038864Y259216D01*
X1038817Y259408D01*
X1038780Y259601D01*
X1038743Y259715D01*
X1038715Y259830D01*
X1038645Y260014D01*
X1038583Y260202D01*
X1038532Y260310D01*
X1038490Y260421D01*
X1038397Y260595D01*
X1038313Y260773D01*
X1038248Y260874D01*
X1038192Y260979D01*
X1038078Y261139D01*
X1037972Y261305D01*
X1037895Y261397D01*
X1037826Y261494D01*
X1037656Y261683D01*
X1037567Y261790D01*
X1037524Y261830D01*
X1037475Y261884D01*
X1036584Y262775D01*
X1036495Y262854D01*
X1036412Y262940D01*
X1036258Y263063D01*
X1036110Y263193D01*
X1036011Y263260D01*
X1035918Y263334D01*
X1035750Y263437D01*
X1035587Y263547D01*
X1035480Y263601D01*
X1035379Y263664D01*
X1035199Y263744D01*
X1035023Y263833D01*
X1034911Y263873D01*
X1034802Y263922D01*
X1034613Y263979D01*
X1034428Y264046D01*
X1034311Y264071D01*
X1034197Y264106D01*
X1034002Y264139D01*
X1033810Y264181D01*
X1033692Y264192D01*
X1033574Y264212D01*
X1033320Y264225D01*
X1033181Y264238D01*
X1033123Y264235D01*
X1033049Y264239D01*
X1000284Y264239D01*
X994712Y266547D01*
X990447Y270812D01*
X988139Y276384D01*
X988139Y282416D01*
X990447Y287988D01*
X994712Y292253D01*
X1000284Y294561D01*
X1033049Y294561D01*
X1033168Y294568D01*
X1033288Y294566D01*
X1033484Y294588D01*
X1033680Y294601D01*
X1033797Y294623D01*
X1033916Y294636D01*
X1034108Y294683D01*
X1034301Y294720D01*
X1034415Y294757D01*
X1034530Y294785D01*
X1034714Y294855D01*
X1034902Y294917D01*
X1035010Y294968D01*
X1035121Y295010D01*
X1035295Y295103D01*
X1035473Y295187D01*
X1035574Y295252D01*
X1035679Y295308D01*
X1035839Y295422D01*
X1036005Y295528D01*
X1036097Y295605D01*
X1036194Y295674D01*
X1036383Y295844D01*
X1036490Y295933D01*
X1036530Y295976D01*
X1036584Y296025D01*
X1045512Y304953D01*
X1051084Y307261D01*
X1096549Y307261D01*
X1096668Y307268D01*
X1096788Y307266D01*
X1096984Y307288D01*
X1097180Y307301D01*
X1097297Y307323D01*
X1097416Y307336D01*
X1097608Y307383D01*
X1097801Y307420D01*
X1097915Y307457D01*
X1098030Y307485D01*
X1098214Y307555D01*
X1098402Y307617D01*
X1098510Y307668D01*
X1098621Y307710D01*
X1098795Y307803D01*
X1098973Y307887D01*
X1099074Y307952D01*
X1099179Y308008D01*
X1099339Y308122D01*
X1099505Y308228D01*
X1099597Y308305D01*
X1099694Y308374D01*
X1099883Y308544D01*
X1099990Y308633D01*
X1100030Y308676D01*
X1100084Y308725D01*
X1100975Y309616D01*
X1101054Y309705D01*
X1101140Y309788D01*
X1101263Y309942D01*
X1101393Y310090D01*
X1101460Y310189D01*
X1101534Y310282D01*
X1101637Y310450D01*
X1101747Y310613D01*
X1101801Y310720D01*
X1101864Y310821D01*
X1101944Y311001D01*
X1102033Y311177D01*
X1102073Y311289D01*
X1102122Y311398D01*
X1102179Y311587D01*
X1102246Y311772D01*
X1102271Y311889D01*
X1102306Y312003D01*
X1102339Y312198D01*
X1102381Y312390D01*
X1102392Y312508D01*
X1102412Y312626D01*
X1102425Y312880D01*
X1102438Y313019D01*
X1102435Y313077D01*
X1102439Y313151D01*
X1102439Y335949D01*
X1102425Y336167D01*
X1102420Y336385D01*
X1102406Y336482D01*
X1102399Y336580D01*
X1102358Y336794D01*
X1102326Y337009D01*
X1102299Y337104D01*
X1102280Y337201D01*
X1102212Y337408D01*
X1102153Y337617D01*
X1102114Y337708D01*
X1102083Y337802D01*
X1101990Y337999D01*
X1101905Y338199D01*
X1101855Y338284D01*
X1101813Y338373D01*
X1101695Y338557D01*
X1101585Y338744D01*
X1101525Y338822D01*
X1101472Y338905D01*
X1101332Y339072D01*
X1101199Y339245D01*
X1101130Y339315D01*
X1101067Y339390D01*
X1100907Y339539D01*
X1100753Y339693D01*
X1100676Y339753D01*
X1100603Y339821D01*
X1100427Y339947D01*
X1100255Y340081D01*
X1100170Y340131D01*
X1100090Y340189D01*
X1099898Y340292D01*
X1099711Y340403D01*
X1099620Y340442D01*
X1099534Y340489D01*
X1099330Y340568D01*
X1099131Y340654D01*
X1099036Y340682D01*
X1098944Y340717D01*
X1098733Y340769D01*
X1098523Y340830D01*
X1098426Y340845D01*
X1098330Y340869D01*
X1098114Y340894D01*
X1097899Y340928D01*
X1097801Y340930D01*
X1097703Y340942D01*
X1097485Y340939D01*
X1097267Y340946D01*
X1097169Y340936D01*
X1097070Y340935D01*
X1096855Y340905D01*
X1096638Y340884D01*
X1096542Y340862D01*
X1096444Y340849D01*
X1096234Y340792D01*
X1096022Y340743D01*
X1095916Y340706D01*
X1095834Y340684D01*
X1095715Y340635D01*
X1095527Y340568D01*
X1095216Y340439D01*
X1089184Y340439D01*
X1083612Y342747D01*
X1079347Y347012D01*
X1077039Y352584D01*
X1077039Y371316D01*
X1079347Y376888D01*
X1096312Y393853D01*
X1101884Y396161D01*
X1133316Y396161D01*
X1138888Y393853D01*
X1155853Y376888D01*
X1155876Y376832D01*
X1155972Y376636D01*
X1156060Y376437D01*
X1156111Y376353D01*
X1156154Y376264D01*
X1156274Y376083D01*
X1156386Y375896D01*
X1156448Y375819D01*
X1156502Y375737D01*
X1156643Y375571D01*
X1156779Y375401D01*
X1156849Y375332D01*
X1156913Y375257D01*
X1157075Y375111D01*
X1157230Y374958D01*
X1157309Y374899D01*
X1157382Y374833D01*
X1157561Y374708D01*
X1157734Y374577D01*
X1157820Y374528D01*
X1157901Y374471D01*
X1158094Y374370D01*
X1158282Y374262D01*
X1158373Y374224D01*
X1158461Y374178D01*
X1158665Y374102D01*
X1158866Y374019D01*
X1158961Y373992D01*
X1159053Y373958D01*
X1159265Y373909D01*
X1159475Y373851D01*
X1159573Y373837D01*
X1159669Y373814D01*
X1159885Y373792D01*
X1160101Y373761D01*
X1160200Y373760D01*
X1160298Y373750D01*
X1160515Y373755D01*
X1160733Y373751D01*
X1160831Y373762D01*
X1160929Y373765D01*
X1161144Y373797D01*
X1161361Y373821D01*
X1161457Y373845D01*
X1161554Y373859D01*
X1161764Y373919D01*
X1161976Y373970D01*
X1162068Y374005D01*
X1162162Y374032D01*
X1162363Y374118D01*
X1162566Y374195D01*
X1162653Y374242D01*
X1162744Y374280D01*
X1162932Y374391D01*
X1163124Y374493D01*
X1163204Y374550D01*
X1163289Y374600D01*
X1163462Y374733D01*
X1163639Y374859D01*
X1163723Y374934D01*
X1163790Y374986D01*
X1163881Y375077D01*
X1164030Y375210D01*
X1182672Y393853D01*
X1188244Y396161D01*
X1209516Y396161D01*
X1215088Y393853D01*
X1244753Y364188D01*
X1247061Y358616D01*
X1247061Y60484D01*
X1244753Y54912D01*
X1239785Y49944D01*
X1237126Y47285D01*
X1236960Y47097D01*
X1236789Y46913D01*
X1236751Y46860D01*
X1236708Y46811D01*
X1236567Y46603D01*
X1236421Y46400D01*
X1236390Y46342D01*
X1236353Y46287D01*
X1236240Y46064D01*
X1236121Y45844D01*
X1236097Y45782D01*
X1236067Y45724D01*
X1235983Y45488D01*
X1235893Y45254D01*
X1235877Y45190D01*
X1235855Y45128D01*
X1235801Y44884D01*
X1235741Y44640D01*
X1235734Y44575D01*
X1235719Y44511D01*
X1235697Y44261D01*
X1235668Y44013D01*
X1235669Y43947D01*
X1235663Y43881D01*
X1235672Y43630D01*
X1235675Y43380D01*
X1235684Y43315D01*
X1235686Y43250D01*
X1235727Y43002D01*
X1235761Y42754D01*
X1235779Y42691D01*
X1235789Y42626D01*
X1235861Y42386D01*
X1235926Y42144D01*
X1235951Y42083D01*
X1235970Y42020D01*
X1236072Y41791D01*
X1236167Y41560D01*
X1236199Y41502D01*
X1236226Y41442D01*
X1236355Y41228D01*
X1236479Y41010D01*
X1236518Y40957D01*
X1236552Y40901D01*
X1236708Y40705D01*
X1236858Y40504D01*
X1236904Y40457D01*
X1236945Y40406D01*
X1237124Y40230D01*
X1237298Y40050D01*
X1237349Y40009D01*
X1237396Y39963D01*
X1237596Y39812D01*
X1237792Y39656D01*
X1237848Y39621D01*
X1237900Y39582D01*
X1238117Y39457D01*
X1238331Y39326D01*
X1238391Y39299D01*
X1238448Y39267D01*
X1238680Y39170D01*
X1238908Y39068D01*
X1238971Y39049D01*
X1239032Y39023D01*
X1239273Y38957D01*
X1239513Y38884D01*
X1239578Y38873D01*
X1239641Y38856D01*
X1239889Y38820D01*
X1240136Y38778D01*
X1240210Y38774D01*
X1240267Y38766D01*
X1240406Y38764D01*
X1240660Y38751D01*
X1297939Y38751D01*
X1298058Y38758D01*
G37*
G36*
X449925Y212162D02*
X449925Y212162D01*
X450110Y212164D01*
X450240Y212182D01*
X450371Y212191D01*
X450552Y212226D01*
X450736Y212251D01*
X450862Y212285D01*
X450992Y212310D01*
X451168Y212368D01*
X451346Y212416D01*
X451467Y212466D01*
X451592Y212507D01*
X451760Y212586D01*
X451930Y212656D01*
X452045Y212721D01*
X452163Y212777D01*
X452319Y212877D01*
X452480Y212968D01*
X452585Y213047D01*
X452696Y213118D01*
X452838Y213237D01*
X452986Y213348D01*
X453080Y213439D01*
X453181Y213523D01*
X453307Y213659D01*
X453440Y213788D01*
X453522Y213890D01*
X453611Y213987D01*
X453719Y214137D01*
X453834Y214281D01*
X453903Y214394D01*
X453979Y214500D01*
X454067Y214663D01*
X454164Y214821D01*
X454217Y214941D01*
X454280Y215056D01*
X454346Y215229D01*
X454422Y215398D01*
X454460Y215523D01*
X454508Y215646D01*
X454552Y215826D01*
X454606Y216003D01*
X454628Y216132D01*
X454659Y216260D01*
X454681Y216443D01*
X454712Y216626D01*
X454720Y216779D01*
X454732Y216887D01*
X454731Y216996D01*
X454739Y217150D01*
X454739Y320516D01*
X457047Y326088D01*
X462015Y331056D01*
X475565Y344605D01*
X475730Y344793D01*
X475901Y344977D01*
X475939Y345030D01*
X475982Y345079D01*
X476123Y345287D01*
X476269Y345490D01*
X476300Y345548D01*
X476337Y345603D01*
X476450Y345827D01*
X476569Y346046D01*
X476593Y346108D01*
X476623Y346166D01*
X476707Y346402D01*
X476797Y346636D01*
X476813Y346700D01*
X476835Y346762D01*
X476889Y347006D01*
X476949Y347250D01*
X476956Y347315D01*
X476971Y347379D01*
X476993Y347629D01*
X477022Y347877D01*
X477021Y347943D01*
X477027Y348009D01*
X477018Y348260D01*
X477015Y348510D01*
X477006Y348574D01*
X477004Y348640D01*
X476963Y348888D01*
X476929Y349136D01*
X476911Y349199D01*
X476901Y349264D01*
X476829Y349504D01*
X476764Y349746D01*
X476739Y349807D01*
X476720Y349870D01*
X476619Y350099D01*
X476523Y350330D01*
X476491Y350388D01*
X476464Y350448D01*
X476335Y350662D01*
X476211Y350880D01*
X476172Y350933D01*
X476138Y350989D01*
X475982Y351185D01*
X475832Y351386D01*
X475786Y351433D01*
X475745Y351485D01*
X475566Y351660D01*
X475392Y351840D01*
X475340Y351881D01*
X475294Y351927D01*
X475094Y352077D01*
X474898Y352234D01*
X474842Y352269D01*
X474790Y352308D01*
X474573Y352433D01*
X474359Y352564D01*
X474298Y352591D01*
X474242Y352623D01*
X474011Y352719D01*
X473782Y352822D01*
X473719Y352841D01*
X473658Y352867D01*
X473416Y352933D01*
X473177Y353006D01*
X473112Y353017D01*
X473049Y353034D01*
X472801Y353070D01*
X472554Y353112D01*
X472480Y353116D01*
X472423Y353124D01*
X472283Y353126D01*
X472030Y353139D01*
X440151Y353139D01*
X440032Y353132D01*
X439912Y353134D01*
X439716Y353112D01*
X439520Y353099D01*
X439403Y353077D01*
X439284Y353064D01*
X439092Y353017D01*
X438899Y352980D01*
X438785Y352943D01*
X438670Y352915D01*
X438486Y352845D01*
X438298Y352783D01*
X438190Y352732D01*
X438079Y352690D01*
X437905Y352597D01*
X437727Y352513D01*
X437626Y352448D01*
X437521Y352392D01*
X437361Y352278D01*
X437195Y352172D01*
X437103Y352095D01*
X437006Y352026D01*
X436817Y351856D01*
X436710Y351767D01*
X436670Y351724D01*
X436616Y351675D01*
X397625Y312684D01*
X397546Y312595D01*
X397460Y312512D01*
X397337Y312358D01*
X397207Y312210D01*
X397140Y312111D01*
X397066Y312018D01*
X396963Y311850D01*
X396853Y311687D01*
X396799Y311580D01*
X396736Y311479D01*
X396656Y311299D01*
X396567Y311123D01*
X396527Y311011D01*
X396478Y310902D01*
X396421Y310713D01*
X396354Y310528D01*
X396329Y310411D01*
X396294Y310297D01*
X396261Y310103D01*
X396219Y309910D01*
X396208Y309792D01*
X396188Y309674D01*
X396175Y309420D01*
X396162Y309281D01*
X396165Y309223D01*
X396161Y309149D01*
X396161Y260303D01*
X396177Y260042D01*
X396188Y259780D01*
X396197Y259726D01*
X396201Y259672D01*
X396250Y259415D01*
X396294Y259157D01*
X396310Y259105D01*
X396320Y259051D01*
X396402Y258801D01*
X396477Y258552D01*
X396500Y258502D01*
X396517Y258450D01*
X396629Y258213D01*
X396736Y257975D01*
X396764Y257929D01*
X396787Y257879D01*
X396929Y257658D01*
X397065Y257436D01*
X397099Y257393D01*
X397128Y257347D01*
X397296Y257146D01*
X397459Y256942D01*
X397498Y256904D01*
X397533Y256862D01*
X397725Y256684D01*
X397913Y256502D01*
X397956Y256469D01*
X397997Y256432D01*
X398209Y256280D01*
X398418Y256122D01*
X398466Y256095D01*
X398510Y256063D01*
X398740Y255939D01*
X398968Y255810D01*
X399018Y255789D01*
X399066Y255763D01*
X399311Y255668D01*
X399552Y255569D01*
X399605Y255555D01*
X399656Y255535D01*
X399910Y255472D01*
X400162Y255404D01*
X400217Y255396D01*
X400270Y255383D01*
X400529Y255353D01*
X400788Y255317D01*
X400843Y255317D01*
X400897Y255310D01*
X401158Y255313D01*
X401421Y255310D01*
X401475Y255316D01*
X401530Y255317D01*
X401788Y255353D01*
X402048Y255383D01*
X402102Y255396D01*
X402156Y255403D01*
X402408Y255472D01*
X402662Y255534D01*
X402713Y255554D01*
X402766Y255568D01*
X403007Y255668D01*
X403252Y255762D01*
X403300Y255788D01*
X403350Y255809D01*
X403578Y255938D01*
X403808Y256062D01*
X403852Y256094D01*
X403900Y256121D01*
X404110Y256278D01*
X404322Y256430D01*
X404362Y256467D01*
X404406Y256500D01*
X404594Y256683D01*
X404785Y256860D01*
X404825Y256906D01*
X404860Y256940D01*
X404947Y257049D01*
X405126Y257259D01*
X405320Y257511D01*
X406459Y258651D01*
X407737Y259631D01*
X409132Y260437D01*
X409581Y260623D01*
X409581Y249390D01*
X409592Y249206D01*
X409594Y249021D01*
X409612Y248891D01*
X409621Y248760D01*
X409655Y248578D01*
X409681Y248395D01*
X409715Y248268D01*
X409740Y248139D01*
X409797Y247963D01*
X409846Y247784D01*
X409895Y247663D01*
X409936Y247538D01*
X410016Y247371D01*
X410086Y247200D01*
X410151Y247086D01*
X410207Y246967D01*
X410307Y246811D01*
X410398Y246650D01*
X410477Y246545D01*
X410548Y246435D01*
X410667Y246292D01*
X410778Y246145D01*
X410869Y246050D01*
X410953Y245949D01*
X410954Y245949D01*
X411089Y245823D01*
X411217Y245691D01*
X411218Y245690D01*
X411321Y245608D01*
X411417Y245519D01*
X411567Y245411D01*
X411712Y245296D01*
X411824Y245227D01*
X411931Y245151D01*
X412093Y245063D01*
X412251Y244966D01*
X412371Y244912D01*
X412487Y244850D01*
X412659Y244783D01*
X412828Y244708D01*
X412954Y244670D01*
X413076Y244622D01*
X413256Y244578D01*
X413433Y244524D01*
X413563Y244502D01*
X413690Y244471D01*
X413873Y244449D01*
X414056Y244418D01*
X414210Y244410D01*
X414318Y244397D01*
X414427Y244399D01*
X414580Y244391D01*
X425813Y244391D01*
X425627Y243942D01*
X424777Y242471D01*
X424723Y242398D01*
X424652Y242275D01*
X424573Y242157D01*
X424495Y242002D01*
X424408Y241850D01*
X424353Y241719D01*
X424289Y241592D01*
X424231Y241428D01*
X424164Y241267D01*
X424127Y241130D01*
X424079Y240996D01*
X424043Y240826D01*
X423997Y240658D01*
X423976Y240517D01*
X423947Y240378D01*
X423932Y240205D01*
X423907Y240032D01*
X423905Y239890D01*
X423893Y239748D01*
X423900Y239574D01*
X423897Y239400D01*
X423913Y239259D01*
X423919Y239117D01*
X423948Y238945D01*
X423967Y238772D01*
X424001Y238634D01*
X424024Y238494D01*
X424075Y238327D01*
X424116Y238157D01*
X424166Y238025D01*
X424208Y237889D01*
X424279Y237729D01*
X424341Y237567D01*
X424408Y237442D01*
X424466Y237312D01*
X424557Y237163D01*
X424639Y237009D01*
X424721Y236893D01*
X424795Y236772D01*
X424904Y236636D01*
X425005Y236494D01*
X425117Y236369D01*
X425189Y236278D01*
X425262Y236207D01*
X425356Y236103D01*
X428781Y232678D01*
X431331Y226522D01*
X431331Y219858D01*
X431001Y219063D01*
X430931Y218857D01*
X430852Y218654D01*
X430829Y218558D01*
X430797Y218465D01*
X430753Y218252D01*
X430701Y218040D01*
X430689Y217943D01*
X430670Y217846D01*
X430653Y217629D01*
X430628Y217413D01*
X430629Y217314D01*
X430621Y217216D01*
X430632Y216998D01*
X430635Y216780D01*
X430648Y216683D01*
X430653Y216584D01*
X430691Y216370D01*
X430721Y216154D01*
X430747Y216059D01*
X430764Y215962D01*
X430829Y215754D01*
X430886Y215544D01*
X430923Y215453D01*
X430953Y215359D01*
X431043Y215161D01*
X431126Y214960D01*
X431175Y214874D01*
X431216Y214784D01*
X431331Y214599D01*
X431439Y214410D01*
X431498Y214331D01*
X431550Y214247D01*
X431687Y214078D01*
X431818Y213904D01*
X431886Y213834D01*
X431949Y213757D01*
X432106Y213607D01*
X432258Y213450D01*
X432335Y213389D01*
X432406Y213321D01*
X432581Y213192D01*
X432751Y213056D01*
X432836Y213004D01*
X432915Y212946D01*
X433105Y212840D01*
X433291Y212726D01*
X433381Y212686D01*
X433467Y212638D01*
X433669Y212557D01*
X433868Y212468D01*
X433962Y212439D01*
X434054Y212403D01*
X434264Y212347D01*
X434473Y212284D01*
X434570Y212268D01*
X434665Y212243D01*
X434881Y212215D01*
X435096Y212178D01*
X435208Y212172D01*
X435292Y212162D01*
X435421Y212161D01*
X435620Y212151D01*
X449740Y212151D01*
X449925Y212162D01*
G37*
G36*
X296568Y421568D02*
X296568Y421568D01*
X296688Y421566D01*
X296884Y421588D01*
X297080Y421601D01*
X297197Y421623D01*
X297316Y421636D01*
X297508Y421683D01*
X297701Y421720D01*
X297815Y421757D01*
X297930Y421785D01*
X298114Y421855D01*
X298302Y421917D01*
X298410Y421968D01*
X298521Y422010D01*
X298695Y422103D01*
X298873Y422187D01*
X298974Y422252D01*
X299079Y422308D01*
X299239Y422422D01*
X299405Y422528D01*
X299497Y422605D01*
X299594Y422674D01*
X299783Y422844D01*
X299890Y422933D01*
X299930Y422976D01*
X299984Y423025D01*
X302120Y425161D01*
X302199Y425250D01*
X302285Y425333D01*
X302408Y425487D01*
X302538Y425635D01*
X302605Y425734D01*
X302679Y425827D01*
X302782Y425995D01*
X302892Y426158D01*
X302946Y426265D01*
X303009Y426366D01*
X303089Y426546D01*
X303178Y426722D01*
X303218Y426834D01*
X303267Y426943D01*
X303324Y427132D01*
X303391Y427317D01*
X303416Y427434D01*
X303451Y427548D01*
X303484Y427743D01*
X303526Y427935D01*
X303537Y428053D01*
X303557Y428171D01*
X303570Y428425D01*
X303583Y428564D01*
X303580Y428622D01*
X303584Y428696D01*
X303584Y449210D01*
X303570Y449428D01*
X303565Y449646D01*
X303551Y449743D01*
X303544Y449841D01*
X303503Y450055D01*
X303471Y450271D01*
X303444Y450365D01*
X303425Y450462D01*
X303357Y450670D01*
X303298Y450879D01*
X303259Y450969D01*
X303228Y451063D01*
X303135Y451260D01*
X303050Y451460D01*
X303000Y451545D01*
X302958Y451634D01*
X302840Y451817D01*
X302730Y452005D01*
X302670Y452083D01*
X302617Y452166D01*
X302477Y452333D01*
X302344Y452506D01*
X302275Y452576D01*
X302212Y452651D01*
X302052Y452800D01*
X301898Y452954D01*
X301821Y453015D01*
X301748Y453082D01*
X301572Y453208D01*
X301400Y453342D01*
X301315Y453393D01*
X301235Y453450D01*
X301044Y453553D01*
X300856Y453664D01*
X300765Y453703D01*
X300679Y453750D01*
X300475Y453829D01*
X300276Y453915D01*
X300181Y453943D01*
X300089Y453978D01*
X299877Y454030D01*
X299668Y454091D01*
X299571Y454106D01*
X299475Y454130D01*
X299259Y454155D01*
X299044Y454189D01*
X298945Y454191D01*
X298848Y454203D01*
X298630Y454200D01*
X298412Y454207D01*
X298314Y454197D01*
X298215Y454196D01*
X298000Y454166D01*
X297783Y454145D01*
X297687Y454123D01*
X297589Y454110D01*
X297379Y454053D01*
X297167Y454004D01*
X297061Y453967D01*
X296979Y453945D01*
X296860Y453896D01*
X296672Y453829D01*
X296129Y453604D01*
X290561Y453604D01*
X285417Y455735D01*
X284180Y456972D01*
X284041Y457094D01*
X283909Y457224D01*
X283804Y457303D01*
X283706Y457390D01*
X283553Y457494D01*
X283405Y457605D01*
X283291Y457671D01*
X283182Y457744D01*
X283018Y457828D01*
X282857Y457920D01*
X282736Y457971D01*
X282619Y458030D01*
X282445Y458092D01*
X282274Y458164D01*
X282147Y458198D01*
X282023Y458243D01*
X281843Y458282D01*
X281664Y458331D01*
X281534Y458350D01*
X281406Y458378D01*
X281222Y458395D01*
X281039Y458421D01*
X280907Y458423D01*
X280776Y458435D01*
X280592Y458428D01*
X280407Y458431D01*
X280276Y458416D01*
X280145Y458411D01*
X279962Y458381D01*
X279778Y458361D01*
X279650Y458330D01*
X279521Y458308D01*
X279344Y458255D01*
X279164Y458212D01*
X279041Y458165D01*
X278915Y458128D01*
X278746Y458053D01*
X278573Y457987D01*
X278458Y457925D01*
X278337Y457872D01*
X278179Y457776D01*
X278016Y457689D01*
X277909Y457613D01*
X277796Y457545D01*
X277651Y457430D01*
X277500Y457323D01*
X277386Y457221D01*
X277301Y457153D01*
X277224Y457075D01*
X277110Y456972D01*
X275873Y455735D01*
X270729Y453604D01*
X265161Y453604D01*
X260017Y455735D01*
X256080Y459672D01*
X253949Y464816D01*
X253949Y470384D01*
X255127Y473227D01*
X255197Y473433D01*
X255276Y473636D01*
X255299Y473732D01*
X255331Y473825D01*
X255375Y474038D01*
X255427Y474250D01*
X255439Y474348D01*
X255459Y474444D01*
X255475Y474661D01*
X255501Y474877D01*
X255499Y474976D01*
X255507Y475074D01*
X255496Y475292D01*
X255494Y475510D01*
X255480Y475607D01*
X255475Y475706D01*
X255437Y475920D01*
X255407Y476136D01*
X255382Y476231D01*
X255364Y476328D01*
X255299Y476536D01*
X255242Y476746D01*
X255205Y476837D01*
X255176Y476931D01*
X255085Y477129D01*
X255002Y477330D01*
X254953Y477416D01*
X254912Y477506D01*
X254797Y477691D01*
X254690Y477880D01*
X254630Y477959D01*
X254578Y478043D01*
X254441Y478211D01*
X254310Y478386D01*
X254242Y478456D01*
X254180Y478533D01*
X254022Y478683D01*
X253871Y478840D01*
X253793Y478901D01*
X253722Y478969D01*
X253547Y479098D01*
X253377Y479234D01*
X253293Y479286D01*
X253213Y479344D01*
X253023Y479450D01*
X252837Y479564D01*
X252747Y479604D01*
X252661Y479652D01*
X252459Y479733D01*
X252260Y479822D01*
X252166Y479851D01*
X252075Y479887D01*
X251864Y479942D01*
X251656Y480006D01*
X251558Y480022D01*
X251463Y480047D01*
X251248Y480075D01*
X251032Y480112D01*
X250920Y480118D01*
X250836Y480128D01*
X250707Y480129D01*
X250508Y480139D01*
X247336Y480139D01*
X247119Y480125D01*
X246901Y480120D01*
X246803Y480106D01*
X246705Y480099D01*
X246492Y480058D01*
X246276Y480026D01*
X246181Y479999D01*
X246084Y479980D01*
X245877Y479912D01*
X245668Y479853D01*
X245577Y479814D01*
X245484Y479783D01*
X245287Y479690D01*
X245087Y479605D01*
X245002Y479555D01*
X244913Y479513D01*
X244729Y479395D01*
X244541Y479285D01*
X244463Y479225D01*
X244380Y479172D01*
X244213Y479032D01*
X244041Y478899D01*
X243971Y478830D01*
X243895Y478767D01*
X243747Y478607D01*
X243593Y478453D01*
X243532Y478376D01*
X243465Y478303D01*
X243338Y478127D01*
X243204Y477955D01*
X243154Y477870D01*
X243097Y477790D01*
X242993Y477598D01*
X242882Y477411D01*
X242843Y477320D01*
X242796Y477234D01*
X242718Y477030D01*
X242631Y476831D01*
X242604Y476736D01*
X242568Y476644D01*
X242516Y476433D01*
X242456Y476223D01*
X242440Y476126D01*
X242417Y476030D01*
X242392Y475815D01*
X242358Y475599D01*
X242355Y475500D01*
X242344Y475403D01*
X242346Y475185D01*
X242340Y474967D01*
X242349Y474869D01*
X242350Y474770D01*
X242380Y474555D01*
X242402Y474338D01*
X242423Y474242D01*
X242437Y474144D01*
X242494Y473934D01*
X242542Y473722D01*
X242580Y473616D01*
X242602Y473534D01*
X242651Y473415D01*
X242717Y473227D01*
X242841Y472929D01*
X242841Y467361D01*
X240710Y462217D01*
X236773Y458280D01*
X231629Y456149D01*
X226061Y456149D01*
X220917Y458280D01*
X216550Y462647D01*
X216428Y462801D01*
X216358Y462870D01*
X216294Y462945D01*
X216132Y463091D01*
X215976Y463243D01*
X215898Y463303D01*
X215825Y463369D01*
X215646Y463493D01*
X215472Y463625D01*
X215387Y463674D01*
X215307Y463730D01*
X215113Y463831D01*
X214924Y463940D01*
X214834Y463978D01*
X214747Y464023D01*
X214542Y464099D01*
X214341Y464183D01*
X214246Y464209D01*
X214154Y464243D01*
X213942Y464293D01*
X213731Y464351D01*
X213634Y464365D01*
X213538Y464387D01*
X213321Y464410D01*
X213106Y464440D01*
X213007Y464442D01*
X212910Y464452D01*
X212692Y464447D01*
X212474Y464450D01*
X212376Y464439D01*
X212278Y464437D01*
X212062Y464404D01*
X211845Y464380D01*
X211750Y464357D01*
X211653Y464342D01*
X211443Y464283D01*
X211231Y464231D01*
X211139Y464197D01*
X211045Y464170D01*
X210844Y464084D01*
X210640Y464006D01*
X210554Y463960D01*
X210463Y463922D01*
X210275Y463811D01*
X210083Y463709D01*
X210003Y463652D01*
X209918Y463602D01*
X209745Y463469D01*
X209567Y463343D01*
X209484Y463268D01*
X209417Y463216D01*
X209326Y463125D01*
X209177Y462992D01*
X209057Y462871D01*
X207844Y461990D01*
X207844Y470145D01*
X207833Y470329D01*
X207831Y470514D01*
X207813Y470644D01*
X207804Y470775D01*
X207770Y470957D01*
X207744Y471140D01*
X207710Y471267D01*
X207685Y471396D01*
X207628Y471572D01*
X207579Y471751D01*
X207530Y471872D01*
X207489Y471997D01*
X207409Y472164D01*
X207339Y472335D01*
X207274Y472449D01*
X207218Y472568D01*
X207118Y472724D01*
X207027Y472885D01*
X206948Y472990D01*
X206877Y473100D01*
X206758Y473243D01*
X206647Y473390D01*
X206556Y473485D01*
X206472Y473586D01*
X206336Y473711D01*
X206208Y473844D01*
X206105Y473926D01*
X206009Y474016D01*
X205858Y474123D01*
X205714Y474239D01*
X205601Y474308D01*
X205495Y474384D01*
X205332Y474472D01*
X205174Y474568D01*
X205054Y474622D01*
X204939Y474684D01*
X204766Y474751D01*
X204597Y474827D01*
X204472Y474865D01*
X204349Y474912D01*
X204170Y474957D01*
X203993Y475010D01*
X203863Y475032D01*
X203736Y475064D01*
X203552Y475085D01*
X203369Y475116D01*
X203216Y475124D01*
X203108Y475137D01*
X203107Y475137D01*
X202999Y475136D01*
X202845Y475144D01*
X202660Y475132D01*
X202475Y475130D01*
X202345Y475112D01*
X202214Y475104D01*
X202032Y475069D01*
X201849Y475044D01*
X201722Y475010D01*
X201593Y474985D01*
X201417Y474927D01*
X201239Y474879D01*
X201118Y474829D01*
X200993Y474788D01*
X200825Y474709D01*
X200654Y474638D01*
X200540Y474574D01*
X200421Y474517D01*
X200265Y474417D01*
X200105Y474326D01*
X200000Y474247D01*
X199889Y474177D01*
X199747Y474058D01*
X199599Y473947D01*
X199505Y473856D01*
X199404Y473771D01*
X199278Y473636D01*
X199145Y473507D01*
X199063Y473404D01*
X198974Y473308D01*
X198866Y473158D01*
X198751Y473013D01*
X198682Y472901D01*
X198606Y472794D01*
X198518Y472632D01*
X198421Y472474D01*
X198367Y472354D01*
X198305Y472238D01*
X198238Y472066D01*
X198163Y471897D01*
X198125Y471771D01*
X198077Y471649D01*
X198033Y471469D01*
X197979Y471292D01*
X197957Y471162D01*
X197926Y471035D01*
X197904Y470852D01*
X197873Y470669D01*
X197865Y470515D01*
X197852Y470407D01*
X197853Y470359D01*
X197852Y470354D01*
X197853Y470289D01*
X197846Y470145D01*
X197846Y461990D01*
X196832Y462727D01*
X196740Y462785D01*
X196653Y462851D01*
X196473Y462955D01*
X196298Y463066D01*
X196200Y463112D01*
X196105Y463166D01*
X195914Y463246D01*
X195726Y463334D01*
X195622Y463367D01*
X195522Y463409D01*
X195322Y463464D01*
X195124Y463528D01*
X195017Y463548D01*
X194912Y463577D01*
X194706Y463606D01*
X194503Y463645D01*
X194395Y463651D01*
X194287Y463666D01*
X194079Y463670D01*
X193872Y463682D01*
X193763Y463675D01*
X193655Y463676D01*
X193448Y463653D01*
X193241Y463639D01*
X193135Y463618D01*
X193026Y463606D01*
X192824Y463557D01*
X192621Y463517D01*
X192518Y463483D01*
X192412Y463458D01*
X192218Y463383D01*
X192021Y463318D01*
X191923Y463271D01*
X191821Y463232D01*
X191639Y463135D01*
X191451Y463045D01*
X191360Y462986D01*
X191264Y462935D01*
X191095Y462815D01*
X190920Y462702D01*
X190837Y462632D01*
X190748Y462569D01*
X190544Y462385D01*
X190437Y462295D01*
X190404Y462259D01*
X190358Y462218D01*
X185433Y457292D01*
X184083Y456733D01*
X183887Y456637D01*
X183688Y456549D01*
X183604Y456498D01*
X183515Y456455D01*
X183333Y456335D01*
X183147Y456223D01*
X183070Y456161D01*
X182988Y456107D01*
X182822Y455965D01*
X182652Y455830D01*
X182583Y455760D01*
X182508Y455696D01*
X182362Y455534D01*
X182209Y455379D01*
X182150Y455300D01*
X182084Y455227D01*
X181959Y455048D01*
X181828Y454875D01*
X181779Y454789D01*
X181722Y454708D01*
X181621Y454516D01*
X181513Y454327D01*
X181475Y454235D01*
X181429Y454148D01*
X181353Y453945D01*
X181270Y453743D01*
X181243Y453648D01*
X181209Y453556D01*
X181160Y453344D01*
X181102Y453134D01*
X181088Y453036D01*
X181065Y452940D01*
X181043Y452724D01*
X181012Y452508D01*
X181011Y452409D01*
X181001Y452311D01*
X181006Y452094D01*
X181002Y451876D01*
X181013Y451778D01*
X181016Y451680D01*
X181048Y451464D01*
X181072Y451248D01*
X181096Y451152D01*
X181110Y451055D01*
X181170Y450845D01*
X181221Y450633D01*
X181256Y450541D01*
X181283Y450447D01*
X181369Y450246D01*
X181446Y450043D01*
X181493Y449956D01*
X181531Y449865D01*
X181641Y449677D01*
X181744Y449485D01*
X181801Y449405D01*
X181851Y449320D01*
X181984Y449147D01*
X182110Y448970D01*
X182185Y448886D01*
X182237Y448819D01*
X182328Y448728D01*
X182461Y448579D01*
X208016Y423025D01*
X208105Y422946D01*
X208188Y422860D01*
X208342Y422737D01*
X208490Y422607D01*
X208589Y422540D01*
X208682Y422466D01*
X208850Y422363D01*
X209013Y422253D01*
X209120Y422199D01*
X209221Y422136D01*
X209401Y422056D01*
X209577Y421967D01*
X209689Y421927D01*
X209798Y421878D01*
X209987Y421821D01*
X210172Y421754D01*
X210289Y421729D01*
X210403Y421694D01*
X210598Y421661D01*
X210790Y421619D01*
X210908Y421608D01*
X211026Y421588D01*
X211280Y421575D01*
X211419Y421562D01*
X211477Y421565D01*
X211551Y421561D01*
X296449Y421561D01*
X296568Y421568D01*
G37*
G36*
X1112377Y120107D02*
X1112377Y120107D01*
X1112638Y120118D01*
X1112692Y120127D01*
X1112747Y120131D01*
X1113004Y120180D01*
X1113261Y120224D01*
X1113314Y120240D01*
X1113368Y120250D01*
X1113617Y120331D01*
X1113866Y120407D01*
X1113916Y120429D01*
X1113969Y120447D01*
X1114205Y120559D01*
X1114443Y120665D01*
X1114490Y120694D01*
X1114540Y120717D01*
X1114760Y120859D01*
X1114983Y120994D01*
X1115026Y121028D01*
X1115072Y121058D01*
X1115273Y121226D01*
X1115477Y121389D01*
X1115515Y121428D01*
X1115557Y121463D01*
X1115735Y121655D01*
X1115917Y121842D01*
X1115950Y121886D01*
X1115987Y121927D01*
X1116139Y122139D01*
X1116296Y122348D01*
X1116324Y122396D01*
X1116356Y122440D01*
X1116410Y122541D01*
X1126490Y122541D01*
X1136574Y122541D01*
X1136682Y122350D01*
X1136715Y122306D01*
X1136743Y122259D01*
X1136905Y122053D01*
X1137061Y121844D01*
X1137100Y121805D01*
X1137134Y121761D01*
X1137319Y121578D01*
X1137501Y121390D01*
X1137544Y121356D01*
X1137583Y121317D01*
X1137791Y121159D01*
X1137995Y120996D01*
X1138042Y120967D01*
X1138086Y120934D01*
X1138312Y120803D01*
X1138535Y120666D01*
X1138585Y120644D01*
X1138632Y120616D01*
X1138873Y120515D01*
X1139111Y120408D01*
X1139164Y120392D01*
X1139215Y120371D01*
X1139466Y120300D01*
X1139716Y120224D01*
X1139770Y120215D01*
X1139823Y120200D01*
X1140082Y120162D01*
X1140339Y120118D01*
X1140401Y120115D01*
X1140449Y120108D01*
X1140588Y120105D01*
X1140864Y120091D01*
X1145759Y120091D01*
X1145879Y120098D01*
X1145998Y120096D01*
X1146194Y120118D01*
X1146390Y120131D01*
X1146508Y120153D01*
X1146626Y120166D01*
X1146817Y120213D01*
X1147011Y120250D01*
X1147125Y120287D01*
X1147241Y120315D01*
X1147424Y120385D01*
X1147612Y120447D01*
X1147720Y120498D01*
X1147831Y120540D01*
X1148005Y120633D01*
X1148183Y120717D01*
X1148284Y120782D01*
X1148389Y120838D01*
X1148549Y120952D01*
X1148715Y121058D01*
X1148807Y121135D01*
X1148904Y121204D01*
X1149093Y121374D01*
X1149200Y121463D01*
X1149237Y121503D01*
X1149254Y121517D01*
X1149263Y121527D01*
X1149295Y121555D01*
X1150665Y122926D01*
X1150744Y123015D01*
X1150830Y123098D01*
X1150953Y123252D01*
X1151083Y123400D01*
X1151150Y123499D01*
X1151224Y123592D01*
X1151327Y123760D01*
X1151437Y123923D01*
X1151491Y124030D01*
X1151554Y124131D01*
X1151634Y124312D01*
X1151723Y124487D01*
X1151763Y124599D01*
X1151812Y124708D01*
X1151869Y124897D01*
X1151936Y125082D01*
X1151961Y125199D01*
X1151996Y125313D01*
X1152029Y125507D01*
X1152071Y125700D01*
X1152082Y125819D01*
X1152102Y125936D01*
X1152115Y126190D01*
X1152128Y126329D01*
X1152125Y126387D01*
X1152129Y126461D01*
X1152129Y157859D01*
X1152122Y157978D01*
X1152124Y158098D01*
X1152102Y158294D01*
X1152089Y158490D01*
X1152067Y158607D01*
X1152054Y158726D01*
X1152007Y158918D01*
X1151970Y159111D01*
X1151933Y159225D01*
X1151905Y159340D01*
X1151835Y159524D01*
X1151773Y159712D01*
X1151722Y159820D01*
X1151680Y159931D01*
X1151587Y160105D01*
X1151503Y160283D01*
X1151438Y160384D01*
X1151382Y160489D01*
X1151268Y160649D01*
X1151162Y160815D01*
X1151085Y160907D01*
X1151016Y161004D01*
X1150846Y161193D01*
X1150757Y161300D01*
X1150714Y161340D01*
X1150665Y161394D01*
X1150344Y161715D01*
X1150255Y161794D01*
X1150172Y161880D01*
X1150018Y162003D01*
X1149870Y162133D01*
X1149771Y162200D01*
X1149678Y162274D01*
X1149510Y162377D01*
X1149347Y162487D01*
X1149240Y162541D01*
X1149139Y162604D01*
X1148959Y162684D01*
X1148783Y162773D01*
X1148671Y162813D01*
X1148562Y162862D01*
X1148373Y162919D01*
X1148188Y162986D01*
X1148071Y163011D01*
X1147957Y163046D01*
X1147762Y163079D01*
X1147570Y163121D01*
X1147452Y163132D01*
X1147334Y163152D01*
X1147080Y163165D01*
X1146941Y163178D01*
X1146883Y163175D01*
X1146809Y163179D01*
X1146141Y163179D01*
X1145923Y163165D01*
X1145705Y163160D01*
X1145608Y163146D01*
X1145510Y163139D01*
X1145296Y163098D01*
X1145081Y163066D01*
X1144986Y163039D01*
X1144889Y163020D01*
X1144682Y162952D01*
X1144473Y162893D01*
X1144382Y162854D01*
X1144288Y162823D01*
X1144091Y162730D01*
X1143891Y162645D01*
X1143806Y162595D01*
X1143717Y162553D01*
X1143533Y162435D01*
X1143346Y162325D01*
X1143268Y162265D01*
X1143185Y162212D01*
X1143018Y162072D01*
X1142845Y161939D01*
X1142775Y161870D01*
X1142700Y161807D01*
X1142551Y161647D01*
X1142397Y161493D01*
X1142337Y161416D01*
X1142269Y161343D01*
X1142143Y161167D01*
X1142009Y160995D01*
X1141959Y160910D01*
X1141901Y160830D01*
X1141798Y160638D01*
X1141687Y160451D01*
X1141648Y160360D01*
X1141601Y160274D01*
X1141522Y160070D01*
X1141436Y159871D01*
X1141408Y159776D01*
X1141373Y159684D01*
X1141321Y159473D01*
X1141260Y159263D01*
X1141245Y159166D01*
X1141221Y159070D01*
X1141196Y158854D01*
X1141162Y158639D01*
X1141160Y158541D01*
X1141148Y158443D01*
X1141151Y158225D01*
X1141144Y158007D01*
X1141154Y157909D01*
X1141155Y157810D01*
X1141185Y157595D01*
X1141206Y157378D01*
X1141228Y157282D01*
X1141241Y157184D01*
X1141298Y156974D01*
X1141347Y156762D01*
X1141384Y156656D01*
X1141406Y156574D01*
X1141455Y156455D01*
X1141522Y156267D01*
X1141651Y155956D01*
X1141651Y149924D01*
X1139343Y144352D01*
X1134702Y139712D01*
X1134630Y139630D01*
X1134552Y139555D01*
X1134422Y139393D01*
X1134284Y139237D01*
X1134223Y139147D01*
X1134155Y139063D01*
X1134046Y138886D01*
X1133930Y138714D01*
X1133881Y138617D01*
X1133824Y138525D01*
X1133738Y138335D01*
X1133644Y138150D01*
X1133607Y138048D01*
X1133563Y137949D01*
X1133501Y137750D01*
X1133432Y137555D01*
X1133408Y137449D01*
X1133376Y137345D01*
X1133341Y137140D01*
X1133296Y136937D01*
X1133286Y136829D01*
X1133268Y136722D01*
X1133258Y136515D01*
X1133240Y136308D01*
X1133244Y136199D01*
X1133239Y136091D01*
X1133255Y135884D01*
X1133263Y135676D01*
X1133281Y135569D01*
X1133289Y135461D01*
X1133332Y135257D01*
X1133366Y135053D01*
X1133397Y134949D01*
X1133419Y134842D01*
X1133487Y134646D01*
X1133547Y134447D01*
X1133591Y134347D01*
X1133626Y134245D01*
X1133718Y134059D01*
X1133802Y133869D01*
X1133859Y133776D01*
X1133907Y133678D01*
X1134057Y133447D01*
X1134129Y133328D01*
X1134159Y133290D01*
X1134193Y133238D01*
X1134684Y132561D01*
X1134695Y132539D01*
X1126490Y132539D01*
X1117727Y132539D01*
X1117726Y132723D01*
X1117723Y132744D01*
X1117723Y132766D01*
X1117683Y133058D01*
X1117645Y133350D01*
X1117640Y133370D01*
X1117637Y133392D01*
X1117561Y133673D01*
X1117486Y133961D01*
X1117477Y133981D01*
X1117472Y134002D01*
X1117360Y134273D01*
X1117250Y134548D01*
X1117240Y134567D01*
X1117231Y134587D01*
X1117086Y134842D01*
X1116942Y135100D01*
X1116930Y135117D01*
X1116919Y135136D01*
X1116742Y135372D01*
X1116568Y135609D01*
X1116553Y135625D01*
X1116540Y135642D01*
X1116334Y135854D01*
X1116132Y136067D01*
X1116115Y136080D01*
X1116100Y136096D01*
X1115869Y136280D01*
X1115641Y136466D01*
X1115623Y136477D01*
X1115606Y136490D01*
X1115354Y136645D01*
X1115105Y136799D01*
X1115085Y136808D01*
X1115067Y136820D01*
X1114797Y136941D01*
X1114530Y137063D01*
X1114510Y137069D01*
X1114490Y137078D01*
X1114207Y137164D01*
X1113927Y137252D01*
X1113906Y137256D01*
X1113885Y137262D01*
X1113593Y137312D01*
X1113305Y137363D01*
X1113283Y137364D01*
X1113262Y137368D01*
X1112738Y137395D01*
X1038856Y137395D01*
X1038606Y137380D01*
X1038356Y137370D01*
X1038291Y137360D01*
X1038225Y137355D01*
X1037979Y137308D01*
X1037732Y137267D01*
X1037669Y137249D01*
X1037604Y137236D01*
X1037366Y137158D01*
X1037126Y137087D01*
X1037066Y137060D01*
X1037004Y137040D01*
X1036777Y136932D01*
X1036548Y136831D01*
X1036492Y136797D01*
X1036433Y136769D01*
X1036221Y136633D01*
X1036007Y136504D01*
X1035956Y136463D01*
X1035900Y136428D01*
X1035707Y136267D01*
X1035512Y136112D01*
X1035466Y136065D01*
X1035415Y136023D01*
X1035245Y135840D01*
X1035069Y135660D01*
X1035030Y135608D01*
X1034985Y135560D01*
X1034840Y135357D01*
X1034688Y135156D01*
X1034655Y135099D01*
X1034617Y135046D01*
X1034498Y134826D01*
X1034373Y134608D01*
X1034347Y134547D01*
X1034316Y134490D01*
X1034226Y134256D01*
X1034130Y134025D01*
X1034112Y133962D01*
X1034088Y133900D01*
X1034028Y133657D01*
X1033962Y133415D01*
X1033952Y133350D01*
X1033937Y133287D01*
X1033908Y133038D01*
X1033872Y132790D01*
X1033871Y132724D01*
X1033864Y132659D01*
X1033866Y132409D01*
X1033862Y132158D01*
X1033870Y132092D01*
X1033870Y132027D01*
X1033905Y131779D01*
X1033932Y131529D01*
X1033948Y131465D01*
X1033957Y131400D01*
X1034022Y131159D01*
X1034081Y130915D01*
X1034105Y130854D01*
X1034122Y130790D01*
X1034217Y130559D01*
X1034306Y130324D01*
X1034337Y130267D01*
X1034362Y130206D01*
X1034486Y129988D01*
X1034604Y129767D01*
X1034642Y129713D01*
X1034675Y129656D01*
X1034825Y129456D01*
X1034970Y129251D01*
X1035019Y129197D01*
X1035054Y129150D01*
X1035151Y129050D01*
X1035321Y128861D01*
X1042627Y121555D01*
X1042705Y121486D01*
X1042746Y121444D01*
X1042754Y121438D01*
X1042800Y121390D01*
X1042954Y121267D01*
X1043102Y121137D01*
X1043200Y121070D01*
X1043294Y120996D01*
X1043462Y120893D01*
X1043625Y120783D01*
X1043731Y120729D01*
X1043833Y120666D01*
X1044013Y120586D01*
X1044189Y120497D01*
X1044301Y120457D01*
X1044410Y120408D01*
X1044599Y120351D01*
X1044784Y120284D01*
X1044900Y120259D01*
X1045015Y120224D01*
X1045209Y120191D01*
X1045401Y120149D01*
X1045520Y120138D01*
X1045638Y120118D01*
X1045892Y120105D01*
X1046031Y120092D01*
X1046089Y120095D01*
X1046162Y120091D01*
X1112116Y120091D01*
X1112377Y120107D01*
G37*
%LPC*%
G36*
X949288Y300357D02*
X949288Y300357D01*
X943167Y302892D01*
X940011Y306049D01*
X939888Y306157D01*
X939773Y306272D01*
X939651Y306365D01*
X939536Y306467D01*
X939401Y306558D01*
X939272Y306658D01*
X939140Y306735D01*
X939013Y306821D01*
X938868Y306895D01*
X938727Y306977D01*
X938586Y307038D01*
X938449Y307107D01*
X938295Y307162D01*
X938146Y307226D01*
X937999Y307268D01*
X937854Y307319D01*
X937695Y307354D01*
X937538Y307399D01*
X937386Y307422D01*
X937237Y307455D01*
X937074Y307469D01*
X936913Y307494D01*
X936760Y307498D01*
X936607Y307511D01*
X936444Y307505D01*
X936281Y307509D01*
X936128Y307494D01*
X935975Y307488D01*
X935814Y307461D01*
X935652Y307445D01*
X935503Y307410D01*
X935352Y307385D01*
X935196Y307338D01*
X935037Y307301D01*
X934893Y307248D01*
X934746Y307204D01*
X934597Y307138D01*
X934444Y307082D01*
X934281Y306998D01*
X934168Y306949D01*
X934088Y306900D01*
X933976Y306843D01*
X932604Y306051D01*
X932199Y305883D01*
X932199Y317010D01*
X932199Y328137D01*
X932604Y327969D01*
X933976Y327177D01*
X934122Y327104D01*
X934264Y327023D01*
X934405Y326964D01*
X934542Y326896D01*
X934697Y326842D01*
X934847Y326780D01*
X934995Y326739D01*
X935140Y326689D01*
X935299Y326655D01*
X935456Y326612D01*
X935608Y326590D01*
X935758Y326559D01*
X935920Y326546D01*
X936082Y326522D01*
X936236Y326520D01*
X936388Y326508D01*
X936551Y326515D01*
X936714Y326513D01*
X936866Y326530D01*
X937020Y326537D01*
X937180Y326565D01*
X937342Y326583D01*
X937492Y326619D01*
X937642Y326645D01*
X937798Y326693D01*
X937957Y326731D01*
X938100Y326786D01*
X938246Y326831D01*
X938395Y326898D01*
X938547Y326956D01*
X938683Y327029D01*
X938822Y327092D01*
X938961Y327177D01*
X939105Y327254D01*
X939230Y327343D01*
X939360Y327423D01*
X939487Y327526D01*
X939621Y327620D01*
X939757Y327743D01*
X939853Y327820D01*
X939917Y327887D01*
X940011Y327971D01*
X943167Y331128D01*
X949288Y333663D01*
X955912Y333663D01*
X962033Y331127D01*
X966717Y326443D01*
X969253Y320322D01*
X969253Y313698D01*
X966717Y307577D01*
X962033Y302893D01*
X955912Y300357D01*
X949288Y300357D01*
G37*
%LPD*%
%LPC*%
G36*
X449817Y411965D02*
X449817Y411965D01*
X448252Y412869D01*
X446818Y413969D01*
X445539Y415248D01*
X444439Y416682D01*
X443535Y418247D01*
X442843Y419918D01*
X442375Y421664D01*
X442139Y423456D01*
X442139Y430611D01*
X450931Y430611D01*
X450931Y411504D01*
X449817Y411965D01*
G37*
%LPD*%
%LPC*%
G36*
X1437559Y627299D02*
X1437559Y627299D01*
X1437559Y632381D01*
X1440350Y632381D01*
X1440841Y632283D01*
X1441304Y632092D01*
X1441720Y631814D01*
X1442074Y631460D01*
X1442352Y631044D01*
X1442543Y630581D01*
X1442641Y630090D01*
X1442641Y627299D01*
X1437559Y627299D01*
G37*
%LPD*%
%LPC*%
G36*
X1422479Y627299D02*
X1422479Y627299D01*
X1422479Y630090D01*
X1422577Y630581D01*
X1422768Y631044D01*
X1423046Y631460D01*
X1423400Y631814D01*
X1423816Y632092D01*
X1424279Y632283D01*
X1424770Y632381D01*
X1427561Y632381D01*
X1427561Y627299D01*
X1422479Y627299D01*
G37*
%LPD*%
%LPC*%
G36*
X419579Y254389D02*
X419579Y254389D01*
X419579Y260623D01*
X420028Y260437D01*
X421423Y259631D01*
X422701Y258651D01*
X423841Y257511D01*
X424821Y256233D01*
X425627Y254838D01*
X425813Y254389D01*
X419579Y254389D01*
G37*
%LPD*%
%LPC*%
G36*
X1304209Y350601D02*
X1304209Y350601D01*
X1307415Y350601D01*
X1307404Y350578D01*
X1306518Y349359D01*
X1305451Y348292D01*
X1304232Y347406D01*
X1304209Y347395D01*
X1304209Y350601D01*
G37*
%LPD*%
D10*
X952600Y317010D03*
X927200Y317010D03*
X901800Y317010D03*
X876400Y317010D03*
X851000Y317010D03*
X825600Y317010D03*
X800200Y317010D03*
X774800Y317010D03*
X749400Y317010D03*
X724000Y317010D03*
X698600Y317010D03*
X673200Y317010D03*
X647800Y317010D03*
X622400Y317010D03*
X597000Y317010D03*
X952600Y69310D03*
X927200Y69310D03*
X901800Y69310D03*
X876400Y69310D03*
X851000Y69310D03*
X825600Y69310D03*
X800200Y69310D03*
X774800Y69310D03*
X749400Y69310D03*
X724000Y69310D03*
X698600Y69310D03*
X673200Y69310D03*
X647800Y69310D03*
X622400Y69310D03*
X597000Y69310D03*
D11*
X1372080Y354150D03*
X1402080Y354150D03*
X1432080Y354150D03*
D12*
X1342080Y354330D03*
X1462080Y354330D03*
D13*
X1273810Y355600D03*
X1299210Y355600D03*
D14*
X1432560Y546100D03*
X1432560Y520700D03*
X1432560Y495300D03*
X1432560Y469900D03*
X1432560Y571500D03*
X1432560Y596900D03*
X1432560Y622300D03*
D13*
X1126490Y127540D03*
X1126490Y152940D03*
X1126490Y178340D03*
X1126490Y203740D03*
D15*
X414580Y249390D03*
X414580Y223190D03*
X414580Y196990D03*
X414580Y170790D03*
X414580Y144590D03*
X414580Y118390D03*
D13*
X1176020Y355600D03*
X1201420Y355600D03*
X1092200Y355600D03*
X1117600Y355600D03*
D16*
X394945Y467600D03*
X369545Y467600D03*
X344145Y467600D03*
X318745Y467600D03*
X293345Y467600D03*
X267945Y467600D03*
X228845Y470145D03*
X202845Y470145D03*
X176845Y470145D03*
X150845Y470145D03*
X124845Y470145D03*
X98845Y470145D03*
X72845Y470145D03*
X46845Y470145D03*
D17*
X455930Y446860D02*
X455930Y424360D01*
X488430Y424360D02*
X488430Y446860D01*
X520930Y446860D02*
X520930Y424360D01*
D18*
X1143000Y127000D03*
X1270000Y127000D03*
X1066800Y127000D03*
X1066800Y177800D03*
X419100Y304800D03*
X350520Y304800D03*
X228600Y431800D03*
X228600Y368300D03*
D19*
X998320Y23590D02*
X1306290Y23590D01*
X998320Y23590D02*
X952600Y69310D01*
X1306290Y23590D02*
X1409700Y127000D01*
X1409700Y331770D01*
X1432080Y354150D01*
X1432080Y377980D01*
X1460500Y406400D02*
X1460500Y584200D01*
X1447800Y596900D01*
X1432560Y596900D01*
X1460500Y406400D02*
X1432080Y377980D01*
X800360Y317170D02*
X800200Y317010D01*
X800360Y317170D02*
X800360Y329741D01*
X927819Y457200D01*
X1346200Y457200D01*
X1358900Y469900D02*
X1358900Y495300D01*
X1371600Y508000D01*
D18*
X1371600Y508000D03*
D19*
X1358900Y469900D02*
X1346200Y457200D01*
X825760Y317170D02*
X825600Y317010D01*
X825760Y317170D02*
X825760Y326631D01*
X930929Y431800D01*
X1397000Y457200D02*
X1397000Y520700D01*
X1422400Y546100D01*
X1432560Y546100D01*
X1371600Y431800D02*
X930929Y431800D01*
X1371600Y431800D02*
X1397000Y457200D01*
X558800Y190500D02*
X558800Y110490D01*
X504350Y56040D02*
X385349Y56040D01*
X504350Y56040D02*
X558800Y110490D01*
X558800Y190500D02*
X635000Y266700D01*
X673100Y266700D01*
X698600Y292200D02*
X698600Y317010D01*
X698600Y292200D02*
X673100Y266700D01*
X152400Y468590D02*
X150845Y470145D01*
X152400Y468590D02*
X152400Y457200D01*
X304800Y406400D02*
X322580Y388620D01*
X322580Y118809D01*
X385349Y56040D01*
X304800Y406400D02*
X318745Y420345D01*
X304800Y406400D02*
X203200Y406400D01*
X152400Y457200D01*
X318745Y467600D02*
X318745Y420345D01*
X344145Y467600D02*
X342900Y468845D01*
X342900Y482600D01*
X176845Y482600D02*
X176845Y470145D01*
D18*
X622300Y419100D03*
D19*
X541020Y500380D01*
X189545Y495300D02*
X176845Y482600D01*
X189545Y495300D02*
X330200Y495300D01*
X342900Y482600D01*
X360680Y500380D01*
X541020Y500380D01*
X1117600Y355600D02*
X1117600Y304800D01*
X1054100Y266700D02*
X1041400Y279400D01*
X1054100Y292100D01*
X1104900Y292100D01*
X1114330Y215900D02*
X1126490Y203740D01*
X1104900Y292100D02*
X1117600Y304800D01*
X1054100Y266700D02*
X1054100Y228600D01*
X1066800Y215900D01*
X1114330Y215900D01*
X1041400Y279400D02*
X1003300Y279400D01*
D18*
X1003300Y279400D03*
D19*
X520930Y467600D02*
X520700Y467600D01*
X520930Y467600D02*
X520930Y435610D01*
X407565Y480220D02*
X394945Y467600D01*
X508080Y480220D02*
X520700Y467600D01*
X508080Y480220D02*
X407565Y480220D01*
X724000Y326989D02*
X724000Y317010D01*
X724000Y326989D02*
X702849Y348140D01*
X500540Y348140D01*
X469900Y317500D01*
X469900Y203200D01*
X463690Y196990D02*
X414580Y196990D01*
X463690Y196990D02*
X469900Y203200D01*
X381000Y317500D02*
X431800Y368300D01*
X711200Y368300D01*
X749400Y330100D02*
X749400Y317010D01*
X749400Y330100D02*
X711200Y368300D01*
X389890Y143510D02*
X381000Y152400D01*
X389890Y143510D02*
X413500Y143510D01*
X414580Y144590D01*
X381000Y152400D02*
X381000Y317500D01*
X597000Y317010D02*
X597000Y266800D01*
X415030Y170340D02*
X414580Y170790D01*
X415030Y170340D02*
X500540Y170340D01*
X597000Y266800D01*
X774800Y254100D02*
X774800Y317010D01*
X774800Y254100D02*
X774700Y254000D01*
D18*
X774700Y254000D03*
X876300Y254000D03*
D19*
X1176020Y365760D02*
X1191260Y381000D01*
X1176020Y365760D02*
X1176020Y355600D01*
X1212850Y44450D02*
X1012760Y44450D01*
X1212850Y44450D02*
X1231900Y63500D01*
X1231900Y355600D01*
X965200Y92010D02*
X1012760Y44450D01*
X1231900Y355600D02*
X1206500Y381000D01*
X1191260Y381000D01*
X901800Y82650D02*
X901800Y69310D01*
X911160Y92010D02*
X965200Y92010D01*
X911160Y92010D02*
X901800Y82650D01*
X876400Y89000D02*
X876400Y69310D01*
X876400Y89000D02*
X899570Y112170D01*
X973551Y112170D02*
X1021111Y64610D01*
X1196180Y64610D02*
X1207770Y76200D01*
X973551Y112170D02*
X899570Y112170D01*
X1021111Y64610D02*
X1196180Y64610D01*
X1207770Y349250D02*
X1201420Y355600D01*
X1207770Y349250D02*
X1207770Y76200D01*
X851000Y69310D02*
X851000Y92111D01*
X891219Y132330D02*
X981901Y132330D01*
X891219Y132330D02*
X851000Y92111D01*
X1104900Y381000D02*
X1130300Y381000D01*
X1104900Y381000D02*
X1092200Y368300D01*
X1092200Y355600D01*
X1143000Y342900D02*
X1143000Y368300D01*
X981901Y132330D02*
X1029461Y84770D01*
X1187450Y298450D02*
X1143000Y342900D01*
X1187450Y97470D02*
X1174750Y84770D01*
X1187450Y97470D02*
X1187450Y298450D01*
X1174750Y84770D02*
X1029461Y84770D01*
X1143000Y368300D02*
X1130300Y381000D01*
X1273810Y372110D02*
X1273810Y355600D01*
X1282700Y381000D02*
X1397000Y381000D01*
X1402080Y375920D02*
X1402080Y354150D01*
X1402080Y375920D02*
X1397000Y381000D01*
X1282700Y381000D02*
X1273810Y372110D01*
X800200Y69310D02*
X800100Y69210D01*
X800100Y50800D01*
X376999Y35880D02*
X301689Y111189D01*
X376999Y35880D02*
X785180Y35880D01*
X800100Y50800D01*
D18*
X301689Y352489D03*
D19*
X301689Y111189D01*
X997332Y175190D02*
X1019966Y152556D01*
X1126106Y152556D01*
X1126490Y152940D01*
X912591Y175190D02*
X901800Y185981D01*
X912591Y175190D02*
X997332Y175190D01*
X901800Y185981D02*
X901800Y317010D01*
X851000Y200650D02*
X897890Y153760D01*
X988982Y153760D01*
X851000Y200650D02*
X851000Y317010D01*
X1154110Y104930D02*
X1167290Y118110D01*
X1167290Y166210D01*
X1155160Y178340D02*
X1126490Y178340D01*
X1037812Y104930D02*
X988982Y153760D01*
X1037812Y104930D02*
X1154110Y104930D01*
X1167290Y166210D02*
X1155160Y178340D01*
M02*
